<svg width="405" height="65" viewBox="0 0 405 65" fill="none" xmlns="http://www.w3.org/2000/svg">
<path d="M86.7064 15.5518C86.1372 13.9063 85.5904 12.3803 85.066 10.974C84.5567 9.58249 84.0548 8.25845 83.5605 7.00186C83.0661 5.74495 82.5718 4.54068 82.0774 3.38873C81.5981 2.25159 81.1037 1.12201 80.5943 0H78.5495C78.0401 1.12201 77.5383 2.25159 77.0439 3.38873C76.5646 4.54068 76.0702 5.74495 75.5609 7.00186C75.0665 8.25845 74.5571 9.58249 74.0328 10.974C73.5085 12.3803 72.9692 13.9063 72.4149 15.5518H74.8193C75.6283 13.1881 76.4222 10.9141 77.2012 8.72963C77.9802 6.5455 78.7817 4.49594 79.6056 2.58095C80.4296 4.4808 81.231 6.52312 82.01 8.70725C82.789 10.9065 83.5755 13.1881 84.3695 15.5518H86.7064Z" fill="black"/>
<path d="M86.7064 15.5518C86.1372 13.9063 85.5904 12.3803 85.066 10.974C84.5567 9.58249 84.0548 8.25845 83.5605 7.00186C83.0661 5.74495 82.5718 4.54068 82.0774 3.38873C81.5981 2.25159 81.1037 1.12201 80.5943 0H78.5495C78.0401 1.12201 77.5383 2.25159 77.0439 3.38873C76.5646 4.54068 76.0702 5.74495 75.5609 7.00186C75.0665 8.25845 74.5571 9.58249 74.0328 10.974C73.5085 12.3803 72.9692 13.9063 72.4149 15.5518H74.8193C75.6283 13.1881 76.4222 10.9141 77.2012 8.72963C77.9802 6.5455 78.7817 4.49594 79.6056 2.58095C80.4296 4.4808 81.231 6.52312 82.01 8.70725C82.789 10.9065 83.5755 13.1881 84.3695 15.5518H86.7064Z" fill="url(#paint0_linear_520_6745)"/>
<path d="M86.7064 15.5518C86.1372 13.9063 85.5904 12.3803 85.066 10.974C84.5567 9.58249 84.0548 8.25845 83.5605 7.00186C83.0661 5.74495 82.5718 4.54068 82.0774 3.38873C81.5981 2.25159 81.1037 1.12201 80.5943 0H78.5495C78.0401 1.12201 77.5383 2.25159 77.0439 3.38873C76.5646 4.54068 76.0702 5.74495 75.5609 7.00186C75.0665 8.25845 74.5571 9.58249 74.0328 10.974C73.5085 12.3803 72.9692 13.9063 72.4149 15.5518H74.8193C75.6283 13.1881 76.4222 10.9141 77.2012 8.72963C77.9802 6.5455 78.7817 4.49594 79.6056 2.58095C80.4296 4.4808 81.231 6.52312 82.01 8.70725C82.789 10.9065 83.5755 13.1881 84.3695 15.5518H86.7064Z" fill="#062633"/>
<path d="M86.7064 15.5518C86.1372 13.9063 85.5904 12.3803 85.066 10.974C84.5567 9.58249 84.0548 8.25845 83.5605 7.00186C83.0661 5.74495 82.5718 4.54068 82.0774 3.38873C81.5981 2.25159 81.1037 1.12201 80.5943 0H78.5495C78.0401 1.12201 77.5383 2.25159 77.0439 3.38873C76.5646 4.54068 76.0702 5.74495 75.5609 7.00186C75.0665 8.25845 74.5571 9.58249 74.0328 10.974C73.5085 12.3803 72.9692 13.9063 72.4149 15.5518H74.8193C75.6283 13.1881 76.4222 10.9141 77.2012 8.72963C77.9802 6.5455 78.7817 4.49594 79.6056 2.58095C80.4296 4.4808 81.231 6.52312 82.01 8.70725C82.789 10.9065 83.5755 13.1881 84.3695 15.5518H86.7064Z" fill="#005B8B"/>
<path d="M86.7064 15.5518C86.1372 13.9063 85.5904 12.3803 85.066 10.974C84.5567 9.58249 84.0548 8.25845 83.5605 7.00186C83.0661 5.74495 82.5718 4.54068 82.0774 3.38873C81.5981 2.25159 81.1037 1.12201 80.5943 0H78.5495C78.0401 1.12201 77.5383 2.25159 77.0439 3.38873C76.5646 4.54068 76.0702 5.74495 75.5609 7.00186C75.0665 8.25845 74.5571 9.58249 74.0328 10.974C73.5085 12.3803 72.9692 13.9063 72.4149 15.5518H74.8193C75.6283 13.1881 76.4222 10.9141 77.2012 8.72963C77.9802 6.5455 78.7817 4.49594 79.6056 2.58095C80.4296 4.4808 81.231 6.52312 82.01 8.70725C82.789 10.9065 83.5755 13.1881 84.3695 15.5518H86.7064Z" fill="url(#paint1_linear_520_6745)"/>
<path fill-rule="evenodd" clip-rule="evenodd" d="M80.1519 51.4478V61.75H75.334V34.0234H85.9409C89.0386 34.0234 91.4951 34.8296 93.3105 36.4419C95.1387 38.0542 96.0527 40.187 96.0527 42.8403C96.0527 45.5571 95.1577 47.6709 93.3677 49.1816C91.5903 50.6924 89.0957 51.4478 85.8838 51.4478H80.1519ZM80.1519 47.582H85.9409C87.6548 47.582 88.9624 47.1821 89.8638 46.3823C90.7651 45.5698 91.2158 44.4019 91.2158 42.8784C91.2158 41.3804 90.7588 40.187 89.8447 39.2983C88.9307 38.397 87.6738 37.9336 86.0742 37.9082H80.1519V47.582Z" fill="black"/>
<path fill-rule="evenodd" clip-rule="evenodd" d="M80.1519 51.4478V61.75H75.334V34.0234H85.9409C89.0386 34.0234 91.4951 34.8296 93.3105 36.4419C95.1387 38.0542 96.0527 40.187 96.0527 42.8403C96.0527 45.5571 95.1577 47.6709 93.3677 49.1816C91.5903 50.6924 89.0957 51.4478 85.8838 51.4478H80.1519ZM80.1519 47.582H85.9409C87.6548 47.582 88.9624 47.1821 89.8638 46.3823C90.7651 45.5698 91.2158 44.4019 91.2158 42.8784C91.2158 41.3804 90.7588 40.187 89.8447 39.2983C88.9307 38.397 87.6738 37.9336 86.0742 37.9082H80.1519V47.582Z" fill="url(#paint2_linear_520_6745)"/>
<path fill-rule="evenodd" clip-rule="evenodd" d="M80.1519 51.4478V61.75H75.334V34.0234H85.9409C89.0386 34.0234 91.4951 34.8296 93.3105 36.4419C95.1387 38.0542 96.0527 40.187 96.0527 42.8403C96.0527 45.5571 95.1577 47.6709 93.3677 49.1816C91.5903 50.6924 89.0957 51.4478 85.8838 51.4478H80.1519ZM80.1519 47.582H85.9409C87.6548 47.582 88.9624 47.1821 89.8638 46.3823C90.7651 45.5698 91.2158 44.4019 91.2158 42.8784C91.2158 41.3804 90.7588 40.187 89.8447 39.2983C88.9307 38.397 87.6738 37.9336 86.0742 37.9082H80.1519V47.582Z" fill="#062633"/>
<path fill-rule="evenodd" clip-rule="evenodd" d="M80.1519 51.4478V61.75H75.334V34.0234H85.9409C89.0386 34.0234 91.4951 34.8296 93.3105 36.4419C95.1387 38.0542 96.0527 40.187 96.0527 42.8403C96.0527 45.5571 95.1577 47.6709 93.3677 49.1816C91.5903 50.6924 89.0957 51.4478 85.8838 51.4478H80.1519ZM80.1519 47.582H85.9409C87.6548 47.582 88.9624 47.1821 89.8638 46.3823C90.7651 45.5698 91.2158 44.4019 91.2158 42.8784C91.2158 41.3804 90.7588 40.187 89.8447 39.2983C88.9307 38.397 87.6738 37.9336 86.0742 37.9082H80.1519V47.582Z" fill="#005B8B"/>
<path fill-rule="evenodd" clip-rule="evenodd" d="M80.1519 51.4478V61.75H75.334V34.0234H85.9409C89.0386 34.0234 91.4951 34.8296 93.3105 36.4419C95.1387 38.0542 96.0527 40.187 96.0527 42.8403C96.0527 45.5571 95.1577 47.6709 93.3677 49.1816C91.5903 50.6924 89.0957 51.4478 85.8838 51.4478H80.1519ZM80.1519 47.582H85.9409C87.6548 47.582 88.9624 47.1821 89.8638 46.3823C90.7651 45.5698 91.2158 44.4019 91.2158 42.8784C91.2158 41.3804 90.7588 40.187 89.8447 39.2983C88.9307 38.397 87.6738 37.9336 86.0742 37.9082H80.1519V47.582Z" fill="url(#paint3_linear_520_6745)"/>
<path d="M115.371 47.1631L121.75 34.0234H127.082L117.789 51.543V61.75H112.952V51.543L103.64 34.0234H108.991L115.371 47.1631Z" fill="black"/>
<path d="M115.371 47.1631L121.75 34.0234H127.082L117.789 51.543V61.75H112.952V51.543L103.64 34.0234H108.991L115.371 47.1631Z" fill="url(#paint4_linear_520_6745)"/>
<path d="M115.371 47.1631L121.75 34.0234H127.082L117.789 51.543V61.75H112.952V51.543L103.64 34.0234H108.991L115.371 47.1631Z" fill="#062633"/>
<path d="M115.371 47.1631L121.75 34.0234H127.082L117.789 51.543V61.75H112.952V51.543L103.64 34.0234H108.991L115.371 47.1631Z" fill="#005B8B"/>
<path d="M115.371 47.1631L121.75 34.0234H127.082L117.789 51.543V61.75H112.952V51.543L103.64 34.0234H108.991L115.371 47.1631Z" fill="url(#paint5_linear_520_6745)"/>
<path d="M156.512 37.9082H147.866V61.75H143.087V37.9082H134.517V34.0234H156.512V37.9082Z" fill="black"/>
<path d="M156.512 37.9082H147.866V61.75H143.087V37.9082H134.517V34.0234H156.512V37.9082Z" fill="url(#paint6_linear_520_6745)"/>
<path d="M156.512 37.9082H147.866V61.75H143.087V37.9082H134.517V34.0234H156.512V37.9082Z" fill="#062633"/>
<path d="M156.512 37.9082H147.866V61.75H143.087V37.9082H134.517V34.0234H156.512V37.9082Z" fill="#005B8B"/>
<path d="M156.512 37.9082H147.866V61.75H143.087V37.9082H134.517V34.0234H156.512V37.9082Z" fill="url(#paint7_linear_520_6745)"/>
<path d="M188.227 61.75H183.428V49.4292H171.031V61.75H166.213V34.0234H171.031V45.5635H183.428V34.0234H188.227V61.75Z" fill="black"/>
<path d="M188.227 61.75H183.428V49.4292H171.031V61.75H166.213V34.0234H171.031V45.5635H183.428V34.0234H188.227V61.75Z" fill="url(#paint8_linear_520_6745)"/>
<path d="M188.227 61.75H183.428V49.4292H171.031V61.75H166.213V34.0234H171.031V45.5635H183.428V34.0234H188.227V61.75Z" fill="#062633"/>
<path d="M188.227 61.75H183.428V49.4292H171.031V61.75H166.213V34.0234H171.031V45.5635H183.428V34.0234H188.227V61.75Z" fill="#005B8B"/>
<path d="M188.227 61.75H183.428V49.4292H171.031V61.75H166.213V34.0234H171.031V45.5635H183.428V34.0234H188.227V61.75Z" fill="url(#paint9_linear_520_6745)"/>
<path fill-rule="evenodd" clip-rule="evenodd" d="M222.113 48.6104C222.113 51.3271 221.643 53.7139 220.703 55.7705C219.764 57.8145 218.418 59.3887 216.666 60.4932C214.927 61.585 212.921 62.1309 210.649 62.1309C208.402 62.1309 206.396 61.585 204.631 60.4932C202.879 59.3887 201.521 57.8208 200.556 55.7896C199.604 53.7583 199.121 51.416 199.109 48.7627V47.2012C199.109 44.4971 199.585 42.1104 200.537 40.041C201.502 37.9717 202.854 36.3911 204.593 35.2993C206.345 34.1948 208.351 33.6426 210.611 33.6426C212.87 33.6426 214.87 34.1885 216.609 35.2803C218.361 36.3594 219.713 37.9209 220.665 39.9648C221.618 41.9961 222.1 44.3638 222.113 47.0679V48.6104ZM217.295 47.1631C217.295 44.0908 216.711 41.7358 215.543 40.0981C214.388 38.4604 212.743 37.6416 210.611 37.6416C208.529 37.6416 206.897 38.4604 205.717 40.0981C204.549 41.7231 203.952 44.0273 203.927 47.0107V48.6104C203.927 51.6572 204.517 54.0122 205.698 55.6753C206.891 57.3384 208.541 58.1699 210.649 58.1699C212.782 58.1699 214.419 57.3574 215.562 55.7324C216.717 54.1074 217.295 51.7334 217.295 48.6104V47.1631Z" fill="black"/>
<path fill-rule="evenodd" clip-rule="evenodd" d="M222.113 48.6104C222.113 51.3271 221.643 53.7139 220.703 55.7705C219.764 57.8145 218.418 59.3887 216.666 60.4932C214.927 61.585 212.921 62.1309 210.649 62.1309C208.402 62.1309 206.396 61.585 204.631 60.4932C202.879 59.3887 201.521 57.8208 200.556 55.7896C199.604 53.7583 199.121 51.416 199.109 48.7627V47.2012C199.109 44.4971 199.585 42.1104 200.537 40.041C201.502 37.9717 202.854 36.3911 204.593 35.2993C206.345 34.1948 208.351 33.6426 210.611 33.6426C212.87 33.6426 214.87 34.1885 216.609 35.2803C218.361 36.3594 219.713 37.9209 220.665 39.9648C221.618 41.9961 222.1 44.3638 222.113 47.0679V48.6104ZM217.295 47.1631C217.295 44.0908 216.711 41.7358 215.543 40.0981C214.388 38.4604 212.743 37.6416 210.611 37.6416C208.529 37.6416 206.897 38.4604 205.717 40.0981C204.549 41.7231 203.952 44.0273 203.927 47.0107V48.6104C203.927 51.6572 204.517 54.0122 205.698 55.6753C206.891 57.3384 208.541 58.1699 210.649 58.1699C212.782 58.1699 214.419 57.3574 215.562 55.7324C216.717 54.1074 217.295 51.7334 217.295 48.6104V47.1631Z" fill="url(#paint10_linear_520_6745)"/>
<path fill-rule="evenodd" clip-rule="evenodd" d="M222.113 48.6104C222.113 51.3271 221.643 53.7139 220.703 55.7705C219.764 57.8145 218.418 59.3887 216.666 60.4932C214.927 61.585 212.921 62.1309 210.649 62.1309C208.402 62.1309 206.396 61.585 204.631 60.4932C202.879 59.3887 201.521 57.8208 200.556 55.7896C199.604 53.7583 199.121 51.416 199.109 48.7627V47.2012C199.109 44.4971 199.585 42.1104 200.537 40.041C201.502 37.9717 202.854 36.3911 204.593 35.2993C206.345 34.1948 208.351 33.6426 210.611 33.6426C212.87 33.6426 214.87 34.1885 216.609 35.2803C218.361 36.3594 219.713 37.9209 220.665 39.9648C221.618 41.9961 222.1 44.3638 222.113 47.0679V48.6104ZM217.295 47.1631C217.295 44.0908 216.711 41.7358 215.543 40.0981C214.388 38.4604 212.743 37.6416 210.611 37.6416C208.529 37.6416 206.897 38.4604 205.717 40.0981C204.549 41.7231 203.952 44.0273 203.927 47.0107V48.6104C203.927 51.6572 204.517 54.0122 205.698 55.6753C206.891 57.3384 208.541 58.1699 210.649 58.1699C212.782 58.1699 214.419 57.3574 215.562 55.7324C216.717 54.1074 217.295 51.7334 217.295 48.6104V47.1631Z" fill="#062633"/>
<path fill-rule="evenodd" clip-rule="evenodd" d="M222.113 48.6104C222.113 51.3271 221.643 53.7139 220.703 55.7705C219.764 57.8145 218.418 59.3887 216.666 60.4932C214.927 61.585 212.921 62.1309 210.649 62.1309C208.402 62.1309 206.396 61.585 204.631 60.4932C202.879 59.3887 201.521 57.8208 200.556 55.7896C199.604 53.7583 199.121 51.416 199.109 48.7627V47.2012C199.109 44.4971 199.585 42.1104 200.537 40.041C201.502 37.9717 202.854 36.3911 204.593 35.2993C206.345 34.1948 208.351 33.6426 210.611 33.6426C212.87 33.6426 214.87 34.1885 216.609 35.2803C218.361 36.3594 219.713 37.9209 220.665 39.9648C221.618 41.9961 222.1 44.3638 222.113 47.0679V48.6104ZM217.295 47.1631C217.295 44.0908 216.711 41.7358 215.543 40.0981C214.388 38.4604 212.743 37.6416 210.611 37.6416C208.529 37.6416 206.897 38.4604 205.717 40.0981C204.549 41.7231 203.952 44.0273 203.927 47.0107V48.6104C203.927 51.6572 204.517 54.0122 205.698 55.6753C206.891 57.3384 208.541 58.1699 210.649 58.1699C212.782 58.1699 214.419 57.3574 215.562 55.7324C216.717 54.1074 217.295 51.7334 217.295 48.6104V47.1631Z" fill="#005B8B"/>
<path fill-rule="evenodd" clip-rule="evenodd" d="M222.113 48.6104C222.113 51.3271 221.643 53.7139 220.703 55.7705C219.764 57.8145 218.418 59.3887 216.666 60.4932C214.927 61.585 212.921 62.1309 210.649 62.1309C208.402 62.1309 206.396 61.585 204.631 60.4932C202.879 59.3887 201.521 57.8208 200.556 55.7896C199.604 53.7583 199.121 51.416 199.109 48.7627V47.2012C199.109 44.4971 199.585 42.1104 200.537 40.041C201.502 37.9717 202.854 36.3911 204.593 35.2993C206.345 34.1948 208.351 33.6426 210.611 33.6426C212.87 33.6426 214.87 34.1885 216.609 35.2803C218.361 36.3594 219.713 37.9209 220.665 39.9648C221.618 41.9961 222.1 44.3638 222.113 47.0679V48.6104ZM217.295 47.1631C217.295 44.0908 216.711 41.7358 215.543 40.0981C214.388 38.4604 212.743 37.6416 210.611 37.6416C208.529 37.6416 206.897 38.4604 205.717 40.0981C204.549 41.7231 203.952 44.0273 203.927 47.0107V48.6104C203.927 51.6572 204.517 54.0122 205.698 55.6753C206.891 57.3384 208.541 58.1699 210.649 58.1699C212.782 58.1699 214.419 57.3574 215.562 55.7324C216.717 54.1074 217.295 51.7334 217.295 48.6104V47.1631Z" fill="url(#paint11_linear_520_6745)"/>
<path d="M254.951 61.75H250.133L237.774 42.0786V61.75H232.956V34.0234H237.774L250.171 53.771V34.0234H254.951V61.75Z" fill="black"/>
<path d="M254.951 61.75H250.133L237.774 42.0786V61.75H232.956V34.0234H237.774L250.171 53.771V34.0234H254.951V61.75Z" fill="url(#paint12_linear_520_6745)"/>
<path d="M254.951 61.75H250.133L237.774 42.0786V61.75H232.956V34.0234H237.774L250.171 53.771V34.0234H254.951V61.75Z" fill="#062633"/>
<path d="M254.951 61.75H250.133L237.774 42.0786V61.75H232.956V34.0234H237.774L250.171 53.771V34.0234H254.951V61.75Z" fill="#005B8B"/>
<path d="M254.951 61.75H250.133L237.774 42.0786V61.75H232.956V34.0234H237.774L250.171 53.771V34.0234H254.951V61.75Z" fill="url(#paint13_linear_520_6745)"/>
<path fill-rule="evenodd" clip-rule="evenodd" d="M271.508 51.4478V61.75H266.69V34.0234H277.297C280.395 34.0234 282.851 34.8296 284.667 36.4419C286.495 38.0542 287.409 40.187 287.409 42.8403C287.409 45.5571 286.514 47.6709 284.724 49.1816C282.946 50.6924 280.452 51.4478 277.24 51.4478H271.508ZM271.508 47.582H277.297C279.011 47.582 280.318 47.1821 281.22 46.3823C282.121 45.5698 282.572 44.4019 282.572 42.8784C282.572 41.3804 282.115 40.187 281.201 39.2983C280.287 38.397 279.03 37.9336 277.43 37.9082H271.508V47.582Z" fill="black"/>
<path fill-rule="evenodd" clip-rule="evenodd" d="M271.508 51.4478V61.75H266.69V34.0234H277.297C280.395 34.0234 282.851 34.8296 284.667 36.4419C286.495 38.0542 287.409 40.187 287.409 42.8403C287.409 45.5571 286.514 47.6709 284.724 49.1816C282.946 50.6924 280.452 51.4478 277.24 51.4478H271.508ZM271.508 47.582H277.297C279.011 47.582 280.318 47.1821 281.22 46.3823C282.121 45.5698 282.572 44.4019 282.572 42.8784C282.572 41.3804 282.115 40.187 281.201 39.2983C280.287 38.397 279.03 37.9336 277.43 37.9082H271.508V47.582Z" fill="url(#paint14_linear_520_6745)"/>
<path fill-rule="evenodd" clip-rule="evenodd" d="M271.508 51.4478V61.75H266.69V34.0234H277.297C280.395 34.0234 282.851 34.8296 284.667 36.4419C286.495 38.0542 287.409 40.187 287.409 42.8403C287.409 45.5571 286.514 47.6709 284.724 49.1816C282.946 50.6924 280.452 51.4478 277.24 51.4478H271.508ZM271.508 47.582H277.297C279.011 47.582 280.318 47.1821 281.22 46.3823C282.121 45.5698 282.572 44.4019 282.572 42.8784C282.572 41.3804 282.115 40.187 281.201 39.2983C280.287 38.397 279.03 37.9336 277.43 37.9082H271.508V47.582Z" fill="#062633"/>
<path fill-rule="evenodd" clip-rule="evenodd" d="M271.508 51.4478V61.75H266.69V34.0234H277.297C280.395 34.0234 282.851 34.8296 284.667 36.4419C286.495 38.0542 287.409 40.187 287.409 42.8403C287.409 45.5571 286.514 47.6709 284.724 49.1816C282.946 50.6924 280.452 51.4478 277.24 51.4478H271.508ZM271.508 47.582H277.297C279.011 47.582 280.318 47.1821 281.22 46.3823C282.121 45.5698 282.572 44.4019 282.572 42.8784C282.572 41.3804 282.115 40.187 281.201 39.2983C280.287 38.397 279.03 37.9336 277.43 37.9082H271.508V47.582Z" fill="#005B8B"/>
<path fill-rule="evenodd" clip-rule="evenodd" d="M271.508 51.4478V61.75H266.69V34.0234H277.297C280.395 34.0234 282.851 34.8296 284.667 36.4419C286.495 38.0542 287.409 40.187 287.409 42.8403C287.409 45.5571 286.514 47.6709 284.724 49.1816C282.946 50.6924 280.452 51.4478 277.24 51.4478H271.508ZM271.508 47.582H277.297C279.011 47.582 280.318 47.1821 281.22 46.3823C282.121 45.5698 282.572 44.4019 282.572 42.8784C282.572 41.3804 282.115 40.187 281.201 39.2983C280.287 38.397 279.03 37.9336 277.43 37.9082H271.508V47.582Z" fill="url(#paint15_linear_520_6745)"/>
<path fill-rule="evenodd" clip-rule="evenodd" d="M299.071 55.2944L296.824 61.75H291.816L302.29 34.0234H306.612L317.105 61.75H312.078L309.812 55.2944H299.071ZM308.46 51.4097L304.441 39.9077L300.423 51.4097H308.46Z" fill="black"/>
<path fill-rule="evenodd" clip-rule="evenodd" d="M299.071 55.2944L296.824 61.75H291.816L302.29 34.0234H306.612L317.105 61.75H312.078L309.812 55.2944H299.071ZM308.46 51.4097L304.441 39.9077L300.423 51.4097H308.46Z" fill="url(#paint16_linear_520_6745)"/>
<path fill-rule="evenodd" clip-rule="evenodd" d="M299.071 55.2944L296.824 61.75H291.816L302.29 34.0234H306.612L317.105 61.75H312.078L309.812 55.2944H299.071ZM308.46 51.4097L304.441 39.9077L300.423 51.4097H308.46Z" fill="#062633"/>
<path fill-rule="evenodd" clip-rule="evenodd" d="M299.071 55.2944L296.824 61.75H291.816L302.29 34.0234H306.612L317.105 61.75H312.078L309.812 55.2944H299.071ZM308.46 51.4097L304.441 39.9077L300.423 51.4097H308.46Z" fill="#005B8B"/>
<path fill-rule="evenodd" clip-rule="evenodd" d="M299.071 55.2944L296.824 61.75H291.816L302.29 34.0234H306.612L317.105 61.75H312.078L309.812 55.2944H299.071ZM308.46 51.4097L304.441 39.9077L300.423 51.4097H308.46Z" fill="url(#paint17_linear_520_6745)"/>
<path fill-rule="evenodd" clip-rule="evenodd" d="M336.499 51.0669H331.129V61.75H326.311V34.0234H336.061C339.26 34.0234 341.73 34.7407 343.469 36.1753C345.208 37.6099 346.078 39.6855 346.078 42.4023C346.078 44.2559 345.627 45.811 344.726 47.0679C343.837 48.312 342.593 49.2705 340.993 49.9434L347.22 61.5024V61.75H342.06L336.499 51.0669ZM331.129 47.2012H336.08C337.705 47.2012 338.975 46.7949 339.889 45.9824C340.803 45.1572 341.26 44.0337 341.26 42.6118C341.26 41.1265 340.835 39.9775 339.984 39.165C339.146 38.3525 337.889 37.9336 336.214 37.9082H331.129V47.2012Z" fill="black"/>
<path fill-rule="evenodd" clip-rule="evenodd" d="M336.499 51.0669H331.129V61.75H326.311V34.0234H336.061C339.26 34.0234 341.73 34.7407 343.469 36.1753C345.208 37.6099 346.078 39.6855 346.078 42.4023C346.078 44.2559 345.627 45.811 344.726 47.0679C343.837 48.312 342.593 49.2705 340.993 49.9434L347.22 61.5024V61.75H342.06L336.499 51.0669ZM331.129 47.2012H336.08C337.705 47.2012 338.975 46.7949 339.889 45.9824C340.803 45.1572 341.26 44.0337 341.26 42.6118C341.26 41.1265 340.835 39.9775 339.984 39.165C339.146 38.3525 337.889 37.9336 336.214 37.9082H331.129V47.2012Z" fill="url(#paint18_linear_520_6745)"/>
<path fill-rule="evenodd" clip-rule="evenodd" d="M336.499 51.0669H331.129V61.75H326.311V34.0234H336.061C339.26 34.0234 341.73 34.7407 343.469 36.1753C345.208 37.6099 346.078 39.6855 346.078 42.4023C346.078 44.2559 345.627 45.811 344.726 47.0679C343.837 48.312 342.593 49.2705 340.993 49.9434L347.22 61.5024V61.75H342.06L336.499 51.0669ZM331.129 47.2012H336.08C337.705 47.2012 338.975 46.7949 339.889 45.9824C340.803 45.1572 341.26 44.0337 341.26 42.6118C341.26 41.1265 340.835 39.9775 339.984 39.165C339.146 38.3525 337.889 37.9336 336.214 37.9082H331.129V47.2012Z" fill="#062633"/>
<path fill-rule="evenodd" clip-rule="evenodd" d="M336.499 51.0669H331.129V61.75H326.311V34.0234H336.061C339.26 34.0234 341.73 34.7407 343.469 36.1753C345.208 37.6099 346.078 39.6855 346.078 42.4023C346.078 44.2559 345.627 45.811 344.726 47.0679C343.837 48.312 342.593 49.2705 340.993 49.9434L347.22 61.5024V61.75H342.06L336.499 51.0669ZM331.129 47.2012H336.08C337.705 47.2012 338.975 46.7949 339.889 45.9824C340.803 45.1572 341.26 44.0337 341.26 42.6118C341.26 41.1265 340.835 39.9775 339.984 39.165C339.146 38.3525 337.889 37.9336 336.214 37.9082H331.129V47.2012Z" fill="#005B8B"/>
<path fill-rule="evenodd" clip-rule="evenodd" d="M336.499 51.0669H331.129V61.75H326.311V34.0234H336.061C339.26 34.0234 341.73 34.7407 343.469 36.1753C345.208 37.6099 346.078 39.6855 346.078 42.4023C346.078 44.2559 345.627 45.811 344.726 47.0679C343.837 48.312 342.593 49.2705 340.993 49.9434L347.22 61.5024V61.75H342.06L336.499 51.0669ZM331.129 47.2012H336.08C337.705 47.2012 338.975 46.7949 339.889 45.9824C340.803 45.1572 341.26 44.0337 341.26 42.6118C341.26 41.1265 340.835 39.9775 339.984 39.165C339.146 38.3525 337.889 37.9336 336.214 37.9082H331.129V47.2012Z" fill="url(#paint19_linear_520_6745)"/>
<path d="M375.774 37.9082H367.129V61.75H362.349V37.9082H353.78V34.0234H375.774V37.9082Z" fill="black"/>
<path d="M375.774 37.9082H367.129V61.75H362.349V37.9082H353.78V34.0234H375.774V37.9082Z" fill="url(#paint20_linear_520_6745)"/>
<path d="M375.774 37.9082H367.129V61.75H362.349V37.9082H353.78V34.0234H375.774V37.9082Z" fill="#062633"/>
<path d="M375.774 37.9082H367.129V61.75H362.349V37.9082H353.78V34.0234H375.774V37.9082Z" fill="#005B8B"/>
<path d="M375.774 37.9082H367.129V61.75H362.349V37.9082H353.78V34.0234H375.774V37.9082Z" fill="url(#paint21_linear_520_6745)"/>
<path d="M399.662 54.6089C399.662 53.3901 399.231 52.4507 398.367 51.7905C397.517 51.1304 395.974 50.4639 393.74 49.791C391.506 49.1182 389.728 48.3691 388.408 47.5439C385.882 45.957 384.618 43.8877 384.618 41.3359C384.618 39.1016 385.526 37.2607 387.342 35.8135C389.17 34.3662 391.537 33.6426 394.445 33.6426C396.374 33.6426 398.095 33.998 399.605 34.709C401.116 35.4199 402.303 36.4355 403.166 37.7559C404.03 39.0635 404.461 40.5171 404.461 42.1167H399.662C399.662 40.6694 399.205 39.5396 398.291 38.7271C397.39 37.9019 396.095 37.4893 394.407 37.4893C392.832 37.4893 391.607 37.8257 390.731 38.4985C389.868 39.1714 389.436 40.1108 389.436 41.3169C389.436 42.3325 389.906 43.1831 390.845 43.8687C391.785 44.5415 393.334 45.2017 395.492 45.8491C397.65 46.4839 399.383 47.2139 400.691 48.0391C401.998 48.8516 402.957 49.791 403.566 50.8574C404.176 51.9111 404.48 53.1489 404.48 54.5708C404.48 56.8813 403.592 58.7222 401.814 60.0933C400.05 61.4517 397.65 62.1309 394.616 62.1309C392.61 62.1309 390.763 61.7627 389.074 61.0264C387.399 60.2773 386.091 59.249 385.152 57.9414C384.225 56.6338 383.762 55.1104 383.762 53.3711H388.579C388.579 54.9453 389.1 56.1641 390.141 57.0273C391.182 57.8906 392.674 58.3223 394.616 58.3223C396.292 58.3223 397.549 57.9858 398.387 57.313C399.237 56.6274 399.662 55.7261 399.662 54.6089Z" fill="black"/>
<path d="M399.662 54.6089C399.662 53.3901 399.231 52.4507 398.367 51.7905C397.517 51.1304 395.974 50.4639 393.74 49.791C391.506 49.1182 389.728 48.3691 388.408 47.5439C385.882 45.957 384.618 43.8877 384.618 41.3359C384.618 39.1016 385.526 37.2607 387.342 35.8135C389.17 34.3662 391.537 33.6426 394.445 33.6426C396.374 33.6426 398.095 33.998 399.605 34.709C401.116 35.4199 402.303 36.4355 403.166 37.7559C404.03 39.0635 404.461 40.5171 404.461 42.1167H399.662C399.662 40.6694 399.205 39.5396 398.291 38.7271C397.39 37.9019 396.095 37.4893 394.407 37.4893C392.832 37.4893 391.607 37.8257 390.731 38.4985C389.868 39.1714 389.436 40.1108 389.436 41.3169C389.436 42.3325 389.906 43.1831 390.845 43.8687C391.785 44.5415 393.334 45.2017 395.492 45.8491C397.65 46.4839 399.383 47.2139 400.691 48.0391C401.998 48.8516 402.957 49.791 403.566 50.8574C404.176 51.9111 404.48 53.1489 404.48 54.5708C404.48 56.8813 403.592 58.7222 401.814 60.0933C400.05 61.4517 397.65 62.1309 394.616 62.1309C392.61 62.1309 390.763 61.7627 389.074 61.0264C387.399 60.2773 386.091 59.249 385.152 57.9414C384.225 56.6338 383.762 55.1104 383.762 53.3711H388.579C388.579 54.9453 389.1 56.1641 390.141 57.0273C391.182 57.8906 392.674 58.3223 394.616 58.3223C396.292 58.3223 397.549 57.9858 398.387 57.313C399.237 56.6274 399.662 55.7261 399.662 54.6089Z" fill="url(#paint22_linear_520_6745)"/>
<path d="M399.662 54.6089C399.662 53.3901 399.231 52.4507 398.367 51.7905C397.517 51.1304 395.974 50.4639 393.74 49.791C391.506 49.1182 389.728 48.3691 388.408 47.5439C385.882 45.957 384.618 43.8877 384.618 41.3359C384.618 39.1016 385.526 37.2607 387.342 35.8135C389.17 34.3662 391.537 33.6426 394.445 33.6426C396.374 33.6426 398.095 33.998 399.605 34.709C401.116 35.4199 402.303 36.4355 403.166 37.7559C404.03 39.0635 404.461 40.5171 404.461 42.1167H399.662C399.662 40.6694 399.205 39.5396 398.291 38.7271C397.39 37.9019 396.095 37.4893 394.407 37.4893C392.832 37.4893 391.607 37.8257 390.731 38.4985C389.868 39.1714 389.436 40.1108 389.436 41.3169C389.436 42.3325 389.906 43.1831 390.845 43.8687C391.785 44.5415 393.334 45.2017 395.492 45.8491C397.65 46.4839 399.383 47.2139 400.691 48.0391C401.998 48.8516 402.957 49.791 403.566 50.8574C404.176 51.9111 404.48 53.1489 404.48 54.5708C404.48 56.8813 403.592 58.7222 401.814 60.0933C400.05 61.4517 397.65 62.1309 394.616 62.1309C392.61 62.1309 390.763 61.7627 389.074 61.0264C387.399 60.2773 386.091 59.249 385.152 57.9414C384.225 56.6338 383.762 55.1104 383.762 53.3711H388.579C388.579 54.9453 389.1 56.1641 390.141 57.0273C391.182 57.8906 392.674 58.3223 394.616 58.3223C396.292 58.3223 397.549 57.9858 398.387 57.313C399.237 56.6274 399.662 55.7261 399.662 54.6089Z" fill="#062633"/>
<path d="M399.662 54.6089C399.662 53.3901 399.231 52.4507 398.367 51.7905C397.517 51.1304 395.974 50.4639 393.74 49.791C391.506 49.1182 389.728 48.3691 388.408 47.5439C385.882 45.957 384.618 43.8877 384.618 41.3359C384.618 39.1016 385.526 37.2607 387.342 35.8135C389.17 34.3662 391.537 33.6426 394.445 33.6426C396.374 33.6426 398.095 33.998 399.605 34.709C401.116 35.4199 402.303 36.4355 403.166 37.7559C404.03 39.0635 404.461 40.5171 404.461 42.1167H399.662C399.662 40.6694 399.205 39.5396 398.291 38.7271C397.39 37.9019 396.095 37.4893 394.407 37.4893C392.832 37.4893 391.607 37.8257 390.731 38.4985C389.868 39.1714 389.436 40.1108 389.436 41.3169C389.436 42.3325 389.906 43.1831 390.845 43.8687C391.785 44.5415 393.334 45.2017 395.492 45.8491C397.65 46.4839 399.383 47.2139 400.691 48.0391C401.998 48.8516 402.957 49.791 403.566 50.8574C404.176 51.9111 404.48 53.1489 404.48 54.5708C404.48 56.8813 403.592 58.7222 401.814 60.0933C400.05 61.4517 397.65 62.1309 394.616 62.1309C392.61 62.1309 390.763 61.7627 389.074 61.0264C387.399 60.2773 386.091 59.249 385.152 57.9414C384.225 56.6338 383.762 55.1104 383.762 53.3711H388.579C388.579 54.9453 389.1 56.1641 390.141 57.0273C391.182 57.8906 392.674 58.3223 394.616 58.3223C396.292 58.3223 397.549 57.9858 398.387 57.313C399.237 56.6274 399.662 55.7261 399.662 54.6089Z" fill="#005B8B"/>
<path d="M399.662 54.6089C399.662 53.3901 399.231 52.4507 398.367 51.7905C397.517 51.1304 395.974 50.4639 393.74 49.791C391.506 49.1182 389.728 48.3691 388.408 47.5439C385.882 45.957 384.618 43.8877 384.618 41.3359C384.618 39.1016 385.526 37.2607 387.342 35.8135C389.17 34.3662 391.537 33.6426 394.445 33.6426C396.374 33.6426 398.095 33.998 399.605 34.709C401.116 35.4199 402.303 36.4355 403.166 37.7559C404.03 39.0635 404.461 40.5171 404.461 42.1167H399.662C399.662 40.6694 399.205 39.5396 398.291 38.7271C397.39 37.9019 396.095 37.4893 394.407 37.4893C392.832 37.4893 391.607 37.8257 390.731 38.4985C389.868 39.1714 389.436 40.1108 389.436 41.3169C389.436 42.3325 389.906 43.1831 390.845 43.8687C391.785 44.5415 393.334 45.2017 395.492 45.8491C397.65 46.4839 399.383 47.2139 400.691 48.0391C401.998 48.8516 402.957 49.791 403.566 50.8574C404.176 51.9111 404.48 53.1489 404.48 54.5708C404.48 56.8813 403.592 58.7222 401.814 60.0933C400.05 61.4517 397.65 62.1309 394.616 62.1309C392.61 62.1309 390.763 61.7627 389.074 61.0264C387.399 60.2773 386.091 59.249 385.152 57.9414C384.225 56.6338 383.762 55.1104 383.762 53.3711H388.579C388.579 54.9453 389.1 56.1641 390.141 57.0273C391.182 57.8906 392.674 58.3223 394.616 58.3223C396.292 58.3223 397.549 57.9858 398.387 57.313C399.237 56.6274 399.662 55.7261 399.662 54.6089Z" fill="url(#paint23_linear_520_6745)"/>
<path d="M205.594 10.974C206.118 12.3803 206.665 13.9063 207.234 15.5518H204.897C204.103 13.1881 203.317 10.9065 202.538 8.70725C201.758 6.52312 200.958 4.4808 200.134 2.58095C199.309 4.49594 198.508 6.5455 197.729 8.72963C196.95 10.9141 196.156 13.1881 195.347 15.5518H192.943C193.497 13.9063 194.036 12.3803 194.561 10.974C195.085 9.58249 195.594 8.25845 196.088 7.00186C196.598 5.74495 197.093 4.54068 197.572 3.38873C198.066 2.25159 198.568 1.12201 199.078 0H201.122C201.632 1.12201 202.126 2.25159 202.606 3.38873C203.099 4.54068 203.594 5.74495 204.088 7.00186C204.583 8.25845 205.084 9.58249 205.594 10.974Z" fill="black"/>
<path d="M205.594 10.974C206.118 12.3803 206.665 13.9063 207.234 15.5518H204.897C204.103 13.1881 203.317 10.9065 202.538 8.70725C201.758 6.52312 200.958 4.4808 200.134 2.58095C199.309 4.49594 198.508 6.5455 197.729 8.72963C196.95 10.9141 196.156 13.1881 195.347 15.5518H192.943C193.497 13.9063 194.036 12.3803 194.561 10.974C195.085 9.58249 195.594 8.25845 196.088 7.00186C196.598 5.74495 197.093 4.54068 197.572 3.38873C198.066 2.25159 198.568 1.12201 199.078 0H201.122C201.632 1.12201 202.126 2.25159 202.606 3.38873C203.099 4.54068 203.594 5.74495 204.088 7.00186C204.583 8.25845 205.084 9.58249 205.594 10.974Z" fill="url(#paint24_linear_520_6745)"/>
<path d="M205.594 10.974C206.118 12.3803 206.665 13.9063 207.234 15.5518H204.897C204.103 13.1881 203.317 10.9065 202.538 8.70725C201.758 6.52312 200.958 4.4808 200.134 2.58095C199.309 4.49594 198.508 6.5455 197.729 8.72963C196.95 10.9141 196.156 13.1881 195.347 15.5518H192.943C193.497 13.9063 194.036 12.3803 194.561 10.974C195.085 9.58249 195.594 8.25845 196.088 7.00186C196.598 5.74495 197.093 4.54068 197.572 3.38873C198.066 2.25159 198.568 1.12201 199.078 0H201.122C201.632 1.12201 202.126 2.25159 202.606 3.38873C203.099 4.54068 203.594 5.74495 204.088 7.00186C204.583 8.25845 205.084 9.58249 205.594 10.974Z" fill="#062633"/>
<path d="M205.594 10.974C206.118 12.3803 206.665 13.9063 207.234 15.5518H204.897C204.103 13.1881 203.317 10.9065 202.538 8.70725C201.758 6.52312 200.958 4.4808 200.134 2.58095C199.309 4.49594 198.508 6.5455 197.729 8.72963C196.95 10.9141 196.156 13.1881 195.347 15.5518H192.943C193.497 13.9063 194.036 12.3803 194.561 10.974C195.085 9.58249 195.594 8.25845 196.088 7.00186C196.598 5.74495 197.093 4.54068 197.572 3.38873C198.066 2.25159 198.568 1.12201 199.078 0H201.122C201.632 1.12201 202.126 2.25159 202.606 3.38873C203.099 4.54068 203.594 5.74495 204.088 7.00186C204.583 8.25845 205.084 9.58249 205.594 10.974Z" fill="#005B8B"/>
<path d="M205.594 10.974C206.118 12.3803 206.665 13.9063 207.234 15.5518H204.897C204.103 13.1881 203.317 10.9065 202.538 8.70725C201.758 6.52312 200.958 4.4808 200.134 2.58095C199.309 4.49594 198.508 6.5455 197.729 8.72963C196.95 10.9141 196.156 13.1881 195.347 15.5518H192.943C193.497 13.9063 194.036 12.3803 194.561 10.974C195.085 9.58249 195.594 8.25845 196.088 7.00186C196.598 5.74495 197.093 4.54068 197.572 3.38873C198.066 2.25159 198.568 1.12201 199.078 0H201.122C201.632 1.12201 202.126 2.25159 202.606 3.38873C203.099 4.54068 203.594 5.74495 204.088 7.00186C204.583 8.25845 205.084 9.58249 205.594 10.974Z" fill="url(#paint25_linear_520_6745)"/>
<path d="M232.313 16.2501C231.294 16.2501 230.41 16.0932 229.661 15.779C228.912 15.4647 228.298 15.0383 227.818 14.4997C227.339 13.9462 226.98 13.2954 226.74 12.5472C226.515 11.7993 226.403 10.9915 226.403 10.1235V0.361692H228.583V9.87673C228.583 11.4327 228.927 12.5623 229.616 13.2655C230.305 13.9686 231.204 14.3203 232.313 14.3203C232.867 14.3203 233.369 14.2378 233.818 14.0732C234.283 13.8939 234.68 13.6244 235.009 13.2655C235.339 12.9065 235.593 12.4501 235.773 11.8963C235.953 11.3281 236.043 10.6549 236.043 9.87673V0.361692H238.222V10.1235C238.222 10.9915 238.103 11.7993 237.863 12.5472C237.638 13.2954 237.279 13.9462 236.784 14.4997C236.305 15.0383 235.69 15.4647 234.942 15.779C234.208 16.0932 233.331 16.2501 232.313 16.2501Z" fill="black"/>
<path d="M232.313 16.2501C231.294 16.2501 230.41 16.0932 229.661 15.779C228.912 15.4647 228.298 15.0383 227.818 14.4997C227.339 13.9462 226.98 13.2954 226.74 12.5472C226.515 11.7993 226.403 10.9915 226.403 10.1235V0.361692H228.583V9.87673C228.583 11.4327 228.927 12.5623 229.616 13.2655C230.305 13.9686 231.204 14.3203 232.313 14.3203C232.867 14.3203 233.369 14.2378 233.818 14.0732C234.283 13.8939 234.68 13.6244 235.009 13.2655C235.339 12.9065 235.593 12.4501 235.773 11.8963C235.953 11.3281 236.043 10.6549 236.043 9.87673V0.361692H238.222V10.1235C238.222 10.9915 238.103 11.7993 237.863 12.5472C237.638 13.2954 237.279 13.9462 236.784 14.4997C236.305 15.0383 235.69 15.4647 234.942 15.779C234.208 16.0932 233.331 16.2501 232.313 16.2501Z" fill="url(#paint26_linear_520_6745)"/>
<path d="M232.313 16.2501C231.294 16.2501 230.41 16.0932 229.661 15.779C228.912 15.4647 228.298 15.0383 227.818 14.4997C227.339 13.9462 226.98 13.2954 226.74 12.5472C226.515 11.7993 226.403 10.9915 226.403 10.1235V0.361692H228.583V9.87673C228.583 11.4327 228.927 12.5623 229.616 13.2655C230.305 13.9686 231.204 14.3203 232.313 14.3203C232.867 14.3203 233.369 14.2378 233.818 14.0732C234.283 13.8939 234.68 13.6244 235.009 13.2655C235.339 12.9065 235.593 12.4501 235.773 11.8963C235.953 11.3281 236.043 10.6549 236.043 9.87673V0.361692H238.222V10.1235C238.222 10.9915 238.103 11.7993 237.863 12.5472C237.638 13.2954 237.279 13.9462 236.784 14.4997C236.305 15.0383 235.69 15.4647 234.942 15.779C234.208 16.0932 233.331 16.2501 232.313 16.2501Z" fill="#062633"/>
<path d="M232.313 16.2501C231.294 16.2501 230.41 16.0932 229.661 15.779C228.912 15.4647 228.298 15.0383 227.818 14.4997C227.339 13.9462 226.98 13.2954 226.74 12.5472C226.515 11.7993 226.403 10.9915 226.403 10.1235V0.361692H228.583V9.87673C228.583 11.4327 228.927 12.5623 229.616 13.2655C230.305 13.9686 231.204 14.3203 232.313 14.3203C232.867 14.3203 233.369 14.2378 233.818 14.0732C234.283 13.8939 234.68 13.6244 235.009 13.2655C235.339 12.9065 235.593 12.4501 235.773 11.8963C235.953 11.3281 236.043 10.6549 236.043 9.87673V0.361692H238.222V10.1235C238.222 10.9915 238.103 11.7993 237.863 12.5472C237.638 13.2954 237.279 13.9462 236.784 14.4997C236.305 15.0383 235.69 15.4647 234.942 15.779C234.208 16.0932 233.331 16.2501 232.313 16.2501Z" fill="#005B8B"/>
<path d="M232.313 16.2501C231.294 16.2501 230.41 16.0932 229.661 15.779C228.912 15.4647 228.298 15.0383 227.818 14.4997C227.339 13.9462 226.98 13.2954 226.74 12.5472C226.515 11.7993 226.403 10.9915 226.403 10.1235V0.361692H228.583V9.87673C228.583 11.4327 228.927 12.5623 229.616 13.2655C230.305 13.9686 231.204 14.3203 232.313 14.3203C232.867 14.3203 233.369 14.2378 233.818 14.0732C234.283 13.8939 234.68 13.6244 235.009 13.2655C235.339 12.9065 235.593 12.4501 235.773 11.8963C235.953 11.3281 236.043 10.6549 236.043 9.87673V0.361692H238.222V10.1235C238.222 10.9915 238.103 11.7993 237.863 12.5472C237.638 13.2954 237.279 13.9462 236.784 14.4997C236.305 15.0383 235.69 15.4647 234.942 15.779C234.208 16.0932 233.331 16.2501 232.313 16.2501Z" fill="url(#paint27_linear_520_6745)"/>
<path d="M115.364 15.9135V14.0285H108.174V0.361685H105.994V15.9135H115.364Z" fill="black"/>
<path d="M115.364 15.9135V14.0285H108.174V0.361685H105.994V15.9135H115.364Z" fill="url(#paint28_linear_520_6745)"/>
<path d="M115.364 15.9135V14.0285H108.174V0.361685H105.994V15.9135H115.364Z" fill="#062633"/>
<path d="M115.364 15.9135V14.0285H108.174V0.361685H105.994V15.9135H115.364Z" fill="#005B8B"/>
<path d="M115.364 15.9135V14.0285H108.174V0.361685H105.994V15.9135H115.364Z" fill="url(#paint29_linear_520_6745)"/>
<path d="M143.961 14.0285V15.9135H134.591V0.361685H136.771V14.0285H143.961Z" fill="black"/>
<path d="M143.961 14.0285V15.9135H134.591V0.361685H136.771V14.0285H143.961Z" fill="url(#paint30_linear_520_6745)"/>
<path d="M143.961 14.0285V15.9135H134.591V0.361685H136.771V14.0285H143.961Z" fill="#062633"/>
<path d="M143.961 14.0285V15.9135H134.591V0.361685H136.771V14.0285H143.961Z" fill="#005B8B"/>
<path d="M143.961 14.0285V15.9135H134.591V0.361685H136.771V14.0285H143.961Z" fill="url(#paint31_linear_520_6745)"/>
<path fill-rule="evenodd" clip-rule="evenodd" d="M165.669 15.8213C166.043 15.8361 166.388 15.8437 166.703 15.8437C169.189 15.8437 171.002 15.4548 172.14 14.6769C173.294 13.884 173.87 12.7093 173.87 11.1533C173.87 10.0912 173.601 9.26826 173.062 8.68488C172.523 8.1015 171.796 7.67507 170.882 7.40592C171.557 7.13644 172.096 6.73272 172.5 6.19409C172.904 5.64032 173.107 4.93717 173.107 4.08431C173.107 3.32128 172.942 2.67802 172.613 2.15452C172.283 1.63103 171.826 1.21184 171.241 0.897611C170.673 0.568576 169.991 0.336607 169.197 0.202032C168.418 0.0674567 167.579 0 166.68 0C166.366 0 166.028 0.00756789 165.669 0.0227035C165.309 0.0375101 164.943 0.0598877 164.568 0.0898299C164.208 0.119772 163.849 0.157283 163.489 0.202032C163.13 0.24711 162.8 0.306991 162.501 0.381682V15.4623C162.8 15.537 163.13 15.5969 163.489 15.6417C163.849 15.6867 164.208 15.7239 164.568 15.7539C164.943 15.7838 165.309 15.8062 165.669 15.8213ZM164.658 13.9363V8.46048H167.466C168.096 8.46048 168.665 8.50556 169.174 8.59505C169.684 8.68488 170.118 8.83459 170.478 9.04386C170.853 9.25345 171.137 9.53774 171.331 9.89671C171.526 10.2409 171.624 10.6673 171.624 11.176C171.624 11.7446 171.489 12.2158 171.219 12.5899C170.965 12.9636 170.62 13.2555 170.185 13.4651C169.751 13.6744 169.242 13.8241 168.658 13.9139C168.088 13.9886 167.481 14.0261 166.837 14.0261H165.916C165.662 14.011 165.437 13.9962 165.242 13.981C165.017 13.9662 164.823 13.9511 164.658 13.9363ZM166.95 6.71001H164.658V1.90775C164.912 1.8778 165.197 1.85543 165.512 1.84029C165.826 1.82549 166.261 1.81792 166.815 1.81792C167.369 1.81792 167.894 1.86267 168.387 1.9525C168.882 2.04232 169.309 2.18447 169.669 2.37893C170.044 2.55858 170.335 2.80535 170.545 3.11958C170.755 3.41867 170.86 3.79279 170.86 4.24159C170.86 4.72034 170.755 5.11683 170.545 5.43106C170.35 5.74495 170.073 5.9993 169.713 6.19409C169.369 6.38855 168.957 6.52312 168.478 6.59781C167.999 6.67283 167.489 6.71001 166.95 6.71001Z" fill="black"/>
<path fill-rule="evenodd" clip-rule="evenodd" d="M165.669 15.8213C166.043 15.8361 166.388 15.8437 166.703 15.8437C169.189 15.8437 171.002 15.4548 172.14 14.6769C173.294 13.884 173.87 12.7093 173.87 11.1533C173.87 10.0912 173.601 9.26826 173.062 8.68488C172.523 8.1015 171.796 7.67507 170.882 7.40592C171.557 7.13644 172.096 6.73272 172.5 6.19409C172.904 5.64032 173.107 4.93717 173.107 4.08431C173.107 3.32128 172.942 2.67802 172.613 2.15452C172.283 1.63103 171.826 1.21184 171.241 0.897611C170.673 0.568576 169.991 0.336607 169.197 0.202032C168.418 0.0674567 167.579 0 166.68 0C166.366 0 166.028 0.00756789 165.669 0.0227035C165.309 0.0375101 164.943 0.0598877 164.568 0.0898299C164.208 0.119772 163.849 0.157283 163.489 0.202032C163.13 0.24711 162.8 0.306991 162.501 0.381682V15.4623C162.8 15.537 163.13 15.5969 163.489 15.6417C163.849 15.6867 164.208 15.7239 164.568 15.7539C164.943 15.7838 165.309 15.8062 165.669 15.8213ZM164.658 13.9363V8.46048H167.466C168.096 8.46048 168.665 8.50556 169.174 8.59505C169.684 8.68488 170.118 8.83459 170.478 9.04386C170.853 9.25345 171.137 9.53774 171.331 9.89671C171.526 10.2409 171.624 10.6673 171.624 11.176C171.624 11.7446 171.489 12.2158 171.219 12.5899C170.965 12.9636 170.62 13.2555 170.185 13.4651C169.751 13.6744 169.242 13.8241 168.658 13.9139C168.088 13.9886 167.481 14.0261 166.837 14.0261H165.916C165.662 14.011 165.437 13.9962 165.242 13.981C165.017 13.9662 164.823 13.9511 164.658 13.9363ZM166.95 6.71001H164.658V1.90775C164.912 1.8778 165.197 1.85543 165.512 1.84029C165.826 1.82549 166.261 1.81792 166.815 1.81792C167.369 1.81792 167.894 1.86267 168.387 1.9525C168.882 2.04232 169.309 2.18447 169.669 2.37893C170.044 2.55858 170.335 2.80535 170.545 3.11958C170.755 3.41867 170.86 3.79279 170.86 4.24159C170.86 4.72034 170.755 5.11683 170.545 5.43106C170.35 5.74495 170.073 5.9993 169.713 6.19409C169.369 6.38855 168.957 6.52312 168.478 6.59781C167.999 6.67283 167.489 6.71001 166.95 6.71001Z" fill="url(#paint32_linear_520_6745)"/>
<path fill-rule="evenodd" clip-rule="evenodd" d="M165.669 15.8213C166.043 15.8361 166.388 15.8437 166.703 15.8437C169.189 15.8437 171.002 15.4548 172.14 14.6769C173.294 13.884 173.87 12.7093 173.87 11.1533C173.87 10.0912 173.601 9.26826 173.062 8.68488C172.523 8.1015 171.796 7.67507 170.882 7.40592C171.557 7.13644 172.096 6.73272 172.5 6.19409C172.904 5.64032 173.107 4.93717 173.107 4.08431C173.107 3.32128 172.942 2.67802 172.613 2.15452C172.283 1.63103 171.826 1.21184 171.241 0.897611C170.673 0.568576 169.991 0.336607 169.197 0.202032C168.418 0.0674567 167.579 0 166.68 0C166.366 0 166.028 0.00756789 165.669 0.0227035C165.309 0.0375101 164.943 0.0598877 164.568 0.0898299C164.208 0.119772 163.849 0.157283 163.489 0.202032C163.13 0.24711 162.8 0.306991 162.501 0.381682V15.4623C162.8 15.537 163.13 15.5969 163.489 15.6417C163.849 15.6867 164.208 15.7239 164.568 15.7539C164.943 15.7838 165.309 15.8062 165.669 15.8213ZM164.658 13.9363V8.46048H167.466C168.096 8.46048 168.665 8.50556 169.174 8.59505C169.684 8.68488 170.118 8.83459 170.478 9.04386C170.853 9.25345 171.137 9.53774 171.331 9.89671C171.526 10.2409 171.624 10.6673 171.624 11.176C171.624 11.7446 171.489 12.2158 171.219 12.5899C170.965 12.9636 170.62 13.2555 170.185 13.4651C169.751 13.6744 169.242 13.8241 168.658 13.9139C168.088 13.9886 167.481 14.0261 166.837 14.0261H165.916C165.662 14.011 165.437 13.9962 165.242 13.981C165.017 13.9662 164.823 13.9511 164.658 13.9363ZM166.95 6.71001H164.658V1.90775C164.912 1.8778 165.197 1.85543 165.512 1.84029C165.826 1.82549 166.261 1.81792 166.815 1.81792C167.369 1.81792 167.894 1.86267 168.387 1.9525C168.882 2.04232 169.309 2.18447 169.669 2.37893C170.044 2.55858 170.335 2.80535 170.545 3.11958C170.755 3.41867 170.86 3.79279 170.86 4.24159C170.86 4.72034 170.755 5.11683 170.545 5.43106C170.35 5.74495 170.073 5.9993 169.713 6.19409C169.369 6.38855 168.957 6.52312 168.478 6.59781C167.999 6.67283 167.489 6.71001 166.95 6.71001Z" fill="#062633"/>
<path fill-rule="evenodd" clip-rule="evenodd" d="M165.669 15.8213C166.043 15.8361 166.388 15.8437 166.703 15.8437C169.189 15.8437 171.002 15.4548 172.14 14.6769C173.294 13.884 173.87 12.7093 173.87 11.1533C173.87 10.0912 173.601 9.26826 173.062 8.68488C172.523 8.1015 171.796 7.67507 170.882 7.40592C171.557 7.13644 172.096 6.73272 172.5 6.19409C172.904 5.64032 173.107 4.93717 173.107 4.08431C173.107 3.32128 172.942 2.67802 172.613 2.15452C172.283 1.63103 171.826 1.21184 171.241 0.897611C170.673 0.568576 169.991 0.336607 169.197 0.202032C168.418 0.0674567 167.579 0 166.68 0C166.366 0 166.028 0.00756789 165.669 0.0227035C165.309 0.0375101 164.943 0.0598877 164.568 0.0898299C164.208 0.119772 163.849 0.157283 163.489 0.202032C163.13 0.24711 162.8 0.306991 162.501 0.381682V15.4623C162.8 15.537 163.13 15.5969 163.489 15.6417C163.849 15.6867 164.208 15.7239 164.568 15.7539C164.943 15.7838 165.309 15.8062 165.669 15.8213ZM164.658 13.9363V8.46048H167.466C168.096 8.46048 168.665 8.50556 169.174 8.59505C169.684 8.68488 170.118 8.83459 170.478 9.04386C170.853 9.25345 171.137 9.53774 171.331 9.89671C171.526 10.2409 171.624 10.6673 171.624 11.176C171.624 11.7446 171.489 12.2158 171.219 12.5899C170.965 12.9636 170.62 13.2555 170.185 13.4651C169.751 13.6744 169.242 13.8241 168.658 13.9139C168.088 13.9886 167.481 14.0261 166.837 14.0261H165.916C165.662 14.011 165.437 13.9962 165.242 13.981C165.017 13.9662 164.823 13.9511 164.658 13.9363ZM166.95 6.71001H164.658V1.90775C164.912 1.8778 165.197 1.85543 165.512 1.84029C165.826 1.82549 166.261 1.81792 166.815 1.81792C167.369 1.81792 167.894 1.86267 168.387 1.9525C168.882 2.04232 169.309 2.18447 169.669 2.37893C170.044 2.55858 170.335 2.80535 170.545 3.11958C170.755 3.41867 170.86 3.79279 170.86 4.24159C170.86 4.72034 170.755 5.11683 170.545 5.43106C170.35 5.74495 170.073 5.9993 169.713 6.19409C169.369 6.38855 168.957 6.52312 168.478 6.59781C167.999 6.67283 167.489 6.71001 166.95 6.71001Z" fill="#005B8B"/>
<path fill-rule="evenodd" clip-rule="evenodd" d="M165.669 15.8213C166.043 15.8361 166.388 15.8437 166.703 15.8437C169.189 15.8437 171.002 15.4548 172.14 14.6769C173.294 13.884 173.87 12.7093 173.87 11.1533C173.87 10.0912 173.601 9.26826 173.062 8.68488C172.523 8.1015 171.796 7.67507 170.882 7.40592C171.557 7.13644 172.096 6.73272 172.5 6.19409C172.904 5.64032 173.107 4.93717 173.107 4.08431C173.107 3.32128 172.942 2.67802 172.613 2.15452C172.283 1.63103 171.826 1.21184 171.241 0.897611C170.673 0.568576 169.991 0.336607 169.197 0.202032C168.418 0.0674567 167.579 0 166.68 0C166.366 0 166.028 0.00756789 165.669 0.0227035C165.309 0.0375101 164.943 0.0598877 164.568 0.0898299C164.208 0.119772 163.849 0.157283 163.489 0.202032C163.13 0.24711 162.8 0.306991 162.501 0.381682V15.4623C162.8 15.537 163.13 15.5969 163.489 15.6417C163.849 15.6867 164.208 15.7239 164.568 15.7539C164.943 15.7838 165.309 15.8062 165.669 15.8213ZM164.658 13.9363V8.46048H167.466C168.096 8.46048 168.665 8.50556 169.174 8.59505C169.684 8.68488 170.118 8.83459 170.478 9.04386C170.853 9.25345 171.137 9.53774 171.331 9.89671C171.526 10.2409 171.624 10.6673 171.624 11.176C171.624 11.7446 171.489 12.2158 171.219 12.5899C170.965 12.9636 170.62 13.2555 170.185 13.4651C169.751 13.6744 169.242 13.8241 168.658 13.9139C168.088 13.9886 167.481 14.0261 166.837 14.0261H165.916C165.662 14.011 165.437 13.9962 165.242 13.981C165.017 13.9662 164.823 13.9511 164.658 13.9363ZM166.95 6.71001H164.658V1.90775C164.912 1.8778 165.197 1.85543 165.512 1.84029C165.826 1.82549 166.261 1.81792 166.815 1.81792C167.369 1.81792 167.894 1.86267 168.387 1.9525C168.882 2.04232 169.309 2.18447 169.669 2.37893C170.044 2.55858 170.335 2.80535 170.545 3.11958C170.755 3.41867 170.86 3.79279 170.86 4.24159C170.86 4.72034 170.755 5.11683 170.545 5.43106C170.35 5.74495 170.073 5.9993 169.713 6.19409C169.369 6.38855 168.957 6.52312 168.478 6.59781C167.999 6.67283 167.489 6.71001 166.95 6.71001Z" fill="url(#paint33_linear_520_6745)"/>
<path d="M19.1979 48.6218H22.3959L9.28408 19.0208H20.3971C20.3971 19.0208 22.2369 19.0208 24.2348 21.1352C25.2741 22.2352 25.607 22.9401 25.9937 24.3067C26.3314 25.5005 26.4337 26.2528 26.2335 27.4782C26.0633 28.5196 25.8206 29.1017 25.2741 29.9992C24.7157 30.9164 24.277 31.3758 23.4353 32.0322C22.5709 32.7063 21.9999 33.0143 20.9568 33.3334C20.1998 33.5649 18.958 33.6587 18.958 33.6587L20.3971 36.5049C20.3971 36.5049 21.2827 36.4597 21.8363 36.3423C22.8756 36.1218 23.8511 35.6542 24.9543 34.8785C26.3537 33.8944 27.0381 33.1101 27.9125 31.6256C28.6994 30.2896 29.0166 29.4205 29.2716 27.8849C29.5004 26.507 29.517 25.6816 29.2716 24.3067C28.8625 22.0146 28.1522 20.6888 26.5533 19.0208C23.4353 15.768 20.1573 15.768 20.1573 15.768L4.46204 15.8341L19.1979 48.6218Z" fill="black"/>
<path d="M19.1979 48.6218H22.3959L9.28408 19.0208H20.3971C20.3971 19.0208 22.2369 19.0208 24.2348 21.1352C25.2741 22.2352 25.607 22.9401 25.9937 24.3067C26.3314 25.5005 26.4337 26.2528 26.2335 27.4782C26.0633 28.5196 25.8206 29.1017 25.2741 29.9992C24.7157 30.9164 24.277 31.3758 23.4353 32.0322C22.5709 32.7063 21.9999 33.0143 20.9568 33.3334C20.1998 33.5649 18.958 33.6587 18.958 33.6587L20.3971 36.5049C20.3971 36.5049 21.2827 36.4597 21.8363 36.3423C22.8756 36.1218 23.8511 35.6542 24.9543 34.8785C26.3537 33.8944 27.0381 33.1101 27.9125 31.6256C28.6994 30.2896 29.0166 29.4205 29.2716 27.8849C29.5004 26.507 29.517 25.6816 29.2716 24.3067C28.8625 22.0146 28.1522 20.6888 26.5533 19.0208C23.4353 15.768 20.1573 15.768 20.1573 15.768L4.46204 15.8341L19.1979 48.6218Z" fill="url(#paint34_linear_520_6745)"/>
<path d="M19.1979 48.6218H22.3959L9.28408 19.0208H20.3971C20.3971 19.0208 22.2369 19.0208 24.2348 21.1352C25.2741 22.2352 25.607 22.9401 25.9937 24.3067C26.3314 25.5005 26.4337 26.2528 26.2335 27.4782C26.0633 28.5196 25.8206 29.1017 25.2741 29.9992C24.7157 30.9164 24.277 31.3758 23.4353 32.0322C22.5709 32.7063 21.9999 33.0143 20.9568 33.3334C20.1998 33.5649 18.958 33.6587 18.958 33.6587L20.3971 36.5049C20.3971 36.5049 21.2827 36.4597 21.8363 36.3423C22.8756 36.1218 23.8511 35.6542 24.9543 34.8785C26.3537 33.8944 27.0381 33.1101 27.9125 31.6256C28.6994 30.2896 29.0166 29.4205 29.2716 27.8849C29.5004 26.507 29.517 25.6816 29.2716 24.3067C28.8625 22.0146 28.1522 20.6888 26.5533 19.0208C23.4353 15.768 20.1573 15.768 20.1573 15.768L4.46204 15.8341L19.1979 48.6218Z" fill="#062633"/>
<path d="M19.1979 48.6218H22.3959L9.28408 19.0208H20.3971C20.3971 19.0208 22.2369 19.0208 24.2348 21.1352C25.2741 22.2352 25.607 22.9401 25.9937 24.3067C26.3314 25.5005 26.4337 26.2528 26.2335 27.4782C26.0633 28.5196 25.8206 29.1017 25.2741 29.9992C24.7157 30.9164 24.277 31.3758 23.4353 32.0322C22.5709 32.7063 21.9999 33.0143 20.9568 33.3334C20.1998 33.5649 18.958 33.6587 18.958 33.6587L20.3971 36.5049C20.3971 36.5049 21.2827 36.4597 21.8363 36.3423C22.8756 36.1218 23.8511 35.6542 24.9543 34.8785C26.3537 33.8944 27.0381 33.1101 27.9125 31.6256C28.6994 30.2896 29.0166 29.4205 29.2716 27.8849C29.5004 26.507 29.517 25.6816 29.2716 24.3067C28.8625 22.0146 28.1522 20.6888 26.5533 19.0208C23.4353 15.768 20.1573 15.768 20.1573 15.768L4.46204 15.8341L19.1979 48.6218Z" fill="#005B8B"/>
<path d="M19.1979 48.6218H22.3959L9.28408 19.0208H20.3971C20.3971 19.0208 22.2369 19.0208 24.2348 21.1352C25.2741 22.2352 25.607 22.9401 25.9937 24.3067C26.3314 25.5005 26.4337 26.2528 26.2335 27.4782C26.0633 28.5196 25.8206 29.1017 25.2741 29.9992C24.7157 30.9164 24.277 31.3758 23.4353 32.0322C22.5709 32.7063 21.9999 33.0143 20.9568 33.3334C20.1998 33.5649 18.958 33.6587 18.958 33.6587L20.3971 36.5049C20.3971 36.5049 21.2827 36.4597 21.8363 36.3423C22.8756 36.1218 23.8511 35.6542 24.9543 34.8785C26.3537 33.8944 27.0381 33.1101 27.9125 31.6256C28.6994 30.2896 29.0166 29.4205 29.2716 27.8849C29.5004 26.507 29.517 25.6816 29.2716 24.3067C28.8625 22.0146 28.1522 20.6888 26.5533 19.0208C23.4353 15.768 20.1573 15.768 20.1573 15.768L4.46204 15.8341L19.1979 48.6218Z" fill="url(#paint35_linear_520_6745)"/>
<path d="M1.23945 15.8341H0L14.7826 48.6218L15.9559 48.6218L1.23945 15.8341Z" fill="black"/>
<path d="M1.23945 15.8341H0L14.7826 48.6218L15.9559 48.6218L1.23945 15.8341Z" fill="url(#paint36_linear_520_6745)"/>
<path d="M1.23945 15.8341H0L14.7826 48.6218L15.9559 48.6218L1.23945 15.8341Z" fill="#062633"/>
<path d="M1.23945 15.8341H0L14.7826 48.6218L15.9559 48.6218L1.23945 15.8341Z" fill="#005B8B"/>
<path d="M1.23945 15.8341H0L14.7826 48.6218L15.9559 48.6218L1.23945 15.8341Z" fill="url(#paint37_linear_520_6745)"/>
<path d="M35.6207 6.05323C34.9685 4.11309 34.3163 2.09536 33.6641 0.0776104C33.0935 0.0776104 32.5228 0.0776057 31.7891 0C31.8299 0.0776057 31.8503 0.174615 31.8707 0.271625C31.891 0.368634 31.9114 0.465644 31.9522 0.543249C39.3707 21.7296 46.7891 42.8383 54.2076 63.9471C54.6152 65.1112 54.6152 65.1112 56.1641 64.8783C56.1234 64.7231 56.0826 64.5873 56.0418 64.4515C56.0011 64.3157 55.9603 64.1799 55.9195 64.0247L35.6207 6.05323Z" fill="black"/>
<path d="M35.6207 6.05323C34.9685 4.11309 34.3163 2.09536 33.6641 0.0776104C33.0935 0.0776104 32.5228 0.0776057 31.7891 0C31.8299 0.0776057 31.8503 0.174615 31.8707 0.271625C31.891 0.368634 31.9114 0.465644 31.9522 0.543249C39.3707 21.7296 46.7891 42.8383 54.2076 63.9471C54.6152 65.1112 54.6152 65.1112 56.1641 64.8783C56.1234 64.7231 56.0826 64.5873 56.0418 64.4515C56.0011 64.3157 55.9603 64.1799 55.9195 64.0247L35.6207 6.05323Z" fill="url(#paint38_linear_520_6745)"/>
<path d="M35.6207 6.05323C34.9685 4.11309 34.3163 2.09536 33.6641 0.0776104C33.0935 0.0776104 32.5228 0.0776057 31.7891 0C31.8299 0.0776057 31.8503 0.174615 31.8707 0.271625C31.891 0.368634 31.9114 0.465644 31.9522 0.543249C39.3707 21.7296 46.7891 42.8383 54.2076 63.9471C54.6152 65.1112 54.6152 65.1112 56.1641 64.8783C56.1234 64.7231 56.0826 64.5873 56.0418 64.4515C56.0011 64.3157 55.9603 64.1799 55.9195 64.0247L35.6207 6.05323Z" fill="#062633"/>
<path d="M35.6207 6.05323C34.9685 4.11309 34.3163 2.09536 33.6641 0.0776104C33.0935 0.0776104 32.5228 0.0776057 31.7891 0C31.8299 0.0776057 31.8503 0.174615 31.8707 0.271625C31.891 0.368634 31.9114 0.465644 31.9522 0.543249C39.3707 21.7296 46.7891 42.8383 54.2076 63.9471C54.6152 65.1112 54.6152 65.1112 56.1641 64.8783C56.1234 64.7231 56.0826 64.5873 56.0418 64.4515C56.0011 64.3157 55.9603 64.1799 55.9195 64.0247L35.6207 6.05323Z" fill="#005B8B"/>
<path d="M35.6207 6.05323C34.9685 4.11309 34.3163 2.09536 33.6641 0.0776104C33.0935 0.0776104 32.5228 0.0776057 31.7891 0C31.8299 0.0776057 31.8503 0.174615 31.8707 0.271625C31.891 0.368634 31.9114 0.465644 31.9522 0.543249C39.3707 21.7296 46.7891 42.8383 54.2076 63.9471C54.6152 65.1112 54.6152 65.1112 56.1641 64.8783C56.1234 64.7231 56.0826 64.5873 56.0418 64.4515C56.0011 64.3157 55.9603 64.1799 55.9195 64.0247L35.6207 6.05323Z" fill="url(#paint39_linear_520_6745)"/>
<defs>
<linearGradient id="paint0_linear_520_6745" x1="58.0753" y1="74.0633" x2="33.7684" y2="74.0308" gradientUnits="userSpaceOnUse">
<stop stop-color="#FA3901"/>
<stop offset="1" stop-color="#FF8902"/>
</linearGradient>
<linearGradient id="paint1_linear_520_6745" x1="404.776" y1="65.0333" x2="276.091" y2="221.81" gradientUnits="userSpaceOnUse">
<stop stop-color="#FA3901"/>
<stop offset="1" stop-color="#FF8902"/>
</linearGradient>
<linearGradient id="paint2_linear_520_6745" x1="58.0753" y1="74.0633" x2="33.7684" y2="74.0308" gradientUnits="userSpaceOnUse">
<stop stop-color="#FA3901"/>
<stop offset="1" stop-color="#FF8902"/>
</linearGradient>
<linearGradient id="paint3_linear_520_6745" x1="404.776" y1="65.0333" x2="276.091" y2="221.81" gradientUnits="userSpaceOnUse">
<stop stop-color="#FA3901"/>
<stop offset="1" stop-color="#FF8902"/>
</linearGradient>
<linearGradient id="paint4_linear_520_6745" x1="58.0753" y1="74.0633" x2="33.7684" y2="74.0308" gradientUnits="userSpaceOnUse">
<stop stop-color="#FA3901"/>
<stop offset="1" stop-color="#FF8902"/>
</linearGradient>
<linearGradient id="paint5_linear_520_6745" x1="404.776" y1="65.0333" x2="276.091" y2="221.81" gradientUnits="userSpaceOnUse">
<stop stop-color="#FA3901"/>
<stop offset="1" stop-color="#FF8902"/>
</linearGradient>
<linearGradient id="paint6_linear_520_6745" x1="58.0753" y1="74.0633" x2="33.7684" y2="74.0308" gradientUnits="userSpaceOnUse">
<stop stop-color="#FA3901"/>
<stop offset="1" stop-color="#FF8902"/>
</linearGradient>
<linearGradient id="paint7_linear_520_6745" x1="404.776" y1="65.0333" x2="276.091" y2="221.81" gradientUnits="userSpaceOnUse">
<stop stop-color="#FA3901"/>
<stop offset="1" stop-color="#FF8902"/>
</linearGradient>
<linearGradient id="paint8_linear_520_6745" x1="58.0753" y1="74.0633" x2="33.7684" y2="74.0308" gradientUnits="userSpaceOnUse">
<stop stop-color="#FA3901"/>
<stop offset="1" stop-color="#FF8902"/>
</linearGradient>
<linearGradient id="paint9_linear_520_6745" x1="404.776" y1="65.0333" x2="276.091" y2="221.81" gradientUnits="userSpaceOnUse">
<stop stop-color="#FA3901"/>
<stop offset="1" stop-color="#FF8902"/>
</linearGradient>
<linearGradient id="paint10_linear_520_6745" x1="58.0753" y1="74.0633" x2="33.7684" y2="74.0308" gradientUnits="userSpaceOnUse">
<stop stop-color="#FA3901"/>
<stop offset="1" stop-color="#FF8902"/>
</linearGradient>
<linearGradient id="paint11_linear_520_6745" x1="404.776" y1="65.0333" x2="276.091" y2="221.81" gradientUnits="userSpaceOnUse">
<stop stop-color="#FA3901"/>
<stop offset="1" stop-color="#FF8902"/>
</linearGradient>
<linearGradient id="paint12_linear_520_6745" x1="58.0753" y1="74.0633" x2="33.7684" y2="74.0308" gradientUnits="userSpaceOnUse">
<stop stop-color="#FA3901"/>
<stop offset="1" stop-color="#FF8902"/>
</linearGradient>
<linearGradient id="paint13_linear_520_6745" x1="404.776" y1="65.0333" x2="276.091" y2="221.81" gradientUnits="userSpaceOnUse">
<stop stop-color="#FA3901"/>
<stop offset="1" stop-color="#FF8902"/>
</linearGradient>
<linearGradient id="paint14_linear_520_6745" x1="58.0753" y1="74.0633" x2="33.7684" y2="74.0308" gradientUnits="userSpaceOnUse">
<stop stop-color="#FA3901"/>
<stop offset="1" stop-color="#FF8902"/>
</linearGradient>
<linearGradient id="paint15_linear_520_6745" x1="404.776" y1="65.0333" x2="276.091" y2="221.81" gradientUnits="userSpaceOnUse">
<stop stop-color="#FA3901"/>
<stop offset="1" stop-color="#FF8902"/>
</linearGradient>
<linearGradient id="paint16_linear_520_6745" x1="58.0753" y1="74.0633" x2="33.7684" y2="74.0308" gradientUnits="userSpaceOnUse">
<stop stop-color="#FA3901"/>
<stop offset="1" stop-color="#FF8902"/>
</linearGradient>
<linearGradient id="paint17_linear_520_6745" x1="404.776" y1="65.0333" x2="276.091" y2="221.81" gradientUnits="userSpaceOnUse">
<stop stop-color="#FA3901"/>
<stop offset="1" stop-color="#FF8902"/>
</linearGradient>
<linearGradient id="paint18_linear_520_6745" x1="58.0753" y1="74.0633" x2="33.7684" y2="74.0308" gradientUnits="userSpaceOnUse">
<stop stop-color="#FA3901"/>
<stop offset="1" stop-color="#FF8902"/>
</linearGradient>
<linearGradient id="paint19_linear_520_6745" x1="404.776" y1="65.0333" x2="276.091" y2="221.81" gradientUnits="userSpaceOnUse">
<stop stop-color="#FA3901"/>
<stop offset="1" stop-color="#FF8902"/>
</linearGradient>
<linearGradient id="paint20_linear_520_6745" x1="58.0753" y1="74.0633" x2="33.7684" y2="74.0308" gradientUnits="userSpaceOnUse">
<stop stop-color="#FA3901"/>
<stop offset="1" stop-color="#FF8902"/>
</linearGradient>
<linearGradient id="paint21_linear_520_6745" x1="404.776" y1="65.0333" x2="276.091" y2="221.81" gradientUnits="userSpaceOnUse">
<stop stop-color="#FA3901"/>
<stop offset="1" stop-color="#FF8902"/>
</linearGradient>
<linearGradient id="paint22_linear_520_6745" x1="58.0753" y1="74.0633" x2="33.7684" y2="74.0308" gradientUnits="userSpaceOnUse">
<stop stop-color="#FA3901"/>
<stop offset="1" stop-color="#FF8902"/>
</linearGradient>
<linearGradient id="paint23_linear_520_6745" x1="404.776" y1="65.0333" x2="276.091" y2="221.81" gradientUnits="userSpaceOnUse">
<stop stop-color="#FA3901"/>
<stop offset="1" stop-color="#FF8902"/>
</linearGradient>
<linearGradient id="paint24_linear_520_6745" x1="58.0753" y1="74.0633" x2="33.7684" y2="74.0308" gradientUnits="userSpaceOnUse">
<stop stop-color="#FA3901"/>
<stop offset="1" stop-color="#FF8902"/>
</linearGradient>
<linearGradient id="paint25_linear_520_6745" x1="404.776" y1="65.0333" x2="276.091" y2="221.81" gradientUnits="userSpaceOnUse">
<stop stop-color="#FA3901"/>
<stop offset="1" stop-color="#FF8902"/>
</linearGradient>
<linearGradient id="paint26_linear_520_6745" x1="58.0753" y1="74.0633" x2="33.7684" y2="74.0308" gradientUnits="userSpaceOnUse">
<stop stop-color="#FA3901"/>
<stop offset="1" stop-color="#FF8902"/>
</linearGradient>
<linearGradient id="paint27_linear_520_6745" x1="404.776" y1="65.0333" x2="276.091" y2="221.81" gradientUnits="userSpaceOnUse">
<stop stop-color="#FA3901"/>
<stop offset="1" stop-color="#FF8902"/>
</linearGradient>
<linearGradient id="paint28_linear_520_6745" x1="58.0753" y1="74.0633" x2="33.7684" y2="74.0308" gradientUnits="userSpaceOnUse">
<stop stop-color="#FA3901"/>
<stop offset="1" stop-color="#FF8902"/>
</linearGradient>
<linearGradient id="paint29_linear_520_6745" x1="404.776" y1="65.0333" x2="276.091" y2="221.81" gradientUnits="userSpaceOnUse">
<stop stop-color="#FA3901"/>
<stop offset="1" stop-color="#FF8902"/>
</linearGradient>
<linearGradient id="paint30_linear_520_6745" x1="58.0753" y1="74.0633" x2="33.7684" y2="74.0308" gradientUnits="userSpaceOnUse">
<stop stop-color="#FA3901"/>
<stop offset="1" stop-color="#FF8902"/>
</linearGradient>
<linearGradient id="paint31_linear_520_6745" x1="404.776" y1="65.0333" x2="276.091" y2="221.81" gradientUnits="userSpaceOnUse">
<stop stop-color="#FA3901"/>
<stop offset="1" stop-color="#FF8902"/>
</linearGradient>
<linearGradient id="paint32_linear_520_6745" x1="58.0753" y1="74.0633" x2="33.7684" y2="74.0308" gradientUnits="userSpaceOnUse">
<stop stop-color="#FA3901"/>
<stop offset="1" stop-color="#FF8902"/>
</linearGradient>
<linearGradient id="paint33_linear_520_6745" x1="404.776" y1="65.0333" x2="276.091" y2="221.81" gradientUnits="userSpaceOnUse">
<stop stop-color="#FA3901"/>
<stop offset="1" stop-color="#FF8902"/>
</linearGradient>
<linearGradient id="paint34_linear_520_6745" x1="58.0753" y1="74.0633" x2="33.7684" y2="74.0308" gradientUnits="userSpaceOnUse">
<stop stop-color="#FA3901"/>
<stop offset="1" stop-color="#FF8902"/>
</linearGradient>
<linearGradient id="paint35_linear_520_6745" x1="404.776" y1="65.0333" x2="276.091" y2="221.81" gradientUnits="userSpaceOnUse">
<stop stop-color="#FA3901"/>
<stop offset="1" stop-color="#FF8902"/>
</linearGradient>
<linearGradient id="paint36_linear_520_6745" x1="58.0753" y1="74.0633" x2="33.7684" y2="74.0308" gradientUnits="userSpaceOnUse">
<stop stop-color="#FA3901"/>
<stop offset="1" stop-color="#FF8902"/>
</linearGradient>
<linearGradient id="paint37_linear_520_6745" x1="404.776" y1="65.0333" x2="276.091" y2="221.81" gradientUnits="userSpaceOnUse">
<stop stop-color="#FA3901"/>
<stop offset="1" stop-color="#FF8902"/>
</linearGradient>
<linearGradient id="paint38_linear_520_6745" x1="58.0753" y1="74.0633" x2="33.7684" y2="74.0308" gradientUnits="userSpaceOnUse">
<stop stop-color="#FA3901"/>
<stop offset="1" stop-color="#FF8902"/>
</linearGradient>
<linearGradient id="paint39_linear_520_6745" x1="404.776" y1="65.0333" x2="276.091" y2="221.81" gradientUnits="userSpaceOnUse">
<stop stop-color="#FA3901"/>
<stop offset="1" stop-color="#FF8902"/>
</linearGradient>
</defs>
</svg>
