<svg width="263" height="42" viewBox="0 0 263 42" fill="none" xmlns="http://www.w3.org/2000/svg">
<path fill-rule="evenodd" clip-rule="evenodd" d="M23.7965 0.0501483C24.203 1.35392 24.6094 2.65769 25.0159 3.91132L32.7895 26.928L37.667 41.3698C37.6924 41.4701 37.7178 41.5578 37.7432 41.6456C37.7686 41.7333 37.794 41.8211 37.8194 41.9214C36.8541 42.0718 36.8541 42.0718 36.6 41.3196C31.9765 27.6801 27.353 14.0407 22.7296 0.351023C22.7041 0.300877 22.6914 0.238194 22.6787 0.175511C22.666 0.112828 22.6533 0.0501452 22.6279 0C23.0852 0.0501452 23.4408 0.0501483 23.7965 0.0501483ZM15.6141 14H19.5V13.4885H16.5224L18.111 12.0556C18.8551 11.3848 19.2271 10.8067 19.2271 10.3211C19.2271 9.92141 19.0669 9.60185 18.7464 9.36247C18.426 9.12082 17.9902 9 17.4389 9C16.8496 9 16.3785 9.14002 16.0255 9.42005C15.6752 9.70009 15.5 10.0671 15.5 10.521H16.2536C16.2536 10.2048 16.3568 9.95867 16.5631 9.78252C16.7722 9.60411 17.0642 9.5149 17.4389 9.5149C17.7512 9.5149 18.001 9.59733 18.1884 9.7622C18.3758 9.92705 18.4695 10.1382 18.4695 10.3957C18.4695 10.5876 18.4111 10.7739 18.2943 10.9546C18.1803 11.133 17.9712 11.3656 17.667 11.6524L15.6141 13.5495V14ZM0 11.1703L1.18099 13.2288H4.85303C7.2394 13.2288 9.09369 13.9629 10.4159 15.431C11.7488 16.8991 12.4152 18.9894 12.4152 21.7023V23.0586C12.4152 25.6969 11.7864 27.7448 10.5288 29.2022C9.2818 30.6703 7.50814 31.415 5.20775 31.4363H3.26391L4 33.5L5.20227 33.5107C7.24467 33.5107 8.8465 33.0639 10.4159 32.1703C11.9853 31.2767 12.8424 30.2448 13.6916 28.5958C14.5516 26.9469 15.0213 24.9256 15.0321 22.7873V21.7023C15.0321 19.5108 14.5516 17.7342 13.6916 16.0852C12.8425 14.4363 12.0068 13.3937 10.4159 12.5107C8.8357 11.6278 7.31463 11.1916 5.20775 11.1703H0ZM28 30.1337C27.8555 31.369 27.3979 32.3235 26.6271 32.9973C25.8618 33.6658 24.8421 34 23.5683 34C22.1873 34 21.0794 33.5053 20.2444 32.516C19.4148 31.5267 19 30.2032 19 28.5454V27.4225C19 26.3369 19.1927 25.3823 19.5781 24.5588C19.9688 23.7353 20.5201 23.1043 21.2319 22.6658C21.9438 22.2219 22.7681 22 23.7047 22C24.9465 22 25.942 22.3476 26.6914 23.0428C27.4407 23.7326 27.877 24.6898 28 25.9144H26.4505C26.3167 24.984 26.025 24.3102 25.5754 23.893C25.1312 23.4759 24.5076 23.2674 23.7047 23.2674C22.7199 23.2674 21.9465 23.631 21.3845 24.3583C20.8278 25.0856 20.5495 26.1203 20.5495 27.4626V28.5935C20.5495 29.861 20.8145 30.869 21.3443 31.6176C21.8742 32.3663 22.6155 32.7406 23.5683 32.7406C24.4246 32.7406 25.0803 32.5481 25.5353 32.1631C25.9956 31.7727 26.3007 31.0963 26.4505 30.1337H28ZM49.7344 22.9375V40H54.6445C56.1836 40 57.5469 39.668 58.7344 39.0039C59.9297 38.3398 60.8477 37.3945 61.4883 36.168C62.1367 34.9414 62.4609 33.5195 62.4609 31.9023V31.0469C62.4609 29.4531 62.1406 28.0391 61.5 26.8047C60.8594 25.5703 59.9531 24.6172 58.7812 23.9453C57.6172 23.2734 56.2812 22.9375 54.7734 22.9375H49.7344ZM52.6992 37.6328V25.3281H54.7734C56.3047 25.3281 57.4727 25.8164 58.2773 26.793C59.082 27.7695 59.4844 29.1836 59.4844 31.0352V31.9844C59.4688 33.8047 59.043 35.2031 58.207 36.1797C57.3789 37.1484 56.1875 37.6328 54.6328 37.6328H52.6992ZM72.0989 32.3828H79.1067V30.0391H72.0989V25.3281H80.2083V22.9375H69.1341V40H80.2903V37.6328H72.0989V32.3828ZM94.5455 33.8711C95.0767 34.2773 95.3423 34.8555 95.3423 35.6055C95.3423 36.293 95.0806 36.8477 94.5572 37.2695C94.0416 37.6836 93.2681 37.8906 92.2369 37.8906C91.0416 37.8906 90.1236 37.625 89.483 37.0938C88.8423 36.5625 88.522 35.8125 88.522 34.8438H85.5572C85.5572 35.9141 85.8423 36.8516 86.4127 37.6562C86.9908 38.4609 87.7955 39.0938 88.8267 39.5547C89.8658 40.0078 91.0025 40.2344 92.2369 40.2344C94.1041 40.2344 95.5806 39.8164 96.6666 38.9805C97.7603 38.1367 98.3072 37.0039 98.3072 35.582C98.3072 34.707 98.1197 33.9453 97.7447 33.2969C97.3697 32.6406 96.7798 32.0625 95.9752 31.5625C95.1705 31.0547 94.1041 30.6055 92.7759 30.2148C91.4478 29.8164 90.4947 29.4102 89.9166 28.9961C89.3384 28.5742 89.0494 28.0508 89.0494 27.4258C89.0494 26.6836 89.315 26.1055 89.8463 25.6914C90.3853 25.2773 91.1392 25.0703 92.108 25.0703C93.147 25.0703 93.9439 25.3242 94.4986 25.832C95.0611 26.332 95.3423 27.0273 95.3423 27.918H98.2955C98.2955 26.9336 98.0298 26.0391 97.4986 25.2344C96.9673 24.4219 96.2369 23.7969 95.3072 23.3594C94.3775 22.9219 93.3189 22.7031 92.1314 22.7031C90.3423 22.7031 88.8853 23.1484 87.7603 24.0391C86.6431 24.9297 86.0845 26.0625 86.0845 27.4375C86.0845 29.0078 86.8619 30.2812 88.4166 31.2578C89.2291 31.7656 90.3228 32.2266 91.6978 32.6406C93.0728 33.0547 94.022 33.4648 94.5455 33.8711ZM104.805 40H107.758V22.9375H104.805V40ZM125.634 39.6133C126.728 39.1992 127.583 38.5898 128.2 37.7852V31.2461H121.732V33.4961H125.247V36.8359C124.607 37.5234 123.528 37.8672 122.013 37.8672C120.63 37.8672 119.548 37.3594 118.767 36.3438C117.993 35.3203 117.607 33.8867 117.607 32.043V30.7305C117.63 28.8789 117.985 27.4766 118.673 26.5234C119.368 25.5625 120.38 25.082 121.708 25.082C123.763 25.082 124.954 26.1094 125.282 28.1641H128.189C127.962 26.3984 127.29 25.0469 126.173 24.1094C125.056 23.1719 123.548 22.7031 121.65 22.7031C119.439 22.7031 117.716 23.4297 116.482 24.8828C115.247 26.3281 114.63 28.3398 114.63 30.918V32.2539C114.653 33.8633 114.962 35.2734 115.556 36.4844C116.157 37.6875 117.009 38.6133 118.11 39.2617C119.212 39.9102 120.478 40.2344 121.907 40.2344C123.298 40.2344 124.54 40.0273 125.634 39.6133ZM145.748 40H148.713V22.9375H145.772V35.0898L138.143 22.9375H135.178V40H138.143V27.8945L145.748 40ZM165.177 40H176.649V37.7266H168.728L172.899 33.2617C173.993 32.0742 174.778 31.0156 175.255 30.0859C175.739 29.1484 175.981 28.2539 175.981 27.4023C175.981 25.9336 175.501 24.7852 174.54 23.957C173.587 23.1211 172.282 22.7031 170.626 22.7031C169.478 22.7031 168.462 22.9336 167.579 23.3945C166.704 23.8555 166.028 24.5039 165.552 25.3398C165.083 26.168 164.849 27.1016 164.849 28.1406H167.696C167.696 27.1641 167.95 26.3945 168.458 25.832C168.966 25.2695 169.681 24.9883 170.603 24.9883C171.376 24.9883 171.989 25.2383 172.442 25.7383C172.903 26.2383 173.134 26.8945 173.134 27.707C173.134 28.3242 172.958 28.9414 172.606 29.5586C172.263 30.168 171.681 30.9297 170.86 31.8438L165.177 38.043V40ZM203.695 38.7109C204.867 37.6875 205.539 36.2656 205.71 34.4453H202.757C202.601 35.6641 202.23 36.5352 201.644 37.0586C201.058 37.582 200.183 37.8438 199.019 37.8438C197.746 37.8438 196.777 37.3594 196.113 36.3906C195.457 35.4219 195.128 34.0156 195.128 32.1719V30.6602C195.144 28.8398 195.496 27.4609 196.183 26.5234C196.878 25.5781 197.871 25.1055 199.16 25.1055C200.269 25.1055 201.109 25.3789 201.679 25.9258C202.257 26.4648 202.617 27.3477 202.757 28.5742H205.71C205.523 26.707 204.855 25.2617 203.707 24.2383C202.558 23.2148 201.042 22.7031 199.16 22.7031C197.761 22.7031 196.527 23.0352 195.457 23.6992C194.394 24.3633 193.578 25.3086 193.007 26.5352C192.437 27.7617 192.152 29.1797 192.152 30.7891V32.3828C192.175 33.9531 192.468 35.332 193.031 36.5195C193.593 37.707 194.39 38.625 195.421 39.2734C196.46 39.9141 197.66 40.2344 199.019 40.2344C200.964 40.2344 202.523 39.7266 203.695 38.7109ZM224.841 36.3203C225.419 35.0547 225.708 33.5859 225.708 31.9141V30.9648C225.7 29.3008 225.403 27.8438 224.817 26.5938C224.231 25.3359 223.399 24.375 222.321 23.7109C221.251 23.0391 220.02 22.7031 218.63 22.7031C217.239 22.7031 216.005 23.043 214.927 23.7227C213.856 24.3945 213.024 25.3672 212.43 26.6406C211.845 27.9141 211.552 29.3828 211.552 31.0469V32.0078C211.559 33.6406 211.856 35.082 212.442 36.332C213.036 37.582 213.872 38.5469 214.95 39.2266C216.036 39.8984 217.27 40.2344 218.653 40.2344C220.052 40.2344 221.286 39.8984 222.356 39.2266C223.434 38.5469 224.262 37.5781 224.841 36.3203ZM221.665 26.6758C222.384 27.6836 222.743 29.1328 222.743 31.0234V31.9141C222.743 33.8359 222.387 35.2969 221.677 36.2969C220.973 37.2969 219.966 37.7969 218.653 37.7969C217.356 37.7969 216.341 37.2852 215.606 36.2617C214.88 35.2383 214.516 33.7891 214.516 31.9141V30.9297C214.532 29.0938 214.899 27.6758 215.618 26.6758C216.345 25.668 217.348 25.1641 218.63 25.1641C219.942 25.1641 220.954 25.668 221.665 26.6758ZM240.502 33.8711C241.033 34.2773 241.299 34.8555 241.299 35.6055C241.299 36.293 241.037 36.8477 240.514 37.2695C239.998 37.6836 239.225 37.8906 238.193 37.8906C236.998 37.8906 236.08 37.625 235.44 37.0938C234.799 36.5625 234.479 35.8125 234.479 34.8438H231.514C231.514 35.9141 231.799 36.8516 232.369 37.6562C232.947 38.4609 233.752 39.0938 234.783 39.5547C235.822 40.0078 236.959 40.2344 238.193 40.2344C240.061 40.2344 241.537 39.8164 242.623 38.9805C243.717 38.1367 244.264 37.0039 244.264 35.582C244.264 34.707 244.076 33.9453 243.701 33.2969C243.326 32.6406 242.736 32.0625 241.932 31.5625C241.127 31.0547 240.061 30.6055 238.732 30.2148C237.404 29.8164 236.451 29.4102 235.873 28.9961C235.295 28.5742 235.006 28.0508 235.006 27.4258C235.006 26.6836 235.272 26.1055 235.803 25.6914C236.342 25.2773 237.096 25.0703 238.065 25.0703C239.104 25.0703 239.9 25.3242 240.455 25.832C241.018 26.332 241.299 27.0273 241.299 27.918H244.252C244.252 26.9336 243.986 26.0391 243.455 25.2344C242.924 24.4219 242.193 23.7969 241.264 23.3594C240.334 22.9219 239.275 22.7031 238.088 22.7031C236.299 22.7031 234.842 23.1484 233.717 24.0391C232.6 24.9297 232.041 26.0625 232.041 27.4375C232.041 29.0078 232.818 30.2812 234.373 31.2578C235.186 31.7656 236.279 32.2266 237.654 32.6406C239.029 33.0547 239.979 33.4648 240.502 33.8711ZM257.593 25.3281H262.913V22.9375H249.378V25.3281H254.652V40H257.593V25.3281ZM56.7948 11.5704C56.4445 10.5577 56.108 9.61863 55.7853 8.75322C55.4719 7.89692 55.163 7.08212 54.8588 6.30884C54.5546 5.53535 54.2504 4.79427 53.9462 4.08537C53.6512 3.38559 53.3469 2.69047 53.0335 2H51.7751C51.4617 2.69047 51.1528 3.38559 50.8486 4.08537C50.5536 4.79427 50.2494 5.53535 49.936 6.30884C49.6317 7.08212 49.3183 7.89692 48.9956 8.75322C48.673 9.61863 48.3411 10.5577 48 11.5704H49.4796C49.9774 10.1157 50.466 8.71637 50.9454 7.37208C51.4248 6.028 51.918 4.76673 52.425 3.58828C52.9321 4.75742 53.4253 6.01423 53.9047 7.35831C54.384 8.71171 54.868 10.1157 55.3566 11.5704H56.7948ZM129.956 8.75322C130.279 9.61863 130.615 10.5577 130.966 11.5704H129.528C129.039 10.1157 128.555 8.71171 128.076 7.35831C127.596 6.01423 127.103 4.75742 126.596 3.58828C126.089 4.76673 125.596 6.028 125.117 7.37208C124.637 8.71637 124.148 10.1157 123.651 11.5704H122.171C122.512 10.5577 122.844 9.61863 123.167 8.75322C123.489 7.89692 123.803 7.08212 124.107 6.30884C124.42 5.53535 124.725 4.79427 125.02 4.08537C125.324 3.38559 125.633 2.69047 125.946 2H127.205C127.518 2.69047 127.822 3.38559 128.117 4.08537C128.421 4.79427 128.726 5.53535 129.03 6.30884C129.334 7.08212 129.643 7.89692 129.956 8.75322ZM146.399 12.0001C145.772 12.0001 145.228 11.9035 144.767 11.7101C144.306 11.5168 143.928 11.2544 143.633 10.9229C143.338 10.5823 143.117 10.1818 142.969 9.72135C142.831 9.26111 142.762 8.76402 142.762 8.22986V2.2226H144.103V8.078C144.103 9.03554 144.315 9.73067 144.739 10.1634C145.163 10.5961 145.716 10.8125 146.399 10.8125C146.74 10.8125 147.049 10.7617 147.325 10.6605C147.611 10.5501 147.855 10.3843 148.058 10.1634C148.261 9.94247 148.417 9.66162 148.528 9.32084C148.639 8.97116 148.694 8.55687 148.694 8.078V2.2226H150.035V8.22986C150.035 8.76402 149.962 9.26111 149.814 9.72135C149.676 10.1818 149.455 10.5823 149.15 10.9229C148.855 11.2544 148.477 11.5168 148.017 11.7101C147.565 11.9035 147.025 12.0001 146.399 12.0001ZM74.4305 11.7929V10.6329H70.0055V2.22258H68.6641V11.7929H74.4305ZM92.0286 10.6329V11.7929H86.2622V2.22258H87.6038V10.6329H92.0286ZM105.813 11.8613C106.043 11.8704 106.255 11.8751 106.449 11.8751C107.979 11.8751 109.095 11.6358 109.795 11.1571C110.505 10.6691 110.86 9.94623 110.86 8.98869C110.86 8.33508 110.694 7.82867 110.362 7.46966C110.031 7.11066 109.583 6.84824 109.021 6.68261C109.436 6.51678 109.768 6.26833 110.017 5.93687C110.266 5.59609 110.39 5.16338 110.39 4.63855C110.39 4.16899 110.289 3.77313 110.086 3.45098C109.883 3.12883 109.602 2.87087 109.242 2.6775C108.892 2.47502 108.472 2.33226 107.984 2.24945C107.504 2.16663 106.988 2.12512 106.435 2.12512C106.242 2.12512 106.034 2.12978 105.813 2.13909C105.592 2.14821 105.366 2.16198 105.135 2.1804C104.914 2.19883 104.693 2.22191 104.471 2.24945C104.25 2.27719 104.047 2.31404 103.863 2.36V11.6404C104.047 11.6864 104.25 11.7232 104.471 11.7508C104.693 11.7785 104.914 11.8014 105.135 11.8198C105.366 11.8382 105.592 11.852 105.813 11.8613ZM105.191 10.7013V7.33157H106.919C107.306 7.33157 107.657 7.35931 107.97 7.41439C108.284 7.46966 108.551 7.56179 108.772 7.69057C109.003 7.81955 109.178 7.9945 109.297 8.21541C109.417 8.42721 109.477 8.68962 109.477 9.00266C109.477 9.35255 109.394 9.64251 109.228 9.87273C109.072 10.1028 108.859 10.2824 108.592 10.4113C108.325 10.5401 108.012 10.6322 107.652 10.6875C107.302 10.7335 106.928 10.7566 106.532 10.7566H105.965C105.808 10.7473 105.67 10.7381 105.55 10.7288C105.412 10.7197 105.292 10.7104 105.191 10.7013ZM106.601 6.25436H105.191V3.29912C105.347 3.28069 105.522 3.26692 105.716 3.25761C105.91 3.2485 106.177 3.24384 106.518 3.24384C106.859 3.24384 107.182 3.27138 107.486 3.32666C107.79 3.38194 108.053 3.46941 108.274 3.58908C108.505 3.69963 108.684 3.85149 108.814 4.04486C108.943 4.22892 109.007 4.45915 109.007 4.73533C109.007 5.02995 108.943 5.27394 108.814 5.46731C108.694 5.66048 108.523 5.817 108.302 5.93687C108.09 6.05654 107.836 6.13935 107.541 6.18531C107.247 6.23148 106.933 6.25436 106.601 6.25436Z" fill="black"/>
<path fill-rule="evenodd" clip-rule="evenodd" d="M23.7965 0.0501483C24.203 1.35392 24.6094 2.65769 25.0159 3.91132L32.7895 26.928L37.667 41.3698C37.6924 41.4701 37.7178 41.5578 37.7432 41.6456C37.7686 41.7333 37.794 41.8211 37.8194 41.9214C36.8541 42.0718 36.8541 42.0718 36.6 41.3196C31.9765 27.6801 27.353 14.0407 22.7296 0.351023C22.7041 0.300877 22.6914 0.238194 22.6787 0.175511C22.666 0.112828 22.6533 0.0501452 22.6279 0C23.0852 0.0501452 23.4408 0.0501483 23.7965 0.0501483ZM15.6141 14H19.5V13.4885H16.5224L18.111 12.0556C18.8551 11.3848 19.2271 10.8067 19.2271 10.3211C19.2271 9.92141 19.0669 9.60185 18.7464 9.36247C18.426 9.12082 17.9902 9 17.4389 9C16.8496 9 16.3785 9.14002 16.0255 9.42005C15.6752 9.70009 15.5 10.0671 15.5 10.521H16.2536C16.2536 10.2048 16.3568 9.95867 16.5631 9.78252C16.7722 9.60411 17.0642 9.5149 17.4389 9.5149C17.7512 9.5149 18.001 9.59733 18.1884 9.7622C18.3758 9.92705 18.4695 10.1382 18.4695 10.3957C18.4695 10.5876 18.4111 10.7739 18.2943 10.9546C18.1803 11.133 17.9712 11.3656 17.667 11.6524L15.6141 13.5495V14ZM0 11.1703L1.18099 13.2288H4.85303C7.2394 13.2288 9.09369 13.9629 10.4159 15.431C11.7488 16.8991 12.4152 18.9894 12.4152 21.7023V23.0586C12.4152 25.6969 11.7864 27.7448 10.5288 29.2022C9.2818 30.6703 7.50814 31.415 5.20775 31.4363H3.26391L4 33.5L5.20227 33.5107C7.24467 33.5107 8.8465 33.0639 10.4159 32.1703C11.9853 31.2767 12.8424 30.2448 13.6916 28.5958C14.5516 26.9469 15.0213 24.9256 15.0321 22.7873V21.7023C15.0321 19.5108 14.5516 17.7342 13.6916 16.0852C12.8425 14.4363 12.0068 13.3937 10.4159 12.5107C8.8357 11.6278 7.31463 11.1916 5.20775 11.1703H0ZM28 30.1337C27.8555 31.369 27.3979 32.3235 26.6271 32.9973C25.8618 33.6658 24.8421 34 23.5683 34C22.1873 34 21.0794 33.5053 20.2444 32.516C19.4148 31.5267 19 30.2032 19 28.5454V27.4225C19 26.3369 19.1927 25.3823 19.5781 24.5588C19.9688 23.7353 20.5201 23.1043 21.2319 22.6658C21.9438 22.2219 22.7681 22 23.7047 22C24.9465 22 25.942 22.3476 26.6914 23.0428C27.4407 23.7326 27.877 24.6898 28 25.9144H26.4505C26.3167 24.984 26.025 24.3102 25.5754 23.893C25.1312 23.4759 24.5076 23.2674 23.7047 23.2674C22.7199 23.2674 21.9465 23.631 21.3845 24.3583C20.8278 25.0856 20.5495 26.1203 20.5495 27.4626V28.5935C20.5495 29.861 20.8145 30.869 21.3443 31.6176C21.8742 32.3663 22.6155 32.7406 23.5683 32.7406C24.4246 32.7406 25.0803 32.5481 25.5353 32.1631C25.9956 31.7727 26.3007 31.0963 26.4505 30.1337H28ZM49.7344 22.9375V40H54.6445C56.1836 40 57.5469 39.668 58.7344 39.0039C59.9297 38.3398 60.8477 37.3945 61.4883 36.168C62.1367 34.9414 62.4609 33.5195 62.4609 31.9023V31.0469C62.4609 29.4531 62.1406 28.0391 61.5 26.8047C60.8594 25.5703 59.9531 24.6172 58.7812 23.9453C57.6172 23.2734 56.2812 22.9375 54.7734 22.9375H49.7344ZM52.6992 37.6328V25.3281H54.7734C56.3047 25.3281 57.4727 25.8164 58.2773 26.793C59.082 27.7695 59.4844 29.1836 59.4844 31.0352V31.9844C59.4688 33.8047 59.043 35.2031 58.207 36.1797C57.3789 37.1484 56.1875 37.6328 54.6328 37.6328H52.6992ZM72.0989 32.3828H79.1067V30.0391H72.0989V25.3281H80.2083V22.9375H69.1341V40H80.2903V37.6328H72.0989V32.3828ZM94.5455 33.8711C95.0767 34.2773 95.3423 34.8555 95.3423 35.6055C95.3423 36.293 95.0806 36.8477 94.5572 37.2695C94.0416 37.6836 93.2681 37.8906 92.2369 37.8906C91.0416 37.8906 90.1236 37.625 89.483 37.0938C88.8423 36.5625 88.522 35.8125 88.522 34.8438H85.5572C85.5572 35.9141 85.8423 36.8516 86.4127 37.6562C86.9908 38.4609 87.7955 39.0938 88.8267 39.5547C89.8658 40.0078 91.0025 40.2344 92.2369 40.2344C94.1041 40.2344 95.5806 39.8164 96.6666 38.9805C97.7603 38.1367 98.3072 37.0039 98.3072 35.582C98.3072 34.707 98.1197 33.9453 97.7447 33.2969C97.3697 32.6406 96.7798 32.0625 95.9752 31.5625C95.1705 31.0547 94.1041 30.6055 92.7759 30.2148C91.4478 29.8164 90.4947 29.4102 89.9166 28.9961C89.3384 28.5742 89.0494 28.0508 89.0494 27.4258C89.0494 26.6836 89.315 26.1055 89.8463 25.6914C90.3853 25.2773 91.1392 25.0703 92.108 25.0703C93.147 25.0703 93.9439 25.3242 94.4986 25.832C95.0611 26.332 95.3423 27.0273 95.3423 27.918H98.2955C98.2955 26.9336 98.0298 26.0391 97.4986 25.2344C96.9673 24.4219 96.2369 23.7969 95.3072 23.3594C94.3775 22.9219 93.3189 22.7031 92.1314 22.7031C90.3423 22.7031 88.8853 23.1484 87.7603 24.0391C86.6431 24.9297 86.0845 26.0625 86.0845 27.4375C86.0845 29.0078 86.8619 30.2812 88.4166 31.2578C89.2291 31.7656 90.3228 32.2266 91.6978 32.6406C93.0728 33.0547 94.022 33.4648 94.5455 33.8711ZM104.805 40H107.758V22.9375H104.805V40ZM125.634 39.6133C126.728 39.1992 127.583 38.5898 128.2 37.7852V31.2461H121.732V33.4961H125.247V36.8359C124.607 37.5234 123.528 37.8672 122.013 37.8672C120.63 37.8672 119.548 37.3594 118.767 36.3438C117.993 35.3203 117.607 33.8867 117.607 32.043V30.7305C117.63 28.8789 117.985 27.4766 118.673 26.5234C119.368 25.5625 120.38 25.082 121.708 25.082C123.763 25.082 124.954 26.1094 125.282 28.1641H128.189C127.962 26.3984 127.29 25.0469 126.173 24.1094C125.056 23.1719 123.548 22.7031 121.65 22.7031C119.439 22.7031 117.716 23.4297 116.482 24.8828C115.247 26.3281 114.63 28.3398 114.63 30.918V32.2539C114.653 33.8633 114.962 35.2734 115.556 36.4844C116.157 37.6875 117.009 38.6133 118.11 39.2617C119.212 39.9102 120.478 40.2344 121.907 40.2344C123.298 40.2344 124.54 40.0273 125.634 39.6133ZM145.748 40H148.713V22.9375H145.772V35.0898L138.143 22.9375H135.178V40H138.143V27.8945L145.748 40ZM165.177 40H176.649V37.7266H168.728L172.899 33.2617C173.993 32.0742 174.778 31.0156 175.255 30.0859C175.739 29.1484 175.981 28.2539 175.981 27.4023C175.981 25.9336 175.501 24.7852 174.54 23.957C173.587 23.1211 172.282 22.7031 170.626 22.7031C169.478 22.7031 168.462 22.9336 167.579 23.3945C166.704 23.8555 166.028 24.5039 165.552 25.3398C165.083 26.168 164.849 27.1016 164.849 28.1406H167.696C167.696 27.1641 167.95 26.3945 168.458 25.832C168.966 25.2695 169.681 24.9883 170.603 24.9883C171.376 24.9883 171.989 25.2383 172.442 25.7383C172.903 26.2383 173.134 26.8945 173.134 27.707C173.134 28.3242 172.958 28.9414 172.606 29.5586C172.263 30.168 171.681 30.9297 170.86 31.8438L165.177 38.043V40ZM203.695 38.7109C204.867 37.6875 205.539 36.2656 205.71 34.4453H202.757C202.601 35.6641 202.23 36.5352 201.644 37.0586C201.058 37.582 200.183 37.8438 199.019 37.8438C197.746 37.8438 196.777 37.3594 196.113 36.3906C195.457 35.4219 195.128 34.0156 195.128 32.1719V30.6602C195.144 28.8398 195.496 27.4609 196.183 26.5234C196.878 25.5781 197.871 25.1055 199.16 25.1055C200.269 25.1055 201.109 25.3789 201.679 25.9258C202.257 26.4648 202.617 27.3477 202.757 28.5742H205.71C205.523 26.707 204.855 25.2617 203.707 24.2383C202.558 23.2148 201.042 22.7031 199.16 22.7031C197.761 22.7031 196.527 23.0352 195.457 23.6992C194.394 24.3633 193.578 25.3086 193.007 26.5352C192.437 27.7617 192.152 29.1797 192.152 30.7891V32.3828C192.175 33.9531 192.468 35.332 193.031 36.5195C193.593 37.707 194.39 38.625 195.421 39.2734C196.46 39.9141 197.66 40.2344 199.019 40.2344C200.964 40.2344 202.523 39.7266 203.695 38.7109ZM224.841 36.3203C225.419 35.0547 225.708 33.5859 225.708 31.9141V30.9648C225.7 29.3008 225.403 27.8438 224.817 26.5938C224.231 25.3359 223.399 24.375 222.321 23.7109C221.251 23.0391 220.02 22.7031 218.63 22.7031C217.239 22.7031 216.005 23.043 214.927 23.7227C213.856 24.3945 213.024 25.3672 212.43 26.6406C211.845 27.9141 211.552 29.3828 211.552 31.0469V32.0078C211.559 33.6406 211.856 35.082 212.442 36.332C213.036 37.582 213.872 38.5469 214.95 39.2266C216.036 39.8984 217.27 40.2344 218.653 40.2344C220.052 40.2344 221.286 39.8984 222.356 39.2266C223.434 38.5469 224.262 37.5781 224.841 36.3203ZM221.665 26.6758C222.384 27.6836 222.743 29.1328 222.743 31.0234V31.9141C222.743 33.8359 222.387 35.2969 221.677 36.2969C220.973 37.2969 219.966 37.7969 218.653 37.7969C217.356 37.7969 216.341 37.2852 215.606 36.2617C214.88 35.2383 214.516 33.7891 214.516 31.9141V30.9297C214.532 29.0938 214.899 27.6758 215.618 26.6758C216.345 25.668 217.348 25.1641 218.63 25.1641C219.942 25.1641 220.954 25.668 221.665 26.6758ZM240.502 33.8711C241.033 34.2773 241.299 34.8555 241.299 35.6055C241.299 36.293 241.037 36.8477 240.514 37.2695C239.998 37.6836 239.225 37.8906 238.193 37.8906C236.998 37.8906 236.08 37.625 235.44 37.0938C234.799 36.5625 234.479 35.8125 234.479 34.8438H231.514C231.514 35.9141 231.799 36.8516 232.369 37.6562C232.947 38.4609 233.752 39.0938 234.783 39.5547C235.822 40.0078 236.959 40.2344 238.193 40.2344C240.061 40.2344 241.537 39.8164 242.623 38.9805C243.717 38.1367 244.264 37.0039 244.264 35.582C244.264 34.707 244.076 33.9453 243.701 33.2969C243.326 32.6406 242.736 32.0625 241.932 31.5625C241.127 31.0547 240.061 30.6055 238.732 30.2148C237.404 29.8164 236.451 29.4102 235.873 28.9961C235.295 28.5742 235.006 28.0508 235.006 27.4258C235.006 26.6836 235.272 26.1055 235.803 25.6914C236.342 25.2773 237.096 25.0703 238.065 25.0703C239.104 25.0703 239.9 25.3242 240.455 25.832C241.018 26.332 241.299 27.0273 241.299 27.918H244.252C244.252 26.9336 243.986 26.0391 243.455 25.2344C242.924 24.4219 242.193 23.7969 241.264 23.3594C240.334 22.9219 239.275 22.7031 238.088 22.7031C236.299 22.7031 234.842 23.1484 233.717 24.0391C232.6 24.9297 232.041 26.0625 232.041 27.4375C232.041 29.0078 232.818 30.2812 234.373 31.2578C235.186 31.7656 236.279 32.2266 237.654 32.6406C239.029 33.0547 239.979 33.4648 240.502 33.8711ZM257.593 25.3281H262.913V22.9375H249.378V25.3281H254.652V40H257.593V25.3281ZM56.7948 11.5704C56.4445 10.5577 56.108 9.61863 55.7853 8.75322C55.4719 7.89692 55.163 7.08212 54.8588 6.30884C54.5546 5.53535 54.2504 4.79427 53.9462 4.08537C53.6512 3.38559 53.3469 2.69047 53.0335 2H51.7751C51.4617 2.69047 51.1528 3.38559 50.8486 4.08537C50.5536 4.79427 50.2494 5.53535 49.936 6.30884C49.6317 7.08212 49.3183 7.89692 48.9956 8.75322C48.673 9.61863 48.3411 10.5577 48 11.5704H49.4796C49.9774 10.1157 50.466 8.71637 50.9454 7.37208C51.4248 6.028 51.918 4.76673 52.425 3.58828C52.9321 4.75742 53.4253 6.01423 53.9047 7.35831C54.384 8.71171 54.868 10.1157 55.3566 11.5704H56.7948ZM129.956 8.75322C130.279 9.61863 130.615 10.5577 130.966 11.5704H129.528C129.039 10.1157 128.555 8.71171 128.076 7.35831C127.596 6.01423 127.103 4.75742 126.596 3.58828C126.089 4.76673 125.596 6.028 125.117 7.37208C124.637 8.71637 124.148 10.1157 123.651 11.5704H122.171C122.512 10.5577 122.844 9.61863 123.167 8.75322C123.489 7.89692 123.803 7.08212 124.107 6.30884C124.42 5.53535 124.725 4.79427 125.02 4.08537C125.324 3.38559 125.633 2.69047 125.946 2H127.205C127.518 2.69047 127.822 3.38559 128.117 4.08537C128.421 4.79427 128.726 5.53535 129.03 6.30884C129.334 7.08212 129.643 7.89692 129.956 8.75322ZM146.399 12.0001C145.772 12.0001 145.228 11.9035 144.767 11.7101C144.306 11.5168 143.928 11.2544 143.633 10.9229C143.338 10.5823 143.117 10.1818 142.969 9.72135C142.831 9.26111 142.762 8.76402 142.762 8.22986V2.2226H144.103V8.078C144.103 9.03554 144.315 9.73067 144.739 10.1634C145.163 10.5961 145.716 10.8125 146.399 10.8125C146.74 10.8125 147.049 10.7617 147.325 10.6605C147.611 10.5501 147.855 10.3843 148.058 10.1634C148.261 9.94247 148.417 9.66162 148.528 9.32084C148.639 8.97116 148.694 8.55687 148.694 8.078V2.2226H150.035V8.22986C150.035 8.76402 149.962 9.26111 149.814 9.72135C149.676 10.1818 149.455 10.5823 149.15 10.9229C148.855 11.2544 148.477 11.5168 148.017 11.7101C147.565 11.9035 147.025 12.0001 146.399 12.0001ZM74.4305 11.7929V10.6329H70.0055V2.22258H68.6641V11.7929H74.4305ZM92.0286 10.6329V11.7929H86.2622V2.22258H87.6038V10.6329H92.0286ZM105.813 11.8613C106.043 11.8704 106.255 11.8751 106.449 11.8751C107.979 11.8751 109.095 11.6358 109.795 11.1571C110.505 10.6691 110.86 9.94623 110.86 8.98869C110.86 8.33508 110.694 7.82867 110.362 7.46966C110.031 7.11066 109.583 6.84824 109.021 6.68261C109.436 6.51678 109.768 6.26833 110.017 5.93687C110.266 5.59609 110.39 5.16338 110.39 4.63855C110.39 4.16899 110.289 3.77313 110.086 3.45098C109.883 3.12883 109.602 2.87087 109.242 2.6775C108.892 2.47502 108.472 2.33226 107.984 2.24945C107.504 2.16663 106.988 2.12512 106.435 2.12512C106.242 2.12512 106.034 2.12978 105.813 2.13909C105.592 2.14821 105.366 2.16198 105.135 2.1804C104.914 2.19883 104.693 2.22191 104.471 2.24945C104.25 2.27719 104.047 2.31404 103.863 2.36V11.6404C104.047 11.6864 104.25 11.7232 104.471 11.7508C104.693 11.7785 104.914 11.8014 105.135 11.8198C105.366 11.8382 105.592 11.852 105.813 11.8613ZM105.191 10.7013V7.33157H106.919C107.306 7.33157 107.657 7.35931 107.97 7.41439C108.284 7.46966 108.551 7.56179 108.772 7.69057C109.003 7.81955 109.178 7.9945 109.297 8.21541C109.417 8.42721 109.477 8.68962 109.477 9.00266C109.477 9.35255 109.394 9.64251 109.228 9.87273C109.072 10.1028 108.859 10.2824 108.592 10.4113C108.325 10.5401 108.012 10.6322 107.652 10.6875C107.302 10.7335 106.928 10.7566 106.532 10.7566H105.965C105.808 10.7473 105.67 10.7381 105.55 10.7288C105.412 10.7197 105.292 10.7104 105.191 10.7013ZM106.601 6.25436H105.191V3.29912C105.347 3.28069 105.522 3.26692 105.716 3.25761C105.91 3.2485 106.177 3.24384 106.518 3.24384C106.859 3.24384 107.182 3.27138 107.486 3.32666C107.79 3.38194 108.053 3.46941 108.274 3.58908C108.505 3.69963 108.684 3.85149 108.814 4.04486C108.943 4.22892 109.007 4.45915 109.007 4.73533C109.007 5.02995 108.943 5.27394 108.814 5.46731C108.694 5.66048 108.523 5.817 108.302 5.93687C108.09 6.05654 107.836 6.13935 107.541 6.18531C107.247 6.23148 106.933 6.25436 106.601 6.25436Z" fill="#062633"/>
<path fill-rule="evenodd" clip-rule="evenodd" d="M23.7965 0.0501483C24.203 1.35392 24.6094 2.65769 25.0159 3.91132L32.7895 26.928L37.667 41.3698C37.6924 41.4701 37.7178 41.5578 37.7432 41.6456C37.7686 41.7333 37.794 41.8211 37.8194 41.9214C36.8541 42.0718 36.8541 42.0718 36.6 41.3196C31.9765 27.6801 27.353 14.0407 22.7296 0.351023C22.7041 0.300877 22.6914 0.238194 22.6787 0.175511C22.666 0.112828 22.6533 0.0501452 22.6279 0C23.0852 0.0501452 23.4408 0.0501483 23.7965 0.0501483ZM15.6141 14H19.5V13.4885H16.5224L18.111 12.0556C18.8551 11.3848 19.2271 10.8067 19.2271 10.3211C19.2271 9.92141 19.0669 9.60185 18.7464 9.36247C18.426 9.12082 17.9902 9 17.4389 9C16.8496 9 16.3785 9.14002 16.0255 9.42005C15.6752 9.70009 15.5 10.0671 15.5 10.521H16.2536C16.2536 10.2048 16.3568 9.95867 16.5631 9.78252C16.7722 9.60411 17.0642 9.5149 17.4389 9.5149C17.7512 9.5149 18.001 9.59733 18.1884 9.7622C18.3758 9.92705 18.4695 10.1382 18.4695 10.3957C18.4695 10.5876 18.4111 10.7739 18.2943 10.9546C18.1803 11.133 17.9712 11.3656 17.667 11.6524L15.6141 13.5495V14ZM0 11.1703L1.18099 13.2288H4.85303C7.2394 13.2288 9.09369 13.9629 10.4159 15.431C11.7488 16.8991 12.4152 18.9894 12.4152 21.7023V23.0586C12.4152 25.6969 11.7864 27.7448 10.5288 29.2022C9.2818 30.6703 7.50814 31.415 5.20775 31.4363H3.26391L4 33.5L5.20227 33.5107C7.24467 33.5107 8.8465 33.0639 10.4159 32.1703C11.9853 31.2767 12.8424 30.2448 13.6916 28.5958C14.5516 26.9469 15.0213 24.9256 15.0321 22.7873V21.7023C15.0321 19.5108 14.5516 17.7342 13.6916 16.0852C12.8425 14.4363 12.0068 13.3937 10.4159 12.5107C8.8357 11.6278 7.31463 11.1916 5.20775 11.1703H0ZM28 30.1337C27.8555 31.369 27.3979 32.3235 26.6271 32.9973C25.8618 33.6658 24.8421 34 23.5683 34C22.1873 34 21.0794 33.5053 20.2444 32.516C19.4148 31.5267 19 30.2032 19 28.5454V27.4225C19 26.3369 19.1927 25.3823 19.5781 24.5588C19.9688 23.7353 20.5201 23.1043 21.2319 22.6658C21.9438 22.2219 22.7681 22 23.7047 22C24.9465 22 25.942 22.3476 26.6914 23.0428C27.4407 23.7326 27.877 24.6898 28 25.9144H26.4505C26.3167 24.984 26.025 24.3102 25.5754 23.893C25.1312 23.4759 24.5076 23.2674 23.7047 23.2674C22.7199 23.2674 21.9465 23.631 21.3845 24.3583C20.8278 25.0856 20.5495 26.1203 20.5495 27.4626V28.5935C20.5495 29.861 20.8145 30.869 21.3443 31.6176C21.8742 32.3663 22.6155 32.7406 23.5683 32.7406C24.4246 32.7406 25.0803 32.5481 25.5353 32.1631C25.9956 31.7727 26.3007 31.0963 26.4505 30.1337H28ZM49.7344 22.9375V40H54.6445C56.1836 40 57.5469 39.668 58.7344 39.0039C59.9297 38.3398 60.8477 37.3945 61.4883 36.168C62.1367 34.9414 62.4609 33.5195 62.4609 31.9023V31.0469C62.4609 29.4531 62.1406 28.0391 61.5 26.8047C60.8594 25.5703 59.9531 24.6172 58.7812 23.9453C57.6172 23.2734 56.2812 22.9375 54.7734 22.9375H49.7344ZM52.6992 37.6328V25.3281H54.7734C56.3047 25.3281 57.4727 25.8164 58.2773 26.793C59.082 27.7695 59.4844 29.1836 59.4844 31.0352V31.9844C59.4688 33.8047 59.043 35.2031 58.207 36.1797C57.3789 37.1484 56.1875 37.6328 54.6328 37.6328H52.6992ZM72.0989 32.3828H79.1067V30.0391H72.0989V25.3281H80.2083V22.9375H69.1341V40H80.2903V37.6328H72.0989V32.3828ZM94.5455 33.8711C95.0767 34.2773 95.3423 34.8555 95.3423 35.6055C95.3423 36.293 95.0806 36.8477 94.5572 37.2695C94.0416 37.6836 93.2681 37.8906 92.2369 37.8906C91.0416 37.8906 90.1236 37.625 89.483 37.0938C88.8423 36.5625 88.522 35.8125 88.522 34.8438H85.5572C85.5572 35.9141 85.8423 36.8516 86.4127 37.6562C86.9908 38.4609 87.7955 39.0938 88.8267 39.5547C89.8658 40.0078 91.0025 40.2344 92.2369 40.2344C94.1041 40.2344 95.5806 39.8164 96.6666 38.9805C97.7603 38.1367 98.3072 37.0039 98.3072 35.582C98.3072 34.707 98.1197 33.9453 97.7447 33.2969C97.3697 32.6406 96.7798 32.0625 95.9752 31.5625C95.1705 31.0547 94.1041 30.6055 92.7759 30.2148C91.4478 29.8164 90.4947 29.4102 89.9166 28.9961C89.3384 28.5742 89.0494 28.0508 89.0494 27.4258C89.0494 26.6836 89.315 26.1055 89.8463 25.6914C90.3853 25.2773 91.1392 25.0703 92.108 25.0703C93.147 25.0703 93.9439 25.3242 94.4986 25.832C95.0611 26.332 95.3423 27.0273 95.3423 27.918H98.2955C98.2955 26.9336 98.0298 26.0391 97.4986 25.2344C96.9673 24.4219 96.2369 23.7969 95.3072 23.3594C94.3775 22.9219 93.3189 22.7031 92.1314 22.7031C90.3423 22.7031 88.8853 23.1484 87.7603 24.0391C86.6431 24.9297 86.0845 26.0625 86.0845 27.4375C86.0845 29.0078 86.8619 30.2812 88.4166 31.2578C89.2291 31.7656 90.3228 32.2266 91.6978 32.6406C93.0728 33.0547 94.022 33.4648 94.5455 33.8711ZM104.805 40H107.758V22.9375H104.805V40ZM125.634 39.6133C126.728 39.1992 127.583 38.5898 128.2 37.7852V31.2461H121.732V33.4961H125.247V36.8359C124.607 37.5234 123.528 37.8672 122.013 37.8672C120.63 37.8672 119.548 37.3594 118.767 36.3438C117.993 35.3203 117.607 33.8867 117.607 32.043V30.7305C117.63 28.8789 117.985 27.4766 118.673 26.5234C119.368 25.5625 120.38 25.082 121.708 25.082C123.763 25.082 124.954 26.1094 125.282 28.1641H128.189C127.962 26.3984 127.29 25.0469 126.173 24.1094C125.056 23.1719 123.548 22.7031 121.65 22.7031C119.439 22.7031 117.716 23.4297 116.482 24.8828C115.247 26.3281 114.63 28.3398 114.63 30.918V32.2539C114.653 33.8633 114.962 35.2734 115.556 36.4844C116.157 37.6875 117.009 38.6133 118.11 39.2617C119.212 39.9102 120.478 40.2344 121.907 40.2344C123.298 40.2344 124.54 40.0273 125.634 39.6133ZM145.748 40H148.713V22.9375H145.772V35.0898L138.143 22.9375H135.178V40H138.143V27.8945L145.748 40ZM165.177 40H176.649V37.7266H168.728L172.899 33.2617C173.993 32.0742 174.778 31.0156 175.255 30.0859C175.739 29.1484 175.981 28.2539 175.981 27.4023C175.981 25.9336 175.501 24.7852 174.54 23.957C173.587 23.1211 172.282 22.7031 170.626 22.7031C169.478 22.7031 168.462 22.9336 167.579 23.3945C166.704 23.8555 166.028 24.5039 165.552 25.3398C165.083 26.168 164.849 27.1016 164.849 28.1406H167.696C167.696 27.1641 167.95 26.3945 168.458 25.832C168.966 25.2695 169.681 24.9883 170.603 24.9883C171.376 24.9883 171.989 25.2383 172.442 25.7383C172.903 26.2383 173.134 26.8945 173.134 27.707C173.134 28.3242 172.958 28.9414 172.606 29.5586C172.263 30.168 171.681 30.9297 170.86 31.8438L165.177 38.043V40ZM203.695 38.7109C204.867 37.6875 205.539 36.2656 205.71 34.4453H202.757C202.601 35.6641 202.23 36.5352 201.644 37.0586C201.058 37.582 200.183 37.8438 199.019 37.8438C197.746 37.8438 196.777 37.3594 196.113 36.3906C195.457 35.4219 195.128 34.0156 195.128 32.1719V30.6602C195.144 28.8398 195.496 27.4609 196.183 26.5234C196.878 25.5781 197.871 25.1055 199.16 25.1055C200.269 25.1055 201.109 25.3789 201.679 25.9258C202.257 26.4648 202.617 27.3477 202.757 28.5742H205.71C205.523 26.707 204.855 25.2617 203.707 24.2383C202.558 23.2148 201.042 22.7031 199.16 22.7031C197.761 22.7031 196.527 23.0352 195.457 23.6992C194.394 24.3633 193.578 25.3086 193.007 26.5352C192.437 27.7617 192.152 29.1797 192.152 30.7891V32.3828C192.175 33.9531 192.468 35.332 193.031 36.5195C193.593 37.707 194.39 38.625 195.421 39.2734C196.46 39.9141 197.66 40.2344 199.019 40.2344C200.964 40.2344 202.523 39.7266 203.695 38.7109ZM224.841 36.3203C225.419 35.0547 225.708 33.5859 225.708 31.9141V30.9648C225.7 29.3008 225.403 27.8438 224.817 26.5938C224.231 25.3359 223.399 24.375 222.321 23.7109C221.251 23.0391 220.02 22.7031 218.63 22.7031C217.239 22.7031 216.005 23.043 214.927 23.7227C213.856 24.3945 213.024 25.3672 212.43 26.6406C211.845 27.9141 211.552 29.3828 211.552 31.0469V32.0078C211.559 33.6406 211.856 35.082 212.442 36.332C213.036 37.582 213.872 38.5469 214.95 39.2266C216.036 39.8984 217.27 40.2344 218.653 40.2344C220.052 40.2344 221.286 39.8984 222.356 39.2266C223.434 38.5469 224.262 37.5781 224.841 36.3203ZM221.665 26.6758C222.384 27.6836 222.743 29.1328 222.743 31.0234V31.9141C222.743 33.8359 222.387 35.2969 221.677 36.2969C220.973 37.2969 219.966 37.7969 218.653 37.7969C217.356 37.7969 216.341 37.2852 215.606 36.2617C214.88 35.2383 214.516 33.7891 214.516 31.9141V30.9297C214.532 29.0938 214.899 27.6758 215.618 26.6758C216.345 25.668 217.348 25.1641 218.63 25.1641C219.942 25.1641 220.954 25.668 221.665 26.6758ZM240.502 33.8711C241.033 34.2773 241.299 34.8555 241.299 35.6055C241.299 36.293 241.037 36.8477 240.514 37.2695C239.998 37.6836 239.225 37.8906 238.193 37.8906C236.998 37.8906 236.08 37.625 235.44 37.0938C234.799 36.5625 234.479 35.8125 234.479 34.8438H231.514C231.514 35.9141 231.799 36.8516 232.369 37.6562C232.947 38.4609 233.752 39.0938 234.783 39.5547C235.822 40.0078 236.959 40.2344 238.193 40.2344C240.061 40.2344 241.537 39.8164 242.623 38.9805C243.717 38.1367 244.264 37.0039 244.264 35.582C244.264 34.707 244.076 33.9453 243.701 33.2969C243.326 32.6406 242.736 32.0625 241.932 31.5625C241.127 31.0547 240.061 30.6055 238.732 30.2148C237.404 29.8164 236.451 29.4102 235.873 28.9961C235.295 28.5742 235.006 28.0508 235.006 27.4258C235.006 26.6836 235.272 26.1055 235.803 25.6914C236.342 25.2773 237.096 25.0703 238.065 25.0703C239.104 25.0703 239.9 25.3242 240.455 25.832C241.018 26.332 241.299 27.0273 241.299 27.918H244.252C244.252 26.9336 243.986 26.0391 243.455 25.2344C242.924 24.4219 242.193 23.7969 241.264 23.3594C240.334 22.9219 239.275 22.7031 238.088 22.7031C236.299 22.7031 234.842 23.1484 233.717 24.0391C232.6 24.9297 232.041 26.0625 232.041 27.4375C232.041 29.0078 232.818 30.2812 234.373 31.2578C235.186 31.7656 236.279 32.2266 237.654 32.6406C239.029 33.0547 239.979 33.4648 240.502 33.8711ZM257.593 25.3281H262.913V22.9375H249.378V25.3281H254.652V40H257.593V25.3281ZM56.7948 11.5704C56.4445 10.5577 56.108 9.61863 55.7853 8.75322C55.4719 7.89692 55.163 7.08212 54.8588 6.30884C54.5546 5.53535 54.2504 4.79427 53.9462 4.08537C53.6512 3.38559 53.3469 2.69047 53.0335 2H51.7751C51.4617 2.69047 51.1528 3.38559 50.8486 4.08537C50.5536 4.79427 50.2494 5.53535 49.936 6.30884C49.6317 7.08212 49.3183 7.89692 48.9956 8.75322C48.673 9.61863 48.3411 10.5577 48 11.5704H49.4796C49.9774 10.1157 50.466 8.71637 50.9454 7.37208C51.4248 6.028 51.918 4.76673 52.425 3.58828C52.9321 4.75742 53.4253 6.01423 53.9047 7.35831C54.384 8.71171 54.868 10.1157 55.3566 11.5704H56.7948ZM129.956 8.75322C130.279 9.61863 130.615 10.5577 130.966 11.5704H129.528C129.039 10.1157 128.555 8.71171 128.076 7.35831C127.596 6.01423 127.103 4.75742 126.596 3.58828C126.089 4.76673 125.596 6.028 125.117 7.37208C124.637 8.71637 124.148 10.1157 123.651 11.5704H122.171C122.512 10.5577 122.844 9.61863 123.167 8.75322C123.489 7.89692 123.803 7.08212 124.107 6.30884C124.42 5.53535 124.725 4.79427 125.02 4.08537C125.324 3.38559 125.633 2.69047 125.946 2H127.205C127.518 2.69047 127.822 3.38559 128.117 4.08537C128.421 4.79427 128.726 5.53535 129.03 6.30884C129.334 7.08212 129.643 7.89692 129.956 8.75322ZM146.399 12.0001C145.772 12.0001 145.228 11.9035 144.767 11.7101C144.306 11.5168 143.928 11.2544 143.633 10.9229C143.338 10.5823 143.117 10.1818 142.969 9.72135C142.831 9.26111 142.762 8.76402 142.762 8.22986V2.2226H144.103V8.078C144.103 9.03554 144.315 9.73067 144.739 10.1634C145.163 10.5961 145.716 10.8125 146.399 10.8125C146.74 10.8125 147.049 10.7617 147.325 10.6605C147.611 10.5501 147.855 10.3843 148.058 10.1634C148.261 9.94247 148.417 9.66162 148.528 9.32084C148.639 8.97116 148.694 8.55687 148.694 8.078V2.2226H150.035V8.22986C150.035 8.76402 149.962 9.26111 149.814 9.72135C149.676 10.1818 149.455 10.5823 149.15 10.9229C148.855 11.2544 148.477 11.5168 148.017 11.7101C147.565 11.9035 147.025 12.0001 146.399 12.0001ZM74.4305 11.7929V10.6329H70.0055V2.22258H68.6641V11.7929H74.4305ZM92.0286 10.6329V11.7929H86.2622V2.22258H87.6038V10.6329H92.0286ZM105.813 11.8613C106.043 11.8704 106.255 11.8751 106.449 11.8751C107.979 11.8751 109.095 11.6358 109.795 11.1571C110.505 10.6691 110.86 9.94623 110.86 8.98869C110.86 8.33508 110.694 7.82867 110.362 7.46966C110.031 7.11066 109.583 6.84824 109.021 6.68261C109.436 6.51678 109.768 6.26833 110.017 5.93687C110.266 5.59609 110.39 5.16338 110.39 4.63855C110.39 4.16899 110.289 3.77313 110.086 3.45098C109.883 3.12883 109.602 2.87087 109.242 2.6775C108.892 2.47502 108.472 2.33226 107.984 2.24945C107.504 2.16663 106.988 2.12512 106.435 2.12512C106.242 2.12512 106.034 2.12978 105.813 2.13909C105.592 2.14821 105.366 2.16198 105.135 2.1804C104.914 2.19883 104.693 2.22191 104.471 2.24945C104.25 2.27719 104.047 2.31404 103.863 2.36V11.6404C104.047 11.6864 104.25 11.7232 104.471 11.7508C104.693 11.7785 104.914 11.8014 105.135 11.8198C105.366 11.8382 105.592 11.852 105.813 11.8613ZM105.191 10.7013V7.33157H106.919C107.306 7.33157 107.657 7.35931 107.97 7.41439C108.284 7.46966 108.551 7.56179 108.772 7.69057C109.003 7.81955 109.178 7.9945 109.297 8.21541C109.417 8.42721 109.477 8.68962 109.477 9.00266C109.477 9.35255 109.394 9.64251 109.228 9.87273C109.072 10.1028 108.859 10.2824 108.592 10.4113C108.325 10.5401 108.012 10.6322 107.652 10.6875C107.302 10.7335 106.928 10.7566 106.532 10.7566H105.965C105.808 10.7473 105.67 10.7381 105.55 10.7288C105.412 10.7197 105.292 10.7104 105.191 10.7013ZM106.601 6.25436H105.191V3.29912C105.347 3.28069 105.522 3.26692 105.716 3.25761C105.91 3.2485 106.177 3.24384 106.518 3.24384C106.859 3.24384 107.182 3.27138 107.486 3.32666C107.79 3.38194 108.053 3.46941 108.274 3.58908C108.505 3.69963 108.684 3.85149 108.814 4.04486C108.943 4.22892 109.007 4.45915 109.007 4.73533C109.007 5.02995 108.943 5.27394 108.814 5.46731C108.694 5.66048 108.523 5.817 108.302 5.93687C108.09 6.05654 107.836 6.13935 107.541 6.18531C107.247 6.23148 106.933 6.25436 106.601 6.25436Z" fill="#226180"/>
<path fill-rule="evenodd" clip-rule="evenodd" d="M23.7965 0.0501483C24.203 1.35392 24.6094 2.65769 25.0159 3.91132L32.7895 26.928L37.667 41.3698C37.6924 41.4701 37.7178 41.5578 37.7432 41.6456C37.7686 41.7333 37.794 41.8211 37.8194 41.9214C36.8541 42.0718 36.8541 42.0718 36.6 41.3196C31.9765 27.6801 27.353 14.0407 22.7296 0.351023C22.7041 0.300877 22.6914 0.238194 22.6787 0.175511C22.666 0.112828 22.6533 0.0501452 22.6279 0C23.0852 0.0501452 23.4408 0.0501483 23.7965 0.0501483ZM15.6141 14H19.5V13.4885H16.5224L18.111 12.0556C18.8551 11.3848 19.2271 10.8067 19.2271 10.3211C19.2271 9.92141 19.0669 9.60185 18.7464 9.36247C18.426 9.12082 17.9902 9 17.4389 9C16.8496 9 16.3785 9.14002 16.0255 9.42005C15.6752 9.70009 15.5 10.0671 15.5 10.521H16.2536C16.2536 10.2048 16.3568 9.95867 16.5631 9.78252C16.7722 9.60411 17.0642 9.5149 17.4389 9.5149C17.7512 9.5149 18.001 9.59733 18.1884 9.7622C18.3758 9.92705 18.4695 10.1382 18.4695 10.3957C18.4695 10.5876 18.4111 10.7739 18.2943 10.9546C18.1803 11.133 17.9712 11.3656 17.667 11.6524L15.6141 13.5495V14ZM0 11.1703L1.18099 13.2288H4.85303C7.2394 13.2288 9.09369 13.9629 10.4159 15.431C11.7488 16.8991 12.4152 18.9894 12.4152 21.7023V23.0586C12.4152 25.6969 11.7864 27.7448 10.5288 29.2022C9.2818 30.6703 7.50814 31.415 5.20775 31.4363H3.26391L4 33.5L5.20227 33.5107C7.24467 33.5107 8.8465 33.0639 10.4159 32.1703C11.9853 31.2767 12.8424 30.2448 13.6916 28.5958C14.5516 26.9469 15.0213 24.9256 15.0321 22.7873V21.7023C15.0321 19.5108 14.5516 17.7342 13.6916 16.0852C12.8425 14.4363 12.0068 13.3937 10.4159 12.5107C8.8357 11.6278 7.31463 11.1916 5.20775 11.1703H0ZM28 30.1337C27.8555 31.369 27.3979 32.3235 26.6271 32.9973C25.8618 33.6658 24.8421 34 23.5683 34C22.1873 34 21.0794 33.5053 20.2444 32.516C19.4148 31.5267 19 30.2032 19 28.5454V27.4225C19 26.3369 19.1927 25.3823 19.5781 24.5588C19.9688 23.7353 20.5201 23.1043 21.2319 22.6658C21.9438 22.2219 22.7681 22 23.7047 22C24.9465 22 25.942 22.3476 26.6914 23.0428C27.4407 23.7326 27.877 24.6898 28 25.9144H26.4505C26.3167 24.984 26.025 24.3102 25.5754 23.893C25.1312 23.4759 24.5076 23.2674 23.7047 23.2674C22.7199 23.2674 21.9465 23.631 21.3845 24.3583C20.8278 25.0856 20.5495 26.1203 20.5495 27.4626V28.5935C20.5495 29.861 20.8145 30.869 21.3443 31.6176C21.8742 32.3663 22.6155 32.7406 23.5683 32.7406C24.4246 32.7406 25.0803 32.5481 25.5353 32.1631C25.9956 31.7727 26.3007 31.0963 26.4505 30.1337H28ZM49.7344 22.9375V40H54.6445C56.1836 40 57.5469 39.668 58.7344 39.0039C59.9297 38.3398 60.8477 37.3945 61.4883 36.168C62.1367 34.9414 62.4609 33.5195 62.4609 31.9023V31.0469C62.4609 29.4531 62.1406 28.0391 61.5 26.8047C60.8594 25.5703 59.9531 24.6172 58.7812 23.9453C57.6172 23.2734 56.2812 22.9375 54.7734 22.9375H49.7344ZM52.6992 37.6328V25.3281H54.7734C56.3047 25.3281 57.4727 25.8164 58.2773 26.793C59.082 27.7695 59.4844 29.1836 59.4844 31.0352V31.9844C59.4688 33.8047 59.043 35.2031 58.207 36.1797C57.3789 37.1484 56.1875 37.6328 54.6328 37.6328H52.6992ZM72.0989 32.3828H79.1067V30.0391H72.0989V25.3281H80.2083V22.9375H69.1341V40H80.2903V37.6328H72.0989V32.3828ZM94.5455 33.8711C95.0767 34.2773 95.3423 34.8555 95.3423 35.6055C95.3423 36.293 95.0806 36.8477 94.5572 37.2695C94.0416 37.6836 93.2681 37.8906 92.2369 37.8906C91.0416 37.8906 90.1236 37.625 89.483 37.0938C88.8423 36.5625 88.522 35.8125 88.522 34.8438H85.5572C85.5572 35.9141 85.8423 36.8516 86.4127 37.6562C86.9908 38.4609 87.7955 39.0938 88.8267 39.5547C89.8658 40.0078 91.0025 40.2344 92.2369 40.2344C94.1041 40.2344 95.5806 39.8164 96.6666 38.9805C97.7603 38.1367 98.3072 37.0039 98.3072 35.582C98.3072 34.707 98.1197 33.9453 97.7447 33.2969C97.3697 32.6406 96.7798 32.0625 95.9752 31.5625C95.1705 31.0547 94.1041 30.6055 92.7759 30.2148C91.4478 29.8164 90.4947 29.4102 89.9166 28.9961C89.3384 28.5742 89.0494 28.0508 89.0494 27.4258C89.0494 26.6836 89.315 26.1055 89.8463 25.6914C90.3853 25.2773 91.1392 25.0703 92.108 25.0703C93.147 25.0703 93.9439 25.3242 94.4986 25.832C95.0611 26.332 95.3423 27.0273 95.3423 27.918H98.2955C98.2955 26.9336 98.0298 26.0391 97.4986 25.2344C96.9673 24.4219 96.2369 23.7969 95.3072 23.3594C94.3775 22.9219 93.3189 22.7031 92.1314 22.7031C90.3423 22.7031 88.8853 23.1484 87.7603 24.0391C86.6431 24.9297 86.0845 26.0625 86.0845 27.4375C86.0845 29.0078 86.8619 30.2812 88.4166 31.2578C89.2291 31.7656 90.3228 32.2266 91.6978 32.6406C93.0728 33.0547 94.022 33.4648 94.5455 33.8711ZM104.805 40H107.758V22.9375H104.805V40ZM125.634 39.6133C126.728 39.1992 127.583 38.5898 128.2 37.7852V31.2461H121.732V33.4961H125.247V36.8359C124.607 37.5234 123.528 37.8672 122.013 37.8672C120.63 37.8672 119.548 37.3594 118.767 36.3438C117.993 35.3203 117.607 33.8867 117.607 32.043V30.7305C117.63 28.8789 117.985 27.4766 118.673 26.5234C119.368 25.5625 120.38 25.082 121.708 25.082C123.763 25.082 124.954 26.1094 125.282 28.1641H128.189C127.962 26.3984 127.29 25.0469 126.173 24.1094C125.056 23.1719 123.548 22.7031 121.65 22.7031C119.439 22.7031 117.716 23.4297 116.482 24.8828C115.247 26.3281 114.63 28.3398 114.63 30.918V32.2539C114.653 33.8633 114.962 35.2734 115.556 36.4844C116.157 37.6875 117.009 38.6133 118.11 39.2617C119.212 39.9102 120.478 40.2344 121.907 40.2344C123.298 40.2344 124.54 40.0273 125.634 39.6133ZM145.748 40H148.713V22.9375H145.772V35.0898L138.143 22.9375H135.178V40H138.143V27.8945L145.748 40ZM165.177 40H176.649V37.7266H168.728L172.899 33.2617C173.993 32.0742 174.778 31.0156 175.255 30.0859C175.739 29.1484 175.981 28.2539 175.981 27.4023C175.981 25.9336 175.501 24.7852 174.54 23.957C173.587 23.1211 172.282 22.7031 170.626 22.7031C169.478 22.7031 168.462 22.9336 167.579 23.3945C166.704 23.8555 166.028 24.5039 165.552 25.3398C165.083 26.168 164.849 27.1016 164.849 28.1406H167.696C167.696 27.1641 167.95 26.3945 168.458 25.832C168.966 25.2695 169.681 24.9883 170.603 24.9883C171.376 24.9883 171.989 25.2383 172.442 25.7383C172.903 26.2383 173.134 26.8945 173.134 27.707C173.134 28.3242 172.958 28.9414 172.606 29.5586C172.263 30.168 171.681 30.9297 170.86 31.8438L165.177 38.043V40ZM203.695 38.7109C204.867 37.6875 205.539 36.2656 205.71 34.4453H202.757C202.601 35.6641 202.23 36.5352 201.644 37.0586C201.058 37.582 200.183 37.8438 199.019 37.8438C197.746 37.8438 196.777 37.3594 196.113 36.3906C195.457 35.4219 195.128 34.0156 195.128 32.1719V30.6602C195.144 28.8398 195.496 27.4609 196.183 26.5234C196.878 25.5781 197.871 25.1055 199.16 25.1055C200.269 25.1055 201.109 25.3789 201.679 25.9258C202.257 26.4648 202.617 27.3477 202.757 28.5742H205.71C205.523 26.707 204.855 25.2617 203.707 24.2383C202.558 23.2148 201.042 22.7031 199.16 22.7031C197.761 22.7031 196.527 23.0352 195.457 23.6992C194.394 24.3633 193.578 25.3086 193.007 26.5352C192.437 27.7617 192.152 29.1797 192.152 30.7891V32.3828C192.175 33.9531 192.468 35.332 193.031 36.5195C193.593 37.707 194.39 38.625 195.421 39.2734C196.46 39.9141 197.66 40.2344 199.019 40.2344C200.964 40.2344 202.523 39.7266 203.695 38.7109ZM224.841 36.3203C225.419 35.0547 225.708 33.5859 225.708 31.9141V30.9648C225.7 29.3008 225.403 27.8438 224.817 26.5938C224.231 25.3359 223.399 24.375 222.321 23.7109C221.251 23.0391 220.02 22.7031 218.63 22.7031C217.239 22.7031 216.005 23.043 214.927 23.7227C213.856 24.3945 213.024 25.3672 212.43 26.6406C211.845 27.9141 211.552 29.3828 211.552 31.0469V32.0078C211.559 33.6406 211.856 35.082 212.442 36.332C213.036 37.582 213.872 38.5469 214.95 39.2266C216.036 39.8984 217.27 40.2344 218.653 40.2344C220.052 40.2344 221.286 39.8984 222.356 39.2266C223.434 38.5469 224.262 37.5781 224.841 36.3203ZM221.665 26.6758C222.384 27.6836 222.743 29.1328 222.743 31.0234V31.9141C222.743 33.8359 222.387 35.2969 221.677 36.2969C220.973 37.2969 219.966 37.7969 218.653 37.7969C217.356 37.7969 216.341 37.2852 215.606 36.2617C214.88 35.2383 214.516 33.7891 214.516 31.9141V30.9297C214.532 29.0938 214.899 27.6758 215.618 26.6758C216.345 25.668 217.348 25.1641 218.63 25.1641C219.942 25.1641 220.954 25.668 221.665 26.6758ZM240.502 33.8711C241.033 34.2773 241.299 34.8555 241.299 35.6055C241.299 36.293 241.037 36.8477 240.514 37.2695C239.998 37.6836 239.225 37.8906 238.193 37.8906C236.998 37.8906 236.08 37.625 235.44 37.0938C234.799 36.5625 234.479 35.8125 234.479 34.8438H231.514C231.514 35.9141 231.799 36.8516 232.369 37.6562C232.947 38.4609 233.752 39.0938 234.783 39.5547C235.822 40.0078 236.959 40.2344 238.193 40.2344C240.061 40.2344 241.537 39.8164 242.623 38.9805C243.717 38.1367 244.264 37.0039 244.264 35.582C244.264 34.707 244.076 33.9453 243.701 33.2969C243.326 32.6406 242.736 32.0625 241.932 31.5625C241.127 31.0547 240.061 30.6055 238.732 30.2148C237.404 29.8164 236.451 29.4102 235.873 28.9961C235.295 28.5742 235.006 28.0508 235.006 27.4258C235.006 26.6836 235.272 26.1055 235.803 25.6914C236.342 25.2773 237.096 25.0703 238.065 25.0703C239.104 25.0703 239.9 25.3242 240.455 25.832C241.018 26.332 241.299 27.0273 241.299 27.918H244.252C244.252 26.9336 243.986 26.0391 243.455 25.2344C242.924 24.4219 242.193 23.7969 241.264 23.3594C240.334 22.9219 239.275 22.7031 238.088 22.7031C236.299 22.7031 234.842 23.1484 233.717 24.0391C232.6 24.9297 232.041 26.0625 232.041 27.4375C232.041 29.0078 232.818 30.2812 234.373 31.2578C235.186 31.7656 236.279 32.2266 237.654 32.6406C239.029 33.0547 239.979 33.4648 240.502 33.8711ZM257.593 25.3281H262.913V22.9375H249.378V25.3281H254.652V40H257.593V25.3281ZM56.7948 11.5704C56.4445 10.5577 56.108 9.61863 55.7853 8.75322C55.4719 7.89692 55.163 7.08212 54.8588 6.30884C54.5546 5.53535 54.2504 4.79427 53.9462 4.08537C53.6512 3.38559 53.3469 2.69047 53.0335 2H51.7751C51.4617 2.69047 51.1528 3.38559 50.8486 4.08537C50.5536 4.79427 50.2494 5.53535 49.936 6.30884C49.6317 7.08212 49.3183 7.89692 48.9956 8.75322C48.673 9.61863 48.3411 10.5577 48 11.5704H49.4796C49.9774 10.1157 50.466 8.71637 50.9454 7.37208C51.4248 6.028 51.918 4.76673 52.425 3.58828C52.9321 4.75742 53.4253 6.01423 53.9047 7.35831C54.384 8.71171 54.868 10.1157 55.3566 11.5704H56.7948ZM129.956 8.75322C130.279 9.61863 130.615 10.5577 130.966 11.5704H129.528C129.039 10.1157 128.555 8.71171 128.076 7.35831C127.596 6.01423 127.103 4.75742 126.596 3.58828C126.089 4.76673 125.596 6.028 125.117 7.37208C124.637 8.71637 124.148 10.1157 123.651 11.5704H122.171C122.512 10.5577 122.844 9.61863 123.167 8.75322C123.489 7.89692 123.803 7.08212 124.107 6.30884C124.42 5.53535 124.725 4.79427 125.02 4.08537C125.324 3.38559 125.633 2.69047 125.946 2H127.205C127.518 2.69047 127.822 3.38559 128.117 4.08537C128.421 4.79427 128.726 5.53535 129.03 6.30884C129.334 7.08212 129.643 7.89692 129.956 8.75322ZM146.399 12.0001C145.772 12.0001 145.228 11.9035 144.767 11.7101C144.306 11.5168 143.928 11.2544 143.633 10.9229C143.338 10.5823 143.117 10.1818 142.969 9.72135C142.831 9.26111 142.762 8.76402 142.762 8.22986V2.2226H144.103V8.078C144.103 9.03554 144.315 9.73067 144.739 10.1634C145.163 10.5961 145.716 10.8125 146.399 10.8125C146.74 10.8125 147.049 10.7617 147.325 10.6605C147.611 10.5501 147.855 10.3843 148.058 10.1634C148.261 9.94247 148.417 9.66162 148.528 9.32084C148.639 8.97116 148.694 8.55687 148.694 8.078V2.2226H150.035V8.22986C150.035 8.76402 149.962 9.26111 149.814 9.72135C149.676 10.1818 149.455 10.5823 149.15 10.9229C148.855 11.2544 148.477 11.5168 148.017 11.7101C147.565 11.9035 147.025 12.0001 146.399 12.0001ZM74.4305 11.7929V10.6329H70.0055V2.22258H68.6641V11.7929H74.4305ZM92.0286 10.6329V11.7929H86.2622V2.22258H87.6038V10.6329H92.0286ZM105.813 11.8613C106.043 11.8704 106.255 11.8751 106.449 11.8751C107.979 11.8751 109.095 11.6358 109.795 11.1571C110.505 10.6691 110.86 9.94623 110.86 8.98869C110.86 8.33508 110.694 7.82867 110.362 7.46966C110.031 7.11066 109.583 6.84824 109.021 6.68261C109.436 6.51678 109.768 6.26833 110.017 5.93687C110.266 5.59609 110.39 5.16338 110.39 4.63855C110.39 4.16899 110.289 3.77313 110.086 3.45098C109.883 3.12883 109.602 2.87087 109.242 2.6775C108.892 2.47502 108.472 2.33226 107.984 2.24945C107.504 2.16663 106.988 2.12512 106.435 2.12512C106.242 2.12512 106.034 2.12978 105.813 2.13909C105.592 2.14821 105.366 2.16198 105.135 2.1804C104.914 2.19883 104.693 2.22191 104.471 2.24945C104.25 2.27719 104.047 2.31404 103.863 2.36V11.6404C104.047 11.6864 104.25 11.7232 104.471 11.7508C104.693 11.7785 104.914 11.8014 105.135 11.8198C105.366 11.8382 105.592 11.852 105.813 11.8613ZM105.191 10.7013V7.33157H106.919C107.306 7.33157 107.657 7.35931 107.97 7.41439C108.284 7.46966 108.551 7.56179 108.772 7.69057C109.003 7.81955 109.178 7.9945 109.297 8.21541C109.417 8.42721 109.477 8.68962 109.477 9.00266C109.477 9.35255 109.394 9.64251 109.228 9.87273C109.072 10.1028 108.859 10.2824 108.592 10.4113C108.325 10.5401 108.012 10.6322 107.652 10.6875C107.302 10.7335 106.928 10.7566 106.532 10.7566H105.965C105.808 10.7473 105.67 10.7381 105.55 10.7288C105.412 10.7197 105.292 10.7104 105.191 10.7013ZM106.601 6.25436H105.191V3.29912C105.347 3.28069 105.522 3.26692 105.716 3.25761C105.91 3.2485 106.177 3.24384 106.518 3.24384C106.859 3.24384 107.182 3.27138 107.486 3.32666C107.79 3.38194 108.053 3.46941 108.274 3.58908C108.505 3.69963 108.684 3.85149 108.814 4.04486C108.943 4.22892 109.007 4.45915 109.007 4.73533C109.007 5.02995 108.943 5.27394 108.814 5.46731C108.694 5.66048 108.523 5.817 108.302 5.93687C108.09 6.05654 107.836 6.13935 107.541 6.18531C107.247 6.23148 106.933 6.25436 106.601 6.25436Z" fill="#FF0000"/>
<path fill-rule="evenodd" clip-rule="evenodd" d="M23.7965 0.0501483C24.203 1.35392 24.6094 2.65769 25.0159 3.91132L32.7895 26.928L37.667 41.3698C37.6924 41.4701 37.7178 41.5578 37.7432 41.6456C37.7686 41.7333 37.794 41.8211 37.8194 41.9214C36.8541 42.0718 36.8541 42.0718 36.6 41.3196C31.9765 27.6801 27.353 14.0407 22.7296 0.351023C22.7041 0.300877 22.6914 0.238194 22.6787 0.175511C22.666 0.112828 22.6533 0.0501452 22.6279 0C23.0852 0.0501452 23.4408 0.0501483 23.7965 0.0501483ZM15.6141 14H19.5V13.4885H16.5224L18.111 12.0556C18.8551 11.3848 19.2271 10.8067 19.2271 10.3211C19.2271 9.92141 19.0669 9.60185 18.7464 9.36247C18.426 9.12082 17.9902 9 17.4389 9C16.8496 9 16.3785 9.14002 16.0255 9.42005C15.6752 9.70009 15.5 10.0671 15.5 10.521H16.2536C16.2536 10.2048 16.3568 9.95867 16.5631 9.78252C16.7722 9.60411 17.0642 9.5149 17.4389 9.5149C17.7512 9.5149 18.001 9.59733 18.1884 9.7622C18.3758 9.92705 18.4695 10.1382 18.4695 10.3957C18.4695 10.5876 18.4111 10.7739 18.2943 10.9546C18.1803 11.133 17.9712 11.3656 17.667 11.6524L15.6141 13.5495V14ZM0 11.1703L1.18099 13.2288H4.85303C7.2394 13.2288 9.09369 13.9629 10.4159 15.431C11.7488 16.8991 12.4152 18.9894 12.4152 21.7023V23.0586C12.4152 25.6969 11.7864 27.7448 10.5288 29.2022C9.2818 30.6703 7.50814 31.415 5.20775 31.4363H3.26391L4 33.5L5.20227 33.5107C7.24467 33.5107 8.8465 33.0639 10.4159 32.1703C11.9853 31.2767 12.8424 30.2448 13.6916 28.5958C14.5516 26.9469 15.0213 24.9256 15.0321 22.7873V21.7023C15.0321 19.5108 14.5516 17.7342 13.6916 16.0852C12.8425 14.4363 12.0068 13.3937 10.4159 12.5107C8.8357 11.6278 7.31463 11.1916 5.20775 11.1703H0ZM28 30.1337C27.8555 31.369 27.3979 32.3235 26.6271 32.9973C25.8618 33.6658 24.8421 34 23.5683 34C22.1873 34 21.0794 33.5053 20.2444 32.516C19.4148 31.5267 19 30.2032 19 28.5454V27.4225C19 26.3369 19.1927 25.3823 19.5781 24.5588C19.9688 23.7353 20.5201 23.1043 21.2319 22.6658C21.9438 22.2219 22.7681 22 23.7047 22C24.9465 22 25.942 22.3476 26.6914 23.0428C27.4407 23.7326 27.877 24.6898 28 25.9144H26.4505C26.3167 24.984 26.025 24.3102 25.5754 23.893C25.1312 23.4759 24.5076 23.2674 23.7047 23.2674C22.7199 23.2674 21.9465 23.631 21.3845 24.3583C20.8278 25.0856 20.5495 26.1203 20.5495 27.4626V28.5935C20.5495 29.861 20.8145 30.869 21.3443 31.6176C21.8742 32.3663 22.6155 32.7406 23.5683 32.7406C24.4246 32.7406 25.0803 32.5481 25.5353 32.1631C25.9956 31.7727 26.3007 31.0963 26.4505 30.1337H28ZM49.7344 22.9375V40H54.6445C56.1836 40 57.5469 39.668 58.7344 39.0039C59.9297 38.3398 60.8477 37.3945 61.4883 36.168C62.1367 34.9414 62.4609 33.5195 62.4609 31.9023V31.0469C62.4609 29.4531 62.1406 28.0391 61.5 26.8047C60.8594 25.5703 59.9531 24.6172 58.7812 23.9453C57.6172 23.2734 56.2812 22.9375 54.7734 22.9375H49.7344ZM52.6992 37.6328V25.3281H54.7734C56.3047 25.3281 57.4727 25.8164 58.2773 26.793C59.082 27.7695 59.4844 29.1836 59.4844 31.0352V31.9844C59.4688 33.8047 59.043 35.2031 58.207 36.1797C57.3789 37.1484 56.1875 37.6328 54.6328 37.6328H52.6992ZM72.0989 32.3828H79.1067V30.0391H72.0989V25.3281H80.2083V22.9375H69.1341V40H80.2903V37.6328H72.0989V32.3828ZM94.5455 33.8711C95.0767 34.2773 95.3423 34.8555 95.3423 35.6055C95.3423 36.293 95.0806 36.8477 94.5572 37.2695C94.0416 37.6836 93.2681 37.8906 92.2369 37.8906C91.0416 37.8906 90.1236 37.625 89.483 37.0938C88.8423 36.5625 88.522 35.8125 88.522 34.8438H85.5572C85.5572 35.9141 85.8423 36.8516 86.4127 37.6562C86.9908 38.4609 87.7955 39.0938 88.8267 39.5547C89.8658 40.0078 91.0025 40.2344 92.2369 40.2344C94.1041 40.2344 95.5806 39.8164 96.6666 38.9805C97.7603 38.1367 98.3072 37.0039 98.3072 35.582C98.3072 34.707 98.1197 33.9453 97.7447 33.2969C97.3697 32.6406 96.7798 32.0625 95.9752 31.5625C95.1705 31.0547 94.1041 30.6055 92.7759 30.2148C91.4478 29.8164 90.4947 29.4102 89.9166 28.9961C89.3384 28.5742 89.0494 28.0508 89.0494 27.4258C89.0494 26.6836 89.315 26.1055 89.8463 25.6914C90.3853 25.2773 91.1392 25.0703 92.108 25.0703C93.147 25.0703 93.9439 25.3242 94.4986 25.832C95.0611 26.332 95.3423 27.0273 95.3423 27.918H98.2955C98.2955 26.9336 98.0298 26.0391 97.4986 25.2344C96.9673 24.4219 96.2369 23.7969 95.3072 23.3594C94.3775 22.9219 93.3189 22.7031 92.1314 22.7031C90.3423 22.7031 88.8853 23.1484 87.7603 24.0391C86.6431 24.9297 86.0845 26.0625 86.0845 27.4375C86.0845 29.0078 86.8619 30.2812 88.4166 31.2578C89.2291 31.7656 90.3228 32.2266 91.6978 32.6406C93.0728 33.0547 94.022 33.4648 94.5455 33.8711ZM104.805 40H107.758V22.9375H104.805V40ZM125.634 39.6133C126.728 39.1992 127.583 38.5898 128.2 37.7852V31.2461H121.732V33.4961H125.247V36.8359C124.607 37.5234 123.528 37.8672 122.013 37.8672C120.63 37.8672 119.548 37.3594 118.767 36.3438C117.993 35.3203 117.607 33.8867 117.607 32.043V30.7305C117.63 28.8789 117.985 27.4766 118.673 26.5234C119.368 25.5625 120.38 25.082 121.708 25.082C123.763 25.082 124.954 26.1094 125.282 28.1641H128.189C127.962 26.3984 127.29 25.0469 126.173 24.1094C125.056 23.1719 123.548 22.7031 121.65 22.7031C119.439 22.7031 117.716 23.4297 116.482 24.8828C115.247 26.3281 114.63 28.3398 114.63 30.918V32.2539C114.653 33.8633 114.962 35.2734 115.556 36.4844C116.157 37.6875 117.009 38.6133 118.11 39.2617C119.212 39.9102 120.478 40.2344 121.907 40.2344C123.298 40.2344 124.54 40.0273 125.634 39.6133ZM145.748 40H148.713V22.9375H145.772V35.0898L138.143 22.9375H135.178V40H138.143V27.8945L145.748 40ZM165.177 40H176.649V37.7266H168.728L172.899 33.2617C173.993 32.0742 174.778 31.0156 175.255 30.0859C175.739 29.1484 175.981 28.2539 175.981 27.4023C175.981 25.9336 175.501 24.7852 174.54 23.957C173.587 23.1211 172.282 22.7031 170.626 22.7031C169.478 22.7031 168.462 22.9336 167.579 23.3945C166.704 23.8555 166.028 24.5039 165.552 25.3398C165.083 26.168 164.849 27.1016 164.849 28.1406H167.696C167.696 27.1641 167.95 26.3945 168.458 25.832C168.966 25.2695 169.681 24.9883 170.603 24.9883C171.376 24.9883 171.989 25.2383 172.442 25.7383C172.903 26.2383 173.134 26.8945 173.134 27.707C173.134 28.3242 172.958 28.9414 172.606 29.5586C172.263 30.168 171.681 30.9297 170.86 31.8438L165.177 38.043V40ZM203.695 38.7109C204.867 37.6875 205.539 36.2656 205.71 34.4453H202.757C202.601 35.6641 202.23 36.5352 201.644 37.0586C201.058 37.582 200.183 37.8438 199.019 37.8438C197.746 37.8438 196.777 37.3594 196.113 36.3906C195.457 35.4219 195.128 34.0156 195.128 32.1719V30.6602C195.144 28.8398 195.496 27.4609 196.183 26.5234C196.878 25.5781 197.871 25.1055 199.16 25.1055C200.269 25.1055 201.109 25.3789 201.679 25.9258C202.257 26.4648 202.617 27.3477 202.757 28.5742H205.71C205.523 26.707 204.855 25.2617 203.707 24.2383C202.558 23.2148 201.042 22.7031 199.16 22.7031C197.761 22.7031 196.527 23.0352 195.457 23.6992C194.394 24.3633 193.578 25.3086 193.007 26.5352C192.437 27.7617 192.152 29.1797 192.152 30.7891V32.3828C192.175 33.9531 192.468 35.332 193.031 36.5195C193.593 37.707 194.39 38.625 195.421 39.2734C196.46 39.9141 197.66 40.2344 199.019 40.2344C200.964 40.2344 202.523 39.7266 203.695 38.7109ZM224.841 36.3203C225.419 35.0547 225.708 33.5859 225.708 31.9141V30.9648C225.7 29.3008 225.403 27.8438 224.817 26.5938C224.231 25.3359 223.399 24.375 222.321 23.7109C221.251 23.0391 220.02 22.7031 218.63 22.7031C217.239 22.7031 216.005 23.043 214.927 23.7227C213.856 24.3945 213.024 25.3672 212.43 26.6406C211.845 27.9141 211.552 29.3828 211.552 31.0469V32.0078C211.559 33.6406 211.856 35.082 212.442 36.332C213.036 37.582 213.872 38.5469 214.95 39.2266C216.036 39.8984 217.27 40.2344 218.653 40.2344C220.052 40.2344 221.286 39.8984 222.356 39.2266C223.434 38.5469 224.262 37.5781 224.841 36.3203ZM221.665 26.6758C222.384 27.6836 222.743 29.1328 222.743 31.0234V31.9141C222.743 33.8359 222.387 35.2969 221.677 36.2969C220.973 37.2969 219.966 37.7969 218.653 37.7969C217.356 37.7969 216.341 37.2852 215.606 36.2617C214.88 35.2383 214.516 33.7891 214.516 31.9141V30.9297C214.532 29.0938 214.899 27.6758 215.618 26.6758C216.345 25.668 217.348 25.1641 218.63 25.1641C219.942 25.1641 220.954 25.668 221.665 26.6758ZM240.502 33.8711C241.033 34.2773 241.299 34.8555 241.299 35.6055C241.299 36.293 241.037 36.8477 240.514 37.2695C239.998 37.6836 239.225 37.8906 238.193 37.8906C236.998 37.8906 236.08 37.625 235.44 37.0938C234.799 36.5625 234.479 35.8125 234.479 34.8438H231.514C231.514 35.9141 231.799 36.8516 232.369 37.6562C232.947 38.4609 233.752 39.0938 234.783 39.5547C235.822 40.0078 236.959 40.2344 238.193 40.2344C240.061 40.2344 241.537 39.8164 242.623 38.9805C243.717 38.1367 244.264 37.0039 244.264 35.582C244.264 34.707 244.076 33.9453 243.701 33.2969C243.326 32.6406 242.736 32.0625 241.932 31.5625C241.127 31.0547 240.061 30.6055 238.732 30.2148C237.404 29.8164 236.451 29.4102 235.873 28.9961C235.295 28.5742 235.006 28.0508 235.006 27.4258C235.006 26.6836 235.272 26.1055 235.803 25.6914C236.342 25.2773 237.096 25.0703 238.065 25.0703C239.104 25.0703 239.9 25.3242 240.455 25.832C241.018 26.332 241.299 27.0273 241.299 27.918H244.252C244.252 26.9336 243.986 26.0391 243.455 25.2344C242.924 24.4219 242.193 23.7969 241.264 23.3594C240.334 22.9219 239.275 22.7031 238.088 22.7031C236.299 22.7031 234.842 23.1484 233.717 24.0391C232.6 24.9297 232.041 26.0625 232.041 27.4375C232.041 29.0078 232.818 30.2812 234.373 31.2578C235.186 31.7656 236.279 32.2266 237.654 32.6406C239.029 33.0547 239.979 33.4648 240.502 33.8711ZM257.593 25.3281H262.913V22.9375H249.378V25.3281H254.652V40H257.593V25.3281ZM56.7948 11.5704C56.4445 10.5577 56.108 9.61863 55.7853 8.75322C55.4719 7.89692 55.163 7.08212 54.8588 6.30884C54.5546 5.53535 54.2504 4.79427 53.9462 4.08537C53.6512 3.38559 53.3469 2.69047 53.0335 2H51.7751C51.4617 2.69047 51.1528 3.38559 50.8486 4.08537C50.5536 4.79427 50.2494 5.53535 49.936 6.30884C49.6317 7.08212 49.3183 7.89692 48.9956 8.75322C48.673 9.61863 48.3411 10.5577 48 11.5704H49.4796C49.9774 10.1157 50.466 8.71637 50.9454 7.37208C51.4248 6.028 51.918 4.76673 52.425 3.58828C52.9321 4.75742 53.4253 6.01423 53.9047 7.35831C54.384 8.71171 54.868 10.1157 55.3566 11.5704H56.7948ZM129.956 8.75322C130.279 9.61863 130.615 10.5577 130.966 11.5704H129.528C129.039 10.1157 128.555 8.71171 128.076 7.35831C127.596 6.01423 127.103 4.75742 126.596 3.58828C126.089 4.76673 125.596 6.028 125.117 7.37208C124.637 8.71637 124.148 10.1157 123.651 11.5704H122.171C122.512 10.5577 122.844 9.61863 123.167 8.75322C123.489 7.89692 123.803 7.08212 124.107 6.30884C124.42 5.53535 124.725 4.79427 125.02 4.08537C125.324 3.38559 125.633 2.69047 125.946 2H127.205C127.518 2.69047 127.822 3.38559 128.117 4.08537C128.421 4.79427 128.726 5.53535 129.03 6.30884C129.334 7.08212 129.643 7.89692 129.956 8.75322ZM146.399 12.0001C145.772 12.0001 145.228 11.9035 144.767 11.7101C144.306 11.5168 143.928 11.2544 143.633 10.9229C143.338 10.5823 143.117 10.1818 142.969 9.72135C142.831 9.26111 142.762 8.76402 142.762 8.22986V2.2226H144.103V8.078C144.103 9.03554 144.315 9.73067 144.739 10.1634C145.163 10.5961 145.716 10.8125 146.399 10.8125C146.74 10.8125 147.049 10.7617 147.325 10.6605C147.611 10.5501 147.855 10.3843 148.058 10.1634C148.261 9.94247 148.417 9.66162 148.528 9.32084C148.639 8.97116 148.694 8.55687 148.694 8.078V2.2226H150.035V8.22986C150.035 8.76402 149.962 9.26111 149.814 9.72135C149.676 10.1818 149.455 10.5823 149.15 10.9229C148.855 11.2544 148.477 11.5168 148.017 11.7101C147.565 11.9035 147.025 12.0001 146.399 12.0001ZM74.4305 11.7929V10.6329H70.0055V2.22258H68.6641V11.7929H74.4305ZM92.0286 10.6329V11.7929H86.2622V2.22258H87.6038V10.6329H92.0286ZM105.813 11.8613C106.043 11.8704 106.255 11.8751 106.449 11.8751C107.979 11.8751 109.095 11.6358 109.795 11.1571C110.505 10.6691 110.86 9.94623 110.86 8.98869C110.86 8.33508 110.694 7.82867 110.362 7.46966C110.031 7.11066 109.583 6.84824 109.021 6.68261C109.436 6.51678 109.768 6.26833 110.017 5.93687C110.266 5.59609 110.39 5.16338 110.39 4.63855C110.39 4.16899 110.289 3.77313 110.086 3.45098C109.883 3.12883 109.602 2.87087 109.242 2.6775C108.892 2.47502 108.472 2.33226 107.984 2.24945C107.504 2.16663 106.988 2.12512 106.435 2.12512C106.242 2.12512 106.034 2.12978 105.813 2.13909C105.592 2.14821 105.366 2.16198 105.135 2.1804C104.914 2.19883 104.693 2.22191 104.471 2.24945C104.25 2.27719 104.047 2.31404 103.863 2.36V11.6404C104.047 11.6864 104.25 11.7232 104.471 11.7508C104.693 11.7785 104.914 11.8014 105.135 11.8198C105.366 11.8382 105.592 11.852 105.813 11.8613ZM105.191 10.7013V7.33157H106.919C107.306 7.33157 107.657 7.35931 107.97 7.41439C108.284 7.46966 108.551 7.56179 108.772 7.69057C109.003 7.81955 109.178 7.9945 109.297 8.21541C109.417 8.42721 109.477 8.68962 109.477 9.00266C109.477 9.35255 109.394 9.64251 109.228 9.87273C109.072 10.1028 108.859 10.2824 108.592 10.4113C108.325 10.5401 108.012 10.6322 107.652 10.6875C107.302 10.7335 106.928 10.7566 106.532 10.7566H105.965C105.808 10.7473 105.67 10.7381 105.55 10.7288C105.412 10.7197 105.292 10.7104 105.191 10.7013ZM106.601 6.25436H105.191V3.29912C105.347 3.28069 105.522 3.26692 105.716 3.25761C105.91 3.2485 106.177 3.24384 106.518 3.24384C106.859 3.24384 107.182 3.27138 107.486 3.32666C107.79 3.38194 108.053 3.46941 108.274 3.58908C108.505 3.69963 108.684 3.85149 108.814 4.04486C108.943 4.22892 109.007 4.45915 109.007 4.73533C109.007 5.02995 108.943 5.27394 108.814 5.46731C108.694 5.66048 108.523 5.817 108.302 5.93687C108.09 6.05654 107.836 6.13935 107.541 6.18531C107.247 6.23148 106.933 6.25436 106.601 6.25436Z" fill="#183646"/>
<path fill-rule="evenodd" clip-rule="evenodd" d="M23.7965 0.0501483C24.203 1.35392 24.6094 2.65769 25.0159 3.91132L32.7895 26.928L37.667 41.3698C37.6924 41.4701 37.7178 41.5578 37.7432 41.6456C37.7686 41.7333 37.794 41.8211 37.8194 41.9214C36.8541 42.0718 36.8541 42.0718 36.6 41.3196C31.9765 27.6801 27.353 14.0407 22.7296 0.351023C22.7041 0.300877 22.6914 0.238194 22.6787 0.175511C22.666 0.112828 22.6533 0.0501452 22.6279 0C23.0852 0.0501452 23.4408 0.0501483 23.7965 0.0501483ZM15.6141 14H19.5V13.4885H16.5224L18.111 12.0556C18.8551 11.3848 19.2271 10.8067 19.2271 10.3211C19.2271 9.92141 19.0669 9.60185 18.7464 9.36247C18.426 9.12082 17.9902 9 17.4389 9C16.8496 9 16.3785 9.14002 16.0255 9.42005C15.6752 9.70009 15.5 10.0671 15.5 10.521H16.2536C16.2536 10.2048 16.3568 9.95867 16.5631 9.78252C16.7722 9.60411 17.0642 9.5149 17.4389 9.5149C17.7512 9.5149 18.001 9.59733 18.1884 9.7622C18.3758 9.92705 18.4695 10.1382 18.4695 10.3957C18.4695 10.5876 18.4111 10.7739 18.2943 10.9546C18.1803 11.133 17.9712 11.3656 17.667 11.6524L15.6141 13.5495V14ZM0 11.1703L1.18099 13.2288H4.85303C7.2394 13.2288 9.09369 13.9629 10.4159 15.431C11.7488 16.8991 12.4152 18.9894 12.4152 21.7023V23.0586C12.4152 25.6969 11.7864 27.7448 10.5288 29.2022C9.2818 30.6703 7.50814 31.415 5.20775 31.4363H3.26391L4 33.5L5.20227 33.5107C7.24467 33.5107 8.8465 33.0639 10.4159 32.1703C11.9853 31.2767 12.8424 30.2448 13.6916 28.5958C14.5516 26.9469 15.0213 24.9256 15.0321 22.7873V21.7023C15.0321 19.5108 14.5516 17.7342 13.6916 16.0852C12.8425 14.4363 12.0068 13.3937 10.4159 12.5107C8.8357 11.6278 7.31463 11.1916 5.20775 11.1703H0ZM28 30.1337C27.8555 31.369 27.3979 32.3235 26.6271 32.9973C25.8618 33.6658 24.8421 34 23.5683 34C22.1873 34 21.0794 33.5053 20.2444 32.516C19.4148 31.5267 19 30.2032 19 28.5454V27.4225C19 26.3369 19.1927 25.3823 19.5781 24.5588C19.9688 23.7353 20.5201 23.1043 21.2319 22.6658C21.9438 22.2219 22.7681 22 23.7047 22C24.9465 22 25.942 22.3476 26.6914 23.0428C27.4407 23.7326 27.877 24.6898 28 25.9144H26.4505C26.3167 24.984 26.025 24.3102 25.5754 23.893C25.1312 23.4759 24.5076 23.2674 23.7047 23.2674C22.7199 23.2674 21.9465 23.631 21.3845 24.3583C20.8278 25.0856 20.5495 26.1203 20.5495 27.4626V28.5935C20.5495 29.861 20.8145 30.869 21.3443 31.6176C21.8742 32.3663 22.6155 32.7406 23.5683 32.7406C24.4246 32.7406 25.0803 32.5481 25.5353 32.1631C25.9956 31.7727 26.3007 31.0963 26.4505 30.1337H28ZM49.7344 22.9375V40H54.6445C56.1836 40 57.5469 39.668 58.7344 39.0039C59.9297 38.3398 60.8477 37.3945 61.4883 36.168C62.1367 34.9414 62.4609 33.5195 62.4609 31.9023V31.0469C62.4609 29.4531 62.1406 28.0391 61.5 26.8047C60.8594 25.5703 59.9531 24.6172 58.7812 23.9453C57.6172 23.2734 56.2812 22.9375 54.7734 22.9375H49.7344ZM52.6992 37.6328V25.3281H54.7734C56.3047 25.3281 57.4727 25.8164 58.2773 26.793C59.082 27.7695 59.4844 29.1836 59.4844 31.0352V31.9844C59.4688 33.8047 59.043 35.2031 58.207 36.1797C57.3789 37.1484 56.1875 37.6328 54.6328 37.6328H52.6992ZM72.0989 32.3828H79.1067V30.0391H72.0989V25.3281H80.2083V22.9375H69.1341V40H80.2903V37.6328H72.0989V32.3828ZM94.5455 33.8711C95.0767 34.2773 95.3423 34.8555 95.3423 35.6055C95.3423 36.293 95.0806 36.8477 94.5572 37.2695C94.0416 37.6836 93.2681 37.8906 92.2369 37.8906C91.0416 37.8906 90.1236 37.625 89.483 37.0938C88.8423 36.5625 88.522 35.8125 88.522 34.8438H85.5572C85.5572 35.9141 85.8423 36.8516 86.4127 37.6562C86.9908 38.4609 87.7955 39.0938 88.8267 39.5547C89.8658 40.0078 91.0025 40.2344 92.2369 40.2344C94.1041 40.2344 95.5806 39.8164 96.6666 38.9805C97.7603 38.1367 98.3072 37.0039 98.3072 35.582C98.3072 34.707 98.1197 33.9453 97.7447 33.2969C97.3697 32.6406 96.7798 32.0625 95.9752 31.5625C95.1705 31.0547 94.1041 30.6055 92.7759 30.2148C91.4478 29.8164 90.4947 29.4102 89.9166 28.9961C89.3384 28.5742 89.0494 28.0508 89.0494 27.4258C89.0494 26.6836 89.315 26.1055 89.8463 25.6914C90.3853 25.2773 91.1392 25.0703 92.108 25.0703C93.147 25.0703 93.9439 25.3242 94.4986 25.832C95.0611 26.332 95.3423 27.0273 95.3423 27.918H98.2955C98.2955 26.9336 98.0298 26.0391 97.4986 25.2344C96.9673 24.4219 96.2369 23.7969 95.3072 23.3594C94.3775 22.9219 93.3189 22.7031 92.1314 22.7031C90.3423 22.7031 88.8853 23.1484 87.7603 24.0391C86.6431 24.9297 86.0845 26.0625 86.0845 27.4375C86.0845 29.0078 86.8619 30.2812 88.4166 31.2578C89.2291 31.7656 90.3228 32.2266 91.6978 32.6406C93.0728 33.0547 94.022 33.4648 94.5455 33.8711ZM104.805 40H107.758V22.9375H104.805V40ZM125.634 39.6133C126.728 39.1992 127.583 38.5898 128.2 37.7852V31.2461H121.732V33.4961H125.247V36.8359C124.607 37.5234 123.528 37.8672 122.013 37.8672C120.63 37.8672 119.548 37.3594 118.767 36.3438C117.993 35.3203 117.607 33.8867 117.607 32.043V30.7305C117.63 28.8789 117.985 27.4766 118.673 26.5234C119.368 25.5625 120.38 25.082 121.708 25.082C123.763 25.082 124.954 26.1094 125.282 28.1641H128.189C127.962 26.3984 127.29 25.0469 126.173 24.1094C125.056 23.1719 123.548 22.7031 121.65 22.7031C119.439 22.7031 117.716 23.4297 116.482 24.8828C115.247 26.3281 114.63 28.3398 114.63 30.918V32.2539C114.653 33.8633 114.962 35.2734 115.556 36.4844C116.157 37.6875 117.009 38.6133 118.11 39.2617C119.212 39.9102 120.478 40.2344 121.907 40.2344C123.298 40.2344 124.54 40.0273 125.634 39.6133ZM145.748 40H148.713V22.9375H145.772V35.0898L138.143 22.9375H135.178V40H138.143V27.8945L145.748 40ZM165.177 40H176.649V37.7266H168.728L172.899 33.2617C173.993 32.0742 174.778 31.0156 175.255 30.0859C175.739 29.1484 175.981 28.2539 175.981 27.4023C175.981 25.9336 175.501 24.7852 174.54 23.957C173.587 23.1211 172.282 22.7031 170.626 22.7031C169.478 22.7031 168.462 22.9336 167.579 23.3945C166.704 23.8555 166.028 24.5039 165.552 25.3398C165.083 26.168 164.849 27.1016 164.849 28.1406H167.696C167.696 27.1641 167.95 26.3945 168.458 25.832C168.966 25.2695 169.681 24.9883 170.603 24.9883C171.376 24.9883 171.989 25.2383 172.442 25.7383C172.903 26.2383 173.134 26.8945 173.134 27.707C173.134 28.3242 172.958 28.9414 172.606 29.5586C172.263 30.168 171.681 30.9297 170.86 31.8438L165.177 38.043V40ZM203.695 38.7109C204.867 37.6875 205.539 36.2656 205.71 34.4453H202.757C202.601 35.6641 202.23 36.5352 201.644 37.0586C201.058 37.582 200.183 37.8438 199.019 37.8438C197.746 37.8438 196.777 37.3594 196.113 36.3906C195.457 35.4219 195.128 34.0156 195.128 32.1719V30.6602C195.144 28.8398 195.496 27.4609 196.183 26.5234C196.878 25.5781 197.871 25.1055 199.16 25.1055C200.269 25.1055 201.109 25.3789 201.679 25.9258C202.257 26.4648 202.617 27.3477 202.757 28.5742H205.71C205.523 26.707 204.855 25.2617 203.707 24.2383C202.558 23.2148 201.042 22.7031 199.16 22.7031C197.761 22.7031 196.527 23.0352 195.457 23.6992C194.394 24.3633 193.578 25.3086 193.007 26.5352C192.437 27.7617 192.152 29.1797 192.152 30.7891V32.3828C192.175 33.9531 192.468 35.332 193.031 36.5195C193.593 37.707 194.39 38.625 195.421 39.2734C196.46 39.9141 197.66 40.2344 199.019 40.2344C200.964 40.2344 202.523 39.7266 203.695 38.7109ZM224.841 36.3203C225.419 35.0547 225.708 33.5859 225.708 31.9141V30.9648C225.7 29.3008 225.403 27.8438 224.817 26.5938C224.231 25.3359 223.399 24.375 222.321 23.7109C221.251 23.0391 220.02 22.7031 218.63 22.7031C217.239 22.7031 216.005 23.043 214.927 23.7227C213.856 24.3945 213.024 25.3672 212.43 26.6406C211.845 27.9141 211.552 29.3828 211.552 31.0469V32.0078C211.559 33.6406 211.856 35.082 212.442 36.332C213.036 37.582 213.872 38.5469 214.95 39.2266C216.036 39.8984 217.27 40.2344 218.653 40.2344C220.052 40.2344 221.286 39.8984 222.356 39.2266C223.434 38.5469 224.262 37.5781 224.841 36.3203ZM221.665 26.6758C222.384 27.6836 222.743 29.1328 222.743 31.0234V31.9141C222.743 33.8359 222.387 35.2969 221.677 36.2969C220.973 37.2969 219.966 37.7969 218.653 37.7969C217.356 37.7969 216.341 37.2852 215.606 36.2617C214.88 35.2383 214.516 33.7891 214.516 31.9141V30.9297C214.532 29.0938 214.899 27.6758 215.618 26.6758C216.345 25.668 217.348 25.1641 218.63 25.1641C219.942 25.1641 220.954 25.668 221.665 26.6758ZM240.502 33.8711C241.033 34.2773 241.299 34.8555 241.299 35.6055C241.299 36.293 241.037 36.8477 240.514 37.2695C239.998 37.6836 239.225 37.8906 238.193 37.8906C236.998 37.8906 236.08 37.625 235.44 37.0938C234.799 36.5625 234.479 35.8125 234.479 34.8438H231.514C231.514 35.9141 231.799 36.8516 232.369 37.6562C232.947 38.4609 233.752 39.0938 234.783 39.5547C235.822 40.0078 236.959 40.2344 238.193 40.2344C240.061 40.2344 241.537 39.8164 242.623 38.9805C243.717 38.1367 244.264 37.0039 244.264 35.582C244.264 34.707 244.076 33.9453 243.701 33.2969C243.326 32.6406 242.736 32.0625 241.932 31.5625C241.127 31.0547 240.061 30.6055 238.732 30.2148C237.404 29.8164 236.451 29.4102 235.873 28.9961C235.295 28.5742 235.006 28.0508 235.006 27.4258C235.006 26.6836 235.272 26.1055 235.803 25.6914C236.342 25.2773 237.096 25.0703 238.065 25.0703C239.104 25.0703 239.9 25.3242 240.455 25.832C241.018 26.332 241.299 27.0273 241.299 27.918H244.252C244.252 26.9336 243.986 26.0391 243.455 25.2344C242.924 24.4219 242.193 23.7969 241.264 23.3594C240.334 22.9219 239.275 22.7031 238.088 22.7031C236.299 22.7031 234.842 23.1484 233.717 24.0391C232.6 24.9297 232.041 26.0625 232.041 27.4375C232.041 29.0078 232.818 30.2812 234.373 31.2578C235.186 31.7656 236.279 32.2266 237.654 32.6406C239.029 33.0547 239.979 33.4648 240.502 33.8711ZM257.593 25.3281H262.913V22.9375H249.378V25.3281H254.652V40H257.593V25.3281ZM56.7948 11.5704C56.4445 10.5577 56.108 9.61863 55.7853 8.75322C55.4719 7.89692 55.163 7.08212 54.8588 6.30884C54.5546 5.53535 54.2504 4.79427 53.9462 4.08537C53.6512 3.38559 53.3469 2.69047 53.0335 2H51.7751C51.4617 2.69047 51.1528 3.38559 50.8486 4.08537C50.5536 4.79427 50.2494 5.53535 49.936 6.30884C49.6317 7.08212 49.3183 7.89692 48.9956 8.75322C48.673 9.61863 48.3411 10.5577 48 11.5704H49.4796C49.9774 10.1157 50.466 8.71637 50.9454 7.37208C51.4248 6.028 51.918 4.76673 52.425 3.58828C52.9321 4.75742 53.4253 6.01423 53.9047 7.35831C54.384 8.71171 54.868 10.1157 55.3566 11.5704H56.7948ZM129.956 8.75322C130.279 9.61863 130.615 10.5577 130.966 11.5704H129.528C129.039 10.1157 128.555 8.71171 128.076 7.35831C127.596 6.01423 127.103 4.75742 126.596 3.58828C126.089 4.76673 125.596 6.028 125.117 7.37208C124.637 8.71637 124.148 10.1157 123.651 11.5704H122.171C122.512 10.5577 122.844 9.61863 123.167 8.75322C123.489 7.89692 123.803 7.08212 124.107 6.30884C124.42 5.53535 124.725 4.79427 125.02 4.08537C125.324 3.38559 125.633 2.69047 125.946 2H127.205C127.518 2.69047 127.822 3.38559 128.117 4.08537C128.421 4.79427 128.726 5.53535 129.03 6.30884C129.334 7.08212 129.643 7.89692 129.956 8.75322ZM146.399 12.0001C145.772 12.0001 145.228 11.9035 144.767 11.7101C144.306 11.5168 143.928 11.2544 143.633 10.9229C143.338 10.5823 143.117 10.1818 142.969 9.72135C142.831 9.26111 142.762 8.76402 142.762 8.22986V2.2226H144.103V8.078C144.103 9.03554 144.315 9.73067 144.739 10.1634C145.163 10.5961 145.716 10.8125 146.399 10.8125C146.74 10.8125 147.049 10.7617 147.325 10.6605C147.611 10.5501 147.855 10.3843 148.058 10.1634C148.261 9.94247 148.417 9.66162 148.528 9.32084C148.639 8.97116 148.694 8.55687 148.694 8.078V2.2226H150.035V8.22986C150.035 8.76402 149.962 9.26111 149.814 9.72135C149.676 10.1818 149.455 10.5823 149.15 10.9229C148.855 11.2544 148.477 11.5168 148.017 11.7101C147.565 11.9035 147.025 12.0001 146.399 12.0001ZM74.4305 11.7929V10.6329H70.0055V2.22258H68.6641V11.7929H74.4305ZM92.0286 10.6329V11.7929H86.2622V2.22258H87.6038V10.6329H92.0286ZM105.813 11.8613C106.043 11.8704 106.255 11.8751 106.449 11.8751C107.979 11.8751 109.095 11.6358 109.795 11.1571C110.505 10.6691 110.86 9.94623 110.86 8.98869C110.86 8.33508 110.694 7.82867 110.362 7.46966C110.031 7.11066 109.583 6.84824 109.021 6.68261C109.436 6.51678 109.768 6.26833 110.017 5.93687C110.266 5.59609 110.39 5.16338 110.39 4.63855C110.39 4.16899 110.289 3.77313 110.086 3.45098C109.883 3.12883 109.602 2.87087 109.242 2.6775C108.892 2.47502 108.472 2.33226 107.984 2.24945C107.504 2.16663 106.988 2.12512 106.435 2.12512C106.242 2.12512 106.034 2.12978 105.813 2.13909C105.592 2.14821 105.366 2.16198 105.135 2.1804C104.914 2.19883 104.693 2.22191 104.471 2.24945C104.25 2.27719 104.047 2.31404 103.863 2.36V11.6404C104.047 11.6864 104.25 11.7232 104.471 11.7508C104.693 11.7785 104.914 11.8014 105.135 11.8198C105.366 11.8382 105.592 11.852 105.813 11.8613ZM105.191 10.7013V7.33157H106.919C107.306 7.33157 107.657 7.35931 107.97 7.41439C108.284 7.46966 108.551 7.56179 108.772 7.69057C109.003 7.81955 109.178 7.9945 109.297 8.21541C109.417 8.42721 109.477 8.68962 109.477 9.00266C109.477 9.35255 109.394 9.64251 109.228 9.87273C109.072 10.1028 108.859 10.2824 108.592 10.4113C108.325 10.5401 108.012 10.6322 107.652 10.6875C107.302 10.7335 106.928 10.7566 106.532 10.7566H105.965C105.808 10.7473 105.67 10.7381 105.55 10.7288C105.412 10.7197 105.292 10.7104 105.191 10.7013ZM106.601 6.25436H105.191V3.29912C105.347 3.28069 105.522 3.26692 105.716 3.25761C105.91 3.2485 106.177 3.24384 106.518 3.24384C106.859 3.24384 107.182 3.27138 107.486 3.32666C107.79 3.38194 108.053 3.46941 108.274 3.58908C108.505 3.69963 108.684 3.85149 108.814 4.04486C108.943 4.22892 109.007 4.45915 109.007 4.73533C109.007 5.02995 108.943 5.27394 108.814 5.46731C108.694 5.66048 108.523 5.817 108.302 5.93687C108.09 6.05654 107.836 6.13935 107.541 6.18531C107.247 6.23148 106.933 6.25436 106.601 6.25436Z" fill="#005B8B"/>
<path fill-rule="evenodd" clip-rule="evenodd" d="M23.7965 0.0501483C24.203 1.35392 24.6094 2.65769 25.0159 3.91132L32.7895 26.928L37.667 41.3698C37.6924 41.4701 37.7178 41.5578 37.7432 41.6456C37.7686 41.7333 37.794 41.8211 37.8194 41.9214C36.8541 42.0718 36.8541 42.0718 36.6 41.3196C31.9765 27.6801 27.353 14.0407 22.7296 0.351023C22.7041 0.300877 22.6914 0.238194 22.6787 0.175511C22.666 0.112828 22.6533 0.0501452 22.6279 0C23.0852 0.0501452 23.4408 0.0501483 23.7965 0.0501483ZM15.6141 14H19.5V13.4885H16.5224L18.111 12.0556C18.8551 11.3848 19.2271 10.8067 19.2271 10.3211C19.2271 9.92141 19.0669 9.60185 18.7464 9.36247C18.426 9.12082 17.9902 9 17.4389 9C16.8496 9 16.3785 9.14002 16.0255 9.42005C15.6752 9.70009 15.5 10.0671 15.5 10.521H16.2536C16.2536 10.2048 16.3568 9.95867 16.5631 9.78252C16.7722 9.60411 17.0642 9.5149 17.4389 9.5149C17.7512 9.5149 18.001 9.59733 18.1884 9.7622C18.3758 9.92705 18.4695 10.1382 18.4695 10.3957C18.4695 10.5876 18.4111 10.7739 18.2943 10.9546C18.1803 11.133 17.9712 11.3656 17.667 11.6524L15.6141 13.5495V14ZM0 11.1703L1.18099 13.2288H4.85303C7.2394 13.2288 9.09369 13.9629 10.4159 15.431C11.7488 16.8991 12.4152 18.9894 12.4152 21.7023V23.0586C12.4152 25.6969 11.7864 27.7448 10.5288 29.2022C9.2818 30.6703 7.50814 31.415 5.20775 31.4363H3.26391L4 33.5L5.20227 33.5107C7.24467 33.5107 8.8465 33.0639 10.4159 32.1703C11.9853 31.2767 12.8424 30.2448 13.6916 28.5958C14.5516 26.9469 15.0213 24.9256 15.0321 22.7873V21.7023C15.0321 19.5108 14.5516 17.7342 13.6916 16.0852C12.8425 14.4363 12.0068 13.3937 10.4159 12.5107C8.8357 11.6278 7.31463 11.1916 5.20775 11.1703H0ZM28 30.1337C27.8555 31.369 27.3979 32.3235 26.6271 32.9973C25.8618 33.6658 24.8421 34 23.5683 34C22.1873 34 21.0794 33.5053 20.2444 32.516C19.4148 31.5267 19 30.2032 19 28.5454V27.4225C19 26.3369 19.1927 25.3823 19.5781 24.5588C19.9688 23.7353 20.5201 23.1043 21.2319 22.6658C21.9438 22.2219 22.7681 22 23.7047 22C24.9465 22 25.942 22.3476 26.6914 23.0428C27.4407 23.7326 27.877 24.6898 28 25.9144H26.4505C26.3167 24.984 26.025 24.3102 25.5754 23.893C25.1312 23.4759 24.5076 23.2674 23.7047 23.2674C22.7199 23.2674 21.9465 23.631 21.3845 24.3583C20.8278 25.0856 20.5495 26.1203 20.5495 27.4626V28.5935C20.5495 29.861 20.8145 30.869 21.3443 31.6176C21.8742 32.3663 22.6155 32.7406 23.5683 32.7406C24.4246 32.7406 25.0803 32.5481 25.5353 32.1631C25.9956 31.7727 26.3007 31.0963 26.4505 30.1337H28ZM49.7344 22.9375V40H54.6445C56.1836 40 57.5469 39.668 58.7344 39.0039C59.9297 38.3398 60.8477 37.3945 61.4883 36.168C62.1367 34.9414 62.4609 33.5195 62.4609 31.9023V31.0469C62.4609 29.4531 62.1406 28.0391 61.5 26.8047C60.8594 25.5703 59.9531 24.6172 58.7812 23.9453C57.6172 23.2734 56.2812 22.9375 54.7734 22.9375H49.7344ZM52.6992 37.6328V25.3281H54.7734C56.3047 25.3281 57.4727 25.8164 58.2773 26.793C59.082 27.7695 59.4844 29.1836 59.4844 31.0352V31.9844C59.4688 33.8047 59.043 35.2031 58.207 36.1797C57.3789 37.1484 56.1875 37.6328 54.6328 37.6328H52.6992ZM72.0989 32.3828H79.1067V30.0391H72.0989V25.3281H80.2083V22.9375H69.1341V40H80.2903V37.6328H72.0989V32.3828ZM94.5455 33.8711C95.0767 34.2773 95.3423 34.8555 95.3423 35.6055C95.3423 36.293 95.0806 36.8477 94.5572 37.2695C94.0416 37.6836 93.2681 37.8906 92.2369 37.8906C91.0416 37.8906 90.1236 37.625 89.483 37.0938C88.8423 36.5625 88.522 35.8125 88.522 34.8438H85.5572C85.5572 35.9141 85.8423 36.8516 86.4127 37.6562C86.9908 38.4609 87.7955 39.0938 88.8267 39.5547C89.8658 40.0078 91.0025 40.2344 92.2369 40.2344C94.1041 40.2344 95.5806 39.8164 96.6666 38.9805C97.7603 38.1367 98.3072 37.0039 98.3072 35.582C98.3072 34.707 98.1197 33.9453 97.7447 33.2969C97.3697 32.6406 96.7798 32.0625 95.9752 31.5625C95.1705 31.0547 94.1041 30.6055 92.7759 30.2148C91.4478 29.8164 90.4947 29.4102 89.9166 28.9961C89.3384 28.5742 89.0494 28.0508 89.0494 27.4258C89.0494 26.6836 89.315 26.1055 89.8463 25.6914C90.3853 25.2773 91.1392 25.0703 92.108 25.0703C93.147 25.0703 93.9439 25.3242 94.4986 25.832C95.0611 26.332 95.3423 27.0273 95.3423 27.918H98.2955C98.2955 26.9336 98.0298 26.0391 97.4986 25.2344C96.9673 24.4219 96.2369 23.7969 95.3072 23.3594C94.3775 22.9219 93.3189 22.7031 92.1314 22.7031C90.3423 22.7031 88.8853 23.1484 87.7603 24.0391C86.6431 24.9297 86.0845 26.0625 86.0845 27.4375C86.0845 29.0078 86.8619 30.2812 88.4166 31.2578C89.2291 31.7656 90.3228 32.2266 91.6978 32.6406C93.0728 33.0547 94.022 33.4648 94.5455 33.8711ZM104.805 40H107.758V22.9375H104.805V40ZM125.634 39.6133C126.728 39.1992 127.583 38.5898 128.2 37.7852V31.2461H121.732V33.4961H125.247V36.8359C124.607 37.5234 123.528 37.8672 122.013 37.8672C120.63 37.8672 119.548 37.3594 118.767 36.3438C117.993 35.3203 117.607 33.8867 117.607 32.043V30.7305C117.63 28.8789 117.985 27.4766 118.673 26.5234C119.368 25.5625 120.38 25.082 121.708 25.082C123.763 25.082 124.954 26.1094 125.282 28.1641H128.189C127.962 26.3984 127.29 25.0469 126.173 24.1094C125.056 23.1719 123.548 22.7031 121.65 22.7031C119.439 22.7031 117.716 23.4297 116.482 24.8828C115.247 26.3281 114.63 28.3398 114.63 30.918V32.2539C114.653 33.8633 114.962 35.2734 115.556 36.4844C116.157 37.6875 117.009 38.6133 118.11 39.2617C119.212 39.9102 120.478 40.2344 121.907 40.2344C123.298 40.2344 124.54 40.0273 125.634 39.6133ZM145.748 40H148.713V22.9375H145.772V35.0898L138.143 22.9375H135.178V40H138.143V27.8945L145.748 40ZM165.177 40H176.649V37.7266H168.728L172.899 33.2617C173.993 32.0742 174.778 31.0156 175.255 30.0859C175.739 29.1484 175.981 28.2539 175.981 27.4023C175.981 25.9336 175.501 24.7852 174.54 23.957C173.587 23.1211 172.282 22.7031 170.626 22.7031C169.478 22.7031 168.462 22.9336 167.579 23.3945C166.704 23.8555 166.028 24.5039 165.552 25.3398C165.083 26.168 164.849 27.1016 164.849 28.1406H167.696C167.696 27.1641 167.95 26.3945 168.458 25.832C168.966 25.2695 169.681 24.9883 170.603 24.9883C171.376 24.9883 171.989 25.2383 172.442 25.7383C172.903 26.2383 173.134 26.8945 173.134 27.707C173.134 28.3242 172.958 28.9414 172.606 29.5586C172.263 30.168 171.681 30.9297 170.86 31.8438L165.177 38.043V40ZM203.695 38.7109C204.867 37.6875 205.539 36.2656 205.71 34.4453H202.757C202.601 35.6641 202.23 36.5352 201.644 37.0586C201.058 37.582 200.183 37.8438 199.019 37.8438C197.746 37.8438 196.777 37.3594 196.113 36.3906C195.457 35.4219 195.128 34.0156 195.128 32.1719V30.6602C195.144 28.8398 195.496 27.4609 196.183 26.5234C196.878 25.5781 197.871 25.1055 199.16 25.1055C200.269 25.1055 201.109 25.3789 201.679 25.9258C202.257 26.4648 202.617 27.3477 202.757 28.5742H205.71C205.523 26.707 204.855 25.2617 203.707 24.2383C202.558 23.2148 201.042 22.7031 199.16 22.7031C197.761 22.7031 196.527 23.0352 195.457 23.6992C194.394 24.3633 193.578 25.3086 193.007 26.5352C192.437 27.7617 192.152 29.1797 192.152 30.7891V32.3828C192.175 33.9531 192.468 35.332 193.031 36.5195C193.593 37.707 194.39 38.625 195.421 39.2734C196.46 39.9141 197.66 40.2344 199.019 40.2344C200.964 40.2344 202.523 39.7266 203.695 38.7109ZM224.841 36.3203C225.419 35.0547 225.708 33.5859 225.708 31.9141V30.9648C225.7 29.3008 225.403 27.8438 224.817 26.5938C224.231 25.3359 223.399 24.375 222.321 23.7109C221.251 23.0391 220.02 22.7031 218.63 22.7031C217.239 22.7031 216.005 23.043 214.927 23.7227C213.856 24.3945 213.024 25.3672 212.43 26.6406C211.845 27.9141 211.552 29.3828 211.552 31.0469V32.0078C211.559 33.6406 211.856 35.082 212.442 36.332C213.036 37.582 213.872 38.5469 214.95 39.2266C216.036 39.8984 217.27 40.2344 218.653 40.2344C220.052 40.2344 221.286 39.8984 222.356 39.2266C223.434 38.5469 224.262 37.5781 224.841 36.3203ZM221.665 26.6758C222.384 27.6836 222.743 29.1328 222.743 31.0234V31.9141C222.743 33.8359 222.387 35.2969 221.677 36.2969C220.973 37.2969 219.966 37.7969 218.653 37.7969C217.356 37.7969 216.341 37.2852 215.606 36.2617C214.88 35.2383 214.516 33.7891 214.516 31.9141V30.9297C214.532 29.0938 214.899 27.6758 215.618 26.6758C216.345 25.668 217.348 25.1641 218.63 25.1641C219.942 25.1641 220.954 25.668 221.665 26.6758ZM240.502 33.8711C241.033 34.2773 241.299 34.8555 241.299 35.6055C241.299 36.293 241.037 36.8477 240.514 37.2695C239.998 37.6836 239.225 37.8906 238.193 37.8906C236.998 37.8906 236.08 37.625 235.44 37.0938C234.799 36.5625 234.479 35.8125 234.479 34.8438H231.514C231.514 35.9141 231.799 36.8516 232.369 37.6562C232.947 38.4609 233.752 39.0938 234.783 39.5547C235.822 40.0078 236.959 40.2344 238.193 40.2344C240.061 40.2344 241.537 39.8164 242.623 38.9805C243.717 38.1367 244.264 37.0039 244.264 35.582C244.264 34.707 244.076 33.9453 243.701 33.2969C243.326 32.6406 242.736 32.0625 241.932 31.5625C241.127 31.0547 240.061 30.6055 238.732 30.2148C237.404 29.8164 236.451 29.4102 235.873 28.9961C235.295 28.5742 235.006 28.0508 235.006 27.4258C235.006 26.6836 235.272 26.1055 235.803 25.6914C236.342 25.2773 237.096 25.0703 238.065 25.0703C239.104 25.0703 239.9 25.3242 240.455 25.832C241.018 26.332 241.299 27.0273 241.299 27.918H244.252C244.252 26.9336 243.986 26.0391 243.455 25.2344C242.924 24.4219 242.193 23.7969 241.264 23.3594C240.334 22.9219 239.275 22.7031 238.088 22.7031C236.299 22.7031 234.842 23.1484 233.717 24.0391C232.6 24.9297 232.041 26.0625 232.041 27.4375C232.041 29.0078 232.818 30.2812 234.373 31.2578C235.186 31.7656 236.279 32.2266 237.654 32.6406C239.029 33.0547 239.979 33.4648 240.502 33.8711ZM257.593 25.3281H262.913V22.9375H249.378V25.3281H254.652V40H257.593V25.3281ZM56.7948 11.5704C56.4445 10.5577 56.108 9.61863 55.7853 8.75322C55.4719 7.89692 55.163 7.08212 54.8588 6.30884C54.5546 5.53535 54.2504 4.79427 53.9462 4.08537C53.6512 3.38559 53.3469 2.69047 53.0335 2H51.7751C51.4617 2.69047 51.1528 3.38559 50.8486 4.08537C50.5536 4.79427 50.2494 5.53535 49.936 6.30884C49.6317 7.08212 49.3183 7.89692 48.9956 8.75322C48.673 9.61863 48.3411 10.5577 48 11.5704H49.4796C49.9774 10.1157 50.466 8.71637 50.9454 7.37208C51.4248 6.028 51.918 4.76673 52.425 3.58828C52.9321 4.75742 53.4253 6.01423 53.9047 7.35831C54.384 8.71171 54.868 10.1157 55.3566 11.5704H56.7948ZM129.956 8.75322C130.279 9.61863 130.615 10.5577 130.966 11.5704H129.528C129.039 10.1157 128.555 8.71171 128.076 7.35831C127.596 6.01423 127.103 4.75742 126.596 3.58828C126.089 4.76673 125.596 6.028 125.117 7.37208C124.637 8.71637 124.148 10.1157 123.651 11.5704H122.171C122.512 10.5577 122.844 9.61863 123.167 8.75322C123.489 7.89692 123.803 7.08212 124.107 6.30884C124.42 5.53535 124.725 4.79427 125.02 4.08537C125.324 3.38559 125.633 2.69047 125.946 2H127.205C127.518 2.69047 127.822 3.38559 128.117 4.08537C128.421 4.79427 128.726 5.53535 129.03 6.30884C129.334 7.08212 129.643 7.89692 129.956 8.75322ZM146.399 12.0001C145.772 12.0001 145.228 11.9035 144.767 11.7101C144.306 11.5168 143.928 11.2544 143.633 10.9229C143.338 10.5823 143.117 10.1818 142.969 9.72135C142.831 9.26111 142.762 8.76402 142.762 8.22986V2.2226H144.103V8.078C144.103 9.03554 144.315 9.73067 144.739 10.1634C145.163 10.5961 145.716 10.8125 146.399 10.8125C146.74 10.8125 147.049 10.7617 147.325 10.6605C147.611 10.5501 147.855 10.3843 148.058 10.1634C148.261 9.94247 148.417 9.66162 148.528 9.32084C148.639 8.97116 148.694 8.55687 148.694 8.078V2.2226H150.035V8.22986C150.035 8.76402 149.962 9.26111 149.814 9.72135C149.676 10.1818 149.455 10.5823 149.15 10.9229C148.855 11.2544 148.477 11.5168 148.017 11.7101C147.565 11.9035 147.025 12.0001 146.399 12.0001ZM74.4305 11.7929V10.6329H70.0055V2.22258H68.6641V11.7929H74.4305ZM92.0286 10.6329V11.7929H86.2622V2.22258H87.6038V10.6329H92.0286ZM105.813 11.8613C106.043 11.8704 106.255 11.8751 106.449 11.8751C107.979 11.8751 109.095 11.6358 109.795 11.1571C110.505 10.6691 110.86 9.94623 110.86 8.98869C110.86 8.33508 110.694 7.82867 110.362 7.46966C110.031 7.11066 109.583 6.84824 109.021 6.68261C109.436 6.51678 109.768 6.26833 110.017 5.93687C110.266 5.59609 110.39 5.16338 110.39 4.63855C110.39 4.16899 110.289 3.77313 110.086 3.45098C109.883 3.12883 109.602 2.87087 109.242 2.6775C108.892 2.47502 108.472 2.33226 107.984 2.24945C107.504 2.16663 106.988 2.12512 106.435 2.12512C106.242 2.12512 106.034 2.12978 105.813 2.13909C105.592 2.14821 105.366 2.16198 105.135 2.1804C104.914 2.19883 104.693 2.22191 104.471 2.24945C104.25 2.27719 104.047 2.31404 103.863 2.36V11.6404C104.047 11.6864 104.25 11.7232 104.471 11.7508C104.693 11.7785 104.914 11.8014 105.135 11.8198C105.366 11.8382 105.592 11.852 105.813 11.8613ZM105.191 10.7013V7.33157H106.919C107.306 7.33157 107.657 7.35931 107.97 7.41439C108.284 7.46966 108.551 7.56179 108.772 7.69057C109.003 7.81955 109.178 7.9945 109.297 8.21541C109.417 8.42721 109.477 8.68962 109.477 9.00266C109.477 9.35255 109.394 9.64251 109.228 9.87273C109.072 10.1028 108.859 10.2824 108.592 10.4113C108.325 10.5401 108.012 10.6322 107.652 10.6875C107.302 10.7335 106.928 10.7566 106.532 10.7566H105.965C105.808 10.7473 105.67 10.7381 105.55 10.7288C105.412 10.7197 105.292 10.7104 105.191 10.7013ZM106.601 6.25436H105.191V3.29912C105.347 3.28069 105.522 3.26692 105.716 3.25761C105.91 3.2485 106.177 3.24384 106.518 3.24384C106.859 3.24384 107.182 3.27138 107.486 3.32666C107.79 3.38194 108.053 3.46941 108.274 3.58908C108.505 3.69963 108.684 3.85149 108.814 4.04486C108.943 4.22892 109.007 4.45915 109.007 4.73533C109.007 5.02995 108.943 5.27394 108.814 5.46731C108.694 5.66048 108.523 5.817 108.302 5.93687C108.09 6.05654 107.836 6.13935 107.541 6.18531C107.247 6.23148 106.933 6.25436 106.601 6.25436Z" fill="white"/>
</svg>
