<svg width="131" height="40" viewBox="0 0 131 40" fill="none" xmlns="http://www.w3.org/2000/svg">
<path fill-rule="evenodd" clip-rule="evenodd" d="M51.0764 0.0472594C52.6125 4.44211 54.1486 8.83697 55.7327 13.3263C55.5489 13.3263 55.3768 13.3321 55.2123 13.3375L55.2122 13.3375C54.9039 13.3478 54.6223 13.3571 54.3406 13.3263C54.1966 13.3263 54.0046 13.1373 53.9566 12.9483C53.6207 12.0508 53.3328 11.1533 53.0449 10.2558L53.0448 10.2558L53.0448 10.2557L53.0448 10.2557L53.0448 10.2556L53.0448 10.2556L53.0448 10.2556L53.0448 10.2555L53.0448 10.2555L53.0448 10.2554L53.0447 10.2554L53.0447 10.2553L53.0445 10.2547C52.9485 9.92387 52.8045 9.7821 52.4205 9.7821C51.3982 9.81355 50.3972 9.80314 49.3892 9.79266H49.3891C48.8825 9.78739 48.374 9.7821 47.8602 9.7821C47.4762 9.7821 47.3322 9.87661 47.1882 10.2074C47.0441 10.6327 46.8881 11.058 46.7321 11.4833C46.5761 11.9086 46.4201 12.3339 46.2761 12.7593C46.1321 13.1373 45.9881 13.3263 45.556 13.2791C45.34 13.2487 45.1437 13.2574 44.9163 13.2675C44.7901 13.2731 44.6542 13.2791 44.5 13.2791C45.1527 11.4293 45.8054 9.59561 46.4547 7.77133C47.3813 5.16808 48.3011 2.58404 49.2043 0C49.8283 0.0472565 50.4523 0.0472594 51.0764 0.0472594ZM52.5165 8.55343L52.1975 7.66719C51.498 5.72385 50.8253 3.85476 50.1163 1.843C49.6054 3.21215 49.1281 4.53173 48.6546 5.84083C48.3272 6.74574 48.0017 7.64564 47.6682 8.55343H52.5165ZM0 29.7716C0.192011 29.2517 0.384022 28.7201 0.576033 28.1885C0.768044 27.6568 0.960055 27.1252 1.15207 26.6054C2.04012 23.9827 2.92817 21.3481 3.81622 18.7136C4.70428 16.079 5.59234 13.4445 6.4804 10.8217C6.5284 10.6327 6.6244 10.3964 6.7204 10.1602L6.72041 10.1601H9.74459C10.1195 10.1601 10.1742 10.4304 10.2212 10.6631L10.2246 10.68C10.8727 12.6175 11.5327 14.5432 12.1928 16.4689C12.8528 18.3946 13.5128 20.3203 14.1609 22.2578L14.1622 22.2618C14.9778 24.6705 15.7934 27.0792 16.609 29.4408C16.657 29.6296 16.7049 29.7714 16.8008 30.0544L16.8008 30.0545L16.8008 30.0546L16.8008 30.0546L16.8009 30.0548L16.801 30.0551H13.7288C13.5848 30.0551 13.3928 29.7716 13.3448 29.5825C12.4328 26.6999 11.5207 23.77 10.6566 20.8874C9.8886 18.3355 9.07255 15.7836 8.1605 13.2318C8.1365 13.3263 8.10049 13.409 8.06449 13.4917C8.02848 13.5744 7.99248 13.6571 7.96848 13.7516C7.42446 15.5 6.87512 17.2485 6.32577 18.9969C5.22702 22.4939 4.12827 25.991 3.07218 29.488C2.92818 29.9606 2.73616 30.0551 2.25613 30.0551C1.79695 30.0269 1.35493 30.0493 0.909558 30.0719H0.909539H0.909519H0.909499H0.909479H0.909458H0.909437H0.909415H0.909393H0.90937H0.909346H0.909322H0.909297H0.909272L0.909213 30.0719C0.609742 30.0871 0.30875 30.1024 0 30.1024V29.7716ZM108.103 39.8845C107.911 39.8372 107.719 39.7952 107.527 39.7532C107.143 39.6692 106.758 39.5852 106.374 39.4592C104.07 38.7503 102.726 37.0963 102.15 34.8753C101.43 32.0872 101.382 29.299 102.054 26.5109C102.822 23.3447 104.982 21.5962 108.295 21.3599C110.791 21.1709 113.191 21.5017 115.591 22.2578C115.527 22.4941 115.463 22.7251 115.399 22.9562L115.399 22.9564C115.271 23.4184 115.143 23.8804 115.015 24.3844C114.764 24.3323 114.516 24.2766 114.27 24.2212C113.623 24.0758 112.988 23.933 112.327 23.8645C111.223 23.7228 110.167 23.6283 109.063 23.6755C106.614 23.8173 105.174 25.0459 104.646 27.4088C104.166 29.5353 104.166 31.7091 104.694 33.8829C105.414 36.8601 107.479 37.8997 110.407 37.6162C111.114 37.5292 111.78 37.2819 112.481 37.0219L112.663 36.9546C112.807 36.9073 112.999 36.671 112.999 36.5293C113.031 35.6839 113.02 34.8594 113.01 34.0143V34.014C113.004 33.5836 112.999 33.1479 112.999 32.7015H109.543V30.4332H115.591V31.2838V38.0415C115.591 38.4195 115.495 38.6086 115.111 38.7503C114.439 38.9393 113.78 39.1282 113.12 39.3171L113.119 39.3175C112.459 39.5065 111.799 39.6955 111.127 39.8845C111.079 39.8845 110.983 39.9317 110.935 39.979C110.023 39.8845 109.063 39.8845 108.103 39.8845ZM119.91 39.6482H130.902V37.4271H121.686V31.4255H129.51V29.11H121.686V23.8645H130.71V21.6434H119.094V39.6482H119.91ZM108.079 2.71731L108.079 2.71726C107.767 1.83121 107.455 0.945168 107.143 0.0473071H105.27C105.246 0.118192 105.222 0.200891 105.198 0.28359L105.198 0.284139C105.174 0.366654 105.15 0.449144 105.126 0.519872C104.574 2.10297 104.01 3.67425 103.446 5.24553C102.882 6.8168 102.318 8.38808 101.766 9.97117L101.766 9.97302L101.765 9.97398C101.382 11.0599 100.998 12.146 100.566 13.3264C100.72 13.3264 100.856 13.3204 100.982 13.3148C101.21 13.3047 101.406 13.296 101.622 13.3264C102.006 13.3736 102.198 13.2319 102.294 12.8538C102.416 12.4929 102.547 12.132 102.679 11.7675C102.859 11.2729 103.041 10.7716 103.206 10.2547C103.302 9.92391 103.494 9.82939 103.83 9.82939H108.439C108.775 9.82939 108.967 9.92391 109.063 10.2547C109.351 11.1997 109.687 12.0974 110.023 12.9952L110.023 12.9956C110.071 13.1374 110.215 13.3264 110.359 13.3264C110.645 13.3577 110.953 13.3475 111.267 13.3371C111.427 13.3318 111.589 13.3264 111.751 13.3264C111.703 13.0901 111.655 12.9011 111.607 12.7593L109.015 5.38728C108.703 4.48942 108.391 3.60336 108.079 2.71731ZM106.183 2.03207H106.327C106.582 2.75641 106.838 3.4755 107.094 4.19459C107.606 5.63355 108.119 7.0725 108.631 8.55347H103.782C104.066 7.78074 104.35 7.01945 104.632 6.26363L104.634 6.25906L104.635 6.25593L104.636 6.25365L104.636 6.25319C105.163 4.84013 105.683 3.4461 106.183 2.03207ZM19.4908 0.0472594C19.8748 1.27593 20.2588 2.50459 20.6429 3.686L27.9873 25.3767L32.5956 38.9866C32.6196 39.0811 32.6436 39.1638 32.6676 39.2465C32.6916 39.3292 32.7156 39.4119 32.7396 39.5064C31.8276 39.6482 31.8275 39.6482 31.5875 38.9394C27.2193 26.0856 22.851 13.2318 18.4827 0.330801C18.4587 0.283544 18.4467 0.224471 18.4347 0.165398L18.4347 0.165375C18.4227 0.106311 18.4107 0.0472496 18.3867 0C18.8187 0.0472565 19.1548 0.0472594 19.4908 0.0472594ZM55.5831 30.3902C55.5578 30.3748 55.5281 30.3567 55.4915 30.3387C55.5198 30.3248 55.5471 30.3118 55.5734 30.2994C55.726 30.2272 55.8487 30.169 55.9715 30.0079C57.4116 29.299 58.2276 28.1176 58.3237 26.5582C58.4197 24.8097 57.9876 23.2975 56.3555 22.3051C55.3475 21.738 54.2434 21.5017 53.0913 21.5017H45.8909C45.788 21.5017 45.6989 21.5153 45.6161 21.5279C45.5445 21.5388 45.4777 21.549 45.4108 21.549V39.5537H49.8751C50.1919 39.5537 50.5087 39.5556 50.8255 39.5575C52.0928 39.5651 53.3601 39.5726 54.6274 39.4592C56.9796 39.2702 58.4677 37.8052 58.8037 35.5369C59.1877 33.0796 58.0356 31.2838 55.6835 30.4332C55.6538 30.4332 55.6241 30.4152 55.5831 30.3902ZM54.0994 37.2381C52.0833 37.3326 50.1151 37.3799 48.051 37.4272V37.4257C48.051 35.3942 48.051 33.5044 48.003 31.5674H49.8751C50.1616 31.5674 50.4511 31.5644 50.7421 31.5615C51.6211 31.5526 52.5138 31.5436 53.3794 31.6146C55.7315 31.7564 56.9316 34.072 55.7795 36.104C55.3955 36.7656 54.8194 37.1909 54.0994 37.2381ZM48.051 29.2045V23.9118C48.6465 23.9118 49.2366 23.8959 49.8232 23.88H49.8232H49.8233H49.8233H49.8233H49.8234H49.8234H49.8235H49.8235C50.9862 23.8486 52.1348 23.8176 53.2833 23.9118C55.2995 24.1008 56.3075 26.2746 55.2995 28.0704C54.8674 28.8265 54.1474 29.1573 53.3313 29.2045C52.181 29.236 51.0094 29.2256 49.8307 29.2151L49.8303 29.2151C49.2384 29.2098 48.6447 29.2045 48.051 29.2045ZM70.9944 32.2289C71.6377 33.258 72.2809 34.2787 72.9277 35.3051C73.8255 36.7296 74.73 38.1649 75.6507 39.6482H72.8186C72.6745 39.6482 72.4825 39.4119 72.3865 39.2701C71.4441 37.7925 70.527 36.2899 69.6168 34.7986C69.2753 34.2391 68.9348 33.6812 68.5943 33.1268C68.4023 32.796 68.2103 32.6542 67.7782 32.6542C67.0477 32.6855 66.3382 32.6754 65.608 32.6649H65.608H65.6079H65.6078H65.6077H65.6076H65.6075H65.6072C65.2341 32.6596 64.8555 32.6542 64.466 32.6542V39.6009H61.9219V21.5962H62.4979H69.4583C74.9307 21.5962 75.8907 26.7944 74.4506 29.7243C73.8746 30.9057 72.8666 31.6618 71.6185 32.0399C71.3785 32.0871 71.2344 32.1344 70.9944 32.2289ZM64.418 30.3386H69.0263C69.3143 30.3386 69.6023 30.2914 69.8902 30.2441L69.8904 30.2441C70.9464 30.0551 71.7625 29.488 72.1465 28.4484C73.0586 25.991 71.6185 23.8645 68.9783 23.8645H64.9461C64.802 23.8645 64.61 23.8645 64.466 23.9118C64.418 26.0376 64.418 28.1163 64.418 30.3365V30.3386ZM84.3906 21.6434V39.6954C85.4181 39.6611 86.4393 39.6517 87.4541 39.6424C89.2366 39.6259 90.9996 39.6097 92.7431 39.4591C95.5273 39.2229 97.2554 37.4744 98.0715 34.8753C98.7915 32.5124 98.7915 30.1496 98.4555 27.7868C98.2155 26.2746 97.7354 24.8569 96.6794 23.7227C95.2393 22.116 93.3192 21.6434 91.255 21.5962H84.9186C84.8226 21.5962 84.7386 21.608 84.6546 21.6198C84.5706 21.6316 84.4866 21.6434 84.3906 21.6434ZM88.4673 37.3538C87.9767 37.3433 87.4824 37.3326 86.9828 37.3326V24.0063C87.0308 23.959 87.0788 23.9118 87.1268 23.9118C87.5129 23.9118 87.896 23.9088 88.2768 23.9058L88.2773 23.9058C89.4113 23.897 90.5252 23.8883 91.6391 23.959C93.7512 24.0535 95.1433 25.2822 95.6233 27.4087C96.1033 29.488 96.1033 31.6146 95.6233 33.6938C95.0953 36.0094 93.7512 37.1436 91.351 37.3326C90.3946 37.3954 89.4382 37.3748 88.4677 37.3538H88.4676H88.4676H88.4675H88.4674H88.4674H88.4673ZM115.111 13.3264H113.671V0.141795C113.819 0.141795 113.961 0.136268 114.099 0.130884C114.366 0.120526 114.618 0.1107 114.871 0.141795C115.063 0.189051 115.255 0.378086 115.351 0.519855C116.125 1.67103 116.905 2.82221 117.687 3.97588L117.687 3.97613L117.688 3.97713C118.992 5.90136 120.301 7.83251 121.591 9.78213C121.735 10.0184 121.927 10.2547 122.167 10.4437V0.141795H123.608V13.2791C123.46 13.2791 123.318 13.2846 123.179 13.29C122.913 13.3004 122.66 13.3102 122.407 13.2791C122.215 13.2319 121.975 13.0428 121.879 12.8538C120.824 11.2959 119.769 9.74979 118.714 8.20369L118.714 8.20342L118.711 8.19902C117.655 6.65138 116.599 5.10373 115.543 3.54427C115.504 3.48627 115.456 3.42036 115.401 3.3433L115.4 3.34198L115.399 3.34055L115.399 3.34046L115.399 3.34032C115.319 3.22961 115.223 3.09598 115.111 2.92994V13.3264ZM80.261 13.3264V7.84465H81.077C81.3891 7.84465 81.7011 7.8476 82.0131 7.85055C82.9492 7.85941 83.8852 7.86827 84.8213 7.79739C86.9334 7.65562 88.1335 6.28519 88.1815 4.11139C88.2295 1.98485 86.9814 0.378119 84.9173 0.23635C83.4799 0.13528 82.0426 0.1543 80.5879 0.17355C80.0021 0.181302 79.4135 0.189091 78.8209 0.189091V13.3264H80.261ZM81.5868 6.4897C81.1616 6.48197 80.7353 6.47421 80.309 6.47421V1.51228C80.7656 1.51228 81.2183 1.50443 81.6669 1.49664C82.7747 1.47742 83.8581 1.45862 84.9173 1.55953C86.1174 1.7013 86.7414 2.78819 86.6934 4.15863C86.6454 5.43456 85.9734 6.33244 84.7253 6.42695C83.6977 6.52811 82.6457 6.50897 81.5868 6.4897ZM78.3906 21.5962H80.8868V39.5537H78.3906V21.5962ZM57.5555 0.189027V13.3263C60.2916 13.3263 63.0278 13.3263 65.764 13.2791V12.0504H58.9956V0.189027H57.5555ZM68.2109 0.189087H69.603V12.0505H76.3715V13.3264H68.2109V0.189087ZM90.5816 0.189027V13.3263C93.3657 13.3263 96.0539 13.3263 98.838 13.2791V12.0504H92.0696V0.189027H90.5816Z" fill="black"/>
<path fill-rule="evenodd" clip-rule="evenodd" d="M51.0764 0.0472594C52.6125 4.44211 54.1486 8.83697 55.7327 13.3263C55.5489 13.3263 55.3768 13.3321 55.2123 13.3375L55.2122 13.3375C54.9039 13.3478 54.6223 13.3571 54.3406 13.3263C54.1966 13.3263 54.0046 13.1373 53.9566 12.9483C53.6207 12.0508 53.3328 11.1533 53.0449 10.2558L53.0448 10.2558L53.0448 10.2557L53.0448 10.2557L53.0448 10.2556L53.0448 10.2556L53.0448 10.2556L53.0448 10.2555L53.0448 10.2555L53.0448 10.2554L53.0447 10.2554L53.0447 10.2553L53.0445 10.2547C52.9485 9.92387 52.8045 9.7821 52.4205 9.7821C51.3982 9.81355 50.3972 9.80314 49.3892 9.79266H49.3891C48.8825 9.78739 48.374 9.7821 47.8602 9.7821C47.4762 9.7821 47.3322 9.87661 47.1882 10.2074C47.0441 10.6327 46.8881 11.058 46.7321 11.4833C46.5761 11.9086 46.4201 12.3339 46.2761 12.7593C46.1321 13.1373 45.9881 13.3263 45.556 13.2791C45.34 13.2487 45.1437 13.2574 44.9163 13.2675C44.7901 13.2731 44.6542 13.2791 44.5 13.2791C45.1527 11.4293 45.8054 9.59561 46.4547 7.77133C47.3813 5.16808 48.3011 2.58404 49.2043 0C49.8283 0.0472565 50.4523 0.0472594 51.0764 0.0472594ZM52.5165 8.55343L52.1975 7.66719C51.498 5.72385 50.8253 3.85476 50.1163 1.843C49.6054 3.21215 49.1281 4.53173 48.6546 5.84083C48.3272 6.74574 48.0017 7.64564 47.6682 8.55343H52.5165ZM0 29.7716C0.192011 29.2517 0.384022 28.7201 0.576033 28.1885C0.768044 27.6568 0.960055 27.1252 1.15207 26.6054C2.04012 23.9827 2.92817 21.3481 3.81622 18.7136C4.70428 16.079 5.59234 13.4445 6.4804 10.8217C6.5284 10.6327 6.6244 10.3964 6.7204 10.1602L6.72041 10.1601H9.74459C10.1195 10.1601 10.1742 10.4304 10.2212 10.6631L10.2246 10.68C10.8727 12.6175 11.5327 14.5432 12.1928 16.4689C12.8528 18.3946 13.5128 20.3203 14.1609 22.2578L14.1622 22.2618C14.9778 24.6705 15.7934 27.0792 16.609 29.4408C16.657 29.6296 16.7049 29.7714 16.8008 30.0544L16.8008 30.0545L16.8008 30.0546L16.8008 30.0546L16.8009 30.0548L16.801 30.0551H13.7288C13.5848 30.0551 13.3928 29.7716 13.3448 29.5825C12.4328 26.6999 11.5207 23.77 10.6566 20.8874C9.8886 18.3355 9.07255 15.7836 8.1605 13.2318C8.1365 13.3263 8.10049 13.409 8.06449 13.4917C8.02848 13.5744 7.99248 13.6571 7.96848 13.7516C7.42446 15.5 6.87512 17.2485 6.32577 18.9969C5.22702 22.4939 4.12827 25.991 3.07218 29.488C2.92818 29.9606 2.73616 30.0551 2.25613 30.0551C1.79695 30.0269 1.35493 30.0493 0.909558 30.0719H0.909539H0.909519H0.909499H0.909479H0.909458H0.909437H0.909415H0.909393H0.90937H0.909346H0.909322H0.909297H0.909272L0.909213 30.0719C0.609742 30.0871 0.30875 30.1024 0 30.1024V29.7716ZM108.103 39.8845C107.911 39.8372 107.719 39.7952 107.527 39.7532C107.143 39.6692 106.758 39.5852 106.374 39.4592C104.07 38.7503 102.726 37.0963 102.15 34.8753C101.43 32.0872 101.382 29.299 102.054 26.5109C102.822 23.3447 104.982 21.5962 108.295 21.3599C110.791 21.1709 113.191 21.5017 115.591 22.2578C115.527 22.4941 115.463 22.7251 115.399 22.9562L115.399 22.9564C115.271 23.4184 115.143 23.8804 115.015 24.3844C114.764 24.3323 114.516 24.2766 114.27 24.2212C113.623 24.0758 112.988 23.933 112.327 23.8645C111.223 23.7228 110.167 23.6283 109.063 23.6755C106.614 23.8173 105.174 25.0459 104.646 27.4088C104.166 29.5353 104.166 31.7091 104.694 33.8829C105.414 36.8601 107.479 37.8997 110.407 37.6162C111.114 37.5292 111.78 37.2819 112.481 37.0219L112.663 36.9546C112.807 36.9073 112.999 36.671 112.999 36.5293C113.031 35.6839 113.02 34.8594 113.01 34.0143V34.014C113.004 33.5836 112.999 33.1479 112.999 32.7015H109.543V30.4332H115.591V31.2838V38.0415C115.591 38.4195 115.495 38.6086 115.111 38.7503C114.439 38.9393 113.78 39.1282 113.12 39.3171L113.119 39.3175C112.459 39.5065 111.799 39.6955 111.127 39.8845C111.079 39.8845 110.983 39.9317 110.935 39.979C110.023 39.8845 109.063 39.8845 108.103 39.8845ZM119.91 39.6482H130.902V37.4271H121.686V31.4255H129.51V29.11H121.686V23.8645H130.71V21.6434H119.094V39.6482H119.91ZM108.079 2.71731L108.079 2.71726C107.767 1.83121 107.455 0.945168 107.143 0.0473071H105.27C105.246 0.118192 105.222 0.200891 105.198 0.28359L105.198 0.284139C105.174 0.366654 105.15 0.449144 105.126 0.519872C104.574 2.10297 104.01 3.67425 103.446 5.24553C102.882 6.8168 102.318 8.38808 101.766 9.97117L101.766 9.97302L101.765 9.97398C101.382 11.0599 100.998 12.146 100.566 13.3264C100.72 13.3264 100.856 13.3204 100.982 13.3148C101.21 13.3047 101.406 13.296 101.622 13.3264C102.006 13.3736 102.198 13.2319 102.294 12.8538C102.416 12.4929 102.547 12.132 102.679 11.7675C102.859 11.2729 103.041 10.7716 103.206 10.2547C103.302 9.92391 103.494 9.82939 103.83 9.82939H108.439C108.775 9.82939 108.967 9.92391 109.063 10.2547C109.351 11.1997 109.687 12.0974 110.023 12.9952L110.023 12.9956C110.071 13.1374 110.215 13.3264 110.359 13.3264C110.645 13.3577 110.953 13.3475 111.267 13.3371C111.427 13.3318 111.589 13.3264 111.751 13.3264C111.703 13.0901 111.655 12.9011 111.607 12.7593L109.015 5.38728C108.703 4.48942 108.391 3.60336 108.079 2.71731ZM106.183 2.03207H106.327C106.582 2.75641 106.838 3.4755 107.094 4.19459C107.606 5.63355 108.119 7.0725 108.631 8.55347H103.782C104.066 7.78074 104.35 7.01945 104.632 6.26363L104.634 6.25906L104.635 6.25593L104.636 6.25365L104.636 6.25319C105.163 4.84013 105.683 3.4461 106.183 2.03207ZM19.4908 0.0472594C19.8748 1.27593 20.2588 2.50459 20.6429 3.686L27.9873 25.3767L32.5956 38.9866C32.6196 39.0811 32.6436 39.1638 32.6676 39.2465C32.6916 39.3292 32.7156 39.4119 32.7396 39.5064C31.8276 39.6482 31.8275 39.6482 31.5875 38.9394C27.2193 26.0856 22.851 13.2318 18.4827 0.330801C18.4587 0.283544 18.4467 0.224471 18.4347 0.165398L18.4347 0.165375C18.4227 0.106311 18.4107 0.0472496 18.3867 0C18.8187 0.0472565 19.1548 0.0472594 19.4908 0.0472594ZM55.5831 30.3902C55.5578 30.3748 55.5281 30.3567 55.4915 30.3387C55.5198 30.3248 55.5471 30.3118 55.5734 30.2994C55.726 30.2272 55.8487 30.169 55.9715 30.0079C57.4116 29.299 58.2276 28.1176 58.3237 26.5582C58.4197 24.8097 57.9876 23.2975 56.3555 22.3051C55.3475 21.738 54.2434 21.5017 53.0913 21.5017H45.8909C45.788 21.5017 45.6989 21.5153 45.6161 21.5279C45.5445 21.5388 45.4777 21.549 45.4108 21.549V39.5537H49.8751C50.1919 39.5537 50.5087 39.5556 50.8255 39.5575C52.0928 39.5651 53.3601 39.5726 54.6274 39.4592C56.9796 39.2702 58.4677 37.8052 58.8037 35.5369C59.1877 33.0796 58.0356 31.2838 55.6835 30.4332C55.6538 30.4332 55.6241 30.4152 55.5831 30.3902ZM54.0994 37.2381C52.0833 37.3326 50.1151 37.3799 48.051 37.4272V37.4257C48.051 35.3942 48.051 33.5044 48.003 31.5674H49.8751C50.1616 31.5674 50.4511 31.5644 50.7421 31.5615C51.6211 31.5526 52.5138 31.5436 53.3794 31.6146C55.7315 31.7564 56.9316 34.072 55.7795 36.104C55.3955 36.7656 54.8194 37.1909 54.0994 37.2381ZM48.051 29.2045V23.9118C48.6465 23.9118 49.2366 23.8959 49.8232 23.88H49.8232H49.8233H49.8233H49.8233H49.8234H49.8234H49.8235H49.8235C50.9862 23.8486 52.1348 23.8176 53.2833 23.9118C55.2995 24.1008 56.3075 26.2746 55.2995 28.0704C54.8674 28.8265 54.1474 29.1573 53.3313 29.2045C52.181 29.236 51.0094 29.2256 49.8307 29.2151L49.8303 29.2151C49.2384 29.2098 48.6447 29.2045 48.051 29.2045ZM70.9944 32.2289C71.6377 33.258 72.2809 34.2787 72.9277 35.3051C73.8255 36.7296 74.73 38.1649 75.6507 39.6482H72.8186C72.6745 39.6482 72.4825 39.4119 72.3865 39.2701C71.4441 37.7925 70.527 36.2899 69.6168 34.7986C69.2753 34.2391 68.9348 33.6812 68.5943 33.1268C68.4023 32.796 68.2103 32.6542 67.7782 32.6542C67.0477 32.6855 66.3382 32.6754 65.608 32.6649H65.608H65.6079H65.6078H65.6077H65.6076H65.6075H65.6072C65.2341 32.6596 64.8555 32.6542 64.466 32.6542V39.6009H61.9219V21.5962H62.4979H69.4583C74.9307 21.5962 75.8907 26.7944 74.4506 29.7243C73.8746 30.9057 72.8666 31.6618 71.6185 32.0399C71.3785 32.0871 71.2344 32.1344 70.9944 32.2289ZM64.418 30.3386H69.0263C69.3143 30.3386 69.6023 30.2914 69.8902 30.2441L69.8904 30.2441C70.9464 30.0551 71.7625 29.488 72.1465 28.4484C73.0586 25.991 71.6185 23.8645 68.9783 23.8645H64.9461C64.802 23.8645 64.61 23.8645 64.466 23.9118C64.418 26.0376 64.418 28.1163 64.418 30.3365V30.3386ZM84.3906 21.6434V39.6954C85.4181 39.6611 86.4393 39.6517 87.4541 39.6424C89.2366 39.6259 90.9996 39.6097 92.7431 39.4591C95.5273 39.2229 97.2554 37.4744 98.0715 34.8753C98.7915 32.5124 98.7915 30.1496 98.4555 27.7868C98.2155 26.2746 97.7354 24.8569 96.6794 23.7227C95.2393 22.116 93.3192 21.6434 91.255 21.5962H84.9186C84.8226 21.5962 84.7386 21.608 84.6546 21.6198C84.5706 21.6316 84.4866 21.6434 84.3906 21.6434ZM88.4673 37.3538C87.9767 37.3433 87.4824 37.3326 86.9828 37.3326V24.0063C87.0308 23.959 87.0788 23.9118 87.1268 23.9118C87.5129 23.9118 87.896 23.9088 88.2768 23.9058L88.2773 23.9058C89.4113 23.897 90.5252 23.8883 91.6391 23.959C93.7512 24.0535 95.1433 25.2822 95.6233 27.4087C96.1033 29.488 96.1033 31.6146 95.6233 33.6938C95.0953 36.0094 93.7512 37.1436 91.351 37.3326C90.3946 37.3954 89.4382 37.3748 88.4677 37.3538H88.4676H88.4676H88.4675H88.4674H88.4674H88.4673ZM115.111 13.3264H113.671V0.141795C113.819 0.141795 113.961 0.136268 114.099 0.130884C114.366 0.120526 114.618 0.1107 114.871 0.141795C115.063 0.189051 115.255 0.378086 115.351 0.519855C116.125 1.67103 116.905 2.82221 117.687 3.97588L117.687 3.97613L117.688 3.97713C118.992 5.90136 120.301 7.83251 121.591 9.78213C121.735 10.0184 121.927 10.2547 122.167 10.4437V0.141795H123.608V13.2791C123.46 13.2791 123.318 13.2846 123.179 13.29C122.913 13.3004 122.66 13.3102 122.407 13.2791C122.215 13.2319 121.975 13.0428 121.879 12.8538C120.824 11.2959 119.769 9.74979 118.714 8.20369L118.714 8.20342L118.711 8.19902C117.655 6.65138 116.599 5.10373 115.543 3.54427C115.504 3.48627 115.456 3.42036 115.401 3.3433L115.4 3.34198L115.399 3.34055L115.399 3.34046L115.399 3.34032C115.319 3.22961 115.223 3.09598 115.111 2.92994V13.3264ZM80.261 13.3264V7.84465H81.077C81.3891 7.84465 81.7011 7.8476 82.0131 7.85055C82.9492 7.85941 83.8852 7.86827 84.8213 7.79739C86.9334 7.65562 88.1335 6.28519 88.1815 4.11139C88.2295 1.98485 86.9814 0.378119 84.9173 0.23635C83.4799 0.13528 82.0426 0.1543 80.5879 0.17355C80.0021 0.181302 79.4135 0.189091 78.8209 0.189091V13.3264H80.261ZM81.5868 6.4897C81.1616 6.48197 80.7353 6.47421 80.309 6.47421V1.51228C80.7656 1.51228 81.2183 1.50443 81.6669 1.49664C82.7747 1.47742 83.8581 1.45862 84.9173 1.55953C86.1174 1.7013 86.7414 2.78819 86.6934 4.15863C86.6454 5.43456 85.9734 6.33244 84.7253 6.42695C83.6977 6.52811 82.6457 6.50897 81.5868 6.4897ZM78.3906 21.5962H80.8868V39.5537H78.3906V21.5962ZM57.5555 0.189027V13.3263C60.2916 13.3263 63.0278 13.3263 65.764 13.2791V12.0504H58.9956V0.189027H57.5555ZM68.2109 0.189087H69.603V12.0505H76.3715V13.3264H68.2109V0.189087ZM90.5816 0.189027V13.3263C93.3657 13.3263 96.0539 13.3263 98.838 13.2791V12.0504H92.0696V0.189027H90.5816Z" fill="url(#paint0_linear_391_804)"/>
<path fill-rule="evenodd" clip-rule="evenodd" d="M51.0764 0.0472594C52.6125 4.44211 54.1486 8.83697 55.7327 13.3263C55.5489 13.3263 55.3768 13.3321 55.2123 13.3375L55.2122 13.3375C54.9039 13.3478 54.6223 13.3571 54.3406 13.3263C54.1966 13.3263 54.0046 13.1373 53.9566 12.9483C53.6207 12.0508 53.3328 11.1533 53.0449 10.2558L53.0448 10.2558L53.0448 10.2557L53.0448 10.2557L53.0448 10.2556L53.0448 10.2556L53.0448 10.2556L53.0448 10.2555L53.0448 10.2555L53.0448 10.2554L53.0447 10.2554L53.0447 10.2553L53.0445 10.2547C52.9485 9.92387 52.8045 9.7821 52.4205 9.7821C51.3982 9.81355 50.3972 9.80314 49.3892 9.79266H49.3891C48.8825 9.78739 48.374 9.7821 47.8602 9.7821C47.4762 9.7821 47.3322 9.87661 47.1882 10.2074C47.0441 10.6327 46.8881 11.058 46.7321 11.4833C46.5761 11.9086 46.4201 12.3339 46.2761 12.7593C46.1321 13.1373 45.9881 13.3263 45.556 13.2791C45.34 13.2487 45.1437 13.2574 44.9163 13.2675C44.7901 13.2731 44.6542 13.2791 44.5 13.2791C45.1527 11.4293 45.8054 9.59561 46.4547 7.77133C47.3813 5.16808 48.3011 2.58404 49.2043 0C49.8283 0.0472565 50.4523 0.0472594 51.0764 0.0472594ZM52.5165 8.55343L52.1975 7.66719C51.498 5.72385 50.8253 3.85476 50.1163 1.843C49.6054 3.21215 49.1281 4.53173 48.6546 5.84083C48.3272 6.74574 48.0017 7.64564 47.6682 8.55343H52.5165ZM0 29.7716C0.192011 29.2517 0.384022 28.7201 0.576033 28.1885C0.768044 27.6568 0.960055 27.1252 1.15207 26.6054C2.04012 23.9827 2.92817 21.3481 3.81622 18.7136C4.70428 16.079 5.59234 13.4445 6.4804 10.8217C6.5284 10.6327 6.6244 10.3964 6.7204 10.1602L6.72041 10.1601H9.74459C10.1195 10.1601 10.1742 10.4304 10.2212 10.6631L10.2246 10.68C10.8727 12.6175 11.5327 14.5432 12.1928 16.4689C12.8528 18.3946 13.5128 20.3203 14.1609 22.2578L14.1622 22.2618C14.9778 24.6705 15.7934 27.0792 16.609 29.4408C16.657 29.6296 16.7049 29.7714 16.8008 30.0544L16.8008 30.0545L16.8008 30.0546L16.8008 30.0546L16.8009 30.0548L16.801 30.0551H13.7288C13.5848 30.0551 13.3928 29.7716 13.3448 29.5825C12.4328 26.6999 11.5207 23.77 10.6566 20.8874C9.8886 18.3355 9.07255 15.7836 8.1605 13.2318C8.1365 13.3263 8.10049 13.409 8.06449 13.4917C8.02848 13.5744 7.99248 13.6571 7.96848 13.7516C7.42446 15.5 6.87512 17.2485 6.32577 18.9969C5.22702 22.4939 4.12827 25.991 3.07218 29.488C2.92818 29.9606 2.73616 30.0551 2.25613 30.0551C1.79695 30.0269 1.35493 30.0493 0.909558 30.0719H0.909539H0.909519H0.909499H0.909479H0.909458H0.909437H0.909415H0.909393H0.90937H0.909346H0.909322H0.909297H0.909272L0.909213 30.0719C0.609742 30.0871 0.30875 30.1024 0 30.1024V29.7716ZM108.103 39.8845C107.911 39.8372 107.719 39.7952 107.527 39.7532C107.143 39.6692 106.758 39.5852 106.374 39.4592C104.07 38.7503 102.726 37.0963 102.15 34.8753C101.43 32.0872 101.382 29.299 102.054 26.5109C102.822 23.3447 104.982 21.5962 108.295 21.3599C110.791 21.1709 113.191 21.5017 115.591 22.2578C115.527 22.4941 115.463 22.7251 115.399 22.9562L115.399 22.9564C115.271 23.4184 115.143 23.8804 115.015 24.3844C114.764 24.3323 114.516 24.2766 114.27 24.2212C113.623 24.0758 112.988 23.933 112.327 23.8645C111.223 23.7228 110.167 23.6283 109.063 23.6755C106.614 23.8173 105.174 25.0459 104.646 27.4088C104.166 29.5353 104.166 31.7091 104.694 33.8829C105.414 36.8601 107.479 37.8997 110.407 37.6162C111.114 37.5292 111.78 37.2819 112.481 37.0219L112.663 36.9546C112.807 36.9073 112.999 36.671 112.999 36.5293C113.031 35.6839 113.02 34.8594 113.01 34.0143V34.014C113.004 33.5836 112.999 33.1479 112.999 32.7015H109.543V30.4332H115.591V31.2838V38.0415C115.591 38.4195 115.495 38.6086 115.111 38.7503C114.439 38.9393 113.78 39.1282 113.12 39.3171L113.119 39.3175C112.459 39.5065 111.799 39.6955 111.127 39.8845C111.079 39.8845 110.983 39.9317 110.935 39.979C110.023 39.8845 109.063 39.8845 108.103 39.8845ZM119.91 39.6482H130.902V37.4271H121.686V31.4255H129.51V29.11H121.686V23.8645H130.71V21.6434H119.094V39.6482H119.91ZM108.079 2.71731L108.079 2.71726C107.767 1.83121 107.455 0.945168 107.143 0.0473071H105.27C105.246 0.118192 105.222 0.200891 105.198 0.28359L105.198 0.284139C105.174 0.366654 105.15 0.449144 105.126 0.519872C104.574 2.10297 104.01 3.67425 103.446 5.24553C102.882 6.8168 102.318 8.38808 101.766 9.97117L101.766 9.97302L101.765 9.97398C101.382 11.0599 100.998 12.146 100.566 13.3264C100.72 13.3264 100.856 13.3204 100.982 13.3148C101.21 13.3047 101.406 13.296 101.622 13.3264C102.006 13.3736 102.198 13.2319 102.294 12.8538C102.416 12.4929 102.547 12.132 102.679 11.7675C102.859 11.2729 103.041 10.7716 103.206 10.2547C103.302 9.92391 103.494 9.82939 103.83 9.82939H108.439C108.775 9.82939 108.967 9.92391 109.063 10.2547C109.351 11.1997 109.687 12.0974 110.023 12.9952L110.023 12.9956C110.071 13.1374 110.215 13.3264 110.359 13.3264C110.645 13.3577 110.953 13.3475 111.267 13.3371C111.427 13.3318 111.589 13.3264 111.751 13.3264C111.703 13.0901 111.655 12.9011 111.607 12.7593L109.015 5.38728C108.703 4.48942 108.391 3.60336 108.079 2.71731ZM106.183 2.03207H106.327C106.582 2.75641 106.838 3.4755 107.094 4.19459C107.606 5.63355 108.119 7.0725 108.631 8.55347H103.782C104.066 7.78074 104.35 7.01945 104.632 6.26363L104.634 6.25906L104.635 6.25593L104.636 6.25365L104.636 6.25319C105.163 4.84013 105.683 3.4461 106.183 2.03207ZM19.4908 0.0472594C19.8748 1.27593 20.2588 2.50459 20.6429 3.686L27.9873 25.3767L32.5956 38.9866C32.6196 39.0811 32.6436 39.1638 32.6676 39.2465C32.6916 39.3292 32.7156 39.4119 32.7396 39.5064C31.8276 39.6482 31.8275 39.6482 31.5875 38.9394C27.2193 26.0856 22.851 13.2318 18.4827 0.330801C18.4587 0.283544 18.4467 0.224471 18.4347 0.165398L18.4347 0.165375C18.4227 0.106311 18.4107 0.0472496 18.3867 0C18.8187 0.0472565 19.1548 0.0472594 19.4908 0.0472594ZM55.5831 30.3902C55.5578 30.3748 55.5281 30.3567 55.4915 30.3387C55.5198 30.3248 55.5471 30.3118 55.5734 30.2994C55.726 30.2272 55.8487 30.169 55.9715 30.0079C57.4116 29.299 58.2276 28.1176 58.3237 26.5582C58.4197 24.8097 57.9876 23.2975 56.3555 22.3051C55.3475 21.738 54.2434 21.5017 53.0913 21.5017H45.8909C45.788 21.5017 45.6989 21.5153 45.6161 21.5279C45.5445 21.5388 45.4777 21.549 45.4108 21.549V39.5537H49.8751C50.1919 39.5537 50.5087 39.5556 50.8255 39.5575C52.0928 39.5651 53.3601 39.5726 54.6274 39.4592C56.9796 39.2702 58.4677 37.8052 58.8037 35.5369C59.1877 33.0796 58.0356 31.2838 55.6835 30.4332C55.6538 30.4332 55.6241 30.4152 55.5831 30.3902ZM54.0994 37.2381C52.0833 37.3326 50.1151 37.3799 48.051 37.4272V37.4257C48.051 35.3942 48.051 33.5044 48.003 31.5674H49.8751C50.1616 31.5674 50.4511 31.5644 50.7421 31.5615C51.6211 31.5526 52.5138 31.5436 53.3794 31.6146C55.7315 31.7564 56.9316 34.072 55.7795 36.104C55.3955 36.7656 54.8194 37.1909 54.0994 37.2381ZM48.051 29.2045V23.9118C48.6465 23.9118 49.2366 23.8959 49.8232 23.88H49.8232H49.8233H49.8233H49.8233H49.8234H49.8234H49.8235H49.8235C50.9862 23.8486 52.1348 23.8176 53.2833 23.9118C55.2995 24.1008 56.3075 26.2746 55.2995 28.0704C54.8674 28.8265 54.1474 29.1573 53.3313 29.2045C52.181 29.236 51.0094 29.2256 49.8307 29.2151L49.8303 29.2151C49.2384 29.2098 48.6447 29.2045 48.051 29.2045ZM70.9944 32.2289C71.6377 33.258 72.2809 34.2787 72.9277 35.3051C73.8255 36.7296 74.73 38.1649 75.6507 39.6482H72.8186C72.6745 39.6482 72.4825 39.4119 72.3865 39.2701C71.4441 37.7925 70.527 36.2899 69.6168 34.7986C69.2753 34.2391 68.9348 33.6812 68.5943 33.1268C68.4023 32.796 68.2103 32.6542 67.7782 32.6542C67.0477 32.6855 66.3382 32.6754 65.608 32.6649H65.608H65.6079H65.6078H65.6077H65.6076H65.6075H65.6072C65.2341 32.6596 64.8555 32.6542 64.466 32.6542V39.6009H61.9219V21.5962H62.4979H69.4583C74.9307 21.5962 75.8907 26.7944 74.4506 29.7243C73.8746 30.9057 72.8666 31.6618 71.6185 32.0399C71.3785 32.0871 71.2344 32.1344 70.9944 32.2289ZM64.418 30.3386H69.0263C69.3143 30.3386 69.6023 30.2914 69.8902 30.2441L69.8904 30.2441C70.9464 30.0551 71.7625 29.488 72.1465 28.4484C73.0586 25.991 71.6185 23.8645 68.9783 23.8645H64.9461C64.802 23.8645 64.61 23.8645 64.466 23.9118C64.418 26.0376 64.418 28.1163 64.418 30.3365V30.3386ZM84.3906 21.6434V39.6954C85.4181 39.6611 86.4393 39.6517 87.4541 39.6424C89.2366 39.6259 90.9996 39.6097 92.7431 39.4591C95.5273 39.2229 97.2554 37.4744 98.0715 34.8753C98.7915 32.5124 98.7915 30.1496 98.4555 27.7868C98.2155 26.2746 97.7354 24.8569 96.6794 23.7227C95.2393 22.116 93.3192 21.6434 91.255 21.5962H84.9186C84.8226 21.5962 84.7386 21.608 84.6546 21.6198C84.5706 21.6316 84.4866 21.6434 84.3906 21.6434ZM88.4673 37.3538C87.9767 37.3433 87.4824 37.3326 86.9828 37.3326V24.0063C87.0308 23.959 87.0788 23.9118 87.1268 23.9118C87.5129 23.9118 87.896 23.9088 88.2768 23.9058L88.2773 23.9058C89.4113 23.897 90.5252 23.8883 91.6391 23.959C93.7512 24.0535 95.1433 25.2822 95.6233 27.4087C96.1033 29.488 96.1033 31.6146 95.6233 33.6938C95.0953 36.0094 93.7512 37.1436 91.351 37.3326C90.3946 37.3954 89.4382 37.3748 88.4677 37.3538H88.4676H88.4676H88.4675H88.4674H88.4674H88.4673ZM115.111 13.3264H113.671V0.141795C113.819 0.141795 113.961 0.136268 114.099 0.130884C114.366 0.120526 114.618 0.1107 114.871 0.141795C115.063 0.189051 115.255 0.378086 115.351 0.519855C116.125 1.67103 116.905 2.82221 117.687 3.97588L117.687 3.97613L117.688 3.97713C118.992 5.90136 120.301 7.83251 121.591 9.78213C121.735 10.0184 121.927 10.2547 122.167 10.4437V0.141795H123.608V13.2791C123.46 13.2791 123.318 13.2846 123.179 13.29C122.913 13.3004 122.66 13.3102 122.407 13.2791C122.215 13.2319 121.975 13.0428 121.879 12.8538C120.824 11.2959 119.769 9.74979 118.714 8.20369L118.714 8.20342L118.711 8.19902C117.655 6.65138 116.599 5.10373 115.543 3.54427C115.504 3.48627 115.456 3.42036 115.401 3.3433L115.4 3.34198L115.399 3.34055L115.399 3.34046L115.399 3.34032C115.319 3.22961 115.223 3.09598 115.111 2.92994V13.3264ZM80.261 13.3264V7.84465H81.077C81.3891 7.84465 81.7011 7.8476 82.0131 7.85055C82.9492 7.85941 83.8852 7.86827 84.8213 7.79739C86.9334 7.65562 88.1335 6.28519 88.1815 4.11139C88.2295 1.98485 86.9814 0.378119 84.9173 0.23635C83.4799 0.13528 82.0426 0.1543 80.5879 0.17355C80.0021 0.181302 79.4135 0.189091 78.8209 0.189091V13.3264H80.261ZM81.5868 6.4897C81.1616 6.48197 80.7353 6.47421 80.309 6.47421V1.51228C80.7656 1.51228 81.2183 1.50443 81.6669 1.49664C82.7747 1.47742 83.8581 1.45862 84.9173 1.55953C86.1174 1.7013 86.7414 2.78819 86.6934 4.15863C86.6454 5.43456 85.9734 6.33244 84.7253 6.42695C83.6977 6.52811 82.6457 6.50897 81.5868 6.4897ZM78.3906 21.5962H80.8868V39.5537H78.3906V21.5962ZM57.5555 0.189027V13.3263C60.2916 13.3263 63.0278 13.3263 65.764 13.2791V12.0504H58.9956V0.189027H57.5555ZM68.2109 0.189087H69.603V12.0505H76.3715V13.3264H68.2109V0.189087ZM90.5816 0.189027V13.3263C93.3657 13.3263 96.0539 13.3263 98.838 13.2791V12.0504H92.0696V0.189027H90.5816Z" fill="#183646"/>
<path fill-rule="evenodd" clip-rule="evenodd" d="M51.0764 0.0472594C52.6125 4.44211 54.1486 8.83697 55.7327 13.3263C55.5489 13.3263 55.3768 13.3321 55.2123 13.3375L55.2122 13.3375C54.9039 13.3478 54.6223 13.3571 54.3406 13.3263C54.1966 13.3263 54.0046 13.1373 53.9566 12.9483C53.6207 12.0508 53.3328 11.1533 53.0449 10.2558L53.0448 10.2558L53.0448 10.2557L53.0448 10.2557L53.0448 10.2556L53.0448 10.2556L53.0448 10.2556L53.0448 10.2555L53.0448 10.2555L53.0448 10.2554L53.0447 10.2554L53.0447 10.2553L53.0445 10.2547C52.9485 9.92387 52.8045 9.7821 52.4205 9.7821C51.3982 9.81355 50.3972 9.80314 49.3892 9.79266H49.3891C48.8825 9.78739 48.374 9.7821 47.8602 9.7821C47.4762 9.7821 47.3322 9.87661 47.1882 10.2074C47.0441 10.6327 46.8881 11.058 46.7321 11.4833C46.5761 11.9086 46.4201 12.3339 46.2761 12.7593C46.1321 13.1373 45.9881 13.3263 45.556 13.2791C45.34 13.2487 45.1437 13.2574 44.9163 13.2675C44.7901 13.2731 44.6542 13.2791 44.5 13.2791C45.1527 11.4293 45.8054 9.59561 46.4547 7.77133C47.3813 5.16808 48.3011 2.58404 49.2043 0C49.8283 0.0472565 50.4523 0.0472594 51.0764 0.0472594ZM52.5165 8.55343L52.1975 7.66719C51.498 5.72385 50.8253 3.85476 50.1163 1.843C49.6054 3.21215 49.1281 4.53173 48.6546 5.84083C48.3272 6.74574 48.0017 7.64564 47.6682 8.55343H52.5165ZM0 29.7716C0.192011 29.2517 0.384022 28.7201 0.576033 28.1885C0.768044 27.6568 0.960055 27.1252 1.15207 26.6054C2.04012 23.9827 2.92817 21.3481 3.81622 18.7136C4.70428 16.079 5.59234 13.4445 6.4804 10.8217C6.5284 10.6327 6.6244 10.3964 6.7204 10.1602L6.72041 10.1601H9.74459C10.1195 10.1601 10.1742 10.4304 10.2212 10.6631L10.2246 10.68C10.8727 12.6175 11.5327 14.5432 12.1928 16.4689C12.8528 18.3946 13.5128 20.3203 14.1609 22.2578L14.1622 22.2618C14.9778 24.6705 15.7934 27.0792 16.609 29.4408C16.657 29.6296 16.7049 29.7714 16.8008 30.0544L16.8008 30.0545L16.8008 30.0546L16.8008 30.0546L16.8009 30.0548L16.801 30.0551H13.7288C13.5848 30.0551 13.3928 29.7716 13.3448 29.5825C12.4328 26.6999 11.5207 23.77 10.6566 20.8874C9.8886 18.3355 9.07255 15.7836 8.1605 13.2318C8.1365 13.3263 8.10049 13.409 8.06449 13.4917C8.02848 13.5744 7.99248 13.6571 7.96848 13.7516C7.42446 15.5 6.87512 17.2485 6.32577 18.9969C5.22702 22.4939 4.12827 25.991 3.07218 29.488C2.92818 29.9606 2.73616 30.0551 2.25613 30.0551C1.79695 30.0269 1.35493 30.0493 0.909558 30.0719H0.909539H0.909519H0.909499H0.909479H0.909458H0.909437H0.909415H0.909393H0.90937H0.909346H0.909322H0.909297H0.909272L0.909213 30.0719C0.609742 30.0871 0.30875 30.1024 0 30.1024V29.7716ZM108.103 39.8845C107.911 39.8372 107.719 39.7952 107.527 39.7532C107.143 39.6692 106.758 39.5852 106.374 39.4592C104.07 38.7503 102.726 37.0963 102.15 34.8753C101.43 32.0872 101.382 29.299 102.054 26.5109C102.822 23.3447 104.982 21.5962 108.295 21.3599C110.791 21.1709 113.191 21.5017 115.591 22.2578C115.527 22.4941 115.463 22.7251 115.399 22.9562L115.399 22.9564C115.271 23.4184 115.143 23.8804 115.015 24.3844C114.764 24.3323 114.516 24.2766 114.27 24.2212C113.623 24.0758 112.988 23.933 112.327 23.8645C111.223 23.7228 110.167 23.6283 109.063 23.6755C106.614 23.8173 105.174 25.0459 104.646 27.4088C104.166 29.5353 104.166 31.7091 104.694 33.8829C105.414 36.8601 107.479 37.8997 110.407 37.6162C111.114 37.5292 111.78 37.2819 112.481 37.0219L112.663 36.9546C112.807 36.9073 112.999 36.671 112.999 36.5293C113.031 35.6839 113.02 34.8594 113.01 34.0143V34.014C113.004 33.5836 112.999 33.1479 112.999 32.7015H109.543V30.4332H115.591V31.2838V38.0415C115.591 38.4195 115.495 38.6086 115.111 38.7503C114.439 38.9393 113.78 39.1282 113.12 39.3171L113.119 39.3175C112.459 39.5065 111.799 39.6955 111.127 39.8845C111.079 39.8845 110.983 39.9317 110.935 39.979C110.023 39.8845 109.063 39.8845 108.103 39.8845ZM119.91 39.6482H130.902V37.4271H121.686V31.4255H129.51V29.11H121.686V23.8645H130.71V21.6434H119.094V39.6482H119.91ZM108.079 2.71731L108.079 2.71726C107.767 1.83121 107.455 0.945168 107.143 0.0473071H105.27C105.246 0.118192 105.222 0.200891 105.198 0.28359L105.198 0.284139C105.174 0.366654 105.15 0.449144 105.126 0.519872C104.574 2.10297 104.01 3.67425 103.446 5.24553C102.882 6.8168 102.318 8.38808 101.766 9.97117L101.766 9.97302L101.765 9.97398C101.382 11.0599 100.998 12.146 100.566 13.3264C100.72 13.3264 100.856 13.3204 100.982 13.3148C101.21 13.3047 101.406 13.296 101.622 13.3264C102.006 13.3736 102.198 13.2319 102.294 12.8538C102.416 12.4929 102.547 12.132 102.679 11.7675C102.859 11.2729 103.041 10.7716 103.206 10.2547C103.302 9.92391 103.494 9.82939 103.83 9.82939H108.439C108.775 9.82939 108.967 9.92391 109.063 10.2547C109.351 11.1997 109.687 12.0974 110.023 12.9952L110.023 12.9956C110.071 13.1374 110.215 13.3264 110.359 13.3264C110.645 13.3577 110.953 13.3475 111.267 13.3371C111.427 13.3318 111.589 13.3264 111.751 13.3264C111.703 13.0901 111.655 12.9011 111.607 12.7593L109.015 5.38728C108.703 4.48942 108.391 3.60336 108.079 2.71731ZM106.183 2.03207H106.327C106.582 2.75641 106.838 3.4755 107.094 4.19459C107.606 5.63355 108.119 7.0725 108.631 8.55347H103.782C104.066 7.78074 104.35 7.01945 104.632 6.26363L104.634 6.25906L104.635 6.25593L104.636 6.25365L104.636 6.25319C105.163 4.84013 105.683 3.4461 106.183 2.03207ZM19.4908 0.0472594C19.8748 1.27593 20.2588 2.50459 20.6429 3.686L27.9873 25.3767L32.5956 38.9866C32.6196 39.0811 32.6436 39.1638 32.6676 39.2465C32.6916 39.3292 32.7156 39.4119 32.7396 39.5064C31.8276 39.6482 31.8275 39.6482 31.5875 38.9394C27.2193 26.0856 22.851 13.2318 18.4827 0.330801C18.4587 0.283544 18.4467 0.224471 18.4347 0.165398L18.4347 0.165375C18.4227 0.106311 18.4107 0.0472496 18.3867 0C18.8187 0.0472565 19.1548 0.0472594 19.4908 0.0472594ZM55.5831 30.3902C55.5578 30.3748 55.5281 30.3567 55.4915 30.3387C55.5198 30.3248 55.5471 30.3118 55.5734 30.2994C55.726 30.2272 55.8487 30.169 55.9715 30.0079C57.4116 29.299 58.2276 28.1176 58.3237 26.5582C58.4197 24.8097 57.9876 23.2975 56.3555 22.3051C55.3475 21.738 54.2434 21.5017 53.0913 21.5017H45.8909C45.788 21.5017 45.6989 21.5153 45.6161 21.5279C45.5445 21.5388 45.4777 21.549 45.4108 21.549V39.5537H49.8751C50.1919 39.5537 50.5087 39.5556 50.8255 39.5575C52.0928 39.5651 53.3601 39.5726 54.6274 39.4592C56.9796 39.2702 58.4677 37.8052 58.8037 35.5369C59.1877 33.0796 58.0356 31.2838 55.6835 30.4332C55.6538 30.4332 55.6241 30.4152 55.5831 30.3902ZM54.0994 37.2381C52.0833 37.3326 50.1151 37.3799 48.051 37.4272V37.4257C48.051 35.3942 48.051 33.5044 48.003 31.5674H49.8751C50.1616 31.5674 50.4511 31.5644 50.7421 31.5615C51.6211 31.5526 52.5138 31.5436 53.3794 31.6146C55.7315 31.7564 56.9316 34.072 55.7795 36.104C55.3955 36.7656 54.8194 37.1909 54.0994 37.2381ZM48.051 29.2045V23.9118C48.6465 23.9118 49.2366 23.8959 49.8232 23.88H49.8232H49.8233H49.8233H49.8233H49.8234H49.8234H49.8235H49.8235C50.9862 23.8486 52.1348 23.8176 53.2833 23.9118C55.2995 24.1008 56.3075 26.2746 55.2995 28.0704C54.8674 28.8265 54.1474 29.1573 53.3313 29.2045C52.181 29.236 51.0094 29.2256 49.8307 29.2151L49.8303 29.2151C49.2384 29.2098 48.6447 29.2045 48.051 29.2045ZM70.9944 32.2289C71.6377 33.258 72.2809 34.2787 72.9277 35.3051C73.8255 36.7296 74.73 38.1649 75.6507 39.6482H72.8186C72.6745 39.6482 72.4825 39.4119 72.3865 39.2701C71.4441 37.7925 70.527 36.2899 69.6168 34.7986C69.2753 34.2391 68.9348 33.6812 68.5943 33.1268C68.4023 32.796 68.2103 32.6542 67.7782 32.6542C67.0477 32.6855 66.3382 32.6754 65.608 32.6649H65.608H65.6079H65.6078H65.6077H65.6076H65.6075H65.6072C65.2341 32.6596 64.8555 32.6542 64.466 32.6542V39.6009H61.9219V21.5962H62.4979H69.4583C74.9307 21.5962 75.8907 26.7944 74.4506 29.7243C73.8746 30.9057 72.8666 31.6618 71.6185 32.0399C71.3785 32.0871 71.2344 32.1344 70.9944 32.2289ZM64.418 30.3386H69.0263C69.3143 30.3386 69.6023 30.2914 69.8902 30.2441L69.8904 30.2441C70.9464 30.0551 71.7625 29.488 72.1465 28.4484C73.0586 25.991 71.6185 23.8645 68.9783 23.8645H64.9461C64.802 23.8645 64.61 23.8645 64.466 23.9118C64.418 26.0376 64.418 28.1163 64.418 30.3365V30.3386ZM84.3906 21.6434V39.6954C85.4181 39.6611 86.4393 39.6517 87.4541 39.6424C89.2366 39.6259 90.9996 39.6097 92.7431 39.4591C95.5273 39.2229 97.2554 37.4744 98.0715 34.8753C98.7915 32.5124 98.7915 30.1496 98.4555 27.7868C98.2155 26.2746 97.7354 24.8569 96.6794 23.7227C95.2393 22.116 93.3192 21.6434 91.255 21.5962H84.9186C84.8226 21.5962 84.7386 21.608 84.6546 21.6198C84.5706 21.6316 84.4866 21.6434 84.3906 21.6434ZM88.4673 37.3538C87.9767 37.3433 87.4824 37.3326 86.9828 37.3326V24.0063C87.0308 23.959 87.0788 23.9118 87.1268 23.9118C87.5129 23.9118 87.896 23.9088 88.2768 23.9058L88.2773 23.9058C89.4113 23.897 90.5252 23.8883 91.6391 23.959C93.7512 24.0535 95.1433 25.2822 95.6233 27.4087C96.1033 29.488 96.1033 31.6146 95.6233 33.6938C95.0953 36.0094 93.7512 37.1436 91.351 37.3326C90.3946 37.3954 89.4382 37.3748 88.4677 37.3538H88.4676H88.4676H88.4675H88.4674H88.4674H88.4673ZM115.111 13.3264H113.671V0.141795C113.819 0.141795 113.961 0.136268 114.099 0.130884C114.366 0.120526 114.618 0.1107 114.871 0.141795C115.063 0.189051 115.255 0.378086 115.351 0.519855C116.125 1.67103 116.905 2.82221 117.687 3.97588L117.687 3.97613L117.688 3.97713C118.992 5.90136 120.301 7.83251 121.591 9.78213C121.735 10.0184 121.927 10.2547 122.167 10.4437V0.141795H123.608V13.2791C123.46 13.2791 123.318 13.2846 123.179 13.29C122.913 13.3004 122.66 13.3102 122.407 13.2791C122.215 13.2319 121.975 13.0428 121.879 12.8538C120.824 11.2959 119.769 9.74979 118.714 8.20369L118.714 8.20342L118.711 8.19902C117.655 6.65138 116.599 5.10373 115.543 3.54427C115.504 3.48627 115.456 3.42036 115.401 3.3433L115.4 3.34198L115.399 3.34055L115.399 3.34046L115.399 3.34032C115.319 3.22961 115.223 3.09598 115.111 2.92994V13.3264ZM80.261 13.3264V7.84465H81.077C81.3891 7.84465 81.7011 7.8476 82.0131 7.85055C82.9492 7.85941 83.8852 7.86827 84.8213 7.79739C86.9334 7.65562 88.1335 6.28519 88.1815 4.11139C88.2295 1.98485 86.9814 0.378119 84.9173 0.23635C83.4799 0.13528 82.0426 0.1543 80.5879 0.17355C80.0021 0.181302 79.4135 0.189091 78.8209 0.189091V13.3264H80.261ZM81.5868 6.4897C81.1616 6.48197 80.7353 6.47421 80.309 6.47421V1.51228C80.7656 1.51228 81.2183 1.50443 81.6669 1.49664C82.7747 1.47742 83.8581 1.45862 84.9173 1.55953C86.1174 1.7013 86.7414 2.78819 86.6934 4.15863C86.6454 5.43456 85.9734 6.33244 84.7253 6.42695C83.6977 6.52811 82.6457 6.50897 81.5868 6.4897ZM78.3906 21.5962H80.8868V39.5537H78.3906V21.5962ZM57.5555 0.189027V13.3263C60.2916 13.3263 63.0278 13.3263 65.764 13.2791V12.0504H58.9956V0.189027H57.5555ZM68.2109 0.189087H69.603V12.0505H76.3715V13.3264H68.2109V0.189087ZM90.5816 0.189027V13.3263C93.3657 13.3263 96.0539 13.3263 98.838 13.2791V12.0504H92.0696V0.189027H90.5816Z" fill="#005B8B"/>
<defs>
<linearGradient id="paint0_linear_391_804" x1="130.998" y1="39.9995" x2="57.6705" y2="87.0057" gradientUnits="userSpaceOnUse">
<stop offset="1" stop-color="#9002FF"/>
</linearGradient>
</defs>
</svg>
