<svg width="180" height="56" viewBox="0 0 180 56" fill="none" xmlns="http://www.w3.org/2000/svg">
<path fill-rule="evenodd" clip-rule="evenodd" d="M70.2341 0.0661631C72.333 6.21896 74.432 12.3718 76.5965 18.6569C76.3454 18.6569 76.1102 18.6649 75.8853 18.6725C75.4641 18.6869 75.0792 18.7 74.6944 18.6569C74.4976 18.6569 74.2352 18.3922 74.1696 18.1276C73.7106 16.8711 73.3172 15.6146 72.9238 14.3581L72.9234 14.3565C72.7922 13.8934 72.5954 13.6949 72.0707 13.6949C70.6738 13.739 69.306 13.7244 67.9286 13.7097C67.2363 13.7023 66.5416 13.6949 65.8395 13.6949C65.3147 13.6949 65.1179 13.8273 64.9212 14.2904C64.7246 14.8852 64.5117 15.48 64.2987 16.0748L64.2982 16.0763L64.298 16.0767C64.0848 16.6721 63.8717 17.2675 63.6749 17.863C63.4781 18.3922 63.2813 18.6569 62.691 18.5907C62.3958 18.5482 62.1276 18.5603 61.8169 18.5744C61.6444 18.5823 61.4587 18.5907 61.248 18.5907C62.1399 16.001 63.0318 13.4337 63.9191 10.8796L63.9192 10.8793L63.921 10.8741L63.9213 10.8732C65.1866 7.23093 66.4427 3.61547 67.676 0C68.5287 0.0661591 69.3814 0.0661631 70.2341 0.0661631ZM72.2018 11.9748L71.7661 10.7343L71.765 10.731C70.8096 8.01145 69.8906 5.39563 68.9222 2.5802C68.2243 4.49669 67.5721 6.34382 66.9252 8.17625L66.9248 8.17729L66.9243 8.17882L66.9228 8.18289C66.4763 9.44783 66.0321 10.7058 65.5771 11.9748H72.2018ZM0.444336 41.6802C0.706703 40.9524 0.969069 40.2082 1.23144 39.4639C1.4938 38.7196 1.75617 37.9753 2.01854 37.2475C3.23195 33.5758 4.44537 29.8875 5.65878 26.1993L5.65894 26.1988C6.87237 22.5105 8.0858 18.8222 9.29923 15.1504C9.3648 14.8858 9.49597 14.5551 9.62714 14.2243L9.62714 14.2243L9.62714 14.2243L9.62714 14.2243L9.62715 14.2243L9.62715 14.2243L9.62715 14.2243L9.62716 14.2243L9.62716 14.2243L9.62716 14.2242L9.62716 14.2242L9.62717 14.2242L9.62717 14.2242L9.62717 14.2242L9.62719 14.2242H13.7595C14.2718 14.2242 14.3464 14.6025 14.4107 14.9283L14.4154 14.9519C15.3009 17.6645 16.2028 20.3605 17.1047 23.0565C18.0065 25.7524 18.9084 28.4484 19.7939 31.1609L19.7955 31.1656L19.7955 31.1657L19.7955 31.1658L19.7958 31.1667C20.9102 34.5389 22.0247 37.911 23.1391 41.2171C23.2046 41.4816 23.2702 41.68 23.4012 42.0765L23.4015 42.0772H19.2036C19.0068 42.0772 18.7444 41.6802 18.6788 41.4156C17.4326 37.3799 16.1864 33.278 15.0057 29.2423C13.9562 25.6697 12.8412 22.0971 11.5949 18.5245C11.5621 18.6568 11.5129 18.7726 11.4637 18.8884C11.4146 19.0042 11.3654 19.12 11.3326 19.2523C10.5892 21.7001 9.83858 24.1479 9.08795 26.5956L9.08793 26.5957C7.58659 31.4915 6.08525 36.3874 4.64221 41.2832C4.44543 41.9448 4.18306 42.0772 3.52714 42.0772C2.89983 42.0376 2.29596 42.069 1.6875 42.1007H1.68745H1.6874H1.68736H1.6873H1.68725H1.6872H1.68714H1.68709H1.68703H1.68697H1.68692H1.68685H1.68679C1.27756 42.1219 0.866249 42.1433 0.444336 42.1433V41.6802ZM147.37 55.6545L147.37 55.6544C146.845 55.5368 146.32 55.4192 145.796 55.2428C142.647 54.2504 140.811 51.9348 140.024 48.8253C139.04 44.922 138.974 41.0186 139.893 37.1152C140.942 32.6825 143.894 30.2347 148.419 29.9039C151.83 29.6392 155.11 30.1023 158.389 31.1609C158.302 31.4916 158.215 31.8149 158.127 32.1383C157.952 32.7853 157.777 33.4322 157.602 34.138C157.259 34.0651 156.92 33.9871 156.584 33.9097C155.7 33.7061 154.832 33.5061 153.929 33.4103C152.421 33.2118 150.978 33.0795 149.469 33.1457C146.124 33.3441 144.156 35.0643 143.434 38.3722C142.779 41.3494 142.779 44.3927 143.5 47.436C144.484 51.604 147.304 53.0595 151.305 52.6626C152.272 52.5408 153.182 52.1946 154.14 51.8306L154.388 51.7364C154.585 51.6702 154.847 51.3394 154.847 51.1409C154.891 49.9573 154.877 48.8028 154.862 47.6195V47.6194V47.6193V47.6192V47.619V47.6189V47.6187V47.6186V47.6185V47.6184V47.6183V47.6181V47.618V47.6178C154.855 47.0159 154.847 46.4065 154.847 45.782H150.125V42.6064H158.389V43.7973V53.258C158.389 53.7873 158.258 54.0519 157.733 54.2504C156.816 54.5148 155.915 54.7793 155.013 55.0437L155.013 55.0438L155.013 55.0439L155.012 55.044L155.012 55.0441L155.012 55.0443L155.011 55.0444L155.011 55.0445C154.109 55.3091 153.207 55.5736 152.289 55.8382C152.224 55.8382 152.093 55.9044 152.027 55.9705C150.781 55.8382 149.469 55.8382 148.157 55.8382C147.895 55.7721 147.633 55.7133 147.37 55.6545ZM164.292 55.5076H179.313V52.3981H166.719V43.9959H177.411V40.7541H166.719V33.4104H179.051V30.301H163.177V55.5076H164.292ZM148.124 3.80254L148.121 3.7938L148.121 3.79368C147.696 2.55657 147.27 1.31942 146.845 0.0658121H144.287C144.255 0.164726 144.222 0.280071 144.189 0.39547V0.395479L144.189 0.396466L144.189 0.396607C144.156 0.512386 144.123 0.628164 144.09 0.727403C143.336 2.94373 142.565 5.14352 141.795 7.34332C141.024 9.5431 140.253 11.7429 139.499 13.9592L139.499 13.9595C138.974 15.4811 138.449 17.0026 137.859 18.6565C138.07 18.6565 138.256 18.6481 138.428 18.6403C138.739 18.6261 139.007 18.614 139.302 18.6565C139.827 18.7227 140.089 18.5242 140.22 17.9949C140.386 17.4956 140.562 16.9962 140.74 16.492L140.741 16.489L140.743 16.4834L140.745 16.4803L140.747 16.4744L140.747 16.4741L140.747 16.4738L140.747 16.4735C140.992 15.7812 141.24 15.0797 141.467 14.3562C141.598 13.8931 141.86 13.7607 142.319 13.7607H148.616C149.075 13.7607 149.338 13.8931 149.469 14.3562C149.863 15.6794 150.322 16.9364 150.781 18.1934C150.846 18.3919 151.043 18.6565 151.24 18.6565C151.631 18.7004 152.051 18.6861 152.481 18.6715C152.7 18.664 152.921 18.6565 153.142 18.6565C153.076 18.3257 153.011 18.0611 152.945 17.8626L149.403 7.54178C148.977 6.28477 148.551 5.0443 148.124 3.80383L148.124 3.80254ZM145.533 2.84448H145.73C146.08 3.85886 146.43 4.86589 146.78 5.87293C147.479 7.88716 148.179 9.9014 148.879 11.9744H142.254C142.643 10.8881 143.033 9.81787 143.42 8.75535C144.14 6.77662 144.851 4.82455 145.533 2.84448ZM27.0747 0.0661631C27.5994 1.7863 28.1242 3.50642 28.6489 5.1604L38.6844 35.5274L44.9812 54.5813C45.014 54.7134 45.0468 54.8291 45.0796 54.9447L45.0796 54.9448L45.0796 54.9448L45.0796 54.9449L45.0796 54.9451C45.1124 55.0609 45.1453 55.1767 45.1781 55.309C43.9318 55.5075 43.9318 55.5075 43.6038 54.5151C37.635 36.5198 31.6661 18.5246 25.6973 0.463122C25.6645 0.396963 25.6481 0.314262 25.6317 0.231561L25.6317 0.231537C25.6153 0.148844 25.5989 0.0661527 25.5661 0C26.1564 0.0661591 26.6155 0.0661631 27.0747 0.0661631ZM76.3937 42.546L76.3936 42.5459C76.359 42.5243 76.3185 42.4991 76.2685 42.4739C76.2887 42.4636 76.3086 42.4538 76.3282 42.4442L76.3805 42.4188C76.5889 42.3177 76.7566 42.2363 76.9244 42.0107C78.8921 41.0184 80.0072 39.3644 80.1384 37.1811C80.2696 34.7333 79.6792 32.6162 77.4491 31.2268C76.0717 30.4329 74.5631 30.1021 72.9889 30.1021H63.1501C63.0095 30.1021 62.8877 30.1211 62.7747 30.1387C62.6768 30.154 62.5855 30.1683 62.4942 30.1683V55.3749H68.5942C69.0271 55.3749 69.46 55.3775 69.8928 55.3802C71.6245 55.3908 73.3562 55.4014 75.0878 55.2426C78.3018 54.9779 80.3352 52.927 80.7943 49.7514C81.319 46.3111 79.7448 43.797 76.5308 42.6062C76.4903 42.6062 76.4498 42.5809 76.3937 42.546ZM74.3663 52.1331C71.6115 52.2654 68.9222 52.3316 66.1017 52.3977V52.3958C66.1017 49.5517 66.1017 46.9059 66.0362 44.194H68.5942C68.9855 44.194 69.3809 44.1899 69.7783 44.1858L69.7789 44.1858C70.98 44.1734 72.1998 44.1607 73.3824 44.2602C76.5964 44.4586 78.2362 47.7004 76.662 50.5453C76.1373 51.4715 75.3502 52.0669 74.3663 52.1331ZM66.1017 40.886V33.4762C66.9152 33.4762 67.7213 33.4539 68.5225 33.4317H68.5226H68.5228H68.5229H68.5231H68.5233H68.5234H68.5236H68.5237H68.5238H68.5239H68.5239H68.524H68.5241H68.5241C70.1127 33.3877 71.682 33.3443 73.2513 33.4762C76.0061 33.7409 77.3835 36.7842 76.0061 39.2982C75.4158 40.3568 74.4319 40.8199 73.3168 40.886C71.7452 40.9301 70.1445 40.9155 68.5341 40.9008H68.534H68.5339H68.5339H68.5338H68.5337H68.5337H68.5336H68.5335H68.5333H68.5331H68.533H68.5328H68.5326H68.5324H68.5322H68.5321C67.7236 40.8934 66.9127 40.886 66.1017 40.886ZM100.094 49.4243L100.096 49.4274C101.323 51.4217 102.559 53.4312 103.817 55.5077H99.9471C99.7504 55.5077 99.488 55.1769 99.3568 54.9784C98.069 52.9098 96.8159 50.8062 95.5723 48.7185C95.1056 47.9351 94.6403 47.1539 94.175 46.3777C93.9127 45.9146 93.6503 45.7161 93.06 45.7161C92.0617 45.7599 91.092 45.7457 90.0941 45.7312H90.094H90.0939H90.0938H90.0937H90.0936H90.0936H90.0935L90.0929 45.7311C89.5833 45.7237 89.0662 45.7161 88.5341 45.7161V55.4415H85.0578V30.2349H85.8449H95.3557C102.833 30.2349 104.145 37.5124 102.177 41.6143C101.39 43.2682 100.013 44.3268 98.3073 44.8561C97.9794 44.9222 97.7826 44.9884 97.4546 45.1207C98.3314 46.5579 99.2082 47.9835 100.09 49.4168L100.09 49.4178L100.091 49.4187L100.094 49.4243ZM88.4686 42.4743H94.7654C95.1589 42.4743 95.5524 42.4082 95.9459 42.342L95.946 42.342C97.389 42.0774 98.5041 41.2835 99.0288 39.828C100.275 36.3877 98.3073 33.4105 94.6998 33.4105H89.1901C88.9933 33.4105 88.7309 33.4105 88.5341 33.4767C88.4686 36.4532 88.4686 39.3635 88.4686 42.4722V42.4743ZM115.755 30.3011V55.5738C117.158 55.5258 118.553 55.5127 119.94 55.4996H119.94H119.94H119.94H119.94H119.941H119.941C122.376 55.4766 124.785 55.4538 127.168 55.243C130.972 54.9123 133.333 52.4644 134.448 48.8256C135.432 45.5177 135.432 42.2097 134.973 38.9017C134.645 36.7847 133.989 34.7999 132.546 33.2121C130.579 30.9627 127.955 30.3011 125.134 30.2349H116.476C116.345 30.2349 116.23 30.2515 116.116 30.268C116.001 30.2845 115.886 30.3011 115.755 30.3011ZM121.325 52.2956C120.655 52.2808 119.979 52.2659 119.297 52.2659V33.609C119.362 33.5429 119.428 33.4767 119.494 33.4767C120.02 33.4767 120.543 33.4725 121.063 33.4684L121.063 33.4684H121.064H121.065H121.066C122.615 33.456 124.137 33.4438 125.659 33.5429C128.545 33.6752 130.447 35.3953 131.103 38.3725C131.759 41.2835 131.759 44.2606 131.103 47.1716C130.382 50.4134 128.545 52.0013 125.266 52.2659C123.959 52.3538 122.651 52.3249 121.325 52.2956ZM157.733 18.6566H155.766V0.198222C155.968 0.198222 156.162 0.190484 156.351 0.182947C156.715 0.168446 157.06 0.154689 157.406 0.198222C157.668 0.264381 157.93 0.529029 158.061 0.727507C159.118 2.33911 160.185 3.95071 161.253 5.56579L161.253 5.56593L161.254 5.56632L161.254 5.5672C163.036 8.26129 164.825 10.9651 166.588 13.6947C166.785 14.0255 167.048 14.3563 167.376 14.6209V0.198222H169.343V18.5905C169.141 18.5905 168.947 18.5982 168.758 18.6057C168.394 18.6202 168.049 18.634 167.703 18.5905C167.441 18.5243 167.113 18.2597 166.982 17.995C165.539 15.8118 164.096 13.6451 162.653 11.4784C161.21 9.31165 159.767 7.14494 158.324 4.96169C158.269 4.87945 158.204 4.78586 158.127 4.67621C158.018 4.52121 157.887 4.33411 157.733 4.10162V18.6566ZM110.114 18.6572V10.9828H111.229C111.655 10.9828 112.082 10.9869 112.508 10.991C113.787 11.0034 115.066 11.0158 116.345 10.9166C119.231 10.7181 120.871 8.79952 120.937 5.7562C121.002 2.77904 119.297 0.529623 116.476 0.331146C114.512 0.189647 112.548 0.216275 110.561 0.243225C109.76 0.254078 108.956 0.264982 108.146 0.264982V18.6572H110.114ZM111.926 9.08584C111.345 9.07501 110.762 9.06416 110.18 9.06416V2.11745C110.804 2.11745 111.422 2.10645 112.035 2.09556C113.549 2.06865 115.029 2.04233 116.476 2.18359C118.116 2.38207 118.969 3.90373 118.903 5.82234C118.838 7.60864 117.919 8.86567 116.214 8.99799C114.81 9.13961 113.373 9.11282 111.926 9.08584ZM107.556 30.2349H110.967V55.3754H107.556V30.2349ZM79.0887 0.264519V18.6568C82.8275 18.6568 86.5662 18.6568 90.3049 18.5906V16.8705H81.0565V0.264519H79.0887ZM93.6501 0.264519H95.5523V16.8705H104.801V18.6568H93.6501V0.264519ZM124.216 0.264519V18.6568C128.02 18.6568 131.693 18.6568 135.498 18.5906V16.8705H126.249V0.264519H124.216Z" fill="white"/>
</svg>
