<svg width="288" height="42" viewBox="0 0 288 42" fill="none" xmlns="http://www.w3.org/2000/svg">
<path fill-rule="evenodd" clip-rule="evenodd" d="M23.7975 0.0501483C24.2039 1.35392 24.6104 2.65769 25.0169 3.91132L32.7904 26.928L37.6679 41.3698C37.6934 41.4701 37.7188 41.5578 37.7442 41.6456C37.7696 41.7333 37.795 41.8211 37.8204 41.9214C36.855 42.0718 36.855 42.0718 36.601 41.3196C31.9775 27.6801 27.354 14.0407 22.7305 0.351023C22.7051 0.300877 22.6924 0.238194 22.6797 0.175511C22.667 0.112828 22.6543 0.0501452 22.6289 0C23.0862 0.0501452 23.4418 0.0501483 23.7975 0.0501483ZM15.6141 14H19.5V13.4885H16.5224L18.111 12.0556C18.8551 11.3848 19.2271 10.8067 19.2271 10.3211C19.2271 9.92141 19.0669 9.60185 18.7464 9.36247C18.426 9.12082 17.9902 9 17.4389 9C16.8496 9 16.3785 9.14002 16.0255 9.42005C15.6752 9.70009 15.5 10.0671 15.5 10.521H16.2536C16.2536 10.2048 16.3568 9.95867 16.5631 9.78252C16.7722 9.60411 17.0642 9.5149 17.4389 9.5149C17.7512 9.5149 18.001 9.59733 18.1884 9.7622C18.3758 9.92705 18.4695 10.1382 18.4695 10.3957C18.4695 10.5876 18.4111 10.7739 18.2943 10.9546C18.1803 11.133 17.9712 11.3656 17.667 11.6524L15.6141 13.5495V14ZM0 11.1702L1.18099 13.2287H4.85303C7.2394 13.2287 9.09369 13.9628 10.4159 15.4309C11.7488 16.899 12.4152 18.9893 12.4152 21.7022V23.0585C12.4152 25.6968 11.7864 27.7447 10.5288 29.2021C9.2818 30.6702 7.50814 31.4149 5.20775 31.4362H3.26391L4 33.4999L5.20227 33.5106C7.24467 33.5106 8.8465 33.0638 10.4159 32.1702C11.9853 31.2766 12.8424 30.2447 13.6916 28.5957C14.5516 26.9468 15.0213 24.9255 15.0321 22.7872V21.7022C15.0321 19.5107 14.5516 17.7341 13.6916 16.0851C12.8425 14.4362 12.0068 13.3936 10.4159 12.5106C8.8357 11.6277 7.31463 11.1915 5.20775 11.1702H0ZM23.9064 28.6337C22.5057 28.254 21.4849 27.7888 20.844 27.238C20.2089 26.6818 19.8913 25.9973 19.8913 25.1845C19.8913 24.2647 20.2798 23.5053 21.0567 22.9064C21.8393 22.3021 22.8544 22 24.1021 22C24.9527 22 25.7098 22.1551 26.3734 22.4652C27.0425 22.7754 27.5586 23.2032 27.9216 23.7487C28.2902 24.2941 28.4745 24.8904 28.4745 25.5374H26.8327C26.8327 24.8316 26.5945 24.2781 26.1182 23.877C25.6418 23.4706 24.9698 23.2674 24.1021 23.2674C23.2968 23.2674 22.6673 23.4358 22.2136 23.7727C21.7656 24.1043 21.5416 24.5668 21.5416 25.1604C21.5416 25.6364 21.7543 26.0401 22.1796 26.3717C22.6106 26.6979 23.3393 26.9973 24.3658 27.2701C25.3979 27.5428 26.2032 27.8449 26.7817 28.1765C27.3658 28.5027 27.7968 28.885 28.0747 29.3235C28.3582 29.762 28.5 30.2781 28.5 30.8717C28.5 31.8182 28.1087 32.5775 27.3261 33.1497C26.5435 33.7166 25.4972 34 24.1871 34C23.3365 34 22.5425 33.8476 21.8053 33.5428C21.0681 33.2326 20.4981 32.8101 20.0955 32.2754C19.6985 31.7406 19.5 31.1337 19.5 30.4545H21.1418C21.1418 31.1604 21.4168 31.7193 21.9669 32.131C22.5227 32.5374 23.2628 32.7406 24.1871 32.7406C25.0492 32.7406 25.7098 32.5749 26.1692 32.2433C26.6285 31.9118 26.8582 31.4599 26.8582 30.8877C26.8582 30.3155 26.6456 29.8743 26.2202 29.5642C25.7949 29.2487 25.0236 28.9385 23.9064 28.6337ZM49.7344 22.9375V40H54.6445C56.1836 40 57.5469 39.668 58.7344 39.0039C59.9297 38.3398 60.8477 37.3945 61.4883 36.168C62.1367 34.9414 62.4609 33.5195 62.4609 31.9023V31.0469C62.4609 29.4531 62.1406 28.0391 61.5 26.8047C60.8594 25.5703 59.9531 24.6172 58.7812 23.9453C57.6172 23.2734 56.2812 22.9375 54.7734 22.9375H49.7344ZM52.6992 37.6328V25.3281H54.7734C56.3047 25.3281 57.4727 25.8164 58.2773 26.793C59.082 27.7695 59.4844 29.1836 59.4844 31.0352V31.9844C59.4688 33.8047 59.043 35.2031 58.207 36.1797C57.3789 37.1484 56.1875 37.6328 54.6328 37.6328H52.6992ZM72.0989 32.3828H79.1067V30.0391H72.0989V25.3281H80.2083V22.9375H69.1341V40H80.2903V37.6328H72.0989V32.3828ZM94.5455 33.8711C95.0767 34.2773 95.3423 34.8555 95.3423 35.6055C95.3423 36.293 95.0806 36.8477 94.5572 37.2695C94.0416 37.6836 93.2681 37.8906 92.2369 37.8906C91.0416 37.8906 90.1236 37.625 89.483 37.0938C88.8423 36.5625 88.522 35.8125 88.522 34.8438H85.5572C85.5572 35.9141 85.8423 36.8516 86.4127 37.6562C86.9908 38.4609 87.7955 39.0938 88.8267 39.5547C89.8658 40.0078 91.0025 40.2344 92.2369 40.2344C94.1041 40.2344 95.5806 39.8164 96.6666 38.9805C97.7603 38.1367 98.3072 37.0039 98.3072 35.582C98.3072 34.707 98.1197 33.9453 97.7447 33.2969C97.3697 32.6406 96.7798 32.0625 95.9752 31.5625C95.1705 31.0547 94.1041 30.6055 92.7759 30.2148C91.4478 29.8164 90.4947 29.4102 89.9166 28.9961C89.3384 28.5742 89.0494 28.0508 89.0494 27.4258C89.0494 26.6836 89.315 26.1055 89.8463 25.6914C90.3853 25.2773 91.1392 25.0703 92.108 25.0703C93.147 25.0703 93.9439 25.3242 94.4986 25.832C95.0611 26.332 95.3423 27.0273 95.3423 27.918H98.2955C98.2955 26.9336 98.0298 26.0391 97.4986 25.2344C96.9673 24.4219 96.2369 23.7969 95.3072 23.3594C94.3775 22.9219 93.3189 22.7031 92.1314 22.7031C90.3423 22.7031 88.8853 23.1484 87.7603 24.0391C86.6431 24.9297 86.0845 26.0625 86.0845 27.4375C86.0845 29.0078 86.8619 30.2812 88.4166 31.2578C89.2291 31.7656 90.3228 32.2266 91.6978 32.6406C93.0728 33.0547 94.022 33.4648 94.5455 33.8711ZM104.805 40H107.758V22.9375H104.805V40ZM125.634 39.6133C126.728 39.1992 127.583 38.5898 128.2 37.7852V31.2461H121.732V33.4961H125.247V36.8359C124.607 37.5234 123.528 37.8672 122.013 37.8672C120.63 37.8672 119.548 37.3594 118.767 36.3438C117.993 35.3203 117.607 33.8867 117.607 32.043V30.7305C117.63 28.8789 117.985 27.4766 118.673 26.5234C119.368 25.5625 120.38 25.082 121.708 25.082C123.763 25.082 124.954 26.1094 125.282 28.1641H128.189C127.962 26.3984 127.29 25.0469 126.173 24.1094C125.056 23.1719 123.548 22.7031 121.65 22.7031C119.439 22.7031 117.716 23.4297 116.482 24.8828C115.247 26.3281 114.63 28.3398 114.63 30.918V32.2539C114.653 33.8633 114.962 35.2734 115.556 36.4844C116.157 37.6875 117.009 38.6133 118.11 39.2617C119.212 39.9102 120.478 40.2344 121.907 40.2344C123.298 40.2344 124.54 40.0273 125.634 39.6133ZM145.748 40H148.713V22.9375H145.772V35.0898L138.143 22.9375H135.178V40H138.143V27.8945L145.748 40ZM165.177 40H176.649V37.7266H168.728L172.899 33.2617C173.993 32.0742 174.778 31.0156 175.255 30.0859C175.739 29.1484 175.981 28.2539 175.981 27.4023C175.981 25.9336 175.501 24.7852 174.54 23.957C173.587 23.1211 172.282 22.7031 170.626 22.7031C169.478 22.7031 168.462 22.9336 167.579 23.3945C166.704 23.8555 166.028 24.5039 165.552 25.3398C165.083 26.168 164.849 27.1016 164.849 28.1406H167.696C167.696 27.1641 167.95 26.3945 168.458 25.832C168.966 25.2695 169.681 24.9883 170.603 24.9883C171.376 24.9883 171.989 25.2383 172.442 25.7383C172.903 26.2383 173.134 26.8945 173.134 27.707C173.134 28.3242 172.958 28.9414 172.606 29.5586C172.263 30.168 171.681 30.9297 170.86 31.8438L165.177 38.043V40ZM200.812 33.8711C201.343 34.2773 201.609 34.8555 201.609 35.6055C201.609 36.293 201.347 36.8477 200.824 37.2695C200.308 37.6836 199.535 37.8906 198.503 37.8906C197.308 37.8906 196.39 37.625 195.75 37.0938C195.109 36.5625 194.789 35.8125 194.789 34.8438H191.824C191.824 35.9141 192.109 36.8516 192.679 37.6562C193.257 38.4609 194.062 39.0938 195.093 39.5547C196.132 40.0078 197.269 40.2344 198.503 40.2344C200.371 40.2344 201.847 39.8164 202.933 38.9805C204.027 38.1367 204.574 37.0039 204.574 35.582C204.574 34.707 204.386 33.9453 204.011 33.2969C203.636 32.6406 203.046 32.0625 202.242 31.5625C201.437 31.0547 200.371 30.6055 199.042 30.2148C197.714 29.8164 196.761 29.4102 196.183 28.9961C195.605 28.5742 195.316 28.0508 195.316 27.4258C195.316 26.6836 195.582 26.1055 196.113 25.6914C196.652 25.2773 197.406 25.0703 198.375 25.0703C199.414 25.0703 200.21 25.3242 200.765 25.832C201.328 26.332 201.609 27.0273 201.609 27.918H204.562C204.562 26.9336 204.296 26.0391 203.765 25.2344C203.234 24.4219 202.503 23.7969 201.574 23.3594C200.644 22.9219 199.585 22.7031 198.398 22.7031C196.609 22.7031 195.152 23.1484 194.027 24.0391C192.91 24.9297 192.351 26.0625 192.351 27.4375C192.351 29.0078 193.128 30.2812 194.683 31.2578C195.496 31.7656 196.589 32.2266 197.964 32.6406C199.339 33.0547 200.289 33.4648 200.812 33.8711ZM217.903 25.3281H223.223V22.9375H209.688V25.3281H214.962V40H217.903V25.3281ZM229.346 40L230.729 36.0273H237.338L238.732 40H241.826L235.369 22.9375H232.709L226.264 40H229.346ZM234.033 26.5586L236.506 33.6367H231.561L234.033 26.5586ZM253.093 25.3281H258.413V22.9375H244.878V25.3281H250.152V40H253.093V25.3281ZM264.559 40H267.512V22.9375H264.559V40ZM285.881 38.7109C287.053 37.6875 287.725 36.2656 287.896 34.4453H284.943C284.787 35.6641 284.416 36.5352 283.83 37.0586C283.244 37.582 282.369 37.8438 281.205 37.8438C279.932 37.8438 278.963 37.3594 278.299 36.3906C277.643 35.4219 277.314 34.0156 277.314 32.1719V30.6602C277.33 28.8398 277.682 27.4609 278.369 26.5234C279.064 25.5781 280.057 25.1055 281.346 25.1055C282.455 25.1055 283.295 25.3789 283.865 25.9258C284.443 26.4648 284.803 27.3477 284.943 28.5742H287.896C287.709 26.707 287.041 25.2617 285.893 24.2383C284.744 23.2148 283.228 22.7031 281.346 22.7031C279.947 22.7031 278.713 23.0352 277.643 23.6992C276.58 24.3633 275.764 25.3086 275.193 26.5352C274.623 27.7617 274.338 29.1797 274.338 30.7891V32.3828C274.361 33.9531 274.654 35.332 275.217 36.5195C275.779 37.707 276.576 38.625 277.607 39.2734C278.646 39.9141 279.846 40.2344 281.205 40.2344C283.15 40.2344 284.709 39.7266 285.881 38.7109ZM56.7948 11.5704C56.4445 10.5577 56.108 9.61863 55.7853 8.75322C55.4719 7.89692 55.163 7.08212 54.8588 6.30884C54.5546 5.53535 54.2504 4.79427 53.9462 4.08537C53.6512 3.38559 53.3469 2.69047 53.0335 2H51.7751C51.4617 2.69047 51.1528 3.38559 50.8486 4.08537C50.5536 4.79427 50.2494 5.53535 49.936 6.30884C49.6317 7.08212 49.3183 7.89692 48.9956 8.75322C48.673 9.61863 48.3411 10.5577 48 11.5704H49.4796C49.9774 10.1157 50.466 8.71637 50.9454 7.37208C51.4248 6.028 51.918 4.76673 52.425 3.58828C52.9321 4.75742 53.4253 6.01423 53.9047 7.35831C54.384 8.71171 54.868 10.1157 55.3566 11.5704H56.7948ZM129.956 8.75322C130.279 9.61863 130.615 10.5577 130.966 11.5704H129.528C129.039 10.1157 128.555 8.71171 128.076 7.35831C127.596 6.01423 127.103 4.75742 126.596 3.58828C126.089 4.76673 125.596 6.028 125.117 7.37208C124.637 8.71637 124.148 10.1157 123.651 11.5704H122.171C122.512 10.5577 122.844 9.61863 123.167 8.75322C123.489 7.89692 123.803 7.08212 124.107 6.30884C124.42 5.53535 124.725 4.79427 125.02 4.08537C125.324 3.38559 125.633 2.69047 125.946 2H127.205C127.518 2.69047 127.822 3.38559 128.117 4.08537C128.421 4.79427 128.726 5.53535 129.03 6.30884C129.334 7.08212 129.643 7.89692 129.956 8.75322ZM146.399 12.0001C145.772 12.0001 145.228 11.9035 144.767 11.7101C144.306 11.5168 143.928 11.2544 143.633 10.9229C143.338 10.5823 143.117 10.1818 142.969 9.72135C142.831 9.26111 142.762 8.76402 142.762 8.22986V2.2226H144.103V8.078C144.103 9.03554 144.315 9.73067 144.739 10.1634C145.163 10.5961 145.716 10.8125 146.399 10.8125C146.74 10.8125 147.049 10.7617 147.325 10.6605C147.611 10.5501 147.855 10.3843 148.058 10.1634C148.261 9.94247 148.417 9.66162 148.528 9.32084C148.639 8.97116 148.694 8.55687 148.694 8.078V2.2226H150.035V8.22986C150.035 8.76402 149.962 9.26111 149.814 9.72135C149.676 10.1818 149.455 10.5823 149.15 10.9229C148.855 11.2544 148.477 11.5168 148.017 11.7101C147.565 11.9035 147.025 12.0001 146.399 12.0001ZM74.4305 11.7929V10.6329H70.0055V2.22258H68.6641V11.7929H74.4305ZM92.0286 10.6329V11.7929H86.2622V2.22258H87.6038V10.6329H92.0286ZM105.813 11.8613C106.043 11.8704 106.255 11.8751 106.449 11.8751C107.979 11.8751 109.095 11.6358 109.795 11.1571C110.505 10.6691 110.86 9.94623 110.86 8.98869C110.86 8.33508 110.694 7.82867 110.362 7.46966C110.031 7.11066 109.583 6.84824 109.021 6.68261C109.436 6.51678 109.768 6.26833 110.017 5.93687C110.266 5.59609 110.39 5.16338 110.39 4.63855C110.39 4.16899 110.289 3.77313 110.086 3.45098C109.883 3.12883 109.602 2.87087 109.242 2.6775C108.892 2.47502 108.472 2.33226 107.984 2.24945C107.504 2.16663 106.988 2.12512 106.435 2.12512C106.242 2.12512 106.034 2.12978 105.813 2.13909C105.592 2.14821 105.366 2.16198 105.135 2.1804C104.914 2.19883 104.693 2.22191 104.471 2.24945C104.25 2.27719 104.047 2.31404 103.863 2.36V11.6404C104.047 11.6864 104.25 11.7232 104.471 11.7508C104.693 11.7785 104.914 11.8014 105.135 11.8198C105.366 11.8382 105.592 11.852 105.813 11.8613ZM105.191 10.7013V7.33157H106.919C107.306 7.33157 107.657 7.35931 107.97 7.41439C108.284 7.46966 108.551 7.56179 108.772 7.69057C109.003 7.81955 109.178 7.9945 109.297 8.21541C109.417 8.42721 109.477 8.68962 109.477 9.00266C109.477 9.35255 109.394 9.64251 109.228 9.87273C109.072 10.1028 108.859 10.2824 108.592 10.4113C108.325 10.5401 108.012 10.6322 107.652 10.6875C107.302 10.7335 106.928 10.7566 106.532 10.7566H105.965C105.808 10.7473 105.67 10.7381 105.55 10.7288C105.412 10.7197 105.292 10.7104 105.191 10.7013ZM106.601 6.25436H105.191V3.29912C105.347 3.28069 105.522 3.26692 105.716 3.25761C105.91 3.2485 106.177 3.24384 106.518 3.24384C106.859 3.24384 107.182 3.27138 107.486 3.32666C107.79 3.38194 108.053 3.46941 108.274 3.58908C108.505 3.69963 108.684 3.85149 108.814 4.04486C108.943 4.22892 109.007 4.45915 109.007 4.73533C109.007 5.02995 108.943 5.27394 108.814 5.46731C108.694 5.66048 108.523 5.817 108.302 5.93687C108.09 6.05654 107.836 6.13935 107.541 6.18531C107.247 6.23148 106.933 6.25436 106.601 6.25436Z" fill="black"/>
<path fill-rule="evenodd" clip-rule="evenodd" d="M23.7975 0.0501483C24.2039 1.35392 24.6104 2.65769 25.0169 3.91132L32.7904 26.928L37.6679 41.3698C37.6934 41.4701 37.7188 41.5578 37.7442 41.6456C37.7696 41.7333 37.795 41.8211 37.8204 41.9214C36.855 42.0718 36.855 42.0718 36.601 41.3196C31.9775 27.6801 27.354 14.0407 22.7305 0.351023C22.7051 0.300877 22.6924 0.238194 22.6797 0.175511C22.667 0.112828 22.6543 0.0501452 22.6289 0C23.0862 0.0501452 23.4418 0.0501483 23.7975 0.0501483ZM15.6141 14H19.5V13.4885H16.5224L18.111 12.0556C18.8551 11.3848 19.2271 10.8067 19.2271 10.3211C19.2271 9.92141 19.0669 9.60185 18.7464 9.36247C18.426 9.12082 17.9902 9 17.4389 9C16.8496 9 16.3785 9.14002 16.0255 9.42005C15.6752 9.70009 15.5 10.0671 15.5 10.521H16.2536C16.2536 10.2048 16.3568 9.95867 16.5631 9.78252C16.7722 9.60411 17.0642 9.5149 17.4389 9.5149C17.7512 9.5149 18.001 9.59733 18.1884 9.7622C18.3758 9.92705 18.4695 10.1382 18.4695 10.3957C18.4695 10.5876 18.4111 10.7739 18.2943 10.9546C18.1803 11.133 17.9712 11.3656 17.667 11.6524L15.6141 13.5495V14ZM0 11.1702L1.18099 13.2287H4.85303C7.2394 13.2287 9.09369 13.9628 10.4159 15.4309C11.7488 16.899 12.4152 18.9893 12.4152 21.7022V23.0585C12.4152 25.6968 11.7864 27.7447 10.5288 29.2021C9.2818 30.6702 7.50814 31.4149 5.20775 31.4362H3.26391L4 33.4999L5.20227 33.5106C7.24467 33.5106 8.8465 33.0638 10.4159 32.1702C11.9853 31.2766 12.8424 30.2447 13.6916 28.5957C14.5516 26.9468 15.0213 24.9255 15.0321 22.7872V21.7022C15.0321 19.5107 14.5516 17.7341 13.6916 16.0851C12.8425 14.4362 12.0068 13.3936 10.4159 12.5106C8.8357 11.6277 7.31463 11.1915 5.20775 11.1702H0ZM23.9064 28.6337C22.5057 28.254 21.4849 27.7888 20.844 27.238C20.2089 26.6818 19.8913 25.9973 19.8913 25.1845C19.8913 24.2647 20.2798 23.5053 21.0567 22.9064C21.8393 22.3021 22.8544 22 24.1021 22C24.9527 22 25.7098 22.1551 26.3734 22.4652C27.0425 22.7754 27.5586 23.2032 27.9216 23.7487C28.2902 24.2941 28.4745 24.8904 28.4745 25.5374H26.8327C26.8327 24.8316 26.5945 24.2781 26.1182 23.877C25.6418 23.4706 24.9698 23.2674 24.1021 23.2674C23.2968 23.2674 22.6673 23.4358 22.2136 23.7727C21.7656 24.1043 21.5416 24.5668 21.5416 25.1604C21.5416 25.6364 21.7543 26.0401 22.1796 26.3717C22.6106 26.6979 23.3393 26.9973 24.3658 27.2701C25.3979 27.5428 26.2032 27.8449 26.7817 28.1765C27.3658 28.5027 27.7968 28.885 28.0747 29.3235C28.3582 29.762 28.5 30.2781 28.5 30.8717C28.5 31.8182 28.1087 32.5775 27.3261 33.1497C26.5435 33.7166 25.4972 34 24.1871 34C23.3365 34 22.5425 33.8476 21.8053 33.5428C21.0681 33.2326 20.4981 32.8101 20.0955 32.2754C19.6985 31.7406 19.5 31.1337 19.5 30.4545H21.1418C21.1418 31.1604 21.4168 31.7193 21.9669 32.131C22.5227 32.5374 23.2628 32.7406 24.1871 32.7406C25.0492 32.7406 25.7098 32.5749 26.1692 32.2433C26.6285 31.9118 26.8582 31.4599 26.8582 30.8877C26.8582 30.3155 26.6456 29.8743 26.2202 29.5642C25.7949 29.2487 25.0236 28.9385 23.9064 28.6337ZM49.7344 22.9375V40H54.6445C56.1836 40 57.5469 39.668 58.7344 39.0039C59.9297 38.3398 60.8477 37.3945 61.4883 36.168C62.1367 34.9414 62.4609 33.5195 62.4609 31.9023V31.0469C62.4609 29.4531 62.1406 28.0391 61.5 26.8047C60.8594 25.5703 59.9531 24.6172 58.7812 23.9453C57.6172 23.2734 56.2812 22.9375 54.7734 22.9375H49.7344ZM52.6992 37.6328V25.3281H54.7734C56.3047 25.3281 57.4727 25.8164 58.2773 26.793C59.082 27.7695 59.4844 29.1836 59.4844 31.0352V31.9844C59.4688 33.8047 59.043 35.2031 58.207 36.1797C57.3789 37.1484 56.1875 37.6328 54.6328 37.6328H52.6992ZM72.0989 32.3828H79.1067V30.0391H72.0989V25.3281H80.2083V22.9375H69.1341V40H80.2903V37.6328H72.0989V32.3828ZM94.5455 33.8711C95.0767 34.2773 95.3423 34.8555 95.3423 35.6055C95.3423 36.293 95.0806 36.8477 94.5572 37.2695C94.0416 37.6836 93.2681 37.8906 92.2369 37.8906C91.0416 37.8906 90.1236 37.625 89.483 37.0938C88.8423 36.5625 88.522 35.8125 88.522 34.8438H85.5572C85.5572 35.9141 85.8423 36.8516 86.4127 37.6562C86.9908 38.4609 87.7955 39.0938 88.8267 39.5547C89.8658 40.0078 91.0025 40.2344 92.2369 40.2344C94.1041 40.2344 95.5806 39.8164 96.6666 38.9805C97.7603 38.1367 98.3072 37.0039 98.3072 35.582C98.3072 34.707 98.1197 33.9453 97.7447 33.2969C97.3697 32.6406 96.7798 32.0625 95.9752 31.5625C95.1705 31.0547 94.1041 30.6055 92.7759 30.2148C91.4478 29.8164 90.4947 29.4102 89.9166 28.9961C89.3384 28.5742 89.0494 28.0508 89.0494 27.4258C89.0494 26.6836 89.315 26.1055 89.8463 25.6914C90.3853 25.2773 91.1392 25.0703 92.108 25.0703C93.147 25.0703 93.9439 25.3242 94.4986 25.832C95.0611 26.332 95.3423 27.0273 95.3423 27.918H98.2955C98.2955 26.9336 98.0298 26.0391 97.4986 25.2344C96.9673 24.4219 96.2369 23.7969 95.3072 23.3594C94.3775 22.9219 93.3189 22.7031 92.1314 22.7031C90.3423 22.7031 88.8853 23.1484 87.7603 24.0391C86.6431 24.9297 86.0845 26.0625 86.0845 27.4375C86.0845 29.0078 86.8619 30.2812 88.4166 31.2578C89.2291 31.7656 90.3228 32.2266 91.6978 32.6406C93.0728 33.0547 94.022 33.4648 94.5455 33.8711ZM104.805 40H107.758V22.9375H104.805V40ZM125.634 39.6133C126.728 39.1992 127.583 38.5898 128.2 37.7852V31.2461H121.732V33.4961H125.247V36.8359C124.607 37.5234 123.528 37.8672 122.013 37.8672C120.63 37.8672 119.548 37.3594 118.767 36.3438C117.993 35.3203 117.607 33.8867 117.607 32.043V30.7305C117.63 28.8789 117.985 27.4766 118.673 26.5234C119.368 25.5625 120.38 25.082 121.708 25.082C123.763 25.082 124.954 26.1094 125.282 28.1641H128.189C127.962 26.3984 127.29 25.0469 126.173 24.1094C125.056 23.1719 123.548 22.7031 121.65 22.7031C119.439 22.7031 117.716 23.4297 116.482 24.8828C115.247 26.3281 114.63 28.3398 114.63 30.918V32.2539C114.653 33.8633 114.962 35.2734 115.556 36.4844C116.157 37.6875 117.009 38.6133 118.11 39.2617C119.212 39.9102 120.478 40.2344 121.907 40.2344C123.298 40.2344 124.54 40.0273 125.634 39.6133ZM145.748 40H148.713V22.9375H145.772V35.0898L138.143 22.9375H135.178V40H138.143V27.8945L145.748 40ZM165.177 40H176.649V37.7266H168.728L172.899 33.2617C173.993 32.0742 174.778 31.0156 175.255 30.0859C175.739 29.1484 175.981 28.2539 175.981 27.4023C175.981 25.9336 175.501 24.7852 174.54 23.957C173.587 23.1211 172.282 22.7031 170.626 22.7031C169.478 22.7031 168.462 22.9336 167.579 23.3945C166.704 23.8555 166.028 24.5039 165.552 25.3398C165.083 26.168 164.849 27.1016 164.849 28.1406H167.696C167.696 27.1641 167.95 26.3945 168.458 25.832C168.966 25.2695 169.681 24.9883 170.603 24.9883C171.376 24.9883 171.989 25.2383 172.442 25.7383C172.903 26.2383 173.134 26.8945 173.134 27.707C173.134 28.3242 172.958 28.9414 172.606 29.5586C172.263 30.168 171.681 30.9297 170.86 31.8438L165.177 38.043V40ZM200.812 33.8711C201.343 34.2773 201.609 34.8555 201.609 35.6055C201.609 36.293 201.347 36.8477 200.824 37.2695C200.308 37.6836 199.535 37.8906 198.503 37.8906C197.308 37.8906 196.39 37.625 195.75 37.0938C195.109 36.5625 194.789 35.8125 194.789 34.8438H191.824C191.824 35.9141 192.109 36.8516 192.679 37.6562C193.257 38.4609 194.062 39.0938 195.093 39.5547C196.132 40.0078 197.269 40.2344 198.503 40.2344C200.371 40.2344 201.847 39.8164 202.933 38.9805C204.027 38.1367 204.574 37.0039 204.574 35.582C204.574 34.707 204.386 33.9453 204.011 33.2969C203.636 32.6406 203.046 32.0625 202.242 31.5625C201.437 31.0547 200.371 30.6055 199.042 30.2148C197.714 29.8164 196.761 29.4102 196.183 28.9961C195.605 28.5742 195.316 28.0508 195.316 27.4258C195.316 26.6836 195.582 26.1055 196.113 25.6914C196.652 25.2773 197.406 25.0703 198.375 25.0703C199.414 25.0703 200.21 25.3242 200.765 25.832C201.328 26.332 201.609 27.0273 201.609 27.918H204.562C204.562 26.9336 204.296 26.0391 203.765 25.2344C203.234 24.4219 202.503 23.7969 201.574 23.3594C200.644 22.9219 199.585 22.7031 198.398 22.7031C196.609 22.7031 195.152 23.1484 194.027 24.0391C192.91 24.9297 192.351 26.0625 192.351 27.4375C192.351 29.0078 193.128 30.2812 194.683 31.2578C195.496 31.7656 196.589 32.2266 197.964 32.6406C199.339 33.0547 200.289 33.4648 200.812 33.8711ZM217.903 25.3281H223.223V22.9375H209.688V25.3281H214.962V40H217.903V25.3281ZM229.346 40L230.729 36.0273H237.338L238.732 40H241.826L235.369 22.9375H232.709L226.264 40H229.346ZM234.033 26.5586L236.506 33.6367H231.561L234.033 26.5586ZM253.093 25.3281H258.413V22.9375H244.878V25.3281H250.152V40H253.093V25.3281ZM264.559 40H267.512V22.9375H264.559V40ZM285.881 38.7109C287.053 37.6875 287.725 36.2656 287.896 34.4453H284.943C284.787 35.6641 284.416 36.5352 283.83 37.0586C283.244 37.582 282.369 37.8438 281.205 37.8438C279.932 37.8438 278.963 37.3594 278.299 36.3906C277.643 35.4219 277.314 34.0156 277.314 32.1719V30.6602C277.33 28.8398 277.682 27.4609 278.369 26.5234C279.064 25.5781 280.057 25.1055 281.346 25.1055C282.455 25.1055 283.295 25.3789 283.865 25.9258C284.443 26.4648 284.803 27.3477 284.943 28.5742H287.896C287.709 26.707 287.041 25.2617 285.893 24.2383C284.744 23.2148 283.228 22.7031 281.346 22.7031C279.947 22.7031 278.713 23.0352 277.643 23.6992C276.58 24.3633 275.764 25.3086 275.193 26.5352C274.623 27.7617 274.338 29.1797 274.338 30.7891V32.3828C274.361 33.9531 274.654 35.332 275.217 36.5195C275.779 37.707 276.576 38.625 277.607 39.2734C278.646 39.9141 279.846 40.2344 281.205 40.2344C283.15 40.2344 284.709 39.7266 285.881 38.7109ZM56.7948 11.5704C56.4445 10.5577 56.108 9.61863 55.7853 8.75322C55.4719 7.89692 55.163 7.08212 54.8588 6.30884C54.5546 5.53535 54.2504 4.79427 53.9462 4.08537C53.6512 3.38559 53.3469 2.69047 53.0335 2H51.7751C51.4617 2.69047 51.1528 3.38559 50.8486 4.08537C50.5536 4.79427 50.2494 5.53535 49.936 6.30884C49.6317 7.08212 49.3183 7.89692 48.9956 8.75322C48.673 9.61863 48.3411 10.5577 48 11.5704H49.4796C49.9774 10.1157 50.466 8.71637 50.9454 7.37208C51.4248 6.028 51.918 4.76673 52.425 3.58828C52.9321 4.75742 53.4253 6.01423 53.9047 7.35831C54.384 8.71171 54.868 10.1157 55.3566 11.5704H56.7948ZM129.956 8.75322C130.279 9.61863 130.615 10.5577 130.966 11.5704H129.528C129.039 10.1157 128.555 8.71171 128.076 7.35831C127.596 6.01423 127.103 4.75742 126.596 3.58828C126.089 4.76673 125.596 6.028 125.117 7.37208C124.637 8.71637 124.148 10.1157 123.651 11.5704H122.171C122.512 10.5577 122.844 9.61863 123.167 8.75322C123.489 7.89692 123.803 7.08212 124.107 6.30884C124.42 5.53535 124.725 4.79427 125.02 4.08537C125.324 3.38559 125.633 2.69047 125.946 2H127.205C127.518 2.69047 127.822 3.38559 128.117 4.08537C128.421 4.79427 128.726 5.53535 129.03 6.30884C129.334 7.08212 129.643 7.89692 129.956 8.75322ZM146.399 12.0001C145.772 12.0001 145.228 11.9035 144.767 11.7101C144.306 11.5168 143.928 11.2544 143.633 10.9229C143.338 10.5823 143.117 10.1818 142.969 9.72135C142.831 9.26111 142.762 8.76402 142.762 8.22986V2.2226H144.103V8.078C144.103 9.03554 144.315 9.73067 144.739 10.1634C145.163 10.5961 145.716 10.8125 146.399 10.8125C146.74 10.8125 147.049 10.7617 147.325 10.6605C147.611 10.5501 147.855 10.3843 148.058 10.1634C148.261 9.94247 148.417 9.66162 148.528 9.32084C148.639 8.97116 148.694 8.55687 148.694 8.078V2.2226H150.035V8.22986C150.035 8.76402 149.962 9.26111 149.814 9.72135C149.676 10.1818 149.455 10.5823 149.15 10.9229C148.855 11.2544 148.477 11.5168 148.017 11.7101C147.565 11.9035 147.025 12.0001 146.399 12.0001ZM74.4305 11.7929V10.6329H70.0055V2.22258H68.6641V11.7929H74.4305ZM92.0286 10.6329V11.7929H86.2622V2.22258H87.6038V10.6329H92.0286ZM105.813 11.8613C106.043 11.8704 106.255 11.8751 106.449 11.8751C107.979 11.8751 109.095 11.6358 109.795 11.1571C110.505 10.6691 110.86 9.94623 110.86 8.98869C110.86 8.33508 110.694 7.82867 110.362 7.46966C110.031 7.11066 109.583 6.84824 109.021 6.68261C109.436 6.51678 109.768 6.26833 110.017 5.93687C110.266 5.59609 110.39 5.16338 110.39 4.63855C110.39 4.16899 110.289 3.77313 110.086 3.45098C109.883 3.12883 109.602 2.87087 109.242 2.6775C108.892 2.47502 108.472 2.33226 107.984 2.24945C107.504 2.16663 106.988 2.12512 106.435 2.12512C106.242 2.12512 106.034 2.12978 105.813 2.13909C105.592 2.14821 105.366 2.16198 105.135 2.1804C104.914 2.19883 104.693 2.22191 104.471 2.24945C104.25 2.27719 104.047 2.31404 103.863 2.36V11.6404C104.047 11.6864 104.25 11.7232 104.471 11.7508C104.693 11.7785 104.914 11.8014 105.135 11.8198C105.366 11.8382 105.592 11.852 105.813 11.8613ZM105.191 10.7013V7.33157H106.919C107.306 7.33157 107.657 7.35931 107.97 7.41439C108.284 7.46966 108.551 7.56179 108.772 7.69057C109.003 7.81955 109.178 7.9945 109.297 8.21541C109.417 8.42721 109.477 8.68962 109.477 9.00266C109.477 9.35255 109.394 9.64251 109.228 9.87273C109.072 10.1028 108.859 10.2824 108.592 10.4113C108.325 10.5401 108.012 10.6322 107.652 10.6875C107.302 10.7335 106.928 10.7566 106.532 10.7566H105.965C105.808 10.7473 105.67 10.7381 105.55 10.7288C105.412 10.7197 105.292 10.7104 105.191 10.7013ZM106.601 6.25436H105.191V3.29912C105.347 3.28069 105.522 3.26692 105.716 3.25761C105.91 3.2485 106.177 3.24384 106.518 3.24384C106.859 3.24384 107.182 3.27138 107.486 3.32666C107.79 3.38194 108.053 3.46941 108.274 3.58908C108.505 3.69963 108.684 3.85149 108.814 4.04486C108.943 4.22892 109.007 4.45915 109.007 4.73533C109.007 5.02995 108.943 5.27394 108.814 5.46731C108.694 5.66048 108.523 5.817 108.302 5.93687C108.09 6.05654 107.836 6.13935 107.541 6.18531C107.247 6.23148 106.933 6.25436 106.601 6.25436Z" fill="#062633"/>
<path fill-rule="evenodd" clip-rule="evenodd" d="M23.7975 0.0501483C24.2039 1.35392 24.6104 2.65769 25.0169 3.91132L32.7904 26.928L37.6679 41.3698C37.6934 41.4701 37.7188 41.5578 37.7442 41.6456C37.7696 41.7333 37.795 41.8211 37.8204 41.9214C36.855 42.0718 36.855 42.0718 36.601 41.3196C31.9775 27.6801 27.354 14.0407 22.7305 0.351023C22.7051 0.300877 22.6924 0.238194 22.6797 0.175511C22.667 0.112828 22.6543 0.0501452 22.6289 0C23.0862 0.0501452 23.4418 0.0501483 23.7975 0.0501483ZM15.6141 14H19.5V13.4885H16.5224L18.111 12.0556C18.8551 11.3848 19.2271 10.8067 19.2271 10.3211C19.2271 9.92141 19.0669 9.60185 18.7464 9.36247C18.426 9.12082 17.9902 9 17.4389 9C16.8496 9 16.3785 9.14002 16.0255 9.42005C15.6752 9.70009 15.5 10.0671 15.5 10.521H16.2536C16.2536 10.2048 16.3568 9.95867 16.5631 9.78252C16.7722 9.60411 17.0642 9.5149 17.4389 9.5149C17.7512 9.5149 18.001 9.59733 18.1884 9.7622C18.3758 9.92705 18.4695 10.1382 18.4695 10.3957C18.4695 10.5876 18.4111 10.7739 18.2943 10.9546C18.1803 11.133 17.9712 11.3656 17.667 11.6524L15.6141 13.5495V14ZM0 11.1702L1.18099 13.2287H4.85303C7.2394 13.2287 9.09369 13.9628 10.4159 15.4309C11.7488 16.899 12.4152 18.9893 12.4152 21.7022V23.0585C12.4152 25.6968 11.7864 27.7447 10.5288 29.2021C9.2818 30.6702 7.50814 31.4149 5.20775 31.4362H3.26391L4 33.4999L5.20227 33.5106C7.24467 33.5106 8.8465 33.0638 10.4159 32.1702C11.9853 31.2766 12.8424 30.2447 13.6916 28.5957C14.5516 26.9468 15.0213 24.9255 15.0321 22.7872V21.7022C15.0321 19.5107 14.5516 17.7341 13.6916 16.0851C12.8425 14.4362 12.0068 13.3936 10.4159 12.5106C8.8357 11.6277 7.31463 11.1915 5.20775 11.1702H0ZM23.9064 28.6337C22.5057 28.254 21.4849 27.7888 20.844 27.238C20.2089 26.6818 19.8913 25.9973 19.8913 25.1845C19.8913 24.2647 20.2798 23.5053 21.0567 22.9064C21.8393 22.3021 22.8544 22 24.1021 22C24.9527 22 25.7098 22.1551 26.3734 22.4652C27.0425 22.7754 27.5586 23.2032 27.9216 23.7487C28.2902 24.2941 28.4745 24.8904 28.4745 25.5374H26.8327C26.8327 24.8316 26.5945 24.2781 26.1182 23.877C25.6418 23.4706 24.9698 23.2674 24.1021 23.2674C23.2968 23.2674 22.6673 23.4358 22.2136 23.7727C21.7656 24.1043 21.5416 24.5668 21.5416 25.1604C21.5416 25.6364 21.7543 26.0401 22.1796 26.3717C22.6106 26.6979 23.3393 26.9973 24.3658 27.2701C25.3979 27.5428 26.2032 27.8449 26.7817 28.1765C27.3658 28.5027 27.7968 28.885 28.0747 29.3235C28.3582 29.762 28.5 30.2781 28.5 30.8717C28.5 31.8182 28.1087 32.5775 27.3261 33.1497C26.5435 33.7166 25.4972 34 24.1871 34C23.3365 34 22.5425 33.8476 21.8053 33.5428C21.0681 33.2326 20.4981 32.8101 20.0955 32.2754C19.6985 31.7406 19.5 31.1337 19.5 30.4545H21.1418C21.1418 31.1604 21.4168 31.7193 21.9669 32.131C22.5227 32.5374 23.2628 32.7406 24.1871 32.7406C25.0492 32.7406 25.7098 32.5749 26.1692 32.2433C26.6285 31.9118 26.8582 31.4599 26.8582 30.8877C26.8582 30.3155 26.6456 29.8743 26.2202 29.5642C25.7949 29.2487 25.0236 28.9385 23.9064 28.6337ZM49.7344 22.9375V40H54.6445C56.1836 40 57.5469 39.668 58.7344 39.0039C59.9297 38.3398 60.8477 37.3945 61.4883 36.168C62.1367 34.9414 62.4609 33.5195 62.4609 31.9023V31.0469C62.4609 29.4531 62.1406 28.0391 61.5 26.8047C60.8594 25.5703 59.9531 24.6172 58.7812 23.9453C57.6172 23.2734 56.2812 22.9375 54.7734 22.9375H49.7344ZM52.6992 37.6328V25.3281H54.7734C56.3047 25.3281 57.4727 25.8164 58.2773 26.793C59.082 27.7695 59.4844 29.1836 59.4844 31.0352V31.9844C59.4688 33.8047 59.043 35.2031 58.207 36.1797C57.3789 37.1484 56.1875 37.6328 54.6328 37.6328H52.6992ZM72.0989 32.3828H79.1067V30.0391H72.0989V25.3281H80.2083V22.9375H69.1341V40H80.2903V37.6328H72.0989V32.3828ZM94.5455 33.8711C95.0767 34.2773 95.3423 34.8555 95.3423 35.6055C95.3423 36.293 95.0806 36.8477 94.5572 37.2695C94.0416 37.6836 93.2681 37.8906 92.2369 37.8906C91.0416 37.8906 90.1236 37.625 89.483 37.0938C88.8423 36.5625 88.522 35.8125 88.522 34.8438H85.5572C85.5572 35.9141 85.8423 36.8516 86.4127 37.6562C86.9908 38.4609 87.7955 39.0938 88.8267 39.5547C89.8658 40.0078 91.0025 40.2344 92.2369 40.2344C94.1041 40.2344 95.5806 39.8164 96.6666 38.9805C97.7603 38.1367 98.3072 37.0039 98.3072 35.582C98.3072 34.707 98.1197 33.9453 97.7447 33.2969C97.3697 32.6406 96.7798 32.0625 95.9752 31.5625C95.1705 31.0547 94.1041 30.6055 92.7759 30.2148C91.4478 29.8164 90.4947 29.4102 89.9166 28.9961C89.3384 28.5742 89.0494 28.0508 89.0494 27.4258C89.0494 26.6836 89.315 26.1055 89.8463 25.6914C90.3853 25.2773 91.1392 25.0703 92.108 25.0703C93.147 25.0703 93.9439 25.3242 94.4986 25.832C95.0611 26.332 95.3423 27.0273 95.3423 27.918H98.2955C98.2955 26.9336 98.0298 26.0391 97.4986 25.2344C96.9673 24.4219 96.2369 23.7969 95.3072 23.3594C94.3775 22.9219 93.3189 22.7031 92.1314 22.7031C90.3423 22.7031 88.8853 23.1484 87.7603 24.0391C86.6431 24.9297 86.0845 26.0625 86.0845 27.4375C86.0845 29.0078 86.8619 30.2812 88.4166 31.2578C89.2291 31.7656 90.3228 32.2266 91.6978 32.6406C93.0728 33.0547 94.022 33.4648 94.5455 33.8711ZM104.805 40H107.758V22.9375H104.805V40ZM125.634 39.6133C126.728 39.1992 127.583 38.5898 128.2 37.7852V31.2461H121.732V33.4961H125.247V36.8359C124.607 37.5234 123.528 37.8672 122.013 37.8672C120.63 37.8672 119.548 37.3594 118.767 36.3438C117.993 35.3203 117.607 33.8867 117.607 32.043V30.7305C117.63 28.8789 117.985 27.4766 118.673 26.5234C119.368 25.5625 120.38 25.082 121.708 25.082C123.763 25.082 124.954 26.1094 125.282 28.1641H128.189C127.962 26.3984 127.29 25.0469 126.173 24.1094C125.056 23.1719 123.548 22.7031 121.65 22.7031C119.439 22.7031 117.716 23.4297 116.482 24.8828C115.247 26.3281 114.63 28.3398 114.63 30.918V32.2539C114.653 33.8633 114.962 35.2734 115.556 36.4844C116.157 37.6875 117.009 38.6133 118.11 39.2617C119.212 39.9102 120.478 40.2344 121.907 40.2344C123.298 40.2344 124.54 40.0273 125.634 39.6133ZM145.748 40H148.713V22.9375H145.772V35.0898L138.143 22.9375H135.178V40H138.143V27.8945L145.748 40ZM165.177 40H176.649V37.7266H168.728L172.899 33.2617C173.993 32.0742 174.778 31.0156 175.255 30.0859C175.739 29.1484 175.981 28.2539 175.981 27.4023C175.981 25.9336 175.501 24.7852 174.54 23.957C173.587 23.1211 172.282 22.7031 170.626 22.7031C169.478 22.7031 168.462 22.9336 167.579 23.3945C166.704 23.8555 166.028 24.5039 165.552 25.3398C165.083 26.168 164.849 27.1016 164.849 28.1406H167.696C167.696 27.1641 167.95 26.3945 168.458 25.832C168.966 25.2695 169.681 24.9883 170.603 24.9883C171.376 24.9883 171.989 25.2383 172.442 25.7383C172.903 26.2383 173.134 26.8945 173.134 27.707C173.134 28.3242 172.958 28.9414 172.606 29.5586C172.263 30.168 171.681 30.9297 170.86 31.8438L165.177 38.043V40ZM200.812 33.8711C201.343 34.2773 201.609 34.8555 201.609 35.6055C201.609 36.293 201.347 36.8477 200.824 37.2695C200.308 37.6836 199.535 37.8906 198.503 37.8906C197.308 37.8906 196.39 37.625 195.75 37.0938C195.109 36.5625 194.789 35.8125 194.789 34.8438H191.824C191.824 35.9141 192.109 36.8516 192.679 37.6562C193.257 38.4609 194.062 39.0938 195.093 39.5547C196.132 40.0078 197.269 40.2344 198.503 40.2344C200.371 40.2344 201.847 39.8164 202.933 38.9805C204.027 38.1367 204.574 37.0039 204.574 35.582C204.574 34.707 204.386 33.9453 204.011 33.2969C203.636 32.6406 203.046 32.0625 202.242 31.5625C201.437 31.0547 200.371 30.6055 199.042 30.2148C197.714 29.8164 196.761 29.4102 196.183 28.9961C195.605 28.5742 195.316 28.0508 195.316 27.4258C195.316 26.6836 195.582 26.1055 196.113 25.6914C196.652 25.2773 197.406 25.0703 198.375 25.0703C199.414 25.0703 200.21 25.3242 200.765 25.832C201.328 26.332 201.609 27.0273 201.609 27.918H204.562C204.562 26.9336 204.296 26.0391 203.765 25.2344C203.234 24.4219 202.503 23.7969 201.574 23.3594C200.644 22.9219 199.585 22.7031 198.398 22.7031C196.609 22.7031 195.152 23.1484 194.027 24.0391C192.91 24.9297 192.351 26.0625 192.351 27.4375C192.351 29.0078 193.128 30.2812 194.683 31.2578C195.496 31.7656 196.589 32.2266 197.964 32.6406C199.339 33.0547 200.289 33.4648 200.812 33.8711ZM217.903 25.3281H223.223V22.9375H209.688V25.3281H214.962V40H217.903V25.3281ZM229.346 40L230.729 36.0273H237.338L238.732 40H241.826L235.369 22.9375H232.709L226.264 40H229.346ZM234.033 26.5586L236.506 33.6367H231.561L234.033 26.5586ZM253.093 25.3281H258.413V22.9375H244.878V25.3281H250.152V40H253.093V25.3281ZM264.559 40H267.512V22.9375H264.559V40ZM285.881 38.7109C287.053 37.6875 287.725 36.2656 287.896 34.4453H284.943C284.787 35.6641 284.416 36.5352 283.83 37.0586C283.244 37.582 282.369 37.8438 281.205 37.8438C279.932 37.8438 278.963 37.3594 278.299 36.3906C277.643 35.4219 277.314 34.0156 277.314 32.1719V30.6602C277.33 28.8398 277.682 27.4609 278.369 26.5234C279.064 25.5781 280.057 25.1055 281.346 25.1055C282.455 25.1055 283.295 25.3789 283.865 25.9258C284.443 26.4648 284.803 27.3477 284.943 28.5742H287.896C287.709 26.707 287.041 25.2617 285.893 24.2383C284.744 23.2148 283.228 22.7031 281.346 22.7031C279.947 22.7031 278.713 23.0352 277.643 23.6992C276.58 24.3633 275.764 25.3086 275.193 26.5352C274.623 27.7617 274.338 29.1797 274.338 30.7891V32.3828C274.361 33.9531 274.654 35.332 275.217 36.5195C275.779 37.707 276.576 38.625 277.607 39.2734C278.646 39.9141 279.846 40.2344 281.205 40.2344C283.15 40.2344 284.709 39.7266 285.881 38.7109ZM56.7948 11.5704C56.4445 10.5577 56.108 9.61863 55.7853 8.75322C55.4719 7.89692 55.163 7.08212 54.8588 6.30884C54.5546 5.53535 54.2504 4.79427 53.9462 4.08537C53.6512 3.38559 53.3469 2.69047 53.0335 2H51.7751C51.4617 2.69047 51.1528 3.38559 50.8486 4.08537C50.5536 4.79427 50.2494 5.53535 49.936 6.30884C49.6317 7.08212 49.3183 7.89692 48.9956 8.75322C48.673 9.61863 48.3411 10.5577 48 11.5704H49.4796C49.9774 10.1157 50.466 8.71637 50.9454 7.37208C51.4248 6.028 51.918 4.76673 52.425 3.58828C52.9321 4.75742 53.4253 6.01423 53.9047 7.35831C54.384 8.71171 54.868 10.1157 55.3566 11.5704H56.7948ZM129.956 8.75322C130.279 9.61863 130.615 10.5577 130.966 11.5704H129.528C129.039 10.1157 128.555 8.71171 128.076 7.35831C127.596 6.01423 127.103 4.75742 126.596 3.58828C126.089 4.76673 125.596 6.028 125.117 7.37208C124.637 8.71637 124.148 10.1157 123.651 11.5704H122.171C122.512 10.5577 122.844 9.61863 123.167 8.75322C123.489 7.89692 123.803 7.08212 124.107 6.30884C124.42 5.53535 124.725 4.79427 125.02 4.08537C125.324 3.38559 125.633 2.69047 125.946 2H127.205C127.518 2.69047 127.822 3.38559 128.117 4.08537C128.421 4.79427 128.726 5.53535 129.03 6.30884C129.334 7.08212 129.643 7.89692 129.956 8.75322ZM146.399 12.0001C145.772 12.0001 145.228 11.9035 144.767 11.7101C144.306 11.5168 143.928 11.2544 143.633 10.9229C143.338 10.5823 143.117 10.1818 142.969 9.72135C142.831 9.26111 142.762 8.76402 142.762 8.22986V2.2226H144.103V8.078C144.103 9.03554 144.315 9.73067 144.739 10.1634C145.163 10.5961 145.716 10.8125 146.399 10.8125C146.74 10.8125 147.049 10.7617 147.325 10.6605C147.611 10.5501 147.855 10.3843 148.058 10.1634C148.261 9.94247 148.417 9.66162 148.528 9.32084C148.639 8.97116 148.694 8.55687 148.694 8.078V2.2226H150.035V8.22986C150.035 8.76402 149.962 9.26111 149.814 9.72135C149.676 10.1818 149.455 10.5823 149.15 10.9229C148.855 11.2544 148.477 11.5168 148.017 11.7101C147.565 11.9035 147.025 12.0001 146.399 12.0001ZM74.4305 11.7929V10.6329H70.0055V2.22258H68.6641V11.7929H74.4305ZM92.0286 10.6329V11.7929H86.2622V2.22258H87.6038V10.6329H92.0286ZM105.813 11.8613C106.043 11.8704 106.255 11.8751 106.449 11.8751C107.979 11.8751 109.095 11.6358 109.795 11.1571C110.505 10.6691 110.86 9.94623 110.86 8.98869C110.86 8.33508 110.694 7.82867 110.362 7.46966C110.031 7.11066 109.583 6.84824 109.021 6.68261C109.436 6.51678 109.768 6.26833 110.017 5.93687C110.266 5.59609 110.39 5.16338 110.39 4.63855C110.39 4.16899 110.289 3.77313 110.086 3.45098C109.883 3.12883 109.602 2.87087 109.242 2.6775C108.892 2.47502 108.472 2.33226 107.984 2.24945C107.504 2.16663 106.988 2.12512 106.435 2.12512C106.242 2.12512 106.034 2.12978 105.813 2.13909C105.592 2.14821 105.366 2.16198 105.135 2.1804C104.914 2.19883 104.693 2.22191 104.471 2.24945C104.25 2.27719 104.047 2.31404 103.863 2.36V11.6404C104.047 11.6864 104.25 11.7232 104.471 11.7508C104.693 11.7785 104.914 11.8014 105.135 11.8198C105.366 11.8382 105.592 11.852 105.813 11.8613ZM105.191 10.7013V7.33157H106.919C107.306 7.33157 107.657 7.35931 107.97 7.41439C108.284 7.46966 108.551 7.56179 108.772 7.69057C109.003 7.81955 109.178 7.9945 109.297 8.21541C109.417 8.42721 109.477 8.68962 109.477 9.00266C109.477 9.35255 109.394 9.64251 109.228 9.87273C109.072 10.1028 108.859 10.2824 108.592 10.4113C108.325 10.5401 108.012 10.6322 107.652 10.6875C107.302 10.7335 106.928 10.7566 106.532 10.7566H105.965C105.808 10.7473 105.67 10.7381 105.55 10.7288C105.412 10.7197 105.292 10.7104 105.191 10.7013ZM106.601 6.25436H105.191V3.29912C105.347 3.28069 105.522 3.26692 105.716 3.25761C105.91 3.2485 106.177 3.24384 106.518 3.24384C106.859 3.24384 107.182 3.27138 107.486 3.32666C107.79 3.38194 108.053 3.46941 108.274 3.58908C108.505 3.69963 108.684 3.85149 108.814 4.04486C108.943 4.22892 109.007 4.45915 109.007 4.73533C109.007 5.02995 108.943 5.27394 108.814 5.46731C108.694 5.66048 108.523 5.817 108.302 5.93687C108.09 6.05654 107.836 6.13935 107.541 6.18531C107.247 6.23148 106.933 6.25436 106.601 6.25436Z" fill="#226180"/>
<path fill-rule="evenodd" clip-rule="evenodd" d="M23.7975 0.0501483C24.2039 1.35392 24.6104 2.65769 25.0169 3.91132L32.7904 26.928L37.6679 41.3698C37.6934 41.4701 37.7188 41.5578 37.7442 41.6456C37.7696 41.7333 37.795 41.8211 37.8204 41.9214C36.855 42.0718 36.855 42.0718 36.601 41.3196C31.9775 27.6801 27.354 14.0407 22.7305 0.351023C22.7051 0.300877 22.6924 0.238194 22.6797 0.175511C22.667 0.112828 22.6543 0.0501452 22.6289 0C23.0862 0.0501452 23.4418 0.0501483 23.7975 0.0501483ZM15.6141 14H19.5V13.4885H16.5224L18.111 12.0556C18.8551 11.3848 19.2271 10.8067 19.2271 10.3211C19.2271 9.92141 19.0669 9.60185 18.7464 9.36247C18.426 9.12082 17.9902 9 17.4389 9C16.8496 9 16.3785 9.14002 16.0255 9.42005C15.6752 9.70009 15.5 10.0671 15.5 10.521H16.2536C16.2536 10.2048 16.3568 9.95867 16.5631 9.78252C16.7722 9.60411 17.0642 9.5149 17.4389 9.5149C17.7512 9.5149 18.001 9.59733 18.1884 9.7622C18.3758 9.92705 18.4695 10.1382 18.4695 10.3957C18.4695 10.5876 18.4111 10.7739 18.2943 10.9546C18.1803 11.133 17.9712 11.3656 17.667 11.6524L15.6141 13.5495V14ZM0 11.1702L1.18099 13.2287H4.85303C7.2394 13.2287 9.09369 13.9628 10.4159 15.4309C11.7488 16.899 12.4152 18.9893 12.4152 21.7022V23.0585C12.4152 25.6968 11.7864 27.7447 10.5288 29.2021C9.2818 30.6702 7.50814 31.4149 5.20775 31.4362H3.26391L4 33.4999L5.20227 33.5106C7.24467 33.5106 8.8465 33.0638 10.4159 32.1702C11.9853 31.2766 12.8424 30.2447 13.6916 28.5957C14.5516 26.9468 15.0213 24.9255 15.0321 22.7872V21.7022C15.0321 19.5107 14.5516 17.7341 13.6916 16.0851C12.8425 14.4362 12.0068 13.3936 10.4159 12.5106C8.8357 11.6277 7.31463 11.1915 5.20775 11.1702H0ZM23.9064 28.6337C22.5057 28.254 21.4849 27.7888 20.844 27.238C20.2089 26.6818 19.8913 25.9973 19.8913 25.1845C19.8913 24.2647 20.2798 23.5053 21.0567 22.9064C21.8393 22.3021 22.8544 22 24.1021 22C24.9527 22 25.7098 22.1551 26.3734 22.4652C27.0425 22.7754 27.5586 23.2032 27.9216 23.7487C28.2902 24.2941 28.4745 24.8904 28.4745 25.5374H26.8327C26.8327 24.8316 26.5945 24.2781 26.1182 23.877C25.6418 23.4706 24.9698 23.2674 24.1021 23.2674C23.2968 23.2674 22.6673 23.4358 22.2136 23.7727C21.7656 24.1043 21.5416 24.5668 21.5416 25.1604C21.5416 25.6364 21.7543 26.0401 22.1796 26.3717C22.6106 26.6979 23.3393 26.9973 24.3658 27.2701C25.3979 27.5428 26.2032 27.8449 26.7817 28.1765C27.3658 28.5027 27.7968 28.885 28.0747 29.3235C28.3582 29.762 28.5 30.2781 28.5 30.8717C28.5 31.8182 28.1087 32.5775 27.3261 33.1497C26.5435 33.7166 25.4972 34 24.1871 34C23.3365 34 22.5425 33.8476 21.8053 33.5428C21.0681 33.2326 20.4981 32.8101 20.0955 32.2754C19.6985 31.7406 19.5 31.1337 19.5 30.4545H21.1418C21.1418 31.1604 21.4168 31.7193 21.9669 32.131C22.5227 32.5374 23.2628 32.7406 24.1871 32.7406C25.0492 32.7406 25.7098 32.5749 26.1692 32.2433C26.6285 31.9118 26.8582 31.4599 26.8582 30.8877C26.8582 30.3155 26.6456 29.8743 26.2202 29.5642C25.7949 29.2487 25.0236 28.9385 23.9064 28.6337ZM49.7344 22.9375V40H54.6445C56.1836 40 57.5469 39.668 58.7344 39.0039C59.9297 38.3398 60.8477 37.3945 61.4883 36.168C62.1367 34.9414 62.4609 33.5195 62.4609 31.9023V31.0469C62.4609 29.4531 62.1406 28.0391 61.5 26.8047C60.8594 25.5703 59.9531 24.6172 58.7812 23.9453C57.6172 23.2734 56.2812 22.9375 54.7734 22.9375H49.7344ZM52.6992 37.6328V25.3281H54.7734C56.3047 25.3281 57.4727 25.8164 58.2773 26.793C59.082 27.7695 59.4844 29.1836 59.4844 31.0352V31.9844C59.4688 33.8047 59.043 35.2031 58.207 36.1797C57.3789 37.1484 56.1875 37.6328 54.6328 37.6328H52.6992ZM72.0989 32.3828H79.1067V30.0391H72.0989V25.3281H80.2083V22.9375H69.1341V40H80.2903V37.6328H72.0989V32.3828ZM94.5455 33.8711C95.0767 34.2773 95.3423 34.8555 95.3423 35.6055C95.3423 36.293 95.0806 36.8477 94.5572 37.2695C94.0416 37.6836 93.2681 37.8906 92.2369 37.8906C91.0416 37.8906 90.1236 37.625 89.483 37.0938C88.8423 36.5625 88.522 35.8125 88.522 34.8438H85.5572C85.5572 35.9141 85.8423 36.8516 86.4127 37.6562C86.9908 38.4609 87.7955 39.0938 88.8267 39.5547C89.8658 40.0078 91.0025 40.2344 92.2369 40.2344C94.1041 40.2344 95.5806 39.8164 96.6666 38.9805C97.7603 38.1367 98.3072 37.0039 98.3072 35.582C98.3072 34.707 98.1197 33.9453 97.7447 33.2969C97.3697 32.6406 96.7798 32.0625 95.9752 31.5625C95.1705 31.0547 94.1041 30.6055 92.7759 30.2148C91.4478 29.8164 90.4947 29.4102 89.9166 28.9961C89.3384 28.5742 89.0494 28.0508 89.0494 27.4258C89.0494 26.6836 89.315 26.1055 89.8463 25.6914C90.3853 25.2773 91.1392 25.0703 92.108 25.0703C93.147 25.0703 93.9439 25.3242 94.4986 25.832C95.0611 26.332 95.3423 27.0273 95.3423 27.918H98.2955C98.2955 26.9336 98.0298 26.0391 97.4986 25.2344C96.9673 24.4219 96.2369 23.7969 95.3072 23.3594C94.3775 22.9219 93.3189 22.7031 92.1314 22.7031C90.3423 22.7031 88.8853 23.1484 87.7603 24.0391C86.6431 24.9297 86.0845 26.0625 86.0845 27.4375C86.0845 29.0078 86.8619 30.2812 88.4166 31.2578C89.2291 31.7656 90.3228 32.2266 91.6978 32.6406C93.0728 33.0547 94.022 33.4648 94.5455 33.8711ZM104.805 40H107.758V22.9375H104.805V40ZM125.634 39.6133C126.728 39.1992 127.583 38.5898 128.2 37.7852V31.2461H121.732V33.4961H125.247V36.8359C124.607 37.5234 123.528 37.8672 122.013 37.8672C120.63 37.8672 119.548 37.3594 118.767 36.3438C117.993 35.3203 117.607 33.8867 117.607 32.043V30.7305C117.63 28.8789 117.985 27.4766 118.673 26.5234C119.368 25.5625 120.38 25.082 121.708 25.082C123.763 25.082 124.954 26.1094 125.282 28.1641H128.189C127.962 26.3984 127.29 25.0469 126.173 24.1094C125.056 23.1719 123.548 22.7031 121.65 22.7031C119.439 22.7031 117.716 23.4297 116.482 24.8828C115.247 26.3281 114.63 28.3398 114.63 30.918V32.2539C114.653 33.8633 114.962 35.2734 115.556 36.4844C116.157 37.6875 117.009 38.6133 118.11 39.2617C119.212 39.9102 120.478 40.2344 121.907 40.2344C123.298 40.2344 124.54 40.0273 125.634 39.6133ZM145.748 40H148.713V22.9375H145.772V35.0898L138.143 22.9375H135.178V40H138.143V27.8945L145.748 40ZM165.177 40H176.649V37.7266H168.728L172.899 33.2617C173.993 32.0742 174.778 31.0156 175.255 30.0859C175.739 29.1484 175.981 28.2539 175.981 27.4023C175.981 25.9336 175.501 24.7852 174.54 23.957C173.587 23.1211 172.282 22.7031 170.626 22.7031C169.478 22.7031 168.462 22.9336 167.579 23.3945C166.704 23.8555 166.028 24.5039 165.552 25.3398C165.083 26.168 164.849 27.1016 164.849 28.1406H167.696C167.696 27.1641 167.95 26.3945 168.458 25.832C168.966 25.2695 169.681 24.9883 170.603 24.9883C171.376 24.9883 171.989 25.2383 172.442 25.7383C172.903 26.2383 173.134 26.8945 173.134 27.707C173.134 28.3242 172.958 28.9414 172.606 29.5586C172.263 30.168 171.681 30.9297 170.86 31.8438L165.177 38.043V40ZM200.812 33.8711C201.343 34.2773 201.609 34.8555 201.609 35.6055C201.609 36.293 201.347 36.8477 200.824 37.2695C200.308 37.6836 199.535 37.8906 198.503 37.8906C197.308 37.8906 196.39 37.625 195.75 37.0938C195.109 36.5625 194.789 35.8125 194.789 34.8438H191.824C191.824 35.9141 192.109 36.8516 192.679 37.6562C193.257 38.4609 194.062 39.0938 195.093 39.5547C196.132 40.0078 197.269 40.2344 198.503 40.2344C200.371 40.2344 201.847 39.8164 202.933 38.9805C204.027 38.1367 204.574 37.0039 204.574 35.582C204.574 34.707 204.386 33.9453 204.011 33.2969C203.636 32.6406 203.046 32.0625 202.242 31.5625C201.437 31.0547 200.371 30.6055 199.042 30.2148C197.714 29.8164 196.761 29.4102 196.183 28.9961C195.605 28.5742 195.316 28.0508 195.316 27.4258C195.316 26.6836 195.582 26.1055 196.113 25.6914C196.652 25.2773 197.406 25.0703 198.375 25.0703C199.414 25.0703 200.21 25.3242 200.765 25.832C201.328 26.332 201.609 27.0273 201.609 27.918H204.562C204.562 26.9336 204.296 26.0391 203.765 25.2344C203.234 24.4219 202.503 23.7969 201.574 23.3594C200.644 22.9219 199.585 22.7031 198.398 22.7031C196.609 22.7031 195.152 23.1484 194.027 24.0391C192.91 24.9297 192.351 26.0625 192.351 27.4375C192.351 29.0078 193.128 30.2812 194.683 31.2578C195.496 31.7656 196.589 32.2266 197.964 32.6406C199.339 33.0547 200.289 33.4648 200.812 33.8711ZM217.903 25.3281H223.223V22.9375H209.688V25.3281H214.962V40H217.903V25.3281ZM229.346 40L230.729 36.0273H237.338L238.732 40H241.826L235.369 22.9375H232.709L226.264 40H229.346ZM234.033 26.5586L236.506 33.6367H231.561L234.033 26.5586ZM253.093 25.3281H258.413V22.9375H244.878V25.3281H250.152V40H253.093V25.3281ZM264.559 40H267.512V22.9375H264.559V40ZM285.881 38.7109C287.053 37.6875 287.725 36.2656 287.896 34.4453H284.943C284.787 35.6641 284.416 36.5352 283.83 37.0586C283.244 37.582 282.369 37.8438 281.205 37.8438C279.932 37.8438 278.963 37.3594 278.299 36.3906C277.643 35.4219 277.314 34.0156 277.314 32.1719V30.6602C277.33 28.8398 277.682 27.4609 278.369 26.5234C279.064 25.5781 280.057 25.1055 281.346 25.1055C282.455 25.1055 283.295 25.3789 283.865 25.9258C284.443 26.4648 284.803 27.3477 284.943 28.5742H287.896C287.709 26.707 287.041 25.2617 285.893 24.2383C284.744 23.2148 283.228 22.7031 281.346 22.7031C279.947 22.7031 278.713 23.0352 277.643 23.6992C276.58 24.3633 275.764 25.3086 275.193 26.5352C274.623 27.7617 274.338 29.1797 274.338 30.7891V32.3828C274.361 33.9531 274.654 35.332 275.217 36.5195C275.779 37.707 276.576 38.625 277.607 39.2734C278.646 39.9141 279.846 40.2344 281.205 40.2344C283.15 40.2344 284.709 39.7266 285.881 38.7109ZM56.7948 11.5704C56.4445 10.5577 56.108 9.61863 55.7853 8.75322C55.4719 7.89692 55.163 7.08212 54.8588 6.30884C54.5546 5.53535 54.2504 4.79427 53.9462 4.08537C53.6512 3.38559 53.3469 2.69047 53.0335 2H51.7751C51.4617 2.69047 51.1528 3.38559 50.8486 4.08537C50.5536 4.79427 50.2494 5.53535 49.936 6.30884C49.6317 7.08212 49.3183 7.89692 48.9956 8.75322C48.673 9.61863 48.3411 10.5577 48 11.5704H49.4796C49.9774 10.1157 50.466 8.71637 50.9454 7.37208C51.4248 6.028 51.918 4.76673 52.425 3.58828C52.9321 4.75742 53.4253 6.01423 53.9047 7.35831C54.384 8.71171 54.868 10.1157 55.3566 11.5704H56.7948ZM129.956 8.75322C130.279 9.61863 130.615 10.5577 130.966 11.5704H129.528C129.039 10.1157 128.555 8.71171 128.076 7.35831C127.596 6.01423 127.103 4.75742 126.596 3.58828C126.089 4.76673 125.596 6.028 125.117 7.37208C124.637 8.71637 124.148 10.1157 123.651 11.5704H122.171C122.512 10.5577 122.844 9.61863 123.167 8.75322C123.489 7.89692 123.803 7.08212 124.107 6.30884C124.42 5.53535 124.725 4.79427 125.02 4.08537C125.324 3.38559 125.633 2.69047 125.946 2H127.205C127.518 2.69047 127.822 3.38559 128.117 4.08537C128.421 4.79427 128.726 5.53535 129.03 6.30884C129.334 7.08212 129.643 7.89692 129.956 8.75322ZM146.399 12.0001C145.772 12.0001 145.228 11.9035 144.767 11.7101C144.306 11.5168 143.928 11.2544 143.633 10.9229C143.338 10.5823 143.117 10.1818 142.969 9.72135C142.831 9.26111 142.762 8.76402 142.762 8.22986V2.2226H144.103V8.078C144.103 9.03554 144.315 9.73067 144.739 10.1634C145.163 10.5961 145.716 10.8125 146.399 10.8125C146.74 10.8125 147.049 10.7617 147.325 10.6605C147.611 10.5501 147.855 10.3843 148.058 10.1634C148.261 9.94247 148.417 9.66162 148.528 9.32084C148.639 8.97116 148.694 8.55687 148.694 8.078V2.2226H150.035V8.22986C150.035 8.76402 149.962 9.26111 149.814 9.72135C149.676 10.1818 149.455 10.5823 149.15 10.9229C148.855 11.2544 148.477 11.5168 148.017 11.7101C147.565 11.9035 147.025 12.0001 146.399 12.0001ZM74.4305 11.7929V10.6329H70.0055V2.22258H68.6641V11.7929H74.4305ZM92.0286 10.6329V11.7929H86.2622V2.22258H87.6038V10.6329H92.0286ZM105.813 11.8613C106.043 11.8704 106.255 11.8751 106.449 11.8751C107.979 11.8751 109.095 11.6358 109.795 11.1571C110.505 10.6691 110.86 9.94623 110.86 8.98869C110.86 8.33508 110.694 7.82867 110.362 7.46966C110.031 7.11066 109.583 6.84824 109.021 6.68261C109.436 6.51678 109.768 6.26833 110.017 5.93687C110.266 5.59609 110.39 5.16338 110.39 4.63855C110.39 4.16899 110.289 3.77313 110.086 3.45098C109.883 3.12883 109.602 2.87087 109.242 2.6775C108.892 2.47502 108.472 2.33226 107.984 2.24945C107.504 2.16663 106.988 2.12512 106.435 2.12512C106.242 2.12512 106.034 2.12978 105.813 2.13909C105.592 2.14821 105.366 2.16198 105.135 2.1804C104.914 2.19883 104.693 2.22191 104.471 2.24945C104.25 2.27719 104.047 2.31404 103.863 2.36V11.6404C104.047 11.6864 104.25 11.7232 104.471 11.7508C104.693 11.7785 104.914 11.8014 105.135 11.8198C105.366 11.8382 105.592 11.852 105.813 11.8613ZM105.191 10.7013V7.33157H106.919C107.306 7.33157 107.657 7.35931 107.97 7.41439C108.284 7.46966 108.551 7.56179 108.772 7.69057C109.003 7.81955 109.178 7.9945 109.297 8.21541C109.417 8.42721 109.477 8.68962 109.477 9.00266C109.477 9.35255 109.394 9.64251 109.228 9.87273C109.072 10.1028 108.859 10.2824 108.592 10.4113C108.325 10.5401 108.012 10.6322 107.652 10.6875C107.302 10.7335 106.928 10.7566 106.532 10.7566H105.965C105.808 10.7473 105.67 10.7381 105.55 10.7288C105.412 10.7197 105.292 10.7104 105.191 10.7013ZM106.601 6.25436H105.191V3.29912C105.347 3.28069 105.522 3.26692 105.716 3.25761C105.91 3.2485 106.177 3.24384 106.518 3.24384C106.859 3.24384 107.182 3.27138 107.486 3.32666C107.79 3.38194 108.053 3.46941 108.274 3.58908C108.505 3.69963 108.684 3.85149 108.814 4.04486C108.943 4.22892 109.007 4.45915 109.007 4.73533C109.007 5.02995 108.943 5.27394 108.814 5.46731C108.694 5.66048 108.523 5.817 108.302 5.93687C108.09 6.05654 107.836 6.13935 107.541 6.18531C107.247 6.23148 106.933 6.25436 106.601 6.25436Z" fill="#549DA1"/>
<path fill-rule="evenodd" clip-rule="evenodd" d="M23.7975 0.0501483C24.2039 1.35392 24.6104 2.65769 25.0169 3.91132L32.7904 26.928L37.6679 41.3698C37.6934 41.4701 37.7188 41.5578 37.7442 41.6456C37.7696 41.7333 37.795 41.8211 37.8204 41.9214C36.855 42.0718 36.855 42.0718 36.601 41.3196C31.9775 27.6801 27.354 14.0407 22.7305 0.351023C22.7051 0.300877 22.6924 0.238194 22.6797 0.175511C22.667 0.112828 22.6543 0.0501452 22.6289 0C23.0862 0.0501452 23.4418 0.0501483 23.7975 0.0501483ZM15.6141 14H19.5V13.4885H16.5224L18.111 12.0556C18.8551 11.3848 19.2271 10.8067 19.2271 10.3211C19.2271 9.92141 19.0669 9.60185 18.7464 9.36247C18.426 9.12082 17.9902 9 17.4389 9C16.8496 9 16.3785 9.14002 16.0255 9.42005C15.6752 9.70009 15.5 10.0671 15.5 10.521H16.2536C16.2536 10.2048 16.3568 9.95867 16.5631 9.78252C16.7722 9.60411 17.0642 9.5149 17.4389 9.5149C17.7512 9.5149 18.001 9.59733 18.1884 9.7622C18.3758 9.92705 18.4695 10.1382 18.4695 10.3957C18.4695 10.5876 18.4111 10.7739 18.2943 10.9546C18.1803 11.133 17.9712 11.3656 17.667 11.6524L15.6141 13.5495V14ZM0 11.1702L1.18099 13.2287H4.85303C7.2394 13.2287 9.09369 13.9628 10.4159 15.4309C11.7488 16.899 12.4152 18.9893 12.4152 21.7022V23.0585C12.4152 25.6968 11.7864 27.7447 10.5288 29.2021C9.2818 30.6702 7.50814 31.4149 5.20775 31.4362H3.26391L4 33.4999L5.20227 33.5106C7.24467 33.5106 8.8465 33.0638 10.4159 32.1702C11.9853 31.2766 12.8424 30.2447 13.6916 28.5957C14.5516 26.9468 15.0213 24.9255 15.0321 22.7872V21.7022C15.0321 19.5107 14.5516 17.7341 13.6916 16.0851C12.8425 14.4362 12.0068 13.3936 10.4159 12.5106C8.8357 11.6277 7.31463 11.1915 5.20775 11.1702H0ZM23.9064 28.6337C22.5057 28.254 21.4849 27.7888 20.844 27.238C20.2089 26.6818 19.8913 25.9973 19.8913 25.1845C19.8913 24.2647 20.2798 23.5053 21.0567 22.9064C21.8393 22.3021 22.8544 22 24.1021 22C24.9527 22 25.7098 22.1551 26.3734 22.4652C27.0425 22.7754 27.5586 23.2032 27.9216 23.7487C28.2902 24.2941 28.4745 24.8904 28.4745 25.5374H26.8327C26.8327 24.8316 26.5945 24.2781 26.1182 23.877C25.6418 23.4706 24.9698 23.2674 24.1021 23.2674C23.2968 23.2674 22.6673 23.4358 22.2136 23.7727C21.7656 24.1043 21.5416 24.5668 21.5416 25.1604C21.5416 25.6364 21.7543 26.0401 22.1796 26.3717C22.6106 26.6979 23.3393 26.9973 24.3658 27.2701C25.3979 27.5428 26.2032 27.8449 26.7817 28.1765C27.3658 28.5027 27.7968 28.885 28.0747 29.3235C28.3582 29.762 28.5 30.2781 28.5 30.8717C28.5 31.8182 28.1087 32.5775 27.3261 33.1497C26.5435 33.7166 25.4972 34 24.1871 34C23.3365 34 22.5425 33.8476 21.8053 33.5428C21.0681 33.2326 20.4981 32.8101 20.0955 32.2754C19.6985 31.7406 19.5 31.1337 19.5 30.4545H21.1418C21.1418 31.1604 21.4168 31.7193 21.9669 32.131C22.5227 32.5374 23.2628 32.7406 24.1871 32.7406C25.0492 32.7406 25.7098 32.5749 26.1692 32.2433C26.6285 31.9118 26.8582 31.4599 26.8582 30.8877C26.8582 30.3155 26.6456 29.8743 26.2202 29.5642C25.7949 29.2487 25.0236 28.9385 23.9064 28.6337ZM49.7344 22.9375V40H54.6445C56.1836 40 57.5469 39.668 58.7344 39.0039C59.9297 38.3398 60.8477 37.3945 61.4883 36.168C62.1367 34.9414 62.4609 33.5195 62.4609 31.9023V31.0469C62.4609 29.4531 62.1406 28.0391 61.5 26.8047C60.8594 25.5703 59.9531 24.6172 58.7812 23.9453C57.6172 23.2734 56.2812 22.9375 54.7734 22.9375H49.7344ZM52.6992 37.6328V25.3281H54.7734C56.3047 25.3281 57.4727 25.8164 58.2773 26.793C59.082 27.7695 59.4844 29.1836 59.4844 31.0352V31.9844C59.4688 33.8047 59.043 35.2031 58.207 36.1797C57.3789 37.1484 56.1875 37.6328 54.6328 37.6328H52.6992ZM72.0989 32.3828H79.1067V30.0391H72.0989V25.3281H80.2083V22.9375H69.1341V40H80.2903V37.6328H72.0989V32.3828ZM94.5455 33.8711C95.0767 34.2773 95.3423 34.8555 95.3423 35.6055C95.3423 36.293 95.0806 36.8477 94.5572 37.2695C94.0416 37.6836 93.2681 37.8906 92.2369 37.8906C91.0416 37.8906 90.1236 37.625 89.483 37.0938C88.8423 36.5625 88.522 35.8125 88.522 34.8438H85.5572C85.5572 35.9141 85.8423 36.8516 86.4127 37.6562C86.9908 38.4609 87.7955 39.0938 88.8267 39.5547C89.8658 40.0078 91.0025 40.2344 92.2369 40.2344C94.1041 40.2344 95.5806 39.8164 96.6666 38.9805C97.7603 38.1367 98.3072 37.0039 98.3072 35.582C98.3072 34.707 98.1197 33.9453 97.7447 33.2969C97.3697 32.6406 96.7798 32.0625 95.9752 31.5625C95.1705 31.0547 94.1041 30.6055 92.7759 30.2148C91.4478 29.8164 90.4947 29.4102 89.9166 28.9961C89.3384 28.5742 89.0494 28.0508 89.0494 27.4258C89.0494 26.6836 89.315 26.1055 89.8463 25.6914C90.3853 25.2773 91.1392 25.0703 92.108 25.0703C93.147 25.0703 93.9439 25.3242 94.4986 25.832C95.0611 26.332 95.3423 27.0273 95.3423 27.918H98.2955C98.2955 26.9336 98.0298 26.0391 97.4986 25.2344C96.9673 24.4219 96.2369 23.7969 95.3072 23.3594C94.3775 22.9219 93.3189 22.7031 92.1314 22.7031C90.3423 22.7031 88.8853 23.1484 87.7603 24.0391C86.6431 24.9297 86.0845 26.0625 86.0845 27.4375C86.0845 29.0078 86.8619 30.2812 88.4166 31.2578C89.2291 31.7656 90.3228 32.2266 91.6978 32.6406C93.0728 33.0547 94.022 33.4648 94.5455 33.8711ZM104.805 40H107.758V22.9375H104.805V40ZM125.634 39.6133C126.728 39.1992 127.583 38.5898 128.2 37.7852V31.2461H121.732V33.4961H125.247V36.8359C124.607 37.5234 123.528 37.8672 122.013 37.8672C120.63 37.8672 119.548 37.3594 118.767 36.3438C117.993 35.3203 117.607 33.8867 117.607 32.043V30.7305C117.63 28.8789 117.985 27.4766 118.673 26.5234C119.368 25.5625 120.38 25.082 121.708 25.082C123.763 25.082 124.954 26.1094 125.282 28.1641H128.189C127.962 26.3984 127.29 25.0469 126.173 24.1094C125.056 23.1719 123.548 22.7031 121.65 22.7031C119.439 22.7031 117.716 23.4297 116.482 24.8828C115.247 26.3281 114.63 28.3398 114.63 30.918V32.2539C114.653 33.8633 114.962 35.2734 115.556 36.4844C116.157 37.6875 117.009 38.6133 118.11 39.2617C119.212 39.9102 120.478 40.2344 121.907 40.2344C123.298 40.2344 124.54 40.0273 125.634 39.6133ZM145.748 40H148.713V22.9375H145.772V35.0898L138.143 22.9375H135.178V40H138.143V27.8945L145.748 40ZM165.177 40H176.649V37.7266H168.728L172.899 33.2617C173.993 32.0742 174.778 31.0156 175.255 30.0859C175.739 29.1484 175.981 28.2539 175.981 27.4023C175.981 25.9336 175.501 24.7852 174.54 23.957C173.587 23.1211 172.282 22.7031 170.626 22.7031C169.478 22.7031 168.462 22.9336 167.579 23.3945C166.704 23.8555 166.028 24.5039 165.552 25.3398C165.083 26.168 164.849 27.1016 164.849 28.1406H167.696C167.696 27.1641 167.95 26.3945 168.458 25.832C168.966 25.2695 169.681 24.9883 170.603 24.9883C171.376 24.9883 171.989 25.2383 172.442 25.7383C172.903 26.2383 173.134 26.8945 173.134 27.707C173.134 28.3242 172.958 28.9414 172.606 29.5586C172.263 30.168 171.681 30.9297 170.86 31.8438L165.177 38.043V40ZM200.812 33.8711C201.343 34.2773 201.609 34.8555 201.609 35.6055C201.609 36.293 201.347 36.8477 200.824 37.2695C200.308 37.6836 199.535 37.8906 198.503 37.8906C197.308 37.8906 196.39 37.625 195.75 37.0938C195.109 36.5625 194.789 35.8125 194.789 34.8438H191.824C191.824 35.9141 192.109 36.8516 192.679 37.6562C193.257 38.4609 194.062 39.0938 195.093 39.5547C196.132 40.0078 197.269 40.2344 198.503 40.2344C200.371 40.2344 201.847 39.8164 202.933 38.9805C204.027 38.1367 204.574 37.0039 204.574 35.582C204.574 34.707 204.386 33.9453 204.011 33.2969C203.636 32.6406 203.046 32.0625 202.242 31.5625C201.437 31.0547 200.371 30.6055 199.042 30.2148C197.714 29.8164 196.761 29.4102 196.183 28.9961C195.605 28.5742 195.316 28.0508 195.316 27.4258C195.316 26.6836 195.582 26.1055 196.113 25.6914C196.652 25.2773 197.406 25.0703 198.375 25.0703C199.414 25.0703 200.21 25.3242 200.765 25.832C201.328 26.332 201.609 27.0273 201.609 27.918H204.562C204.562 26.9336 204.296 26.0391 203.765 25.2344C203.234 24.4219 202.503 23.7969 201.574 23.3594C200.644 22.9219 199.585 22.7031 198.398 22.7031C196.609 22.7031 195.152 23.1484 194.027 24.0391C192.91 24.9297 192.351 26.0625 192.351 27.4375C192.351 29.0078 193.128 30.2812 194.683 31.2578C195.496 31.7656 196.589 32.2266 197.964 32.6406C199.339 33.0547 200.289 33.4648 200.812 33.8711ZM217.903 25.3281H223.223V22.9375H209.688V25.3281H214.962V40H217.903V25.3281ZM229.346 40L230.729 36.0273H237.338L238.732 40H241.826L235.369 22.9375H232.709L226.264 40H229.346ZM234.033 26.5586L236.506 33.6367H231.561L234.033 26.5586ZM253.093 25.3281H258.413V22.9375H244.878V25.3281H250.152V40H253.093V25.3281ZM264.559 40H267.512V22.9375H264.559V40ZM285.881 38.7109C287.053 37.6875 287.725 36.2656 287.896 34.4453H284.943C284.787 35.6641 284.416 36.5352 283.83 37.0586C283.244 37.582 282.369 37.8438 281.205 37.8438C279.932 37.8438 278.963 37.3594 278.299 36.3906C277.643 35.4219 277.314 34.0156 277.314 32.1719V30.6602C277.33 28.8398 277.682 27.4609 278.369 26.5234C279.064 25.5781 280.057 25.1055 281.346 25.1055C282.455 25.1055 283.295 25.3789 283.865 25.9258C284.443 26.4648 284.803 27.3477 284.943 28.5742H287.896C287.709 26.707 287.041 25.2617 285.893 24.2383C284.744 23.2148 283.228 22.7031 281.346 22.7031C279.947 22.7031 278.713 23.0352 277.643 23.6992C276.58 24.3633 275.764 25.3086 275.193 26.5352C274.623 27.7617 274.338 29.1797 274.338 30.7891V32.3828C274.361 33.9531 274.654 35.332 275.217 36.5195C275.779 37.707 276.576 38.625 277.607 39.2734C278.646 39.9141 279.846 40.2344 281.205 40.2344C283.15 40.2344 284.709 39.7266 285.881 38.7109ZM56.7948 11.5704C56.4445 10.5577 56.108 9.61863 55.7853 8.75322C55.4719 7.89692 55.163 7.08212 54.8588 6.30884C54.5546 5.53535 54.2504 4.79427 53.9462 4.08537C53.6512 3.38559 53.3469 2.69047 53.0335 2H51.7751C51.4617 2.69047 51.1528 3.38559 50.8486 4.08537C50.5536 4.79427 50.2494 5.53535 49.936 6.30884C49.6317 7.08212 49.3183 7.89692 48.9956 8.75322C48.673 9.61863 48.3411 10.5577 48 11.5704H49.4796C49.9774 10.1157 50.466 8.71637 50.9454 7.37208C51.4248 6.028 51.918 4.76673 52.425 3.58828C52.9321 4.75742 53.4253 6.01423 53.9047 7.35831C54.384 8.71171 54.868 10.1157 55.3566 11.5704H56.7948ZM129.956 8.75322C130.279 9.61863 130.615 10.5577 130.966 11.5704H129.528C129.039 10.1157 128.555 8.71171 128.076 7.35831C127.596 6.01423 127.103 4.75742 126.596 3.58828C126.089 4.76673 125.596 6.028 125.117 7.37208C124.637 8.71637 124.148 10.1157 123.651 11.5704H122.171C122.512 10.5577 122.844 9.61863 123.167 8.75322C123.489 7.89692 123.803 7.08212 124.107 6.30884C124.42 5.53535 124.725 4.79427 125.02 4.08537C125.324 3.38559 125.633 2.69047 125.946 2H127.205C127.518 2.69047 127.822 3.38559 128.117 4.08537C128.421 4.79427 128.726 5.53535 129.03 6.30884C129.334 7.08212 129.643 7.89692 129.956 8.75322ZM146.399 12.0001C145.772 12.0001 145.228 11.9035 144.767 11.7101C144.306 11.5168 143.928 11.2544 143.633 10.9229C143.338 10.5823 143.117 10.1818 142.969 9.72135C142.831 9.26111 142.762 8.76402 142.762 8.22986V2.2226H144.103V8.078C144.103 9.03554 144.315 9.73067 144.739 10.1634C145.163 10.5961 145.716 10.8125 146.399 10.8125C146.74 10.8125 147.049 10.7617 147.325 10.6605C147.611 10.5501 147.855 10.3843 148.058 10.1634C148.261 9.94247 148.417 9.66162 148.528 9.32084C148.639 8.97116 148.694 8.55687 148.694 8.078V2.2226H150.035V8.22986C150.035 8.76402 149.962 9.26111 149.814 9.72135C149.676 10.1818 149.455 10.5823 149.15 10.9229C148.855 11.2544 148.477 11.5168 148.017 11.7101C147.565 11.9035 147.025 12.0001 146.399 12.0001ZM74.4305 11.7929V10.6329H70.0055V2.22258H68.6641V11.7929H74.4305ZM92.0286 10.6329V11.7929H86.2622V2.22258H87.6038V10.6329H92.0286ZM105.813 11.8613C106.043 11.8704 106.255 11.8751 106.449 11.8751C107.979 11.8751 109.095 11.6358 109.795 11.1571C110.505 10.6691 110.86 9.94623 110.86 8.98869C110.86 8.33508 110.694 7.82867 110.362 7.46966C110.031 7.11066 109.583 6.84824 109.021 6.68261C109.436 6.51678 109.768 6.26833 110.017 5.93687C110.266 5.59609 110.39 5.16338 110.39 4.63855C110.39 4.16899 110.289 3.77313 110.086 3.45098C109.883 3.12883 109.602 2.87087 109.242 2.6775C108.892 2.47502 108.472 2.33226 107.984 2.24945C107.504 2.16663 106.988 2.12512 106.435 2.12512C106.242 2.12512 106.034 2.12978 105.813 2.13909C105.592 2.14821 105.366 2.16198 105.135 2.1804C104.914 2.19883 104.693 2.22191 104.471 2.24945C104.25 2.27719 104.047 2.31404 103.863 2.36V11.6404C104.047 11.6864 104.25 11.7232 104.471 11.7508C104.693 11.7785 104.914 11.8014 105.135 11.8198C105.366 11.8382 105.592 11.852 105.813 11.8613ZM105.191 10.7013V7.33157H106.919C107.306 7.33157 107.657 7.35931 107.97 7.41439C108.284 7.46966 108.551 7.56179 108.772 7.69057C109.003 7.81955 109.178 7.9945 109.297 8.21541C109.417 8.42721 109.477 8.68962 109.477 9.00266C109.477 9.35255 109.394 9.64251 109.228 9.87273C109.072 10.1028 108.859 10.2824 108.592 10.4113C108.325 10.5401 108.012 10.6322 107.652 10.6875C107.302 10.7335 106.928 10.7566 106.532 10.7566H105.965C105.808 10.7473 105.67 10.7381 105.55 10.7288C105.412 10.7197 105.292 10.7104 105.191 10.7013ZM106.601 6.25436H105.191V3.29912C105.347 3.28069 105.522 3.26692 105.716 3.25761C105.91 3.2485 106.177 3.24384 106.518 3.24384C106.859 3.24384 107.182 3.27138 107.486 3.32666C107.79 3.38194 108.053 3.46941 108.274 3.58908C108.505 3.69963 108.684 3.85149 108.814 4.04486C108.943 4.22892 109.007 4.45915 109.007 4.73533C109.007 5.02995 108.943 5.27394 108.814 5.46731C108.694 5.66048 108.523 5.817 108.302 5.93687C108.09 6.05654 107.836 6.13935 107.541 6.18531C107.247 6.23148 106.933 6.25436 106.601 6.25436Z" fill="#183646"/>
<path fill-rule="evenodd" clip-rule="evenodd" d="M23.7975 0.0501483C24.2039 1.35392 24.6104 2.65769 25.0169 3.91132L32.7904 26.928L37.6679 41.3698C37.6934 41.4701 37.7188 41.5578 37.7442 41.6456C37.7696 41.7333 37.795 41.8211 37.8204 41.9214C36.855 42.0718 36.855 42.0718 36.601 41.3196C31.9775 27.6801 27.354 14.0407 22.7305 0.351023C22.7051 0.300877 22.6924 0.238194 22.6797 0.175511C22.667 0.112828 22.6543 0.0501452 22.6289 0C23.0862 0.0501452 23.4418 0.0501483 23.7975 0.0501483ZM15.6141 14H19.5V13.4885H16.5224L18.111 12.0556C18.8551 11.3848 19.2271 10.8067 19.2271 10.3211C19.2271 9.92141 19.0669 9.60185 18.7464 9.36247C18.426 9.12082 17.9902 9 17.4389 9C16.8496 9 16.3785 9.14002 16.0255 9.42005C15.6752 9.70009 15.5 10.0671 15.5 10.521H16.2536C16.2536 10.2048 16.3568 9.95867 16.5631 9.78252C16.7722 9.60411 17.0642 9.5149 17.4389 9.5149C17.7512 9.5149 18.001 9.59733 18.1884 9.7622C18.3758 9.92705 18.4695 10.1382 18.4695 10.3957C18.4695 10.5876 18.4111 10.7739 18.2943 10.9546C18.1803 11.133 17.9712 11.3656 17.667 11.6524L15.6141 13.5495V14ZM0 11.1702L1.18099 13.2287H4.85303C7.2394 13.2287 9.09369 13.9628 10.4159 15.4309C11.7488 16.899 12.4152 18.9893 12.4152 21.7022V23.0585C12.4152 25.6968 11.7864 27.7447 10.5288 29.2021C9.2818 30.6702 7.50814 31.4149 5.20775 31.4362H3.26391L4 33.4999L5.20227 33.5106C7.24467 33.5106 8.8465 33.0638 10.4159 32.1702C11.9853 31.2766 12.8424 30.2447 13.6916 28.5957C14.5516 26.9468 15.0213 24.9255 15.0321 22.7872V21.7022C15.0321 19.5107 14.5516 17.7341 13.6916 16.0851C12.8425 14.4362 12.0068 13.3936 10.4159 12.5106C8.8357 11.6277 7.31463 11.1915 5.20775 11.1702H0ZM23.9064 28.6337C22.5057 28.254 21.4849 27.7888 20.844 27.238C20.2089 26.6818 19.8913 25.9973 19.8913 25.1845C19.8913 24.2647 20.2798 23.5053 21.0567 22.9064C21.8393 22.3021 22.8544 22 24.1021 22C24.9527 22 25.7098 22.1551 26.3734 22.4652C27.0425 22.7754 27.5586 23.2032 27.9216 23.7487C28.2902 24.2941 28.4745 24.8904 28.4745 25.5374H26.8327C26.8327 24.8316 26.5945 24.2781 26.1182 23.877C25.6418 23.4706 24.9698 23.2674 24.1021 23.2674C23.2968 23.2674 22.6673 23.4358 22.2136 23.7727C21.7656 24.1043 21.5416 24.5668 21.5416 25.1604C21.5416 25.6364 21.7543 26.0401 22.1796 26.3717C22.6106 26.6979 23.3393 26.9973 24.3658 27.2701C25.3979 27.5428 26.2032 27.8449 26.7817 28.1765C27.3658 28.5027 27.7968 28.885 28.0747 29.3235C28.3582 29.762 28.5 30.2781 28.5 30.8717C28.5 31.8182 28.1087 32.5775 27.3261 33.1497C26.5435 33.7166 25.4972 34 24.1871 34C23.3365 34 22.5425 33.8476 21.8053 33.5428C21.0681 33.2326 20.4981 32.8101 20.0955 32.2754C19.6985 31.7406 19.5 31.1337 19.5 30.4545H21.1418C21.1418 31.1604 21.4168 31.7193 21.9669 32.131C22.5227 32.5374 23.2628 32.7406 24.1871 32.7406C25.0492 32.7406 25.7098 32.5749 26.1692 32.2433C26.6285 31.9118 26.8582 31.4599 26.8582 30.8877C26.8582 30.3155 26.6456 29.8743 26.2202 29.5642C25.7949 29.2487 25.0236 28.9385 23.9064 28.6337ZM49.7344 22.9375V40H54.6445C56.1836 40 57.5469 39.668 58.7344 39.0039C59.9297 38.3398 60.8477 37.3945 61.4883 36.168C62.1367 34.9414 62.4609 33.5195 62.4609 31.9023V31.0469C62.4609 29.4531 62.1406 28.0391 61.5 26.8047C60.8594 25.5703 59.9531 24.6172 58.7812 23.9453C57.6172 23.2734 56.2812 22.9375 54.7734 22.9375H49.7344ZM52.6992 37.6328V25.3281H54.7734C56.3047 25.3281 57.4727 25.8164 58.2773 26.793C59.082 27.7695 59.4844 29.1836 59.4844 31.0352V31.9844C59.4688 33.8047 59.043 35.2031 58.207 36.1797C57.3789 37.1484 56.1875 37.6328 54.6328 37.6328H52.6992ZM72.0989 32.3828H79.1067V30.0391H72.0989V25.3281H80.2083V22.9375H69.1341V40H80.2903V37.6328H72.0989V32.3828ZM94.5455 33.8711C95.0767 34.2773 95.3423 34.8555 95.3423 35.6055C95.3423 36.293 95.0806 36.8477 94.5572 37.2695C94.0416 37.6836 93.2681 37.8906 92.2369 37.8906C91.0416 37.8906 90.1236 37.625 89.483 37.0938C88.8423 36.5625 88.522 35.8125 88.522 34.8438H85.5572C85.5572 35.9141 85.8423 36.8516 86.4127 37.6562C86.9908 38.4609 87.7955 39.0938 88.8267 39.5547C89.8658 40.0078 91.0025 40.2344 92.2369 40.2344C94.1041 40.2344 95.5806 39.8164 96.6666 38.9805C97.7603 38.1367 98.3072 37.0039 98.3072 35.582C98.3072 34.707 98.1197 33.9453 97.7447 33.2969C97.3697 32.6406 96.7798 32.0625 95.9752 31.5625C95.1705 31.0547 94.1041 30.6055 92.7759 30.2148C91.4478 29.8164 90.4947 29.4102 89.9166 28.9961C89.3384 28.5742 89.0494 28.0508 89.0494 27.4258C89.0494 26.6836 89.315 26.1055 89.8463 25.6914C90.3853 25.2773 91.1392 25.0703 92.108 25.0703C93.147 25.0703 93.9439 25.3242 94.4986 25.832C95.0611 26.332 95.3423 27.0273 95.3423 27.918H98.2955C98.2955 26.9336 98.0298 26.0391 97.4986 25.2344C96.9673 24.4219 96.2369 23.7969 95.3072 23.3594C94.3775 22.9219 93.3189 22.7031 92.1314 22.7031C90.3423 22.7031 88.8853 23.1484 87.7603 24.0391C86.6431 24.9297 86.0845 26.0625 86.0845 27.4375C86.0845 29.0078 86.8619 30.2812 88.4166 31.2578C89.2291 31.7656 90.3228 32.2266 91.6978 32.6406C93.0728 33.0547 94.022 33.4648 94.5455 33.8711ZM104.805 40H107.758V22.9375H104.805V40ZM125.634 39.6133C126.728 39.1992 127.583 38.5898 128.2 37.7852V31.2461H121.732V33.4961H125.247V36.8359C124.607 37.5234 123.528 37.8672 122.013 37.8672C120.63 37.8672 119.548 37.3594 118.767 36.3438C117.993 35.3203 117.607 33.8867 117.607 32.043V30.7305C117.63 28.8789 117.985 27.4766 118.673 26.5234C119.368 25.5625 120.38 25.082 121.708 25.082C123.763 25.082 124.954 26.1094 125.282 28.1641H128.189C127.962 26.3984 127.29 25.0469 126.173 24.1094C125.056 23.1719 123.548 22.7031 121.65 22.7031C119.439 22.7031 117.716 23.4297 116.482 24.8828C115.247 26.3281 114.63 28.3398 114.63 30.918V32.2539C114.653 33.8633 114.962 35.2734 115.556 36.4844C116.157 37.6875 117.009 38.6133 118.11 39.2617C119.212 39.9102 120.478 40.2344 121.907 40.2344C123.298 40.2344 124.54 40.0273 125.634 39.6133ZM145.748 40H148.713V22.9375H145.772V35.0898L138.143 22.9375H135.178V40H138.143V27.8945L145.748 40ZM165.177 40H176.649V37.7266H168.728L172.899 33.2617C173.993 32.0742 174.778 31.0156 175.255 30.0859C175.739 29.1484 175.981 28.2539 175.981 27.4023C175.981 25.9336 175.501 24.7852 174.54 23.957C173.587 23.1211 172.282 22.7031 170.626 22.7031C169.478 22.7031 168.462 22.9336 167.579 23.3945C166.704 23.8555 166.028 24.5039 165.552 25.3398C165.083 26.168 164.849 27.1016 164.849 28.1406H167.696C167.696 27.1641 167.95 26.3945 168.458 25.832C168.966 25.2695 169.681 24.9883 170.603 24.9883C171.376 24.9883 171.989 25.2383 172.442 25.7383C172.903 26.2383 173.134 26.8945 173.134 27.707C173.134 28.3242 172.958 28.9414 172.606 29.5586C172.263 30.168 171.681 30.9297 170.86 31.8438L165.177 38.043V40ZM200.812 33.8711C201.343 34.2773 201.609 34.8555 201.609 35.6055C201.609 36.293 201.347 36.8477 200.824 37.2695C200.308 37.6836 199.535 37.8906 198.503 37.8906C197.308 37.8906 196.39 37.625 195.75 37.0938C195.109 36.5625 194.789 35.8125 194.789 34.8438H191.824C191.824 35.9141 192.109 36.8516 192.679 37.6562C193.257 38.4609 194.062 39.0938 195.093 39.5547C196.132 40.0078 197.269 40.2344 198.503 40.2344C200.371 40.2344 201.847 39.8164 202.933 38.9805C204.027 38.1367 204.574 37.0039 204.574 35.582C204.574 34.707 204.386 33.9453 204.011 33.2969C203.636 32.6406 203.046 32.0625 202.242 31.5625C201.437 31.0547 200.371 30.6055 199.042 30.2148C197.714 29.8164 196.761 29.4102 196.183 28.9961C195.605 28.5742 195.316 28.0508 195.316 27.4258C195.316 26.6836 195.582 26.1055 196.113 25.6914C196.652 25.2773 197.406 25.0703 198.375 25.0703C199.414 25.0703 200.21 25.3242 200.765 25.832C201.328 26.332 201.609 27.0273 201.609 27.918H204.562C204.562 26.9336 204.296 26.0391 203.765 25.2344C203.234 24.4219 202.503 23.7969 201.574 23.3594C200.644 22.9219 199.585 22.7031 198.398 22.7031C196.609 22.7031 195.152 23.1484 194.027 24.0391C192.91 24.9297 192.351 26.0625 192.351 27.4375C192.351 29.0078 193.128 30.2812 194.683 31.2578C195.496 31.7656 196.589 32.2266 197.964 32.6406C199.339 33.0547 200.289 33.4648 200.812 33.8711ZM217.903 25.3281H223.223V22.9375H209.688V25.3281H214.962V40H217.903V25.3281ZM229.346 40L230.729 36.0273H237.338L238.732 40H241.826L235.369 22.9375H232.709L226.264 40H229.346ZM234.033 26.5586L236.506 33.6367H231.561L234.033 26.5586ZM253.093 25.3281H258.413V22.9375H244.878V25.3281H250.152V40H253.093V25.3281ZM264.559 40H267.512V22.9375H264.559V40ZM285.881 38.7109C287.053 37.6875 287.725 36.2656 287.896 34.4453H284.943C284.787 35.6641 284.416 36.5352 283.83 37.0586C283.244 37.582 282.369 37.8438 281.205 37.8438C279.932 37.8438 278.963 37.3594 278.299 36.3906C277.643 35.4219 277.314 34.0156 277.314 32.1719V30.6602C277.33 28.8398 277.682 27.4609 278.369 26.5234C279.064 25.5781 280.057 25.1055 281.346 25.1055C282.455 25.1055 283.295 25.3789 283.865 25.9258C284.443 26.4648 284.803 27.3477 284.943 28.5742H287.896C287.709 26.707 287.041 25.2617 285.893 24.2383C284.744 23.2148 283.228 22.7031 281.346 22.7031C279.947 22.7031 278.713 23.0352 277.643 23.6992C276.58 24.3633 275.764 25.3086 275.193 26.5352C274.623 27.7617 274.338 29.1797 274.338 30.7891V32.3828C274.361 33.9531 274.654 35.332 275.217 36.5195C275.779 37.707 276.576 38.625 277.607 39.2734C278.646 39.9141 279.846 40.2344 281.205 40.2344C283.15 40.2344 284.709 39.7266 285.881 38.7109ZM56.7948 11.5704C56.4445 10.5577 56.108 9.61863 55.7853 8.75322C55.4719 7.89692 55.163 7.08212 54.8588 6.30884C54.5546 5.53535 54.2504 4.79427 53.9462 4.08537C53.6512 3.38559 53.3469 2.69047 53.0335 2H51.7751C51.4617 2.69047 51.1528 3.38559 50.8486 4.08537C50.5536 4.79427 50.2494 5.53535 49.936 6.30884C49.6317 7.08212 49.3183 7.89692 48.9956 8.75322C48.673 9.61863 48.3411 10.5577 48 11.5704H49.4796C49.9774 10.1157 50.466 8.71637 50.9454 7.37208C51.4248 6.028 51.918 4.76673 52.425 3.58828C52.9321 4.75742 53.4253 6.01423 53.9047 7.35831C54.384 8.71171 54.868 10.1157 55.3566 11.5704H56.7948ZM129.956 8.75322C130.279 9.61863 130.615 10.5577 130.966 11.5704H129.528C129.039 10.1157 128.555 8.71171 128.076 7.35831C127.596 6.01423 127.103 4.75742 126.596 3.58828C126.089 4.76673 125.596 6.028 125.117 7.37208C124.637 8.71637 124.148 10.1157 123.651 11.5704H122.171C122.512 10.5577 122.844 9.61863 123.167 8.75322C123.489 7.89692 123.803 7.08212 124.107 6.30884C124.42 5.53535 124.725 4.79427 125.02 4.08537C125.324 3.38559 125.633 2.69047 125.946 2H127.205C127.518 2.69047 127.822 3.38559 128.117 4.08537C128.421 4.79427 128.726 5.53535 129.03 6.30884C129.334 7.08212 129.643 7.89692 129.956 8.75322ZM146.399 12.0001C145.772 12.0001 145.228 11.9035 144.767 11.7101C144.306 11.5168 143.928 11.2544 143.633 10.9229C143.338 10.5823 143.117 10.1818 142.969 9.72135C142.831 9.26111 142.762 8.76402 142.762 8.22986V2.2226H144.103V8.078C144.103 9.03554 144.315 9.73067 144.739 10.1634C145.163 10.5961 145.716 10.8125 146.399 10.8125C146.74 10.8125 147.049 10.7617 147.325 10.6605C147.611 10.5501 147.855 10.3843 148.058 10.1634C148.261 9.94247 148.417 9.66162 148.528 9.32084C148.639 8.97116 148.694 8.55687 148.694 8.078V2.2226H150.035V8.22986C150.035 8.76402 149.962 9.26111 149.814 9.72135C149.676 10.1818 149.455 10.5823 149.15 10.9229C148.855 11.2544 148.477 11.5168 148.017 11.7101C147.565 11.9035 147.025 12.0001 146.399 12.0001ZM74.4305 11.7929V10.6329H70.0055V2.22258H68.6641V11.7929H74.4305ZM92.0286 10.6329V11.7929H86.2622V2.22258H87.6038V10.6329H92.0286ZM105.813 11.8613C106.043 11.8704 106.255 11.8751 106.449 11.8751C107.979 11.8751 109.095 11.6358 109.795 11.1571C110.505 10.6691 110.86 9.94623 110.86 8.98869C110.86 8.33508 110.694 7.82867 110.362 7.46966C110.031 7.11066 109.583 6.84824 109.021 6.68261C109.436 6.51678 109.768 6.26833 110.017 5.93687C110.266 5.59609 110.39 5.16338 110.39 4.63855C110.39 4.16899 110.289 3.77313 110.086 3.45098C109.883 3.12883 109.602 2.87087 109.242 2.6775C108.892 2.47502 108.472 2.33226 107.984 2.24945C107.504 2.16663 106.988 2.12512 106.435 2.12512C106.242 2.12512 106.034 2.12978 105.813 2.13909C105.592 2.14821 105.366 2.16198 105.135 2.1804C104.914 2.19883 104.693 2.22191 104.471 2.24945C104.25 2.27719 104.047 2.31404 103.863 2.36V11.6404C104.047 11.6864 104.25 11.7232 104.471 11.7508C104.693 11.7785 104.914 11.8014 105.135 11.8198C105.366 11.8382 105.592 11.852 105.813 11.8613ZM105.191 10.7013V7.33157H106.919C107.306 7.33157 107.657 7.35931 107.97 7.41439C108.284 7.46966 108.551 7.56179 108.772 7.69057C109.003 7.81955 109.178 7.9945 109.297 8.21541C109.417 8.42721 109.477 8.68962 109.477 9.00266C109.477 9.35255 109.394 9.64251 109.228 9.87273C109.072 10.1028 108.859 10.2824 108.592 10.4113C108.325 10.5401 108.012 10.6322 107.652 10.6875C107.302 10.7335 106.928 10.7566 106.532 10.7566H105.965C105.808 10.7473 105.67 10.7381 105.55 10.7288C105.412 10.7197 105.292 10.7104 105.191 10.7013ZM106.601 6.25436H105.191V3.29912C105.347 3.28069 105.522 3.26692 105.716 3.25761C105.91 3.2485 106.177 3.24384 106.518 3.24384C106.859 3.24384 107.182 3.27138 107.486 3.32666C107.79 3.38194 108.053 3.46941 108.274 3.58908C108.505 3.69963 108.684 3.85149 108.814 4.04486C108.943 4.22892 109.007 4.45915 109.007 4.73533C109.007 5.02995 108.943 5.27394 108.814 5.46731C108.694 5.66048 108.523 5.817 108.302 5.93687C108.09 6.05654 107.836 6.13935 107.541 6.18531C107.247 6.23148 106.933 6.25436 106.601 6.25436Z" fill="#005B8B"/>
<path fill-rule="evenodd" clip-rule="evenodd" d="M23.7975 0.0501483C24.2039 1.35392 24.6104 2.65769 25.0169 3.91132L32.7904 26.928L37.6679 41.3698C37.6934 41.4701 37.7188 41.5578 37.7442 41.6456C37.7696 41.7333 37.795 41.8211 37.8204 41.9214C36.855 42.0718 36.855 42.0718 36.601 41.3196C31.9775 27.6801 27.354 14.0407 22.7305 0.351023C22.7051 0.300877 22.6924 0.238194 22.6797 0.175511C22.667 0.112828 22.6543 0.0501452 22.6289 0C23.0862 0.0501452 23.4418 0.0501483 23.7975 0.0501483ZM15.6141 14H19.5V13.4885H16.5224L18.111 12.0556C18.8551 11.3848 19.2271 10.8067 19.2271 10.3211C19.2271 9.92141 19.0669 9.60185 18.7464 9.36247C18.426 9.12082 17.9902 9 17.4389 9C16.8496 9 16.3785 9.14002 16.0255 9.42005C15.6752 9.70009 15.5 10.0671 15.5 10.521H16.2536C16.2536 10.2048 16.3568 9.95867 16.5631 9.78252C16.7722 9.60411 17.0642 9.5149 17.4389 9.5149C17.7512 9.5149 18.001 9.59733 18.1884 9.7622C18.3758 9.92705 18.4695 10.1382 18.4695 10.3957C18.4695 10.5876 18.4111 10.7739 18.2943 10.9546C18.1803 11.133 17.9712 11.3656 17.667 11.6524L15.6141 13.5495V14ZM0 11.1702L1.18099 13.2287H4.85303C7.2394 13.2287 9.09369 13.9628 10.4159 15.4309C11.7488 16.899 12.4152 18.9893 12.4152 21.7022V23.0585C12.4152 25.6968 11.7864 27.7447 10.5288 29.2021C9.2818 30.6702 7.50814 31.4149 5.20775 31.4362H3.26391L4 33.4999L5.20227 33.5106C7.24467 33.5106 8.8465 33.0638 10.4159 32.1702C11.9853 31.2766 12.8424 30.2447 13.6916 28.5957C14.5516 26.9468 15.0213 24.9255 15.0321 22.7872V21.7022C15.0321 19.5107 14.5516 17.7341 13.6916 16.0851C12.8425 14.4362 12.0068 13.3936 10.4159 12.5106C8.8357 11.6277 7.31463 11.1915 5.20775 11.1702H0ZM23.9064 28.6337C22.5057 28.254 21.4849 27.7888 20.844 27.238C20.2089 26.6818 19.8913 25.9973 19.8913 25.1845C19.8913 24.2647 20.2798 23.5053 21.0567 22.9064C21.8393 22.3021 22.8544 22 24.1021 22C24.9527 22 25.7098 22.1551 26.3734 22.4652C27.0425 22.7754 27.5586 23.2032 27.9216 23.7487C28.2902 24.2941 28.4745 24.8904 28.4745 25.5374H26.8327C26.8327 24.8316 26.5945 24.2781 26.1182 23.877C25.6418 23.4706 24.9698 23.2674 24.1021 23.2674C23.2968 23.2674 22.6673 23.4358 22.2136 23.7727C21.7656 24.1043 21.5416 24.5668 21.5416 25.1604C21.5416 25.6364 21.7543 26.0401 22.1796 26.3717C22.6106 26.6979 23.3393 26.9973 24.3658 27.2701C25.3979 27.5428 26.2032 27.8449 26.7817 28.1765C27.3658 28.5027 27.7968 28.885 28.0747 29.3235C28.3582 29.762 28.5 30.2781 28.5 30.8717C28.5 31.8182 28.1087 32.5775 27.3261 33.1497C26.5435 33.7166 25.4972 34 24.1871 34C23.3365 34 22.5425 33.8476 21.8053 33.5428C21.0681 33.2326 20.4981 32.8101 20.0955 32.2754C19.6985 31.7406 19.5 31.1337 19.5 30.4545H21.1418C21.1418 31.1604 21.4168 31.7193 21.9669 32.131C22.5227 32.5374 23.2628 32.7406 24.1871 32.7406C25.0492 32.7406 25.7098 32.5749 26.1692 32.2433C26.6285 31.9118 26.8582 31.4599 26.8582 30.8877C26.8582 30.3155 26.6456 29.8743 26.2202 29.5642C25.7949 29.2487 25.0236 28.9385 23.9064 28.6337ZM49.7344 22.9375V40H54.6445C56.1836 40 57.5469 39.668 58.7344 39.0039C59.9297 38.3398 60.8477 37.3945 61.4883 36.168C62.1367 34.9414 62.4609 33.5195 62.4609 31.9023V31.0469C62.4609 29.4531 62.1406 28.0391 61.5 26.8047C60.8594 25.5703 59.9531 24.6172 58.7812 23.9453C57.6172 23.2734 56.2812 22.9375 54.7734 22.9375H49.7344ZM52.6992 37.6328V25.3281H54.7734C56.3047 25.3281 57.4727 25.8164 58.2773 26.793C59.082 27.7695 59.4844 29.1836 59.4844 31.0352V31.9844C59.4688 33.8047 59.043 35.2031 58.207 36.1797C57.3789 37.1484 56.1875 37.6328 54.6328 37.6328H52.6992ZM72.0989 32.3828H79.1067V30.0391H72.0989V25.3281H80.2083V22.9375H69.1341V40H80.2903V37.6328H72.0989V32.3828ZM94.5455 33.8711C95.0767 34.2773 95.3423 34.8555 95.3423 35.6055C95.3423 36.293 95.0806 36.8477 94.5572 37.2695C94.0416 37.6836 93.2681 37.8906 92.2369 37.8906C91.0416 37.8906 90.1236 37.625 89.483 37.0938C88.8423 36.5625 88.522 35.8125 88.522 34.8438H85.5572C85.5572 35.9141 85.8423 36.8516 86.4127 37.6562C86.9908 38.4609 87.7955 39.0938 88.8267 39.5547C89.8658 40.0078 91.0025 40.2344 92.2369 40.2344C94.1041 40.2344 95.5806 39.8164 96.6666 38.9805C97.7603 38.1367 98.3072 37.0039 98.3072 35.582C98.3072 34.707 98.1197 33.9453 97.7447 33.2969C97.3697 32.6406 96.7798 32.0625 95.9752 31.5625C95.1705 31.0547 94.1041 30.6055 92.7759 30.2148C91.4478 29.8164 90.4947 29.4102 89.9166 28.9961C89.3384 28.5742 89.0494 28.0508 89.0494 27.4258C89.0494 26.6836 89.315 26.1055 89.8463 25.6914C90.3853 25.2773 91.1392 25.0703 92.108 25.0703C93.147 25.0703 93.9439 25.3242 94.4986 25.832C95.0611 26.332 95.3423 27.0273 95.3423 27.918H98.2955C98.2955 26.9336 98.0298 26.0391 97.4986 25.2344C96.9673 24.4219 96.2369 23.7969 95.3072 23.3594C94.3775 22.9219 93.3189 22.7031 92.1314 22.7031C90.3423 22.7031 88.8853 23.1484 87.7603 24.0391C86.6431 24.9297 86.0845 26.0625 86.0845 27.4375C86.0845 29.0078 86.8619 30.2812 88.4166 31.2578C89.2291 31.7656 90.3228 32.2266 91.6978 32.6406C93.0728 33.0547 94.022 33.4648 94.5455 33.8711ZM104.805 40H107.758V22.9375H104.805V40ZM125.634 39.6133C126.728 39.1992 127.583 38.5898 128.2 37.7852V31.2461H121.732V33.4961H125.247V36.8359C124.607 37.5234 123.528 37.8672 122.013 37.8672C120.63 37.8672 119.548 37.3594 118.767 36.3438C117.993 35.3203 117.607 33.8867 117.607 32.043V30.7305C117.63 28.8789 117.985 27.4766 118.673 26.5234C119.368 25.5625 120.38 25.082 121.708 25.082C123.763 25.082 124.954 26.1094 125.282 28.1641H128.189C127.962 26.3984 127.29 25.0469 126.173 24.1094C125.056 23.1719 123.548 22.7031 121.65 22.7031C119.439 22.7031 117.716 23.4297 116.482 24.8828C115.247 26.3281 114.63 28.3398 114.63 30.918V32.2539C114.653 33.8633 114.962 35.2734 115.556 36.4844C116.157 37.6875 117.009 38.6133 118.11 39.2617C119.212 39.9102 120.478 40.2344 121.907 40.2344C123.298 40.2344 124.54 40.0273 125.634 39.6133ZM145.748 40H148.713V22.9375H145.772V35.0898L138.143 22.9375H135.178V40H138.143V27.8945L145.748 40ZM165.177 40H176.649V37.7266H168.728L172.899 33.2617C173.993 32.0742 174.778 31.0156 175.255 30.0859C175.739 29.1484 175.981 28.2539 175.981 27.4023C175.981 25.9336 175.501 24.7852 174.54 23.957C173.587 23.1211 172.282 22.7031 170.626 22.7031C169.478 22.7031 168.462 22.9336 167.579 23.3945C166.704 23.8555 166.028 24.5039 165.552 25.3398C165.083 26.168 164.849 27.1016 164.849 28.1406H167.696C167.696 27.1641 167.95 26.3945 168.458 25.832C168.966 25.2695 169.681 24.9883 170.603 24.9883C171.376 24.9883 171.989 25.2383 172.442 25.7383C172.903 26.2383 173.134 26.8945 173.134 27.707C173.134 28.3242 172.958 28.9414 172.606 29.5586C172.263 30.168 171.681 30.9297 170.86 31.8438L165.177 38.043V40ZM200.812 33.8711C201.343 34.2773 201.609 34.8555 201.609 35.6055C201.609 36.293 201.347 36.8477 200.824 37.2695C200.308 37.6836 199.535 37.8906 198.503 37.8906C197.308 37.8906 196.39 37.625 195.75 37.0938C195.109 36.5625 194.789 35.8125 194.789 34.8438H191.824C191.824 35.9141 192.109 36.8516 192.679 37.6562C193.257 38.4609 194.062 39.0938 195.093 39.5547C196.132 40.0078 197.269 40.2344 198.503 40.2344C200.371 40.2344 201.847 39.8164 202.933 38.9805C204.027 38.1367 204.574 37.0039 204.574 35.582C204.574 34.707 204.386 33.9453 204.011 33.2969C203.636 32.6406 203.046 32.0625 202.242 31.5625C201.437 31.0547 200.371 30.6055 199.042 30.2148C197.714 29.8164 196.761 29.4102 196.183 28.9961C195.605 28.5742 195.316 28.0508 195.316 27.4258C195.316 26.6836 195.582 26.1055 196.113 25.6914C196.652 25.2773 197.406 25.0703 198.375 25.0703C199.414 25.0703 200.21 25.3242 200.765 25.832C201.328 26.332 201.609 27.0273 201.609 27.918H204.562C204.562 26.9336 204.296 26.0391 203.765 25.2344C203.234 24.4219 202.503 23.7969 201.574 23.3594C200.644 22.9219 199.585 22.7031 198.398 22.7031C196.609 22.7031 195.152 23.1484 194.027 24.0391C192.91 24.9297 192.351 26.0625 192.351 27.4375C192.351 29.0078 193.128 30.2812 194.683 31.2578C195.496 31.7656 196.589 32.2266 197.964 32.6406C199.339 33.0547 200.289 33.4648 200.812 33.8711ZM217.903 25.3281H223.223V22.9375H209.688V25.3281H214.962V40H217.903V25.3281ZM229.346 40L230.729 36.0273H237.338L238.732 40H241.826L235.369 22.9375H232.709L226.264 40H229.346ZM234.033 26.5586L236.506 33.6367H231.561L234.033 26.5586ZM253.093 25.3281H258.413V22.9375H244.878V25.3281H250.152V40H253.093V25.3281ZM264.559 40H267.512V22.9375H264.559V40ZM285.881 38.7109C287.053 37.6875 287.725 36.2656 287.896 34.4453H284.943C284.787 35.6641 284.416 36.5352 283.83 37.0586C283.244 37.582 282.369 37.8438 281.205 37.8438C279.932 37.8438 278.963 37.3594 278.299 36.3906C277.643 35.4219 277.314 34.0156 277.314 32.1719V30.6602C277.33 28.8398 277.682 27.4609 278.369 26.5234C279.064 25.5781 280.057 25.1055 281.346 25.1055C282.455 25.1055 283.295 25.3789 283.865 25.9258C284.443 26.4648 284.803 27.3477 284.943 28.5742H287.896C287.709 26.707 287.041 25.2617 285.893 24.2383C284.744 23.2148 283.228 22.7031 281.346 22.7031C279.947 22.7031 278.713 23.0352 277.643 23.6992C276.58 24.3633 275.764 25.3086 275.193 26.5352C274.623 27.7617 274.338 29.1797 274.338 30.7891V32.3828C274.361 33.9531 274.654 35.332 275.217 36.5195C275.779 37.707 276.576 38.625 277.607 39.2734C278.646 39.9141 279.846 40.2344 281.205 40.2344C283.15 40.2344 284.709 39.7266 285.881 38.7109ZM56.7948 11.5704C56.4445 10.5577 56.108 9.61863 55.7853 8.75322C55.4719 7.89692 55.163 7.08212 54.8588 6.30884C54.5546 5.53535 54.2504 4.79427 53.9462 4.08537C53.6512 3.38559 53.3469 2.69047 53.0335 2H51.7751C51.4617 2.69047 51.1528 3.38559 50.8486 4.08537C50.5536 4.79427 50.2494 5.53535 49.936 6.30884C49.6317 7.08212 49.3183 7.89692 48.9956 8.75322C48.673 9.61863 48.3411 10.5577 48 11.5704H49.4796C49.9774 10.1157 50.466 8.71637 50.9454 7.37208C51.4248 6.028 51.918 4.76673 52.425 3.58828C52.9321 4.75742 53.4253 6.01423 53.9047 7.35831C54.384 8.71171 54.868 10.1157 55.3566 11.5704H56.7948ZM129.956 8.75322C130.279 9.61863 130.615 10.5577 130.966 11.5704H129.528C129.039 10.1157 128.555 8.71171 128.076 7.35831C127.596 6.01423 127.103 4.75742 126.596 3.58828C126.089 4.76673 125.596 6.028 125.117 7.37208C124.637 8.71637 124.148 10.1157 123.651 11.5704H122.171C122.512 10.5577 122.844 9.61863 123.167 8.75322C123.489 7.89692 123.803 7.08212 124.107 6.30884C124.42 5.53535 124.725 4.79427 125.02 4.08537C125.324 3.38559 125.633 2.69047 125.946 2H127.205C127.518 2.69047 127.822 3.38559 128.117 4.08537C128.421 4.79427 128.726 5.53535 129.03 6.30884C129.334 7.08212 129.643 7.89692 129.956 8.75322ZM146.399 12.0001C145.772 12.0001 145.228 11.9035 144.767 11.7101C144.306 11.5168 143.928 11.2544 143.633 10.9229C143.338 10.5823 143.117 10.1818 142.969 9.72135C142.831 9.26111 142.762 8.76402 142.762 8.22986V2.2226H144.103V8.078C144.103 9.03554 144.315 9.73067 144.739 10.1634C145.163 10.5961 145.716 10.8125 146.399 10.8125C146.74 10.8125 147.049 10.7617 147.325 10.6605C147.611 10.5501 147.855 10.3843 148.058 10.1634C148.261 9.94247 148.417 9.66162 148.528 9.32084C148.639 8.97116 148.694 8.55687 148.694 8.078V2.2226H150.035V8.22986C150.035 8.76402 149.962 9.26111 149.814 9.72135C149.676 10.1818 149.455 10.5823 149.15 10.9229C148.855 11.2544 148.477 11.5168 148.017 11.7101C147.565 11.9035 147.025 12.0001 146.399 12.0001ZM74.4305 11.7929V10.6329H70.0055V2.22258H68.6641V11.7929H74.4305ZM92.0286 10.6329V11.7929H86.2622V2.22258H87.6038V10.6329H92.0286ZM105.813 11.8613C106.043 11.8704 106.255 11.8751 106.449 11.8751C107.979 11.8751 109.095 11.6358 109.795 11.1571C110.505 10.6691 110.86 9.94623 110.86 8.98869C110.86 8.33508 110.694 7.82867 110.362 7.46966C110.031 7.11066 109.583 6.84824 109.021 6.68261C109.436 6.51678 109.768 6.26833 110.017 5.93687C110.266 5.59609 110.39 5.16338 110.39 4.63855C110.39 4.16899 110.289 3.77313 110.086 3.45098C109.883 3.12883 109.602 2.87087 109.242 2.6775C108.892 2.47502 108.472 2.33226 107.984 2.24945C107.504 2.16663 106.988 2.12512 106.435 2.12512C106.242 2.12512 106.034 2.12978 105.813 2.13909C105.592 2.14821 105.366 2.16198 105.135 2.1804C104.914 2.19883 104.693 2.22191 104.471 2.24945C104.25 2.27719 104.047 2.31404 103.863 2.36V11.6404C104.047 11.6864 104.25 11.7232 104.471 11.7508C104.693 11.7785 104.914 11.8014 105.135 11.8198C105.366 11.8382 105.592 11.852 105.813 11.8613ZM105.191 10.7013V7.33157H106.919C107.306 7.33157 107.657 7.35931 107.97 7.41439C108.284 7.46966 108.551 7.56179 108.772 7.69057C109.003 7.81955 109.178 7.9945 109.297 8.21541C109.417 8.42721 109.477 8.68962 109.477 9.00266C109.477 9.35255 109.394 9.64251 109.228 9.87273C109.072 10.1028 108.859 10.2824 108.592 10.4113C108.325 10.5401 108.012 10.6322 107.652 10.6875C107.302 10.7335 106.928 10.7566 106.532 10.7566H105.965C105.808 10.7473 105.67 10.7381 105.55 10.7288C105.412 10.7197 105.292 10.7104 105.191 10.7013ZM106.601 6.25436H105.191V3.29912C105.347 3.28069 105.522 3.26692 105.716 3.25761C105.91 3.2485 106.177 3.24384 106.518 3.24384C106.859 3.24384 107.182 3.27138 107.486 3.32666C107.79 3.38194 108.053 3.46941 108.274 3.58908C108.505 3.69963 108.684 3.85149 108.814 4.04486C108.943 4.22892 109.007 4.45915 109.007 4.73533C109.007 5.02995 108.943 5.27394 108.814 5.46731C108.694 5.66048 108.523 5.817 108.302 5.93687C108.09 6.05654 107.836 6.13935 107.541 6.18531C107.247 6.23148 106.933 6.25436 106.601 6.25436Z" fill="white"/>
</svg>
