<svg width="213" height="65" viewBox="0 0 213 65" fill="none" xmlns="http://www.w3.org/2000/svg">
<path fill-rule="evenodd" clip-rule="evenodd" d="M83.0441 0.0768368C85.5416 7.22222 88.039 14.3676 90.6145 21.6667C90.3158 21.6667 90.0359 21.676 89.7684 21.6849C89.2671 21.7015 88.8092 21.7167 88.3512 21.6667C88.1171 21.6667 87.8049 21.3593 87.7268 21.052C87.1807 19.5926 86.7125 18.1332 86.2444 16.6737L86.2443 16.6736L86.244 16.6726C86.0879 16.1347 85.8538 15.9042 85.2294 15.9042C83.5673 15.9554 81.9398 15.9385 80.3009 15.9214C79.4771 15.9128 78.6505 15.9042 77.8151 15.9042C77.1907 15.9042 76.9566 16.0579 76.7224 16.5957C76.4883 17.2872 76.2346 17.9787 75.981 18.6702C75.7273 19.3617 75.4737 20.0532 75.2395 20.7447C75.0054 21.3593 74.7713 21.6667 74.0688 21.5898C73.7175 21.5404 73.3985 21.5545 73.0287 21.5709C72.8235 21.58 72.6026 21.5898 72.3519 21.5898C73.413 18.5825 74.4742 15.6013 75.5299 12.6354C77.0364 8.40278 78.5319 4.20139 80.0003 0C81.0149 0.0768321 82.0295 0.0768368 83.0441 0.0768368ZM85.3855 13.9066L84.8682 12.4691C83.7305 9.30834 82.6363 6.26846 81.4832 2.99645C80.6525 5.22258 79.8764 7.36813 79.1065 9.49662C78.5743 10.9678 78.0451 12.4308 77.5029 13.9066H85.3855ZM0 48.4041C0.312176 47.559 0.62435 46.6947 0.936525 45.8303C1.24871 44.9659 1.5609 44.1015 1.87309 43.2564C3.31619 38.9944 4.75928 34.7133 6.20238 30.4321L6.20426 30.4265L6.20469 30.4252C7.64852 26.1419 9.09234 21.8586 10.5362 17.5945C10.6142 17.2872 10.7703 16.903 10.9264 16.5189L10.9264 16.5188H15.8433C16.4528 16.5188 16.5417 16.9582 16.6182 17.3365L16.6237 17.364C17.6773 20.5141 18.7505 23.645 19.8236 26.7759C20.8967 29.9068 21.9699 33.0377 23.0235 36.1878L23.0258 36.1947L23.0259 36.1951L23.0265 36.1967C24.3523 40.1122 25.678 44.0276 27.0038 47.8663C27.0818 48.1734 27.1598 48.4038 27.3156 48.8641L27.3157 48.8642L27.3157 48.8643L27.316 48.8651H22.321C22.0869 48.8651 21.7747 48.4041 21.6967 48.0968C20.2138 43.4101 18.7309 38.6465 17.3261 33.9597C16.0774 29.8108 14.7506 25.6618 13.2678 21.5129C13.2287 21.6666 13.1702 21.801 13.1117 21.9355C13.0531 22.07 12.9946 22.2044 12.9556 22.3581C12.0712 25.2004 11.1781 28.0427 10.2851 30.8851L10.2848 30.886L10.2847 30.8862L10.2846 30.8865L10.2845 30.8869C8.49819 36.5723 6.71187 42.2577 4.99492 47.9431C4.76078 48.7115 4.44859 48.8651 3.66813 48.8651C2.92142 48.8192 2.20262 48.8557 1.47835 48.8924C0.99142 48.9171 0.502018 48.942 0 48.942V48.4041ZM175.758 64.8463C175.445 64.7695 175.133 64.7012 174.821 64.6329C174.197 64.4963 173.572 64.3597 172.948 64.1548C169.202 63.0023 167.016 60.3132 166.08 56.7021C164.909 52.169 164.831 47.6359 165.924 43.1028C167.173 37.9551 170.685 35.1123 176.07 34.7281C180.128 34.4208 184.03 34.9586 187.933 36.1879C187.829 36.5697 187.726 36.9431 187.622 37.3164L187.62 37.3236C187.412 38.0748 187.204 38.8259 186.996 39.6454C186.587 39.5607 186.185 39.4701 185.784 39.3802C184.733 39.1438 183.7 38.9115 182.626 38.8002C180.831 38.5697 179.114 38.4161 177.319 38.4929C173.338 38.7234 170.997 40.721 170.138 44.5626C169.358 48.0201 169.358 51.5544 170.216 55.0886C171.387 59.9291 174.743 61.6194 179.504 61.1584C180.654 61.0169 181.737 60.6149 182.876 60.1922L182.885 60.1891C182.98 60.1537 183.076 60.1182 183.172 60.0827C183.406 60.0059 183.718 59.6217 183.718 59.3912C183.77 58.0167 183.753 56.6759 183.736 55.3017C183.727 54.602 183.718 53.8937 183.718 53.1678H178.099V49.4799H187.933V50.8629V61.8498C187.933 62.4645 187.777 62.7718 187.152 63.0023C186.06 63.3096 184.987 63.6169 183.914 63.9242L183.913 63.9243L183.913 63.9244L183.913 63.9245L183.912 63.9246L183.912 63.9247L183.912 63.9248L183.911 63.9249L183.911 63.925L183.911 63.9251L183.91 63.9252L183.91 63.9252L183.91 63.9253C182.838 64.2323 181.766 64.5393 180.674 64.8463C180.596 64.8463 180.44 64.9231 180.362 65C178.879 64.8463 177.319 64.8463 175.758 64.8463ZM194.956 64.4623H212.828V60.8512H197.843V51.0935H210.565V47.3288H197.843V38.8004H212.516V35.1893H193.629V64.4623H194.956ZM175.721 4.41797C175.214 2.97737 174.706 1.53677 174.199 0.0769654H171.155C171.116 0.192213 171.077 0.32667 171.038 0.461126L171.038 0.462223V0.462236C170.999 0.596322 170.96 0.730355 170.921 0.845286C170.024 3.41897 169.107 5.97344 168.19 8.52792L168.19 8.52812C167.273 11.0829 166.355 13.6377 165.458 16.2117C164.834 17.9788 164.209 19.746 163.507 21.6668C163.758 21.6668 163.978 21.657 164.184 21.6479C164.553 21.6315 164.872 21.6174 165.224 21.6668C165.848 21.7436 166.16 21.5131 166.316 20.8985C166.514 20.3152 166.725 19.7319 166.939 19.1428L166.94 19.1393L166.942 19.1331L166.943 19.1322L166.943 19.1319C167.234 18.3278 167.53 17.513 167.799 16.6727C167.955 16.1349 168.268 15.9812 168.814 15.9812H176.306C176.853 15.9812 177.165 16.1349 177.321 16.6727C177.789 18.2093 178.335 19.6691 178.882 21.1289C178.96 21.3594 179.194 21.6668 179.428 21.6668C179.894 21.7177 180.394 21.7011 180.905 21.6841C181.165 21.6755 181.428 21.6668 181.691 21.6668C181.613 21.2826 181.535 20.9753 181.457 20.7448L177.243 8.75898C176.736 7.29917 176.228 5.85857 175.721 4.41797ZM172.638 3.3039H172.872C173.288 4.48193 173.705 5.65143 174.121 6.82093L174.121 6.82152L174.122 6.82524L174.123 6.82538C174.954 9.16307 175.786 11.5008 176.618 13.9067H168.736C169.199 12.6451 169.663 11.4022 170.123 10.1682L170.124 10.1667C170.981 7.86929 171.826 5.60284 172.638 3.3039ZM31.6887 0.0768368C32.3131 2.07447 32.9375 4.07209 33.5618 5.99289L45.5028 41.2588L52.9952 63.3865C53.0342 63.54 53.0732 63.6744 53.1122 63.8088L53.1123 63.809C53.1513 63.9435 53.1903 64.0779 53.2293 64.2316C51.7465 64.4621 51.7465 64.4621 51.3562 63.3096C44.2541 42.4113 37.1519 21.513 30.0498 0.537834C30.0107 0.461001 29.9912 0.364958 29.9717 0.268914L29.9717 0.268891C29.9522 0.172857 29.9327 0.0768252 29.8937 0C30.5961 0.0768321 31.1424 0.0768368 31.6887 0.0768368ZM90.3682 49.4099C90.327 49.3848 90.2788 49.3555 90.2192 49.3261C90.2381 49.3169 90.2566 49.3079 90.2749 49.2991L90.308 49.2833L90.352 49.2624L90.3525 49.2622C90.6005 49.1448 90.8001 49.0503 90.9997 48.7883C93.341 47.6358 94.6678 45.715 94.8239 43.1796C94.98 40.3368 94.2776 37.8782 91.624 36.2647C89.9851 35.3427 88.19 34.9585 86.3169 34.9585H74.6101C74.4428 34.9585 74.2979 34.9806 74.1634 35.0011C74.047 35.0188 73.9383 35.0354 73.8296 35.0354V64.3084H81.0879C81.6029 64.3084 82.118 64.3115 82.6331 64.3146C84.6935 64.3268 86.754 64.3391 88.8144 64.1547C92.6386 63.8474 95.0581 61.4656 95.6044 57.7777C96.2288 53.7824 94.3557 50.8628 90.5314 49.4798C90.4832 49.4798 90.4349 49.4504 90.3682 49.4099ZM87.9559 60.5436C84.678 60.6973 81.4781 60.7741 78.1221 60.851V60.8481C78.1221 57.5454 78.1221 54.473 78.0441 51.3238H81.0879C81.5525 51.3238 82.0219 51.319 82.4937 51.3142H82.4942H82.4946H82.4951H82.4956H82.496H82.4965H82.497H82.4975C83.9267 51.2998 85.378 51.2851 86.7852 51.4006C90.6095 51.6311 92.5606 55.3959 90.6875 58.6996C90.0631 59.7753 89.1266 60.4668 87.9559 60.5436ZM78.1221 47.4822V38.877C79.0905 38.877 80.0502 38.8511 81.004 38.8253C82.8943 38.7742 84.7617 38.7238 86.6291 38.877C89.9071 39.1843 91.546 42.7186 89.9071 45.6382C89.2047 46.8675 88.0339 47.4053 86.7072 47.4822C84.8369 47.5333 82.932 47.5164 81.0156 47.4993C80.0531 47.4907 79.0876 47.4822 78.1221 47.4822ZM118.57 57.3997L118.57 57.4005C120.03 59.7167 121.5 62.0504 122.997 64.4619H118.393C118.159 64.4619 117.846 64.0778 117.69 63.8473C116.158 61.4449 114.667 59.002 113.187 56.5775C112.632 55.6677 112.078 54.7606 111.525 53.8591C111.213 53.3213 110.9 53.0908 110.198 53.0908C109.01 53.1416 107.856 53.1252 106.668 53.1082C106.062 53.0996 105.446 53.0908 104.813 53.0908V64.3851H100.676V35.1121H101.613H112.93C121.827 35.1121 123.388 43.5636 121.046 48.3272C120.11 50.248 118.471 51.4773 116.442 52.0919C116.051 52.1688 115.817 52.2456 115.427 52.3993C116.473 54.0721 117.518 55.7313 118.57 57.3997ZM104.735 49.326H112.227C112.695 49.326 113.164 49.2492 113.632 49.1724L113.632 49.1723C115.349 48.865 116.676 47.943 117.3 46.2527C118.783 42.2575 116.442 38.8 112.149 38.8H105.593C105.359 38.8 105.047 38.8 104.813 38.8768C104.735 42.3333 104.735 45.7129 104.735 49.3228V49.326ZM137.206 35.1889V64.5387C138.876 64.483 140.536 64.4677 142.186 64.4525H142.187C145.085 64.4258 147.951 64.3994 150.786 64.1546C155.313 63.7704 158.122 60.9276 159.449 56.7019C160.62 52.8603 160.62 49.0187 160.073 45.1771C159.683 42.7184 158.903 40.4135 157.186 38.5695C154.844 35.9572 151.722 35.1889 148.366 35.1121H138.064C137.908 35.1121 137.772 35.1313 137.635 35.1505C137.499 35.1697 137.362 35.1889 137.206 35.1889ZM143.834 60.7317C143.036 60.7145 142.233 60.6971 141.42 60.6971V39.0305C141.498 38.9537 141.576 38.8768 141.655 38.8768C142.281 38.8768 142.903 38.872 143.522 38.8672H143.522H143.523H143.523H143.524H143.525H143.525C145.369 38.8528 147.18 38.8387 148.991 38.9537C152.425 39.1073 154.688 41.105 155.469 44.5624C156.249 47.943 156.249 51.4005 155.469 54.7811C154.61 58.5458 152.425 60.3898 148.523 60.6971C146.967 60.7992 145.412 60.7657 143.834 60.7317ZM187.155 21.6669H184.813V0.230766C185.054 0.230766 185.285 0.22178 185.51 0.213027C185.943 0.196187 186.354 0.180211 186.764 0.230766C187.077 0.307598 187.389 0.614941 187.545 0.845437C188.803 2.71777 190.072 4.59011 191.344 6.46649C193.465 9.59499 195.593 12.7348 197.691 15.9045C197.925 16.2887 198.237 16.6728 198.627 16.9802V0.230766H200.969V21.5901C200.729 21.5901 200.498 21.5991 200.272 21.6078C199.839 21.6247 199.429 21.6407 199.018 21.5901C198.706 21.5133 198.315 21.2059 198.159 20.8986C196.442 18.3632 194.725 15.8469 193.008 13.3306C191.291 10.8144 189.574 8.29814 187.857 5.76269C187.793 5.66804 187.716 5.56044 187.625 5.43457L187.625 5.43412L187.623 5.43158L187.623 5.43135L187.623 5.43099L187.623 5.43068C187.493 5.25076 187.337 5.03363 187.155 4.76388V21.6669ZM130.493 21.6667V12.7542H131.82C132.327 12.7542 132.834 12.759 133.342 12.7638C134.863 12.7782 136.385 12.7926 137.907 12.6774C141.341 12.4469 143.292 10.2188 143.371 6.68449C143.449 3.22705 141.419 0.614745 138.063 0.384249C135.726 0.219923 133.39 0.250847 131.024 0.282145C130.072 0.294748 129.115 0.307412 128.152 0.307412V21.6667H130.493ZM132.648 10.5513C131.957 10.5387 131.264 10.5261 130.571 10.5261V2.45872C131.313 2.45872 132.049 2.44596 132.779 2.4333C134.58 2.40205 136.341 2.37148 138.063 2.53554C140.015 2.76603 141.029 4.53317 140.951 6.7613C140.873 8.83577 139.78 10.2956 137.751 10.4493C136.081 10.6137 134.37 10.5826 132.648 10.5513ZM127.452 35.1121H131.511V64.3083H127.452V35.1121ZM93.5759 0.307227V21.6666C98.0245 21.6666 102.473 21.6666 106.922 21.5897V19.5921H95.9173V0.307227H93.5759ZM110.9 0.307227H113.163V19.5921H124.168V21.6666H110.9V0.307227ZM147.272 0.307227V21.6666C151.799 21.6666 156.169 21.6666 160.696 21.5897V19.5921H149.691V0.307227H147.272Z" fill="black"/>
<path fill-rule="evenodd" clip-rule="evenodd" d="M83.0441 0.0768368C85.5416 7.22222 88.039 14.3676 90.6145 21.6667C90.3158 21.6667 90.0359 21.676 89.7684 21.6849C89.2671 21.7015 88.8092 21.7167 88.3512 21.6667C88.1171 21.6667 87.8049 21.3593 87.7268 21.052C87.1807 19.5926 86.7125 18.1332 86.2444 16.6737L86.2443 16.6736L86.244 16.6726C86.0879 16.1347 85.8538 15.9042 85.2294 15.9042C83.5673 15.9554 81.9398 15.9385 80.3009 15.9214C79.4771 15.9128 78.6505 15.9042 77.8151 15.9042C77.1907 15.9042 76.9566 16.0579 76.7224 16.5957C76.4883 17.2872 76.2346 17.9787 75.981 18.6702C75.7273 19.3617 75.4737 20.0532 75.2395 20.7447C75.0054 21.3593 74.7713 21.6667 74.0688 21.5898C73.7175 21.5404 73.3985 21.5545 73.0287 21.5709C72.8235 21.58 72.6026 21.5898 72.3519 21.5898C73.413 18.5825 74.4742 15.6013 75.5299 12.6354C77.0364 8.40278 78.5319 4.20139 80.0003 0C81.0149 0.0768321 82.0295 0.0768368 83.0441 0.0768368ZM85.3855 13.9066L84.8682 12.4691C83.7305 9.30834 82.6363 6.26846 81.4832 2.99645C80.6525 5.22258 79.8764 7.36813 79.1065 9.49662C78.5743 10.9678 78.0451 12.4308 77.5029 13.9066H85.3855ZM0 48.4041C0.312176 47.559 0.62435 46.6947 0.936525 45.8303C1.24871 44.9659 1.5609 44.1015 1.87309 43.2564C3.31619 38.9944 4.75928 34.7133 6.20238 30.4321L6.20426 30.4265L6.20469 30.4252C7.64852 26.1419 9.09234 21.8586 10.5362 17.5945C10.6142 17.2872 10.7703 16.903 10.9264 16.5189L10.9264 16.5188H15.8433C16.4528 16.5188 16.5417 16.9582 16.6182 17.3365L16.6237 17.364C17.6773 20.5141 18.7505 23.645 19.8236 26.7759C20.8967 29.9068 21.9699 33.0377 23.0235 36.1878L23.0258 36.1947L23.0259 36.1951L23.0265 36.1967C24.3523 40.1122 25.678 44.0276 27.0038 47.8663C27.0818 48.1734 27.1598 48.4038 27.3156 48.8641L27.3157 48.8642L27.3157 48.8643L27.316 48.8651H22.321C22.0869 48.8651 21.7747 48.4041 21.6967 48.0968C20.2138 43.4101 18.7309 38.6465 17.3261 33.9597C16.0774 29.8108 14.7506 25.6618 13.2678 21.5129C13.2287 21.6666 13.1702 21.801 13.1117 21.9355C13.0531 22.07 12.9946 22.2044 12.9556 22.3581C12.0712 25.2004 11.1781 28.0427 10.2851 30.8851L10.2848 30.886L10.2847 30.8862L10.2846 30.8865L10.2845 30.8869C8.49819 36.5723 6.71187 42.2577 4.99492 47.9431C4.76078 48.7115 4.44859 48.8651 3.66813 48.8651C2.92142 48.8192 2.20262 48.8557 1.47835 48.8924C0.99142 48.9171 0.502018 48.942 0 48.942V48.4041ZM175.758 64.8463C175.445 64.7695 175.133 64.7012 174.821 64.6329C174.197 64.4963 173.572 64.3597 172.948 64.1548C169.202 63.0023 167.016 60.3132 166.08 56.7021C164.909 52.169 164.831 47.6359 165.924 43.1028C167.173 37.9551 170.685 35.1123 176.07 34.7281C180.128 34.4208 184.03 34.9586 187.933 36.1879C187.829 36.5697 187.726 36.9431 187.622 37.3164L187.62 37.3236C187.412 38.0748 187.204 38.8259 186.996 39.6454C186.587 39.5607 186.185 39.4701 185.784 39.3802C184.733 39.1438 183.7 38.9115 182.626 38.8002C180.831 38.5697 179.114 38.4161 177.319 38.4929C173.338 38.7234 170.997 40.721 170.138 44.5626C169.358 48.0201 169.358 51.5544 170.216 55.0886C171.387 59.9291 174.743 61.6194 179.504 61.1584C180.654 61.0169 181.737 60.6149 182.876 60.1922L182.885 60.1891C182.98 60.1537 183.076 60.1182 183.172 60.0827C183.406 60.0059 183.718 59.6217 183.718 59.3912C183.77 58.0167 183.753 56.6759 183.736 55.3017C183.727 54.602 183.718 53.8937 183.718 53.1678H178.099V49.4799H187.933V50.8629V61.8498C187.933 62.4645 187.777 62.7718 187.152 63.0023C186.06 63.3096 184.987 63.6169 183.914 63.9242L183.913 63.9243L183.913 63.9244L183.913 63.9245L183.912 63.9246L183.912 63.9247L183.912 63.9248L183.911 63.9249L183.911 63.925L183.911 63.9251L183.91 63.9252L183.91 63.9252L183.91 63.9253C182.838 64.2323 181.766 64.5393 180.674 64.8463C180.596 64.8463 180.44 64.9231 180.362 65C178.879 64.8463 177.319 64.8463 175.758 64.8463ZM194.956 64.4623H212.828V60.8512H197.843V51.0935H210.565V47.3288H197.843V38.8004H212.516V35.1893H193.629V64.4623H194.956ZM175.721 4.41797C175.214 2.97737 174.706 1.53677 174.199 0.0769654H171.155C171.116 0.192213 171.077 0.32667 171.038 0.461126L171.038 0.462223V0.462236C170.999 0.596322 170.96 0.730355 170.921 0.845286C170.024 3.41897 169.107 5.97344 168.19 8.52792L168.19 8.52812C167.273 11.0829 166.355 13.6377 165.458 16.2117C164.834 17.9788 164.209 19.746 163.507 21.6668C163.758 21.6668 163.978 21.657 164.184 21.6479C164.553 21.6315 164.872 21.6174 165.224 21.6668C165.848 21.7436 166.16 21.5131 166.316 20.8985C166.514 20.3152 166.725 19.7319 166.939 19.1428L166.94 19.1393L166.942 19.1331L166.943 19.1322L166.943 19.1319C167.234 18.3278 167.53 17.513 167.799 16.6727C167.955 16.1349 168.268 15.9812 168.814 15.9812H176.306C176.853 15.9812 177.165 16.1349 177.321 16.6727C177.789 18.2093 178.335 19.6691 178.882 21.1289C178.96 21.3594 179.194 21.6668 179.428 21.6668C179.894 21.7177 180.394 21.7011 180.905 21.6841C181.165 21.6755 181.428 21.6668 181.691 21.6668C181.613 21.2826 181.535 20.9753 181.457 20.7448L177.243 8.75898C176.736 7.29917 176.228 5.85857 175.721 4.41797ZM172.638 3.3039H172.872C173.288 4.48193 173.705 5.65143 174.121 6.82093L174.121 6.82152L174.122 6.82524L174.123 6.82538C174.954 9.16307 175.786 11.5008 176.618 13.9067H168.736C169.199 12.6451 169.663 11.4022 170.123 10.1682L170.124 10.1667C170.981 7.86929 171.826 5.60284 172.638 3.3039ZM31.6887 0.0768368C32.3131 2.07447 32.9375 4.07209 33.5618 5.99289L45.5028 41.2588L52.9952 63.3865C53.0342 63.54 53.0732 63.6744 53.1122 63.8088L53.1123 63.809C53.1513 63.9435 53.1903 64.0779 53.2293 64.2316C51.7465 64.4621 51.7465 64.4621 51.3562 63.3096C44.2541 42.4113 37.1519 21.513 30.0498 0.537834C30.0107 0.461001 29.9912 0.364958 29.9717 0.268914L29.9717 0.268891C29.9522 0.172857 29.9327 0.0768252 29.8937 0C30.5961 0.0768321 31.1424 0.0768368 31.6887 0.0768368ZM90.3682 49.4099C90.327 49.3848 90.2788 49.3555 90.2192 49.3261C90.2381 49.3169 90.2566 49.3079 90.2749 49.2991L90.308 49.2833L90.352 49.2624L90.3525 49.2622C90.6005 49.1448 90.8001 49.0503 90.9997 48.7883C93.341 47.6358 94.6678 45.715 94.8239 43.1796C94.98 40.3368 94.2776 37.8782 91.624 36.2647C89.9851 35.3427 88.19 34.9585 86.3169 34.9585H74.6101C74.4428 34.9585 74.2979 34.9806 74.1634 35.0011C74.047 35.0188 73.9383 35.0354 73.8296 35.0354V64.3084H81.0879C81.6029 64.3084 82.118 64.3115 82.6331 64.3146C84.6935 64.3268 86.754 64.3391 88.8144 64.1547C92.6386 63.8474 95.0581 61.4656 95.6044 57.7777C96.2288 53.7824 94.3557 50.8628 90.5314 49.4798C90.4832 49.4798 90.4349 49.4504 90.3682 49.4099ZM87.9559 60.5436C84.678 60.6973 81.4781 60.7741 78.1221 60.851V60.8481C78.1221 57.5454 78.1221 54.473 78.0441 51.3238H81.0879C81.5525 51.3238 82.0219 51.319 82.4937 51.3142H82.4942H82.4946H82.4951H82.4956H82.496H82.4965H82.497H82.4975C83.9267 51.2998 85.378 51.2851 86.7852 51.4006C90.6095 51.6311 92.5606 55.3959 90.6875 58.6996C90.0631 59.7753 89.1266 60.4668 87.9559 60.5436ZM78.1221 47.4822V38.877C79.0905 38.877 80.0502 38.8511 81.004 38.8253C82.8943 38.7742 84.7617 38.7238 86.6291 38.877C89.9071 39.1843 91.546 42.7186 89.9071 45.6382C89.2047 46.8675 88.0339 47.4053 86.7072 47.4822C84.8369 47.5333 82.932 47.5164 81.0156 47.4993C80.0531 47.4907 79.0876 47.4822 78.1221 47.4822ZM118.57 57.3997L118.57 57.4005C120.03 59.7167 121.5 62.0504 122.997 64.4619H118.393C118.159 64.4619 117.846 64.0778 117.69 63.8473C116.158 61.4449 114.667 59.002 113.187 56.5775C112.632 55.6677 112.078 54.7606 111.525 53.8591C111.213 53.3213 110.9 53.0908 110.198 53.0908C109.01 53.1416 107.856 53.1252 106.668 53.1082C106.062 53.0996 105.446 53.0908 104.813 53.0908V64.3851H100.676V35.1121H101.613H112.93C121.827 35.1121 123.388 43.5636 121.046 48.3272C120.11 50.248 118.471 51.4773 116.442 52.0919C116.051 52.1688 115.817 52.2456 115.427 52.3993C116.473 54.0721 117.518 55.7313 118.57 57.3997ZM104.735 49.326H112.227C112.695 49.326 113.164 49.2492 113.632 49.1724L113.632 49.1723C115.349 48.865 116.676 47.943 117.3 46.2527C118.783 42.2575 116.442 38.8 112.149 38.8H105.593C105.359 38.8 105.047 38.8 104.813 38.8768C104.735 42.3333 104.735 45.7129 104.735 49.3228V49.326ZM137.206 35.1889V64.5387C138.876 64.483 140.536 64.4677 142.186 64.4525H142.187C145.085 64.4258 147.951 64.3994 150.786 64.1546C155.313 63.7704 158.122 60.9276 159.449 56.7019C160.62 52.8603 160.62 49.0187 160.073 45.1771C159.683 42.7184 158.903 40.4135 157.186 38.5695C154.844 35.9572 151.722 35.1889 148.366 35.1121H138.064C137.908 35.1121 137.772 35.1313 137.635 35.1505C137.499 35.1697 137.362 35.1889 137.206 35.1889ZM143.834 60.7317C143.036 60.7145 142.233 60.6971 141.42 60.6971V39.0305C141.498 38.9537 141.576 38.8768 141.655 38.8768C142.281 38.8768 142.903 38.872 143.522 38.8672H143.522H143.523H143.523H143.524H143.525H143.525C145.369 38.8528 147.18 38.8387 148.991 38.9537C152.425 39.1073 154.688 41.105 155.469 44.5624C156.249 47.943 156.249 51.4005 155.469 54.7811C154.61 58.5458 152.425 60.3898 148.523 60.6971C146.967 60.7992 145.412 60.7657 143.834 60.7317ZM187.155 21.6669H184.813V0.230766C185.054 0.230766 185.285 0.22178 185.51 0.213027C185.943 0.196187 186.354 0.180211 186.764 0.230766C187.077 0.307598 187.389 0.614941 187.545 0.845437C188.803 2.71777 190.072 4.59011 191.344 6.46649C193.465 9.59499 195.593 12.7348 197.691 15.9045C197.925 16.2887 198.237 16.6728 198.627 16.9802V0.230766H200.969V21.5901C200.729 21.5901 200.498 21.5991 200.272 21.6078C199.839 21.6247 199.429 21.6407 199.018 21.5901C198.706 21.5133 198.315 21.2059 198.159 20.8986C196.442 18.3632 194.725 15.8469 193.008 13.3306C191.291 10.8144 189.574 8.29814 187.857 5.76269C187.793 5.66804 187.716 5.56044 187.625 5.43457L187.625 5.43412L187.623 5.43158L187.623 5.43135L187.623 5.43099L187.623 5.43068C187.493 5.25076 187.337 5.03363 187.155 4.76388V21.6669ZM130.493 21.6667V12.7542H131.82C132.327 12.7542 132.834 12.759 133.342 12.7638C134.863 12.7782 136.385 12.7926 137.907 12.6774C141.341 12.4469 143.292 10.2188 143.371 6.68449C143.449 3.22705 141.419 0.614745 138.063 0.384249C135.726 0.219923 133.39 0.250847 131.024 0.282145C130.072 0.294748 129.115 0.307412 128.152 0.307412V21.6667H130.493ZM132.648 10.5513C131.957 10.5387 131.264 10.5261 130.571 10.5261V2.45872C131.313 2.45872 132.049 2.44596 132.779 2.4333C134.58 2.40205 136.341 2.37148 138.063 2.53554C140.015 2.76603 141.029 4.53317 140.951 6.7613C140.873 8.83577 139.78 10.2956 137.751 10.4493C136.081 10.6137 134.37 10.5826 132.648 10.5513ZM127.452 35.1121H131.511V64.3083H127.452V35.1121ZM93.5759 0.307227V21.6666C98.0245 21.6666 102.473 21.6666 106.922 21.5897V19.5921H95.9173V0.307227H93.5759ZM110.9 0.307227H113.163V19.5921H124.168V21.6666H110.9V0.307227ZM147.272 0.307227V21.6666C151.799 21.6666 156.169 21.6666 160.696 21.5897V19.5921H149.691V0.307227H147.272Z" fill="url(#paint0_linear_520_6438)"/>
<path fill-rule="evenodd" clip-rule="evenodd" d="M83.0441 0.0768368C85.5416 7.22222 88.039 14.3676 90.6145 21.6667C90.3158 21.6667 90.0359 21.676 89.7684 21.6849C89.2671 21.7015 88.8092 21.7167 88.3512 21.6667C88.1171 21.6667 87.8049 21.3593 87.7268 21.052C87.1807 19.5926 86.7125 18.1332 86.2444 16.6737L86.2443 16.6736L86.244 16.6726C86.0879 16.1347 85.8538 15.9042 85.2294 15.9042C83.5673 15.9554 81.9398 15.9385 80.3009 15.9214C79.4771 15.9128 78.6505 15.9042 77.8151 15.9042C77.1907 15.9042 76.9566 16.0579 76.7224 16.5957C76.4883 17.2872 76.2346 17.9787 75.981 18.6702C75.7273 19.3617 75.4737 20.0532 75.2395 20.7447C75.0054 21.3593 74.7713 21.6667 74.0688 21.5898C73.7175 21.5404 73.3985 21.5545 73.0287 21.5709C72.8235 21.58 72.6026 21.5898 72.3519 21.5898C73.413 18.5825 74.4742 15.6013 75.5299 12.6354C77.0364 8.40278 78.5319 4.20139 80.0003 0C81.0149 0.0768321 82.0295 0.0768368 83.0441 0.0768368ZM85.3855 13.9066L84.8682 12.4691C83.7305 9.30834 82.6363 6.26846 81.4832 2.99645C80.6525 5.22258 79.8764 7.36813 79.1065 9.49662C78.5743 10.9678 78.0451 12.4308 77.5029 13.9066H85.3855ZM0 48.4041C0.312176 47.559 0.62435 46.6947 0.936525 45.8303C1.24871 44.9659 1.5609 44.1015 1.87309 43.2564C3.31619 38.9944 4.75928 34.7133 6.20238 30.4321L6.20426 30.4265L6.20469 30.4252C7.64852 26.1419 9.09234 21.8586 10.5362 17.5945C10.6142 17.2872 10.7703 16.903 10.9264 16.5189L10.9264 16.5188H15.8433C16.4528 16.5188 16.5417 16.9582 16.6182 17.3365L16.6237 17.364C17.6773 20.5141 18.7505 23.645 19.8236 26.7759C20.8967 29.9068 21.9699 33.0377 23.0235 36.1878L23.0258 36.1947L23.0259 36.1951L23.0265 36.1967C24.3523 40.1122 25.678 44.0276 27.0038 47.8663C27.0818 48.1734 27.1598 48.4038 27.3156 48.8641L27.3157 48.8642L27.3157 48.8643L27.316 48.8651H22.321C22.0869 48.8651 21.7747 48.4041 21.6967 48.0968C20.2138 43.4101 18.7309 38.6465 17.3261 33.9597C16.0774 29.8108 14.7506 25.6618 13.2678 21.5129C13.2287 21.6666 13.1702 21.801 13.1117 21.9355C13.0531 22.07 12.9946 22.2044 12.9556 22.3581C12.0712 25.2004 11.1781 28.0427 10.2851 30.8851L10.2848 30.886L10.2847 30.8862L10.2846 30.8865L10.2845 30.8869C8.49819 36.5723 6.71187 42.2577 4.99492 47.9431C4.76078 48.7115 4.44859 48.8651 3.66813 48.8651C2.92142 48.8192 2.20262 48.8557 1.47835 48.8924C0.99142 48.9171 0.502018 48.942 0 48.942V48.4041ZM175.758 64.8463C175.445 64.7695 175.133 64.7012 174.821 64.6329C174.197 64.4963 173.572 64.3597 172.948 64.1548C169.202 63.0023 167.016 60.3132 166.08 56.7021C164.909 52.169 164.831 47.6359 165.924 43.1028C167.173 37.9551 170.685 35.1123 176.07 34.7281C180.128 34.4208 184.03 34.9586 187.933 36.1879C187.829 36.5697 187.726 36.9431 187.622 37.3164L187.62 37.3236C187.412 38.0748 187.204 38.8259 186.996 39.6454C186.587 39.5607 186.185 39.4701 185.784 39.3802C184.733 39.1438 183.7 38.9115 182.626 38.8002C180.831 38.5697 179.114 38.4161 177.319 38.4929C173.338 38.7234 170.997 40.721 170.138 44.5626C169.358 48.0201 169.358 51.5544 170.216 55.0886C171.387 59.9291 174.743 61.6194 179.504 61.1584C180.654 61.0169 181.737 60.6149 182.876 60.1922L182.885 60.1891C182.98 60.1537 183.076 60.1182 183.172 60.0827C183.406 60.0059 183.718 59.6217 183.718 59.3912C183.77 58.0167 183.753 56.6759 183.736 55.3017C183.727 54.602 183.718 53.8937 183.718 53.1678H178.099V49.4799H187.933V50.8629V61.8498C187.933 62.4645 187.777 62.7718 187.152 63.0023C186.06 63.3096 184.987 63.6169 183.914 63.9242L183.913 63.9243L183.913 63.9244L183.913 63.9245L183.912 63.9246L183.912 63.9247L183.912 63.9248L183.911 63.9249L183.911 63.925L183.911 63.9251L183.91 63.9252L183.91 63.9252L183.91 63.9253C182.838 64.2323 181.766 64.5393 180.674 64.8463C180.596 64.8463 180.44 64.9231 180.362 65C178.879 64.8463 177.319 64.8463 175.758 64.8463ZM194.956 64.4623H212.828V60.8512H197.843V51.0935H210.565V47.3288H197.843V38.8004H212.516V35.1893H193.629V64.4623H194.956ZM175.721 4.41797C175.214 2.97737 174.706 1.53677 174.199 0.0769654H171.155C171.116 0.192213 171.077 0.32667 171.038 0.461126L171.038 0.462223V0.462236C170.999 0.596322 170.96 0.730355 170.921 0.845286C170.024 3.41897 169.107 5.97344 168.19 8.52792L168.19 8.52812C167.273 11.0829 166.355 13.6377 165.458 16.2117C164.834 17.9788 164.209 19.746 163.507 21.6668C163.758 21.6668 163.978 21.657 164.184 21.6479C164.553 21.6315 164.872 21.6174 165.224 21.6668C165.848 21.7436 166.16 21.5131 166.316 20.8985C166.514 20.3152 166.725 19.7319 166.939 19.1428L166.94 19.1393L166.942 19.1331L166.943 19.1322L166.943 19.1319C167.234 18.3278 167.53 17.513 167.799 16.6727C167.955 16.1349 168.268 15.9812 168.814 15.9812H176.306C176.853 15.9812 177.165 16.1349 177.321 16.6727C177.789 18.2093 178.335 19.6691 178.882 21.1289C178.96 21.3594 179.194 21.6668 179.428 21.6668C179.894 21.7177 180.394 21.7011 180.905 21.6841C181.165 21.6755 181.428 21.6668 181.691 21.6668C181.613 21.2826 181.535 20.9753 181.457 20.7448L177.243 8.75898C176.736 7.29917 176.228 5.85857 175.721 4.41797ZM172.638 3.3039H172.872C173.288 4.48193 173.705 5.65143 174.121 6.82093L174.121 6.82152L174.122 6.82524L174.123 6.82538C174.954 9.16307 175.786 11.5008 176.618 13.9067H168.736C169.199 12.6451 169.663 11.4022 170.123 10.1682L170.124 10.1667C170.981 7.86929 171.826 5.60284 172.638 3.3039ZM31.6887 0.0768368C32.3131 2.07447 32.9375 4.07209 33.5618 5.99289L45.5028 41.2588L52.9952 63.3865C53.0342 63.54 53.0732 63.6744 53.1122 63.8088L53.1123 63.809C53.1513 63.9435 53.1903 64.0779 53.2293 64.2316C51.7465 64.4621 51.7465 64.4621 51.3562 63.3096C44.2541 42.4113 37.1519 21.513 30.0498 0.537834C30.0107 0.461001 29.9912 0.364958 29.9717 0.268914L29.9717 0.268891C29.9522 0.172857 29.9327 0.0768252 29.8937 0C30.5961 0.0768321 31.1424 0.0768368 31.6887 0.0768368ZM90.3682 49.4099C90.327 49.3848 90.2788 49.3555 90.2192 49.3261C90.2381 49.3169 90.2566 49.3079 90.2749 49.2991L90.308 49.2833L90.352 49.2624L90.3525 49.2622C90.6005 49.1448 90.8001 49.0503 90.9997 48.7883C93.341 47.6358 94.6678 45.715 94.8239 43.1796C94.98 40.3368 94.2776 37.8782 91.624 36.2647C89.9851 35.3427 88.19 34.9585 86.3169 34.9585H74.6101C74.4428 34.9585 74.2979 34.9806 74.1634 35.0011C74.047 35.0188 73.9383 35.0354 73.8296 35.0354V64.3084H81.0879C81.6029 64.3084 82.118 64.3115 82.6331 64.3146C84.6935 64.3268 86.754 64.3391 88.8144 64.1547C92.6386 63.8474 95.0581 61.4656 95.6044 57.7777C96.2288 53.7824 94.3557 50.8628 90.5314 49.4798C90.4832 49.4798 90.4349 49.4504 90.3682 49.4099ZM87.9559 60.5436C84.678 60.6973 81.4781 60.7741 78.1221 60.851V60.8481C78.1221 57.5454 78.1221 54.473 78.0441 51.3238H81.0879C81.5525 51.3238 82.0219 51.319 82.4937 51.3142H82.4942H82.4946H82.4951H82.4956H82.496H82.4965H82.497H82.4975C83.9267 51.2998 85.378 51.2851 86.7852 51.4006C90.6095 51.6311 92.5606 55.3959 90.6875 58.6996C90.0631 59.7753 89.1266 60.4668 87.9559 60.5436ZM78.1221 47.4822V38.877C79.0905 38.877 80.0502 38.8511 81.004 38.8253C82.8943 38.7742 84.7617 38.7238 86.6291 38.877C89.9071 39.1843 91.546 42.7186 89.9071 45.6382C89.2047 46.8675 88.0339 47.4053 86.7072 47.4822C84.8369 47.5333 82.932 47.5164 81.0156 47.4993C80.0531 47.4907 79.0876 47.4822 78.1221 47.4822ZM118.57 57.3997L118.57 57.4005C120.03 59.7167 121.5 62.0504 122.997 64.4619H118.393C118.159 64.4619 117.846 64.0778 117.69 63.8473C116.158 61.4449 114.667 59.002 113.187 56.5775C112.632 55.6677 112.078 54.7606 111.525 53.8591C111.213 53.3213 110.9 53.0908 110.198 53.0908C109.01 53.1416 107.856 53.1252 106.668 53.1082C106.062 53.0996 105.446 53.0908 104.813 53.0908V64.3851H100.676V35.1121H101.613H112.93C121.827 35.1121 123.388 43.5636 121.046 48.3272C120.11 50.248 118.471 51.4773 116.442 52.0919C116.051 52.1688 115.817 52.2456 115.427 52.3993C116.473 54.0721 117.518 55.7313 118.57 57.3997ZM104.735 49.326H112.227C112.695 49.326 113.164 49.2492 113.632 49.1724L113.632 49.1723C115.349 48.865 116.676 47.943 117.3 46.2527C118.783 42.2575 116.442 38.8 112.149 38.8H105.593C105.359 38.8 105.047 38.8 104.813 38.8768C104.735 42.3333 104.735 45.7129 104.735 49.3228V49.326ZM137.206 35.1889V64.5387C138.876 64.483 140.536 64.4677 142.186 64.4525H142.187C145.085 64.4258 147.951 64.3994 150.786 64.1546C155.313 63.7704 158.122 60.9276 159.449 56.7019C160.62 52.8603 160.62 49.0187 160.073 45.1771C159.683 42.7184 158.903 40.4135 157.186 38.5695C154.844 35.9572 151.722 35.1889 148.366 35.1121H138.064C137.908 35.1121 137.772 35.1313 137.635 35.1505C137.499 35.1697 137.362 35.1889 137.206 35.1889ZM143.834 60.7317C143.036 60.7145 142.233 60.6971 141.42 60.6971V39.0305C141.498 38.9537 141.576 38.8768 141.655 38.8768C142.281 38.8768 142.903 38.872 143.522 38.8672H143.522H143.523H143.523H143.524H143.525H143.525C145.369 38.8528 147.18 38.8387 148.991 38.9537C152.425 39.1073 154.688 41.105 155.469 44.5624C156.249 47.943 156.249 51.4005 155.469 54.7811C154.61 58.5458 152.425 60.3898 148.523 60.6971C146.967 60.7992 145.412 60.7657 143.834 60.7317ZM187.155 21.6669H184.813V0.230766C185.054 0.230766 185.285 0.22178 185.51 0.213027C185.943 0.196187 186.354 0.180211 186.764 0.230766C187.077 0.307598 187.389 0.614941 187.545 0.845437C188.803 2.71777 190.072 4.59011 191.344 6.46649C193.465 9.59499 195.593 12.7348 197.691 15.9045C197.925 16.2887 198.237 16.6728 198.627 16.9802V0.230766H200.969V21.5901C200.729 21.5901 200.498 21.5991 200.272 21.6078C199.839 21.6247 199.429 21.6407 199.018 21.5901C198.706 21.5133 198.315 21.2059 198.159 20.8986C196.442 18.3632 194.725 15.8469 193.008 13.3306C191.291 10.8144 189.574 8.29814 187.857 5.76269C187.793 5.66804 187.716 5.56044 187.625 5.43457L187.625 5.43412L187.623 5.43158L187.623 5.43135L187.623 5.43099L187.623 5.43068C187.493 5.25076 187.337 5.03363 187.155 4.76388V21.6669ZM130.493 21.6667V12.7542H131.82C132.327 12.7542 132.834 12.759 133.342 12.7638C134.863 12.7782 136.385 12.7926 137.907 12.6774C141.341 12.4469 143.292 10.2188 143.371 6.68449C143.449 3.22705 141.419 0.614745 138.063 0.384249C135.726 0.219923 133.39 0.250847 131.024 0.282145C130.072 0.294748 129.115 0.307412 128.152 0.307412V21.6667H130.493ZM132.648 10.5513C131.957 10.5387 131.264 10.5261 130.571 10.5261V2.45872C131.313 2.45872 132.049 2.44596 132.779 2.4333C134.58 2.40205 136.341 2.37148 138.063 2.53554C140.015 2.76603 141.029 4.53317 140.951 6.7613C140.873 8.83577 139.78 10.2956 137.751 10.4493C136.081 10.6137 134.37 10.5826 132.648 10.5513ZM127.452 35.1121H131.511V64.3083H127.452V35.1121ZM93.5759 0.307227V21.6666C98.0245 21.6666 102.473 21.6666 106.922 21.5897V19.5921H95.9173V0.307227H93.5759ZM110.9 0.307227H113.163V19.5921H124.168V21.6666H110.9V0.307227ZM147.272 0.307227V21.6666C151.799 21.6666 156.169 21.6666 160.696 21.5897V19.5921H149.691V0.307227H147.272Z" fill="#183646"/>
<path fill-rule="evenodd" clip-rule="evenodd" d="M83.0441 0.0768368C85.5416 7.22222 88.039 14.3676 90.6145 21.6667C90.3158 21.6667 90.0359 21.676 89.7684 21.6849C89.2671 21.7015 88.8092 21.7167 88.3512 21.6667C88.1171 21.6667 87.8049 21.3593 87.7268 21.052C87.1807 19.5926 86.7125 18.1332 86.2444 16.6737L86.2443 16.6736L86.244 16.6726C86.0879 16.1347 85.8538 15.9042 85.2294 15.9042C83.5673 15.9554 81.9398 15.9385 80.3009 15.9214C79.4771 15.9128 78.6505 15.9042 77.8151 15.9042C77.1907 15.9042 76.9566 16.0579 76.7224 16.5957C76.4883 17.2872 76.2346 17.9787 75.981 18.6702C75.7273 19.3617 75.4737 20.0532 75.2395 20.7447C75.0054 21.3593 74.7713 21.6667 74.0688 21.5898C73.7175 21.5404 73.3985 21.5545 73.0287 21.5709C72.8235 21.58 72.6026 21.5898 72.3519 21.5898C73.413 18.5825 74.4742 15.6013 75.5299 12.6354C77.0364 8.40278 78.5319 4.20139 80.0003 0C81.0149 0.0768321 82.0295 0.0768368 83.0441 0.0768368ZM85.3855 13.9066L84.8682 12.4691C83.7305 9.30834 82.6363 6.26846 81.4832 2.99645C80.6525 5.22258 79.8764 7.36813 79.1065 9.49662C78.5743 10.9678 78.0451 12.4308 77.5029 13.9066H85.3855ZM0 48.4041C0.312176 47.559 0.62435 46.6947 0.936525 45.8303C1.24871 44.9659 1.5609 44.1015 1.87309 43.2564C3.31619 38.9944 4.75928 34.7133 6.20238 30.4321L6.20426 30.4265L6.20469 30.4252C7.64852 26.1419 9.09234 21.8586 10.5362 17.5945C10.6142 17.2872 10.7703 16.903 10.9264 16.5189L10.9264 16.5188H15.8433C16.4528 16.5188 16.5417 16.9582 16.6182 17.3365L16.6237 17.364C17.6773 20.5141 18.7505 23.645 19.8236 26.7759C20.8967 29.9068 21.9699 33.0377 23.0235 36.1878L23.0258 36.1947L23.0259 36.1951L23.0265 36.1967C24.3523 40.1122 25.678 44.0276 27.0038 47.8663C27.0818 48.1734 27.1598 48.4038 27.3156 48.8641L27.3157 48.8642L27.3157 48.8643L27.316 48.8651H22.321C22.0869 48.8651 21.7747 48.4041 21.6967 48.0968C20.2138 43.4101 18.7309 38.6465 17.3261 33.9597C16.0774 29.8108 14.7506 25.6618 13.2678 21.5129C13.2287 21.6666 13.1702 21.801 13.1117 21.9355C13.0531 22.07 12.9946 22.2044 12.9556 22.3581C12.0712 25.2004 11.1781 28.0427 10.2851 30.8851L10.2848 30.886L10.2847 30.8862L10.2846 30.8865L10.2845 30.8869C8.49819 36.5723 6.71187 42.2577 4.99492 47.9431C4.76078 48.7115 4.44859 48.8651 3.66813 48.8651C2.92142 48.8192 2.20262 48.8557 1.47835 48.8924C0.99142 48.9171 0.502018 48.942 0 48.942V48.4041ZM175.758 64.8463C175.445 64.7695 175.133 64.7012 174.821 64.6329C174.197 64.4963 173.572 64.3597 172.948 64.1548C169.202 63.0023 167.016 60.3132 166.08 56.7021C164.909 52.169 164.831 47.6359 165.924 43.1028C167.173 37.9551 170.685 35.1123 176.07 34.7281C180.128 34.4208 184.03 34.9586 187.933 36.1879C187.829 36.5697 187.726 36.9431 187.622 37.3164L187.62 37.3236C187.412 38.0748 187.204 38.8259 186.996 39.6454C186.587 39.5607 186.185 39.4701 185.784 39.3802C184.733 39.1438 183.7 38.9115 182.626 38.8002C180.831 38.5697 179.114 38.4161 177.319 38.4929C173.338 38.7234 170.997 40.721 170.138 44.5626C169.358 48.0201 169.358 51.5544 170.216 55.0886C171.387 59.9291 174.743 61.6194 179.504 61.1584C180.654 61.0169 181.737 60.6149 182.876 60.1922L182.885 60.1891C182.98 60.1537 183.076 60.1182 183.172 60.0827C183.406 60.0059 183.718 59.6217 183.718 59.3912C183.77 58.0167 183.753 56.6759 183.736 55.3017C183.727 54.602 183.718 53.8937 183.718 53.1678H178.099V49.4799H187.933V50.8629V61.8498C187.933 62.4645 187.777 62.7718 187.152 63.0023C186.06 63.3096 184.987 63.6169 183.914 63.9242L183.913 63.9243L183.913 63.9244L183.913 63.9245L183.912 63.9246L183.912 63.9247L183.912 63.9248L183.911 63.9249L183.911 63.925L183.911 63.9251L183.91 63.9252L183.91 63.9252L183.91 63.9253C182.838 64.2323 181.766 64.5393 180.674 64.8463C180.596 64.8463 180.44 64.9231 180.362 65C178.879 64.8463 177.319 64.8463 175.758 64.8463ZM194.956 64.4623H212.828V60.8512H197.843V51.0935H210.565V47.3288H197.843V38.8004H212.516V35.1893H193.629V64.4623H194.956ZM175.721 4.41797C175.214 2.97737 174.706 1.53677 174.199 0.0769654H171.155C171.116 0.192213 171.077 0.32667 171.038 0.461126L171.038 0.462223V0.462236C170.999 0.596322 170.96 0.730355 170.921 0.845286C170.024 3.41897 169.107 5.97344 168.19 8.52792L168.19 8.52812C167.273 11.0829 166.355 13.6377 165.458 16.2117C164.834 17.9788 164.209 19.746 163.507 21.6668C163.758 21.6668 163.978 21.657 164.184 21.6479C164.553 21.6315 164.872 21.6174 165.224 21.6668C165.848 21.7436 166.16 21.5131 166.316 20.8985C166.514 20.3152 166.725 19.7319 166.939 19.1428L166.94 19.1393L166.942 19.1331L166.943 19.1322L166.943 19.1319C167.234 18.3278 167.53 17.513 167.799 16.6727C167.955 16.1349 168.268 15.9812 168.814 15.9812H176.306C176.853 15.9812 177.165 16.1349 177.321 16.6727C177.789 18.2093 178.335 19.6691 178.882 21.1289C178.96 21.3594 179.194 21.6668 179.428 21.6668C179.894 21.7177 180.394 21.7011 180.905 21.6841C181.165 21.6755 181.428 21.6668 181.691 21.6668C181.613 21.2826 181.535 20.9753 181.457 20.7448L177.243 8.75898C176.736 7.29917 176.228 5.85857 175.721 4.41797ZM172.638 3.3039H172.872C173.288 4.48193 173.705 5.65143 174.121 6.82093L174.121 6.82152L174.122 6.82524L174.123 6.82538C174.954 9.16307 175.786 11.5008 176.618 13.9067H168.736C169.199 12.6451 169.663 11.4022 170.123 10.1682L170.124 10.1667C170.981 7.86929 171.826 5.60284 172.638 3.3039ZM31.6887 0.0768368C32.3131 2.07447 32.9375 4.07209 33.5618 5.99289L45.5028 41.2588L52.9952 63.3865C53.0342 63.54 53.0732 63.6744 53.1122 63.8088L53.1123 63.809C53.1513 63.9435 53.1903 64.0779 53.2293 64.2316C51.7465 64.4621 51.7465 64.4621 51.3562 63.3096C44.2541 42.4113 37.1519 21.513 30.0498 0.537834C30.0107 0.461001 29.9912 0.364958 29.9717 0.268914L29.9717 0.268891C29.9522 0.172857 29.9327 0.0768252 29.8937 0C30.5961 0.0768321 31.1424 0.0768368 31.6887 0.0768368ZM90.3682 49.4099C90.327 49.3848 90.2788 49.3555 90.2192 49.3261C90.2381 49.3169 90.2566 49.3079 90.2749 49.2991L90.308 49.2833L90.352 49.2624L90.3525 49.2622C90.6005 49.1448 90.8001 49.0503 90.9997 48.7883C93.341 47.6358 94.6678 45.715 94.8239 43.1796C94.98 40.3368 94.2776 37.8782 91.624 36.2647C89.9851 35.3427 88.19 34.9585 86.3169 34.9585H74.6101C74.4428 34.9585 74.2979 34.9806 74.1634 35.0011C74.047 35.0188 73.9383 35.0354 73.8296 35.0354V64.3084H81.0879C81.6029 64.3084 82.118 64.3115 82.6331 64.3146C84.6935 64.3268 86.754 64.3391 88.8144 64.1547C92.6386 63.8474 95.0581 61.4656 95.6044 57.7777C96.2288 53.7824 94.3557 50.8628 90.5314 49.4798C90.4832 49.4798 90.4349 49.4504 90.3682 49.4099ZM87.9559 60.5436C84.678 60.6973 81.4781 60.7741 78.1221 60.851V60.8481C78.1221 57.5454 78.1221 54.473 78.0441 51.3238H81.0879C81.5525 51.3238 82.0219 51.319 82.4937 51.3142H82.4942H82.4946H82.4951H82.4956H82.496H82.4965H82.497H82.4975C83.9267 51.2998 85.378 51.2851 86.7852 51.4006C90.6095 51.6311 92.5606 55.3959 90.6875 58.6996C90.0631 59.7753 89.1266 60.4668 87.9559 60.5436ZM78.1221 47.4822V38.877C79.0905 38.877 80.0502 38.8511 81.004 38.8253C82.8943 38.7742 84.7617 38.7238 86.6291 38.877C89.9071 39.1843 91.546 42.7186 89.9071 45.6382C89.2047 46.8675 88.0339 47.4053 86.7072 47.4822C84.8369 47.5333 82.932 47.5164 81.0156 47.4993C80.0531 47.4907 79.0876 47.4822 78.1221 47.4822ZM118.57 57.3997L118.57 57.4005C120.03 59.7167 121.5 62.0504 122.997 64.4619H118.393C118.159 64.4619 117.846 64.0778 117.69 63.8473C116.158 61.4449 114.667 59.002 113.187 56.5775C112.632 55.6677 112.078 54.7606 111.525 53.8591C111.213 53.3213 110.9 53.0908 110.198 53.0908C109.01 53.1416 107.856 53.1252 106.668 53.1082C106.062 53.0996 105.446 53.0908 104.813 53.0908V64.3851H100.676V35.1121H101.613H112.93C121.827 35.1121 123.388 43.5636 121.046 48.3272C120.11 50.248 118.471 51.4773 116.442 52.0919C116.051 52.1688 115.817 52.2456 115.427 52.3993C116.473 54.0721 117.518 55.7313 118.57 57.3997ZM104.735 49.326H112.227C112.695 49.326 113.164 49.2492 113.632 49.1724L113.632 49.1723C115.349 48.865 116.676 47.943 117.3 46.2527C118.783 42.2575 116.442 38.8 112.149 38.8H105.593C105.359 38.8 105.047 38.8 104.813 38.8768C104.735 42.3333 104.735 45.7129 104.735 49.3228V49.326ZM137.206 35.1889V64.5387C138.876 64.483 140.536 64.4677 142.186 64.4525H142.187C145.085 64.4258 147.951 64.3994 150.786 64.1546C155.313 63.7704 158.122 60.9276 159.449 56.7019C160.62 52.8603 160.62 49.0187 160.073 45.1771C159.683 42.7184 158.903 40.4135 157.186 38.5695C154.844 35.9572 151.722 35.1889 148.366 35.1121H138.064C137.908 35.1121 137.772 35.1313 137.635 35.1505C137.499 35.1697 137.362 35.1889 137.206 35.1889ZM143.834 60.7317C143.036 60.7145 142.233 60.6971 141.42 60.6971V39.0305C141.498 38.9537 141.576 38.8768 141.655 38.8768C142.281 38.8768 142.903 38.872 143.522 38.8672H143.522H143.523H143.523H143.524H143.525H143.525C145.369 38.8528 147.18 38.8387 148.991 38.9537C152.425 39.1073 154.688 41.105 155.469 44.5624C156.249 47.943 156.249 51.4005 155.469 54.7811C154.61 58.5458 152.425 60.3898 148.523 60.6971C146.967 60.7992 145.412 60.7657 143.834 60.7317ZM187.155 21.6669H184.813V0.230766C185.054 0.230766 185.285 0.22178 185.51 0.213027C185.943 0.196187 186.354 0.180211 186.764 0.230766C187.077 0.307598 187.389 0.614941 187.545 0.845437C188.803 2.71777 190.072 4.59011 191.344 6.46649C193.465 9.59499 195.593 12.7348 197.691 15.9045C197.925 16.2887 198.237 16.6728 198.627 16.9802V0.230766H200.969V21.5901C200.729 21.5901 200.498 21.5991 200.272 21.6078C199.839 21.6247 199.429 21.6407 199.018 21.5901C198.706 21.5133 198.315 21.2059 198.159 20.8986C196.442 18.3632 194.725 15.8469 193.008 13.3306C191.291 10.8144 189.574 8.29814 187.857 5.76269C187.793 5.66804 187.716 5.56044 187.625 5.43457L187.625 5.43412L187.623 5.43158L187.623 5.43135L187.623 5.43099L187.623 5.43068C187.493 5.25076 187.337 5.03363 187.155 4.76388V21.6669ZM130.493 21.6667V12.7542H131.82C132.327 12.7542 132.834 12.759 133.342 12.7638C134.863 12.7782 136.385 12.7926 137.907 12.6774C141.341 12.4469 143.292 10.2188 143.371 6.68449C143.449 3.22705 141.419 0.614745 138.063 0.384249C135.726 0.219923 133.39 0.250847 131.024 0.282145C130.072 0.294748 129.115 0.307412 128.152 0.307412V21.6667H130.493ZM132.648 10.5513C131.957 10.5387 131.264 10.5261 130.571 10.5261V2.45872C131.313 2.45872 132.049 2.44596 132.779 2.4333C134.58 2.40205 136.341 2.37148 138.063 2.53554C140.015 2.76603 141.029 4.53317 140.951 6.7613C140.873 8.83577 139.78 10.2956 137.751 10.4493C136.081 10.6137 134.37 10.5826 132.648 10.5513ZM127.452 35.1121H131.511V64.3083H127.452V35.1121ZM93.5759 0.307227V21.6666C98.0245 21.6666 102.473 21.6666 106.922 21.5897V19.5921H95.9173V0.307227H93.5759ZM110.9 0.307227H113.163V19.5921H124.168V21.6666H110.9V0.307227ZM147.272 0.307227V21.6666C151.799 21.6666 156.169 21.6666 160.696 21.5897V19.5921H149.691V0.307227H147.272Z" fill="#005B8B"/>
<path fill-rule="evenodd" clip-rule="evenodd" d="M83.0441 0.0768368C85.5416 7.22222 88.039 14.3676 90.6145 21.6667C90.3158 21.6667 90.0359 21.676 89.7684 21.6849C89.2671 21.7015 88.8092 21.7167 88.3512 21.6667C88.1171 21.6667 87.8049 21.3593 87.7268 21.052C87.1807 19.5926 86.7125 18.1332 86.2444 16.6737L86.2443 16.6736L86.244 16.6726C86.0879 16.1347 85.8538 15.9042 85.2294 15.9042C83.5673 15.9554 81.9398 15.9385 80.3009 15.9214C79.4771 15.9128 78.6505 15.9042 77.8151 15.9042C77.1907 15.9042 76.9566 16.0579 76.7224 16.5957C76.4883 17.2872 76.2346 17.9787 75.981 18.6702C75.7273 19.3617 75.4737 20.0532 75.2395 20.7447C75.0054 21.3593 74.7713 21.6667 74.0688 21.5898C73.7175 21.5404 73.3985 21.5545 73.0287 21.5709C72.8235 21.58 72.6026 21.5898 72.3519 21.5898C73.413 18.5825 74.4742 15.6013 75.5299 12.6354C77.0364 8.40278 78.5319 4.20139 80.0003 0C81.0149 0.0768321 82.0295 0.0768368 83.0441 0.0768368ZM85.3855 13.9066L84.8682 12.4691C83.7305 9.30834 82.6363 6.26846 81.4832 2.99645C80.6525 5.22258 79.8764 7.36813 79.1065 9.49662C78.5743 10.9678 78.0451 12.4308 77.5029 13.9066H85.3855ZM0 48.4041C0.312176 47.559 0.62435 46.6947 0.936525 45.8303C1.24871 44.9659 1.5609 44.1015 1.87309 43.2564C3.31619 38.9944 4.75928 34.7133 6.20238 30.4321L6.20426 30.4265L6.20469 30.4252C7.64852 26.1419 9.09234 21.8586 10.5362 17.5945C10.6142 17.2872 10.7703 16.903 10.9264 16.5189L10.9264 16.5188H15.8433C16.4528 16.5188 16.5417 16.9582 16.6182 17.3365L16.6237 17.364C17.6773 20.5141 18.7505 23.645 19.8236 26.7759C20.8967 29.9068 21.9699 33.0377 23.0235 36.1878L23.0258 36.1947L23.0259 36.1951L23.0265 36.1967C24.3523 40.1122 25.678 44.0276 27.0038 47.8663C27.0818 48.1734 27.1598 48.4038 27.3156 48.8641L27.3157 48.8642L27.3157 48.8643L27.316 48.8651H22.321C22.0869 48.8651 21.7747 48.4041 21.6967 48.0968C20.2138 43.4101 18.7309 38.6465 17.3261 33.9597C16.0774 29.8108 14.7506 25.6618 13.2678 21.5129C13.2287 21.6666 13.1702 21.801 13.1117 21.9355C13.0531 22.07 12.9946 22.2044 12.9556 22.3581C12.0712 25.2004 11.1781 28.0427 10.2851 30.8851L10.2848 30.886L10.2847 30.8862L10.2846 30.8865L10.2845 30.8869C8.49819 36.5723 6.71187 42.2577 4.99492 47.9431C4.76078 48.7115 4.44859 48.8651 3.66813 48.8651C2.92142 48.8192 2.20262 48.8557 1.47835 48.8924C0.99142 48.9171 0.502018 48.942 0 48.942V48.4041ZM175.758 64.8463C175.445 64.7695 175.133 64.7012 174.821 64.6329C174.197 64.4963 173.572 64.3597 172.948 64.1548C169.202 63.0023 167.016 60.3132 166.08 56.7021C164.909 52.169 164.831 47.6359 165.924 43.1028C167.173 37.9551 170.685 35.1123 176.07 34.7281C180.128 34.4208 184.03 34.9586 187.933 36.1879C187.829 36.5697 187.726 36.9431 187.622 37.3164L187.62 37.3236C187.412 38.0748 187.204 38.8259 186.996 39.6454C186.587 39.5607 186.185 39.4701 185.784 39.3802C184.733 39.1438 183.7 38.9115 182.626 38.8002C180.831 38.5697 179.114 38.4161 177.319 38.4929C173.338 38.7234 170.997 40.721 170.138 44.5626C169.358 48.0201 169.358 51.5544 170.216 55.0886C171.387 59.9291 174.743 61.6194 179.504 61.1584C180.654 61.0169 181.737 60.6149 182.876 60.1922L182.885 60.1891C182.98 60.1537 183.076 60.1182 183.172 60.0827C183.406 60.0059 183.718 59.6217 183.718 59.3912C183.77 58.0167 183.753 56.6759 183.736 55.3017C183.727 54.602 183.718 53.8937 183.718 53.1678H178.099V49.4799H187.933V50.8629V61.8498C187.933 62.4645 187.777 62.7718 187.152 63.0023C186.06 63.3096 184.987 63.6169 183.914 63.9242L183.913 63.9243L183.913 63.9244L183.913 63.9245L183.912 63.9246L183.912 63.9247L183.912 63.9248L183.911 63.9249L183.911 63.925L183.911 63.9251L183.91 63.9252L183.91 63.9252L183.91 63.9253C182.838 64.2323 181.766 64.5393 180.674 64.8463C180.596 64.8463 180.44 64.9231 180.362 65C178.879 64.8463 177.319 64.8463 175.758 64.8463ZM194.956 64.4623H212.828V60.8512H197.843V51.0935H210.565V47.3288H197.843V38.8004H212.516V35.1893H193.629V64.4623H194.956ZM175.721 4.41797C175.214 2.97737 174.706 1.53677 174.199 0.0769654H171.155C171.116 0.192213 171.077 0.32667 171.038 0.461126L171.038 0.462223V0.462236C170.999 0.596322 170.96 0.730355 170.921 0.845286C170.024 3.41897 169.107 5.97344 168.19 8.52792L168.19 8.52812C167.273 11.0829 166.355 13.6377 165.458 16.2117C164.834 17.9788 164.209 19.746 163.507 21.6668C163.758 21.6668 163.978 21.657 164.184 21.6479C164.553 21.6315 164.872 21.6174 165.224 21.6668C165.848 21.7436 166.16 21.5131 166.316 20.8985C166.514 20.3152 166.725 19.7319 166.939 19.1428L166.94 19.1393L166.942 19.1331L166.943 19.1322L166.943 19.1319C167.234 18.3278 167.53 17.513 167.799 16.6727C167.955 16.1349 168.268 15.9812 168.814 15.9812H176.306C176.853 15.9812 177.165 16.1349 177.321 16.6727C177.789 18.2093 178.335 19.6691 178.882 21.1289C178.96 21.3594 179.194 21.6668 179.428 21.6668C179.894 21.7177 180.394 21.7011 180.905 21.6841C181.165 21.6755 181.428 21.6668 181.691 21.6668C181.613 21.2826 181.535 20.9753 181.457 20.7448L177.243 8.75898C176.736 7.29917 176.228 5.85857 175.721 4.41797ZM172.638 3.3039H172.872C173.288 4.48193 173.705 5.65143 174.121 6.82093L174.121 6.82152L174.122 6.82524L174.123 6.82538C174.954 9.16307 175.786 11.5008 176.618 13.9067H168.736C169.199 12.6451 169.663 11.4022 170.123 10.1682L170.124 10.1667C170.981 7.86929 171.826 5.60284 172.638 3.3039ZM31.6887 0.0768368C32.3131 2.07447 32.9375 4.07209 33.5618 5.99289L45.5028 41.2588L52.9952 63.3865C53.0342 63.54 53.0732 63.6744 53.1122 63.8088L53.1123 63.809C53.1513 63.9435 53.1903 64.0779 53.2293 64.2316C51.7465 64.4621 51.7465 64.4621 51.3562 63.3096C44.2541 42.4113 37.1519 21.513 30.0498 0.537834C30.0107 0.461001 29.9912 0.364958 29.9717 0.268914L29.9717 0.268891C29.9522 0.172857 29.9327 0.0768252 29.8937 0C30.5961 0.0768321 31.1424 0.0768368 31.6887 0.0768368ZM90.3682 49.4099C90.327 49.3848 90.2788 49.3555 90.2192 49.3261C90.2381 49.3169 90.2566 49.3079 90.2749 49.2991L90.308 49.2833L90.352 49.2624L90.3525 49.2622C90.6005 49.1448 90.8001 49.0503 90.9997 48.7883C93.341 47.6358 94.6678 45.715 94.8239 43.1796C94.98 40.3368 94.2776 37.8782 91.624 36.2647C89.9851 35.3427 88.19 34.9585 86.3169 34.9585H74.6101C74.4428 34.9585 74.2979 34.9806 74.1634 35.0011C74.047 35.0188 73.9383 35.0354 73.8296 35.0354V64.3084H81.0879C81.6029 64.3084 82.118 64.3115 82.6331 64.3146C84.6935 64.3268 86.754 64.3391 88.8144 64.1547C92.6386 63.8474 95.0581 61.4656 95.6044 57.7777C96.2288 53.7824 94.3557 50.8628 90.5314 49.4798C90.4832 49.4798 90.4349 49.4504 90.3682 49.4099ZM87.9559 60.5436C84.678 60.6973 81.4781 60.7741 78.1221 60.851V60.8481C78.1221 57.5454 78.1221 54.473 78.0441 51.3238H81.0879C81.5525 51.3238 82.0219 51.319 82.4937 51.3142H82.4942H82.4946H82.4951H82.4956H82.496H82.4965H82.497H82.4975C83.9267 51.2998 85.378 51.2851 86.7852 51.4006C90.6095 51.6311 92.5606 55.3959 90.6875 58.6996C90.0631 59.7753 89.1266 60.4668 87.9559 60.5436ZM78.1221 47.4822V38.877C79.0905 38.877 80.0502 38.8511 81.004 38.8253C82.8943 38.7742 84.7617 38.7238 86.6291 38.877C89.9071 39.1843 91.546 42.7186 89.9071 45.6382C89.2047 46.8675 88.0339 47.4053 86.7072 47.4822C84.8369 47.5333 82.932 47.5164 81.0156 47.4993C80.0531 47.4907 79.0876 47.4822 78.1221 47.4822ZM118.57 57.3997L118.57 57.4005C120.03 59.7167 121.5 62.0504 122.997 64.4619H118.393C118.159 64.4619 117.846 64.0778 117.69 63.8473C116.158 61.4449 114.667 59.002 113.187 56.5775C112.632 55.6677 112.078 54.7606 111.525 53.8591C111.213 53.3213 110.9 53.0908 110.198 53.0908C109.01 53.1416 107.856 53.1252 106.668 53.1082C106.062 53.0996 105.446 53.0908 104.813 53.0908V64.3851H100.676V35.1121H101.613H112.93C121.827 35.1121 123.388 43.5636 121.046 48.3272C120.11 50.248 118.471 51.4773 116.442 52.0919C116.051 52.1688 115.817 52.2456 115.427 52.3993C116.473 54.0721 117.518 55.7313 118.57 57.3997ZM104.735 49.326H112.227C112.695 49.326 113.164 49.2492 113.632 49.1724L113.632 49.1723C115.349 48.865 116.676 47.943 117.3 46.2527C118.783 42.2575 116.442 38.8 112.149 38.8H105.593C105.359 38.8 105.047 38.8 104.813 38.8768C104.735 42.3333 104.735 45.7129 104.735 49.3228V49.326ZM137.206 35.1889V64.5387C138.876 64.483 140.536 64.4677 142.186 64.4525H142.187C145.085 64.4258 147.951 64.3994 150.786 64.1546C155.313 63.7704 158.122 60.9276 159.449 56.7019C160.62 52.8603 160.62 49.0187 160.073 45.1771C159.683 42.7184 158.903 40.4135 157.186 38.5695C154.844 35.9572 151.722 35.1889 148.366 35.1121H138.064C137.908 35.1121 137.772 35.1313 137.635 35.1505C137.499 35.1697 137.362 35.1889 137.206 35.1889ZM143.834 60.7317C143.036 60.7145 142.233 60.6971 141.42 60.6971V39.0305C141.498 38.9537 141.576 38.8768 141.655 38.8768C142.281 38.8768 142.903 38.872 143.522 38.8672H143.522H143.523H143.523H143.524H143.525H143.525C145.369 38.8528 147.18 38.8387 148.991 38.9537C152.425 39.1073 154.688 41.105 155.469 44.5624C156.249 47.943 156.249 51.4005 155.469 54.7811C154.61 58.5458 152.425 60.3898 148.523 60.6971C146.967 60.7992 145.412 60.7657 143.834 60.7317ZM187.155 21.6669H184.813V0.230766C185.054 0.230766 185.285 0.22178 185.51 0.213027C185.943 0.196187 186.354 0.180211 186.764 0.230766C187.077 0.307598 187.389 0.614941 187.545 0.845437C188.803 2.71777 190.072 4.59011 191.344 6.46649C193.465 9.59499 195.593 12.7348 197.691 15.9045C197.925 16.2887 198.237 16.6728 198.627 16.9802V0.230766H200.969V21.5901C200.729 21.5901 200.498 21.5991 200.272 21.6078C199.839 21.6247 199.429 21.6407 199.018 21.5901C198.706 21.5133 198.315 21.2059 198.159 20.8986C196.442 18.3632 194.725 15.8469 193.008 13.3306C191.291 10.8144 189.574 8.29814 187.857 5.76269C187.793 5.66804 187.716 5.56044 187.625 5.43457L187.625 5.43412L187.623 5.43158L187.623 5.43135L187.623 5.43099L187.623 5.43068C187.493 5.25076 187.337 5.03363 187.155 4.76388V21.6669ZM130.493 21.6667V12.7542H131.82C132.327 12.7542 132.834 12.759 133.342 12.7638C134.863 12.7782 136.385 12.7926 137.907 12.6774C141.341 12.4469 143.292 10.2188 143.371 6.68449C143.449 3.22705 141.419 0.614745 138.063 0.384249C135.726 0.219923 133.39 0.250847 131.024 0.282145C130.072 0.294748 129.115 0.307412 128.152 0.307412V21.6667H130.493ZM132.648 10.5513C131.957 10.5387 131.264 10.5261 130.571 10.5261V2.45872C131.313 2.45872 132.049 2.44596 132.779 2.4333C134.58 2.40205 136.341 2.37148 138.063 2.53554C140.015 2.76603 141.029 4.53317 140.951 6.7613C140.873 8.83577 139.78 10.2956 137.751 10.4493C136.081 10.6137 134.37 10.5826 132.648 10.5513ZM127.452 35.1121H131.511V64.3083H127.452V35.1121ZM93.5759 0.307227V21.6666C98.0245 21.6666 102.473 21.6666 106.922 21.5897V19.5921H95.9173V0.307227H93.5759ZM110.9 0.307227H113.163V19.5921H124.168V21.6666H110.9V0.307227ZM147.272 0.307227V21.6666C151.799 21.6666 156.169 21.6666 160.696 21.5897V19.5921H149.691V0.307227H147.272Z" fill="url(#paint1_linear_520_6438)"/>
<defs>
<linearGradient id="paint0_linear_520_6438" x1="212.984" y1="65.0333" x2="93.7638" y2="141.459" gradientUnits="userSpaceOnUse">
<stop offset="1" stop-color="#9002FF"/>
</linearGradient>
<linearGradient id="paint1_linear_520_6438" x1="212.984" y1="65.0333" x2="93.7638" y2="141.459" gradientUnits="userSpaceOnUse">
<stop stop-color="#FA3901"/>
<stop offset="1" stop-color="#FF8902"/>
</linearGradient>
</defs>
</svg>
