<svg width="270" height="50" viewBox="0 0 270 50" fill="none" xmlns="http://www.w3.org/2000/svg">
<path fill-rule="evenodd" clip-rule="evenodd" d="M215.566 17.8797C216.413 20.1709 217.296 22.6573 218.216 25.3383H214.44C213.157 21.487 211.886 17.7698 210.628 14.1865C209.368 10.628 208.074 7.30047 206.743 4.20509C205.411 7.32513 204.116 10.6644 202.858 14.223C201.598 17.7821 200.316 21.487 199.008 25.3383H195.124C196.02 22.6573 196.891 20.1709 197.738 17.8797C198.585 15.6125 199.408 13.4553 200.206 11.408C201.03 9.36012 201.829 7.39803 202.603 5.52118C203.402 3.66846 204.213 1.82807 205.036 0H208.34C209.164 1.82807 209.962 3.66846 210.737 5.52118C211.535 7.39803 212.334 9.36012 213.133 11.408C213.932 13.4553 214.743 15.6125 215.566 17.8797ZM20.8111 17.88C21.6583 20.1712 22.5418 22.6576 23.4616 25.3386H19.6855C18.4026 21.4873 17.1317 17.7701 15.873 14.1868C14.6142 10.6283 13.3193 7.30078 11.9879 4.2054C10.6565 7.32544 9.36151 10.6647 8.10272 14.2233C6.84398 17.7824 5.56108 21.4873 4.25393 25.3386H0.368812C1.26445 22.6576 2.13588 20.1712 2.9831 17.88C3.83032 15.6128 4.65333 13.4556 5.45216 11.4083C6.2752 9.36043 7.07402 7.39834 7.84857 5.52149C8.64739 3.66877 9.45824 1.82837 10.2813 0.000306543H13.5855C14.4085 1.82837 15.2074 3.66877 15.982 5.52149C16.7807 7.39834 17.5795 9.36043 18.3783 11.4083C19.1771 13.4556 19.988 15.6128 20.8111 17.88ZM258.742 26.4759C257.096 26.4759 255.668 26.2202 254.457 25.7082C253.247 25.1963 252.254 24.5015 251.48 23.6239C250.705 22.7222 250.125 21.6618 249.737 20.4428C249.374 19.2242 249.192 17.9081 249.192 16.4939V0.589214H252.715V16.0919C252.715 18.627 253.271 20.4674 254.385 21.613C255.498 22.7587 256.95 23.3317 258.742 23.3317C259.638 23.3317 260.448 23.1972 261.175 22.9291C261.925 22.637 262.566 22.1979 263.099 21.613C263.632 21.0282 264.043 20.2846 264.333 19.3824C264.624 18.4565 264.769 17.3597 264.769 16.0919V0.589214H268.291V16.4939C268.291 17.9081 268.098 19.2242 267.711 20.4428C267.346 21.6618 266.766 22.7222 265.967 23.6239C265.192 24.5015 264.2 25.1963 262.99 25.7082C261.804 26.2202 260.387 26.4759 258.742 26.4759ZM69.7681 25.9275V22.8562H58.1491V0.589214H54.6269V25.9275H69.7681ZM115.977 22.8562V25.9275H100.836V0.589214H104.359V22.8562H115.977ZM152.174 26.1092C152.779 26.1333 153.336 26.1457 153.844 26.1457C157.863 26.1457 160.791 25.512 162.631 24.2447C164.495 22.9527 165.427 21.0389 165.427 18.5037C165.427 16.7732 164.992 15.4324 164.12 14.482C163.249 13.5315 162.075 12.8367 160.598 12.3982C161.688 11.9591 162.559 11.3013 163.213 10.4238C163.866 9.52152 164.193 8.3759 164.193 6.98635C164.193 5.74316 163.926 4.6951 163.394 3.84218C162.861 2.98926 162.123 2.30629 161.178 1.79433C160.26 1.25824 159.158 0.880294 157.875 0.661034C156.616 0.441773 155.261 0.331867 153.808 0.331867C153.3 0.331867 152.755 0.344197 152.174 0.368858C151.593 0.392982 151.001 0.429441 150.395 0.478225C149.814 0.527009 149.233 0.588125 148.652 0.661034C148.071 0.734478 147.539 0.832041 147.055 0.953733V25.5243C147.539 25.646 148.071 25.7436 148.652 25.8165C149.233 25.8899 149.814 25.9505 150.395 25.9993C151.001 26.0481 151.593 26.0845 152.174 26.1092ZM150.541 23.0379V14.1163H155.079C156.096 14.1163 157.015 14.1898 157.838 14.3356C158.662 14.482 159.363 14.7259 159.944 15.0668C160.55 15.4083 161.01 15.8715 161.324 16.4564C161.639 17.0171 161.796 17.7119 161.796 18.5407C161.796 19.467 161.578 20.2347 161.142 20.8443C160.732 21.4533 160.174 21.9288 159.472 22.2703C158.771 22.6112 157.947 22.8551 157.004 23.0015C156.084 23.1232 155.103 23.1843 154.062 23.1843H152.574C152.163 23.1596 151.799 23.1355 151.485 23.1109C151.121 23.0867 150.807 23.0621 150.541 23.0379ZM154.244 11.2643H150.541V3.44012C150.951 3.39133 151.412 3.35488 151.92 3.33022C152.428 3.30609 153.131 3.29377 154.026 3.29377C154.921 3.29377 155.769 3.36667 156.567 3.51303C157.366 3.65938 158.057 3.89097 158.637 4.2078C159.243 4.5005 159.714 4.90257 160.054 5.41453C160.392 5.90184 160.562 6.51137 160.562 7.2426C160.562 8.02261 160.392 8.6686 160.054 9.18057C159.739 9.692 159.291 10.1064 158.709 10.4238C158.153 10.7406 157.487 10.9598 156.713 11.0815C155.939 11.2038 155.116 11.2643 154.244 11.2643ZM2.34758 43.8536C1.41101 43.8536 0.942732 44.1764 0.942732 44.8218C0.942732 45.0202 0.985854 45.188 1.07212 45.3241C1.15222 45.4673 1.26313 45.5879 1.40485 45.6871C1.54657 45.7927 1.70985 45.8827 1.8947 45.9572C2.07339 46.0318 2.26439 46.1063 2.46773 46.1808C2.70187 46.2612 2.92369 46.3513 3.13318 46.4504C3.34267 46.5561 3.52446 46.6767 3.67849 46.8134C3.83253 46.956 3.95577 47.1238 4.04819 47.3157C4.13444 47.5082 4.17758 47.7408 4.17758 48.0142C4.17758 48.5787 3.98657 49.0194 3.60454 49.3357C3.22253 49.652 2.6957 49.8101 2.02409 49.8101C1.63591 49.8101 1.28469 49.7667 0.970452 49.6799C0.650056 49.5994 0.41591 49.5094 0.268031 49.4102L0.554549 48.6747C0.683941 48.7556 0.878033 48.8328 1.13682 48.9073C1.38945 48.9883 1.6852 49.0285 2.02409 49.0285C2.19662 49.0285 2.35682 49.0097 2.5047 48.9727C2.65258 48.9352 2.78197 48.8795 2.89288 48.805C3.00379 48.7304 3.09313 48.6345 3.16092 48.5165C3.22253 48.405 3.25334 48.2715 3.25334 48.1166C3.25334 47.9429 3.21945 47.7971 3.15167 47.6792C3.08389 47.5612 2.98838 47.4556 2.86515 47.3623C2.74192 47.2755 2.6002 47.1951 2.44 47.1206C2.27364 47.046 2.09187 46.9715 1.8947 46.897C1.61743 46.7855 1.36479 46.674 1.13682 46.562C0.902676 46.4504 0.702425 46.317 0.536059 46.162C0.363539 46.0066 0.231061 45.8205 0.138637 45.6034C0.0462128 45.3927 0 45.1349 0 44.8309C0 44.2664 0.206417 43.8322 0.619242 43.5282C1.02591 43.2237 1.60202 43.072 2.34758 43.072C2.6002 43.072 2.83434 43.0908 3.05 43.1278C3.25949 43.1589 3.44743 43.1958 3.61379 43.2393C3.78015 43.2891 3.92495 43.3384 4.04819 43.3883C4.16526 43.4441 4.25768 43.4907 4.32546 43.5282L4.05742 44.2729C3.91571 44.1919 3.70006 44.1018 3.41045 44.0027C3.12086 43.9035 2.76657 43.8536 2.34758 43.8536ZM36.4329 45.1694C36.2727 45.5913 36.1927 46.0786 36.1927 46.6308C36.1927 47.183 36.2727 47.6703 36.4329 48.0922C36.5992 48.5141 36.8211 48.8679 37.0984 49.1531C37.3818 49.4324 37.7084 49.6431 38.0781 49.7857C38.4539 49.9288 38.8514 50.0001 39.2704 50.0001C39.6832 50.0001 40.0714 49.9288 40.4349 49.7857C40.8046 49.6431 41.128 49.4324 41.4054 49.1531C41.6826 48.8679 41.9013 48.5141 42.0616 48.0922C42.2279 47.6703 42.3111 47.183 42.3111 46.6308C42.3111 46.0786 42.2279 45.5913 42.0616 45.1694C41.9013 44.7475 41.6826 44.3969 41.4054 44.1181C41.128 43.8324 40.8046 43.6185 40.4349 43.4759C40.0714 43.3333 39.6832 43.2615 39.2704 43.2615C38.8514 43.2615 38.4539 43.3333 38.0781 43.4759C37.7084 43.6185 37.3818 43.8324 37.0984 44.1181C36.8211 44.3969 36.5992 44.7475 36.4329 45.1694ZM37.2832 47.7014C37.1847 47.3786 37.1353 47.0216 37.1353 46.6308C37.1353 46.24 37.1847 45.8862 37.2832 45.5699C37.3818 45.2471 37.5205 44.9743 37.6991 44.7507C37.884 44.5277 38.1058 44.3567 38.3646 44.2388C38.6295 44.1149 38.9253 44.0527 39.2518 44.0527C39.5784 44.0527 39.8711 44.1149 40.1299 44.2388C40.3887 44.3567 40.6074 44.5277 40.7861 44.7507C40.971 44.9743 41.1127 45.2471 41.2113 45.5699C41.3099 45.8862 41.3591 46.24 41.3591 46.6308C41.3591 47.0216 41.3099 47.3786 41.2113 47.7014C41.1127 48.0177 40.971 48.2873 40.7861 48.5109C40.6074 48.7344 40.3887 48.9081 40.1299 49.0319C39.8711 49.1499 39.5784 49.2089 39.2518 49.2089C38.9253 49.2089 38.6295 49.1499 38.3646 49.0319C38.1058 48.9081 37.884 48.7344 37.6991 48.5109C37.5205 48.2873 37.3818 48.0177 37.2832 47.7014ZM74.7459 49.8602V43.4105H78.6094V44.183H75.6425V46.128H78.2766V46.8913H75.6425V49.8602H74.7459ZM117.308 44.1921V43.4105H112.382V44.1921H114.397V49.8602H115.293V44.1921H117.308ZM154.826 45.4857C154.568 46.3172 154.306 47.0865 154.041 47.7941C153.777 48.5012 153.511 49.1901 153.246 49.8602H152.35C152.024 48.9108 151.733 47.9088 151.481 46.8538C151.235 45.7993 151.003 44.651 150.787 43.4105H151.731C151.816 43.8941 151.906 44.3782 151.998 44.8622C152.091 45.3463 152.187 45.8176 152.285 46.277C152.383 46.73 152.483 47.1642 152.58 47.5797C152.679 47.9957 152.781 48.3801 152.885 48.7339C153.132 48.0825 153.394 47.369 153.672 46.5933C153.949 45.8117 154.207 45.0048 154.448 44.1734H155.225C155.465 45.0048 155.727 45.8117 156.01 46.5933C156.293 47.369 156.558 48.0825 156.804 48.7339C156.903 48.3865 157.002 48.0048 157.101 47.5893C157.199 47.1733 157.295 46.7391 157.387 46.2861C157.485 45.8272 157.581 45.3554 157.674 44.8714C157.766 44.3814 157.855 43.8941 157.942 43.4105H158.856C158.634 44.651 158.398 45.7993 158.145 46.8538C157.899 47.9088 157.615 48.9108 157.295 49.8602H156.398C156.126 49.1901 155.862 48.5012 155.603 47.7941C155.344 47.0865 155.086 46.3172 154.826 45.4857ZM194.71 49.118C194.81 49.4048 194.915 49.698 195.028 49.9982H196.081C195.816 49.2649 195.568 48.5883 195.336 47.9681C195.104 47.3414 194.876 46.7479 194.651 46.1882C194.432 45.628 194.214 45.0946 193.995 44.588C193.777 44.075 193.548 43.5684 193.31 43.0682H192.426C192.188 43.5684 191.96 44.075 191.741 44.588C191.523 45.0946 191.301 45.628 191.076 46.1882C190.857 46.7479 190.633 47.3414 190.4 47.9681C190.168 48.5883 189.92 49.2649 189.656 49.9982H190.659L191.284 48.2281H194.402C194.508 48.5283 194.611 48.8247 194.71 49.118ZM193.489 45.7481C193.701 46.288 193.912 46.8482 194.124 47.4282H191.562C191.767 46.8482 191.973 46.288 192.178 45.7481C192.39 45.2013 192.611 44.6781 192.843 44.1785C193.068 44.6781 193.284 45.2013 193.489 45.7481ZM231.039 47.1582C231.137 47.282 231.26 47.4466 231.408 47.6514C231.562 47.8497 231.719 48.0733 231.879 48.3215C232.04 48.5633 232.197 48.8179 232.351 49.0843C232.511 49.3513 232.647 49.6092 232.758 49.8569H231.778C231.654 49.6215 231.519 49.3824 231.371 49.1406C231.229 48.8983 231.085 48.6689 230.937 48.4518C230.789 48.2282 230.641 48.0208 230.493 47.8283C230.351 47.6358 230.222 47.4686 230.105 47.3254C230.025 47.3319 229.942 47.3351 229.855 47.3351H229.606H228.802V49.8569H227.905V43.5005C228.158 43.4383 228.438 43.3981 228.747 43.3793C229.061 43.3546 229.347 43.3423 229.606 43.3423C230.506 43.3423 231.19 43.5128 231.658 43.8543C232.132 44.1952 232.369 44.704 232.369 45.3805C232.369 45.8088 232.255 46.1745 232.027 46.4784C231.806 46.7829 231.477 47.0092 231.039 47.1582ZM229.68 44.133C229.298 44.133 229.005 44.1427 228.802 44.1614V46.5905H229.44C229.748 46.5905 230.025 46.5749 230.271 46.5438C230.518 46.5127 230.724 46.4538 230.89 46.3669C231.063 46.2801 231.196 46.1589 231.288 46.004C231.381 45.8426 231.427 45.6319 231.427 45.3714C231.427 45.1291 231.381 44.9275 231.288 44.7662C231.196 44.6048 231.069 44.4777 230.909 44.3845C230.755 44.2917 230.57 44.2263 230.354 44.1893C230.145 44.1518 229.921 44.133 229.68 44.133ZM264.879 43.4105V49.8602H269.02V49.0877H265.776V46.8538H268.456V46.1001H265.776V44.183H268.789V43.4105H264.879Z" fill="url(#paint0_linear_459_247)"/>
<path fill-rule="evenodd" clip-rule="evenodd" d="M215.566 17.8797C216.413 20.1709 217.296 22.6573 218.216 25.3383H214.44C213.157 21.487 211.886 17.7698 210.628 14.1865C209.368 10.628 208.074 7.30047 206.743 4.20509C205.411 7.32513 204.116 10.6644 202.858 14.223C201.598 17.7821 200.316 21.487 199.008 25.3383H195.124C196.02 22.6573 196.891 20.1709 197.738 17.8797C198.585 15.6125 199.408 13.4553 200.206 11.408C201.03 9.36012 201.829 7.39803 202.603 5.52118C203.402 3.66846 204.213 1.82807 205.036 0H208.34C209.164 1.82807 209.962 3.66846 210.737 5.52118C211.535 7.39803 212.334 9.36012 213.133 11.408C213.932 13.4553 214.743 15.6125 215.566 17.8797ZM20.8111 17.88C21.6583 20.1712 22.5418 22.6576 23.4616 25.3386H19.6855C18.4026 21.4873 17.1317 17.7701 15.873 14.1868C14.6142 10.6283 13.3193 7.30078 11.9879 4.2054C10.6565 7.32544 9.36151 10.6647 8.10272 14.2233C6.84398 17.7824 5.56108 21.4873 4.25393 25.3386H0.368812C1.26445 22.6576 2.13588 20.1712 2.9831 17.88C3.83032 15.6128 4.65333 13.4556 5.45216 11.4083C6.2752 9.36043 7.07402 7.39834 7.84857 5.52149C8.64739 3.66877 9.45824 1.82837 10.2813 0.000306543H13.5855C14.4085 1.82837 15.2074 3.66877 15.982 5.52149C16.7807 7.39834 17.5795 9.36043 18.3783 11.4083C19.1771 13.4556 19.988 15.6128 20.8111 17.88ZM258.742 26.4759C257.096 26.4759 255.668 26.2202 254.457 25.7082C253.247 25.1963 252.254 24.5015 251.48 23.6239C250.705 22.7222 250.125 21.6618 249.737 20.4428C249.374 19.2242 249.192 17.9081 249.192 16.4939V0.589214H252.715V16.0919C252.715 18.627 253.271 20.4674 254.385 21.613C255.498 22.7587 256.95 23.3317 258.742 23.3317C259.638 23.3317 260.448 23.1972 261.175 22.9291C261.925 22.637 262.566 22.1979 263.099 21.613C263.632 21.0282 264.043 20.2846 264.333 19.3824C264.624 18.4565 264.769 17.3597 264.769 16.0919V0.589214H268.291V16.4939C268.291 17.9081 268.098 19.2242 267.711 20.4428C267.346 21.6618 266.766 22.7222 265.967 23.6239C265.192 24.5015 264.2 25.1963 262.99 25.7082C261.804 26.2202 260.387 26.4759 258.742 26.4759ZM69.7681 25.9275V22.8562H58.1491V0.589214H54.6269V25.9275H69.7681ZM115.977 22.8562V25.9275H100.836V0.589214H104.359V22.8562H115.977ZM152.174 26.1092C152.779 26.1333 153.336 26.1457 153.844 26.1457C157.863 26.1457 160.791 25.512 162.631 24.2447C164.495 22.9527 165.427 21.0389 165.427 18.5037C165.427 16.7732 164.992 15.4324 164.12 14.482C163.249 13.5315 162.075 12.8367 160.598 12.3982C161.688 11.9591 162.559 11.3013 163.213 10.4238C163.866 9.52152 164.193 8.3759 164.193 6.98635C164.193 5.74316 163.926 4.6951 163.394 3.84218C162.861 2.98926 162.123 2.30629 161.178 1.79433C160.26 1.25824 159.158 0.880294 157.875 0.661034C156.616 0.441773 155.261 0.331867 153.808 0.331867C153.3 0.331867 152.755 0.344197 152.174 0.368858C151.593 0.392982 151.001 0.429441 150.395 0.478225C149.814 0.527009 149.233 0.588125 148.652 0.661034C148.071 0.734478 147.539 0.832041 147.055 0.953733V25.5243C147.539 25.646 148.071 25.7436 148.652 25.8165C149.233 25.8899 149.814 25.9505 150.395 25.9993C151.001 26.0481 151.593 26.0845 152.174 26.1092ZM150.541 23.0379V14.1163H155.079C156.096 14.1163 157.015 14.1898 157.838 14.3356C158.662 14.482 159.363 14.7259 159.944 15.0668C160.55 15.4083 161.01 15.8715 161.324 16.4564C161.639 17.0171 161.796 17.7119 161.796 18.5407C161.796 19.467 161.578 20.2347 161.142 20.8443C160.732 21.4533 160.174 21.9288 159.472 22.2703C158.771 22.6112 157.947 22.8551 157.004 23.0015C156.084 23.1232 155.103 23.1843 154.062 23.1843H152.574C152.163 23.1596 151.799 23.1355 151.485 23.1109C151.121 23.0867 150.807 23.0621 150.541 23.0379ZM154.244 11.2643H150.541V3.44012C150.951 3.39133 151.412 3.35488 151.92 3.33022C152.428 3.30609 153.131 3.29377 154.026 3.29377C154.921 3.29377 155.769 3.36667 156.567 3.51303C157.366 3.65938 158.057 3.89097 158.637 4.2078C159.243 4.5005 159.714 4.90257 160.054 5.41453C160.392 5.90184 160.562 6.51137 160.562 7.2426C160.562 8.02261 160.392 8.6686 160.054 9.18057C159.739 9.692 159.291 10.1064 158.709 10.4238C158.153 10.7406 157.487 10.9598 156.713 11.0815C155.939 11.2038 155.116 11.2643 154.244 11.2643ZM2.34758 43.8536C1.41101 43.8536 0.942732 44.1764 0.942732 44.8218C0.942732 45.0202 0.985854 45.188 1.07212 45.3241C1.15222 45.4673 1.26313 45.5879 1.40485 45.6871C1.54657 45.7927 1.70985 45.8827 1.8947 45.9572C2.07339 46.0318 2.26439 46.1063 2.46773 46.1808C2.70187 46.2612 2.92369 46.3513 3.13318 46.4504C3.34267 46.5561 3.52446 46.6767 3.67849 46.8134C3.83253 46.956 3.95577 47.1238 4.04819 47.3157C4.13444 47.5082 4.17758 47.7408 4.17758 48.0142C4.17758 48.5787 3.98657 49.0194 3.60454 49.3357C3.22253 49.652 2.6957 49.8101 2.02409 49.8101C1.63591 49.8101 1.28469 49.7667 0.970452 49.6799C0.650056 49.5994 0.41591 49.5094 0.268031 49.4102L0.554549 48.6747C0.683941 48.7556 0.878033 48.8328 1.13682 48.9073C1.38945 48.9883 1.6852 49.0285 2.02409 49.0285C2.19662 49.0285 2.35682 49.0097 2.5047 48.9727C2.65258 48.9352 2.78197 48.8795 2.89288 48.805C3.00379 48.7304 3.09313 48.6345 3.16092 48.5165C3.22253 48.405 3.25334 48.2715 3.25334 48.1166C3.25334 47.9429 3.21945 47.7971 3.15167 47.6792C3.08389 47.5612 2.98838 47.4556 2.86515 47.3623C2.74192 47.2755 2.6002 47.1951 2.44 47.1206C2.27364 47.046 2.09187 46.9715 1.8947 46.897C1.61743 46.7855 1.36479 46.674 1.13682 46.562C0.902676 46.4504 0.702425 46.317 0.536059 46.162C0.363539 46.0066 0.231061 45.8205 0.138637 45.6034C0.0462128 45.3927 0 45.1349 0 44.8309C0 44.2664 0.206417 43.8322 0.619242 43.5282C1.02591 43.2237 1.60202 43.072 2.34758 43.072C2.6002 43.072 2.83434 43.0908 3.05 43.1278C3.25949 43.1589 3.44743 43.1958 3.61379 43.2393C3.78015 43.2891 3.92495 43.3384 4.04819 43.3883C4.16526 43.4441 4.25768 43.4907 4.32546 43.5282L4.05742 44.2729C3.91571 44.1919 3.70006 44.1018 3.41045 44.0027C3.12086 43.9035 2.76657 43.8536 2.34758 43.8536ZM36.4329 45.1694C36.2727 45.5913 36.1927 46.0786 36.1927 46.6308C36.1927 47.183 36.2727 47.6703 36.4329 48.0922C36.5992 48.5141 36.8211 48.8679 37.0984 49.1531C37.3818 49.4324 37.7084 49.6431 38.0781 49.7857C38.4539 49.9288 38.8514 50.0001 39.2704 50.0001C39.6832 50.0001 40.0714 49.9288 40.4349 49.7857C40.8046 49.6431 41.128 49.4324 41.4054 49.1531C41.6826 48.8679 41.9013 48.5141 42.0616 48.0922C42.2279 47.6703 42.3111 47.183 42.3111 46.6308C42.3111 46.0786 42.2279 45.5913 42.0616 45.1694C41.9013 44.7475 41.6826 44.3969 41.4054 44.1181C41.128 43.8324 40.8046 43.6185 40.4349 43.4759C40.0714 43.3333 39.6832 43.2615 39.2704 43.2615C38.8514 43.2615 38.4539 43.3333 38.0781 43.4759C37.7084 43.6185 37.3818 43.8324 37.0984 44.1181C36.8211 44.3969 36.5992 44.7475 36.4329 45.1694ZM37.2832 47.7014C37.1847 47.3786 37.1353 47.0216 37.1353 46.6308C37.1353 46.24 37.1847 45.8862 37.2832 45.5699C37.3818 45.2471 37.5205 44.9743 37.6991 44.7507C37.884 44.5277 38.1058 44.3567 38.3646 44.2388C38.6295 44.1149 38.9253 44.0527 39.2518 44.0527C39.5784 44.0527 39.8711 44.1149 40.1299 44.2388C40.3887 44.3567 40.6074 44.5277 40.7861 44.7507C40.971 44.9743 41.1127 45.2471 41.2113 45.5699C41.3099 45.8862 41.3591 46.24 41.3591 46.6308C41.3591 47.0216 41.3099 47.3786 41.2113 47.7014C41.1127 48.0177 40.971 48.2873 40.7861 48.5109C40.6074 48.7344 40.3887 48.9081 40.1299 49.0319C39.8711 49.1499 39.5784 49.2089 39.2518 49.2089C38.9253 49.2089 38.6295 49.1499 38.3646 49.0319C38.1058 48.9081 37.884 48.7344 37.6991 48.5109C37.5205 48.2873 37.3818 48.0177 37.2832 47.7014ZM74.7459 49.8602V43.4105H78.6094V44.183H75.6425V46.128H78.2766V46.8913H75.6425V49.8602H74.7459ZM117.308 44.1921V43.4105H112.382V44.1921H114.397V49.8602H115.293V44.1921H117.308ZM154.826 45.4857C154.568 46.3172 154.306 47.0865 154.041 47.7941C153.777 48.5012 153.511 49.1901 153.246 49.8602H152.35C152.024 48.9108 151.733 47.9088 151.481 46.8538C151.235 45.7993 151.003 44.651 150.787 43.4105H151.731C151.816 43.8941 151.906 44.3782 151.998 44.8622C152.091 45.3463 152.187 45.8176 152.285 46.277C152.383 46.73 152.483 47.1642 152.58 47.5797C152.679 47.9957 152.781 48.3801 152.885 48.7339C153.132 48.0825 153.394 47.369 153.672 46.5933C153.949 45.8117 154.207 45.0048 154.448 44.1734H155.225C155.465 45.0048 155.727 45.8117 156.01 46.5933C156.293 47.369 156.558 48.0825 156.804 48.7339C156.903 48.3865 157.002 48.0048 157.101 47.5893C157.199 47.1733 157.295 46.7391 157.387 46.2861C157.485 45.8272 157.581 45.3554 157.674 44.8714C157.766 44.3814 157.855 43.8941 157.942 43.4105H158.856C158.634 44.651 158.398 45.7993 158.145 46.8538C157.899 47.9088 157.615 48.9108 157.295 49.8602H156.398C156.126 49.1901 155.862 48.5012 155.603 47.7941C155.344 47.0865 155.086 46.3172 154.826 45.4857ZM194.71 49.118C194.81 49.4048 194.915 49.698 195.028 49.9982H196.081C195.816 49.2649 195.568 48.5883 195.336 47.9681C195.104 47.3414 194.876 46.7479 194.651 46.1882C194.432 45.628 194.214 45.0946 193.995 44.588C193.777 44.075 193.548 43.5684 193.31 43.0682H192.426C192.188 43.5684 191.96 44.075 191.741 44.588C191.523 45.0946 191.301 45.628 191.076 46.1882C190.857 46.7479 190.633 47.3414 190.4 47.9681C190.168 48.5883 189.92 49.2649 189.656 49.9982H190.659L191.284 48.2281H194.402C194.508 48.5283 194.611 48.8247 194.71 49.118ZM193.489 45.7481C193.701 46.288 193.912 46.8482 194.124 47.4282H191.562C191.767 46.8482 191.973 46.288 192.178 45.7481C192.39 45.2013 192.611 44.6781 192.843 44.1785C193.068 44.6781 193.284 45.2013 193.489 45.7481ZM231.039 47.1582C231.137 47.282 231.26 47.4466 231.408 47.6514C231.562 47.8497 231.719 48.0733 231.879 48.3215C232.04 48.5633 232.197 48.8179 232.351 49.0843C232.511 49.3513 232.647 49.6092 232.758 49.8569H231.778C231.654 49.6215 231.519 49.3824 231.371 49.1406C231.229 48.8983 231.085 48.6689 230.937 48.4518C230.789 48.2282 230.641 48.0208 230.493 47.8283C230.351 47.6358 230.222 47.4686 230.105 47.3254C230.025 47.3319 229.942 47.3351 229.855 47.3351H229.606H228.802V49.8569H227.905V43.5005C228.158 43.4383 228.438 43.3981 228.747 43.3793C229.061 43.3546 229.347 43.3423 229.606 43.3423C230.506 43.3423 231.19 43.5128 231.658 43.8543C232.132 44.1952 232.369 44.704 232.369 45.3805C232.369 45.8088 232.255 46.1745 232.027 46.4784C231.806 46.7829 231.477 47.0092 231.039 47.1582ZM229.68 44.133C229.298 44.133 229.005 44.1427 228.802 44.1614V46.5905H229.44C229.748 46.5905 230.025 46.5749 230.271 46.5438C230.518 46.5127 230.724 46.4538 230.89 46.3669C231.063 46.2801 231.196 46.1589 231.288 46.004C231.381 45.8426 231.427 45.6319 231.427 45.3714C231.427 45.1291 231.381 44.9275 231.288 44.7662C231.196 44.6048 231.069 44.4777 230.909 44.3845C230.755 44.2917 230.57 44.2263 230.354 44.1893C230.145 44.1518 229.921 44.133 229.68 44.133ZM264.879 43.4105V49.8602H269.02V49.0877H265.776V46.8538H268.456V46.1001H265.776V44.183H268.789V43.4105H264.879Z" fill="white"/>
<defs>
<linearGradient id="paint0_linear_459_247" x1="416" y1="0.000167852" x2="-1.03963" y2="6.08697" gradientUnits="userSpaceOnUse">
<stop stop-color="#A459D0"/>
<stop offset="0.489583" stop-color="#E35F87"/>
<stop offset="1" stop-color="#FF5761"/>
</linearGradient>
</defs>
</svg>
