<svg width="218" height="40" viewBox="0 0 218 40" fill="none" xmlns="http://www.w3.org/2000/svg">
<path d="M18.9247 20.2706C18.1827 18.1258 17.47 16.1367 16.7866 14.3037C16.1227 12.49 15.4686 10.7642 14.8242 9.12636C14.1799 7.48808 13.5355 5.91841 12.8912 4.41694C12.2664 2.93476 11.622 1.46245 10.9581 0H8.29275C7.62885 1.46245 6.97477 2.93476 6.33041 4.41694C5.70562 5.91841 5.06125 7.48808 4.39735 9.12636C3.75298 10.7642 3.08909 12.49 2.40568 14.3037C1.72228 16.1367 1.01934 18.1258 0.296875 20.2706H3.4308C4.48521 17.1896 5.52006 14.2256 6.53542 11.3784C7.55082 8.53152 8.59542 5.86009 9.66935 3.36406C10.7433 5.84036 11.7879 8.50236 12.8033 11.3492C13.8186 14.2158 14.8438 17.1896 15.8786 20.2706H18.9247Z" fill="black"/>
<path d="M18.9247 20.2706C18.1827 18.1258 17.47 16.1367 16.7866 14.3037C16.1227 12.49 15.4686 10.7642 14.8242 9.12636C14.1799 7.48808 13.5355 5.91841 12.8912 4.41694C12.2664 2.93476 11.622 1.46245 10.9581 0H8.29275C7.62885 1.46245 6.97477 2.93476 6.33041 4.41694C5.70562 5.91841 5.06125 7.48808 4.39735 9.12636C3.75298 10.7642 3.08909 12.49 2.40568 14.3037C1.72228 16.1367 1.01934 18.1258 0.296875 20.2706H3.4308C4.48521 17.1896 5.52006 14.2256 6.53542 11.3784C7.55082 8.53152 8.59542 5.86009 9.66935 3.36406C10.7433 5.84036 11.7879 8.50236 12.8033 11.3492C13.8186 14.2158 14.8438 17.1896 15.8786 20.2706H18.9247Z" fill="#212121"/>
<path d="M176.024 20.2706C175.282 18.1258 174.569 16.1367 173.886 14.3037C173.222 12.49 172.568 10.7642 171.923 9.12636C171.279 7.48808 170.634 5.91841 169.991 4.41694C169.366 2.93476 168.722 1.46245 168.057 0H165.392C164.728 1.46245 164.074 2.93476 163.43 4.41694C162.805 5.91841 162.16 7.48808 161.496 9.12636C160.852 10.7642 160.188 12.49 159.505 14.3037C158.821 16.1367 158.119 18.1258 157.396 20.2706H160.53C161.584 17.1896 162.619 14.2256 163.635 11.3784C164.65 8.53152 165.694 5.86009 166.768 3.36406C167.842 5.84036 168.886 8.50236 169.902 11.3492C170.918 14.2158 171.943 17.1896 172.978 20.2706H176.024Z" fill="black"/>
<path d="M176.024 20.2706C175.282 18.1258 174.569 16.1367 173.886 14.3037C173.222 12.49 172.568 10.7642 171.923 9.12636C171.279 7.48808 170.634 5.91841 169.991 4.41694C169.366 2.93476 168.722 1.46245 168.057 0H165.392C164.728 1.46245 164.074 2.93476 163.43 4.41694C162.805 5.91841 162.16 7.48808 161.496 9.12636C160.852 10.7642 160.188 12.49 159.505 14.3037C158.821 16.1367 158.119 18.1258 157.396 20.2706H160.53C161.584 17.1896 162.619 14.2256 163.635 11.3784C164.65 8.53152 165.694 5.86009 166.768 3.36406C167.842 5.84036 168.886 8.50236 169.902 11.3492C170.918 14.2158 171.943 17.1896 172.978 20.2706H176.024Z" fill="#212121"/>
<path d="M208.713 21.1805C207.385 21.1805 206.233 20.9759 205.257 20.5664C204.281 20.1568 203.48 19.601 202.855 18.8989C202.23 18.1775 201.762 17.3292 201.449 16.354C201.156 15.3792 201.01 14.3263 201.01 13.1949V0.471191H203.851V12.8733C203.851 14.9014 204.3 16.3737 205.198 17.2902C206.096 18.2067 207.268 18.6652 208.713 18.6652C209.436 18.6652 210.09 18.5575 210.676 18.3431C211.281 18.1094 211.798 17.7581 212.228 17.2902C212.657 16.8223 212.989 16.2275 213.223 15.5057C213.458 14.765 213.575 13.8875 213.575 12.8733V0.471191H216.416V13.1949C216.416 14.3263 216.26 15.3792 215.948 16.354C215.654 17.3292 215.186 18.1775 214.541 18.8989C213.916 19.601 213.116 20.1568 212.14 20.5664C211.183 20.9759 210.04 21.1805 208.713 21.1805Z" fill="black"/>
<path d="M208.713 21.1805C207.385 21.1805 206.233 20.9759 205.257 20.5664C204.281 20.1568 203.48 19.601 202.855 18.8989C202.23 18.1775 201.762 17.3292 201.449 16.354C201.156 15.3792 201.01 14.3263 201.01 13.1949V0.471191H203.851V12.8733C203.851 14.9014 204.3 16.3737 205.198 17.2902C206.096 18.2067 207.268 18.6652 208.713 18.6652C209.436 18.6652 210.09 18.5575 210.676 18.3431C211.281 18.1094 211.798 17.7581 212.228 17.2902C212.657 16.8223 212.989 16.2275 213.223 15.5057C213.458 14.765 213.575 13.8875 213.575 12.8733V0.471191H216.416V13.1949C216.416 14.3263 216.26 15.3792 215.948 16.354C215.654 17.3292 215.186 18.1775 214.541 18.8989C213.916 19.601 213.116 20.1568 212.14 20.5664C211.183 20.9759 210.04 21.1805 208.713 21.1805Z" fill="#212121"/>
<path d="M56.278 18.2848V20.7417H44.0645V0.471191H46.9056V18.2848H56.278Z" fill="black"/>
<path d="M56.278 18.2848V20.7417H44.0645V0.471191H46.9056V18.2848H56.278Z" fill="#212121"/>
<path d="M93.5534 18.2848V20.7417H81.3398V0.471191H84.1814V18.2848H93.5534Z" fill="black"/>
<path d="M93.5534 18.2848V20.7417H81.3398V0.471191H84.1814V18.2848H93.5534Z" fill="#212121"/>
<path d="M124.098 20.9161C123.688 20.9161 123.238 20.9062 122.751 20.8869C122.282 20.8672 121.804 20.8381 121.315 20.799C120.846 20.76 120.378 20.7115 119.909 20.6528C119.441 20.5945 119.011 20.5164 118.621 20.4191V0.762628C119.011 0.665274 119.441 0.587224 119.909 0.528469C120.378 0.470143 120.846 0.42125 121.315 0.382223C121.804 0.343196 122.282 0.314028 122.751 0.294729C123.219 0.275001 123.659 0.265137 124.068 0.265137C125.24 0.265137 126.333 0.353061 127.349 0.528469C128.383 0.703877 129.272 1.00623 130.014 1.4351C130.775 1.84467 131.371 2.39105 131.801 3.07338C132.23 3.75572 132.445 4.59416 132.445 5.58871C132.445 6.70034 132.181 7.61684 131.654 8.33863C131.127 9.04069 130.425 9.56691 129.545 9.91816C130.737 10.269 131.684 10.8248 132.386 11.5852C133.09 12.3456 133.44 13.4182 133.44 14.8026C133.44 16.8307 132.689 18.3618 131.186 19.3953C129.701 20.4092 127.339 20.9161 124.098 20.9161ZM121.433 11.2927V18.43C121.647 18.4493 121.901 18.469 122.194 18.4883C122.448 18.508 122.741 18.5273 123.073 18.547C123.424 18.547 123.825 18.547 124.273 18.547C125.113 18.547 125.904 18.4981 126.646 18.4008C127.407 18.2837 128.072 18.0886 128.637 17.8158C129.203 17.5426 129.653 17.1622 129.984 16.675C130.336 16.1874 130.512 15.5732 130.512 14.8322C130.512 14.1691 130.385 13.6133 130.131 13.1647C129.877 12.6968 129.507 12.3263 129.018 12.0531C128.549 11.7803 127.984 11.5852 127.319 11.4681C126.655 11.3514 125.914 11.2927 125.093 11.2927H121.433ZM121.433 9.0111H124.42C125.123 9.0111 125.787 8.96263 126.411 8.86485C127.036 8.7675 127.574 8.59209 128.022 8.33863C128.491 8.08474 128.852 7.75322 129.106 7.34408C129.379 6.93451 129.516 6.41772 129.516 5.79371C129.516 5.20873 129.379 4.7211 129.106 4.33126C128.833 3.92169 128.453 3.60004 127.964 3.36588C127.495 3.11241 126.938 2.92714 126.294 2.81006C125.65 2.69298 124.966 2.63465 124.244 2.63465C123.522 2.63465 122.955 2.64451 122.545 2.66381C122.135 2.68354 121.764 2.7127 121.433 2.75173V9.0111Z" fill="black"/>
<path d="M124.098 20.9161C123.688 20.9161 123.238 20.9062 122.751 20.8869C122.282 20.8672 121.804 20.8381 121.315 20.799C120.846 20.76 120.378 20.7115 119.909 20.6528C119.441 20.5945 119.011 20.5164 118.621 20.4191V0.762628C119.011 0.665274 119.441 0.587224 119.909 0.528469C120.378 0.470143 120.846 0.42125 121.315 0.382223C121.804 0.343196 122.282 0.314028 122.751 0.294729C123.219 0.275001 123.659 0.265137 124.068 0.265137C125.24 0.265137 126.333 0.353061 127.349 0.528469C128.383 0.703877 129.272 1.00623 130.014 1.4351C130.775 1.84467 131.371 2.39105 131.801 3.07338C132.23 3.75572 132.445 4.59416 132.445 5.58871C132.445 6.70034 132.181 7.61684 131.654 8.33863C131.127 9.04069 130.425 9.56691 129.545 9.91816C130.737 10.269 131.684 10.8248 132.386 11.5852C133.09 12.3456 133.44 13.4182 133.44 14.8026C133.44 16.8307 132.689 18.3618 131.186 19.3953C129.701 20.4092 127.339 20.9161 124.098 20.9161ZM121.433 11.2927V18.43C121.647 18.4493 121.901 18.469 122.194 18.4883C122.448 18.508 122.741 18.5273 123.073 18.547C123.424 18.547 123.825 18.547 124.273 18.547C125.113 18.547 125.904 18.4981 126.646 18.4008C127.407 18.2837 128.072 18.0886 128.637 17.8158C129.203 17.5426 129.653 17.1622 129.984 16.675C130.336 16.1874 130.512 15.5732 130.512 14.8322C130.512 14.1691 130.385 13.6133 130.131 13.1647C129.877 12.6968 129.507 12.3263 129.018 12.0531C128.549 11.7803 127.984 11.5852 127.319 11.4681C126.655 11.3514 125.914 11.2927 125.093 11.2927H121.433ZM121.433 9.0111H124.42C125.123 9.0111 125.787 8.96263 126.411 8.86485C127.036 8.7675 127.574 8.59209 128.022 8.33863C128.491 8.08474 128.852 7.75322 129.106 7.34408C129.379 6.93451 129.516 6.41772 129.516 5.79371C129.516 5.20873 129.379 4.7211 129.106 4.33126C128.833 3.92169 128.453 3.60004 127.964 3.36588C127.495 3.11241 126.938 2.92714 126.294 2.81006C125.65 2.69298 124.966 2.63465 124.244 2.63465C123.522 2.63465 122.955 2.64451 122.545 2.66381C122.135 2.68354 121.764 2.7127 121.433 2.75173V9.0111Z" fill="#212121"/>
<path d="M1.89367 35.0821C1.13819 35.0821 0.760453 35.3403 0.760453 35.8566C0.760453 36.0153 0.795237 36.1495 0.864827 36.2585C0.92944 36.373 1.0189 36.4695 1.13322 36.5488C1.24754 36.6333 1.37925 36.7054 1.52836 36.765C1.6725 36.8246 1.82657 36.8842 1.99059 36.9438C2.17946 37.0081 2.35839 37.0802 2.52737 37.1595C2.69636 37.244 2.84299 37.3405 2.96725 37.4499C3.0915 37.564 3.19091 37.6982 3.26547 37.8517C3.33504 38.0057 3.36984 38.1918 3.36984 38.4105C3.36984 38.8621 3.21576 39.2147 2.9076 39.4677C2.59945 39.7207 2.17448 39.8473 1.63273 39.8473C1.31961 39.8473 1.0363 39.8125 0.782813 39.743C0.524366 39.6787 0.335493 39.6067 0.216207 39.5273L0.447326 38.9389C0.5517 39.0037 0.708263 39.0654 0.917016 39.125C1.1208 39.1898 1.35936 39.222 1.63273 39.222C1.7719 39.222 1.90112 39.207 2.02041 39.1774C2.1397 39.1473 2.24407 39.1027 2.33354 39.0431C2.423 38.9835 2.49507 38.9067 2.54975 38.8124C2.59945 38.7232 2.6243 38.6164 2.6243 38.4925C2.6243 38.3535 2.59696 38.2368 2.54229 38.1425C2.48762 38.0481 2.41058 37.9637 2.31117 37.889C2.21176 37.8196 2.09745 37.7552 1.96822 37.6956C1.83403 37.636 1.6874 37.5764 1.52836 37.5168C1.30469 37.4276 1.10091 37.3384 0.917016 37.2487C0.728142 37.1595 0.56661 37.0527 0.432411 36.9288C0.293248 36.8044 0.186385 36.6556 0.111831 36.4819C0.0372774 36.3134 0 36.1071 0 35.8639C0 35.4123 0.166506 35.0649 0.499511 34.8218C0.827548 34.5782 1.29227 34.4568 1.89367 34.4568C2.09745 34.4568 2.28632 34.4718 2.46028 34.5014C2.62927 34.5263 2.78086 34.5559 2.91506 34.5906C3.04925 34.6305 3.16606 34.6699 3.26547 34.7098C3.3599 34.7544 3.43445 34.7917 3.48912 34.8218L3.27291 35.4175C3.1586 35.3527 2.98464 35.2807 2.75104 35.2013C2.51744 35.122 2.23165 35.0821 1.89367 35.0821Z" fill="black"/>
<path d="M1.89367 35.0821C1.13819 35.0821 0.760453 35.3403 0.760453 35.8566C0.760453 36.0153 0.795237 36.1495 0.864827 36.2585C0.92944 36.373 1.0189 36.4695 1.13322 36.5488C1.24754 36.6333 1.37925 36.7054 1.52836 36.765C1.6725 36.8246 1.82657 36.8842 1.99059 36.9438C2.17946 37.0081 2.35839 37.0802 2.52737 37.1595C2.69636 37.244 2.84299 37.3405 2.96725 37.4499C3.0915 37.564 3.19091 37.6982 3.26547 37.8517C3.33504 38.0057 3.36984 38.1918 3.36984 38.4105C3.36984 38.8621 3.21576 39.2147 2.9076 39.4677C2.59945 39.7207 2.17448 39.8473 1.63273 39.8473C1.31961 39.8473 1.0363 39.8125 0.782813 39.743C0.524366 39.6787 0.335493 39.6067 0.216207 39.5273L0.447326 38.9389C0.5517 39.0037 0.708263 39.0654 0.917016 39.125C1.1208 39.1898 1.35936 39.222 1.63273 39.222C1.7719 39.222 1.90112 39.207 2.02041 39.1774C2.1397 39.1473 2.24407 39.1027 2.33354 39.0431C2.423 38.9835 2.49507 38.9067 2.54975 38.8124C2.59945 38.7232 2.6243 38.6164 2.6243 38.4925C2.6243 38.3535 2.59696 38.2368 2.54229 38.1425C2.48762 38.0481 2.41058 37.9637 2.31117 37.889C2.21176 37.8196 2.09745 37.7552 1.96822 37.6956C1.83403 37.636 1.6874 37.5764 1.52836 37.5168C1.30469 37.4276 1.10091 37.3384 0.917016 37.2487C0.728142 37.1595 0.56661 37.0527 0.432411 36.9288C0.293248 36.8044 0.186385 36.6556 0.111831 36.4819C0.0372774 36.3134 0 36.1071 0 35.8639C0 35.4123 0.166506 35.0649 0.499511 34.8218C0.827548 34.5782 1.29227 34.4568 1.89367 34.4568C2.09745 34.4568 2.28632 34.4718 2.46028 34.5014C2.62927 34.5263 2.78086 34.5559 2.91506 34.5906C3.04925 34.6305 3.16606 34.6699 3.26547 34.7098C3.3599 34.7544 3.43445 34.7917 3.48912 34.8218L3.27291 35.4175C3.1586 35.3527 2.98464 35.2807 2.75104 35.2013C2.51744 35.122 2.23165 35.0821 1.89367 35.0821Z" fill="#212121"/>
<path d="M29.1953 37.3046C29.1953 36.8629 29.2599 36.473 29.3891 36.1355C29.5233 35.798 29.7022 35.5175 29.9259 35.2945C30.1545 35.0659 30.418 34.8948 30.7162 34.7807C31.0193 34.6666 31.34 34.6091 31.6779 34.6091C32.0109 34.6091 32.3241 34.6666 32.6173 34.7807C32.9155 34.8948 33.1764 35.0659 33.4001 35.2945C33.6237 35.5175 33.8002 35.798 33.9295 36.1355C34.0637 36.473 34.1307 36.8629 34.1307 37.3046C34.1307 37.7463 34.0637 38.1362 33.9295 38.4737C33.8002 38.8112 33.6237 39.0943 33.4001 39.3224C33.1764 39.5459 32.9155 39.7144 32.6173 39.8285C32.3241 39.943 32.0109 40 31.6779 40C31.34 40 31.0193 39.943 30.7162 39.8285C30.418 39.7144 30.1545 39.5459 29.9259 39.3224C29.7022 39.0943 29.5233 38.8112 29.3891 38.4737C29.2599 38.1362 29.1953 37.7463 29.1953 37.3046ZM29.9557 37.3046C29.9557 37.6172 29.9955 37.9029 30.075 38.161C30.1545 38.4141 30.2664 38.6298 30.4104 38.8086C30.5596 38.9875 30.7385 39.1264 30.9473 39.2255C31.161 39.3199 31.3996 39.367 31.663 39.367C31.9264 39.367 32.1625 39.3199 32.3712 39.2255C32.58 39.1264 32.7565 38.9875 32.9006 38.8086C33.0497 38.6298 33.164 38.4141 33.2436 38.161C33.3231 37.9029 33.3628 37.6172 33.3628 37.3046C33.3628 36.9919 33.3231 36.7089 33.2436 36.4559C33.164 36.1977 33.0497 35.9794 32.9006 35.8005C32.7565 35.6221 32.58 35.4853 32.3712 35.391C32.1625 35.2919 31.9264 35.2421 31.663 35.2421C31.3996 35.2421 31.161 35.2919 30.9473 35.391C30.7385 35.4853 30.5596 35.6221 30.4104 35.8005C30.2664 35.9794 30.1545 36.1977 30.075 36.4559C29.9955 36.7089 29.9557 36.9919 29.9557 37.3046Z" fill="black"/>
<path d="M29.1953 37.3046C29.1953 36.8629 29.2599 36.473 29.3891 36.1355C29.5233 35.798 29.7022 35.5175 29.9259 35.2945C30.1545 35.0659 30.418 34.8948 30.7162 34.7807C31.0193 34.6666 31.34 34.6091 31.6779 34.6091C32.0109 34.6091 32.3241 34.6666 32.6173 34.7807C32.9155 34.8948 33.1764 35.0659 33.4001 35.2945C33.6237 35.5175 33.8002 35.798 33.9295 36.1355C34.0637 36.473 34.1307 36.8629 34.1307 37.3046C34.1307 37.7463 34.0637 38.1362 33.9295 38.4737C33.8002 38.8112 33.6237 39.0943 33.4001 39.3224C33.1764 39.5459 32.9155 39.7144 32.6173 39.8285C32.3241 39.943 32.0109 40 31.6779 40C31.34 40 31.0193 39.943 30.7162 39.8285C30.418 39.7144 30.1545 39.5459 29.9259 39.3224C29.7022 39.0943 29.5233 38.8112 29.3891 38.4737C29.2599 38.1362 29.1953 37.7463 29.1953 37.3046ZM29.9557 37.3046C29.9557 37.6172 29.9955 37.9029 30.075 38.161C30.1545 38.4141 30.2664 38.6298 30.4104 38.8086C30.5596 38.9875 30.7385 39.1264 30.9473 39.2255C31.161 39.3199 31.3996 39.367 31.663 39.367C31.9264 39.367 32.1625 39.3199 32.3712 39.2255C32.58 39.1264 32.7565 38.9875 32.9006 38.8086C33.0497 38.6298 33.164 38.4141 33.2436 38.161C33.3231 37.9029 33.3628 37.6172 33.3628 37.3046C33.3628 36.9919 33.3231 36.7089 33.2436 36.4559C33.164 36.1977 33.0497 35.9794 32.9006 35.8005C32.7565 35.6221 32.58 35.4853 32.3712 35.391C32.1625 35.2919 31.9264 35.2421 31.663 35.2421C31.3996 35.2421 31.161 35.2919 30.9473 35.391C30.7385 35.4853 30.5596 35.6221 30.4104 35.8005C30.2664 35.9794 30.1545 36.1977 30.075 36.4559C29.9955 36.7089 29.9557 36.9919 29.9557 37.3046Z" fill="#212121"/>
<path d="M60.293 39.8878V34.728H63.4094V35.346H61.0161V36.902H63.141V37.5127H61.0161V39.8878H60.293Z" fill="black"/>
<path d="M60.293 39.8878V34.728H63.4094V35.346H61.0161V36.902H63.141V37.5127H61.0161V39.8878H60.293Z" fill="#212121"/>
<path d="M94.6259 34.728V35.3533H93.0005V39.8878H92.2777V35.3533H90.6523V34.728H94.6259Z" fill="black"/>
<path d="M94.6259 34.728V35.3533H93.0005V39.8878H92.2777V35.3533H90.6523V34.728H94.6259Z" fill="#212121"/>
<path d="M124.891 36.3882C124.683 37.0534 124.471 37.6688 124.258 38.2349C124.044 38.8006 123.83 39.3517 123.616 39.8878H122.894C122.63 39.1283 122.396 38.3267 122.192 37.4827C121.994 36.6391 121.807 35.7204 121.633 34.728H122.394C122.463 35.1149 122.535 35.5021 122.609 35.8894C122.684 36.2767 122.762 36.6537 122.841 37.0212C122.92 37.3836 123.001 37.731 123.079 38.0634C123.159 38.3962 123.241 38.7037 123.325 38.9867C123.524 38.4656 123.735 37.8948 123.959 37.2742C124.183 36.6489 124.392 36.0035 124.586 35.3383H125.212C125.406 36.0035 125.617 36.6489 125.846 37.2742C126.074 37.8948 126.287 38.4656 126.486 38.9867C126.566 38.7088 126.646 38.4035 126.725 38.0711C126.804 37.7383 126.882 37.3909 126.956 37.0285C127.036 36.6614 127.113 36.284 127.188 35.8967C127.262 35.5047 127.334 35.1149 127.404 34.728H128.142C127.963 35.7204 127.772 36.6391 127.568 37.4827C127.369 38.3267 127.14 39.1283 126.882 39.8878H126.159C125.94 39.3517 125.726 38.8006 125.517 38.2349C125.309 37.6688 125.1 37.0534 124.891 36.3882Z" fill="black"/>
<path d="M124.891 36.3882C124.683 37.0534 124.471 37.6688 124.258 38.2349C124.044 38.8006 123.83 39.3517 123.616 39.8878H122.894C122.63 39.1283 122.396 38.3267 122.192 37.4827C121.994 36.6391 121.807 35.7204 121.633 34.728H122.394C122.463 35.1149 122.535 35.5021 122.609 35.8894C122.684 36.2767 122.762 36.6537 122.841 37.0212C122.92 37.3836 123.001 37.731 123.079 38.0634C123.159 38.3962 123.241 38.7037 123.325 38.9867C123.524 38.4656 123.735 37.8948 123.959 37.2742C124.183 36.6489 124.392 36.0035 124.586 35.3383H125.212C125.406 36.0035 125.617 36.6489 125.846 37.2742C126.074 37.8948 126.287 38.4656 126.486 38.9867C126.566 38.7088 126.646 38.4035 126.725 38.0711C126.804 37.7383 126.882 37.3909 126.956 37.0285C127.036 36.6614 127.113 36.284 127.188 35.8967C127.262 35.5047 127.334 35.1149 127.404 34.728H128.142C127.963 35.7204 127.772 36.6391 127.568 37.4827C127.369 38.3267 127.14 39.1283 126.882 39.8878H126.159C125.94 39.3517 125.726 38.8006 125.517 38.2349C125.309 37.6688 125.1 37.0534 124.891 36.3882Z" fill="#212121"/>
<path d="M157.32 39.9983C157.229 39.7582 157.144 39.5236 157.063 39.2941C156.984 39.0595 156.901 38.8224 156.815 38.5822H154.3L153.795 39.9983H152.986C153.2 39.4116 153.4 38.8704 153.587 38.3742C153.774 37.8729 153.956 37.3981 154.132 36.9504C154.313 36.5022 154.492 36.0755 154.668 35.6702C154.845 35.2598 155.029 34.8545 155.221 34.4543H155.934C156.126 34.8545 156.311 35.2598 156.487 35.6702C156.663 36.0755 156.839 36.5022 157.016 36.9504C157.197 37.3981 157.381 37.8729 157.568 38.3742C157.755 38.8704 157.956 39.4116 158.169 39.9983H157.32ZM156.591 37.9423C156.42 37.4783 156.25 37.0301 156.078 36.5983C155.913 36.1608 155.739 35.7422 155.558 35.3425C155.371 35.7422 155.192 36.1608 155.021 36.5983C154.856 37.0301 154.689 37.4783 154.524 37.9423H156.591Z" fill="black"/>
<path d="M157.32 39.9983C157.229 39.7582 157.144 39.5236 157.063 39.2941C156.984 39.0595 156.901 38.8224 156.815 38.5822H154.3L153.795 39.9983H152.986C153.2 39.4116 153.4 38.8704 153.587 38.3742C153.774 37.8729 153.956 37.3981 154.132 36.9504C154.313 36.5022 154.492 36.0755 154.668 35.6702C154.845 35.2598 155.029 34.8545 155.221 34.4543H155.934C156.126 34.8545 156.311 35.2598 156.487 35.6702C156.663 36.0755 156.839 36.5022 157.016 36.9504C157.197 37.3981 157.381 37.8729 157.568 38.3742C157.755 38.8704 157.956 39.4116 158.169 39.9983H157.32ZM156.591 37.9423C156.42 37.4783 156.25 37.0301 156.078 36.5983C155.913 36.1608 155.739 35.7422 155.558 35.3425C155.371 35.7422 155.192 36.1608 155.021 36.5983C154.856 37.0301 154.689 37.4783 154.524 37.9423H156.591Z" fill="#212121"/>
<path d="M186.367 37.7265C186.447 37.8256 186.546 37.9573 186.665 38.1211C186.79 38.2798 186.916 38.4586 187.045 38.6572C187.175 38.8506 187.302 39.0543 187.426 39.2674C187.555 39.481 187.664 39.6873 187.754 39.8855H186.964C186.864 39.6972 186.755 39.5059 186.635 39.3125C186.521 39.1186 186.404 38.9351 186.285 38.7614C186.166 38.5825 186.047 38.4166 185.927 38.2626C185.812 38.1086 185.708 37.9748 185.614 37.8603C185.549 37.8655 185.482 37.868 185.412 37.868C185.348 37.868 185.281 37.868 185.211 37.868H184.563V39.8855H183.84V34.8003C184.044 34.7506 184.269 34.7184 184.518 34.7034C184.772 34.6837 185.003 34.6738 185.211 34.6738C185.938 34.6738 186.489 34.8102 186.867 35.0834C187.249 35.3562 187.441 35.7632 187.441 36.3044C187.441 36.6471 187.349 36.9395 187.165 37.1827C186.986 37.4263 186.72 37.6073 186.367 37.7265ZM185.272 35.3064C184.963 35.3064 184.727 35.3141 184.563 35.3291V37.2724H185.077C185.326 37.2724 185.549 37.2599 185.748 37.235C185.947 37.2102 186.114 37.163 186.248 37.0935C186.387 37.024 186.494 36.9271 186.568 36.8032C186.643 36.6741 186.681 36.5055 186.681 36.2971C186.681 36.1033 186.643 35.942 186.568 35.8129C186.494 35.6838 186.392 35.5822 186.262 35.5076C186.139 35.4334 185.989 35.381 185.815 35.3514C185.646 35.3214 185.465 35.3064 185.272 35.3064Z" fill="black"/>
<path d="M186.367 37.7265C186.447 37.8256 186.546 37.9573 186.665 38.1211C186.79 38.2798 186.916 38.4586 187.045 38.6572C187.175 38.8506 187.302 39.0543 187.426 39.2674C187.555 39.481 187.664 39.6873 187.754 39.8855H186.964C186.864 39.6972 186.755 39.5059 186.635 39.3125C186.521 39.1186 186.404 38.9351 186.285 38.7614C186.166 38.5825 186.047 38.4166 185.927 38.2626C185.812 38.1086 185.708 37.9748 185.614 37.8603C185.549 37.8655 185.482 37.868 185.412 37.868C185.348 37.868 185.281 37.868 185.211 37.868H184.563V39.8855H183.84V34.8003C184.044 34.7506 184.269 34.7184 184.518 34.7034C184.772 34.6837 185.003 34.6738 185.211 34.6738C185.938 34.6738 186.489 34.8102 186.867 35.0834C187.249 35.3562 187.441 35.7632 187.441 36.3044C187.441 36.6471 187.349 36.9395 187.165 37.1827C186.986 37.4263 186.72 37.6073 186.367 37.7265ZM185.272 35.3064C184.963 35.3064 184.727 35.3141 184.563 35.3291V37.2724H185.077C185.326 37.2724 185.549 37.2599 185.748 37.235C185.947 37.2102 186.114 37.163 186.248 37.0935C186.387 37.024 186.494 36.9271 186.568 36.8032C186.643 36.6741 186.681 36.5055 186.681 36.2971C186.681 36.1033 186.643 35.942 186.568 35.8129C186.494 35.6838 186.392 35.5822 186.262 35.5076C186.139 35.4334 185.989 35.381 185.815 35.3514C185.646 35.3214 185.465 35.3064 185.272 35.3064Z" fill="#212121"/>
<path d="M213.664 39.8878V34.728H216.818V35.346H214.387V36.8797H216.549V37.4827H214.387V39.2698H217.004V39.8878H213.664Z" fill="black"/>
<path d="M213.664 39.8878V34.728H216.818V35.346H214.387V36.8797H216.549V37.4827H214.387V39.2698H217.004V39.8878H213.664Z" fill="#212121"/>
</svg>
