<svg width="288" height="42" viewBox="0 0 288 42" fill="none" xmlns="http://www.w3.org/2000/svg">
<path fill-rule="evenodd" clip-rule="evenodd" d="M23.899 0.0501483C24.3055 1.35392 24.712 2.65769 25.1184 3.91132L32.892 26.928L37.7695 41.3698C37.7949 41.4701 37.8203 41.5578 37.8457 41.6456C37.8711 41.7333 37.8966 41.8211 37.922 41.9214C36.9566 42.0718 36.9566 42.0718 36.7026 41.3196C32.0791 27.6801 27.4556 14.0407 22.8321 0.351023C22.8067 0.300877 22.794 0.238194 22.7813 0.175511C22.7686 0.112828 22.7559 0.0501452 22.7305 0C23.1877 0.0501452 23.5434 0.0501483 23.899 0.0501483ZM15.7156 14H19.6016V13.4885H16.624L18.2126 12.0556C18.9566 11.3848 19.3287 10.8067 19.3287 10.3211C19.3287 9.92141 19.1684 9.60185 18.848 9.36247C18.5276 9.12082 18.0917 9 17.5405 9C16.9512 9 16.48 9.14002 16.127 9.42005C15.7767 9.70009 15.6016 10.0671 15.6016 10.521H16.3551C16.3551 10.2048 16.4583 9.95867 16.6647 9.78252C16.8738 9.60411 17.1657 9.5149 17.5405 9.5149C17.8528 9.5149 18.1026 9.59733 18.29 9.7622C18.4773 9.92705 18.571 10.1382 18.571 10.3957C18.571 10.5876 18.5126 10.7739 18.3959 10.9546C18.2818 11.133 18.0727 11.3656 17.7686 11.6524L15.7156 13.5495V14ZM0.101562 11.1702L1.28256 13.2287H4.9546C7.34096 13.2287 9.19525 13.9628 10.5175 15.4309C11.8504 16.899 12.5168 18.9893 12.5168 21.7022V23.0585C12.5168 25.6968 11.888 27.7447 10.6303 29.2021C9.38336 30.6702 7.6097 31.4149 5.30932 31.4362H3.36547L4.10156 33.4999L5.30383 33.5106C7.34623 33.5106 8.94807 33.0638 10.5175 32.1702C12.0869 31.2766 12.944 30.2447 13.7932 28.5957C14.6532 26.9468 15.1229 24.9255 15.1336 22.7872V21.7022C15.1336 19.5107 14.6532 17.7341 13.7932 16.0851C12.944 14.4362 12.1084 13.3936 10.5175 12.5106C8.93726 11.6277 7.41619 11.1915 5.30932 11.1702H0.101562ZM24.008 28.6337C22.6072 28.254 21.5864 27.7888 20.9456 27.238C20.3104 26.6818 19.9929 25.9973 19.9929 25.1845C19.9929 24.2647 20.3813 23.5053 21.1583 22.9064C21.9409 22.3021 22.956 22 24.2036 22C25.0543 22 25.8114 22.1551 26.4749 22.4652C27.1441 22.7754 27.6602 23.2032 28.0231 23.7487C28.3917 24.2941 28.5761 24.8904 28.5761 25.5374H26.9343C26.9343 24.8316 26.6961 24.2781 26.2197 23.877C25.7433 23.4706 25.0713 23.2674 24.2036 23.2674C23.3983 23.2674 22.7689 23.4358 22.3152 23.7727C21.8672 24.1043 21.6432 24.5668 21.6432 25.1604C21.6432 25.6364 21.8558 26.0401 22.2811 26.3717C22.7122 26.6979 23.4409 26.9973 24.4674 27.2701C25.4995 27.5428 26.3048 27.8449 26.8832 28.1765C27.4674 28.5027 27.8984 28.885 28.1763 29.3235C28.4598 29.762 28.6016 30.2781 28.6016 30.8717C28.6016 31.8182 28.2103 32.5775 27.4277 33.1497C26.6451 33.7166 25.5987 34 24.2887 34C23.4381 34 22.6441 33.8476 21.9069 33.5428C21.1696 33.2326 20.5997 32.8101 20.197 32.2754C19.8001 31.7406 19.6016 31.1337 19.6016 30.4545H21.2433C21.2433 31.1604 21.5184 31.7193 22.0685 32.131C22.6242 32.5374 23.3643 32.7406 24.2887 32.7406C25.1507 32.7406 25.8114 32.5749 26.2707 32.2433C26.7301 31.9118 26.9598 31.4599 26.9598 30.8877C26.9598 30.3155 26.7471 29.8743 26.3218 29.5642C25.8965 29.2487 25.1252 28.9385 24.008 28.6337ZM49.8359 22.9375V40H54.7461C56.2852 40 57.6484 39.668 58.8359 39.0039C60.0312 38.3398 60.9492 37.3945 61.5898 36.168C62.2383 34.9414 62.5625 33.5195 62.5625 31.9023V31.0469C62.5625 29.4531 62.2422 28.0391 61.6016 26.8047C60.9609 25.5703 60.0547 24.6172 58.8828 23.9453C57.7188 23.2734 56.3828 22.9375 54.875 22.9375H49.8359ZM52.8008 37.6328V25.3281H54.875C56.4062 25.3281 57.5742 25.8164 58.3789 26.793C59.1836 27.7695 59.5859 29.1836 59.5859 31.0352V31.9844C59.5703 33.8047 59.1445 35.2031 58.3086 36.1797C57.4805 37.1484 56.2891 37.6328 54.7344 37.6328H52.8008ZM72.2005 32.3828H79.2083V30.0391H72.2005V25.3281H80.3098V22.9375H69.2356V40H80.3919V37.6328H72.2005V32.3828ZM94.647 33.8711C95.1783 34.2773 95.4439 34.8555 95.4439 35.6055C95.4439 36.293 95.1822 36.8477 94.6588 37.2695C94.1431 37.6836 93.3697 37.8906 92.3384 37.8906C91.1431 37.8906 90.2252 37.625 89.5845 37.0938C88.9439 36.5625 88.6236 35.8125 88.6236 34.8438H85.6588C85.6588 35.9141 85.9439 36.8516 86.5142 37.6562C87.0923 38.4609 87.897 39.0938 88.9283 39.5547C89.9673 40.0078 91.1041 40.2344 92.3384 40.2344C94.2056 40.2344 95.6822 39.8164 96.7681 38.9805C97.8619 38.1367 98.4088 37.0039 98.4088 35.582C98.4088 34.707 98.2213 33.9453 97.8463 33.2969C97.4713 32.6406 96.8814 32.0625 96.0767 31.5625C95.272 31.0547 94.2056 30.6055 92.8775 30.2148C91.5494 29.8164 90.5963 29.4102 90.0181 28.9961C89.44 28.5742 89.1509 28.0508 89.1509 27.4258C89.1509 26.6836 89.4166 26.1055 89.9478 25.6914C90.4869 25.2773 91.2408 25.0703 92.2095 25.0703C93.2486 25.0703 94.0455 25.3242 94.6002 25.832C95.1627 26.332 95.4439 27.0273 95.4439 27.918H98.397C98.397 26.9336 98.1314 26.0391 97.6002 25.2344C97.0689 24.4219 96.3384 23.7969 95.4088 23.3594C94.4791 22.9219 93.4205 22.7031 92.233 22.7031C90.4439 22.7031 88.9869 23.1484 87.8619 24.0391C86.7447 24.9297 86.1861 26.0625 86.1861 27.4375C86.1861 29.0078 86.9634 30.2812 88.5181 31.2578C89.3306 31.7656 90.4244 32.2266 91.7994 32.6406C93.1744 33.0547 94.1236 33.4648 94.647 33.8711ZM104.906 40H107.859V22.9375H104.906V40ZM125.735 39.6133C126.829 39.1992 127.685 38.5898 128.302 37.7852V31.2461H121.833V33.4961H125.349V36.8359C124.708 37.5234 123.63 37.8672 122.114 37.8672C120.732 37.8672 119.65 37.3594 118.868 36.3438C118.095 35.3203 117.708 33.8867 117.708 32.043V30.7305C117.732 28.8789 118.087 27.4766 118.775 26.5234C119.47 25.5625 120.482 25.082 121.81 25.082C123.864 25.082 125.056 26.1094 125.384 28.1641H128.29C128.064 26.3984 127.392 25.0469 126.275 24.1094C125.157 23.1719 123.65 22.7031 121.751 22.7031C119.54 22.7031 117.817 23.4297 116.583 24.8828C115.349 26.3281 114.732 28.3398 114.732 30.918V32.2539C114.755 33.8633 115.064 35.2734 115.657 36.4844C116.259 37.6875 117.11 38.6133 118.212 39.2617C119.314 39.9102 120.579 40.2344 122.009 40.2344C123.4 40.2344 124.642 40.0273 125.735 39.6133ZM145.85 40H148.815V22.9375H145.873V35.0898L138.245 22.9375H135.28V40H138.245V27.8945L145.85 40ZM165.278 40H176.751V37.7266H168.829L173.001 33.2617C174.095 32.0742 174.88 31.0156 175.356 30.0859C175.841 29.1484 176.083 28.2539 176.083 27.4023C176.083 25.9336 175.603 24.7852 174.642 23.957C173.688 23.1211 172.384 22.7031 170.728 22.7031C169.579 22.7031 168.563 22.9336 167.681 23.3945C166.806 23.8555 166.13 24.5039 165.653 25.3398C165.185 26.168 164.95 27.1016 164.95 28.1406H167.798C167.798 27.1641 168.052 26.3945 168.56 25.832C169.067 25.2695 169.782 24.9883 170.704 24.9883C171.478 24.9883 172.091 25.2383 172.544 25.7383C173.005 26.2383 173.235 26.8945 173.235 27.707C173.235 28.3242 173.06 28.9414 172.708 29.5586C172.364 30.168 171.782 30.9297 170.962 31.8438L165.278 38.043V40ZM200.914 33.8711C201.445 34.2773 201.71 34.8555 201.71 35.6055C201.71 36.293 201.449 36.8477 200.925 37.2695C200.41 37.6836 199.636 37.8906 198.605 37.8906C197.41 37.8906 196.492 37.625 195.851 37.0938C195.21 36.5625 194.89 35.8125 194.89 34.8438H191.925C191.925 35.9141 192.21 36.8516 192.781 37.6562C193.359 38.4609 194.164 39.0938 195.195 39.5547C196.234 40.0078 197.371 40.2344 198.605 40.2344C200.472 40.2344 201.949 39.8164 203.035 38.9805C204.128 38.1367 204.675 37.0039 204.675 35.582C204.675 34.707 204.488 33.9453 204.113 33.2969C203.738 32.6406 203.148 32.0625 202.343 31.5625C201.539 31.0547 200.472 30.6055 199.144 30.2148C197.816 29.8164 196.863 29.4102 196.285 28.9961C195.707 28.5742 195.417 28.0508 195.417 27.4258C195.417 26.6836 195.683 26.1055 196.214 25.6914C196.753 25.2773 197.507 25.0703 198.476 25.0703C199.515 25.0703 200.312 25.3242 200.867 25.832C201.429 26.332 201.71 27.0273 201.71 27.918H204.664C204.664 26.9336 204.398 26.0391 203.867 25.2344C203.335 24.4219 202.605 23.7969 201.675 23.3594C200.746 22.9219 199.687 22.7031 198.5 22.7031C196.71 22.7031 195.253 23.1484 194.128 24.0391C193.011 24.9297 192.453 26.0625 192.453 27.4375C192.453 29.0078 193.23 30.2812 194.785 31.2578C195.597 31.7656 196.691 32.2266 198.066 32.6406C199.441 33.0547 200.39 33.4648 200.914 33.8711ZM218.005 25.3281H223.325V22.9375H209.79V25.3281H215.063V40H218.005V25.3281ZM229.447 40L230.83 36.0273H237.44L238.834 40H241.928L235.471 22.9375H232.811L226.365 40H229.447ZM234.135 26.5586L236.607 33.6367H231.662L234.135 26.5586ZM253.195 25.3281H258.515V22.9375H244.98V25.3281H250.253V40H253.195V25.3281ZM264.661 40H267.614V22.9375H264.661V40ZM285.982 38.7109C287.154 37.6875 287.826 36.2656 287.998 34.4453H285.045C284.889 35.6641 284.518 36.5352 283.932 37.0586C283.346 37.582 282.471 37.8438 281.307 37.8438C280.033 37.8438 279.064 37.3594 278.4 36.3906C277.744 35.4219 277.416 34.0156 277.416 32.1719V30.6602C277.432 28.8398 277.783 27.4609 278.471 26.5234C279.166 25.5781 280.158 25.1055 281.447 25.1055C282.557 25.1055 283.396 25.3789 283.967 25.9258C284.545 26.4648 284.904 27.3477 285.045 28.5742H287.998C287.81 26.707 287.143 25.2617 285.994 24.2383C284.846 23.2148 283.33 22.7031 281.447 22.7031C280.049 22.7031 278.814 23.0352 277.744 23.6992C276.682 24.3633 275.865 25.3086 275.295 26.5352C274.725 27.7617 274.439 29.1797 274.439 30.7891V32.3828C274.463 33.9531 274.756 35.332 275.318 36.5195C275.881 37.707 276.678 38.625 277.709 39.2734C278.748 39.9141 279.947 40.2344 281.307 40.2344C283.252 40.2344 284.81 39.7266 285.982 38.7109ZM56.8963 11.5704C56.546 10.5577 56.2095 9.61863 55.8869 8.75322C55.5734 7.89692 55.2646 7.08212 54.9604 6.30884C54.6562 5.53535 54.3519 4.79427 54.0477 4.08537C53.7527 3.38559 53.4485 2.69047 53.1351 2H51.8767C51.5632 2.69047 51.2544 3.38559 50.9502 4.08537C50.6552 4.79427 50.351 5.53535 50.0375 6.30884C49.7333 7.08212 49.4199 7.89692 49.0972 8.75322C48.7745 9.61863 48.4427 10.5577 48.1016 11.5704H49.5812C50.079 10.1157 50.5676 8.71637 51.047 7.37208C51.5264 6.028 52.0196 4.76673 52.5266 3.58828C53.0337 4.75742 53.5268 6.01423 54.0062 7.35831C54.4856 8.71171 54.9696 10.1157 55.4582 11.5704H56.8963ZM130.058 8.75322C130.38 9.61863 130.717 10.5577 131.067 11.5704H129.629C129.141 10.1157 128.657 8.71171 128.177 7.35831C127.698 6.01423 127.205 4.75742 126.698 3.58828C126.19 4.76673 125.697 6.028 125.218 7.37208C124.738 8.71637 124.25 10.1157 123.752 11.5704H122.273C122.614 10.5577 122.946 9.61863 123.268 8.75322C123.591 7.89692 123.904 7.08212 124.208 6.30884C124.522 5.53535 124.826 4.79427 125.121 4.08537C125.425 3.38559 125.734 2.69047 126.048 2H127.306C127.62 2.69047 127.924 3.38559 128.219 4.08537C128.523 4.79427 128.827 5.53535 129.131 6.30884C129.436 7.08212 129.744 7.89692 130.058 8.75322ZM146.5 12.0002C145.873 12.0002 145.33 11.9036 144.868 11.7102C144.408 11.5168 144.03 11.2544 143.734 10.923C143.439 10.5824 143.219 10.1819 143.071 9.72142C142.932 9.26117 142.863 8.76408 142.863 8.22993V2.22266H144.205V8.07806C144.205 9.03561 144.417 9.73073 144.841 10.1634C145.265 10.5961 145.818 10.8126 146.5 10.8126C146.841 10.8126 147.15 10.7618 147.427 10.6605C147.712 10.5502 147.957 10.3843 148.16 10.1634C148.362 9.94253 148.519 9.66168 148.63 9.3209C148.74 8.97122 148.796 8.55694 148.796 8.07806V2.22266H150.137V8.22993C150.137 8.76408 150.063 9.26117 149.916 9.72142C149.777 10.1819 149.556 10.5824 149.252 10.923C148.957 11.2544 148.579 11.5168 148.118 11.7102C147.666 11.9036 147.127 12.0002 146.5 12.0002ZM74.5321 11.7929V10.6329H70.107V2.22258H68.7657V11.7929H74.5321ZM92.1302 10.6329V11.7929H86.3638V2.22258H87.7053V10.6329H92.1302ZM105.914 11.8614C106.145 11.8706 106.357 11.8752 106.551 11.8752C108.081 11.8752 109.196 11.6359 109.897 11.1572C110.607 10.6692 110.962 9.94636 110.962 8.98881C110.962 8.3352 110.796 7.82879 110.464 7.46979C110.132 7.11078 109.685 6.84837 109.123 6.68273C109.538 6.5169 109.869 6.26846 110.118 5.93699C110.367 5.59621 110.492 5.1635 110.492 4.63867C110.492 4.16911 110.39 3.77325 110.187 3.4511C109.984 3.12895 109.703 2.87099 109.344 2.67762C108.994 2.47514 108.574 2.33239 108.085 2.24957C107.606 2.16676 107.09 2.12524 106.537 2.12524C106.343 2.12524 106.135 2.1299 105.914 2.13922C105.693 2.14833 105.468 2.1621 105.237 2.18052C105.015 2.19895 104.794 2.22203 104.573 2.24957C104.352 2.27731 104.149 2.31416 103.965 2.36013V11.6405C104.149 11.6865 104.352 11.7233 104.573 11.7509C104.794 11.7786 105.015 11.8015 105.237 11.8199C105.468 11.8384 105.693 11.8521 105.914 11.8614ZM105.292 10.7014V7.33169H107.02C107.408 7.33169 107.758 7.35943 108.072 7.41451C108.385 7.46979 108.652 7.56192 108.874 7.69069C109.104 7.81968 109.279 7.99462 109.399 8.21553C109.519 8.42733 109.579 8.68974 109.579 9.00278C109.579 9.35267 109.496 9.64263 109.33 9.87285C109.173 10.1029 108.961 10.2825 108.694 10.4115C108.427 10.5402 108.113 10.6324 107.754 10.6876C107.403 10.7336 107.03 10.7567 106.633 10.7567H106.067C105.91 10.7474 105.772 10.7383 105.652 10.729C105.513 10.7198 105.394 10.7105 105.292 10.7014ZM106.703 6.25448H105.292V3.29924C105.449 3.28082 105.624 3.26705 105.818 3.25773C106.011 3.24862 106.279 3.24396 106.62 3.24396C106.961 3.24396 107.283 3.2715 107.587 3.32678C107.892 3.38206 108.155 3.46953 108.376 3.5892C108.607 3.69975 108.786 3.85162 108.915 4.04499C109.044 4.22904 109.109 4.45927 109.109 4.73545C109.109 5.03007 109.044 5.27406 108.915 5.46743C108.795 5.6606 108.625 5.81712 108.403 5.93699C108.192 6.05666 107.938 6.13947 107.643 6.18543C107.348 6.2316 107.035 6.25448 106.703 6.25448Z" fill="black"/>
<path fill-rule="evenodd" clip-rule="evenodd" d="M23.899 0.0501483C24.3055 1.35392 24.712 2.65769 25.1184 3.91132L32.892 26.928L37.7695 41.3698C37.7949 41.4701 37.8203 41.5578 37.8457 41.6456C37.8711 41.7333 37.8966 41.8211 37.922 41.9214C36.9566 42.0718 36.9566 42.0718 36.7026 41.3196C32.0791 27.6801 27.4556 14.0407 22.8321 0.351023C22.8067 0.300877 22.794 0.238194 22.7813 0.175511C22.7686 0.112828 22.7559 0.0501452 22.7305 0C23.1877 0.0501452 23.5434 0.0501483 23.899 0.0501483ZM15.7156 14H19.6016V13.4885H16.624L18.2126 12.0556C18.9566 11.3848 19.3287 10.8067 19.3287 10.3211C19.3287 9.92141 19.1684 9.60185 18.848 9.36247C18.5276 9.12082 18.0917 9 17.5405 9C16.9512 9 16.48 9.14002 16.127 9.42005C15.7767 9.70009 15.6016 10.0671 15.6016 10.521H16.3551C16.3551 10.2048 16.4583 9.95867 16.6647 9.78252C16.8738 9.60411 17.1657 9.5149 17.5405 9.5149C17.8528 9.5149 18.1026 9.59733 18.29 9.7622C18.4773 9.92705 18.571 10.1382 18.571 10.3957C18.571 10.5876 18.5126 10.7739 18.3959 10.9546C18.2818 11.133 18.0727 11.3656 17.7686 11.6524L15.7156 13.5495V14ZM0.101562 11.1702L1.28256 13.2287H4.9546C7.34096 13.2287 9.19525 13.9628 10.5175 15.4309C11.8504 16.899 12.5168 18.9893 12.5168 21.7022V23.0585C12.5168 25.6968 11.888 27.7447 10.6303 29.2021C9.38336 30.6702 7.6097 31.4149 5.30932 31.4362H3.36547L4.10156 33.4999L5.30383 33.5106C7.34623 33.5106 8.94807 33.0638 10.5175 32.1702C12.0869 31.2766 12.944 30.2447 13.7932 28.5957C14.6532 26.9468 15.1229 24.9255 15.1336 22.7872V21.7022C15.1336 19.5107 14.6532 17.7341 13.7932 16.0851C12.944 14.4362 12.1084 13.3936 10.5175 12.5106C8.93726 11.6277 7.41619 11.1915 5.30932 11.1702H0.101562ZM24.008 28.6337C22.6072 28.254 21.5864 27.7888 20.9456 27.238C20.3104 26.6818 19.9929 25.9973 19.9929 25.1845C19.9929 24.2647 20.3813 23.5053 21.1583 22.9064C21.9409 22.3021 22.956 22 24.2036 22C25.0543 22 25.8114 22.1551 26.4749 22.4652C27.1441 22.7754 27.6602 23.2032 28.0231 23.7487C28.3917 24.2941 28.5761 24.8904 28.5761 25.5374H26.9343C26.9343 24.8316 26.6961 24.2781 26.2197 23.877C25.7433 23.4706 25.0713 23.2674 24.2036 23.2674C23.3983 23.2674 22.7689 23.4358 22.3152 23.7727C21.8672 24.1043 21.6432 24.5668 21.6432 25.1604C21.6432 25.6364 21.8558 26.0401 22.2811 26.3717C22.7122 26.6979 23.4409 26.9973 24.4674 27.2701C25.4995 27.5428 26.3048 27.8449 26.8832 28.1765C27.4674 28.5027 27.8984 28.885 28.1763 29.3235C28.4598 29.762 28.6016 30.2781 28.6016 30.8717C28.6016 31.8182 28.2103 32.5775 27.4277 33.1497C26.6451 33.7166 25.5987 34 24.2887 34C23.4381 34 22.6441 33.8476 21.9069 33.5428C21.1696 33.2326 20.5997 32.8101 20.197 32.2754C19.8001 31.7406 19.6016 31.1337 19.6016 30.4545H21.2433C21.2433 31.1604 21.5184 31.7193 22.0685 32.131C22.6242 32.5374 23.3643 32.7406 24.2887 32.7406C25.1507 32.7406 25.8114 32.5749 26.2707 32.2433C26.7301 31.9118 26.9598 31.4599 26.9598 30.8877C26.9598 30.3155 26.7471 29.8743 26.3218 29.5642C25.8965 29.2487 25.1252 28.9385 24.008 28.6337ZM49.8359 22.9375V40H54.7461C56.2852 40 57.6484 39.668 58.8359 39.0039C60.0312 38.3398 60.9492 37.3945 61.5898 36.168C62.2383 34.9414 62.5625 33.5195 62.5625 31.9023V31.0469C62.5625 29.4531 62.2422 28.0391 61.6016 26.8047C60.9609 25.5703 60.0547 24.6172 58.8828 23.9453C57.7188 23.2734 56.3828 22.9375 54.875 22.9375H49.8359ZM52.8008 37.6328V25.3281H54.875C56.4062 25.3281 57.5742 25.8164 58.3789 26.793C59.1836 27.7695 59.5859 29.1836 59.5859 31.0352V31.9844C59.5703 33.8047 59.1445 35.2031 58.3086 36.1797C57.4805 37.1484 56.2891 37.6328 54.7344 37.6328H52.8008ZM72.2005 32.3828H79.2083V30.0391H72.2005V25.3281H80.3098V22.9375H69.2356V40H80.3919V37.6328H72.2005V32.3828ZM94.647 33.8711C95.1783 34.2773 95.4439 34.8555 95.4439 35.6055C95.4439 36.293 95.1822 36.8477 94.6588 37.2695C94.1431 37.6836 93.3697 37.8906 92.3384 37.8906C91.1431 37.8906 90.2252 37.625 89.5845 37.0938C88.9439 36.5625 88.6236 35.8125 88.6236 34.8438H85.6588C85.6588 35.9141 85.9439 36.8516 86.5142 37.6562C87.0923 38.4609 87.897 39.0938 88.9283 39.5547C89.9673 40.0078 91.1041 40.2344 92.3384 40.2344C94.2056 40.2344 95.6822 39.8164 96.7681 38.9805C97.8619 38.1367 98.4088 37.0039 98.4088 35.582C98.4088 34.707 98.2213 33.9453 97.8463 33.2969C97.4713 32.6406 96.8814 32.0625 96.0767 31.5625C95.272 31.0547 94.2056 30.6055 92.8775 30.2148C91.5494 29.8164 90.5963 29.4102 90.0181 28.9961C89.44 28.5742 89.1509 28.0508 89.1509 27.4258C89.1509 26.6836 89.4166 26.1055 89.9478 25.6914C90.4869 25.2773 91.2408 25.0703 92.2095 25.0703C93.2486 25.0703 94.0455 25.3242 94.6002 25.832C95.1627 26.332 95.4439 27.0273 95.4439 27.918H98.397C98.397 26.9336 98.1314 26.0391 97.6002 25.2344C97.0689 24.4219 96.3384 23.7969 95.4088 23.3594C94.4791 22.9219 93.4205 22.7031 92.233 22.7031C90.4439 22.7031 88.9869 23.1484 87.8619 24.0391C86.7447 24.9297 86.1861 26.0625 86.1861 27.4375C86.1861 29.0078 86.9634 30.2812 88.5181 31.2578C89.3306 31.7656 90.4244 32.2266 91.7994 32.6406C93.1744 33.0547 94.1236 33.4648 94.647 33.8711ZM104.906 40H107.859V22.9375H104.906V40ZM125.735 39.6133C126.829 39.1992 127.685 38.5898 128.302 37.7852V31.2461H121.833V33.4961H125.349V36.8359C124.708 37.5234 123.63 37.8672 122.114 37.8672C120.732 37.8672 119.65 37.3594 118.868 36.3438C118.095 35.3203 117.708 33.8867 117.708 32.043V30.7305C117.732 28.8789 118.087 27.4766 118.775 26.5234C119.47 25.5625 120.482 25.082 121.81 25.082C123.864 25.082 125.056 26.1094 125.384 28.1641H128.29C128.064 26.3984 127.392 25.0469 126.275 24.1094C125.157 23.1719 123.65 22.7031 121.751 22.7031C119.54 22.7031 117.817 23.4297 116.583 24.8828C115.349 26.3281 114.732 28.3398 114.732 30.918V32.2539C114.755 33.8633 115.064 35.2734 115.657 36.4844C116.259 37.6875 117.11 38.6133 118.212 39.2617C119.314 39.9102 120.579 40.2344 122.009 40.2344C123.4 40.2344 124.642 40.0273 125.735 39.6133ZM145.85 40H148.815V22.9375H145.873V35.0898L138.245 22.9375H135.28V40H138.245V27.8945L145.85 40ZM165.278 40H176.751V37.7266H168.829L173.001 33.2617C174.095 32.0742 174.88 31.0156 175.356 30.0859C175.841 29.1484 176.083 28.2539 176.083 27.4023C176.083 25.9336 175.603 24.7852 174.642 23.957C173.688 23.1211 172.384 22.7031 170.728 22.7031C169.579 22.7031 168.563 22.9336 167.681 23.3945C166.806 23.8555 166.13 24.5039 165.653 25.3398C165.185 26.168 164.95 27.1016 164.95 28.1406H167.798C167.798 27.1641 168.052 26.3945 168.56 25.832C169.067 25.2695 169.782 24.9883 170.704 24.9883C171.478 24.9883 172.091 25.2383 172.544 25.7383C173.005 26.2383 173.235 26.8945 173.235 27.707C173.235 28.3242 173.06 28.9414 172.708 29.5586C172.364 30.168 171.782 30.9297 170.962 31.8438L165.278 38.043V40ZM200.914 33.8711C201.445 34.2773 201.71 34.8555 201.71 35.6055C201.71 36.293 201.449 36.8477 200.925 37.2695C200.41 37.6836 199.636 37.8906 198.605 37.8906C197.41 37.8906 196.492 37.625 195.851 37.0938C195.21 36.5625 194.89 35.8125 194.89 34.8438H191.925C191.925 35.9141 192.21 36.8516 192.781 37.6562C193.359 38.4609 194.164 39.0938 195.195 39.5547C196.234 40.0078 197.371 40.2344 198.605 40.2344C200.472 40.2344 201.949 39.8164 203.035 38.9805C204.128 38.1367 204.675 37.0039 204.675 35.582C204.675 34.707 204.488 33.9453 204.113 33.2969C203.738 32.6406 203.148 32.0625 202.343 31.5625C201.539 31.0547 200.472 30.6055 199.144 30.2148C197.816 29.8164 196.863 29.4102 196.285 28.9961C195.707 28.5742 195.417 28.0508 195.417 27.4258C195.417 26.6836 195.683 26.1055 196.214 25.6914C196.753 25.2773 197.507 25.0703 198.476 25.0703C199.515 25.0703 200.312 25.3242 200.867 25.832C201.429 26.332 201.71 27.0273 201.71 27.918H204.664C204.664 26.9336 204.398 26.0391 203.867 25.2344C203.335 24.4219 202.605 23.7969 201.675 23.3594C200.746 22.9219 199.687 22.7031 198.5 22.7031C196.71 22.7031 195.253 23.1484 194.128 24.0391C193.011 24.9297 192.453 26.0625 192.453 27.4375C192.453 29.0078 193.23 30.2812 194.785 31.2578C195.597 31.7656 196.691 32.2266 198.066 32.6406C199.441 33.0547 200.39 33.4648 200.914 33.8711ZM218.005 25.3281H223.325V22.9375H209.79V25.3281H215.063V40H218.005V25.3281ZM229.447 40L230.83 36.0273H237.44L238.834 40H241.928L235.471 22.9375H232.811L226.365 40H229.447ZM234.135 26.5586L236.607 33.6367H231.662L234.135 26.5586ZM253.195 25.3281H258.515V22.9375H244.98V25.3281H250.253V40H253.195V25.3281ZM264.661 40H267.614V22.9375H264.661V40ZM285.982 38.7109C287.154 37.6875 287.826 36.2656 287.998 34.4453H285.045C284.889 35.6641 284.518 36.5352 283.932 37.0586C283.346 37.582 282.471 37.8438 281.307 37.8438C280.033 37.8438 279.064 37.3594 278.4 36.3906C277.744 35.4219 277.416 34.0156 277.416 32.1719V30.6602C277.432 28.8398 277.783 27.4609 278.471 26.5234C279.166 25.5781 280.158 25.1055 281.447 25.1055C282.557 25.1055 283.396 25.3789 283.967 25.9258C284.545 26.4648 284.904 27.3477 285.045 28.5742H287.998C287.81 26.707 287.143 25.2617 285.994 24.2383C284.846 23.2148 283.33 22.7031 281.447 22.7031C280.049 22.7031 278.814 23.0352 277.744 23.6992C276.682 24.3633 275.865 25.3086 275.295 26.5352C274.725 27.7617 274.439 29.1797 274.439 30.7891V32.3828C274.463 33.9531 274.756 35.332 275.318 36.5195C275.881 37.707 276.678 38.625 277.709 39.2734C278.748 39.9141 279.947 40.2344 281.307 40.2344C283.252 40.2344 284.81 39.7266 285.982 38.7109ZM56.8963 11.5704C56.546 10.5577 56.2095 9.61863 55.8869 8.75322C55.5734 7.89692 55.2646 7.08212 54.9604 6.30884C54.6562 5.53535 54.3519 4.79427 54.0477 4.08537C53.7527 3.38559 53.4485 2.69047 53.1351 2H51.8767C51.5632 2.69047 51.2544 3.38559 50.9502 4.08537C50.6552 4.79427 50.351 5.53535 50.0375 6.30884C49.7333 7.08212 49.4199 7.89692 49.0972 8.75322C48.7745 9.61863 48.4427 10.5577 48.1016 11.5704H49.5812C50.079 10.1157 50.5676 8.71637 51.047 7.37208C51.5264 6.028 52.0196 4.76673 52.5266 3.58828C53.0337 4.75742 53.5268 6.01423 54.0062 7.35831C54.4856 8.71171 54.9696 10.1157 55.4582 11.5704H56.8963ZM130.058 8.75322C130.38 9.61863 130.717 10.5577 131.067 11.5704H129.629C129.141 10.1157 128.657 8.71171 128.177 7.35831C127.698 6.01423 127.205 4.75742 126.698 3.58828C126.19 4.76673 125.697 6.028 125.218 7.37208C124.738 8.71637 124.25 10.1157 123.752 11.5704H122.273C122.614 10.5577 122.946 9.61863 123.268 8.75322C123.591 7.89692 123.904 7.08212 124.208 6.30884C124.522 5.53535 124.826 4.79427 125.121 4.08537C125.425 3.38559 125.734 2.69047 126.048 2H127.306C127.62 2.69047 127.924 3.38559 128.219 4.08537C128.523 4.79427 128.827 5.53535 129.131 6.30884C129.436 7.08212 129.744 7.89692 130.058 8.75322ZM146.5 12.0002C145.873 12.0002 145.33 11.9036 144.868 11.7102C144.408 11.5168 144.03 11.2544 143.734 10.923C143.439 10.5824 143.219 10.1819 143.071 9.72142C142.932 9.26117 142.863 8.76408 142.863 8.22993V2.22266H144.205V8.07806C144.205 9.03561 144.417 9.73073 144.841 10.1634C145.265 10.5961 145.818 10.8126 146.5 10.8126C146.841 10.8126 147.15 10.7618 147.427 10.6605C147.712 10.5502 147.957 10.3843 148.16 10.1634C148.362 9.94253 148.519 9.66168 148.63 9.3209C148.74 8.97122 148.796 8.55694 148.796 8.07806V2.22266H150.137V8.22993C150.137 8.76408 150.063 9.26117 149.916 9.72142C149.777 10.1819 149.556 10.5824 149.252 10.923C148.957 11.2544 148.579 11.5168 148.118 11.7102C147.666 11.9036 147.127 12.0002 146.5 12.0002ZM74.5321 11.7929V10.6329H70.107V2.22258H68.7657V11.7929H74.5321ZM92.1302 10.6329V11.7929H86.3638V2.22258H87.7053V10.6329H92.1302ZM105.914 11.8614C106.145 11.8706 106.357 11.8752 106.551 11.8752C108.081 11.8752 109.196 11.6359 109.897 11.1572C110.607 10.6692 110.962 9.94636 110.962 8.98881C110.962 8.3352 110.796 7.82879 110.464 7.46979C110.132 7.11078 109.685 6.84837 109.123 6.68273C109.538 6.5169 109.869 6.26846 110.118 5.93699C110.367 5.59621 110.492 5.1635 110.492 4.63867C110.492 4.16911 110.39 3.77325 110.187 3.4511C109.984 3.12895 109.703 2.87099 109.344 2.67762C108.994 2.47514 108.574 2.33239 108.085 2.24957C107.606 2.16676 107.09 2.12524 106.537 2.12524C106.343 2.12524 106.135 2.1299 105.914 2.13922C105.693 2.14833 105.468 2.1621 105.237 2.18052C105.015 2.19895 104.794 2.22203 104.573 2.24957C104.352 2.27731 104.149 2.31416 103.965 2.36013V11.6405C104.149 11.6865 104.352 11.7233 104.573 11.7509C104.794 11.7786 105.015 11.8015 105.237 11.8199C105.468 11.8384 105.693 11.8521 105.914 11.8614ZM105.292 10.7014V7.33169H107.02C107.408 7.33169 107.758 7.35943 108.072 7.41451C108.385 7.46979 108.652 7.56192 108.874 7.69069C109.104 7.81968 109.279 7.99462 109.399 8.21553C109.519 8.42733 109.579 8.68974 109.579 9.00278C109.579 9.35267 109.496 9.64263 109.33 9.87285C109.173 10.1029 108.961 10.2825 108.694 10.4115C108.427 10.5402 108.113 10.6324 107.754 10.6876C107.403 10.7336 107.03 10.7567 106.633 10.7567H106.067C105.91 10.7474 105.772 10.7383 105.652 10.729C105.513 10.7198 105.394 10.7105 105.292 10.7014ZM106.703 6.25448H105.292V3.29924C105.449 3.28082 105.624 3.26705 105.818 3.25773C106.011 3.24862 106.279 3.24396 106.62 3.24396C106.961 3.24396 107.283 3.2715 107.587 3.32678C107.892 3.38206 108.155 3.46953 108.376 3.5892C108.607 3.69975 108.786 3.85162 108.915 4.04499C109.044 4.22904 109.109 4.45927 109.109 4.73545C109.109 5.03007 109.044 5.27406 108.915 5.46743C108.795 5.6606 108.625 5.81712 108.403 5.93699C108.192 6.05666 107.938 6.13947 107.643 6.18543C107.348 6.2316 107.035 6.25448 106.703 6.25448Z" fill="#062633"/>
<path fill-rule="evenodd" clip-rule="evenodd" d="M23.899 0.0501483C24.3055 1.35392 24.712 2.65769 25.1184 3.91132L32.892 26.928L37.7695 41.3698C37.7949 41.4701 37.8203 41.5578 37.8457 41.6456C37.8711 41.7333 37.8966 41.8211 37.922 41.9214C36.9566 42.0718 36.9566 42.0718 36.7026 41.3196C32.0791 27.6801 27.4556 14.0407 22.8321 0.351023C22.8067 0.300877 22.794 0.238194 22.7813 0.175511C22.7686 0.112828 22.7559 0.0501452 22.7305 0C23.1877 0.0501452 23.5434 0.0501483 23.899 0.0501483ZM15.7156 14H19.6016V13.4885H16.624L18.2126 12.0556C18.9566 11.3848 19.3287 10.8067 19.3287 10.3211C19.3287 9.92141 19.1684 9.60185 18.848 9.36247C18.5276 9.12082 18.0917 9 17.5405 9C16.9512 9 16.48 9.14002 16.127 9.42005C15.7767 9.70009 15.6016 10.0671 15.6016 10.521H16.3551C16.3551 10.2048 16.4583 9.95867 16.6647 9.78252C16.8738 9.60411 17.1657 9.5149 17.5405 9.5149C17.8528 9.5149 18.1026 9.59733 18.29 9.7622C18.4773 9.92705 18.571 10.1382 18.571 10.3957C18.571 10.5876 18.5126 10.7739 18.3959 10.9546C18.2818 11.133 18.0727 11.3656 17.7686 11.6524L15.7156 13.5495V14ZM0.101562 11.1702L1.28256 13.2287H4.9546C7.34096 13.2287 9.19525 13.9628 10.5175 15.4309C11.8504 16.899 12.5168 18.9893 12.5168 21.7022V23.0585C12.5168 25.6968 11.888 27.7447 10.6303 29.2021C9.38336 30.6702 7.6097 31.4149 5.30932 31.4362H3.36547L4.10156 33.4999L5.30383 33.5106C7.34623 33.5106 8.94807 33.0638 10.5175 32.1702C12.0869 31.2766 12.944 30.2447 13.7932 28.5957C14.6532 26.9468 15.1229 24.9255 15.1336 22.7872V21.7022C15.1336 19.5107 14.6532 17.7341 13.7932 16.0851C12.944 14.4362 12.1084 13.3936 10.5175 12.5106C8.93726 11.6277 7.41619 11.1915 5.30932 11.1702H0.101562ZM24.008 28.6337C22.6072 28.254 21.5864 27.7888 20.9456 27.238C20.3104 26.6818 19.9929 25.9973 19.9929 25.1845C19.9929 24.2647 20.3813 23.5053 21.1583 22.9064C21.9409 22.3021 22.956 22 24.2036 22C25.0543 22 25.8114 22.1551 26.4749 22.4652C27.1441 22.7754 27.6602 23.2032 28.0231 23.7487C28.3917 24.2941 28.5761 24.8904 28.5761 25.5374H26.9343C26.9343 24.8316 26.6961 24.2781 26.2197 23.877C25.7433 23.4706 25.0713 23.2674 24.2036 23.2674C23.3983 23.2674 22.7689 23.4358 22.3152 23.7727C21.8672 24.1043 21.6432 24.5668 21.6432 25.1604C21.6432 25.6364 21.8558 26.0401 22.2811 26.3717C22.7122 26.6979 23.4409 26.9973 24.4674 27.2701C25.4995 27.5428 26.3048 27.8449 26.8832 28.1765C27.4674 28.5027 27.8984 28.885 28.1763 29.3235C28.4598 29.762 28.6016 30.2781 28.6016 30.8717C28.6016 31.8182 28.2103 32.5775 27.4277 33.1497C26.6451 33.7166 25.5987 34 24.2887 34C23.4381 34 22.6441 33.8476 21.9069 33.5428C21.1696 33.2326 20.5997 32.8101 20.197 32.2754C19.8001 31.7406 19.6016 31.1337 19.6016 30.4545H21.2433C21.2433 31.1604 21.5184 31.7193 22.0685 32.131C22.6242 32.5374 23.3643 32.7406 24.2887 32.7406C25.1507 32.7406 25.8114 32.5749 26.2707 32.2433C26.7301 31.9118 26.9598 31.4599 26.9598 30.8877C26.9598 30.3155 26.7471 29.8743 26.3218 29.5642C25.8965 29.2487 25.1252 28.9385 24.008 28.6337ZM49.8359 22.9375V40H54.7461C56.2852 40 57.6484 39.668 58.8359 39.0039C60.0312 38.3398 60.9492 37.3945 61.5898 36.168C62.2383 34.9414 62.5625 33.5195 62.5625 31.9023V31.0469C62.5625 29.4531 62.2422 28.0391 61.6016 26.8047C60.9609 25.5703 60.0547 24.6172 58.8828 23.9453C57.7188 23.2734 56.3828 22.9375 54.875 22.9375H49.8359ZM52.8008 37.6328V25.3281H54.875C56.4062 25.3281 57.5742 25.8164 58.3789 26.793C59.1836 27.7695 59.5859 29.1836 59.5859 31.0352V31.9844C59.5703 33.8047 59.1445 35.2031 58.3086 36.1797C57.4805 37.1484 56.2891 37.6328 54.7344 37.6328H52.8008ZM72.2005 32.3828H79.2083V30.0391H72.2005V25.3281H80.3098V22.9375H69.2356V40H80.3919V37.6328H72.2005V32.3828ZM94.647 33.8711C95.1783 34.2773 95.4439 34.8555 95.4439 35.6055C95.4439 36.293 95.1822 36.8477 94.6588 37.2695C94.1431 37.6836 93.3697 37.8906 92.3384 37.8906C91.1431 37.8906 90.2252 37.625 89.5845 37.0938C88.9439 36.5625 88.6236 35.8125 88.6236 34.8438H85.6588C85.6588 35.9141 85.9439 36.8516 86.5142 37.6562C87.0923 38.4609 87.897 39.0938 88.9283 39.5547C89.9673 40.0078 91.1041 40.2344 92.3384 40.2344C94.2056 40.2344 95.6822 39.8164 96.7681 38.9805C97.8619 38.1367 98.4088 37.0039 98.4088 35.582C98.4088 34.707 98.2213 33.9453 97.8463 33.2969C97.4713 32.6406 96.8814 32.0625 96.0767 31.5625C95.272 31.0547 94.2056 30.6055 92.8775 30.2148C91.5494 29.8164 90.5963 29.4102 90.0181 28.9961C89.44 28.5742 89.1509 28.0508 89.1509 27.4258C89.1509 26.6836 89.4166 26.1055 89.9478 25.6914C90.4869 25.2773 91.2408 25.0703 92.2095 25.0703C93.2486 25.0703 94.0455 25.3242 94.6002 25.832C95.1627 26.332 95.4439 27.0273 95.4439 27.918H98.397C98.397 26.9336 98.1314 26.0391 97.6002 25.2344C97.0689 24.4219 96.3384 23.7969 95.4088 23.3594C94.4791 22.9219 93.4205 22.7031 92.233 22.7031C90.4439 22.7031 88.9869 23.1484 87.8619 24.0391C86.7447 24.9297 86.1861 26.0625 86.1861 27.4375C86.1861 29.0078 86.9634 30.2812 88.5181 31.2578C89.3306 31.7656 90.4244 32.2266 91.7994 32.6406C93.1744 33.0547 94.1236 33.4648 94.647 33.8711ZM104.906 40H107.859V22.9375H104.906V40ZM125.735 39.6133C126.829 39.1992 127.685 38.5898 128.302 37.7852V31.2461H121.833V33.4961H125.349V36.8359C124.708 37.5234 123.63 37.8672 122.114 37.8672C120.732 37.8672 119.65 37.3594 118.868 36.3438C118.095 35.3203 117.708 33.8867 117.708 32.043V30.7305C117.732 28.8789 118.087 27.4766 118.775 26.5234C119.47 25.5625 120.482 25.082 121.81 25.082C123.864 25.082 125.056 26.1094 125.384 28.1641H128.29C128.064 26.3984 127.392 25.0469 126.275 24.1094C125.157 23.1719 123.65 22.7031 121.751 22.7031C119.54 22.7031 117.817 23.4297 116.583 24.8828C115.349 26.3281 114.732 28.3398 114.732 30.918V32.2539C114.755 33.8633 115.064 35.2734 115.657 36.4844C116.259 37.6875 117.11 38.6133 118.212 39.2617C119.314 39.9102 120.579 40.2344 122.009 40.2344C123.4 40.2344 124.642 40.0273 125.735 39.6133ZM145.85 40H148.815V22.9375H145.873V35.0898L138.245 22.9375H135.28V40H138.245V27.8945L145.85 40ZM165.278 40H176.751V37.7266H168.829L173.001 33.2617C174.095 32.0742 174.88 31.0156 175.356 30.0859C175.841 29.1484 176.083 28.2539 176.083 27.4023C176.083 25.9336 175.603 24.7852 174.642 23.957C173.688 23.1211 172.384 22.7031 170.728 22.7031C169.579 22.7031 168.563 22.9336 167.681 23.3945C166.806 23.8555 166.13 24.5039 165.653 25.3398C165.185 26.168 164.95 27.1016 164.95 28.1406H167.798C167.798 27.1641 168.052 26.3945 168.56 25.832C169.067 25.2695 169.782 24.9883 170.704 24.9883C171.478 24.9883 172.091 25.2383 172.544 25.7383C173.005 26.2383 173.235 26.8945 173.235 27.707C173.235 28.3242 173.06 28.9414 172.708 29.5586C172.364 30.168 171.782 30.9297 170.962 31.8438L165.278 38.043V40ZM200.914 33.8711C201.445 34.2773 201.71 34.8555 201.71 35.6055C201.71 36.293 201.449 36.8477 200.925 37.2695C200.41 37.6836 199.636 37.8906 198.605 37.8906C197.41 37.8906 196.492 37.625 195.851 37.0938C195.21 36.5625 194.89 35.8125 194.89 34.8438H191.925C191.925 35.9141 192.21 36.8516 192.781 37.6562C193.359 38.4609 194.164 39.0938 195.195 39.5547C196.234 40.0078 197.371 40.2344 198.605 40.2344C200.472 40.2344 201.949 39.8164 203.035 38.9805C204.128 38.1367 204.675 37.0039 204.675 35.582C204.675 34.707 204.488 33.9453 204.113 33.2969C203.738 32.6406 203.148 32.0625 202.343 31.5625C201.539 31.0547 200.472 30.6055 199.144 30.2148C197.816 29.8164 196.863 29.4102 196.285 28.9961C195.707 28.5742 195.417 28.0508 195.417 27.4258C195.417 26.6836 195.683 26.1055 196.214 25.6914C196.753 25.2773 197.507 25.0703 198.476 25.0703C199.515 25.0703 200.312 25.3242 200.867 25.832C201.429 26.332 201.71 27.0273 201.71 27.918H204.664C204.664 26.9336 204.398 26.0391 203.867 25.2344C203.335 24.4219 202.605 23.7969 201.675 23.3594C200.746 22.9219 199.687 22.7031 198.5 22.7031C196.71 22.7031 195.253 23.1484 194.128 24.0391C193.011 24.9297 192.453 26.0625 192.453 27.4375C192.453 29.0078 193.23 30.2812 194.785 31.2578C195.597 31.7656 196.691 32.2266 198.066 32.6406C199.441 33.0547 200.39 33.4648 200.914 33.8711ZM218.005 25.3281H223.325V22.9375H209.79V25.3281H215.063V40H218.005V25.3281ZM229.447 40L230.83 36.0273H237.44L238.834 40H241.928L235.471 22.9375H232.811L226.365 40H229.447ZM234.135 26.5586L236.607 33.6367H231.662L234.135 26.5586ZM253.195 25.3281H258.515V22.9375H244.98V25.3281H250.253V40H253.195V25.3281ZM264.661 40H267.614V22.9375H264.661V40ZM285.982 38.7109C287.154 37.6875 287.826 36.2656 287.998 34.4453H285.045C284.889 35.6641 284.518 36.5352 283.932 37.0586C283.346 37.582 282.471 37.8438 281.307 37.8438C280.033 37.8438 279.064 37.3594 278.4 36.3906C277.744 35.4219 277.416 34.0156 277.416 32.1719V30.6602C277.432 28.8398 277.783 27.4609 278.471 26.5234C279.166 25.5781 280.158 25.1055 281.447 25.1055C282.557 25.1055 283.396 25.3789 283.967 25.9258C284.545 26.4648 284.904 27.3477 285.045 28.5742H287.998C287.81 26.707 287.143 25.2617 285.994 24.2383C284.846 23.2148 283.33 22.7031 281.447 22.7031C280.049 22.7031 278.814 23.0352 277.744 23.6992C276.682 24.3633 275.865 25.3086 275.295 26.5352C274.725 27.7617 274.439 29.1797 274.439 30.7891V32.3828C274.463 33.9531 274.756 35.332 275.318 36.5195C275.881 37.707 276.678 38.625 277.709 39.2734C278.748 39.9141 279.947 40.2344 281.307 40.2344C283.252 40.2344 284.81 39.7266 285.982 38.7109ZM56.8963 11.5704C56.546 10.5577 56.2095 9.61863 55.8869 8.75322C55.5734 7.89692 55.2646 7.08212 54.9604 6.30884C54.6562 5.53535 54.3519 4.79427 54.0477 4.08537C53.7527 3.38559 53.4485 2.69047 53.1351 2H51.8767C51.5632 2.69047 51.2544 3.38559 50.9502 4.08537C50.6552 4.79427 50.351 5.53535 50.0375 6.30884C49.7333 7.08212 49.4199 7.89692 49.0972 8.75322C48.7745 9.61863 48.4427 10.5577 48.1016 11.5704H49.5812C50.079 10.1157 50.5676 8.71637 51.047 7.37208C51.5264 6.028 52.0196 4.76673 52.5266 3.58828C53.0337 4.75742 53.5268 6.01423 54.0062 7.35831C54.4856 8.71171 54.9696 10.1157 55.4582 11.5704H56.8963ZM130.058 8.75322C130.38 9.61863 130.717 10.5577 131.067 11.5704H129.629C129.141 10.1157 128.657 8.71171 128.177 7.35831C127.698 6.01423 127.205 4.75742 126.698 3.58828C126.19 4.76673 125.697 6.028 125.218 7.37208C124.738 8.71637 124.25 10.1157 123.752 11.5704H122.273C122.614 10.5577 122.946 9.61863 123.268 8.75322C123.591 7.89692 123.904 7.08212 124.208 6.30884C124.522 5.53535 124.826 4.79427 125.121 4.08537C125.425 3.38559 125.734 2.69047 126.048 2H127.306C127.62 2.69047 127.924 3.38559 128.219 4.08537C128.523 4.79427 128.827 5.53535 129.131 6.30884C129.436 7.08212 129.744 7.89692 130.058 8.75322ZM146.5 12.0002C145.873 12.0002 145.33 11.9036 144.868 11.7102C144.408 11.5168 144.03 11.2544 143.734 10.923C143.439 10.5824 143.219 10.1819 143.071 9.72142C142.932 9.26117 142.863 8.76408 142.863 8.22993V2.22266H144.205V8.07806C144.205 9.03561 144.417 9.73073 144.841 10.1634C145.265 10.5961 145.818 10.8126 146.5 10.8126C146.841 10.8126 147.15 10.7618 147.427 10.6605C147.712 10.5502 147.957 10.3843 148.16 10.1634C148.362 9.94253 148.519 9.66168 148.63 9.3209C148.74 8.97122 148.796 8.55694 148.796 8.07806V2.22266H150.137V8.22993C150.137 8.76408 150.063 9.26117 149.916 9.72142C149.777 10.1819 149.556 10.5824 149.252 10.923C148.957 11.2544 148.579 11.5168 148.118 11.7102C147.666 11.9036 147.127 12.0002 146.5 12.0002ZM74.5321 11.7929V10.6329H70.107V2.22258H68.7657V11.7929H74.5321ZM92.1302 10.6329V11.7929H86.3638V2.22258H87.7053V10.6329H92.1302ZM105.914 11.8614C106.145 11.8706 106.357 11.8752 106.551 11.8752C108.081 11.8752 109.196 11.6359 109.897 11.1572C110.607 10.6692 110.962 9.94636 110.962 8.98881C110.962 8.3352 110.796 7.82879 110.464 7.46979C110.132 7.11078 109.685 6.84837 109.123 6.68273C109.538 6.5169 109.869 6.26846 110.118 5.93699C110.367 5.59621 110.492 5.1635 110.492 4.63867C110.492 4.16911 110.39 3.77325 110.187 3.4511C109.984 3.12895 109.703 2.87099 109.344 2.67762C108.994 2.47514 108.574 2.33239 108.085 2.24957C107.606 2.16676 107.09 2.12524 106.537 2.12524C106.343 2.12524 106.135 2.1299 105.914 2.13922C105.693 2.14833 105.468 2.1621 105.237 2.18052C105.015 2.19895 104.794 2.22203 104.573 2.24957C104.352 2.27731 104.149 2.31416 103.965 2.36013V11.6405C104.149 11.6865 104.352 11.7233 104.573 11.7509C104.794 11.7786 105.015 11.8015 105.237 11.8199C105.468 11.8384 105.693 11.8521 105.914 11.8614ZM105.292 10.7014V7.33169H107.02C107.408 7.33169 107.758 7.35943 108.072 7.41451C108.385 7.46979 108.652 7.56192 108.874 7.69069C109.104 7.81968 109.279 7.99462 109.399 8.21553C109.519 8.42733 109.579 8.68974 109.579 9.00278C109.579 9.35267 109.496 9.64263 109.33 9.87285C109.173 10.1029 108.961 10.2825 108.694 10.4115C108.427 10.5402 108.113 10.6324 107.754 10.6876C107.403 10.7336 107.03 10.7567 106.633 10.7567H106.067C105.91 10.7474 105.772 10.7383 105.652 10.729C105.513 10.7198 105.394 10.7105 105.292 10.7014ZM106.703 6.25448H105.292V3.29924C105.449 3.28082 105.624 3.26705 105.818 3.25773C106.011 3.24862 106.279 3.24396 106.62 3.24396C106.961 3.24396 107.283 3.2715 107.587 3.32678C107.892 3.38206 108.155 3.46953 108.376 3.5892C108.607 3.69975 108.786 3.85162 108.915 4.04499C109.044 4.22904 109.109 4.45927 109.109 4.73545C109.109 5.03007 109.044 5.27406 108.915 5.46743C108.795 5.6606 108.625 5.81712 108.403 5.93699C108.192 6.05666 107.938 6.13947 107.643 6.18543C107.348 6.2316 107.035 6.25448 106.703 6.25448Z" fill="#226180"/>
<path fill-rule="evenodd" clip-rule="evenodd" d="M23.899 0.0501483C24.3055 1.35392 24.712 2.65769 25.1184 3.91132L32.892 26.928L37.7695 41.3698C37.7949 41.4701 37.8203 41.5578 37.8457 41.6456C37.8711 41.7333 37.8966 41.8211 37.922 41.9214C36.9566 42.0718 36.9566 42.0718 36.7026 41.3196C32.0791 27.6801 27.4556 14.0407 22.8321 0.351023C22.8067 0.300877 22.794 0.238194 22.7813 0.175511C22.7686 0.112828 22.7559 0.0501452 22.7305 0C23.1877 0.0501452 23.5434 0.0501483 23.899 0.0501483ZM15.7156 14H19.6016V13.4885H16.624L18.2126 12.0556C18.9566 11.3848 19.3287 10.8067 19.3287 10.3211C19.3287 9.92141 19.1684 9.60185 18.848 9.36247C18.5276 9.12082 18.0917 9 17.5405 9C16.9512 9 16.48 9.14002 16.127 9.42005C15.7767 9.70009 15.6016 10.0671 15.6016 10.521H16.3551C16.3551 10.2048 16.4583 9.95867 16.6647 9.78252C16.8738 9.60411 17.1657 9.5149 17.5405 9.5149C17.8528 9.5149 18.1026 9.59733 18.29 9.7622C18.4773 9.92705 18.571 10.1382 18.571 10.3957C18.571 10.5876 18.5126 10.7739 18.3959 10.9546C18.2818 11.133 18.0727 11.3656 17.7686 11.6524L15.7156 13.5495V14ZM0.101562 11.1702L1.28256 13.2287H4.9546C7.34096 13.2287 9.19525 13.9628 10.5175 15.4309C11.8504 16.899 12.5168 18.9893 12.5168 21.7022V23.0585C12.5168 25.6968 11.888 27.7447 10.6303 29.2021C9.38336 30.6702 7.6097 31.4149 5.30932 31.4362H3.36547L4.10156 33.4999L5.30383 33.5106C7.34623 33.5106 8.94807 33.0638 10.5175 32.1702C12.0869 31.2766 12.944 30.2447 13.7932 28.5957C14.6532 26.9468 15.1229 24.9255 15.1336 22.7872V21.7022C15.1336 19.5107 14.6532 17.7341 13.7932 16.0851C12.944 14.4362 12.1084 13.3936 10.5175 12.5106C8.93726 11.6277 7.41619 11.1915 5.30932 11.1702H0.101562ZM24.008 28.6337C22.6072 28.254 21.5864 27.7888 20.9456 27.238C20.3104 26.6818 19.9929 25.9973 19.9929 25.1845C19.9929 24.2647 20.3813 23.5053 21.1583 22.9064C21.9409 22.3021 22.956 22 24.2036 22C25.0543 22 25.8114 22.1551 26.4749 22.4652C27.1441 22.7754 27.6602 23.2032 28.0231 23.7487C28.3917 24.2941 28.5761 24.8904 28.5761 25.5374H26.9343C26.9343 24.8316 26.6961 24.2781 26.2197 23.877C25.7433 23.4706 25.0713 23.2674 24.2036 23.2674C23.3983 23.2674 22.7689 23.4358 22.3152 23.7727C21.8672 24.1043 21.6432 24.5668 21.6432 25.1604C21.6432 25.6364 21.8558 26.0401 22.2811 26.3717C22.7122 26.6979 23.4409 26.9973 24.4674 27.2701C25.4995 27.5428 26.3048 27.8449 26.8832 28.1765C27.4674 28.5027 27.8984 28.885 28.1763 29.3235C28.4598 29.762 28.6016 30.2781 28.6016 30.8717C28.6016 31.8182 28.2103 32.5775 27.4277 33.1497C26.6451 33.7166 25.5987 34 24.2887 34C23.4381 34 22.6441 33.8476 21.9069 33.5428C21.1696 33.2326 20.5997 32.8101 20.197 32.2754C19.8001 31.7406 19.6016 31.1337 19.6016 30.4545H21.2433C21.2433 31.1604 21.5184 31.7193 22.0685 32.131C22.6242 32.5374 23.3643 32.7406 24.2887 32.7406C25.1507 32.7406 25.8114 32.5749 26.2707 32.2433C26.7301 31.9118 26.9598 31.4599 26.9598 30.8877C26.9598 30.3155 26.7471 29.8743 26.3218 29.5642C25.8965 29.2487 25.1252 28.9385 24.008 28.6337ZM49.8359 22.9375V40H54.7461C56.2852 40 57.6484 39.668 58.8359 39.0039C60.0312 38.3398 60.9492 37.3945 61.5898 36.168C62.2383 34.9414 62.5625 33.5195 62.5625 31.9023V31.0469C62.5625 29.4531 62.2422 28.0391 61.6016 26.8047C60.9609 25.5703 60.0547 24.6172 58.8828 23.9453C57.7188 23.2734 56.3828 22.9375 54.875 22.9375H49.8359ZM52.8008 37.6328V25.3281H54.875C56.4062 25.3281 57.5742 25.8164 58.3789 26.793C59.1836 27.7695 59.5859 29.1836 59.5859 31.0352V31.9844C59.5703 33.8047 59.1445 35.2031 58.3086 36.1797C57.4805 37.1484 56.2891 37.6328 54.7344 37.6328H52.8008ZM72.2005 32.3828H79.2083V30.0391H72.2005V25.3281H80.3098V22.9375H69.2356V40H80.3919V37.6328H72.2005V32.3828ZM94.647 33.8711C95.1783 34.2773 95.4439 34.8555 95.4439 35.6055C95.4439 36.293 95.1822 36.8477 94.6588 37.2695C94.1431 37.6836 93.3697 37.8906 92.3384 37.8906C91.1431 37.8906 90.2252 37.625 89.5845 37.0938C88.9439 36.5625 88.6236 35.8125 88.6236 34.8438H85.6588C85.6588 35.9141 85.9439 36.8516 86.5142 37.6562C87.0923 38.4609 87.897 39.0938 88.9283 39.5547C89.9673 40.0078 91.1041 40.2344 92.3384 40.2344C94.2056 40.2344 95.6822 39.8164 96.7681 38.9805C97.8619 38.1367 98.4088 37.0039 98.4088 35.582C98.4088 34.707 98.2213 33.9453 97.8463 33.2969C97.4713 32.6406 96.8814 32.0625 96.0767 31.5625C95.272 31.0547 94.2056 30.6055 92.8775 30.2148C91.5494 29.8164 90.5963 29.4102 90.0181 28.9961C89.44 28.5742 89.1509 28.0508 89.1509 27.4258C89.1509 26.6836 89.4166 26.1055 89.9478 25.6914C90.4869 25.2773 91.2408 25.0703 92.2095 25.0703C93.2486 25.0703 94.0455 25.3242 94.6002 25.832C95.1627 26.332 95.4439 27.0273 95.4439 27.918H98.397C98.397 26.9336 98.1314 26.0391 97.6002 25.2344C97.0689 24.4219 96.3384 23.7969 95.4088 23.3594C94.4791 22.9219 93.4205 22.7031 92.233 22.7031C90.4439 22.7031 88.9869 23.1484 87.8619 24.0391C86.7447 24.9297 86.1861 26.0625 86.1861 27.4375C86.1861 29.0078 86.9634 30.2812 88.5181 31.2578C89.3306 31.7656 90.4244 32.2266 91.7994 32.6406C93.1744 33.0547 94.1236 33.4648 94.647 33.8711ZM104.906 40H107.859V22.9375H104.906V40ZM125.735 39.6133C126.829 39.1992 127.685 38.5898 128.302 37.7852V31.2461H121.833V33.4961H125.349V36.8359C124.708 37.5234 123.63 37.8672 122.114 37.8672C120.732 37.8672 119.65 37.3594 118.868 36.3438C118.095 35.3203 117.708 33.8867 117.708 32.043V30.7305C117.732 28.8789 118.087 27.4766 118.775 26.5234C119.47 25.5625 120.482 25.082 121.81 25.082C123.864 25.082 125.056 26.1094 125.384 28.1641H128.29C128.064 26.3984 127.392 25.0469 126.275 24.1094C125.157 23.1719 123.65 22.7031 121.751 22.7031C119.54 22.7031 117.817 23.4297 116.583 24.8828C115.349 26.3281 114.732 28.3398 114.732 30.918V32.2539C114.755 33.8633 115.064 35.2734 115.657 36.4844C116.259 37.6875 117.11 38.6133 118.212 39.2617C119.314 39.9102 120.579 40.2344 122.009 40.2344C123.4 40.2344 124.642 40.0273 125.735 39.6133ZM145.85 40H148.815V22.9375H145.873V35.0898L138.245 22.9375H135.28V40H138.245V27.8945L145.85 40ZM165.278 40H176.751V37.7266H168.829L173.001 33.2617C174.095 32.0742 174.88 31.0156 175.356 30.0859C175.841 29.1484 176.083 28.2539 176.083 27.4023C176.083 25.9336 175.603 24.7852 174.642 23.957C173.688 23.1211 172.384 22.7031 170.728 22.7031C169.579 22.7031 168.563 22.9336 167.681 23.3945C166.806 23.8555 166.13 24.5039 165.653 25.3398C165.185 26.168 164.95 27.1016 164.95 28.1406H167.798C167.798 27.1641 168.052 26.3945 168.56 25.832C169.067 25.2695 169.782 24.9883 170.704 24.9883C171.478 24.9883 172.091 25.2383 172.544 25.7383C173.005 26.2383 173.235 26.8945 173.235 27.707C173.235 28.3242 173.06 28.9414 172.708 29.5586C172.364 30.168 171.782 30.9297 170.962 31.8438L165.278 38.043V40ZM200.914 33.8711C201.445 34.2773 201.71 34.8555 201.71 35.6055C201.71 36.293 201.449 36.8477 200.925 37.2695C200.41 37.6836 199.636 37.8906 198.605 37.8906C197.41 37.8906 196.492 37.625 195.851 37.0938C195.21 36.5625 194.89 35.8125 194.89 34.8438H191.925C191.925 35.9141 192.21 36.8516 192.781 37.6562C193.359 38.4609 194.164 39.0938 195.195 39.5547C196.234 40.0078 197.371 40.2344 198.605 40.2344C200.472 40.2344 201.949 39.8164 203.035 38.9805C204.128 38.1367 204.675 37.0039 204.675 35.582C204.675 34.707 204.488 33.9453 204.113 33.2969C203.738 32.6406 203.148 32.0625 202.343 31.5625C201.539 31.0547 200.472 30.6055 199.144 30.2148C197.816 29.8164 196.863 29.4102 196.285 28.9961C195.707 28.5742 195.417 28.0508 195.417 27.4258C195.417 26.6836 195.683 26.1055 196.214 25.6914C196.753 25.2773 197.507 25.0703 198.476 25.0703C199.515 25.0703 200.312 25.3242 200.867 25.832C201.429 26.332 201.71 27.0273 201.71 27.918H204.664C204.664 26.9336 204.398 26.0391 203.867 25.2344C203.335 24.4219 202.605 23.7969 201.675 23.3594C200.746 22.9219 199.687 22.7031 198.5 22.7031C196.71 22.7031 195.253 23.1484 194.128 24.0391C193.011 24.9297 192.453 26.0625 192.453 27.4375C192.453 29.0078 193.23 30.2812 194.785 31.2578C195.597 31.7656 196.691 32.2266 198.066 32.6406C199.441 33.0547 200.39 33.4648 200.914 33.8711ZM218.005 25.3281H223.325V22.9375H209.79V25.3281H215.063V40H218.005V25.3281ZM229.447 40L230.83 36.0273H237.44L238.834 40H241.928L235.471 22.9375H232.811L226.365 40H229.447ZM234.135 26.5586L236.607 33.6367H231.662L234.135 26.5586ZM253.195 25.3281H258.515V22.9375H244.98V25.3281H250.253V40H253.195V25.3281ZM264.661 40H267.614V22.9375H264.661V40ZM285.982 38.7109C287.154 37.6875 287.826 36.2656 287.998 34.4453H285.045C284.889 35.6641 284.518 36.5352 283.932 37.0586C283.346 37.582 282.471 37.8438 281.307 37.8438C280.033 37.8438 279.064 37.3594 278.4 36.3906C277.744 35.4219 277.416 34.0156 277.416 32.1719V30.6602C277.432 28.8398 277.783 27.4609 278.471 26.5234C279.166 25.5781 280.158 25.1055 281.447 25.1055C282.557 25.1055 283.396 25.3789 283.967 25.9258C284.545 26.4648 284.904 27.3477 285.045 28.5742H287.998C287.81 26.707 287.143 25.2617 285.994 24.2383C284.846 23.2148 283.33 22.7031 281.447 22.7031C280.049 22.7031 278.814 23.0352 277.744 23.6992C276.682 24.3633 275.865 25.3086 275.295 26.5352C274.725 27.7617 274.439 29.1797 274.439 30.7891V32.3828C274.463 33.9531 274.756 35.332 275.318 36.5195C275.881 37.707 276.678 38.625 277.709 39.2734C278.748 39.9141 279.947 40.2344 281.307 40.2344C283.252 40.2344 284.81 39.7266 285.982 38.7109ZM56.8963 11.5704C56.546 10.5577 56.2095 9.61863 55.8869 8.75322C55.5734 7.89692 55.2646 7.08212 54.9604 6.30884C54.6562 5.53535 54.3519 4.79427 54.0477 4.08537C53.7527 3.38559 53.4485 2.69047 53.1351 2H51.8767C51.5632 2.69047 51.2544 3.38559 50.9502 4.08537C50.6552 4.79427 50.351 5.53535 50.0375 6.30884C49.7333 7.08212 49.4199 7.89692 49.0972 8.75322C48.7745 9.61863 48.4427 10.5577 48.1016 11.5704H49.5812C50.079 10.1157 50.5676 8.71637 51.047 7.37208C51.5264 6.028 52.0196 4.76673 52.5266 3.58828C53.0337 4.75742 53.5268 6.01423 54.0062 7.35831C54.4856 8.71171 54.9696 10.1157 55.4582 11.5704H56.8963ZM130.058 8.75322C130.38 9.61863 130.717 10.5577 131.067 11.5704H129.629C129.141 10.1157 128.657 8.71171 128.177 7.35831C127.698 6.01423 127.205 4.75742 126.698 3.58828C126.19 4.76673 125.697 6.028 125.218 7.37208C124.738 8.71637 124.25 10.1157 123.752 11.5704H122.273C122.614 10.5577 122.946 9.61863 123.268 8.75322C123.591 7.89692 123.904 7.08212 124.208 6.30884C124.522 5.53535 124.826 4.79427 125.121 4.08537C125.425 3.38559 125.734 2.69047 126.048 2H127.306C127.62 2.69047 127.924 3.38559 128.219 4.08537C128.523 4.79427 128.827 5.53535 129.131 6.30884C129.436 7.08212 129.744 7.89692 130.058 8.75322ZM146.5 12.0002C145.873 12.0002 145.33 11.9036 144.868 11.7102C144.408 11.5168 144.03 11.2544 143.734 10.923C143.439 10.5824 143.219 10.1819 143.071 9.72142C142.932 9.26117 142.863 8.76408 142.863 8.22993V2.22266H144.205V8.07806C144.205 9.03561 144.417 9.73073 144.841 10.1634C145.265 10.5961 145.818 10.8126 146.5 10.8126C146.841 10.8126 147.15 10.7618 147.427 10.6605C147.712 10.5502 147.957 10.3843 148.16 10.1634C148.362 9.94253 148.519 9.66168 148.63 9.3209C148.74 8.97122 148.796 8.55694 148.796 8.07806V2.22266H150.137V8.22993C150.137 8.76408 150.063 9.26117 149.916 9.72142C149.777 10.1819 149.556 10.5824 149.252 10.923C148.957 11.2544 148.579 11.5168 148.118 11.7102C147.666 11.9036 147.127 12.0002 146.5 12.0002ZM74.5321 11.7929V10.6329H70.107V2.22258H68.7657V11.7929H74.5321ZM92.1302 10.6329V11.7929H86.3638V2.22258H87.7053V10.6329H92.1302ZM105.914 11.8614C106.145 11.8706 106.357 11.8752 106.551 11.8752C108.081 11.8752 109.196 11.6359 109.897 11.1572C110.607 10.6692 110.962 9.94636 110.962 8.98881C110.962 8.3352 110.796 7.82879 110.464 7.46979C110.132 7.11078 109.685 6.84837 109.123 6.68273C109.538 6.5169 109.869 6.26846 110.118 5.93699C110.367 5.59621 110.492 5.1635 110.492 4.63867C110.492 4.16911 110.39 3.77325 110.187 3.4511C109.984 3.12895 109.703 2.87099 109.344 2.67762C108.994 2.47514 108.574 2.33239 108.085 2.24957C107.606 2.16676 107.09 2.12524 106.537 2.12524C106.343 2.12524 106.135 2.1299 105.914 2.13922C105.693 2.14833 105.468 2.1621 105.237 2.18052C105.015 2.19895 104.794 2.22203 104.573 2.24957C104.352 2.27731 104.149 2.31416 103.965 2.36013V11.6405C104.149 11.6865 104.352 11.7233 104.573 11.7509C104.794 11.7786 105.015 11.8015 105.237 11.8199C105.468 11.8384 105.693 11.8521 105.914 11.8614ZM105.292 10.7014V7.33169H107.02C107.408 7.33169 107.758 7.35943 108.072 7.41451C108.385 7.46979 108.652 7.56192 108.874 7.69069C109.104 7.81968 109.279 7.99462 109.399 8.21553C109.519 8.42733 109.579 8.68974 109.579 9.00278C109.579 9.35267 109.496 9.64263 109.33 9.87285C109.173 10.1029 108.961 10.2825 108.694 10.4115C108.427 10.5402 108.113 10.6324 107.754 10.6876C107.403 10.7336 107.03 10.7567 106.633 10.7567H106.067C105.91 10.7474 105.772 10.7383 105.652 10.729C105.513 10.7198 105.394 10.7105 105.292 10.7014ZM106.703 6.25448H105.292V3.29924C105.449 3.28082 105.624 3.26705 105.818 3.25773C106.011 3.24862 106.279 3.24396 106.62 3.24396C106.961 3.24396 107.283 3.2715 107.587 3.32678C107.892 3.38206 108.155 3.46953 108.376 3.5892C108.607 3.69975 108.786 3.85162 108.915 4.04499C109.044 4.22904 109.109 4.45927 109.109 4.73545C109.109 5.03007 109.044 5.27406 108.915 5.46743C108.795 5.6606 108.625 5.81712 108.403 5.93699C108.192 6.05666 107.938 6.13947 107.643 6.18543C107.348 6.2316 107.035 6.25448 106.703 6.25448Z" fill="#549DA1"/>
<path fill-rule="evenodd" clip-rule="evenodd" d="M23.899 0.0501483C24.3055 1.35392 24.712 2.65769 25.1184 3.91132L32.892 26.928L37.7695 41.3698C37.7949 41.4701 37.8203 41.5578 37.8457 41.6456C37.8711 41.7333 37.8966 41.8211 37.922 41.9214C36.9566 42.0718 36.9566 42.0718 36.7026 41.3196C32.0791 27.6801 27.4556 14.0407 22.8321 0.351023C22.8067 0.300877 22.794 0.238194 22.7813 0.175511C22.7686 0.112828 22.7559 0.0501452 22.7305 0C23.1877 0.0501452 23.5434 0.0501483 23.899 0.0501483ZM15.7156 14H19.6016V13.4885H16.624L18.2126 12.0556C18.9566 11.3848 19.3287 10.8067 19.3287 10.3211C19.3287 9.92141 19.1684 9.60185 18.848 9.36247C18.5276 9.12082 18.0917 9 17.5405 9C16.9512 9 16.48 9.14002 16.127 9.42005C15.7767 9.70009 15.6016 10.0671 15.6016 10.521H16.3551C16.3551 10.2048 16.4583 9.95867 16.6647 9.78252C16.8738 9.60411 17.1657 9.5149 17.5405 9.5149C17.8528 9.5149 18.1026 9.59733 18.29 9.7622C18.4773 9.92705 18.571 10.1382 18.571 10.3957C18.571 10.5876 18.5126 10.7739 18.3959 10.9546C18.2818 11.133 18.0727 11.3656 17.7686 11.6524L15.7156 13.5495V14ZM0.101562 11.1702L1.28256 13.2287H4.9546C7.34096 13.2287 9.19525 13.9628 10.5175 15.4309C11.8504 16.899 12.5168 18.9893 12.5168 21.7022V23.0585C12.5168 25.6968 11.888 27.7447 10.6303 29.2021C9.38336 30.6702 7.6097 31.4149 5.30932 31.4362H3.36547L4.10156 33.4999L5.30383 33.5106C7.34623 33.5106 8.94807 33.0638 10.5175 32.1702C12.0869 31.2766 12.944 30.2447 13.7932 28.5957C14.6532 26.9468 15.1229 24.9255 15.1336 22.7872V21.7022C15.1336 19.5107 14.6532 17.7341 13.7932 16.0851C12.944 14.4362 12.1084 13.3936 10.5175 12.5106C8.93726 11.6277 7.41619 11.1915 5.30932 11.1702H0.101562ZM24.008 28.6337C22.6072 28.254 21.5864 27.7888 20.9456 27.238C20.3104 26.6818 19.9929 25.9973 19.9929 25.1845C19.9929 24.2647 20.3813 23.5053 21.1583 22.9064C21.9409 22.3021 22.956 22 24.2036 22C25.0543 22 25.8114 22.1551 26.4749 22.4652C27.1441 22.7754 27.6602 23.2032 28.0231 23.7487C28.3917 24.2941 28.5761 24.8904 28.5761 25.5374H26.9343C26.9343 24.8316 26.6961 24.2781 26.2197 23.877C25.7433 23.4706 25.0713 23.2674 24.2036 23.2674C23.3983 23.2674 22.7689 23.4358 22.3152 23.7727C21.8672 24.1043 21.6432 24.5668 21.6432 25.1604C21.6432 25.6364 21.8558 26.0401 22.2811 26.3717C22.7122 26.6979 23.4409 26.9973 24.4674 27.2701C25.4995 27.5428 26.3048 27.8449 26.8832 28.1765C27.4674 28.5027 27.8984 28.885 28.1763 29.3235C28.4598 29.762 28.6016 30.2781 28.6016 30.8717C28.6016 31.8182 28.2103 32.5775 27.4277 33.1497C26.6451 33.7166 25.5987 34 24.2887 34C23.4381 34 22.6441 33.8476 21.9069 33.5428C21.1696 33.2326 20.5997 32.8101 20.197 32.2754C19.8001 31.7406 19.6016 31.1337 19.6016 30.4545H21.2433C21.2433 31.1604 21.5184 31.7193 22.0685 32.131C22.6242 32.5374 23.3643 32.7406 24.2887 32.7406C25.1507 32.7406 25.8114 32.5749 26.2707 32.2433C26.7301 31.9118 26.9598 31.4599 26.9598 30.8877C26.9598 30.3155 26.7471 29.8743 26.3218 29.5642C25.8965 29.2487 25.1252 28.9385 24.008 28.6337ZM49.8359 22.9375V40H54.7461C56.2852 40 57.6484 39.668 58.8359 39.0039C60.0312 38.3398 60.9492 37.3945 61.5898 36.168C62.2383 34.9414 62.5625 33.5195 62.5625 31.9023V31.0469C62.5625 29.4531 62.2422 28.0391 61.6016 26.8047C60.9609 25.5703 60.0547 24.6172 58.8828 23.9453C57.7188 23.2734 56.3828 22.9375 54.875 22.9375H49.8359ZM52.8008 37.6328V25.3281H54.875C56.4062 25.3281 57.5742 25.8164 58.3789 26.793C59.1836 27.7695 59.5859 29.1836 59.5859 31.0352V31.9844C59.5703 33.8047 59.1445 35.2031 58.3086 36.1797C57.4805 37.1484 56.2891 37.6328 54.7344 37.6328H52.8008ZM72.2005 32.3828H79.2083V30.0391H72.2005V25.3281H80.3098V22.9375H69.2356V40H80.3919V37.6328H72.2005V32.3828ZM94.647 33.8711C95.1783 34.2773 95.4439 34.8555 95.4439 35.6055C95.4439 36.293 95.1822 36.8477 94.6588 37.2695C94.1431 37.6836 93.3697 37.8906 92.3384 37.8906C91.1431 37.8906 90.2252 37.625 89.5845 37.0938C88.9439 36.5625 88.6236 35.8125 88.6236 34.8438H85.6588C85.6588 35.9141 85.9439 36.8516 86.5142 37.6562C87.0923 38.4609 87.897 39.0938 88.9283 39.5547C89.9673 40.0078 91.1041 40.2344 92.3384 40.2344C94.2056 40.2344 95.6822 39.8164 96.7681 38.9805C97.8619 38.1367 98.4088 37.0039 98.4088 35.582C98.4088 34.707 98.2213 33.9453 97.8463 33.2969C97.4713 32.6406 96.8814 32.0625 96.0767 31.5625C95.272 31.0547 94.2056 30.6055 92.8775 30.2148C91.5494 29.8164 90.5963 29.4102 90.0181 28.9961C89.44 28.5742 89.1509 28.0508 89.1509 27.4258C89.1509 26.6836 89.4166 26.1055 89.9478 25.6914C90.4869 25.2773 91.2408 25.0703 92.2095 25.0703C93.2486 25.0703 94.0455 25.3242 94.6002 25.832C95.1627 26.332 95.4439 27.0273 95.4439 27.918H98.397C98.397 26.9336 98.1314 26.0391 97.6002 25.2344C97.0689 24.4219 96.3384 23.7969 95.4088 23.3594C94.4791 22.9219 93.4205 22.7031 92.233 22.7031C90.4439 22.7031 88.9869 23.1484 87.8619 24.0391C86.7447 24.9297 86.1861 26.0625 86.1861 27.4375C86.1861 29.0078 86.9634 30.2812 88.5181 31.2578C89.3306 31.7656 90.4244 32.2266 91.7994 32.6406C93.1744 33.0547 94.1236 33.4648 94.647 33.8711ZM104.906 40H107.859V22.9375H104.906V40ZM125.735 39.6133C126.829 39.1992 127.685 38.5898 128.302 37.7852V31.2461H121.833V33.4961H125.349V36.8359C124.708 37.5234 123.63 37.8672 122.114 37.8672C120.732 37.8672 119.65 37.3594 118.868 36.3438C118.095 35.3203 117.708 33.8867 117.708 32.043V30.7305C117.732 28.8789 118.087 27.4766 118.775 26.5234C119.47 25.5625 120.482 25.082 121.81 25.082C123.864 25.082 125.056 26.1094 125.384 28.1641H128.29C128.064 26.3984 127.392 25.0469 126.275 24.1094C125.157 23.1719 123.65 22.7031 121.751 22.7031C119.54 22.7031 117.817 23.4297 116.583 24.8828C115.349 26.3281 114.732 28.3398 114.732 30.918V32.2539C114.755 33.8633 115.064 35.2734 115.657 36.4844C116.259 37.6875 117.11 38.6133 118.212 39.2617C119.314 39.9102 120.579 40.2344 122.009 40.2344C123.4 40.2344 124.642 40.0273 125.735 39.6133ZM145.85 40H148.815V22.9375H145.873V35.0898L138.245 22.9375H135.28V40H138.245V27.8945L145.85 40ZM165.278 40H176.751V37.7266H168.829L173.001 33.2617C174.095 32.0742 174.88 31.0156 175.356 30.0859C175.841 29.1484 176.083 28.2539 176.083 27.4023C176.083 25.9336 175.603 24.7852 174.642 23.957C173.688 23.1211 172.384 22.7031 170.728 22.7031C169.579 22.7031 168.563 22.9336 167.681 23.3945C166.806 23.8555 166.13 24.5039 165.653 25.3398C165.185 26.168 164.95 27.1016 164.95 28.1406H167.798C167.798 27.1641 168.052 26.3945 168.56 25.832C169.067 25.2695 169.782 24.9883 170.704 24.9883C171.478 24.9883 172.091 25.2383 172.544 25.7383C173.005 26.2383 173.235 26.8945 173.235 27.707C173.235 28.3242 173.06 28.9414 172.708 29.5586C172.364 30.168 171.782 30.9297 170.962 31.8438L165.278 38.043V40ZM200.914 33.8711C201.445 34.2773 201.71 34.8555 201.71 35.6055C201.71 36.293 201.449 36.8477 200.925 37.2695C200.41 37.6836 199.636 37.8906 198.605 37.8906C197.41 37.8906 196.492 37.625 195.851 37.0938C195.21 36.5625 194.89 35.8125 194.89 34.8438H191.925C191.925 35.9141 192.21 36.8516 192.781 37.6562C193.359 38.4609 194.164 39.0938 195.195 39.5547C196.234 40.0078 197.371 40.2344 198.605 40.2344C200.472 40.2344 201.949 39.8164 203.035 38.9805C204.128 38.1367 204.675 37.0039 204.675 35.582C204.675 34.707 204.488 33.9453 204.113 33.2969C203.738 32.6406 203.148 32.0625 202.343 31.5625C201.539 31.0547 200.472 30.6055 199.144 30.2148C197.816 29.8164 196.863 29.4102 196.285 28.9961C195.707 28.5742 195.417 28.0508 195.417 27.4258C195.417 26.6836 195.683 26.1055 196.214 25.6914C196.753 25.2773 197.507 25.0703 198.476 25.0703C199.515 25.0703 200.312 25.3242 200.867 25.832C201.429 26.332 201.71 27.0273 201.71 27.918H204.664C204.664 26.9336 204.398 26.0391 203.867 25.2344C203.335 24.4219 202.605 23.7969 201.675 23.3594C200.746 22.9219 199.687 22.7031 198.5 22.7031C196.71 22.7031 195.253 23.1484 194.128 24.0391C193.011 24.9297 192.453 26.0625 192.453 27.4375C192.453 29.0078 193.23 30.2812 194.785 31.2578C195.597 31.7656 196.691 32.2266 198.066 32.6406C199.441 33.0547 200.39 33.4648 200.914 33.8711ZM218.005 25.3281H223.325V22.9375H209.79V25.3281H215.063V40H218.005V25.3281ZM229.447 40L230.83 36.0273H237.44L238.834 40H241.928L235.471 22.9375H232.811L226.365 40H229.447ZM234.135 26.5586L236.607 33.6367H231.662L234.135 26.5586ZM253.195 25.3281H258.515V22.9375H244.98V25.3281H250.253V40H253.195V25.3281ZM264.661 40H267.614V22.9375H264.661V40ZM285.982 38.7109C287.154 37.6875 287.826 36.2656 287.998 34.4453H285.045C284.889 35.6641 284.518 36.5352 283.932 37.0586C283.346 37.582 282.471 37.8438 281.307 37.8438C280.033 37.8438 279.064 37.3594 278.4 36.3906C277.744 35.4219 277.416 34.0156 277.416 32.1719V30.6602C277.432 28.8398 277.783 27.4609 278.471 26.5234C279.166 25.5781 280.158 25.1055 281.447 25.1055C282.557 25.1055 283.396 25.3789 283.967 25.9258C284.545 26.4648 284.904 27.3477 285.045 28.5742H287.998C287.81 26.707 287.143 25.2617 285.994 24.2383C284.846 23.2148 283.33 22.7031 281.447 22.7031C280.049 22.7031 278.814 23.0352 277.744 23.6992C276.682 24.3633 275.865 25.3086 275.295 26.5352C274.725 27.7617 274.439 29.1797 274.439 30.7891V32.3828C274.463 33.9531 274.756 35.332 275.318 36.5195C275.881 37.707 276.678 38.625 277.709 39.2734C278.748 39.9141 279.947 40.2344 281.307 40.2344C283.252 40.2344 284.81 39.7266 285.982 38.7109ZM56.8963 11.5704C56.546 10.5577 56.2095 9.61863 55.8869 8.75322C55.5734 7.89692 55.2646 7.08212 54.9604 6.30884C54.6562 5.53535 54.3519 4.79427 54.0477 4.08537C53.7527 3.38559 53.4485 2.69047 53.1351 2H51.8767C51.5632 2.69047 51.2544 3.38559 50.9502 4.08537C50.6552 4.79427 50.351 5.53535 50.0375 6.30884C49.7333 7.08212 49.4199 7.89692 49.0972 8.75322C48.7745 9.61863 48.4427 10.5577 48.1016 11.5704H49.5812C50.079 10.1157 50.5676 8.71637 51.047 7.37208C51.5264 6.028 52.0196 4.76673 52.5266 3.58828C53.0337 4.75742 53.5268 6.01423 54.0062 7.35831C54.4856 8.71171 54.9696 10.1157 55.4582 11.5704H56.8963ZM130.058 8.75322C130.38 9.61863 130.717 10.5577 131.067 11.5704H129.629C129.141 10.1157 128.657 8.71171 128.177 7.35831C127.698 6.01423 127.205 4.75742 126.698 3.58828C126.19 4.76673 125.697 6.028 125.218 7.37208C124.738 8.71637 124.25 10.1157 123.752 11.5704H122.273C122.614 10.5577 122.946 9.61863 123.268 8.75322C123.591 7.89692 123.904 7.08212 124.208 6.30884C124.522 5.53535 124.826 4.79427 125.121 4.08537C125.425 3.38559 125.734 2.69047 126.048 2H127.306C127.62 2.69047 127.924 3.38559 128.219 4.08537C128.523 4.79427 128.827 5.53535 129.131 6.30884C129.436 7.08212 129.744 7.89692 130.058 8.75322ZM146.5 12.0002C145.873 12.0002 145.33 11.9036 144.868 11.7102C144.408 11.5168 144.03 11.2544 143.734 10.923C143.439 10.5824 143.219 10.1819 143.071 9.72142C142.932 9.26117 142.863 8.76408 142.863 8.22993V2.22266H144.205V8.07806C144.205 9.03561 144.417 9.73073 144.841 10.1634C145.265 10.5961 145.818 10.8126 146.5 10.8126C146.841 10.8126 147.15 10.7618 147.427 10.6605C147.712 10.5502 147.957 10.3843 148.16 10.1634C148.362 9.94253 148.519 9.66168 148.63 9.3209C148.74 8.97122 148.796 8.55694 148.796 8.07806V2.22266H150.137V8.22993C150.137 8.76408 150.063 9.26117 149.916 9.72142C149.777 10.1819 149.556 10.5824 149.252 10.923C148.957 11.2544 148.579 11.5168 148.118 11.7102C147.666 11.9036 147.127 12.0002 146.5 12.0002ZM74.5321 11.7929V10.6329H70.107V2.22258H68.7657V11.7929H74.5321ZM92.1302 10.6329V11.7929H86.3638V2.22258H87.7053V10.6329H92.1302ZM105.914 11.8614C106.145 11.8706 106.357 11.8752 106.551 11.8752C108.081 11.8752 109.196 11.6359 109.897 11.1572C110.607 10.6692 110.962 9.94636 110.962 8.98881C110.962 8.3352 110.796 7.82879 110.464 7.46979C110.132 7.11078 109.685 6.84837 109.123 6.68273C109.538 6.5169 109.869 6.26846 110.118 5.93699C110.367 5.59621 110.492 5.1635 110.492 4.63867C110.492 4.16911 110.39 3.77325 110.187 3.4511C109.984 3.12895 109.703 2.87099 109.344 2.67762C108.994 2.47514 108.574 2.33239 108.085 2.24957C107.606 2.16676 107.09 2.12524 106.537 2.12524C106.343 2.12524 106.135 2.1299 105.914 2.13922C105.693 2.14833 105.468 2.1621 105.237 2.18052C105.015 2.19895 104.794 2.22203 104.573 2.24957C104.352 2.27731 104.149 2.31416 103.965 2.36013V11.6405C104.149 11.6865 104.352 11.7233 104.573 11.7509C104.794 11.7786 105.015 11.8015 105.237 11.8199C105.468 11.8384 105.693 11.8521 105.914 11.8614ZM105.292 10.7014V7.33169H107.02C107.408 7.33169 107.758 7.35943 108.072 7.41451C108.385 7.46979 108.652 7.56192 108.874 7.69069C109.104 7.81968 109.279 7.99462 109.399 8.21553C109.519 8.42733 109.579 8.68974 109.579 9.00278C109.579 9.35267 109.496 9.64263 109.33 9.87285C109.173 10.1029 108.961 10.2825 108.694 10.4115C108.427 10.5402 108.113 10.6324 107.754 10.6876C107.403 10.7336 107.03 10.7567 106.633 10.7567H106.067C105.91 10.7474 105.772 10.7383 105.652 10.729C105.513 10.7198 105.394 10.7105 105.292 10.7014ZM106.703 6.25448H105.292V3.29924C105.449 3.28082 105.624 3.26705 105.818 3.25773C106.011 3.24862 106.279 3.24396 106.62 3.24396C106.961 3.24396 107.283 3.2715 107.587 3.32678C107.892 3.38206 108.155 3.46953 108.376 3.5892C108.607 3.69975 108.786 3.85162 108.915 4.04499C109.044 4.22904 109.109 4.45927 109.109 4.73545C109.109 5.03007 109.044 5.27406 108.915 5.46743C108.795 5.6606 108.625 5.81712 108.403 5.93699C108.192 6.05666 107.938 6.13947 107.643 6.18543C107.348 6.2316 107.035 6.25448 106.703 6.25448Z" fill="#005B8B"/>
</svg>
