<svg width="250" height="40" viewBox="0 0 250 40" fill="none" xmlns="http://www.w3.org/2000/svg">
<path fill-rule="evenodd" clip-rule="evenodd" d="M53.7328 9.57036C53.3825 8.55774 53.046 7.61863 52.7233 6.75322C52.4099 5.89692 52.1011 5.08212 51.7968 4.30884C51.4926 3.53535 51.1884 2.79427 50.8842 2.08537C50.5892 1.38559 50.285 0.690467 49.9715 0H48.7131C48.3997 0.690467 48.0909 1.38559 47.7866 2.08537C47.4917 2.79427 47.1874 3.53535 46.874 4.30884C46.5698 5.08212 46.2563 5.89692 45.9337 6.75322C45.611 7.61863 45.2791 8.55774 44.938 9.57036H46.4177C46.9155 8.11572 47.4041 6.71637 47.8834 5.37208C48.3628 4.028 48.856 2.76673 49.3631 1.58828C49.8701 2.75742 50.3633 4.01423 50.8427 5.35831C51.3221 6.71171 51.8061 8.11572 52.2947 9.57036H53.7328ZM49.6992 31.6602V38H46.7344V20.9375H53.2617C55.168 20.9375 56.6797 21.4336 57.7969 22.4258C58.9219 23.418 59.4844 24.7305 59.4844 26.3633C59.4844 28.0352 58.9336 29.3359 57.832 30.2656C56.7383 31.1953 55.2031 31.6602 53.2266 31.6602H49.6992ZM49.6992 29.2812H53.2617C54.3164 29.2812 55.1211 29.0352 55.6758 28.543C56.2305 28.043 56.5078 27.3242 56.5078 26.3867C56.5078 25.4648 56.2266 24.7305 55.6641 24.1836C55.1016 23.6289 54.3281 23.3438 53.3438 23.3281H49.6992V29.2812ZM71.3723 29.0234L75.2981 20.9375H78.5794L72.8606 31.7188V38H69.8841V31.7188L64.1536 20.9375H67.4466L71.3723 29.0234ZM96.69 23.3281H91.3697V38H88.4283V23.3281H83.1548V20.9375H96.69V23.3281ZM116.207 38H113.254V30.418H105.625V38H102.66V20.9375H105.625V28.0391H113.254V20.9375H116.207V38ZM137.06 29.9141C137.06 31.5859 136.771 33.0547 136.193 34.3203C135.614 35.5781 134.786 36.5469 133.708 37.2266C132.638 37.8984 131.403 38.2344 130.005 38.2344C128.622 38.2344 127.388 37.8984 126.302 37.2266C125.224 36.5469 124.388 35.582 123.794 34.332C123.208 33.082 122.911 31.6406 122.903 30.0078V29.0469C122.903 27.3828 123.196 25.9141 123.782 24.6406C124.376 23.3672 125.208 22.3945 126.278 21.7227C127.357 21.043 128.591 20.7031 129.982 20.7031C131.372 20.7031 132.603 21.0391 133.673 21.7109C134.751 22.375 135.583 23.3359 136.169 24.5938C136.755 25.8438 137.052 27.3008 137.06 28.9648V29.9141ZM134.095 29.0234C134.095 27.1328 133.735 25.6836 133.017 24.6758C132.306 23.668 131.294 23.1641 129.982 23.1641C128.7 23.1641 127.696 23.668 126.97 24.6758C126.251 25.6758 125.884 27.0938 125.868 28.9297V29.9141C125.868 31.7891 126.232 33.2383 126.958 34.2617C127.692 35.2852 128.708 35.7969 130.005 35.7969C131.318 35.7969 132.325 35.2969 133.028 34.2969C133.739 33.2969 134.095 31.8359 134.095 29.9141V29.0234ZM157.268 38H154.303L146.698 25.8945V38H143.733V20.9375H146.698L154.327 33.0898V20.9375H157.268V38ZM167.457 31.6602V38H164.492V20.9375H171.019C172.925 20.9375 174.437 21.4336 175.554 22.4258C176.679 23.418 177.242 24.7305 177.242 26.3633C177.242 28.0352 176.691 29.3359 175.59 30.2656C174.496 31.1953 172.961 31.6602 170.984 31.6602H167.457ZM167.457 29.2812H171.019C172.074 29.2812 172.879 29.0352 173.433 28.543C173.988 28.043 174.265 27.3242 174.265 26.3867C174.265 25.4648 173.984 24.7305 173.422 24.1836C172.859 23.6289 172.086 23.3438 171.101 23.3281H167.457V29.2812ZM184.419 34.0273L183.036 38H179.954L186.399 20.9375H189.06L195.517 38H192.423L191.028 34.0273H184.419ZM190.196 31.6367L187.724 24.5586L185.251 31.6367H190.196ZM207.451 31.4258H204.147V38H201.182V20.9375H207.182C209.151 20.9375 210.67 21.3789 211.74 22.2617C212.811 23.1445 213.346 24.4219 213.346 26.0938C213.346 27.2344 213.069 28.1914 212.514 28.9648C211.967 29.7305 211.201 30.3203 210.217 30.7344L214.049 37.8477V38H210.873L207.451 31.4258ZM204.147 29.0469H207.194C208.194 29.0469 208.975 28.7969 209.537 28.2969C210.1 27.7891 210.381 27.0977 210.381 26.2227C210.381 25.3086 210.119 24.6016 209.596 24.1016C209.08 23.6016 208.307 23.3438 207.276 23.3281H204.147V29.0469ZM231.621 23.3281H226.3V38H223.359V23.3281H218.085V20.9375H231.621V23.3281ZM246.321 33.6055C246.321 32.8555 246.055 32.2773 245.524 31.8711C245.001 31.4648 244.052 31.0547 242.677 30.6406C241.302 30.2266 240.208 29.7656 239.395 29.2578C237.841 28.2812 237.063 27.0078 237.063 25.4375C237.063 24.0625 237.622 22.9297 238.739 22.0391C239.864 21.1484 241.321 20.7031 243.11 20.7031C244.298 20.7031 245.356 20.9219 246.286 21.3594C247.216 21.7969 247.946 22.4219 248.477 23.2344C249.009 24.0391 249.274 24.9336 249.274 25.918H246.321C246.321 25.0273 246.04 24.332 245.477 23.832C244.923 23.3242 244.126 23.0703 243.087 23.0703C242.118 23.0703 241.364 23.2773 240.825 23.6914C240.294 24.1055 240.028 24.6836 240.028 25.4258C240.028 26.0508 240.317 26.5742 240.895 26.9961C241.473 27.4102 242.427 27.8164 243.755 28.2148C245.083 28.6055 246.149 29.0547 246.954 29.5625C247.759 30.0625 248.348 30.6406 248.723 31.2969C249.098 31.9453 249.286 32.707 249.286 33.582C249.286 35.0039 248.739 36.1367 247.645 36.9805C246.559 37.8164 245.083 38.2344 243.216 38.2344C241.981 38.2344 240.845 38.0078 239.805 37.5547C238.774 37.0938 237.97 36.4609 237.391 35.6562C236.821 34.8516 236.536 33.9141 236.536 32.8438H239.501C239.501 33.8125 239.821 34.5625 240.462 35.0938C241.102 35.625 242.02 35.8906 243.216 35.8906C244.247 35.8906 245.02 35.6836 245.536 35.2695C246.059 34.8477 246.321 34.293 246.321 33.6055ZM126.894 6.75322C127.217 7.61863 127.553 8.55774 127.904 9.57036H126.466C125.977 8.11572 125.493 6.71171 125.014 5.35831C124.534 4.01423 124.041 2.75742 123.534 1.58828C123.027 2.76673 122.534 4.028 122.055 5.37208C121.575 6.71637 121.087 8.11572 120.589 9.57036H119.109C119.45 8.55774 119.782 7.61863 120.105 6.75322C120.427 5.89692 120.741 5.08212 121.045 4.30884C121.358 3.53535 121.663 2.79427 121.958 2.08537C122.262 1.38559 122.571 0.690467 122.884 0H124.143C124.456 0.690467 124.76 1.38559 125.055 2.08537C125.359 2.79427 125.664 3.53535 125.968 4.30884C126.272 5.08212 126.581 5.89692 126.894 6.75322ZM143.337 10.0002C142.71 10.0002 142.166 9.90358 141.705 9.71021C141.244 9.51683 140.866 9.25442 140.571 8.92295C140.276 8.58237 140.055 8.18186 139.907 7.72142C139.769 7.26117 139.7 6.76408 139.7 6.22993V0.222656H141.041V6.07806C141.041 7.03561 141.253 7.73073 141.677 8.16344C142.101 8.59615 142.654 8.8126 143.337 8.8126C143.678 8.8126 143.987 8.76177 144.263 8.66053C144.549 8.55018 144.793 8.38435 144.996 8.16344C145.199 7.94253 145.355 7.66168 145.466 7.3209C145.577 6.97122 145.632 6.55694 145.632 6.07806V0.222656H146.973V6.22993C146.973 6.76408 146.9 7.26117 146.752 7.72142C146.614 8.18186 146.393 8.58237 146.088 8.92295C145.793 9.25442 145.415 9.51683 144.955 9.71021C144.503 9.90358 143.963 10.0002 143.337 10.0002ZM71.3685 9.79293V8.63291H66.9435V0.222575H65.6021V9.79293H71.3685ZM88.9666 8.63291V9.79293H83.2002V0.222575H84.5418V8.63291H88.9666ZM102.751 9.86144C102.981 9.87055 103.193 9.87521 103.387 9.87521C104.917 9.87521 106.033 9.63587 106.733 9.1572C107.443 8.66922 107.798 7.94636 107.798 6.98881C107.798 6.3352 107.632 5.82879 107.3 5.46979C106.969 5.11078 106.521 4.84837 105.959 4.68273C106.374 4.5169 106.706 4.26846 106.955 3.93699C107.204 3.59621 107.328 3.1635 107.328 2.63867C107.328 2.16911 107.227 1.77325 107.024 1.4511C106.821 1.12895 106.54 0.870992 106.18 0.67762C105.83 0.475137 105.41 0.332387 104.922 0.249572C104.442 0.166756 103.926 0.125244 103.373 0.125244C103.18 0.125244 102.972 0.129901 102.751 0.139216C102.53 0.148327 102.304 0.162098 102.073 0.180524C101.852 0.19895 101.631 0.222034 101.409 0.249572C101.188 0.277312 100.985 0.314162 100.801 0.360125V9.64053C100.985 9.6865 101.188 9.72335 101.409 9.75089C101.631 9.77863 101.852 9.80151 102.073 9.81993C102.304 9.83836 102.53 9.85213 102.751 9.86144ZM102.129 8.70142V5.33169H103.857C104.244 5.33169 104.595 5.35943 104.908 5.41451C105.222 5.46979 105.489 5.56192 105.71 5.69069C105.941 5.81968 106.116 5.99462 106.235 6.21553C106.355 6.42733 106.415 6.68975 106.415 7.00278C106.415 7.35267 106.332 7.64263 106.166 7.87285C106.01 8.10287 105.797 8.28248 105.53 8.41146C105.263 8.54024 104.95 8.63237 104.59 8.68765C104.24 8.73361 103.866 8.75669 103.47 8.75669H102.903C102.746 8.74738 102.608 8.73827 102.488 8.72895C102.35 8.71984 102.23 8.71053 102.129 8.70142ZM103.539 4.25448H102.129V1.29924C102.285 1.28082 102.46 1.26705 102.654 1.25773C102.848 1.24862 103.115 1.24396 103.456 1.24396C103.797 1.24396 104.12 1.2715 104.424 1.32678C104.728 1.38206 104.991 1.46953 105.212 1.5892C105.443 1.69975 105.622 1.85162 105.752 2.04499C105.881 2.22904 105.945 2.45927 105.945 2.73545C105.945 3.03007 105.881 3.27406 105.752 3.46743C105.632 3.6606 105.461 3.81712 105.24 3.93699C105.028 4.05666 104.774 4.13947 104.479 4.18543C104.185 4.2316 103.871 4.25448 103.539 4.25448ZM12.1891 29.9211H14.1571L6.08828 11.7051H12.9271C12.9271 11.7051 14.0593 11.7051 15.2887 13.0063C15.9283 13.6832 16.1332 14.117 16.3711 14.958C16.5789 15.6926 16.6419 16.1556 16.5187 16.9097C16.414 17.5505 16.2646 17.9087 15.9283 18.461C15.5846 19.0255 15.3147 19.3082 14.7967 19.7121C14.2648 20.127 13.9134 20.3165 13.2715 20.5128C12.8056 20.6553 12.0415 20.713 12.0415 20.713L12.9271 22.4646C12.9271 22.4646 13.472 22.4367 13.8127 22.3645C14.4523 22.2288 15.0526 21.941 15.7315 21.4637C16.5927 20.8581 17.0138 20.3754 17.5519 19.4619C18.0362 18.6398 18.2314 18.1049 18.3883 17.1599C18.5291 16.312 18.5393 15.8041 18.3883 14.958C18.1366 13.5474 17.6994 12.7316 16.7155 11.7051C14.7967 9.70337 12.7795 9.70337 12.7795 9.70337L3.12087 9.74404L12.1891 29.9211ZM1.13774 9.74404H0.375L9.47198 29.9211L10.194 29.9211L1.13774 9.74404ZM22.2954 3.72507C21.8941 2.53113 21.4927 1.28945 21.0914 0.0477603C20.7402 0.0477603 20.389 0.0477573 19.9375 0C19.9626 0.0477573 19.9752 0.107455 19.9877 0.167154C20.0003 0.226852 20.0128 0.28655 20.0379 0.334307C24.6031 13.3721 29.1683 26.362 33.7335 39.352C33.9844 40.0684 33.9844 40.0684 34.9375 39.9251C34.9125 39.8296 34.8874 39.746 34.8623 39.6625C34.8372 39.5789 34.8121 39.4953 34.787 39.3998L29.971 25.6457L22.2954 3.72507Z" fill="black"/>
<path fill-rule="evenodd" clip-rule="evenodd" d="M53.7328 9.57036C53.3825 8.55774 53.046 7.61863 52.7233 6.75322C52.4099 5.89692 52.1011 5.08212 51.7968 4.30884C51.4926 3.53535 51.1884 2.79427 50.8842 2.08537C50.5892 1.38559 50.285 0.690467 49.9715 0H48.7131C48.3997 0.690467 48.0909 1.38559 47.7866 2.08537C47.4917 2.79427 47.1874 3.53535 46.874 4.30884C46.5698 5.08212 46.2563 5.89692 45.9337 6.75322C45.611 7.61863 45.2791 8.55774 44.938 9.57036H46.4177C46.9155 8.11572 47.4041 6.71637 47.8834 5.37208C48.3628 4.028 48.856 2.76673 49.3631 1.58828C49.8701 2.75742 50.3633 4.01423 50.8427 5.35831C51.3221 6.71171 51.8061 8.11572 52.2947 9.57036H53.7328ZM49.6992 31.6602V38H46.7344V20.9375H53.2617C55.168 20.9375 56.6797 21.4336 57.7969 22.4258C58.9219 23.418 59.4844 24.7305 59.4844 26.3633C59.4844 28.0352 58.9336 29.3359 57.832 30.2656C56.7383 31.1953 55.2031 31.6602 53.2266 31.6602H49.6992ZM49.6992 29.2812H53.2617C54.3164 29.2812 55.1211 29.0352 55.6758 28.543C56.2305 28.043 56.5078 27.3242 56.5078 26.3867C56.5078 25.4648 56.2266 24.7305 55.6641 24.1836C55.1016 23.6289 54.3281 23.3438 53.3438 23.3281H49.6992V29.2812ZM71.3723 29.0234L75.2981 20.9375H78.5794L72.8606 31.7188V38H69.8841V31.7188L64.1536 20.9375H67.4466L71.3723 29.0234ZM96.69 23.3281H91.3697V38H88.4283V23.3281H83.1548V20.9375H96.69V23.3281ZM116.207 38H113.254V30.418H105.625V38H102.66V20.9375H105.625V28.0391H113.254V20.9375H116.207V38ZM137.06 29.9141C137.06 31.5859 136.771 33.0547 136.193 34.3203C135.614 35.5781 134.786 36.5469 133.708 37.2266C132.638 37.8984 131.403 38.2344 130.005 38.2344C128.622 38.2344 127.388 37.8984 126.302 37.2266C125.224 36.5469 124.388 35.582 123.794 34.332C123.208 33.082 122.911 31.6406 122.903 30.0078V29.0469C122.903 27.3828 123.196 25.9141 123.782 24.6406C124.376 23.3672 125.208 22.3945 126.278 21.7227C127.357 21.043 128.591 20.7031 129.982 20.7031C131.372 20.7031 132.603 21.0391 133.673 21.7109C134.751 22.375 135.583 23.3359 136.169 24.5938C136.755 25.8438 137.052 27.3008 137.06 28.9648V29.9141ZM134.095 29.0234C134.095 27.1328 133.735 25.6836 133.017 24.6758C132.306 23.668 131.294 23.1641 129.982 23.1641C128.7 23.1641 127.696 23.668 126.97 24.6758C126.251 25.6758 125.884 27.0938 125.868 28.9297V29.9141C125.868 31.7891 126.232 33.2383 126.958 34.2617C127.692 35.2852 128.708 35.7969 130.005 35.7969C131.318 35.7969 132.325 35.2969 133.028 34.2969C133.739 33.2969 134.095 31.8359 134.095 29.9141V29.0234ZM157.268 38H154.303L146.698 25.8945V38H143.733V20.9375H146.698L154.327 33.0898V20.9375H157.268V38ZM167.457 31.6602V38H164.492V20.9375H171.019C172.925 20.9375 174.437 21.4336 175.554 22.4258C176.679 23.418 177.242 24.7305 177.242 26.3633C177.242 28.0352 176.691 29.3359 175.59 30.2656C174.496 31.1953 172.961 31.6602 170.984 31.6602H167.457ZM167.457 29.2812H171.019C172.074 29.2812 172.879 29.0352 173.433 28.543C173.988 28.043 174.265 27.3242 174.265 26.3867C174.265 25.4648 173.984 24.7305 173.422 24.1836C172.859 23.6289 172.086 23.3438 171.101 23.3281H167.457V29.2812ZM184.419 34.0273L183.036 38H179.954L186.399 20.9375H189.06L195.517 38H192.423L191.028 34.0273H184.419ZM190.196 31.6367L187.724 24.5586L185.251 31.6367H190.196ZM207.451 31.4258H204.147V38H201.182V20.9375H207.182C209.151 20.9375 210.67 21.3789 211.74 22.2617C212.811 23.1445 213.346 24.4219 213.346 26.0938C213.346 27.2344 213.069 28.1914 212.514 28.9648C211.967 29.7305 211.201 30.3203 210.217 30.7344L214.049 37.8477V38H210.873L207.451 31.4258ZM204.147 29.0469H207.194C208.194 29.0469 208.975 28.7969 209.537 28.2969C210.1 27.7891 210.381 27.0977 210.381 26.2227C210.381 25.3086 210.119 24.6016 209.596 24.1016C209.08 23.6016 208.307 23.3438 207.276 23.3281H204.147V29.0469ZM231.621 23.3281H226.3V38H223.359V23.3281H218.085V20.9375H231.621V23.3281ZM246.321 33.6055C246.321 32.8555 246.055 32.2773 245.524 31.8711C245.001 31.4648 244.052 31.0547 242.677 30.6406C241.302 30.2266 240.208 29.7656 239.395 29.2578C237.841 28.2812 237.063 27.0078 237.063 25.4375C237.063 24.0625 237.622 22.9297 238.739 22.0391C239.864 21.1484 241.321 20.7031 243.11 20.7031C244.298 20.7031 245.356 20.9219 246.286 21.3594C247.216 21.7969 247.946 22.4219 248.477 23.2344C249.009 24.0391 249.274 24.9336 249.274 25.918H246.321C246.321 25.0273 246.04 24.332 245.477 23.832C244.923 23.3242 244.126 23.0703 243.087 23.0703C242.118 23.0703 241.364 23.2773 240.825 23.6914C240.294 24.1055 240.028 24.6836 240.028 25.4258C240.028 26.0508 240.317 26.5742 240.895 26.9961C241.473 27.4102 242.427 27.8164 243.755 28.2148C245.083 28.6055 246.149 29.0547 246.954 29.5625C247.759 30.0625 248.348 30.6406 248.723 31.2969C249.098 31.9453 249.286 32.707 249.286 33.582C249.286 35.0039 248.739 36.1367 247.645 36.9805C246.559 37.8164 245.083 38.2344 243.216 38.2344C241.981 38.2344 240.845 38.0078 239.805 37.5547C238.774 37.0938 237.97 36.4609 237.391 35.6562C236.821 34.8516 236.536 33.9141 236.536 32.8438H239.501C239.501 33.8125 239.821 34.5625 240.462 35.0938C241.102 35.625 242.02 35.8906 243.216 35.8906C244.247 35.8906 245.02 35.6836 245.536 35.2695C246.059 34.8477 246.321 34.293 246.321 33.6055ZM126.894 6.75322C127.217 7.61863 127.553 8.55774 127.904 9.57036H126.466C125.977 8.11572 125.493 6.71171 125.014 5.35831C124.534 4.01423 124.041 2.75742 123.534 1.58828C123.027 2.76673 122.534 4.028 122.055 5.37208C121.575 6.71637 121.087 8.11572 120.589 9.57036H119.109C119.45 8.55774 119.782 7.61863 120.105 6.75322C120.427 5.89692 120.741 5.08212 121.045 4.30884C121.358 3.53535 121.663 2.79427 121.958 2.08537C122.262 1.38559 122.571 0.690467 122.884 0H124.143C124.456 0.690467 124.76 1.38559 125.055 2.08537C125.359 2.79427 125.664 3.53535 125.968 4.30884C126.272 5.08212 126.581 5.89692 126.894 6.75322ZM143.337 10.0002C142.71 10.0002 142.166 9.90358 141.705 9.71021C141.244 9.51683 140.866 9.25442 140.571 8.92295C140.276 8.58237 140.055 8.18186 139.907 7.72142C139.769 7.26117 139.7 6.76408 139.7 6.22993V0.222656H141.041V6.07806C141.041 7.03561 141.253 7.73073 141.677 8.16344C142.101 8.59615 142.654 8.8126 143.337 8.8126C143.678 8.8126 143.987 8.76177 144.263 8.66053C144.549 8.55018 144.793 8.38435 144.996 8.16344C145.199 7.94253 145.355 7.66168 145.466 7.3209C145.577 6.97122 145.632 6.55694 145.632 6.07806V0.222656H146.973V6.22993C146.973 6.76408 146.9 7.26117 146.752 7.72142C146.614 8.18186 146.393 8.58237 146.088 8.92295C145.793 9.25442 145.415 9.51683 144.955 9.71021C144.503 9.90358 143.963 10.0002 143.337 10.0002ZM71.3685 9.79293V8.63291H66.9435V0.222575H65.6021V9.79293H71.3685ZM88.9666 8.63291V9.79293H83.2002V0.222575H84.5418V8.63291H88.9666ZM102.751 9.86144C102.981 9.87055 103.193 9.87521 103.387 9.87521C104.917 9.87521 106.033 9.63587 106.733 9.1572C107.443 8.66922 107.798 7.94636 107.798 6.98881C107.798 6.3352 107.632 5.82879 107.3 5.46979C106.969 5.11078 106.521 4.84837 105.959 4.68273C106.374 4.5169 106.706 4.26846 106.955 3.93699C107.204 3.59621 107.328 3.1635 107.328 2.63867C107.328 2.16911 107.227 1.77325 107.024 1.4511C106.821 1.12895 106.54 0.870992 106.18 0.67762C105.83 0.475137 105.41 0.332387 104.922 0.249572C104.442 0.166756 103.926 0.125244 103.373 0.125244C103.18 0.125244 102.972 0.129901 102.751 0.139216C102.53 0.148327 102.304 0.162098 102.073 0.180524C101.852 0.19895 101.631 0.222034 101.409 0.249572C101.188 0.277312 100.985 0.314162 100.801 0.360125V9.64053C100.985 9.6865 101.188 9.72335 101.409 9.75089C101.631 9.77863 101.852 9.80151 102.073 9.81993C102.304 9.83836 102.53 9.85213 102.751 9.86144ZM102.129 8.70142V5.33169H103.857C104.244 5.33169 104.595 5.35943 104.908 5.41451C105.222 5.46979 105.489 5.56192 105.71 5.69069C105.941 5.81968 106.116 5.99462 106.235 6.21553C106.355 6.42733 106.415 6.68975 106.415 7.00278C106.415 7.35267 106.332 7.64263 106.166 7.87285C106.01 8.10287 105.797 8.28248 105.53 8.41146C105.263 8.54024 104.95 8.63237 104.59 8.68765C104.24 8.73361 103.866 8.75669 103.47 8.75669H102.903C102.746 8.74738 102.608 8.73827 102.488 8.72895C102.35 8.71984 102.23 8.71053 102.129 8.70142ZM103.539 4.25448H102.129V1.29924C102.285 1.28082 102.46 1.26705 102.654 1.25773C102.848 1.24862 103.115 1.24396 103.456 1.24396C103.797 1.24396 104.12 1.2715 104.424 1.32678C104.728 1.38206 104.991 1.46953 105.212 1.5892C105.443 1.69975 105.622 1.85162 105.752 2.04499C105.881 2.22904 105.945 2.45927 105.945 2.73545C105.945 3.03007 105.881 3.27406 105.752 3.46743C105.632 3.6606 105.461 3.81712 105.24 3.93699C105.028 4.05666 104.774 4.13947 104.479 4.18543C104.185 4.2316 103.871 4.25448 103.539 4.25448ZM12.1891 29.9211H14.1571L6.08828 11.7051H12.9271C12.9271 11.7051 14.0593 11.7051 15.2887 13.0063C15.9283 13.6832 16.1332 14.117 16.3711 14.958C16.5789 15.6926 16.6419 16.1556 16.5187 16.9097C16.414 17.5505 16.2646 17.9087 15.9283 18.461C15.5846 19.0255 15.3147 19.3082 14.7967 19.7121C14.2648 20.127 13.9134 20.3165 13.2715 20.5128C12.8056 20.6553 12.0415 20.713 12.0415 20.713L12.9271 22.4646C12.9271 22.4646 13.472 22.4367 13.8127 22.3645C14.4523 22.2288 15.0526 21.941 15.7315 21.4637C16.5927 20.8581 17.0138 20.3754 17.5519 19.4619C18.0362 18.6398 18.2314 18.1049 18.3883 17.1599C18.5291 16.312 18.5393 15.8041 18.3883 14.958C18.1366 13.5474 17.6994 12.7316 16.7155 11.7051C14.7967 9.70337 12.7795 9.70337 12.7795 9.70337L3.12087 9.74404L12.1891 29.9211ZM1.13774 9.74404H0.375L9.47198 29.9211L10.194 29.9211L1.13774 9.74404ZM22.2954 3.72507C21.8941 2.53113 21.4927 1.28945 21.0914 0.0477603C20.7402 0.0477603 20.389 0.0477573 19.9375 0C19.9626 0.0477573 19.9752 0.107455 19.9877 0.167154C20.0003 0.226852 20.0128 0.28655 20.0379 0.334307C24.6031 13.3721 29.1683 26.362 33.7335 39.352C33.9844 40.0684 33.9844 40.0684 34.9375 39.9251C34.9125 39.8296 34.8874 39.746 34.8623 39.6625C34.8372 39.5789 34.8121 39.4953 34.787 39.3998L29.971 25.6457L22.2954 3.72507Z" fill="url(#paint0_linear_391_1112)"/>
<path fill-rule="evenodd" clip-rule="evenodd" d="M53.7328 9.57036C53.3825 8.55774 53.046 7.61863 52.7233 6.75322C52.4099 5.89692 52.1011 5.08212 51.7968 4.30884C51.4926 3.53535 51.1884 2.79427 50.8842 2.08537C50.5892 1.38559 50.285 0.690467 49.9715 0H48.7131C48.3997 0.690467 48.0909 1.38559 47.7866 2.08537C47.4917 2.79427 47.1874 3.53535 46.874 4.30884C46.5698 5.08212 46.2563 5.89692 45.9337 6.75322C45.611 7.61863 45.2791 8.55774 44.938 9.57036H46.4177C46.9155 8.11572 47.4041 6.71637 47.8834 5.37208C48.3628 4.028 48.856 2.76673 49.3631 1.58828C49.8701 2.75742 50.3633 4.01423 50.8427 5.35831C51.3221 6.71171 51.8061 8.11572 52.2947 9.57036H53.7328ZM49.6992 31.6602V38H46.7344V20.9375H53.2617C55.168 20.9375 56.6797 21.4336 57.7969 22.4258C58.9219 23.418 59.4844 24.7305 59.4844 26.3633C59.4844 28.0352 58.9336 29.3359 57.832 30.2656C56.7383 31.1953 55.2031 31.6602 53.2266 31.6602H49.6992ZM49.6992 29.2812H53.2617C54.3164 29.2812 55.1211 29.0352 55.6758 28.543C56.2305 28.043 56.5078 27.3242 56.5078 26.3867C56.5078 25.4648 56.2266 24.7305 55.6641 24.1836C55.1016 23.6289 54.3281 23.3438 53.3438 23.3281H49.6992V29.2812ZM71.3723 29.0234L75.2981 20.9375H78.5794L72.8606 31.7188V38H69.8841V31.7188L64.1536 20.9375H67.4466L71.3723 29.0234ZM96.69 23.3281H91.3697V38H88.4283V23.3281H83.1548V20.9375H96.69V23.3281ZM116.207 38H113.254V30.418H105.625V38H102.66V20.9375H105.625V28.0391H113.254V20.9375H116.207V38ZM137.06 29.9141C137.06 31.5859 136.771 33.0547 136.193 34.3203C135.614 35.5781 134.786 36.5469 133.708 37.2266C132.638 37.8984 131.403 38.2344 130.005 38.2344C128.622 38.2344 127.388 37.8984 126.302 37.2266C125.224 36.5469 124.388 35.582 123.794 34.332C123.208 33.082 122.911 31.6406 122.903 30.0078V29.0469C122.903 27.3828 123.196 25.9141 123.782 24.6406C124.376 23.3672 125.208 22.3945 126.278 21.7227C127.357 21.043 128.591 20.7031 129.982 20.7031C131.372 20.7031 132.603 21.0391 133.673 21.7109C134.751 22.375 135.583 23.3359 136.169 24.5938C136.755 25.8438 137.052 27.3008 137.06 28.9648V29.9141ZM134.095 29.0234C134.095 27.1328 133.735 25.6836 133.017 24.6758C132.306 23.668 131.294 23.1641 129.982 23.1641C128.7 23.1641 127.696 23.668 126.97 24.6758C126.251 25.6758 125.884 27.0938 125.868 28.9297V29.9141C125.868 31.7891 126.232 33.2383 126.958 34.2617C127.692 35.2852 128.708 35.7969 130.005 35.7969C131.318 35.7969 132.325 35.2969 133.028 34.2969C133.739 33.2969 134.095 31.8359 134.095 29.9141V29.0234ZM157.268 38H154.303L146.698 25.8945V38H143.733V20.9375H146.698L154.327 33.0898V20.9375H157.268V38ZM167.457 31.6602V38H164.492V20.9375H171.019C172.925 20.9375 174.437 21.4336 175.554 22.4258C176.679 23.418 177.242 24.7305 177.242 26.3633C177.242 28.0352 176.691 29.3359 175.59 30.2656C174.496 31.1953 172.961 31.6602 170.984 31.6602H167.457ZM167.457 29.2812H171.019C172.074 29.2812 172.879 29.0352 173.433 28.543C173.988 28.043 174.265 27.3242 174.265 26.3867C174.265 25.4648 173.984 24.7305 173.422 24.1836C172.859 23.6289 172.086 23.3438 171.101 23.3281H167.457V29.2812ZM184.419 34.0273L183.036 38H179.954L186.399 20.9375H189.06L195.517 38H192.423L191.028 34.0273H184.419ZM190.196 31.6367L187.724 24.5586L185.251 31.6367H190.196ZM207.451 31.4258H204.147V38H201.182V20.9375H207.182C209.151 20.9375 210.67 21.3789 211.74 22.2617C212.811 23.1445 213.346 24.4219 213.346 26.0938C213.346 27.2344 213.069 28.1914 212.514 28.9648C211.967 29.7305 211.201 30.3203 210.217 30.7344L214.049 37.8477V38H210.873L207.451 31.4258ZM204.147 29.0469H207.194C208.194 29.0469 208.975 28.7969 209.537 28.2969C210.1 27.7891 210.381 27.0977 210.381 26.2227C210.381 25.3086 210.119 24.6016 209.596 24.1016C209.08 23.6016 208.307 23.3438 207.276 23.3281H204.147V29.0469ZM231.621 23.3281H226.3V38H223.359V23.3281H218.085V20.9375H231.621V23.3281ZM246.321 33.6055C246.321 32.8555 246.055 32.2773 245.524 31.8711C245.001 31.4648 244.052 31.0547 242.677 30.6406C241.302 30.2266 240.208 29.7656 239.395 29.2578C237.841 28.2812 237.063 27.0078 237.063 25.4375C237.063 24.0625 237.622 22.9297 238.739 22.0391C239.864 21.1484 241.321 20.7031 243.11 20.7031C244.298 20.7031 245.356 20.9219 246.286 21.3594C247.216 21.7969 247.946 22.4219 248.477 23.2344C249.009 24.0391 249.274 24.9336 249.274 25.918H246.321C246.321 25.0273 246.04 24.332 245.477 23.832C244.923 23.3242 244.126 23.0703 243.087 23.0703C242.118 23.0703 241.364 23.2773 240.825 23.6914C240.294 24.1055 240.028 24.6836 240.028 25.4258C240.028 26.0508 240.317 26.5742 240.895 26.9961C241.473 27.4102 242.427 27.8164 243.755 28.2148C245.083 28.6055 246.149 29.0547 246.954 29.5625C247.759 30.0625 248.348 30.6406 248.723 31.2969C249.098 31.9453 249.286 32.707 249.286 33.582C249.286 35.0039 248.739 36.1367 247.645 36.9805C246.559 37.8164 245.083 38.2344 243.216 38.2344C241.981 38.2344 240.845 38.0078 239.805 37.5547C238.774 37.0938 237.97 36.4609 237.391 35.6562C236.821 34.8516 236.536 33.9141 236.536 32.8438H239.501C239.501 33.8125 239.821 34.5625 240.462 35.0938C241.102 35.625 242.02 35.8906 243.216 35.8906C244.247 35.8906 245.02 35.6836 245.536 35.2695C246.059 34.8477 246.321 34.293 246.321 33.6055ZM126.894 6.75322C127.217 7.61863 127.553 8.55774 127.904 9.57036H126.466C125.977 8.11572 125.493 6.71171 125.014 5.35831C124.534 4.01423 124.041 2.75742 123.534 1.58828C123.027 2.76673 122.534 4.028 122.055 5.37208C121.575 6.71637 121.087 8.11572 120.589 9.57036H119.109C119.45 8.55774 119.782 7.61863 120.105 6.75322C120.427 5.89692 120.741 5.08212 121.045 4.30884C121.358 3.53535 121.663 2.79427 121.958 2.08537C122.262 1.38559 122.571 0.690467 122.884 0H124.143C124.456 0.690467 124.76 1.38559 125.055 2.08537C125.359 2.79427 125.664 3.53535 125.968 4.30884C126.272 5.08212 126.581 5.89692 126.894 6.75322ZM143.337 10.0002C142.71 10.0002 142.166 9.90358 141.705 9.71021C141.244 9.51683 140.866 9.25442 140.571 8.92295C140.276 8.58237 140.055 8.18186 139.907 7.72142C139.769 7.26117 139.7 6.76408 139.7 6.22993V0.222656H141.041V6.07806C141.041 7.03561 141.253 7.73073 141.677 8.16344C142.101 8.59615 142.654 8.8126 143.337 8.8126C143.678 8.8126 143.987 8.76177 144.263 8.66053C144.549 8.55018 144.793 8.38435 144.996 8.16344C145.199 7.94253 145.355 7.66168 145.466 7.3209C145.577 6.97122 145.632 6.55694 145.632 6.07806V0.222656H146.973V6.22993C146.973 6.76408 146.9 7.26117 146.752 7.72142C146.614 8.18186 146.393 8.58237 146.088 8.92295C145.793 9.25442 145.415 9.51683 144.955 9.71021C144.503 9.90358 143.963 10.0002 143.337 10.0002ZM71.3685 9.79293V8.63291H66.9435V0.222575H65.6021V9.79293H71.3685ZM88.9666 8.63291V9.79293H83.2002V0.222575H84.5418V8.63291H88.9666ZM102.751 9.86144C102.981 9.87055 103.193 9.87521 103.387 9.87521C104.917 9.87521 106.033 9.63587 106.733 9.1572C107.443 8.66922 107.798 7.94636 107.798 6.98881C107.798 6.3352 107.632 5.82879 107.3 5.46979C106.969 5.11078 106.521 4.84837 105.959 4.68273C106.374 4.5169 106.706 4.26846 106.955 3.93699C107.204 3.59621 107.328 3.1635 107.328 2.63867C107.328 2.16911 107.227 1.77325 107.024 1.4511C106.821 1.12895 106.54 0.870992 106.18 0.67762C105.83 0.475137 105.41 0.332387 104.922 0.249572C104.442 0.166756 103.926 0.125244 103.373 0.125244C103.18 0.125244 102.972 0.129901 102.751 0.139216C102.53 0.148327 102.304 0.162098 102.073 0.180524C101.852 0.19895 101.631 0.222034 101.409 0.249572C101.188 0.277312 100.985 0.314162 100.801 0.360125V9.64053C100.985 9.6865 101.188 9.72335 101.409 9.75089C101.631 9.77863 101.852 9.80151 102.073 9.81993C102.304 9.83836 102.53 9.85213 102.751 9.86144ZM102.129 8.70142V5.33169H103.857C104.244 5.33169 104.595 5.35943 104.908 5.41451C105.222 5.46979 105.489 5.56192 105.71 5.69069C105.941 5.81968 106.116 5.99462 106.235 6.21553C106.355 6.42733 106.415 6.68975 106.415 7.00278C106.415 7.35267 106.332 7.64263 106.166 7.87285C106.01 8.10287 105.797 8.28248 105.53 8.41146C105.263 8.54024 104.95 8.63237 104.59 8.68765C104.24 8.73361 103.866 8.75669 103.47 8.75669H102.903C102.746 8.74738 102.608 8.73827 102.488 8.72895C102.35 8.71984 102.23 8.71053 102.129 8.70142ZM103.539 4.25448H102.129V1.29924C102.285 1.28082 102.46 1.26705 102.654 1.25773C102.848 1.24862 103.115 1.24396 103.456 1.24396C103.797 1.24396 104.12 1.2715 104.424 1.32678C104.728 1.38206 104.991 1.46953 105.212 1.5892C105.443 1.69975 105.622 1.85162 105.752 2.04499C105.881 2.22904 105.945 2.45927 105.945 2.73545C105.945 3.03007 105.881 3.27406 105.752 3.46743C105.632 3.6606 105.461 3.81712 105.24 3.93699C105.028 4.05666 104.774 4.13947 104.479 4.18543C104.185 4.2316 103.871 4.25448 103.539 4.25448ZM12.1891 29.9211H14.1571L6.08828 11.7051H12.9271C12.9271 11.7051 14.0593 11.7051 15.2887 13.0063C15.9283 13.6832 16.1332 14.117 16.3711 14.958C16.5789 15.6926 16.6419 16.1556 16.5187 16.9097C16.414 17.5505 16.2646 17.9087 15.9283 18.461C15.5846 19.0255 15.3147 19.3082 14.7967 19.7121C14.2648 20.127 13.9134 20.3165 13.2715 20.5128C12.8056 20.6553 12.0415 20.713 12.0415 20.713L12.9271 22.4646C12.9271 22.4646 13.472 22.4367 13.8127 22.3645C14.4523 22.2288 15.0526 21.941 15.7315 21.4637C16.5927 20.8581 17.0138 20.3754 17.5519 19.4619C18.0362 18.6398 18.2314 18.1049 18.3883 17.1599C18.5291 16.312 18.5393 15.8041 18.3883 14.958C18.1366 13.5474 17.6994 12.7316 16.7155 11.7051C14.7967 9.70337 12.7795 9.70337 12.7795 9.70337L3.12087 9.74404L12.1891 29.9211ZM1.13774 9.74404H0.375L9.47198 29.9211L10.194 29.9211L1.13774 9.74404ZM22.2954 3.72507C21.8941 2.53113 21.4927 1.28945 21.0914 0.0477603C20.7402 0.0477603 20.389 0.0477573 19.9375 0C19.9626 0.0477573 19.9752 0.107455 19.9877 0.167154C20.0003 0.226852 20.0128 0.28655 20.0379 0.334307C24.6031 13.3721 29.1683 26.362 33.7335 39.352C33.9844 40.0684 33.9844 40.0684 34.9375 39.9251C34.9125 39.8296 34.8874 39.746 34.8623 39.6625C34.8372 39.5789 34.8121 39.4953 34.787 39.3998L29.971 25.6457L22.2954 3.72507Z" fill="#062633"/>
<path fill-rule="evenodd" clip-rule="evenodd" d="M53.7328 9.57036C53.3825 8.55774 53.046 7.61863 52.7233 6.75322C52.4099 5.89692 52.1011 5.08212 51.7968 4.30884C51.4926 3.53535 51.1884 2.79427 50.8842 2.08537C50.5892 1.38559 50.285 0.690467 49.9715 0H48.7131C48.3997 0.690467 48.0909 1.38559 47.7866 2.08537C47.4917 2.79427 47.1874 3.53535 46.874 4.30884C46.5698 5.08212 46.2563 5.89692 45.9337 6.75322C45.611 7.61863 45.2791 8.55774 44.938 9.57036H46.4177C46.9155 8.11572 47.4041 6.71637 47.8834 5.37208C48.3628 4.028 48.856 2.76673 49.3631 1.58828C49.8701 2.75742 50.3633 4.01423 50.8427 5.35831C51.3221 6.71171 51.8061 8.11572 52.2947 9.57036H53.7328ZM49.6992 31.6602V38H46.7344V20.9375H53.2617C55.168 20.9375 56.6797 21.4336 57.7969 22.4258C58.9219 23.418 59.4844 24.7305 59.4844 26.3633C59.4844 28.0352 58.9336 29.3359 57.832 30.2656C56.7383 31.1953 55.2031 31.6602 53.2266 31.6602H49.6992ZM49.6992 29.2812H53.2617C54.3164 29.2812 55.1211 29.0352 55.6758 28.543C56.2305 28.043 56.5078 27.3242 56.5078 26.3867C56.5078 25.4648 56.2266 24.7305 55.6641 24.1836C55.1016 23.6289 54.3281 23.3438 53.3438 23.3281H49.6992V29.2812ZM71.3723 29.0234L75.2981 20.9375H78.5794L72.8606 31.7188V38H69.8841V31.7188L64.1536 20.9375H67.4466L71.3723 29.0234ZM96.69 23.3281H91.3697V38H88.4283V23.3281H83.1548V20.9375H96.69V23.3281ZM116.207 38H113.254V30.418H105.625V38H102.66V20.9375H105.625V28.0391H113.254V20.9375H116.207V38ZM137.06 29.9141C137.06 31.5859 136.771 33.0547 136.193 34.3203C135.614 35.5781 134.786 36.5469 133.708 37.2266C132.638 37.8984 131.403 38.2344 130.005 38.2344C128.622 38.2344 127.388 37.8984 126.302 37.2266C125.224 36.5469 124.388 35.582 123.794 34.332C123.208 33.082 122.911 31.6406 122.903 30.0078V29.0469C122.903 27.3828 123.196 25.9141 123.782 24.6406C124.376 23.3672 125.208 22.3945 126.278 21.7227C127.357 21.043 128.591 20.7031 129.982 20.7031C131.372 20.7031 132.603 21.0391 133.673 21.7109C134.751 22.375 135.583 23.3359 136.169 24.5938C136.755 25.8438 137.052 27.3008 137.06 28.9648V29.9141ZM134.095 29.0234C134.095 27.1328 133.735 25.6836 133.017 24.6758C132.306 23.668 131.294 23.1641 129.982 23.1641C128.7 23.1641 127.696 23.668 126.97 24.6758C126.251 25.6758 125.884 27.0938 125.868 28.9297V29.9141C125.868 31.7891 126.232 33.2383 126.958 34.2617C127.692 35.2852 128.708 35.7969 130.005 35.7969C131.318 35.7969 132.325 35.2969 133.028 34.2969C133.739 33.2969 134.095 31.8359 134.095 29.9141V29.0234ZM157.268 38H154.303L146.698 25.8945V38H143.733V20.9375H146.698L154.327 33.0898V20.9375H157.268V38ZM167.457 31.6602V38H164.492V20.9375H171.019C172.925 20.9375 174.437 21.4336 175.554 22.4258C176.679 23.418 177.242 24.7305 177.242 26.3633C177.242 28.0352 176.691 29.3359 175.59 30.2656C174.496 31.1953 172.961 31.6602 170.984 31.6602H167.457ZM167.457 29.2812H171.019C172.074 29.2812 172.879 29.0352 173.433 28.543C173.988 28.043 174.265 27.3242 174.265 26.3867C174.265 25.4648 173.984 24.7305 173.422 24.1836C172.859 23.6289 172.086 23.3438 171.101 23.3281H167.457V29.2812ZM184.419 34.0273L183.036 38H179.954L186.399 20.9375H189.06L195.517 38H192.423L191.028 34.0273H184.419ZM190.196 31.6367L187.724 24.5586L185.251 31.6367H190.196ZM207.451 31.4258H204.147V38H201.182V20.9375H207.182C209.151 20.9375 210.67 21.3789 211.74 22.2617C212.811 23.1445 213.346 24.4219 213.346 26.0938C213.346 27.2344 213.069 28.1914 212.514 28.9648C211.967 29.7305 211.201 30.3203 210.217 30.7344L214.049 37.8477V38H210.873L207.451 31.4258ZM204.147 29.0469H207.194C208.194 29.0469 208.975 28.7969 209.537 28.2969C210.1 27.7891 210.381 27.0977 210.381 26.2227C210.381 25.3086 210.119 24.6016 209.596 24.1016C209.08 23.6016 208.307 23.3438 207.276 23.3281H204.147V29.0469ZM231.621 23.3281H226.3V38H223.359V23.3281H218.085V20.9375H231.621V23.3281ZM246.321 33.6055C246.321 32.8555 246.055 32.2773 245.524 31.8711C245.001 31.4648 244.052 31.0547 242.677 30.6406C241.302 30.2266 240.208 29.7656 239.395 29.2578C237.841 28.2812 237.063 27.0078 237.063 25.4375C237.063 24.0625 237.622 22.9297 238.739 22.0391C239.864 21.1484 241.321 20.7031 243.11 20.7031C244.298 20.7031 245.356 20.9219 246.286 21.3594C247.216 21.7969 247.946 22.4219 248.477 23.2344C249.009 24.0391 249.274 24.9336 249.274 25.918H246.321C246.321 25.0273 246.04 24.332 245.477 23.832C244.923 23.3242 244.126 23.0703 243.087 23.0703C242.118 23.0703 241.364 23.2773 240.825 23.6914C240.294 24.1055 240.028 24.6836 240.028 25.4258C240.028 26.0508 240.317 26.5742 240.895 26.9961C241.473 27.4102 242.427 27.8164 243.755 28.2148C245.083 28.6055 246.149 29.0547 246.954 29.5625C247.759 30.0625 248.348 30.6406 248.723 31.2969C249.098 31.9453 249.286 32.707 249.286 33.582C249.286 35.0039 248.739 36.1367 247.645 36.9805C246.559 37.8164 245.083 38.2344 243.216 38.2344C241.981 38.2344 240.845 38.0078 239.805 37.5547C238.774 37.0938 237.97 36.4609 237.391 35.6562C236.821 34.8516 236.536 33.9141 236.536 32.8438H239.501C239.501 33.8125 239.821 34.5625 240.462 35.0938C241.102 35.625 242.02 35.8906 243.216 35.8906C244.247 35.8906 245.02 35.6836 245.536 35.2695C246.059 34.8477 246.321 34.293 246.321 33.6055ZM126.894 6.75322C127.217 7.61863 127.553 8.55774 127.904 9.57036H126.466C125.977 8.11572 125.493 6.71171 125.014 5.35831C124.534 4.01423 124.041 2.75742 123.534 1.58828C123.027 2.76673 122.534 4.028 122.055 5.37208C121.575 6.71637 121.087 8.11572 120.589 9.57036H119.109C119.45 8.55774 119.782 7.61863 120.105 6.75322C120.427 5.89692 120.741 5.08212 121.045 4.30884C121.358 3.53535 121.663 2.79427 121.958 2.08537C122.262 1.38559 122.571 0.690467 122.884 0H124.143C124.456 0.690467 124.76 1.38559 125.055 2.08537C125.359 2.79427 125.664 3.53535 125.968 4.30884C126.272 5.08212 126.581 5.89692 126.894 6.75322ZM143.337 10.0002C142.71 10.0002 142.166 9.90358 141.705 9.71021C141.244 9.51683 140.866 9.25442 140.571 8.92295C140.276 8.58237 140.055 8.18186 139.907 7.72142C139.769 7.26117 139.7 6.76408 139.7 6.22993V0.222656H141.041V6.07806C141.041 7.03561 141.253 7.73073 141.677 8.16344C142.101 8.59615 142.654 8.8126 143.337 8.8126C143.678 8.8126 143.987 8.76177 144.263 8.66053C144.549 8.55018 144.793 8.38435 144.996 8.16344C145.199 7.94253 145.355 7.66168 145.466 7.3209C145.577 6.97122 145.632 6.55694 145.632 6.07806V0.222656H146.973V6.22993C146.973 6.76408 146.9 7.26117 146.752 7.72142C146.614 8.18186 146.393 8.58237 146.088 8.92295C145.793 9.25442 145.415 9.51683 144.955 9.71021C144.503 9.90358 143.963 10.0002 143.337 10.0002ZM71.3685 9.79293V8.63291H66.9435V0.222575H65.6021V9.79293H71.3685ZM88.9666 8.63291V9.79293H83.2002V0.222575H84.5418V8.63291H88.9666ZM102.751 9.86144C102.981 9.87055 103.193 9.87521 103.387 9.87521C104.917 9.87521 106.033 9.63587 106.733 9.1572C107.443 8.66922 107.798 7.94636 107.798 6.98881C107.798 6.3352 107.632 5.82879 107.3 5.46979C106.969 5.11078 106.521 4.84837 105.959 4.68273C106.374 4.5169 106.706 4.26846 106.955 3.93699C107.204 3.59621 107.328 3.1635 107.328 2.63867C107.328 2.16911 107.227 1.77325 107.024 1.4511C106.821 1.12895 106.54 0.870992 106.18 0.67762C105.83 0.475137 105.41 0.332387 104.922 0.249572C104.442 0.166756 103.926 0.125244 103.373 0.125244C103.18 0.125244 102.972 0.129901 102.751 0.139216C102.53 0.148327 102.304 0.162098 102.073 0.180524C101.852 0.19895 101.631 0.222034 101.409 0.249572C101.188 0.277312 100.985 0.314162 100.801 0.360125V9.64053C100.985 9.6865 101.188 9.72335 101.409 9.75089C101.631 9.77863 101.852 9.80151 102.073 9.81993C102.304 9.83836 102.53 9.85213 102.751 9.86144ZM102.129 8.70142V5.33169H103.857C104.244 5.33169 104.595 5.35943 104.908 5.41451C105.222 5.46979 105.489 5.56192 105.71 5.69069C105.941 5.81968 106.116 5.99462 106.235 6.21553C106.355 6.42733 106.415 6.68975 106.415 7.00278C106.415 7.35267 106.332 7.64263 106.166 7.87285C106.01 8.10287 105.797 8.28248 105.53 8.41146C105.263 8.54024 104.95 8.63237 104.59 8.68765C104.24 8.73361 103.866 8.75669 103.47 8.75669H102.903C102.746 8.74738 102.608 8.73827 102.488 8.72895C102.35 8.71984 102.23 8.71053 102.129 8.70142ZM103.539 4.25448H102.129V1.29924C102.285 1.28082 102.46 1.26705 102.654 1.25773C102.848 1.24862 103.115 1.24396 103.456 1.24396C103.797 1.24396 104.12 1.2715 104.424 1.32678C104.728 1.38206 104.991 1.46953 105.212 1.5892C105.443 1.69975 105.622 1.85162 105.752 2.04499C105.881 2.22904 105.945 2.45927 105.945 2.73545C105.945 3.03007 105.881 3.27406 105.752 3.46743C105.632 3.6606 105.461 3.81712 105.24 3.93699C105.028 4.05666 104.774 4.13947 104.479 4.18543C104.185 4.2316 103.871 4.25448 103.539 4.25448ZM12.1891 29.9211H14.1571L6.08828 11.7051H12.9271C12.9271 11.7051 14.0593 11.7051 15.2887 13.0063C15.9283 13.6832 16.1332 14.117 16.3711 14.958C16.5789 15.6926 16.6419 16.1556 16.5187 16.9097C16.414 17.5505 16.2646 17.9087 15.9283 18.461C15.5846 19.0255 15.3147 19.3082 14.7967 19.7121C14.2648 20.127 13.9134 20.3165 13.2715 20.5128C12.8056 20.6553 12.0415 20.713 12.0415 20.713L12.9271 22.4646C12.9271 22.4646 13.472 22.4367 13.8127 22.3645C14.4523 22.2288 15.0526 21.941 15.7315 21.4637C16.5927 20.8581 17.0138 20.3754 17.5519 19.4619C18.0362 18.6398 18.2314 18.1049 18.3883 17.1599C18.5291 16.312 18.5393 15.8041 18.3883 14.958C18.1366 13.5474 17.6994 12.7316 16.7155 11.7051C14.7967 9.70337 12.7795 9.70337 12.7795 9.70337L3.12087 9.74404L12.1891 29.9211ZM1.13774 9.74404H0.375L9.47198 29.9211L10.194 29.9211L1.13774 9.74404ZM22.2954 3.72507C21.8941 2.53113 21.4927 1.28945 21.0914 0.0477603C20.7402 0.0477603 20.389 0.0477573 19.9375 0C19.9626 0.0477573 19.9752 0.107455 19.9877 0.167154C20.0003 0.226852 20.0128 0.28655 20.0379 0.334307C24.6031 13.3721 29.1683 26.362 33.7335 39.352C33.9844 40.0684 33.9844 40.0684 34.9375 39.9251C34.9125 39.8296 34.8874 39.746 34.8623 39.6625C34.8372 39.5789 34.8121 39.4953 34.787 39.3998L29.971 25.6457L22.2954 3.72507Z" fill="#005B8B"/>
<defs>
<linearGradient id="paint0_linear_391_1112" x1="36.1136" y1="45.5774" x2="21.1556" y2="45.5574" gradientUnits="userSpaceOnUse">
<stop stop-color="#FA3901"/>
<stop offset="1" stop-color="#FF8902"/>
</linearGradient>
</defs>
</svg>
