<svg width="194" height="40" viewBox="0 0 194 40" fill="none" xmlns="http://www.w3.org/2000/svg">
<path fill-rule="evenodd" clip-rule="evenodd" d="M26.1824 0.0477603C26.557 1.28945 26.9316 2.53113 27.3061 3.72507L34.47 25.6457L38.965 39.3998C38.9884 39.4953 39.0118 39.5789 39.0352 39.6625L39.0353 39.6628L39.0353 39.6628C39.0587 39.7463 39.0821 39.8297 39.1055 39.9251C38.2158 40.0684 38.2158 40.0684 37.9817 39.352L37.981 39.3498L37.9808 39.3492C33.7202 26.3601 29.4597 13.3711 25.1991 0.334307C25.1757 0.286557 25.164 0.22687 25.1523 0.16718L25.1523 0.167157C25.1406 0.107457 25.1289 0.0477582 25.1055 0C25.5269 0.0477573 25.8546 0.0477603 26.1824 0.0477603ZM21.1068 30.8333L13.0707 9.16659H14.5679L22.6041 30.8333H21.1068ZM10.4479 12.9613L16.7984 30.8333H20.0042L11.7608 9.16667H9.16562L0.9375 30.8333H4.12801L10.4479 12.9613ZM15.6719 9.16667L23.708 30.8333H25.2052L17.1691 9.16667H15.6719ZM52.3984 38L53.7812 34.0273H60.3906L61.7852 38H64.8789L58.4219 20.9375H55.7617L49.3164 38H52.3984ZM57.0859 24.5586L59.5586 31.6367H54.6133L57.0859 24.5586ZM81.2552 35.6328H73.5091V20.9375H70.5442V38H81.2552V35.6328ZM97.9595 35.6328H90.2134V20.9375H87.2486V38H97.9595V35.6328ZM114.207 36.7109C115.379 35.6875 116.051 34.2656 116.223 32.4453H113.269C113.113 33.6641 112.742 34.5352 112.156 35.0586C111.57 35.582 110.695 35.8438 109.531 35.8438C108.258 35.8438 107.289 35.3594 106.625 34.3906C105.969 33.4219 105.64 32.0156 105.64 30.1719V28.6602C105.656 26.8398 106.008 25.4609 106.695 24.5234C107.39 23.5781 108.383 23.1055 109.672 23.1055C110.781 23.1055 111.621 23.3789 112.191 23.9258C112.769 24.4648 113.129 25.3477 113.269 26.5742H116.223C116.035 24.707 115.367 23.2617 114.219 22.2383C113.07 21.2148 111.555 20.7031 109.672 20.7031C108.273 20.7031 107.039 21.0352 105.969 21.6992C104.906 22.3633 104.09 23.3086 103.519 24.5352C102.949 25.7617 102.664 27.1797 102.664 28.7891V30.3828C102.687 31.9531 102.98 33.332 103.543 34.5195C104.105 35.707 104.902 36.625 105.933 37.2734C106.973 37.9141 108.172 38.2344 109.531 38.2344C111.476 38.2344 113.035 37.7266 114.207 36.7109ZM133.196 38H136.15V20.9375H133.196V28.0391H125.567V20.9375H122.603V38H125.567V30.418H133.196V38ZM146.35 30.3828H153.358V28.0391H146.35V23.3281H154.459V20.9375H143.385V38H154.541V35.6328H146.35V30.3828ZM171.679 36.7109C172.851 35.6875 173.523 34.2656 173.695 32.4453H170.742C170.586 33.6641 170.215 34.5352 169.629 35.0586C169.043 35.582 168.168 35.8438 167.004 35.8438C165.73 35.8438 164.761 35.3594 164.097 34.3906C163.441 33.4219 163.113 32.0156 163.113 30.1719V28.6602C163.129 26.8398 163.48 25.4609 164.168 24.5234C164.863 23.5781 165.855 23.1055 167.144 23.1055C168.254 23.1055 169.093 23.3789 169.664 23.9258C170.242 24.4648 170.601 25.3477 170.742 26.5742H173.695C173.508 24.707 172.84 23.2617 171.691 22.2383C170.543 21.2148 169.027 20.7031 167.144 20.7031C165.746 20.7031 164.511 21.0352 163.441 21.6992C162.379 22.3633 161.562 23.3086 160.992 24.5352C160.422 25.7617 160.136 27.1797 160.136 28.7891V30.3828C160.16 31.9531 160.453 33.332 161.015 34.5195C161.578 35.707 162.375 36.625 163.406 37.2734C164.445 37.9141 165.644 38.2344 167.004 38.2344C168.949 38.2344 170.508 37.7266 171.679 36.7109ZM183.04 32.6797L184.974 30.6289L190.106 38H193.622L186.919 28.4961L193.259 20.9375H189.673L184.681 26.9141L183.04 28.9414V20.9375H180.075V38H183.04V32.6797ZM57.9002 9.57036C57.5499 8.55774 57.2134 7.61863 56.8908 6.75322C56.5773 5.89692 56.2685 5.08212 55.9643 4.30884C55.6601 3.53535 55.3558 2.79427 55.0516 2.08537C54.7566 1.38559 54.4524 0.690467 54.139 0H52.8806C52.5671 0.690467 52.2583 1.38559 51.9541 2.08537C51.6591 2.79427 51.3549 3.53535 51.0414 4.30884C50.7372 5.08212 50.4238 5.89692 50.1011 6.75322C49.7784 7.61863 49.4466 8.55774 49.1055 9.57036H50.5851C51.0829 8.11572 51.5715 6.71637 52.0509 5.37208C52.5303 4.028 53.0235 2.76673 53.5305 1.58828C54.0376 2.75742 54.5308 4.01423 55.0101 5.35831C55.4895 6.71171 55.9735 8.11572 56.4621 9.57036H57.9002ZM131.062 6.75322C131.384 7.61863 131.721 8.55774 132.071 9.57036H130.633C130.144 8.11572 129.661 6.71171 129.181 5.35831C128.702 4.01423 128.209 2.75742 127.702 1.58828C127.194 2.76673 126.701 4.028 126.222 5.37208C125.742 6.71637 125.254 8.11572 124.756 9.57036H123.277C123.618 8.55774 123.949 7.61863 124.272 6.75322C124.595 5.89692 124.908 5.08212 125.212 4.30884C125.526 3.53535 125.83 2.79427 126.125 2.08537C126.429 1.38559 126.738 0.690467 127.052 0H128.31C128.624 0.690467 128.928 1.38559 129.223 2.08537C129.527 2.79427 129.831 3.53535 130.135 4.30884C130.439 5.08212 130.748 5.89692 131.062 6.75322ZM147.504 10.0002C146.877 10.0002 146.333 9.90358 145.872 9.71021C145.412 9.51683 145.033 9.25442 144.738 8.92295C144.443 8.58237 144.222 8.18186 144.075 7.72142C143.936 7.26117 143.867 6.76408 143.867 6.22993V0.222656H145.209V6.07806C145.209 7.03561 145.42 7.73073 145.845 8.16344C146.269 8.59615 146.822 8.8126 147.504 8.8126C147.845 8.8126 148.154 8.76177 148.431 8.66053C148.716 8.55018 148.961 8.38435 149.164 8.16344C149.366 7.94253 149.523 7.66168 149.634 7.3209C149.744 6.97122 149.8 6.55694 149.8 6.07806V0.222656H151.141V6.22993C151.141 6.76408 151.067 7.26117 150.92 7.72142C150.781 8.18186 150.56 8.58237 150.256 8.92295C149.961 9.25442 149.583 9.51683 149.122 9.71021C148.67 9.90358 148.131 10.0002 147.504 10.0002ZM75.536 9.79293V8.63291H71.111V0.222575H69.7696V9.79293H75.536ZM93.1341 8.63291V9.79293H87.3677V0.222575H88.7093V8.63291H93.1341ZM106.918 9.86144C107.149 9.87055 107.361 9.87521 107.554 9.87521C109.085 9.87521 110.2 9.63587 110.901 9.1572C111.611 8.66922 111.965 7.94636 111.965 6.98881C111.965 6.3352 111.8 5.82879 111.468 5.46979C111.136 5.11078 110.689 4.84837 110.126 4.68273C110.542 4.5169 110.873 4.26846 111.122 3.93699C111.371 3.59621 111.495 3.1635 111.495 2.63867C111.495 2.16911 111.394 1.77325 111.191 1.4511C110.988 1.12895 110.707 0.870992 110.348 0.67762C109.998 0.475137 109.578 0.332387 109.089 0.249572C108.61 0.166756 108.094 0.125244 107.541 0.125244C107.347 0.125244 107.139 0.129901 106.918 0.139216C106.697 0.148327 106.472 0.162098 106.241 0.180524C106.019 0.19895 105.798 0.222034 105.577 0.249572C105.356 0.277312 105.153 0.314162 104.969 0.360125V9.64053C105.153 9.6865 105.356 9.72335 105.577 9.75089C105.798 9.77863 106.019 9.80151 106.241 9.81993C106.472 9.83836 106.697 9.85213 106.918 9.86144ZM106.296 8.70142V5.33169H108.024C108.412 5.33169 108.762 5.35943 109.075 5.41451C109.389 5.46979 109.656 5.56192 109.878 5.69069C110.108 5.81968 110.283 5.99462 110.403 6.21553C110.523 6.42733 110.583 6.68975 110.583 7.00278C110.583 7.35267 110.5 7.64263 110.334 7.87285C110.177 8.10287 109.965 8.28248 109.698 8.41146C109.431 8.54024 109.117 8.63237 108.758 8.68765C108.407 8.73361 108.034 8.75669 107.637 8.75669H107.07C106.914 8.74738 106.775 8.73827 106.656 8.72895C106.517 8.71984 106.398 8.71053 106.296 8.70142ZM107.706 4.25448H106.296V1.29924C106.452 1.28082 106.628 1.26705 106.821 1.25773C107.015 1.24862 107.283 1.24396 107.624 1.24396C107.965 1.24396 108.287 1.2715 108.591 1.32678C108.896 1.38206 109.159 1.46953 109.38 1.5892C109.611 1.69975 109.79 1.85162 109.919 2.04499C110.048 2.22904 110.113 2.45927 110.113 2.73545C110.113 3.03007 110.048 3.27406 109.919 3.46743C109.799 3.6606 109.629 3.81712 109.407 3.93699C109.195 4.05666 108.942 4.13947 108.647 4.18543C108.352 4.2316 108.039 4.25448 107.706 4.25448Z" fill="black"/>
<path fill-rule="evenodd" clip-rule="evenodd" d="M26.1824 0.0477603C26.557 1.28945 26.9316 2.53113 27.3061 3.72507L34.47 25.6457L38.965 39.3998C38.9884 39.4953 39.0118 39.5789 39.0352 39.6625L39.0353 39.6628L39.0353 39.6628C39.0587 39.7463 39.0821 39.8297 39.1055 39.9251C38.2158 40.0684 38.2158 40.0684 37.9817 39.352L37.981 39.3498L37.9808 39.3492C33.7202 26.3601 29.4597 13.3711 25.1991 0.334307C25.1757 0.286557 25.164 0.22687 25.1523 0.16718L25.1523 0.167157C25.1406 0.107457 25.1289 0.0477582 25.1055 0C25.5269 0.0477573 25.8546 0.0477603 26.1824 0.0477603ZM21.1068 30.8333L13.0707 9.16659H14.5679L22.6041 30.8333H21.1068ZM10.4479 12.9613L16.7984 30.8333H20.0042L11.7608 9.16667H9.16562L0.9375 30.8333H4.12801L10.4479 12.9613ZM15.6719 9.16667L23.708 30.8333H25.2052L17.1691 9.16667H15.6719ZM52.3984 38L53.7812 34.0273H60.3906L61.7852 38H64.8789L58.4219 20.9375H55.7617L49.3164 38H52.3984ZM57.0859 24.5586L59.5586 31.6367H54.6133L57.0859 24.5586ZM81.2552 35.6328H73.5091V20.9375H70.5442V38H81.2552V35.6328ZM97.9595 35.6328H90.2134V20.9375H87.2486V38H97.9595V35.6328ZM114.207 36.7109C115.379 35.6875 116.051 34.2656 116.223 32.4453H113.269C113.113 33.6641 112.742 34.5352 112.156 35.0586C111.57 35.582 110.695 35.8438 109.531 35.8438C108.258 35.8438 107.289 35.3594 106.625 34.3906C105.969 33.4219 105.64 32.0156 105.64 30.1719V28.6602C105.656 26.8398 106.008 25.4609 106.695 24.5234C107.39 23.5781 108.383 23.1055 109.672 23.1055C110.781 23.1055 111.621 23.3789 112.191 23.9258C112.769 24.4648 113.129 25.3477 113.269 26.5742H116.223C116.035 24.707 115.367 23.2617 114.219 22.2383C113.07 21.2148 111.555 20.7031 109.672 20.7031C108.273 20.7031 107.039 21.0352 105.969 21.6992C104.906 22.3633 104.09 23.3086 103.519 24.5352C102.949 25.7617 102.664 27.1797 102.664 28.7891V30.3828C102.687 31.9531 102.98 33.332 103.543 34.5195C104.105 35.707 104.902 36.625 105.933 37.2734C106.973 37.9141 108.172 38.2344 109.531 38.2344C111.476 38.2344 113.035 37.7266 114.207 36.7109ZM133.196 38H136.15V20.9375H133.196V28.0391H125.567V20.9375H122.603V38H125.567V30.418H133.196V38ZM146.35 30.3828H153.358V28.0391H146.35V23.3281H154.459V20.9375H143.385V38H154.541V35.6328H146.35V30.3828ZM171.679 36.7109C172.851 35.6875 173.523 34.2656 173.695 32.4453H170.742C170.586 33.6641 170.215 34.5352 169.629 35.0586C169.043 35.582 168.168 35.8438 167.004 35.8438C165.73 35.8438 164.761 35.3594 164.097 34.3906C163.441 33.4219 163.113 32.0156 163.113 30.1719V28.6602C163.129 26.8398 163.48 25.4609 164.168 24.5234C164.863 23.5781 165.855 23.1055 167.144 23.1055C168.254 23.1055 169.093 23.3789 169.664 23.9258C170.242 24.4648 170.601 25.3477 170.742 26.5742H173.695C173.508 24.707 172.84 23.2617 171.691 22.2383C170.543 21.2148 169.027 20.7031 167.144 20.7031C165.746 20.7031 164.511 21.0352 163.441 21.6992C162.379 22.3633 161.562 23.3086 160.992 24.5352C160.422 25.7617 160.136 27.1797 160.136 28.7891V30.3828C160.16 31.9531 160.453 33.332 161.015 34.5195C161.578 35.707 162.375 36.625 163.406 37.2734C164.445 37.9141 165.644 38.2344 167.004 38.2344C168.949 38.2344 170.508 37.7266 171.679 36.7109ZM183.04 32.6797L184.974 30.6289L190.106 38H193.622L186.919 28.4961L193.259 20.9375H189.673L184.681 26.9141L183.04 28.9414V20.9375H180.075V38H183.04V32.6797ZM57.9002 9.57036C57.5499 8.55774 57.2134 7.61863 56.8908 6.75322C56.5773 5.89692 56.2685 5.08212 55.9643 4.30884C55.6601 3.53535 55.3558 2.79427 55.0516 2.08537C54.7566 1.38559 54.4524 0.690467 54.139 0H52.8806C52.5671 0.690467 52.2583 1.38559 51.9541 2.08537C51.6591 2.79427 51.3549 3.53535 51.0414 4.30884C50.7372 5.08212 50.4238 5.89692 50.1011 6.75322C49.7784 7.61863 49.4466 8.55774 49.1055 9.57036H50.5851C51.0829 8.11572 51.5715 6.71637 52.0509 5.37208C52.5303 4.028 53.0235 2.76673 53.5305 1.58828C54.0376 2.75742 54.5308 4.01423 55.0101 5.35831C55.4895 6.71171 55.9735 8.11572 56.4621 9.57036H57.9002ZM131.062 6.75322C131.384 7.61863 131.721 8.55774 132.071 9.57036H130.633C130.144 8.11572 129.661 6.71171 129.181 5.35831C128.702 4.01423 128.209 2.75742 127.702 1.58828C127.194 2.76673 126.701 4.028 126.222 5.37208C125.742 6.71637 125.254 8.11572 124.756 9.57036H123.277C123.618 8.55774 123.949 7.61863 124.272 6.75322C124.595 5.89692 124.908 5.08212 125.212 4.30884C125.526 3.53535 125.83 2.79427 126.125 2.08537C126.429 1.38559 126.738 0.690467 127.052 0H128.31C128.624 0.690467 128.928 1.38559 129.223 2.08537C129.527 2.79427 129.831 3.53535 130.135 4.30884C130.439 5.08212 130.748 5.89692 131.062 6.75322ZM147.504 10.0002C146.877 10.0002 146.333 9.90358 145.872 9.71021C145.412 9.51683 145.033 9.25442 144.738 8.92295C144.443 8.58237 144.222 8.18186 144.075 7.72142C143.936 7.26117 143.867 6.76408 143.867 6.22993V0.222656H145.209V6.07806C145.209 7.03561 145.42 7.73073 145.845 8.16344C146.269 8.59615 146.822 8.8126 147.504 8.8126C147.845 8.8126 148.154 8.76177 148.431 8.66053C148.716 8.55018 148.961 8.38435 149.164 8.16344C149.366 7.94253 149.523 7.66168 149.634 7.3209C149.744 6.97122 149.8 6.55694 149.8 6.07806V0.222656H151.141V6.22993C151.141 6.76408 151.067 7.26117 150.92 7.72142C150.781 8.18186 150.56 8.58237 150.256 8.92295C149.961 9.25442 149.583 9.51683 149.122 9.71021C148.67 9.90358 148.131 10.0002 147.504 10.0002ZM75.536 9.79293V8.63291H71.111V0.222575H69.7696V9.79293H75.536ZM93.1341 8.63291V9.79293H87.3677V0.222575H88.7093V8.63291H93.1341ZM106.918 9.86144C107.149 9.87055 107.361 9.87521 107.554 9.87521C109.085 9.87521 110.2 9.63587 110.901 9.1572C111.611 8.66922 111.965 7.94636 111.965 6.98881C111.965 6.3352 111.8 5.82879 111.468 5.46979C111.136 5.11078 110.689 4.84837 110.126 4.68273C110.542 4.5169 110.873 4.26846 111.122 3.93699C111.371 3.59621 111.495 3.1635 111.495 2.63867C111.495 2.16911 111.394 1.77325 111.191 1.4511C110.988 1.12895 110.707 0.870992 110.348 0.67762C109.998 0.475137 109.578 0.332387 109.089 0.249572C108.61 0.166756 108.094 0.125244 107.541 0.125244C107.347 0.125244 107.139 0.129901 106.918 0.139216C106.697 0.148327 106.472 0.162098 106.241 0.180524C106.019 0.19895 105.798 0.222034 105.577 0.249572C105.356 0.277312 105.153 0.314162 104.969 0.360125V9.64053C105.153 9.6865 105.356 9.72335 105.577 9.75089C105.798 9.77863 106.019 9.80151 106.241 9.81993C106.472 9.83836 106.697 9.85213 106.918 9.86144ZM106.296 8.70142V5.33169H108.024C108.412 5.33169 108.762 5.35943 109.075 5.41451C109.389 5.46979 109.656 5.56192 109.878 5.69069C110.108 5.81968 110.283 5.99462 110.403 6.21553C110.523 6.42733 110.583 6.68975 110.583 7.00278C110.583 7.35267 110.5 7.64263 110.334 7.87285C110.177 8.10287 109.965 8.28248 109.698 8.41146C109.431 8.54024 109.117 8.63237 108.758 8.68765C108.407 8.73361 108.034 8.75669 107.637 8.75669H107.07C106.914 8.74738 106.775 8.73827 106.656 8.72895C106.517 8.71984 106.398 8.71053 106.296 8.70142ZM107.706 4.25448H106.296V1.29924C106.452 1.28082 106.628 1.26705 106.821 1.25773C107.015 1.24862 107.283 1.24396 107.624 1.24396C107.965 1.24396 108.287 1.2715 108.591 1.32678C108.896 1.38206 109.159 1.46953 109.38 1.5892C109.611 1.69975 109.79 1.85162 109.919 2.04499C110.048 2.22904 110.113 2.45927 110.113 2.73545C110.113 3.03007 110.048 3.27406 109.919 3.46743C109.799 3.6606 109.629 3.81712 109.407 3.93699C109.195 4.05666 108.942 4.13947 108.647 4.18543C108.352 4.2316 108.039 4.25448 107.706 4.25448Z" fill="#062633"/>
<path fill-rule="evenodd" clip-rule="evenodd" d="M26.1824 0.0477603C26.557 1.28945 26.9316 2.53113 27.3061 3.72507L34.47 25.6457L38.965 39.3998C38.9884 39.4953 39.0118 39.5789 39.0352 39.6625L39.0353 39.6628L39.0353 39.6628C39.0587 39.7463 39.0821 39.8297 39.1055 39.9251C38.2158 40.0684 38.2158 40.0684 37.9817 39.352L37.981 39.3498L37.9808 39.3492C33.7202 26.3601 29.4597 13.3711 25.1991 0.334307C25.1757 0.286557 25.164 0.22687 25.1523 0.16718L25.1523 0.167157C25.1406 0.107457 25.1289 0.0477582 25.1055 0C25.5269 0.0477573 25.8546 0.0477603 26.1824 0.0477603ZM21.1068 30.8333L13.0707 9.16659H14.5679L22.6041 30.8333H21.1068ZM10.4479 12.9613L16.7984 30.8333H20.0042L11.7608 9.16667H9.16562L0.9375 30.8333H4.12801L10.4479 12.9613ZM15.6719 9.16667L23.708 30.8333H25.2052L17.1691 9.16667H15.6719ZM52.3984 38L53.7812 34.0273H60.3906L61.7852 38H64.8789L58.4219 20.9375H55.7617L49.3164 38H52.3984ZM57.0859 24.5586L59.5586 31.6367H54.6133L57.0859 24.5586ZM81.2552 35.6328H73.5091V20.9375H70.5442V38H81.2552V35.6328ZM97.9595 35.6328H90.2134V20.9375H87.2486V38H97.9595V35.6328ZM114.207 36.7109C115.379 35.6875 116.051 34.2656 116.223 32.4453H113.269C113.113 33.6641 112.742 34.5352 112.156 35.0586C111.57 35.582 110.695 35.8438 109.531 35.8438C108.258 35.8438 107.289 35.3594 106.625 34.3906C105.969 33.4219 105.64 32.0156 105.64 30.1719V28.6602C105.656 26.8398 106.008 25.4609 106.695 24.5234C107.39 23.5781 108.383 23.1055 109.672 23.1055C110.781 23.1055 111.621 23.3789 112.191 23.9258C112.769 24.4648 113.129 25.3477 113.269 26.5742H116.223C116.035 24.707 115.367 23.2617 114.219 22.2383C113.07 21.2148 111.555 20.7031 109.672 20.7031C108.273 20.7031 107.039 21.0352 105.969 21.6992C104.906 22.3633 104.09 23.3086 103.519 24.5352C102.949 25.7617 102.664 27.1797 102.664 28.7891V30.3828C102.687 31.9531 102.98 33.332 103.543 34.5195C104.105 35.707 104.902 36.625 105.933 37.2734C106.973 37.9141 108.172 38.2344 109.531 38.2344C111.476 38.2344 113.035 37.7266 114.207 36.7109ZM133.196 38H136.15V20.9375H133.196V28.0391H125.567V20.9375H122.603V38H125.567V30.418H133.196V38ZM146.35 30.3828H153.358V28.0391H146.35V23.3281H154.459V20.9375H143.385V38H154.541V35.6328H146.35V30.3828ZM171.679 36.7109C172.851 35.6875 173.523 34.2656 173.695 32.4453H170.742C170.586 33.6641 170.215 34.5352 169.629 35.0586C169.043 35.582 168.168 35.8438 167.004 35.8438C165.73 35.8438 164.761 35.3594 164.097 34.3906C163.441 33.4219 163.113 32.0156 163.113 30.1719V28.6602C163.129 26.8398 163.48 25.4609 164.168 24.5234C164.863 23.5781 165.855 23.1055 167.144 23.1055C168.254 23.1055 169.093 23.3789 169.664 23.9258C170.242 24.4648 170.601 25.3477 170.742 26.5742H173.695C173.508 24.707 172.84 23.2617 171.691 22.2383C170.543 21.2148 169.027 20.7031 167.144 20.7031C165.746 20.7031 164.511 21.0352 163.441 21.6992C162.379 22.3633 161.562 23.3086 160.992 24.5352C160.422 25.7617 160.136 27.1797 160.136 28.7891V30.3828C160.16 31.9531 160.453 33.332 161.015 34.5195C161.578 35.707 162.375 36.625 163.406 37.2734C164.445 37.9141 165.644 38.2344 167.004 38.2344C168.949 38.2344 170.508 37.7266 171.679 36.7109ZM183.04 32.6797L184.974 30.6289L190.106 38H193.622L186.919 28.4961L193.259 20.9375H189.673L184.681 26.9141L183.04 28.9414V20.9375H180.075V38H183.04V32.6797ZM57.9002 9.57036C57.5499 8.55774 57.2134 7.61863 56.8908 6.75322C56.5773 5.89692 56.2685 5.08212 55.9643 4.30884C55.6601 3.53535 55.3558 2.79427 55.0516 2.08537C54.7566 1.38559 54.4524 0.690467 54.139 0H52.8806C52.5671 0.690467 52.2583 1.38559 51.9541 2.08537C51.6591 2.79427 51.3549 3.53535 51.0414 4.30884C50.7372 5.08212 50.4238 5.89692 50.1011 6.75322C49.7784 7.61863 49.4466 8.55774 49.1055 9.57036H50.5851C51.0829 8.11572 51.5715 6.71637 52.0509 5.37208C52.5303 4.028 53.0235 2.76673 53.5305 1.58828C54.0376 2.75742 54.5308 4.01423 55.0101 5.35831C55.4895 6.71171 55.9735 8.11572 56.4621 9.57036H57.9002ZM131.062 6.75322C131.384 7.61863 131.721 8.55774 132.071 9.57036H130.633C130.144 8.11572 129.661 6.71171 129.181 5.35831C128.702 4.01423 128.209 2.75742 127.702 1.58828C127.194 2.76673 126.701 4.028 126.222 5.37208C125.742 6.71637 125.254 8.11572 124.756 9.57036H123.277C123.618 8.55774 123.949 7.61863 124.272 6.75322C124.595 5.89692 124.908 5.08212 125.212 4.30884C125.526 3.53535 125.83 2.79427 126.125 2.08537C126.429 1.38559 126.738 0.690467 127.052 0H128.31C128.624 0.690467 128.928 1.38559 129.223 2.08537C129.527 2.79427 129.831 3.53535 130.135 4.30884C130.439 5.08212 130.748 5.89692 131.062 6.75322ZM147.504 10.0002C146.877 10.0002 146.333 9.90358 145.872 9.71021C145.412 9.51683 145.033 9.25442 144.738 8.92295C144.443 8.58237 144.222 8.18186 144.075 7.72142C143.936 7.26117 143.867 6.76408 143.867 6.22993V0.222656H145.209V6.07806C145.209 7.03561 145.42 7.73073 145.845 8.16344C146.269 8.59615 146.822 8.8126 147.504 8.8126C147.845 8.8126 148.154 8.76177 148.431 8.66053C148.716 8.55018 148.961 8.38435 149.164 8.16344C149.366 7.94253 149.523 7.66168 149.634 7.3209C149.744 6.97122 149.8 6.55694 149.8 6.07806V0.222656H151.141V6.22993C151.141 6.76408 151.067 7.26117 150.92 7.72142C150.781 8.18186 150.56 8.58237 150.256 8.92295C149.961 9.25442 149.583 9.51683 149.122 9.71021C148.67 9.90358 148.131 10.0002 147.504 10.0002ZM75.536 9.79293V8.63291H71.111V0.222575H69.7696V9.79293H75.536ZM93.1341 8.63291V9.79293H87.3677V0.222575H88.7093V8.63291H93.1341ZM106.918 9.86144C107.149 9.87055 107.361 9.87521 107.554 9.87521C109.085 9.87521 110.2 9.63587 110.901 9.1572C111.611 8.66922 111.965 7.94636 111.965 6.98881C111.965 6.3352 111.8 5.82879 111.468 5.46979C111.136 5.11078 110.689 4.84837 110.126 4.68273C110.542 4.5169 110.873 4.26846 111.122 3.93699C111.371 3.59621 111.495 3.1635 111.495 2.63867C111.495 2.16911 111.394 1.77325 111.191 1.4511C110.988 1.12895 110.707 0.870992 110.348 0.67762C109.998 0.475137 109.578 0.332387 109.089 0.249572C108.61 0.166756 108.094 0.125244 107.541 0.125244C107.347 0.125244 107.139 0.129901 106.918 0.139216C106.697 0.148327 106.472 0.162098 106.241 0.180524C106.019 0.19895 105.798 0.222034 105.577 0.249572C105.356 0.277312 105.153 0.314162 104.969 0.360125V9.64053C105.153 9.6865 105.356 9.72335 105.577 9.75089C105.798 9.77863 106.019 9.80151 106.241 9.81993C106.472 9.83836 106.697 9.85213 106.918 9.86144ZM106.296 8.70142V5.33169H108.024C108.412 5.33169 108.762 5.35943 109.075 5.41451C109.389 5.46979 109.656 5.56192 109.878 5.69069C110.108 5.81968 110.283 5.99462 110.403 6.21553C110.523 6.42733 110.583 6.68975 110.583 7.00278C110.583 7.35267 110.5 7.64263 110.334 7.87285C110.177 8.10287 109.965 8.28248 109.698 8.41146C109.431 8.54024 109.117 8.63237 108.758 8.68765C108.407 8.73361 108.034 8.75669 107.637 8.75669H107.07C106.914 8.74738 106.775 8.73827 106.656 8.72895C106.517 8.71984 106.398 8.71053 106.296 8.70142ZM107.706 4.25448H106.296V1.29924C106.452 1.28082 106.628 1.26705 106.821 1.25773C107.015 1.24862 107.283 1.24396 107.624 1.24396C107.965 1.24396 108.287 1.2715 108.591 1.32678C108.896 1.38206 109.159 1.46953 109.38 1.5892C109.611 1.69975 109.79 1.85162 109.919 2.04499C110.048 2.22904 110.113 2.45927 110.113 2.73545C110.113 3.03007 110.048 3.27406 109.919 3.46743C109.799 3.6606 109.629 3.81712 109.407 3.93699C109.195 4.05666 108.942 4.13947 108.647 4.18543C108.352 4.2316 108.039 4.25448 107.706 4.25448Z" fill="#226180"/>
<path fill-rule="evenodd" clip-rule="evenodd" d="M26.1824 0.0477603C26.557 1.28945 26.9316 2.53113 27.3061 3.72507L34.47 25.6457L38.965 39.3998C38.9884 39.4953 39.0118 39.5789 39.0352 39.6625L39.0353 39.6628L39.0353 39.6628C39.0587 39.7463 39.0821 39.8297 39.1055 39.9251C38.2158 40.0684 38.2158 40.0684 37.9817 39.352L37.981 39.3498L37.9808 39.3492C33.7202 26.3601 29.4597 13.3711 25.1991 0.334307C25.1757 0.286557 25.164 0.22687 25.1523 0.16718L25.1523 0.167157C25.1406 0.107457 25.1289 0.0477582 25.1055 0C25.5269 0.0477573 25.8546 0.0477603 26.1824 0.0477603ZM21.1068 30.8333L13.0707 9.16659H14.5679L22.6041 30.8333H21.1068ZM10.4479 12.9613L16.7984 30.8333H20.0042L11.7608 9.16667H9.16562L0.9375 30.8333H4.12801L10.4479 12.9613ZM15.6719 9.16667L23.708 30.8333H25.2052L17.1691 9.16667H15.6719ZM52.3984 38L53.7812 34.0273H60.3906L61.7852 38H64.8789L58.4219 20.9375H55.7617L49.3164 38H52.3984ZM57.0859 24.5586L59.5586 31.6367H54.6133L57.0859 24.5586ZM81.2552 35.6328H73.5091V20.9375H70.5442V38H81.2552V35.6328ZM97.9595 35.6328H90.2134V20.9375H87.2486V38H97.9595V35.6328ZM114.207 36.7109C115.379 35.6875 116.051 34.2656 116.223 32.4453H113.269C113.113 33.6641 112.742 34.5352 112.156 35.0586C111.57 35.582 110.695 35.8438 109.531 35.8438C108.258 35.8438 107.289 35.3594 106.625 34.3906C105.969 33.4219 105.64 32.0156 105.64 30.1719V28.6602C105.656 26.8398 106.008 25.4609 106.695 24.5234C107.39 23.5781 108.383 23.1055 109.672 23.1055C110.781 23.1055 111.621 23.3789 112.191 23.9258C112.769 24.4648 113.129 25.3477 113.269 26.5742H116.223C116.035 24.707 115.367 23.2617 114.219 22.2383C113.07 21.2148 111.555 20.7031 109.672 20.7031C108.273 20.7031 107.039 21.0352 105.969 21.6992C104.906 22.3633 104.09 23.3086 103.519 24.5352C102.949 25.7617 102.664 27.1797 102.664 28.7891V30.3828C102.687 31.9531 102.98 33.332 103.543 34.5195C104.105 35.707 104.902 36.625 105.933 37.2734C106.973 37.9141 108.172 38.2344 109.531 38.2344C111.476 38.2344 113.035 37.7266 114.207 36.7109ZM133.196 38H136.15V20.9375H133.196V28.0391H125.567V20.9375H122.603V38H125.567V30.418H133.196V38ZM146.35 30.3828H153.358V28.0391H146.35V23.3281H154.459V20.9375H143.385V38H154.541V35.6328H146.35V30.3828ZM171.679 36.7109C172.851 35.6875 173.523 34.2656 173.695 32.4453H170.742C170.586 33.6641 170.215 34.5352 169.629 35.0586C169.043 35.582 168.168 35.8438 167.004 35.8438C165.73 35.8438 164.761 35.3594 164.097 34.3906C163.441 33.4219 163.113 32.0156 163.113 30.1719V28.6602C163.129 26.8398 163.48 25.4609 164.168 24.5234C164.863 23.5781 165.855 23.1055 167.144 23.1055C168.254 23.1055 169.093 23.3789 169.664 23.9258C170.242 24.4648 170.601 25.3477 170.742 26.5742H173.695C173.508 24.707 172.84 23.2617 171.691 22.2383C170.543 21.2148 169.027 20.7031 167.144 20.7031C165.746 20.7031 164.511 21.0352 163.441 21.6992C162.379 22.3633 161.562 23.3086 160.992 24.5352C160.422 25.7617 160.136 27.1797 160.136 28.7891V30.3828C160.16 31.9531 160.453 33.332 161.015 34.5195C161.578 35.707 162.375 36.625 163.406 37.2734C164.445 37.9141 165.644 38.2344 167.004 38.2344C168.949 38.2344 170.508 37.7266 171.679 36.7109ZM183.04 32.6797L184.974 30.6289L190.106 38H193.622L186.919 28.4961L193.259 20.9375H189.673L184.681 26.9141L183.04 28.9414V20.9375H180.075V38H183.04V32.6797ZM57.9002 9.57036C57.5499 8.55774 57.2134 7.61863 56.8908 6.75322C56.5773 5.89692 56.2685 5.08212 55.9643 4.30884C55.6601 3.53535 55.3558 2.79427 55.0516 2.08537C54.7566 1.38559 54.4524 0.690467 54.139 0H52.8806C52.5671 0.690467 52.2583 1.38559 51.9541 2.08537C51.6591 2.79427 51.3549 3.53535 51.0414 4.30884C50.7372 5.08212 50.4238 5.89692 50.1011 6.75322C49.7784 7.61863 49.4466 8.55774 49.1055 9.57036H50.5851C51.0829 8.11572 51.5715 6.71637 52.0509 5.37208C52.5303 4.028 53.0235 2.76673 53.5305 1.58828C54.0376 2.75742 54.5308 4.01423 55.0101 5.35831C55.4895 6.71171 55.9735 8.11572 56.4621 9.57036H57.9002ZM131.062 6.75322C131.384 7.61863 131.721 8.55774 132.071 9.57036H130.633C130.144 8.11572 129.661 6.71171 129.181 5.35831C128.702 4.01423 128.209 2.75742 127.702 1.58828C127.194 2.76673 126.701 4.028 126.222 5.37208C125.742 6.71637 125.254 8.11572 124.756 9.57036H123.277C123.618 8.55774 123.949 7.61863 124.272 6.75322C124.595 5.89692 124.908 5.08212 125.212 4.30884C125.526 3.53535 125.83 2.79427 126.125 2.08537C126.429 1.38559 126.738 0.690467 127.052 0H128.31C128.624 0.690467 128.928 1.38559 129.223 2.08537C129.527 2.79427 129.831 3.53535 130.135 4.30884C130.439 5.08212 130.748 5.89692 131.062 6.75322ZM147.504 10.0002C146.877 10.0002 146.333 9.90358 145.872 9.71021C145.412 9.51683 145.033 9.25442 144.738 8.92295C144.443 8.58237 144.222 8.18186 144.075 7.72142C143.936 7.26117 143.867 6.76408 143.867 6.22993V0.222656H145.209V6.07806C145.209 7.03561 145.42 7.73073 145.845 8.16344C146.269 8.59615 146.822 8.8126 147.504 8.8126C147.845 8.8126 148.154 8.76177 148.431 8.66053C148.716 8.55018 148.961 8.38435 149.164 8.16344C149.366 7.94253 149.523 7.66168 149.634 7.3209C149.744 6.97122 149.8 6.55694 149.8 6.07806V0.222656H151.141V6.22993C151.141 6.76408 151.067 7.26117 150.92 7.72142C150.781 8.18186 150.56 8.58237 150.256 8.92295C149.961 9.25442 149.583 9.51683 149.122 9.71021C148.67 9.90358 148.131 10.0002 147.504 10.0002ZM75.536 9.79293V8.63291H71.111V0.222575H69.7696V9.79293H75.536ZM93.1341 8.63291V9.79293H87.3677V0.222575H88.7093V8.63291H93.1341ZM106.918 9.86144C107.149 9.87055 107.361 9.87521 107.554 9.87521C109.085 9.87521 110.2 9.63587 110.901 9.1572C111.611 8.66922 111.965 7.94636 111.965 6.98881C111.965 6.3352 111.8 5.82879 111.468 5.46979C111.136 5.11078 110.689 4.84837 110.126 4.68273C110.542 4.5169 110.873 4.26846 111.122 3.93699C111.371 3.59621 111.495 3.1635 111.495 2.63867C111.495 2.16911 111.394 1.77325 111.191 1.4511C110.988 1.12895 110.707 0.870992 110.348 0.67762C109.998 0.475137 109.578 0.332387 109.089 0.249572C108.61 0.166756 108.094 0.125244 107.541 0.125244C107.347 0.125244 107.139 0.129901 106.918 0.139216C106.697 0.148327 106.472 0.162098 106.241 0.180524C106.019 0.19895 105.798 0.222034 105.577 0.249572C105.356 0.277312 105.153 0.314162 104.969 0.360125V9.64053C105.153 9.6865 105.356 9.72335 105.577 9.75089C105.798 9.77863 106.019 9.80151 106.241 9.81993C106.472 9.83836 106.697 9.85213 106.918 9.86144ZM106.296 8.70142V5.33169H108.024C108.412 5.33169 108.762 5.35943 109.075 5.41451C109.389 5.46979 109.656 5.56192 109.878 5.69069C110.108 5.81968 110.283 5.99462 110.403 6.21553C110.523 6.42733 110.583 6.68975 110.583 7.00278C110.583 7.35267 110.5 7.64263 110.334 7.87285C110.177 8.10287 109.965 8.28248 109.698 8.41146C109.431 8.54024 109.117 8.63237 108.758 8.68765C108.407 8.73361 108.034 8.75669 107.637 8.75669H107.07C106.914 8.74738 106.775 8.73827 106.656 8.72895C106.517 8.71984 106.398 8.71053 106.296 8.70142ZM107.706 4.25448H106.296V1.29924C106.452 1.28082 106.628 1.26705 106.821 1.25773C107.015 1.24862 107.283 1.24396 107.624 1.24396C107.965 1.24396 108.287 1.2715 108.591 1.32678C108.896 1.38206 109.159 1.46953 109.38 1.5892C109.611 1.69975 109.79 1.85162 109.919 2.04499C110.048 2.22904 110.113 2.45927 110.113 2.73545C110.113 3.03007 110.048 3.27406 109.919 3.46743C109.799 3.6606 109.629 3.81712 109.407 3.93699C109.195 4.05666 108.942 4.13947 108.647 4.18543C108.352 4.2316 108.039 4.25448 107.706 4.25448Z" fill="#005B8B"/>
</svg>
