<svg width="475" height="400" viewBox="0 0 475 400" fill="none" xmlns="http://www.w3.org/2000/svg">
<path fill-rule="evenodd" clip-rule="evenodd" d="M213.85 54.0057L235.79 0L322.284 203.787L301.188 192.677L236.071 36.5664L228.617 54.0057L282.061 181.426L262.23 170.596L213.85 54.0057ZM228.617 125.591L206.678 71.5855L150.422 206.037L170.494 194.224L206.396 108.152L213.85 125.591L190.082 182.832L210.475 170.596L228.617 125.591ZM36.7356 274.959C38.2311 278.97 39.7907 283.323 41.4143 288.017H34.7487C32.4841 281.274 30.2408 274.767 28.0189 268.494C25.797 262.264 23.5111 256.439 21.1609 251.02C18.8108 256.482 16.5249 262.328 14.3029 268.558C12.081 274.788 9.81638 281.274 7.50901 288.017H0.651025C2.232 283.323 3.77024 278.97 5.26575 274.959C6.76125 270.99 8.21404 267.214 9.62411 263.63C11.0769 260.045 12.487 256.61 13.8542 253.324C15.2643 250.081 16.6956 246.859 18.1485 243.658H23.981C25.4339 246.859 26.8439 250.081 28.2112 253.324C29.6212 256.61 31.0313 260.045 32.4413 263.63C33.8514 267.214 35.2828 270.99 36.7356 274.959ZM385.194 288.016C383.57 283.322 382.01 278.97 380.516 274.958C379.062 270.99 377.631 267.213 376.221 263.629C374.811 260.044 373.4 256.609 371.992 253.323C370.624 250.08 369.215 246.858 367.761 243.658H361.929C360.475 246.858 359.044 250.08 357.634 253.323C356.267 256.609 354.857 260.044 353.403 263.629C351.994 267.213 350.541 270.99 349.045 274.958C347.55 278.97 346.013 283.322 344.432 288.016H351.288C353.596 281.274 355.86 274.788 358.084 268.557C360.305 262.327 362.59 256.481 364.941 251.019C367.291 256.438 369.576 262.263 371.799 268.493C374.021 274.766 376.264 281.274 378.528 288.016H385.194ZM449.166 288.664C451.303 289.56 453.823 290.008 456.729 290.008C459.634 290.008 462.135 289.56 464.228 288.664C466.363 287.768 468.116 286.551 469.483 285.015C470.894 283.437 471.918 281.58 472.561 279.446C473.244 277.313 473.585 275.009 473.585 272.533V244.69H467.369V271.829C467.369 274.049 467.112 275.969 466.599 277.59C466.086 279.169 465.361 280.471 464.421 281.495C463.48 282.519 462.348 283.287 461.024 283.799C459.742 284.268 458.311 284.504 456.729 284.504C453.567 284.504 451.003 283.5 449.038 281.495C447.071 279.489 446.09 276.267 446.09 271.829V244.69H439.872V272.533C439.872 275.009 440.193 277.313 440.833 279.446C441.519 281.58 442.543 283.437 443.91 285.015C445.278 286.551 447.03 287.768 449.166 288.664ZM123.154 283.671V289.048H96.4273V244.69H102.645V283.671H123.154ZM204.723 289.048V283.671H184.214V244.69H177.996V289.048H204.723ZM271.565 289.429C270.668 289.429 269.685 289.407 268.617 289.365C267.591 289.322 266.546 289.258 265.477 289.172C264.451 289.087 263.425 288.981 262.399 288.852C261.375 288.725 260.434 288.554 259.581 288.341V245.327C260.434 245.114 261.375 244.943 262.399 244.814C263.425 244.687 264.451 244.58 265.477 244.494C266.546 244.409 267.591 244.345 268.617 244.303C269.642 244.26 270.605 244.238 271.501 244.238C274.066 244.238 276.458 244.43 278.679 244.814C280.944 245.198 282.889 245.86 284.511 246.798C286.178 247.695 287.482 248.89 288.422 250.383C289.362 251.876 289.832 253.711 289.832 255.888C289.832 258.32 289.255 260.326 288.102 261.905C286.948 263.442 285.411 264.593 283.487 265.362C286.094 266.129 288.166 267.346 289.703 269.01C291.243 270.674 292.01 273.021 292.01 276.05C292.01 280.489 290.366 283.839 287.076 286.101C283.828 288.319 278.659 289.429 271.565 289.429ZM265.733 268.37V283.988C266.203 284.03 266.758 284.074 267.401 284.116C267.955 284.159 268.597 284.201 269.322 284.244H271.95C273.787 284.244 275.518 284.137 277.142 283.924C278.808 283.668 280.262 283.241 281.499 282.644C282.738 282.046 283.723 281.214 284.447 280.148C285.217 279.081 285.601 277.737 285.601 276.115C285.601 274.664 285.324 273.448 284.768 272.466C284.213 271.442 283.402 270.631 282.333 270.034C281.307 269.437 280.069 269.01 278.615 268.754C277.162 268.498 275.54 268.37 273.744 268.37H265.733ZM265.733 263.377H272.27C273.81 263.377 275.262 263.271 276.629 263.057C277.995 262.844 279.172 262.46 280.153 261.905C281.179 261.35 281.97 260.624 282.526 259.729C283.123 258.833 283.423 257.702 283.423 256.336C283.423 255.056 283.123 253.989 282.526 253.136C281.927 252.24 281.095 251.536 280.026 251.023C279.001 250.469 277.782 250.063 276.371 249.807C274.963 249.551 273.467 249.423 271.886 249.423C270.305 249.423 269.066 249.445 268.168 249.487C267.271 249.53 266.458 249.594 265.733 249.679V263.377ZM1.6641 322.124C1.6641 320.994 2.4907 320.429 4.14393 320.429C4.88354 320.429 5.50892 320.516 6.02011 320.69C6.53132 320.863 6.91198 321.021 7.16213 321.163L7.63527 319.859C7.51563 319.793 7.35249 319.712 7.14584 319.614C6.9283 319.527 6.6727 319.44 6.37904 319.353C6.08538 319.277 5.75364 319.212 5.38384 319.158C5.00316 319.093 4.58986 319.06 4.14393 319.06C2.82788 319.06 1.81093 319.326 1.09308 319.859C0.364367 320.391 0 321.151 0 322.14C0 322.672 0.0815744 323.123 0.244721 323.492C0.407868 323.872 0.641716 324.198 0.946248 324.47C1.23992 324.741 1.5934 324.975 2.00671 325.17C2.40913 325.366 2.85507 325.561 3.34451 325.757C3.69255 325.887 4.01342 326.017 4.30707 326.148C4.58986 326.278 4.84002 326.419 5.05755 326.571C5.27508 326.734 5.44367 326.919 5.5633 327.126C5.68295 327.332 5.74277 327.588 5.74277 327.892C5.74277 328.163 5.68838 328.397 5.57963 328.592C5.45998 328.798 5.30226 328.966 5.1065 329.097C4.91072 329.227 4.68232 329.325 4.42128 329.39C4.16024 329.455 3.87745 329.488 3.57291 329.488C2.97471 329.488 2.45265 329.418 2.00671 329.276C1.5499 329.145 1.20729 329.01 0.978885 328.869L0.473127 330.156C0.734161 330.33 1.14747 330.487 1.71304 330.628C2.26773 330.78 2.88771 330.856 3.57291 330.856C4.75844 330.856 5.68838 330.579 6.36272 330.026C7.03707 329.472 7.37424 328.701 7.37424 327.712C7.37424 327.234 7.29809 326.826 7.14584 326.489C6.98269 326.153 6.76515 325.86 6.49325 325.61C6.22134 325.371 5.90046 325.16 5.53067 324.975C5.16087 324.801 4.76932 324.643 4.35602 324.503C3.99709 324.372 3.65993 324.242 3.34451 324.111C3.01822 323.981 2.72999 323.823 2.47983 323.638C2.22966 323.465 2.0339 323.254 1.89251 323.003C1.74022 322.765 1.6641 322.471 1.6641 322.124ZM63.8871 325.291C63.8871 324.325 64.0285 323.471 64.3111 322.733C64.6048 321.994 64.9964 321.38 65.4859 320.892C65.9861 320.392 66.5626 320.018 67.2152 319.768C67.8786 319.518 68.5803 319.393 69.3198 319.393C70.0485 319.393 70.7338 319.518 71.3755 319.768C72.0281 320.018 72.599 320.392 73.0886 320.892C73.5779 321.38 73.964 321.994 74.2469 322.733C74.5405 323.471 74.6873 324.325 74.6873 325.291C74.6873 326.258 74.5405 327.111 74.2469 327.85C73.964 328.588 73.5779 329.208 73.0886 329.707C72.599 330.196 72.0281 330.565 71.3755 330.814C70.7338 331.065 70.0485 331.19 69.3198 331.19C68.5803 331.19 67.8786 331.065 67.2152 330.814C66.5626 330.565 65.9861 330.196 65.4859 329.707C64.9964 329.208 64.6048 328.588 64.3111 327.85C64.0285 327.111 63.8871 326.258 63.8871 325.291ZM65.5511 325.291C65.5511 325.975 65.6382 326.6 65.8121 327.165C65.9861 327.719 66.2309 328.191 66.5462 328.583C66.8726 328.974 67.2642 329.278 67.721 329.495C68.1886 329.701 68.7108 329.804 69.2871 329.804C69.8637 329.804 70.3803 329.701 70.837 329.495C71.2938 329.278 71.68 328.974 71.9954 328.583C72.3217 328.191 72.5719 327.719 72.7459 327.165C72.92 326.6 73.0069 325.975 73.0069 325.291C73.0069 324.607 72.92 323.988 72.7459 323.434C72.5719 322.869 72.3217 322.391 71.9954 322C71.68 321.609 71.2938 321.31 70.837 321.104C70.3803 320.887 69.8637 320.778 69.2871 320.778C68.7108 320.778 68.1886 320.887 67.721 321.104C67.2642 321.31 66.8726 321.609 66.5462 322C66.2309 322.391 65.9861 322.869 65.8121 323.434C65.6382 323.988 65.5511 324.607 65.5511 325.291ZM131.941 319.654V330.945H133.524V325.747H138.173V324.411H133.524V321.006H138.761V319.654H131.941ZM207.072 319.654V321.022H203.515V330.945H201.933V321.022H198.376V319.654H207.072ZM271.913 327.328C272.38 326.089 272.843 324.742 273.299 323.287C273.756 324.742 274.213 326.089 274.669 327.328C275.126 328.566 275.594 329.772 276.073 330.945H277.655C278.221 329.283 278.722 327.529 279.156 325.682C279.602 323.836 280.021 321.825 280.413 319.654H278.798C278.645 320.5 278.487 321.353 278.324 322.211C278.161 323.059 277.992 323.884 277.818 324.688C277.655 325.481 277.486 326.241 277.313 326.969C277.139 327.697 276.964 328.365 276.79 328.973C276.355 327.833 275.887 326.584 275.388 325.226C274.888 323.857 274.425 322.445 274.002 320.989H272.631C272.206 322.445 271.75 323.857 271.26 325.226C270.77 326.584 270.307 327.833 269.872 328.973C269.687 328.354 269.508 327.681 269.334 326.952C269.162 326.225 268.986 325.465 268.812 324.672C268.639 323.868 268.47 323.043 268.306 322.195C268.143 321.348 267.985 320.5 267.834 319.654H266.169C266.55 321.825 266.958 323.836 267.393 325.682C267.839 327.529 268.351 329.283 268.928 330.945H270.51C270.977 329.772 271.446 328.566 271.913 327.328ZM344.262 331.186C344.063 330.661 343.876 330.147 343.701 329.645C343.526 329.132 343.345 328.613 343.158 328.087H337.654L336.549 331.186H334.779C335.246 329.902 335.684 328.718 336.094 327.632C336.503 326.535 336.9 325.496 337.285 324.516C337.683 323.536 338.075 322.602 338.46 321.715C338.846 320.817 339.249 319.93 339.669 319.054H341.229C341.65 319.93 342.053 320.817 342.439 321.715C342.825 322.602 343.21 323.536 343.596 324.516C343.993 325.496 344.396 326.535 344.806 327.632C345.215 328.718 345.654 329.902 346.121 331.186H344.262ZM342.667 326.687C342.292 325.672 341.92 324.691 341.545 323.746C341.183 322.789 340.803 321.873 340.406 320.998C339.996 321.873 339.605 322.789 339.231 323.746C338.87 324.691 338.506 325.672 338.144 326.687H342.667ZM408.48 327.078C408.219 326.719 408.001 326.431 407.829 326.214C408.601 325.953 409.183 325.557 409.573 325.024C409.976 324.492 410.177 323.852 410.177 323.102C410.177 321.918 409.758 321.027 408.921 320.43C408.095 319.833 406.888 319.534 405.299 319.534C404.842 319.534 404.337 319.556 403.782 319.599C403.237 319.632 402.744 319.702 402.297 319.811V330.939H403.88V326.524H405.299H405.739C405.892 326.524 406.038 326.518 406.18 326.507C406.386 326.758 406.613 327.051 406.865 327.387C407.127 327.724 407.387 328.088 407.648 328.479C407.909 328.859 408.164 329.261 408.415 329.685C408.676 330.108 408.915 330.527 409.133 330.939H410.862C410.667 330.505 410.427 330.054 410.145 329.586C409.872 329.12 409.595 328.674 409.311 328.251C409.03 327.816 408.752 327.425 408.48 327.078ZM403.88 320.968C404.238 320.935 404.755 320.918 405.43 320.918C405.854 320.918 406.251 320.951 406.62 321.017C407.001 321.082 407.328 321.196 407.598 321.359C407.882 321.522 408.106 321.744 408.268 322.027C408.432 322.309 408.514 322.662 408.514 323.086C408.514 323.542 408.432 323.911 408.268 324.194C408.106 324.465 407.871 324.677 407.566 324.829C407.273 324.981 406.909 325.084 406.473 325.139C406.038 325.193 405.55 325.22 405.006 325.22H403.88V320.968ZM467.563 330.945V319.654H474.465V321.006H469.146V324.362H473.877V325.682H469.146V329.592H474.873V330.945H467.563ZM13.1805 397.377C13.4355 398.107 13.7074 398.854 13.9964 399.618H16.699C16.0191 397.75 15.3817 396.027 14.7868 394.449C14.1919 392.853 13.6055 391.342 13.0275 389.917C12.4666 388.49 11.9057 387.132 11.3447 385.843C10.7838 384.535 10.1974 383.245 9.58546 381.972H7.31625C6.70433 383.245 6.11791 384.535 5.55698 385.843C4.99605 387.132 4.42664 388.49 3.84871 389.917C3.28778 391.342 2.70985 392.853 2.11494 394.449C1.52002 396.027 0.882597 397.75 0.202685 399.618H2.77784L4.38414 395.111H12.3901C12.6621 395.875 12.9255 396.631 13.1805 397.377ZM10.0444 388.796C10.5883 390.171 11.1323 391.597 11.6762 393.074H5.09804C5.62498 391.597 6.1519 390.171 6.67884 388.796C7.22276 387.404 7.79219 386.072 8.38711 384.798C8.96504 386.072 9.51742 387.404 10.0444 388.796ZM30.495 399.618V397.479H22.336V381.972H19.8628V399.618H30.495ZM44.4812 399.618V397.479H36.3222V381.972H33.8491V399.618H44.4812ZM58.238 383.22C56.9122 382.269 55.0085 381.794 52.5268 381.794C51.8129 381.794 51.0225 381.828 50.1556 381.895C49.3058 381.947 48.5324 382.057 47.8354 382.227V399.618H50.3086V393.074H52.2718C53.5127 393.074 54.6261 392.972 55.6119 392.769C56.5977 392.564 57.4307 392.242 58.1105 391.801C58.8075 391.342 59.3343 390.757 59.6913 390.043C60.0654 389.314 60.2523 388.439 60.2523 387.421C60.2523 385.554 59.5809 384.153 58.238 383.22ZM50.3086 384.034C50.8695 383.983 51.6769 383.958 52.7307 383.958C53.3936 383.958 54.0226 384.009 54.6175 384.111C55.2125 384.212 55.7309 384.399 56.1728 384.671C56.6318 384.926 56.9887 385.274 57.2436 385.715C57.5157 386.156 57.6516 386.716 57.6516 387.396C57.6516 388.108 57.5241 388.694 57.2692 389.153C57.0141 389.611 56.6488 389.976 56.1728 390.247C55.7138 390.502 55.1444 390.689 54.4645 390.807C53.7847 390.91 53.0198 390.96 52.1698 390.96H50.3086V384.034ZM74.7445 399.618V397.479H66.5856V381.972H64.1124V399.618H74.7445ZM89.8099 397.377C90.0648 398.107 90.3369 398.854 90.6258 399.618H93.3284C92.6484 397.75 92.011 396.027 91.4162 394.449C90.8213 392.853 90.2348 391.342 89.6569 389.917C89.096 388.49 88.535 387.132 87.9741 385.843C87.4132 384.535 86.8268 383.245 86.2148 381.972H83.9456C83.3337 383.245 82.7473 384.535 82.1864 385.843C81.6254 387.132 81.0561 388.49 80.4781 389.917C79.9172 391.342 79.3392 392.853 78.7443 394.449C78.1494 396.027 77.512 397.75 76.832 399.618H79.4073L81.0135 395.111H89.0195C89.2915 395.875 89.5549 396.631 89.8099 397.377ZM86.6738 388.796C87.2176 390.171 87.7617 391.597 88.3056 393.074H81.7274C82.2544 391.597 82.7812 390.171 83.3082 388.796C83.8521 387.404 84.4216 386.072 85.0165 384.798C85.5945 386.072 86.1468 387.404 86.6738 388.796ZM107.303 397.504C107.796 398.285 108.229 398.99 108.603 399.618H110.669V381.972H108.246V395.034C107.702 394.135 107.031 393.108 106.232 391.953C105.45 390.799 104.608 389.628 103.708 388.439C102.824 387.234 101.923 386.072 101.006 384.951C100.104 383.814 99.2539 382.821 98.4551 381.972H96.492V399.618H98.9146V385.843C99.3901 386.385 99.9089 387.014 100.47 387.726C101.031 388.439 101.609 389.203 102.204 390.018C102.799 390.816 103.393 391.648 103.988 392.513C104.6 393.38 105.186 394.237 105.747 395.085C106.308 395.917 106.827 396.724 107.303 397.504ZM139.541 383.22C138.215 382.269 136.312 381.794 133.831 381.794C133.116 381.794 132.326 381.828 131.459 381.895C130.609 381.947 129.836 382.057 129.138 382.227V399.618H131.612V393.074H133.575C134.816 393.074 135.93 392.972 136.916 392.769C137.901 392.564 138.734 392.242 139.414 391.801C140.111 391.342 140.638 390.757 140.995 390.043C141.369 389.314 141.556 388.439 141.556 387.421C141.556 385.554 140.884 384.153 139.541 383.22ZM131.612 384.034C132.173 383.983 132.98 383.958 134.034 383.958C134.697 383.958 135.326 384.009 135.921 384.111C136.516 384.212 137.034 384.399 137.476 384.671C137.935 384.926 138.292 385.274 138.547 385.715C138.819 386.156 138.955 386.716 138.955 387.396C138.955 388.108 138.828 388.694 138.572 389.153C138.318 389.611 137.952 389.976 137.476 390.247C137.017 390.502 136.448 390.689 135.768 390.807C135.088 390.91 134.323 390.96 133.473 390.96H131.612V384.034ZM156.048 399.618V397.479H147.889V381.972H145.416V399.618H156.048ZM162.523 399.465C163.373 399.822 164.376 400 165.532 400C166.687 400 167.683 399.822 168.515 399.465C169.365 399.108 170.061 398.625 170.606 398.014C171.167 397.385 171.575 396.648 171.831 395.798C172.101 394.95 172.238 394.033 172.238 393.048V381.972H169.765V392.769C169.765 393.651 169.663 394.415 169.459 395.06C169.255 395.688 168.965 396.206 168.592 396.613C168.217 397.021 167.766 397.326 167.241 397.53C166.731 397.716 166.16 397.81 165.532 397.81C164.273 397.81 163.254 397.411 162.473 396.613C161.691 395.815 161.3 394.534 161.3 392.769V381.972H158.827V393.048C158.827 394.033 158.954 394.95 159.209 395.798C159.481 396.648 159.888 397.385 160.433 398.014C160.977 398.625 161.673 399.108 162.523 399.465ZM190.53 390.935H188.057V397.504C187.837 397.572 187.471 397.649 186.961 397.733C186.469 397.802 185.865 397.836 185.15 397.836C184.149 397.836 183.274 397.666 182.525 397.326C181.795 396.986 181.173 396.511 180.663 395.901C180.171 395.272 179.797 394.526 179.541 393.659C179.304 392.794 179.184 391.835 179.184 390.782C179.184 389.696 179.33 388.72 179.618 387.854C179.908 386.971 180.306 386.225 180.816 385.613C181.344 385.002 181.973 384.535 182.703 384.212C183.452 383.891 184.276 383.729 185.176 383.729C186.027 383.729 186.859 383.839 187.675 384.059C188.49 384.264 189.145 384.527 189.638 384.85L190.428 382.787C190.327 382.718 190.132 382.617 189.842 382.481C189.571 382.346 189.214 382.21 188.771 382.074C188.33 381.938 187.794 381.819 187.165 381.717C186.553 381.616 185.849 381.565 185.049 381.565C183.876 381.565 182.771 381.769 181.734 382.176C180.714 382.583 179.822 383.177 179.057 383.958C178.292 384.739 177.68 385.707 177.221 386.861C176.78 387.998 176.558 389.306 176.558 390.782C176.558 392.259 176.754 393.566 177.145 394.704C177.553 395.84 178.123 396.8 178.853 397.58C179.584 398.362 180.459 398.956 181.479 399.364C182.499 399.771 183.63 399.975 184.87 399.975C185.482 399.975 186.086 399.941 186.68 399.872C187.276 399.822 187.82 399.754 188.313 399.669C188.822 399.584 189.266 399.499 189.638 399.414C190.03 399.33 190.326 399.253 190.53 399.185V390.935ZM197.64 381.972H195.168V399.618H197.64V381.972ZM213.591 397.504C214.085 398.285 214.518 398.99 214.891 399.618H216.956V381.972H214.534V395.034C213.991 394.135 213.32 393.108 212.519 391.953C211.738 390.799 210.897 389.628 209.995 388.439C209.113 387.234 208.211 386.072 207.292 384.951C206.392 383.814 205.543 382.821 204.743 381.972H202.78V399.618H205.203V385.843C205.679 386.385 206.197 387.014 206.758 387.726C207.319 388.439 207.897 389.203 208.492 390.018C209.087 390.816 209.681 391.648 210.276 392.513C210.888 393.38 211.474 394.237 212.035 395.085C212.596 395.917 213.116 396.724 213.591 397.504ZM230.075 395.213C230.075 396.978 228.783 397.861 226.2 397.861C225.045 397.861 224.067 397.725 223.268 397.454C222.47 397.182 221.873 396.936 221.483 396.715L220.744 398.752C220.847 398.808 220.972 398.873 221.118 398.945C221.235 399.003 221.365 399.066 221.509 399.134C221.848 399.27 222.248 399.406 222.707 399.542C223.167 399.66 223.684 399.762 224.262 399.847C224.857 399.949 225.504 400 226.2 400C228.257 400 229.846 399.584 230.968 398.752C232.107 397.92 232.677 396.732 232.677 395.187C232.677 394.356 232.549 393.651 232.294 393.074C232.039 392.48 231.674 391.97 231.198 391.546C230.739 391.122 230.185 390.757 229.541 390.452C228.911 390.146 228.215 389.84 227.45 389.535C226.906 389.331 226.404 389.127 225.945 388.924C225.504 388.72 225.112 388.499 224.773 388.261C224.433 388.007 224.168 387.718 223.982 387.396C223.795 387.073 223.701 386.674 223.701 386.199C223.701 385.774 223.786 385.409 223.957 385.104C224.143 384.781 224.39 384.518 224.695 384.315C225.002 384.111 225.359 383.958 225.767 383.856C226.175 383.754 226.616 383.704 227.093 383.704C228.028 383.704 228.843 383.814 229.541 384.034C230.254 384.238 230.79 384.45 231.147 384.671L231.937 382.659C231.529 382.388 230.884 382.142 229.999 381.921C229.132 381.683 228.163 381.565 227.093 381.565C225.24 381.565 223.786 381.998 222.732 382.863C221.679 383.729 221.152 384.934 221.152 386.479C221.152 387.226 221.271 387.862 221.509 388.389C221.763 388.915 222.104 389.373 222.528 389.764C222.954 390.137 223.455 390.468 224.033 390.757C224.612 391.029 225.224 391.275 225.869 391.495C226.429 391.699 226.957 391.902 227.45 392.106C227.959 392.31 228.41 392.556 228.801 392.845C229.191 393.116 229.498 393.447 229.718 393.838C229.956 394.211 230.075 394.669 230.075 395.213ZM249.049 393.176C248.845 393.685 248.742 394.27 248.742 394.933C248.742 395.458 248.834 396.01 249.023 396.587C249.209 397.165 249.523 397.7 249.966 398.192C250.425 398.667 251.019 399.066 251.751 399.389C252.481 399.694 253.399 399.847 254.505 399.847C255.694 399.847 256.748 399.635 257.666 399.211C258.584 398.77 259.391 398.201 260.089 397.504C260.41 397.861 260.716 398.218 261.006 398.574C261.312 398.93 261.567 399.278 261.771 399.618H264.27C263.946 399.024 263.53 398.413 263.021 397.784C262.526 397.156 261.983 396.52 261.388 395.875C261.899 395.06 262.289 394.245 262.561 393.43C262.85 392.599 263.028 391.835 263.097 391.139L261.134 390.884C260.964 392.191 260.589 393.38 260.012 394.449L255.882 390.247C256.356 389.993 256.807 389.705 257.233 389.382C257.657 389.059 258.032 388.702 258.355 388.312C258.694 387.922 258.957 387.489 259.145 387.014C259.349 386.538 259.451 386.003 259.451 385.409C259.451 384.883 259.357 384.382 259.171 383.907C258.983 383.432 258.702 383.024 258.33 382.685C257.972 382.346 257.521 382.074 256.978 381.87C256.45 381.666 255.847 381.565 255.167 381.565C254.505 381.565 253.893 381.666 253.332 381.87C252.787 382.074 252.312 382.363 251.904 382.736C251.512 383.11 251.198 383.568 250.961 384.111C250.739 384.654 250.629 385.265 250.629 385.944C250.629 387.285 251.257 388.584 252.516 389.84C252.022 390.078 251.547 390.358 251.088 390.681C250.629 390.986 250.222 391.351 249.864 391.775C249.523 392.182 249.253 392.65 249.049 393.176ZM251.292 395.875C251.173 395.519 251.113 395.187 251.113 394.881C251.113 394.339 251.19 393.863 251.344 393.456C251.512 393.048 251.725 392.7 251.981 392.412C252.235 392.106 252.516 391.852 252.822 391.648C253.144 391.445 253.459 391.266 253.765 391.113L258.737 396.129C258.192 396.69 257.565 397.122 256.85 397.428C256.152 397.733 255.387 397.886 254.556 397.886C253.909 397.886 253.365 397.793 252.924 397.607C252.499 397.402 252.15 397.156 251.878 396.868C251.606 396.562 251.41 396.231 251.292 395.875ZM256.723 384.034C257.114 384.425 257.309 384.909 257.309 385.486C257.309 385.927 257.233 386.326 257.08 386.683C256.943 387.022 256.748 387.336 256.493 387.625C256.255 387.913 255.966 388.168 255.627 388.389C255.303 388.609 254.954 388.813 254.581 389C253.424 387.948 252.847 386.869 252.847 385.766C252.847 385.104 253.042 384.552 253.434 384.111C253.841 383.652 254.418 383.423 255.167 383.423C255.831 383.423 256.349 383.627 256.723 384.034ZM291.242 383.22C289.916 382.269 288.014 381.794 285.531 381.794C284.817 381.794 284.027 381.828 283.159 381.895C282.311 381.947 281.537 382.057 280.84 382.227V399.618H283.312V393.074H285.276C286.517 393.074 287.631 392.972 288.616 392.769C289.602 392.564 290.436 392.242 291.115 391.801C291.812 391.342 292.339 390.757 292.696 390.043C293.07 389.314 293.257 388.439 293.257 387.421C293.257 385.554 292.586 384.153 291.242 383.22ZM283.312 384.034C283.873 383.983 284.682 383.958 285.735 383.958C286.398 383.958 287.027 384.009 287.622 384.111C288.218 384.212 288.736 384.399 289.177 384.671C289.636 384.926 289.993 385.274 290.248 385.715C290.52 386.156 290.656 386.716 290.656 387.396C290.656 388.108 290.529 388.694 290.273 389.153C290.018 389.611 289.654 389.976 289.177 390.247C288.718 390.502 288.149 390.689 287.469 390.807C286.789 390.91 286.025 390.96 285.174 390.96H283.312V384.034ZM306.78 393.583C306.373 393.023 306.031 392.573 305.761 392.234C306.967 391.826 307.877 391.206 308.489 390.375C309.117 389.543 309.432 388.542 309.432 387.37C309.432 385.52 308.777 384.128 307.469 383.194C306.177 382.26 304.29 381.794 301.809 381.794C301.095 381.794 300.305 381.828 299.437 381.895C298.587 381.947 297.814 382.057 297.117 382.227V399.618H299.591V392.717H301.809H302.497C302.735 392.717 302.964 392.709 303.186 392.692C303.507 393.082 303.864 393.54 304.256 394.067C304.664 394.593 305.073 395.162 305.481 395.773C305.889 396.367 306.287 396.995 306.679 397.657C307.087 398.319 307.46 398.973 307.801 399.618H310.504C310.197 398.938 309.822 398.235 309.382 397.504C308.956 396.774 308.523 396.079 308.081 395.416C307.638 394.738 307.204 394.126 306.78 393.583ZM299.591 384.034C300.152 383.983 300.958 383.958 302.013 383.958C302.676 383.958 303.296 384.009 303.874 384.111C304.469 384.212 304.978 384.391 305.404 384.645C305.845 384.9 306.194 385.249 306.45 385.69C306.704 386.131 306.832 386.683 306.832 387.344C306.832 388.057 306.704 388.635 306.45 389.076C306.194 389.501 305.828 389.831 305.353 390.07C304.894 390.307 304.324 390.468 303.645 390.553C302.964 390.637 302.199 390.681 301.35 390.681H299.591V384.034ZM313.592 386.785C313.15 387.938 312.928 389.271 312.928 390.782C312.928 392.293 313.15 393.626 313.592 394.78C314.05 395.934 314.662 396.902 315.427 397.683C316.21 398.447 317.11 399.024 318.13 399.414C319.167 399.805 320.264 400 321.419 400C322.559 400 323.629 399.805 324.632 399.414C325.651 399.024 326.544 398.447 327.309 397.683C328.074 396.902 328.677 395.934 329.119 394.78C329.578 393.626 329.808 392.293 329.808 390.782C329.808 389.271 329.578 387.938 329.119 386.785C328.677 385.631 328.074 384.671 327.309 383.907C326.544 383.127 325.651 382.541 324.632 382.151C323.629 381.76 322.559 381.565 321.419 381.565C320.264 381.565 319.167 381.76 318.13 382.151C317.11 382.541 316.21 383.127 315.427 383.907C314.662 384.671 314.05 385.631 313.592 386.785ZM315.937 393.71C315.667 392.828 315.529 391.852 315.529 390.782C315.529 389.713 315.667 388.745 315.937 387.879C316.21 386.997 316.592 386.25 317.085 385.639C317.595 385.027 318.207 384.561 318.92 384.238C319.652 383.899 320.468 383.729 321.368 383.729C322.27 383.729 323.076 383.899 323.791 384.238C324.504 384.561 325.108 385.027 325.601 385.639C326.111 386.25 326.503 386.997 326.773 387.879C327.046 388.745 327.181 389.713 327.181 390.782C327.181 391.852 327.046 392.828 326.773 393.71C326.503 394.576 326.111 395.315 325.601 395.926C325.108 396.537 324.504 397.013 323.791 397.351C323.076 397.674 322.27 397.836 321.368 397.836C320.468 397.836 319.652 397.674 318.92 397.351C318.207 397.013 317.595 396.537 317.085 395.926C316.592 395.315 316.21 394.576 315.937 393.71ZM347.51 390.935H345.037V397.504C344.817 397.572 344.451 397.649 343.94 397.733C343.448 397.802 342.844 397.836 342.131 397.836C341.128 397.836 340.253 397.666 339.504 397.326C338.775 396.986 338.153 396.511 337.643 395.901C337.151 395.272 336.776 394.526 336.521 393.659C336.283 392.794 336.164 391.835 336.164 390.782C336.164 389.696 336.309 388.72 336.597 387.854C336.888 386.971 337.286 386.225 337.796 385.613C338.324 385.002 338.952 384.535 339.683 384.212C340.431 383.891 341.256 383.729 342.156 383.729C343.006 383.729 343.839 383.839 344.655 384.059C345.47 384.264 346.125 384.527 346.618 384.85L347.408 382.787C347.307 382.718 347.112 382.617 346.822 382.481C346.551 382.346 346.194 382.21 345.75 382.074C345.31 381.938 344.774 381.819 344.144 381.717C343.533 381.616 342.828 381.565 342.028 381.565C340.855 381.565 339.751 381.769 338.714 382.176C337.694 382.583 336.801 383.177 336.036 383.958C335.271 384.739 334.66 385.707 334.201 386.861C333.759 387.998 333.538 389.306 333.538 390.782C333.538 392.259 333.734 393.566 334.124 394.704C334.533 395.84 335.103 396.8 335.832 397.58C336.564 398.362 337.439 398.956 338.459 399.364C339.479 399.771 340.61 399.975 341.85 399.975C342.461 399.975 343.066 399.941 343.66 399.872C344.256 399.822 344.799 399.754 345.292 399.669C345.802 399.584 346.245 399.499 346.618 399.414C347.01 399.33 347.307 399.253 347.51 399.185V390.935ZM361.81 393.583C361.403 393.023 361.063 392.573 360.791 392.234C361.998 391.826 362.907 391.206 363.519 390.375C364.149 389.543 364.462 388.542 364.462 387.37C364.462 385.52 363.809 384.128 362.499 383.194C361.208 382.26 359.321 381.794 356.838 381.794C356.125 381.794 355.335 381.828 354.467 381.895C353.618 381.947 352.845 382.057 352.147 382.227V399.618H354.621V392.717H356.838H357.527C357.766 392.717 357.995 392.709 358.215 392.692C358.539 393.082 358.896 393.54 359.286 394.067C359.694 394.593 360.102 395.162 360.51 395.773C360.918 396.367 361.318 396.995 361.709 397.657C362.117 398.319 362.491 398.973 362.83 399.618H365.533C365.227 398.938 364.854 398.235 364.411 397.504C363.987 396.774 363.554 396.079 363.111 395.416C362.669 394.738 362.236 394.126 361.81 393.583ZM354.621 384.034C355.182 383.983 355.99 383.958 357.042 383.958C357.706 383.958 358.327 384.009 358.904 384.111C359.5 384.212 360.01 384.391 360.434 384.645C360.876 384.9 361.224 385.249 361.479 385.69C361.734 386.131 361.861 386.683 361.861 387.344C361.861 388.057 361.734 388.635 361.479 389.076C361.224 389.501 360.859 389.831 360.383 390.07C359.923 390.307 359.355 390.468 358.675 390.553C357.995 390.637 357.231 390.681 356.38 390.681H354.621V384.034ZM380.659 397.377C380.914 398.107 381.186 398.854 381.474 399.618H384.177C383.497 397.75 382.86 396.027 382.265 394.449C381.671 392.853 381.084 391.342 380.506 389.917C379.945 388.49 379.384 387.132 378.823 385.843C378.262 384.535 377.676 383.245 377.064 381.972H374.795C374.183 383.245 373.597 384.535 373.036 385.843C372.475 387.132 371.906 388.49 371.327 389.917C370.766 391.342 370.188 392.853 369.593 394.449C368.999 396.027 368.361 397.75 367.681 399.618H370.256L371.863 395.111H379.868C380.141 395.875 380.404 396.631 380.659 397.377ZM377.523 388.796C378.066 390.171 378.611 391.597 379.154 393.074H372.576C373.104 391.597 373.63 390.171 374.158 388.796C374.701 387.404 375.271 386.072 375.865 384.798C376.444 386.072 376.996 387.404 377.523 388.796ZM394.582 395.62C394.871 396.249 395.102 396.766 395.27 397.173H397.259C397.429 396.766 397.651 396.249 397.922 395.62C398.212 394.992 398.517 394.314 398.84 393.583C399.163 392.853 399.502 392.106 399.859 391.342C400.234 390.561 400.583 389.831 400.904 389.153C401.229 388.456 401.527 387.837 401.797 387.294C402.088 386.75 402.317 386.334 402.486 386.046C402.674 388.049 402.827 390.222 402.945 392.564C403.064 394.89 403.166 397.242 403.251 399.618H405.673C405.384 393.54 404.951 387.659 404.372 381.972H402.205C401.746 382.718 401.254 383.601 400.727 384.62C400.201 385.639 399.673 386.708 399.145 387.828C398.62 388.932 398.11 390.043 397.615 391.164C397.305 391.862 397.01 392.522 396.732 393.145C396.57 393.507 396.414 393.857 396.264 394.194L396.264 394.193C395.856 393.277 395.407 392.267 394.914 391.164C394.421 390.043 393.911 388.932 393.384 387.828C392.857 386.708 392.33 385.639 391.802 384.62C391.277 383.601 390.783 382.718 390.324 381.972H388.157C388.004 383.245 387.86 384.594 387.723 386.021C387.605 387.447 387.486 388.915 387.367 390.425C387.264 391.919 387.172 393.447 387.086 395.009C387.001 396.554 386.925 398.09 386.856 399.618H389.278C389.365 397.242 389.466 394.89 389.584 392.564C389.704 390.222 389.857 388.049 390.043 386.046C390.214 386.334 390.436 386.75 390.706 387.294C390.996 387.837 391.302 388.456 391.625 389.153C391.948 389.831 392.287 390.561 392.644 391.342C393.018 392.106 393.368 392.853 393.689 393.583C394.012 394.314 394.311 394.992 394.582 395.62ZM417.557 395.62C417.846 396.249 418.075 396.766 418.245 397.173H420.235C420.405 396.766 420.625 396.249 420.897 395.62C421.186 394.992 421.492 394.314 421.815 393.583C422.139 392.853 422.478 392.106 422.835 391.342C423.084 390.823 423.321 390.326 423.547 389.852C423.661 389.613 423.772 389.38 423.881 389.153C424.204 388.456 424.5 387.837 424.773 387.294C425.061 386.75 425.291 386.334 425.462 386.046C425.648 388.049 425.801 390.222 425.92 392.564C426.04 394.89 426.142 397.242 426.227 399.618H428.648C428.36 393.54 427.927 387.659 427.348 381.972H425.181C424.722 382.718 424.23 383.601 423.702 384.62C423.174 385.639 422.649 386.708 422.121 387.828C421.594 388.932 421.084 390.043 420.592 391.164C420.352 391.702 420.121 392.219 419.901 392.712C419.67 393.231 419.449 393.725 419.241 394.194L419.148 393.988C418.764 393.126 418.345 392.185 417.889 391.164C417.397 390.043 416.887 388.932 416.359 387.828C415.831 386.708 415.306 385.639 414.779 384.62C414.251 383.601 413.758 382.718 413.3 381.972H411.133C410.979 383.245 410.835 384.594 410.698 386.021C410.579 387.447 410.462 388.915 410.342 390.425C410.24 391.919 410.146 393.447 410.061 395.009C409.977 396.554 409.901 398.09 409.832 399.618H412.255C412.338 397.242 412.441 394.89 412.56 392.564C412.679 390.222 412.832 388.049 413.019 386.046C413.19 386.334 413.41 386.75 413.682 387.294C413.971 387.837 414.276 388.456 414.6 389.153C414.923 389.831 415.263 390.561 415.62 391.342C415.994 392.106 416.341 392.853 416.665 393.583C416.988 394.314 417.285 394.992 417.557 395.62ZM435.764 381.972H433.291V399.618H435.764V381.972ZM451.713 397.504C452.207 398.285 452.641 398.99 453.014 399.618H455.079V381.972H452.657V395.034C452.113 394.135 451.442 393.108 450.643 391.953C449.862 390.799 449.02 389.628 448.119 388.439C447.235 387.234 446.333 386.072 445.416 384.951C444.516 383.814 443.666 382.821 442.866 381.972H440.902V399.618H443.325V385.843C443.802 386.385 444.319 387.014 444.88 387.726C445.441 388.439 446.019 389.203 446.614 390.018C447.21 390.816 447.805 391.648 448.399 392.513C449.01 393.38 449.597 394.237 450.158 395.085C450.719 395.917 451.239 396.724 451.713 397.504ZM473.477 390.935H471.003V397.504C470.781 397.572 470.417 397.649 469.906 397.733C469.414 397.802 468.811 397.836 468.096 397.836C467.094 397.836 466.218 397.666 465.47 397.326C464.739 396.986 464.119 396.511 463.609 395.901C463.117 395.272 462.742 394.526 462.487 393.659C462.249 392.794 462.13 391.835 462.13 390.782C462.13 389.696 462.276 388.72 462.563 387.854C462.852 386.971 463.252 386.225 463.762 385.613C464.29 385.002 464.917 384.535 465.649 384.212C466.397 383.891 467.222 383.729 468.122 383.729C468.971 383.729 469.805 383.839 470.621 384.059C471.436 384.264 472.091 384.527 472.584 384.85L473.374 382.787C473.273 382.718 473.076 382.617 472.788 382.481C472.515 382.346 472.158 382.21 471.717 382.074C471.276 381.938 470.74 381.819 470.11 381.717C469.499 381.616 468.793 381.565 467.995 381.565C466.821 381.565 465.717 381.769 464.68 382.176C463.66 382.583 462.768 383.177 462.003 383.958C461.238 384.739 460.626 385.707 460.167 386.861C459.725 387.998 459.504 389.306 459.504 390.782C459.504 392.259 459.7 393.566 460.091 394.704C460.499 395.84 461.067 396.8 461.799 397.58C462.53 398.362 463.405 398.956 464.425 399.364C465.445 399.771 466.575 399.975 467.816 399.975C468.428 399.975 469.032 399.941 469.626 399.872C470.22 399.822 470.765 399.754 471.258 399.669C471.768 399.584 472.21 399.499 472.584 399.414C472.975 399.33 473.273 399.253 473.477 399.185V390.935Z" fill="white"/>
</svg>
