<svg width="170" height="56" viewBox="0 0 170 56" fill="none" xmlns="http://www.w3.org/2000/svg">
<path fill-rule="evenodd" clip-rule="evenodd" d="M77.0662 18.6569C74.9017 12.3718 72.8027 6.21896 70.7038 0.0661631C69.8511 0.0661631 68.9984 0.0661591 68.1457 0C66.9117 3.6176 65.6549 7.2352 64.3888 10.8797C63.5015 13.4337 62.6096 16.001 61.7178 18.5907C61.9285 18.5907 62.1141 18.5823 62.2866 18.5744C62.5974 18.5603 62.8655 18.5482 63.1607 18.5907C63.7511 18.6569 63.9478 18.3922 64.1446 17.863C64.3414 17.2675 64.5546 16.6721 64.7678 16.0766C64.9809 15.4812 65.1941 14.8858 65.3909 14.2904C65.5877 13.8273 65.7844 13.6949 66.3092 13.6949C67.0113 13.6949 67.706 13.7023 68.3984 13.7097C69.7758 13.7244 71.1436 13.739 72.5404 13.6949C73.0651 13.6949 73.2619 13.8934 73.3931 14.3565L73.3934 14.3576C73.7869 15.6143 74.1803 16.8709 74.6393 18.1276C74.7049 18.3922 74.9673 18.6569 75.1641 18.6569C75.549 18.7 75.9338 18.6869 76.3551 18.6725C76.5799 18.6649 76.8151 18.6569 77.0662 18.6569ZM72.2359 10.7343L72.6716 11.9748H66.0468C66.5008 10.7088 66.9439 9.45374 67.3894 8.19179L67.3904 8.18896L67.3914 8.18619L67.3924 8.18347L67.3933 8.18081L67.3937 8.17977L67.3938 8.17946L67.3945 8.17757C68.0415 6.3447 68.6938 4.49715 69.392 2.5802C70.3604 5.39563 71.2793 8.01145 72.2347 10.731L72.2359 10.7343ZM1.70116 39.4639C1.4388 40.2082 1.17643 40.9524 0.914062 41.6802V42.1433C1.33598 42.1433 1.74729 42.1219 2.15652 42.1007H2.15658H2.15664H2.1567H2.15676H2.15682H2.15687H2.15693H2.15698C2.76552 42.069 3.36947 42.0376 3.99686 42.0772C4.65278 42.0772 4.91516 41.9448 5.11193 41.2832C6.55498 36.3874 8.05632 31.4915 9.55766 26.5957L9.55768 26.5956C10.3083 24.1479 11.0589 21.7001 11.8023 19.2523C11.8351 19.12 11.8843 19.0042 11.9335 18.8884C11.9827 18.7726 12.0319 18.6568 12.0647 18.5245C13.3109 22.0971 14.426 25.6697 15.4754 29.2423C16.6561 33.278 17.9023 37.3799 19.1486 41.4156C19.2142 41.6802 19.4765 42.0772 19.6733 42.0772H23.8712L23.871 42.0765C23.7399 41.68 23.6744 41.4816 23.6088 41.2171C22.4944 37.911 21.38 34.5389 20.2656 31.1667L20.2652 31.1658L20.2652 31.1657L20.2652 31.1656L20.2636 31.1609C19.3782 28.4484 18.4763 25.7524 17.5744 23.0565C16.6725 20.3605 15.7706 17.6645 14.8851 14.9519L14.8804 14.9283C14.8161 14.6025 14.7415 14.2242 14.2292 14.2242H10.0969L10.0969 14.2242L10.0969 14.2242L10.0969 14.2242L10.0969 14.2242L10.0969 14.2242L10.0969 14.2243L10.0969 14.2243L10.0969 14.2243L10.0969 14.2243C9.9657 14.555 9.83454 14.8858 9.76895 15.1504C8.55553 18.8222 7.3421 22.5105 6.12867 26.1988L6.12851 26.1993C4.91509 29.8875 3.70168 33.5758 2.48826 37.2475C2.22589 37.9753 1.96353 38.7196 1.70116 39.4639ZM148.591 3.7938L148.594 3.80254L148.594 3.80383C149.02 5.0443 149.447 6.28477 149.873 7.54178L153.415 17.8626C153.481 18.0611 153.546 18.3257 153.612 18.6565C153.391 18.6565 153.17 18.664 152.951 18.6715C152.521 18.6861 152.101 18.7004 151.71 18.6565C151.513 18.6565 151.316 18.3919 151.251 18.1934C150.791 16.9364 150.332 15.6794 149.939 14.3562C149.807 13.8931 149.545 13.7607 149.086 13.7607H142.789C142.33 13.7607 142.068 13.8931 141.936 14.3562C141.71 15.0797 141.462 15.7812 141.217 16.4735L141.217 16.4738L141.217 16.4741L141.216 16.4744L141.214 16.4803L141.213 16.4834L141.211 16.489L141.21 16.492C141.032 16.9962 140.855 17.4956 140.69 17.9949C140.559 18.5242 140.297 18.7227 139.772 18.6565C139.477 18.614 139.209 18.6261 138.898 18.6403C138.725 18.6481 138.54 18.6565 138.329 18.6565C138.919 17.0026 139.444 15.4811 139.969 13.9595L139.969 13.9592C140.723 11.7429 141.494 9.5431 142.264 7.34332C143.035 5.14352 143.806 2.94373 144.56 0.727403C144.593 0.628164 144.626 0.512386 144.659 0.396607L144.659 0.396466L144.659 0.395479V0.39547C144.692 0.280071 144.724 0.164726 144.757 0.0658121H147.315C147.74 1.31942 148.165 2.55657 148.591 3.79368L148.591 3.7938ZM146.2 2.84448H146.003C145.32 4.82455 144.61 6.77662 143.89 8.75535C143.503 9.81787 143.113 10.8881 142.724 11.9744H149.348C148.649 9.9014 147.949 7.88716 147.249 5.87293C146.9 4.86589 146.55 3.85886 146.2 2.84448ZM29.1186 5.1604C28.5939 3.50642 28.0692 1.7863 27.5444 0.0661631C27.0853 0.0661631 26.6261 0.0661591 26.0358 0C26.0686 0.0661527 26.085 0.148844 26.1014 0.231537L26.1014 0.231561C26.1178 0.314262 26.1342 0.396963 26.167 0.463122C32.1359 18.5246 38.1047 36.5198 44.0736 54.5151C44.4015 55.5075 44.4015 55.5075 45.6478 55.309C45.615 55.1768 45.5822 55.0612 45.5495 54.9455L45.5495 54.9455L45.5495 54.9454L45.5494 54.9454L45.5494 54.9452C45.5166 54.8294 45.4838 54.7136 45.451 54.5813L39.1542 35.5274L29.1186 5.1604ZM78.3203 35.8828H72.1133V53H68.6816V35.8828H62.5293V33.0938H78.3203V35.8828ZM100.789 43.5664C100.789 45.5169 100.452 47.2305 99.7775 48.707C99.103 50.1745 98.1369 51.3047 96.8791 52.0977C95.6304 52.8815 94.1903 53.2734 92.5587 53.2734C90.9455 53.2734 89.5054 52.8815 88.2384 52.0977C86.9806 51.3047 86.0054 50.179 85.3127 48.7207C84.6291 47.2624 84.2827 45.5807 84.2736 43.6758V42.5547C84.2736 40.6133 84.6154 38.8997 85.299 37.4141C85.9917 35.9284 86.9624 34.7936 88.2111 34.0098C89.4689 33.2168 90.909 32.8203 92.5314 32.8203C94.1538 32.8203 95.5893 33.2122 96.838 33.9961C98.0959 34.7708 99.0666 35.8919 99.7502 37.3594C100.434 38.8177 100.78 40.5176 100.789 42.459V43.5664ZM97.3302 42.5273C97.3302 40.3216 96.911 38.6309 96.0724 37.4551C95.243 36.2793 94.0627 35.6914 92.5314 35.6914C91.0366 35.6914 89.8654 36.2793 89.0177 37.4551C88.1792 38.6217 87.7508 40.276 87.7326 42.418V43.5664C87.7326 45.7539 88.1564 47.4447 89.0041 48.6387C89.8608 49.8327 91.0457 50.4297 92.5587 50.4297C94.09 50.4297 95.2658 49.8464 96.0861 48.6797C96.9155 47.513 97.3302 45.8086 97.3302 43.5664V42.5273ZM124.461 43.5664C124.461 45.5169 124.124 47.2305 123.45 48.707C122.775 50.1745 121.809 51.3047 120.551 52.0977C119.302 52.8815 117.862 53.2734 116.231 53.2734C114.618 53.2734 113.177 52.8815 111.91 52.0977C110.653 51.3047 109.677 50.179 108.985 48.7207C108.301 47.2624 107.955 45.5807 107.946 43.6758V42.5547C107.946 40.6133 108.287 38.8997 108.971 37.4141C109.664 35.9284 110.634 34.7936 111.883 34.0098C113.141 33.2168 114.581 32.8203 116.203 32.8203C117.826 32.8203 119.261 33.2122 120.51 33.9961C121.768 34.7708 122.739 35.8919 123.422 37.3594C124.106 38.8177 124.452 40.5176 124.461 42.459V43.5664ZM121.002 42.5273C121.002 40.3216 120.583 38.6309 119.744 37.4551C118.915 36.2793 117.735 35.6914 116.203 35.6914C114.709 35.6914 113.537 36.2793 112.69 37.4551C111.851 38.6217 111.423 40.276 111.405 42.418V43.5664C111.405 45.7539 111.828 47.4447 112.676 48.6387C113.533 49.8327 114.718 50.4297 116.231 50.4297C117.762 50.4297 118.938 49.8464 119.758 48.6797C120.588 47.513 121.002 45.8086 121.002 43.5664V42.5273ZM135.706 50.2383H144.743V53H132.247V33.0938H135.706V50.2383ZM162.139 47.873C162.139 46.998 161.829 46.3236 161.21 45.8496C160.599 45.3757 159.492 44.8971 157.887 44.4141C156.283 43.931 155.007 43.3932 154.059 42.8008C152.245 41.6615 151.339 40.1758 151.339 38.3438C151.339 36.7396 151.99 35.418 153.294 34.3789C154.606 33.3398 156.306 32.8203 158.393 32.8203C159.779 32.8203 161.014 33.0755 162.098 33.5859C163.183 34.0964 164.035 34.8255 164.655 35.7734C165.275 36.7122 165.585 37.7559 165.585 38.9043H162.139C162.139 37.8652 161.811 37.054 161.155 36.4707C160.508 35.8783 159.578 35.582 158.366 35.582C157.236 35.582 156.356 35.8236 155.727 36.3066C155.107 36.7897 154.798 37.4642 154.798 38.3301C154.798 39.0592 155.135 39.6699 155.809 40.1621C156.484 40.6452 157.596 41.1191 159.145 41.584C160.695 42.0397 161.939 42.5638 162.878 43.1562C163.816 43.7396 164.505 44.4141 164.942 45.1797C165.38 45.9362 165.598 46.8249 165.598 47.8457C165.598 49.5046 164.96 50.8262 163.684 51.8105C162.417 52.7858 160.695 53.2734 158.516 53.2734C157.076 53.2734 155.75 53.0091 154.538 52.4805C153.335 51.9427 152.396 51.2044 151.721 50.2656C151.056 49.3268 150.723 48.2331 150.723 46.9844H154.182C154.182 48.1146 154.556 48.9896 155.303 49.6094C156.051 50.2292 157.122 50.5391 158.516 50.5391C159.719 50.5391 160.622 50.2975 161.223 49.8145C161.834 49.3223 162.139 48.6751 162.139 47.873ZM156.235 18.6566H158.203V4.10162C158.357 4.33411 158.488 4.52121 158.597 4.67621C158.674 4.78586 158.739 4.87945 158.794 4.96169C160.237 7.14494 161.68 9.31165 163.123 11.4784C164.566 13.6451 166.009 15.8118 167.452 17.995C167.583 18.2597 167.911 18.5243 168.173 18.5905C168.518 18.634 168.864 18.6202 169.228 18.6057C169.417 18.5982 169.611 18.5905 169.813 18.5905V0.198222H167.845V14.6209C167.517 14.3563 167.255 14.0255 167.058 13.6947C165.295 10.9651 163.506 8.26129 161.724 5.5672L161.723 5.56632L161.723 5.56593L161.723 5.56579C160.654 3.95071 159.588 2.33911 158.531 0.727507C158.4 0.529029 158.138 0.264381 157.875 0.198222C157.53 0.154689 157.185 0.168446 156.821 0.182947C156.632 0.190484 156.437 0.198222 156.235 0.198222V18.6566ZM110.584 10.9828V18.6572H108.616V0.264982C109.426 0.264982 110.23 0.254078 111.03 0.243225C113.018 0.216275 114.982 0.189647 116.946 0.331146C119.767 0.529623 121.472 2.77904 121.406 5.7562C121.341 8.79952 119.701 10.7181 116.815 10.9166C115.536 11.0158 114.257 11.0034 112.978 10.991C112.551 10.9869 112.125 10.9828 111.699 10.9828H110.584ZM110.649 9.06416C111.232 9.06416 111.814 9.07501 112.395 9.08584C113.842 9.11282 115.28 9.13961 116.684 8.99799C118.389 8.86567 119.307 7.60864 119.373 5.82234C119.439 3.90373 118.586 2.38207 116.946 2.18359C115.499 2.04233 114.018 2.06865 112.505 2.09556C111.892 2.10645 111.273 2.11745 110.649 2.11745V9.06416ZM79.5584 0.264519V18.6568C83.2972 18.6568 87.0359 18.6568 90.7747 18.5906V16.8705H81.5262V0.264519H79.5584ZM94.1198 0.264519H96.022V16.8705H105.27V18.6568H94.1198V0.264519ZM124.686 0.264519V18.6568C128.49 18.6568 132.163 18.6568 135.967 18.5906V16.8705H126.719V0.264519H124.686Z" fill="white"/>
</svg>
