<svg width="659" height="405" viewBox="0 0 659 405" fill="none" xmlns="http://www.w3.org/2000/svg">
<path fill-rule="evenodd" clip-rule="evenodd" d="M296.354 78.6349L328.3 0L454.239 296.724L423.522 280.546L328.709 53.2424L317.856 78.6349L395.672 264.164L366.798 248.396L296.354 78.6349ZM10.5698 394.896L7.40088 404H0.337891L15.1084 364.898H21.2046L36.002 404H28.9121L25.7163 394.896H10.5698ZM23.8096 389.417L18.1431 373.197L12.4766 389.417H23.8096ZM72.0044 398.575H89.7559V404H65.21V364.898H72.0044V398.575ZM126.51 398.575H144.262V404H119.716V364.898H126.51V398.575ZM174.222 404V364.898H187.623C192.045 364.898 195.411 365.785 197.72 367.557C200.03 369.33 201.185 371.97 201.185 375.479C201.185 377.27 200.701 378.881 199.734 380.313C198.768 381.746 197.353 382.856 195.491 383.644C197.604 384.216 199.233 385.3 200.379 386.893C201.543 388.469 202.125 390.366 202.125 392.586C202.125 396.257 200.943 399.077 198.58 401.046C196.234 403.015 192.868 404 188.482 404H174.222ZM181.016 386.356V398.575H188.562C190.693 398.575 192.358 398.047 193.558 396.991C194.757 395.934 195.357 394.466 195.357 392.586C195.357 388.522 193.28 386.445 189.126 386.356H181.016ZM181.016 381.361H187.676C189.789 381.361 191.436 380.886 192.618 379.938C193.817 378.971 194.417 377.61 194.417 375.855C194.417 373.922 193.862 372.525 192.752 371.666C191.66 370.807 189.95 370.377 187.623 370.377H181.016V381.361ZM240.41 394.896L237.241 404H230.178L244.948 364.898H251.044L265.842 404H258.752L255.556 394.896H240.41ZM253.649 389.417L247.983 373.197L242.316 389.417H253.649ZM323.167 364.898V391.029C323.167 395.182 321.834 398.477 319.166 400.912C316.516 403.329 312.98 404.537 308.558 404.537C304.082 404.537 300.528 403.347 297.896 400.965C295.265 398.566 293.949 395.245 293.949 391.002V364.898H300.716V391.056C300.716 393.67 301.379 395.666 302.704 397.044C304.028 398.423 305.98 399.112 308.558 399.112C313.786 399.112 316.4 396.355 316.4 390.841V364.898H323.167ZM420.282 370.377H408.09V404H401.349V370.377H389.264V364.898H420.282V370.377ZM480.643 385.47C480.643 389.301 479.98 392.667 478.655 395.567C477.33 398.45 475.433 400.67 472.962 402.228C470.509 403.767 467.68 404.537 464.476 404.537C461.307 404.537 458.478 403.767 455.989 402.228C453.519 400.67 451.603 398.459 450.242 395.594C448.899 392.73 448.219 389.426 448.201 385.685V383.482C448.201 379.669 448.873 376.303 450.215 373.385C451.576 370.466 453.483 368.237 455.936 366.698C458.406 365.14 461.235 364.361 464.422 364.361C467.609 364.361 470.429 365.131 472.881 366.671C475.352 368.193 477.259 370.395 478.602 373.277C479.944 376.142 480.625 379.481 480.643 383.294V385.47ZM473.848 383.429C473.848 379.096 473.025 375.775 471.377 373.465C469.748 371.156 467.43 370.001 464.422 370.001C461.486 370.001 459.185 371.156 457.52 373.465C455.873 375.757 455.031 379.007 454.996 383.214V385.47C454.996 389.767 455.828 393.088 457.493 395.433C459.176 397.778 461.504 398.951 464.476 398.951C467.483 398.951 469.793 397.805 471.404 395.514C473.034 393.222 473.848 389.874 473.848 385.47V383.429ZM512.16 404V364.898H523.708C527.163 364.898 530.225 365.668 532.893 367.208C535.578 368.748 537.655 370.932 539.123 373.761C540.591 376.59 541.325 379.83 541.325 383.482V385.443C541.325 389.149 540.582 392.407 539.096 395.218C537.628 398.029 535.524 400.195 532.785 401.717C530.064 403.239 526.94 404 523.413 404H512.16ZM518.955 370.377V398.575H523.386C526.949 398.575 529.679 397.465 531.577 395.245C533.492 393.007 534.468 389.802 534.504 385.631V383.456C534.504 379.212 533.582 375.972 531.738 373.734C529.894 371.496 527.217 370.377 523.708 370.377H518.955ZM578.993 394.896L575.824 404H568.761L583.531 364.898H589.627L604.425 404H597.335L594.139 394.896H578.993ZM592.232 389.417L586.566 373.197L580.899 389.417H592.232ZM642.361 383.429L651.357 364.898H658.877L645.771 389.605V404H638.95V389.605L625.818 364.898H633.364L642.361 383.429ZM285.911 104.232L317.857 182.867L291.44 248.396L261.748 266.212L296.355 182.867L285.502 157.474L233.227 282.799L204 300L285.911 104.232Z" fill="#183646"/>
<path fill-rule="evenodd" clip-rule="evenodd" d="M296.354 78.6349L328.3 0L454.239 296.724L423.522 280.546L328.709 53.2424L317.856 78.6349L395.672 264.164L366.798 248.396L296.354 78.6349ZM10.5698 394.896L7.40088 404H0.337891L15.1084 364.898H21.2046L36.002 404H28.9121L25.7163 394.896H10.5698ZM23.8096 389.417L18.1431 373.197L12.4766 389.417H23.8096ZM72.0044 398.575H89.7559V404H65.21V364.898H72.0044V398.575ZM126.51 398.575H144.262V404H119.716V364.898H126.51V398.575ZM174.222 404V364.898H187.623C192.045 364.898 195.411 365.785 197.72 367.557C200.03 369.33 201.185 371.97 201.185 375.479C201.185 377.27 200.701 378.881 199.734 380.313C198.768 381.746 197.353 382.856 195.491 383.644C197.604 384.216 199.233 385.3 200.379 386.893C201.543 388.469 202.125 390.366 202.125 392.586C202.125 396.257 200.943 399.077 198.58 401.046C196.234 403.015 192.868 404 188.482 404H174.222ZM181.016 386.356V398.575H188.562C190.693 398.575 192.358 398.047 193.558 396.991C194.757 395.934 195.357 394.466 195.357 392.586C195.357 388.522 193.28 386.445 189.126 386.356H181.016ZM181.016 381.361H187.676C189.789 381.361 191.436 380.886 192.618 379.938C193.817 378.971 194.417 377.61 194.417 375.855C194.417 373.922 193.862 372.525 192.752 371.666C191.66 370.807 189.95 370.377 187.623 370.377H181.016V381.361ZM240.41 394.896L237.241 404H230.178L244.948 364.898H251.044L265.842 404H258.752L255.556 394.896H240.41ZM253.649 389.417L247.983 373.197L242.316 389.417H253.649ZM323.167 364.898V391.029C323.167 395.182 321.834 398.477 319.166 400.912C316.516 403.329 312.98 404.537 308.558 404.537C304.082 404.537 300.528 403.347 297.896 400.965C295.265 398.566 293.949 395.245 293.949 391.002V364.898H300.716V391.056C300.716 393.67 301.379 395.666 302.704 397.044C304.028 398.423 305.98 399.112 308.558 399.112C313.786 399.112 316.4 396.355 316.4 390.841V364.898H323.167ZM420.282 370.377H408.09V404H401.349V370.377H389.264V364.898H420.282V370.377ZM480.643 385.47C480.643 389.301 479.98 392.667 478.655 395.567C477.33 398.45 475.433 400.67 472.962 402.228C470.509 403.767 467.68 404.537 464.476 404.537C461.307 404.537 458.478 403.767 455.989 402.228C453.519 400.67 451.603 398.459 450.242 395.594C448.899 392.73 448.219 389.426 448.201 385.685V383.482C448.201 379.669 448.873 376.303 450.215 373.385C451.576 370.466 453.483 368.237 455.936 366.698C458.406 365.14 461.235 364.361 464.422 364.361C467.609 364.361 470.429 365.131 472.881 366.671C475.352 368.193 477.259 370.395 478.602 373.277C479.944 376.142 480.625 379.481 480.643 383.294V385.47ZM473.848 383.429C473.848 379.096 473.025 375.775 471.377 373.465C469.748 371.156 467.43 370.001 464.422 370.001C461.486 370.001 459.185 371.156 457.52 373.465C455.873 375.757 455.031 379.007 454.996 383.214V385.47C454.996 389.767 455.828 393.088 457.493 395.433C459.176 397.778 461.504 398.951 464.476 398.951C467.483 398.951 469.793 397.805 471.404 395.514C473.034 393.222 473.848 389.874 473.848 385.47V383.429ZM512.16 404V364.898H523.708C527.163 364.898 530.225 365.668 532.893 367.208C535.578 368.748 537.655 370.932 539.123 373.761C540.591 376.59 541.325 379.83 541.325 383.482V385.443C541.325 389.149 540.582 392.407 539.096 395.218C537.628 398.029 535.524 400.195 532.785 401.717C530.064 403.239 526.94 404 523.413 404H512.16ZM518.955 370.377V398.575H523.386C526.949 398.575 529.679 397.465 531.577 395.245C533.492 393.007 534.468 389.802 534.504 385.631V383.456C534.504 379.212 533.582 375.972 531.738 373.734C529.894 371.496 527.217 370.377 523.708 370.377H518.955ZM578.993 394.896L575.824 404H568.761L583.531 364.898H589.627L604.425 404H597.335L594.139 394.896H578.993ZM592.232 389.417L586.566 373.197L580.899 389.417H592.232ZM642.361 383.429L651.357 364.898H658.877L645.771 389.605V404H638.95V389.605L625.818 364.898H633.364L642.361 383.429ZM285.911 104.232L317.857 182.867L291.44 248.396L261.748 266.212L296.355 182.867L285.502 157.474L233.227 282.799L204 300L285.911 104.232Z" fill="url(#paint0_linear_459_7135)"/>
<defs>
<linearGradient id="paint0_linear_459_7135" x1="0.337891" y1="0" x2="679.169" y2="35.6003" gradientUnits="userSpaceOnUse">
<stop stop-color="#FA3901"/>
<stop offset="1" stop-color="#FF8902"/>
</linearGradient>
</defs>
</svg>
