<svg width="46" height="60" viewBox="0 0 46 60" fill="none" xmlns="http://www.w3.org/2000/svg">
<path d="M12.2349 44.7357L1.69204 50.4865C1.07336 50.8238 0.517345 51.2385 0 51.6905C6.1468 56.8733 14.0816 60 22.7512 60C31.3567 60 39.2409 56.9199 45.3703 51.8078C44.805 51.3305 44.1917 50.9011 43.5116 50.5625L32.2221 44.9183C30.7634 44.189 29.842 42.6983 29.842 41.0676V36.6381C30.1593 36.2768 30.522 35.8128 30.91 35.2648C32.4487 33.0914 33.6127 30.7007 34.4194 28.1926C35.8675 27.746 36.9342 26.4086 36.9342 24.8192V20.0911C36.9342 19.0511 36.4715 18.1217 35.7528 17.4711V10.6362C35.7528 10.6362 37.1568 0 22.7525 0C8.34818 0 9.75222 10.6362 9.75222 10.6362V17.4711C9.0322 18.1217 8.57086 19.0511 8.57086 20.0911V24.8192C8.57086 26.0646 9.22554 27.1606 10.2056 27.794C11.3869 32.9367 14.4803 36.6381 14.4803 36.6381V40.9582C14.479 42.5316 13.6176 43.981 12.2349 44.7357Z" fill="white"/>
</svg>
