<svg width="26" height="26" viewBox="0 0 26 26" fill="none" xmlns="http://www.w3.org/2000/svg">
<path fill-rule="evenodd" clip-rule="evenodd" d="M0 3.12217C0 1.39858 1.39858 0 3.12217 0C4.84467 0 6.24325 1.39858 6.24433 3.12217C6.24433 4.84575 4.84575 6.27358 3.12217 6.27358C1.39858 6.27358 0 4.84575 0 3.12217ZM25.9934 25.9999V25.9988H25.9999V16.4633C25.9999 11.7985 24.9956 8.20508 19.5421 8.20508C16.9205 8.20508 15.1611 9.64375 14.4429 11.0077H14.367V8.64058H9.19629V25.9988H14.5805V17.4037C14.5805 15.1406 15.0095 12.9522 17.812 12.9522C20.5735 12.9522 20.6146 15.5349 20.6146 17.5488V25.9999H25.9934ZM0.429199 8.6416H5.81987V25.9999H0.429199V8.6416Z" fill="currentColor"/>
<path fill-rule="evenodd" clip-rule="evenodd" d="M0 3.12217C0 1.39858 1.39858 0 3.12217 0C4.84467 0 6.24325 1.39858 6.24433 3.12217C6.24433 4.84575 4.84575 6.27358 3.12217 6.27358C1.39858 6.27358 0 4.84575 0 3.12217ZM25.9934 25.9999V25.9988H25.9999V16.4633C25.9999 11.7985 24.9956 8.20508 19.5421 8.20508C16.9205 8.20508 15.1611 9.64375 14.4429 11.0077H14.367V8.64058H9.19629V25.9988H14.5805V17.4037C14.5805 15.1406 15.0095 12.9522 17.812 12.9522C20.5735 12.9522 20.6146 15.5349 20.6146 17.5488V25.9999H25.9934ZM0.429199 8.6416H5.81987V25.9999H0.429199V8.6416Z" fill="currentColor"/>
</svg>
