<svg width="10" height="8" viewBox="0 0 10 8" fill="none" xmlns="http://www.w3.org/2000/svg">
<path d="M4.13397 7.5C4.51887 8.16667 5.48113 8.16667 5.86603 7.5L9.33013 1.5C9.71503 0.833334 9.2339 0 8.4641 0H1.5359C0.766098 0 0.284973 0.833333 0.669873 1.5L4.13397 7.5Z" fill="#444444"/>
<path d="M4.13397 7.5C4.51887 8.16667 5.48113 8.16667 5.86603 7.5L9.33013 1.5C9.71503 0.833334 9.2339 0 8.4641 0H1.5359C0.766098 0 0.284973 0.833333 0.669873 1.5L4.13397 7.5Z" fill="url(#paint0_linear_515_497)"/>
<path d="M4.13397 7.5C4.51887 8.16667 5.48113 8.16667 5.86603 7.5L9.33013 1.5C9.71503 0.833334 9.2339 0 8.4641 0H1.5359C0.766098 0 0.284973 0.833333 0.669873 1.5L4.13397 7.5Z" fill="url(#paint1_linear_515_497)"/>
<defs>
<linearGradient id="paint0_linear_515_497" x1="9.49995" y1="2.99995" x2="6.98096" y2="7.50533" gradientUnits="userSpaceOnUse">
<stop stop-color="#A459D0"/>
<stop offset="1" stop-color="#FF5761"/>
</linearGradient>
<linearGradient id="paint1_linear_515_497" x1="11" y1="-4.67332" x2="-1.0324" y2="-4.6302" gradientUnits="userSpaceOnUse">
<stop stop-color="#FA3901"/>
<stop offset="1" stop-color="#FF8902"/>
</linearGradient>
</defs>
</svg>
