<svg width="26" height="27" viewBox="0 0 26 27" fill="none" xmlns="http://www.w3.org/2000/svg">
<path fill-rule="evenodd" clip-rule="evenodd" d="M25.9738 7.9241C25.9129 6.54262 25.6895 5.59287 25.3694 4.76989C25.0393 3.89632 24.5314 3.11422 23.866 2.46405C23.2158 1.80376 22.4285 1.29069 21.5651 0.96571C20.7373 0.645686 19.7925 0.422284 18.4111 0.361375C17.0193 0.295306 16.5774 0.280029 13.0474 0.280029C9.51746 0.280029 9.07562 0.295306 7.68898 0.356216C6.30751 0.417126 5.35775 0.640726 4.53497 0.960552C3.66121 1.29069 2.87911 1.79861 2.22894 2.46405C1.56866 3.11422 1.05578 3.90148 0.730602 4.76493C0.410578 5.59287 0.187177 6.53746 0.126267 7.91894C0.0601989 9.31074 0.0449219 9.75258 0.0449219 13.2826C0.0449219 16.8126 0.0601989 17.2544 0.121109 18.641C0.182018 20.0225 0.405618 20.9723 0.725642 21.7952C1.05578 22.6688 1.56866 23.4509 2.22894 24.1011C2.87911 24.7614 3.66637 25.2744 4.52982 25.5994C5.35775 25.9195 6.30235 26.1429 7.68402 26.2038C9.07046 26.2649 9.5125 26.28 13.0425 26.28C16.5725 26.28 17.0143 26.2649 18.4009 26.2038C19.7824 26.1429 20.7322 25.9195 21.555 25.5994C23.3023 24.9239 24.6838 23.5424 25.3593 21.7952C25.6792 20.9673 25.9028 20.0225 25.9637 18.641C26.0246 17.2544 26.0399 16.8126 26.0399 13.2826C26.0399 9.75258 26.0347 9.31074 25.9738 7.9241ZM23.6324 18.5395C23.5765 19.8092 23.3632 20.4949 23.1854 20.952C22.7485 22.0847 21.8496 22.9837 20.7169 23.4206C20.2598 23.5983 19.5691 23.8116 18.3043 23.8674C16.933 23.9285 16.5217 23.9436 13.0526 23.9436C9.58353 23.9436 9.16708 23.9285 7.80068 23.8674C6.53091 23.8116 5.84523 23.5983 5.38811 23.4206C4.82444 23.2122 4.31137 22.8821 3.89493 22.4504C3.4632 22.0288 3.13306 21.5209 2.92474 20.9572C2.74697 20.5001 2.53369 19.8092 2.47793 18.5446C2.41683 17.1733 2.40175 16.7618 2.40175 13.2927C2.40175 9.82361 2.41683 9.40716 2.47793 8.04096C2.53369 6.77118 2.74697 6.0855 2.92474 5.62838C3.13306 5.06452 3.4632 4.55165 3.90009 4.135C4.32149 3.70327 4.8294 3.37313 5.39327 3.16501C5.85039 2.98724 6.54122 2.77396 7.80584 2.71801C9.1772 2.6571 9.58869 2.64182 13.0576 2.64182C16.5318 2.64182 16.9431 2.6571 18.3095 2.71801C19.5793 2.77396 20.2649 2.98724 20.7221 3.16501C21.2857 3.37313 21.7988 3.70327 22.2152 4.135C22.647 4.55661 22.9771 5.06452 23.1854 5.62838C23.3632 6.0855 23.5765 6.77614 23.6324 8.04096C23.6933 9.41232 23.7086 9.82361 23.7086 13.2927C23.7086 16.7618 23.6933 17.1681 23.6324 18.5395ZM13.0475 6.60349C9.36013 6.60349 6.36842 9.59501 6.36842 13.2825C6.36842 16.97 9.36013 19.9616 13.0475 19.9616C16.735 19.9616 19.7265 16.97 19.7265 13.2825C19.7265 9.59501 16.735 6.60349 13.0475 6.60349ZM13.0475 17.6151C10.6553 17.6151 8.71493 15.6749 8.71493 13.2825C8.71493 10.8902 10.6553 8.95 13.0475 8.95C15.4398 8.95 17.38 10.8902 17.38 13.2825C17.38 15.6749 15.4398 17.6151 13.0475 17.6151ZM19.9907 7.89881C20.8519 7.89881 21.5501 7.20062 21.5501 6.33955C21.5501 5.47828 20.8519 4.7803 19.9907 4.7803C19.1296 4.7803 18.4314 5.47828 18.4314 6.33955C18.4314 7.20062 19.1296 7.89881 19.9907 7.89881Z" fill="currentColor"/>
<path fill-rule="evenodd" clip-rule="evenodd" d="M25.9738 7.9241C25.9129 6.54262 25.6895 5.59287 25.3694 4.76989C25.0393 3.89632 24.5314 3.11422 23.866 2.46405C23.2158 1.80376 22.4285 1.29069 21.5651 0.96571C20.7373 0.645686 19.7925 0.422284 18.4111 0.361375C17.0193 0.295306 16.5774 0.280029 13.0474 0.280029C9.51746 0.280029 9.07562 0.295306 7.68898 0.356216C6.30751 0.417126 5.35775 0.640726 4.53497 0.960552C3.66121 1.29069 2.87911 1.79861 2.22894 2.46405C1.56866 3.11422 1.05578 3.90148 0.730602 4.76493C0.410578 5.59287 0.187177 6.53746 0.126267 7.91894C0.0601989 9.31074 0.0449219 9.75258 0.0449219 13.2826C0.0449219 16.8126 0.0601989 17.2544 0.121109 18.641C0.182018 20.0225 0.405618 20.9723 0.725642 21.7952C1.05578 22.6688 1.56866 23.4509 2.22894 24.1011C2.87911 24.7614 3.66637 25.2744 4.52982 25.5994C5.35775 25.9195 6.30235 26.1429 7.68402 26.2038C9.07046 26.2649 9.5125 26.28 13.0425 26.28C16.5725 26.28 17.0143 26.2649 18.4009 26.2038C19.7824 26.1429 20.7322 25.9195 21.555 25.5994C23.3023 24.9239 24.6838 23.5424 25.3593 21.7952C25.6792 20.9673 25.9028 20.0225 25.9637 18.641C26.0246 17.2544 26.0399 16.8126 26.0399 13.2826C26.0399 9.75258 26.0347 9.31074 25.9738 7.9241ZM23.6324 18.5395C23.5765 19.8092 23.3632 20.4949 23.1854 20.952C22.7485 22.0847 21.8496 22.9837 20.7169 23.4206C20.2598 23.5983 19.5691 23.8116 18.3043 23.8674C16.933 23.9285 16.5217 23.9436 13.0526 23.9436C9.58353 23.9436 9.16708 23.9285 7.80068 23.8674C6.53091 23.8116 5.84523 23.5983 5.38811 23.4206C4.82444 23.2122 4.31137 22.8821 3.89493 22.4504C3.4632 22.0288 3.13306 21.5209 2.92474 20.9572C2.74697 20.5001 2.53369 19.8092 2.47793 18.5446C2.41683 17.1733 2.40175 16.7618 2.40175 13.2927C2.40175 9.82361 2.41683 9.40716 2.47793 8.04096C2.53369 6.77118 2.74697 6.0855 2.92474 5.62838C3.13306 5.06452 3.4632 4.55165 3.90009 4.135C4.32149 3.70327 4.8294 3.37313 5.39327 3.16501C5.85039 2.98724 6.54122 2.77396 7.80584 2.71801C9.1772 2.6571 9.58869 2.64182 13.0576 2.64182C16.5318 2.64182 16.9431 2.6571 18.3095 2.71801C19.5793 2.77396 20.2649 2.98724 20.7221 3.16501C21.2857 3.37313 21.7988 3.70327 22.2152 4.135C22.647 4.55661 22.9771 5.06452 23.1854 5.62838C23.3632 6.0855 23.5765 6.77614 23.6324 8.04096C23.6933 9.41232 23.7086 9.82361 23.7086 13.2927C23.7086 16.7618 23.6933 17.1681 23.6324 18.5395ZM13.0475 6.60349C9.36013 6.60349 6.36842 9.59501 6.36842 13.2825C6.36842 16.97 9.36013 19.9616 13.0475 19.9616C16.735 19.9616 19.7265 16.97 19.7265 13.2825C19.7265 9.59501 16.735 6.60349 13.0475 6.60349ZM13.0475 17.6151C10.6553 17.6151 8.71493 15.6749 8.71493 13.2825C8.71493 10.8902 10.6553 8.95 13.0475 8.95C15.4398 8.95 17.38 10.8902 17.38 13.2825C17.38 15.6749 15.4398 17.6151 13.0475 17.6151ZM19.9907 7.89881C20.8519 7.89881 21.5501 7.20062 21.5501 6.33955C21.5501 5.47828 20.8519 4.7803 19.9907 4.7803C19.1296 4.7803 18.4314 5.47828 18.4314 6.33955C18.4314 7.20062 19.1296 7.89881 19.9907 7.89881Z" fill="currentColor"/>
<path fill-rule="evenodd" clip-rule="evenodd" d="M25.9738 7.9241C25.9129 6.54262 25.6895 5.59287 25.3694 4.76989C25.0393 3.89632 24.5314 3.11422 23.866 2.46405C23.2158 1.80376 22.4285 1.29069 21.5651 0.96571C20.7373 0.645686 19.7925 0.422284 18.4111 0.361375C17.0193 0.295306 16.5774 0.280029 13.0474 0.280029C9.51746 0.280029 9.07562 0.295306 7.68898 0.356216C6.30751 0.417126 5.35775 0.640726 4.53497 0.960552C3.66121 1.29069 2.87911 1.79861 2.22894 2.46405C1.56866 3.11422 1.05578 3.90148 0.730602 4.76493C0.410578 5.59287 0.187177 6.53746 0.126267 7.91894C0.0601989 9.31074 0.0449219 9.75258 0.0449219 13.2826C0.0449219 16.8126 0.0601989 17.2544 0.121109 18.641C0.182018 20.0225 0.405618 20.9723 0.725642 21.7952C1.05578 22.6688 1.56866 23.4509 2.22894 24.1011C2.87911 24.7614 3.66637 25.2744 4.52982 25.5994C5.35775 25.9195 6.30235 26.1429 7.68402 26.2038C9.07046 26.2649 9.5125 26.28 13.0425 26.28C16.5725 26.28 17.0143 26.2649 18.4009 26.2038C19.7824 26.1429 20.7322 25.9195 21.555 25.5994C23.3023 24.9239 24.6838 23.5424 25.3593 21.7952C25.6792 20.9673 25.9028 20.0225 25.9637 18.641C26.0246 17.2544 26.0399 16.8126 26.0399 13.2826C26.0399 9.75258 26.0347 9.31074 25.9738 7.9241ZM23.6324 18.5395C23.5765 19.8092 23.3632 20.4949 23.1854 20.952C22.7485 22.0847 21.8496 22.9837 20.7169 23.4206C20.2598 23.5983 19.5691 23.8116 18.3043 23.8674C16.933 23.9285 16.5217 23.9436 13.0526 23.9436C9.58353 23.9436 9.16708 23.9285 7.80068 23.8674C6.53091 23.8116 5.84523 23.5983 5.38811 23.4206C4.82444 23.2122 4.31137 22.8821 3.89493 22.4504C3.4632 22.0288 3.13306 21.5209 2.92474 20.9572C2.74697 20.5001 2.53369 19.8092 2.47793 18.5446C2.41683 17.1733 2.40175 16.7618 2.40175 13.2927C2.40175 9.82361 2.41683 9.40716 2.47793 8.04096C2.53369 6.77118 2.74697 6.0855 2.92474 5.62838C3.13306 5.06452 3.4632 4.55165 3.90009 4.135C4.32149 3.70327 4.8294 3.37313 5.39327 3.16501C5.85039 2.98724 6.54122 2.77396 7.80584 2.71801C9.1772 2.6571 9.58869 2.64182 13.0576 2.64182C16.5318 2.64182 16.9431 2.6571 18.3095 2.71801C19.5793 2.77396 20.2649 2.98724 20.7221 3.16501C21.2857 3.37313 21.7988 3.70327 22.2152 4.135C22.647 4.55661 22.9771 5.06452 23.1854 5.62838C23.3632 6.0855 23.5765 6.77614 23.6324 8.04096C23.6933 9.41232 23.7086 9.82361 23.7086 13.2927C23.7086 16.7618 23.6933 17.1681 23.6324 18.5395ZM13.0475 6.60349C9.36013 6.60349 6.36842 9.59501 6.36842 13.2825C6.36842 16.97 9.36013 19.9616 13.0475 19.9616C16.735 19.9616 19.7265 16.97 19.7265 13.2825C19.7265 9.59501 16.735 6.60349 13.0475 6.60349ZM13.0475 17.6151C10.6553 17.6151 8.71493 15.6749 8.71493 13.2825C8.71493 10.8902 10.6553 8.95 13.0475 8.95C15.4398 8.95 17.38 10.8902 17.38 13.2825C17.38 15.6749 15.4398 17.6151 13.0475 17.6151ZM19.9907 7.89881C20.8519 7.89881 21.5501 7.20062 21.5501 6.33955C21.5501 5.47828 20.8519 4.7803 19.9907 4.7803C19.1296 4.7803 18.4314 5.47828 18.4314 6.33955C18.4314 7.20062 19.1296 7.89881 19.9907 7.89881Z" fill="currentColor"/>
</svg>
