<svg width="13" height="26" viewBox="0 0 13 26" fill="none" xmlns="http://www.w3.org/2000/svg">
<path d="M10.6266 4.31708H13V0.183083C12.5905 0.12675 11.1823 0 9.54229 0C6.12032 0 3.77619 2.15258 3.77619 6.10892V9.75H0V14.3715H3.77619V26H8.40597V14.3726H12.0294L12.6046 9.75108H8.40488V6.56717C8.40597 5.23142 8.7656 4.31708 10.6266 4.31708Z" fill="currentColor"/>
<path d="M10.6266 4.31708H13V0.183083C12.5905 0.12675 11.1823 0 9.54229 0C6.12032 0 3.77619 2.15258 3.77619 6.10892V9.75H0V14.3715H3.77619V26H8.40597V14.3726H12.0294L12.6046 9.75108H8.40488V6.56717C8.40597 5.23142 8.7656 4.31708 10.6266 4.31708Z" fill="currentColor"/>
<path d="M10.6266 4.31708H13V0.183083C12.5905 0.12675 11.1823 0 9.54229 0C6.12032 0 3.77619 2.15258 3.77619 6.10892V9.75H0V14.3715H3.77619V26H8.40597V14.3726H12.0294L12.6046 9.75108H8.40488V6.56717C8.40597 5.23142 8.7656 4.31708 10.6266 4.31708Z" fill="currentColor"/>
</svg>
