<svg width="30" height="30" viewBox="0 0 30 30" fill="none" xmlns="http://www.w3.org/2000/svg">
<g clip-path="url(#clip0_459_11218)">
<path d="M29.2128 23.1431L23.1407 19.0937C22.3701 18.5839 21.3372 18.7516 20.7675 19.4791L18.9988 21.7533C18.7715 22.053 18.3583 22.1399 18.0294 21.9572L17.693 21.7718C16.5776 21.1638 15.1899 20.407 12.3938 17.6099C9.59768 14.8128 8.83929 13.424 8.23136 12.3107L8.04687 11.9742C7.86169 11.6455 7.94699 11.2305 8.24682 11.0014L10.5195 9.23315C11.2466 8.66341 11.4146 7.63079 10.9054 6.85999L6.85601 0.787885C6.3342 0.00296212 5.28728 -0.232667 4.47945 0.252944L1.94032 1.77821C1.14251 2.24724 0.557184 3.00685 0.307084 3.89787C-0.607253 7.22937 0.0805938 12.979 8.55035 21.4498C15.2879 28.1868 20.3036 29.9985 23.7511 29.9985C24.5445 30.0019 25.3349 29.8987 26.1008 29.6916C26.992 29.4418 27.7517 28.8564 28.2205 28.0583L29.7472 25.5207C30.2336 24.7127 29.9981 23.6652 29.2128 23.1431ZM28.8858 25.0078L27.3625 27.5469C27.026 28.1229 26.4795 28.5464 25.8377 28.7287C22.7622 29.5731 17.389 28.8737 9.25771 20.7424C1.1264 12.6111 0.427066 7.23839 1.27145 4.16238C1.454 3.51982 1.87804 2.9727 2.45475 2.6356L4.99389 1.11233C5.3444 0.901423 5.79879 1.00365 6.02522 1.34427L8.22491 4.64676L10.0712 7.41585C10.2923 7.75019 10.2196 8.19831 9.90419 8.44571L7.63104 10.2139C6.93926 10.7429 6.74171 11.7 7.16763 12.4596L7.34813 12.7876C7.98706 13.9594 8.78141 15.4172 11.6815 18.3168C14.5816 21.2163 16.0389 22.0107 17.2102 22.6496L17.5386 22.8306C18.2981 23.2564 19.2553 23.0589 19.7843 22.3672L21.5525 20.094C21.7999 19.7788 22.2479 19.7062 22.5824 19.927L28.6539 23.9764C28.9948 24.2027 29.097 24.6573 28.8858 25.0078Z" fill="black"/>
<path d="M29.2128 23.1431L23.1407 19.0937C22.3701 18.5839 21.3372 18.7516 20.7675 19.4791L18.9988 21.7533C18.7715 22.053 18.3583 22.1399 18.0294 21.9572L17.693 21.7718C16.5776 21.1638 15.1899 20.407 12.3938 17.6099C9.59768 14.8128 8.83929 13.424 8.23136 12.3107L8.04687 11.9742C7.86169 11.6455 7.94699 11.2305 8.24682 11.0014L10.5195 9.23315C11.2466 8.66341 11.4146 7.63079 10.9054 6.85999L6.85601 0.787885C6.3342 0.00296212 5.28728 -0.232667 4.47945 0.252944L1.94032 1.77821C1.14251 2.24724 0.557184 3.00685 0.307084 3.89787C-0.607253 7.22937 0.0805938 12.979 8.55035 21.4498C15.2879 28.1868 20.3036 29.9985 23.7511 29.9985C24.5445 30.0019 25.3349 29.8987 26.1008 29.6916C26.992 29.4418 27.7517 28.8564 28.2205 28.0583L29.7472 25.5207C30.2336 24.7127 29.9981 23.6652 29.2128 23.1431ZM28.8858 25.0078L27.3625 27.5469C27.026 28.1229 26.4795 28.5464 25.8377 28.7287C22.7622 29.5731 17.389 28.8737 9.25771 20.7424C1.1264 12.6111 0.427066 7.23839 1.27145 4.16238C1.454 3.51982 1.87804 2.9727 2.45475 2.6356L4.99389 1.11233C5.3444 0.901423 5.79879 1.00365 6.02522 1.34427L8.22491 4.64676L10.0712 7.41585C10.2923 7.75019 10.2196 8.19831 9.90419 8.44571L7.63104 10.2139C6.93926 10.7429 6.74171 11.7 7.16763 12.4596L7.34813 12.7876C7.98706 13.9594 8.78141 15.4172 11.6815 18.3168C14.5816 21.2163 16.0389 22.0107 17.2102 22.6496L17.5386 22.8306C18.2981 23.2564 19.2553 23.0589 19.7843 22.3672L21.5525 20.094C21.7999 19.7788 22.2479 19.7062 22.5824 19.927L28.6539 23.9764C28.9948 24.2027 29.097 24.6573 28.8858 25.0078Z" fill="url(#paint0_linear_459_11218)"/>
<path d="M16.9999 5.00323C21.6915 5.00844 25.4934 8.81044 25.4987 13.502C25.4987 13.7781 25.7225 14.0019 25.9986 14.0019C26.2747 14.0019 26.4985 13.7781 26.4985 13.502C26.4927 8.25845 22.2434 4.00916 16.9999 4.00342C16.7238 4.00342 16.5 4.22721 16.5 4.50332C16.5 4.77944 16.7238 5.00323 16.9999 5.00323Z" fill="black"/>
<path d="M16.9999 5.00323C21.6915 5.00844 25.4934 8.81044 25.4987 13.502C25.4987 13.7781 25.7225 14.0019 25.9986 14.0019C26.2747 14.0019 26.4985 13.7781 26.4985 13.502C26.4927 8.25845 22.2434 4.00916 16.9999 4.00342C16.7238 4.00342 16.5 4.22721 16.5 4.50332C16.5 4.77944 16.7238 5.00323 16.9999 5.00323Z" fill="url(#paint1_linear_459_11218)"/>
<path d="M16.9999 8.00274C20.0356 8.00632 22.4955 10.4663 22.4991 13.5019C22.4991 13.7781 22.723 14.0019 22.999 14.0019C23.2751 14.0019 23.4989 13.7781 23.4989 13.5019C23.4948 9.91431 20.5875 7.00703 16.9999 7.00293C16.7238 7.00293 16.5 7.22672 16.5 7.50284C16.5 7.77895 16.7238 8.00274 16.9999 8.00274Z" fill="black"/>
<path d="M16.9999 8.00274C20.0356 8.00632 22.4955 10.4663 22.4991 13.5019C22.4991 13.7781 22.723 14.0019 22.999 14.0019C23.2751 14.0019 23.4989 13.7781 23.4989 13.5019C23.4948 9.91431 20.5875 7.00703 16.9999 7.00293C16.7238 7.00293 16.5 7.22672 16.5 7.50284C16.5 7.77895 16.7238 8.00274 16.9999 8.00274Z" fill="url(#paint2_linear_459_11218)"/>
<path d="M16.9999 11.002C18.3797 11.0037 19.4979 12.1218 19.4996 13.5017C19.4996 13.7778 19.7234 14.0016 19.9995 14.0016C20.2755 14.0016 20.4994 13.7778 20.4994 13.5017C20.4971 11.5699 18.9317 10.0044 16.9999 10.0022C16.7238 10.0022 16.5 10.226 16.5 10.5021C16.5 10.7782 16.7238 11.002 16.9999 11.002Z" fill="black"/>
<path d="M16.9999 11.002C18.3797 11.0037 19.4979 12.1218 19.4996 13.5017C19.4996 13.7778 19.7234 14.0016 19.9995 14.0016C20.2755 14.0016 20.4994 13.7778 20.4994 13.5017C20.4971 11.5699 18.9317 10.0044 16.9999 10.0022C16.7238 10.0022 16.5 10.226 16.5 10.5021C16.5 10.7782 16.7238 11.002 16.9999 11.002Z" fill="url(#paint3_linear_459_11218)"/>
</g>
<defs>
<linearGradient id="paint0_linear_459_11218" x1="0" y1="0.000732422" x2="30.9744" y2="1.04307" gradientUnits="userSpaceOnUse">
<stop stop-color="#FA3901"/>
<stop offset="1" stop-color="#FF8902"/>
</linearGradient>
<linearGradient id="paint1_linear_459_11218" x1="16.5" y1="4.00342" x2="26.8232" y2="4.35079" gradientUnits="userSpaceOnUse">
<stop stop-color="#FA3901"/>
<stop offset="1" stop-color="#FF8902"/>
</linearGradient>
<linearGradient id="paint2_linear_459_11218" x1="16.5" y1="7.00293" x2="23.7262" y2="7.24609" gradientUnits="userSpaceOnUse">
<stop stop-color="#FA3901"/>
<stop offset="1" stop-color="#FF8902"/>
</linearGradient>
<linearGradient id="paint3_linear_459_11218" x1="16.5" y1="10.0022" x2="20.6293" y2="10.1411" gradientUnits="userSpaceOnUse">
<stop stop-color="#FA3901"/>
<stop offset="1" stop-color="#FF8902"/>
</linearGradient>
<clipPath id="clip0_459_11218">
<rect width="30" height="30" fill="white"/>
</clipPath>
</defs>
</svg>
