<svg width="30" height="30" viewBox="0 0 30 30" fill="none" xmlns="http://www.w3.org/2000/svg">
<g clip-path="url(#clip0_515_509)">
<path d="M15.0968 8.12277C15.4031 8.16654 15.6281 8.4478 15.6281 8.76029V17.1042L15.0968 8.12277ZM15.0968 8.12277C14.7093 8.06652 14.378 8.36653 14.378 8.74154M15.0968 8.12277L14.378 8.74154M14.378 8.74154V17.1042V8.74154ZM22.5584 21.1252C22.6213 21.1581 22.6444 21.2288 22.6122 21.2932C22.5778 21.362 22.5033 21.3803 22.4492 21.3526L22.4457 21.3509L15.2268 17.7383L15.0031 17.6264L14.7794 17.7382L7.55682 21.3495C7.52834 21.3631 7.49326 21.3657 7.45865 21.3541C7.42408 21.3426 7.40124 21.321 7.38941 21.2968L7.38939 21.2968C7.36028 21.2374 7.38416 21.1585 7.44768 21.1252L14.6015 17.5515L14.878 17.4133V17.1042V8.74154C14.878 8.66566 14.9446 8.60591 15.025 8.61759L15.0261 8.61774C15.0447 8.62041 15.0687 8.63114 15.0913 8.65853C15.1145 8.68674 15.1281 8.72364 15.1281 8.76029V17.1042V17.4133L15.4046 17.5515L22.5584 21.1252Z" fill="currentColor" stroke="currentColor"/>
<path d="M2.90165 26.9696V27.1815V29.3819C2.90165 29.4122 2.91297 29.4431 2.93233 29.4666C2.95102 29.4893 2.96957 29.4967 2.98195 29.4985L2.98305 29.4987C3.04751 29.508 3.1006 29.4606 3.1006 29.3999V27.1815V26.9696L3.25289 26.8222L5.46956 24.6771C5.46969 24.677 5.46981 24.6768 5.46994 24.6767C5.50724 24.6399 5.51342 24.5758 5.46808 24.528L5.46804 24.528C5.43525 24.4935 5.37185 24.4873 5.32841 24.5297L5.32745 24.5306L3.34923 26.4492L3.00112 26.7868L2.65302 26.4492L0.674806 24.5306L0.673841 24.5297C0.633114 24.49 0.572021 24.4893 0.529698 24.5327L2.90165 26.9696ZM2.90165 26.9696L2.74935 26.8222M2.90165 26.9696L2.74935 26.8222M2.74935 26.8222L0.532307 24.6767C0.489307 24.6344 0.49006 24.5734 0.529657 24.5327L2.74935 26.8222Z" fill="currentColor" stroke="currentColor"/>
<path d="M13.6244 4.67081L12.8984 5.50014H14.0006H16.9944C17.0706 5.50014 17.1334 5.56218 17.124 5.65099C17.1207 5.66922 17.1097 5.69195 17.0837 5.71339C17.0555 5.73661 17.0186 5.75021 16.9819 5.75021H12.6318C12.6028 5.75021 12.5714 5.7379 12.5515 5.72027L12.5516 5.7202L12.5447 5.71431C12.4981 5.67433 12.4863 5.59795 12.5353 5.53936L16.0019 1.5794L16.7278 0.750065H15.6256H12.6256C12.5497 0.750065 12.4899 0.683513 12.5016 0.603112L12.5018 0.602017C12.5044 0.58335 12.5152 0.559369 12.5426 0.536824C12.5708 0.513604 12.6077 0.5 12.6443 0.5H17.007C17.0307 0.5 17.0571 0.508732 17.081 0.529945L17.081 0.529952L17.0833 0.53198C17.1284 0.571636 17.1408 0.651287 17.0909 0.710862L13.6244 4.67081Z" fill="currentColor" stroke="currentColor"/>
<path d="M29.439 29.2649L29.45 29.2775L29.4619 29.2894L29.4723 29.2998L29.4743 29.3019C29.5138 29.3581 29.5038 29.4317 29.45 29.4755C29.3927 29.5162 29.3172 29.5053 29.2735 29.4488L29.2644 29.437L29.2546 29.4258L27.5421 27.4633L27.166 27.0323L26.7892 27.4626L25.0784 29.416C25.0707 29.4241 25.064 29.4315 25.0587 29.4375C25.051 29.4462 25.0437 29.4547 25.0395 29.4597L25.0387 29.4605L25.0331 29.4671C24.9844 29.512 24.9099 29.5108 24.8626 29.4635C24.8141 29.415 24.8141 29.3379 24.8626 29.2894L24.8744 29.2775L24.8855 29.2649L26.7105 27.1773L26.9982 26.8482L26.7105 26.5191L24.8855 24.4316L24.8744 24.419L24.8626 24.4071L24.8522 24.3966L24.8502 24.3946C24.8107 24.3383 24.8207 24.2648 24.8745 24.221C24.9318 24.1803 25.0073 24.1912 25.0509 24.2477L25.06 24.2594L25.0698 24.2707L26.7824 26.2332L27.1584 26.6641L27.5353 26.2339L29.246 24.2805C29.2537 24.2723 29.2604 24.265 29.2657 24.259C29.2735 24.2502 29.2808 24.2418 29.285 24.2368L29.2857 24.236L29.2914 24.2294C29.34 24.1845 29.4146 24.1857 29.4619 24.2329L29.8055 23.8893L29.4619 24.2329C29.5103 24.2814 29.5103 24.3586 29.4619 24.4071L29.45 24.419L29.439 24.4316L27.6139 26.5191L27.3262 26.8482L27.6139 27.1773L29.439 29.2649ZM29.4716 29.2982L29.4717 29.2983L29.4716 29.2982Z" fill="currentColor" stroke="currentColor"/>
</g>
<defs>
<clipPath id="clip0_515_509">
<rect width="30" height="30" fill="white"/>
</clipPath>
</defs>
</svg>
