<svg width="16" height="16" viewBox="0 0 16 16" fill="none" xmlns="http://www.w3.org/2000/svg">
<path d="M15.8049 14.8623L11.2549 10.3122C12.1362 9.22351 12.6669 7.84014 12.6669 6.33346C12.6669 2.8414 9.82549 0 6.33343 0C2.84136 0 0 2.84136 0 6.33343C0 9.82549 2.8414 12.6669 6.33346 12.6669C7.84014 12.6669 9.22351 12.1362 10.3122 11.2549L14.8623 15.8049C14.9923 15.9349 15.1629 16.0003 15.3336 16.0003C15.5043 16.0003 15.675 15.9349 15.805 15.8049C16.0656 15.5443 16.0656 15.1229 15.8049 14.8623ZM6.33346 11.3335C3.57607 11.3335 1.33337 9.09082 1.33337 6.33343C1.33337 3.57603 3.57607 1.33334 6.33346 1.33334C9.09085 1.33334 11.3336 3.57603 11.3336 6.33343C11.3336 9.09082 9.09082 11.3335 6.33346 11.3335Z" fill="white"/>
</svg>
