<svg width="25" height="16" viewBox="0 0 25 16" fill="none" xmlns="http://www.w3.org/2000/svg">
<path d="M24.954 13.7244C24.9234 13.6584 24.8949 13.6037 24.8684 13.5598C24.4298 12.7699 23.5916 11.8003 22.3545 10.6508L22.3283 10.6245L22.3152 10.6116L22.302 10.5983H22.2887C21.7272 10.0631 21.3716 9.70316 21.2227 9.5189C20.9503 9.16789 20.8892 8.8126 21.0382 8.4526C21.1434 8.18061 21.5385 7.6062 22.2227 6.72859C22.5826 6.26348 22.8677 5.89071 23.0782 5.60987C24.5963 3.5916 25.2545 2.3019 25.0526 1.74026L24.9741 1.60901C24.9215 1.52999 24.7855 1.45771 24.5663 1.39178C24.3467 1.326 24.066 1.31512 23.7237 1.35896L19.9332 1.38515C19.8718 1.36339 19.7841 1.36542 19.6698 1.39178C19.5557 1.41815 19.4987 1.43139 19.4987 1.43139L19.4327 1.46435L19.3803 1.50395C19.3365 1.53013 19.2882 1.57619 19.2355 1.64202C19.1831 1.70762 19.1392 1.78461 19.1042 1.87233C18.6915 2.93407 18.2223 3.92122 17.6957 4.83373C17.371 5.37785 17.0728 5.84941 16.8005 6.24868C16.5286 6.64782 16.3004 6.94189 16.1163 7.1304C15.9319 7.31909 15.7655 7.47025 15.616 7.58444C15.4668 7.69868 15.3529 7.74694 15.274 7.72929C15.1949 7.71163 15.1205 7.69411 15.05 7.67659C14.9272 7.59758 14.8285 7.49012 14.754 7.35412C14.6793 7.21813 14.6289 7.04696 14.6026 6.84075C14.5764 6.6344 14.5609 6.45692 14.5565 6.30769C14.5524 6.15865 14.5543 5.94783 14.5632 5.67584C14.5723 5.40371 14.5764 5.21959 14.5764 5.12305C14.5764 4.78956 14.5829 4.42763 14.596 4.03716C14.6092 3.64669 14.62 3.33731 14.629 3.10939C14.6379 2.88124 14.6421 2.63986 14.6421 2.38539C14.6421 2.13091 14.6266 1.93134 14.596 1.7865C14.5657 1.64183 14.5193 1.50141 14.4581 1.36528C14.3966 1.22928 14.3065 1.12408 14.1883 1.0494C14.0699 0.974808 13.9226 0.915615 13.7474 0.871635C13.2823 0.766388 12.69 0.709454 11.9704 0.700603C10.3384 0.683085 9.28972 0.78847 8.82466 1.01662C8.6404 1.11302 8.47365 1.24472 8.32456 1.41133C8.16658 1.60445 8.14454 1.70983 8.25859 1.72717C8.78515 1.80604 9.15792 1.99473 9.37731 2.29305L9.45637 2.45112C9.51787 2.56518 9.57928 2.7671 9.64073 3.05661C9.70209 3.34612 9.74169 3.66637 9.75911 4.0172C9.80291 4.65785 9.80291 5.20626 9.75911 5.66247C9.71518 6.11886 9.67369 6.47416 9.63409 6.72863C9.59449 6.98311 9.5353 7.18931 9.45637 7.34721C9.37731 7.50515 9.32471 7.60168 9.29834 7.63672C9.27202 7.67175 9.25007 7.69383 9.23265 7.7025C9.1186 7.7462 8.99998 7.76847 8.87721 7.76847C8.75426 7.76847 8.60518 7.70697 8.42972 7.58407C8.25431 7.46117 8.07226 7.29235 7.88357 7.07734C7.69488 6.86228 7.48208 6.56175 7.24508 6.17571C7.00826 5.78966 6.76255 5.33341 6.50807 4.80694L6.29753 4.42514C6.16592 4.17952 5.98613 3.82187 5.75798 3.35252C5.52969 2.88299 5.32791 2.42881 5.15249 1.99007C5.08238 1.80581 4.97704 1.66553 4.83666 1.56899L4.77078 1.52939C4.72699 1.49436 4.65669 1.45716 4.56024 1.41751C4.46366 1.37791 4.36289 1.34951 4.2575 1.33204L0.651123 1.35822C0.282597 1.35822 0.032549 1.44171 -0.0991134 1.60846L-0.151806 1.68733C-0.178129 1.73127 -0.191406 1.80143 -0.191406 1.89801C-0.191406 1.99455 -0.165083 2.11302 -0.11239 2.25331C0.414075 3.49064 0.986595 4.68395 1.60517 5.83341C2.22374 6.98288 2.76127 7.9088 3.21743 8.61035C3.67369 9.31242 4.13875 9.97502 4.61261 10.5978C5.08648 11.2209 5.40015 11.6202 5.55361 11.7956C5.70727 11.9713 5.82796 12.1027 5.91568 12.1904L6.2448 12.5062C6.45538 12.7169 6.76462 12.9691 7.17266 13.263C7.58078 13.5571 8.03261 13.8466 8.52837 14.132C9.02423 14.417 9.60108 14.6495 10.2593 14.8293C10.9173 15.0094 11.5579 15.0816 12.1809 15.0467H13.6946C14.0015 15.0202 14.2341 14.9237 14.3922 14.7571L14.4446 14.6911C14.4798 14.6388 14.5127 14.5574 14.5432 14.4479C14.574 14.3382 14.5893 14.2174 14.5893 14.086C14.5803 13.7087 14.609 13.3687 14.6746 13.066C14.7402 12.7634 14.815 12.5353 14.8987 12.3816C14.9822 12.2281 15.0766 12.0986 15.1815 11.9936C15.2867 11.8883 15.3617 11.8246 15.4057 11.8026C15.4494 11.7805 15.4843 11.7656 15.5106 11.7566C15.7212 11.6864 15.969 11.7543 16.2545 11.9607C16.5397 12.1669 16.8072 12.4216 17.0574 12.7242C17.3075 13.027 17.608 13.3668 17.9589 13.7441C18.3101 14.1215 18.6171 14.402 18.8802 14.5865L19.1434 14.7445C19.3191 14.8498 19.5473 14.9464 19.8281 15.0341C20.1084 15.1218 20.3541 15.1437 20.565 15.0999L23.9343 15.0473C24.2676 15.0473 24.5269 14.9922 24.7108 14.8827C24.8951 14.773 25.0046 14.6522 25.0399 14.5207C25.0752 14.3892 25.077 14.2399 25.0466 14.073C25.0154 13.9065 24.9847 13.7901 24.954 13.7244Z" fill="currentColor"/>
<path d="M24.954 13.7244C24.9234 13.6584 24.8949 13.6037 24.8684 13.5598C24.4298 12.7699 23.5916 11.8003 22.3545 10.6508L22.3283 10.6245L22.3152 10.6116L22.302 10.5983H22.2887C21.7272 10.0631 21.3716 9.70316 21.2227 9.5189C20.9503 9.16789 20.8892 8.8126 21.0382 8.4526C21.1434 8.18061 21.5385 7.6062 22.2227 6.72859C22.5826 6.26348 22.8677 5.89071 23.0782 5.60987C24.5963 3.5916 25.2545 2.3019 25.0526 1.74026L24.9741 1.60901C24.9215 1.52999 24.7855 1.45771 24.5663 1.39178C24.3467 1.326 24.066 1.31512 23.7237 1.35896L19.9332 1.38515C19.8718 1.36339 19.7841 1.36542 19.6698 1.39178C19.5557 1.41815 19.4987 1.43139 19.4987 1.43139L19.4327 1.46435L19.3803 1.50395C19.3365 1.53013 19.2882 1.57619 19.2355 1.64202C19.1831 1.70762 19.1392 1.78461 19.1042 1.87233C18.6915 2.93407 18.2223 3.92122 17.6957 4.83373C17.371 5.37785 17.0728 5.84941 16.8005 6.24868C16.5286 6.64782 16.3004 6.94189 16.1163 7.1304C15.9319 7.31909 15.7655 7.47025 15.616 7.58444C15.4668 7.69868 15.3529 7.74694 15.274 7.72929C15.1949 7.71163 15.1205 7.69411 15.05 7.67659C14.9272 7.59758 14.8285 7.49012 14.754 7.35412C14.6793 7.21813 14.6289 7.04696 14.6026 6.84075C14.5764 6.6344 14.5609 6.45692 14.5565 6.30769C14.5524 6.15865 14.5543 5.94783 14.5632 5.67584C14.5723 5.40371 14.5764 5.21959 14.5764 5.12305C14.5764 4.78956 14.5829 4.42763 14.596 4.03716C14.6092 3.64669 14.62 3.33731 14.629 3.10939C14.6379 2.88124 14.6421 2.63986 14.6421 2.38539C14.6421 2.13091 14.6266 1.93134 14.596 1.7865C14.5657 1.64183 14.5193 1.50141 14.4581 1.36528C14.3966 1.22928 14.3065 1.12408 14.1883 1.0494C14.0699 0.974808 13.9226 0.915615 13.7474 0.871635C13.2823 0.766388 12.69 0.709454 11.9704 0.700603C10.3384 0.683085 9.28972 0.78847 8.82466 1.01662C8.6404 1.11302 8.47365 1.24472 8.32456 1.41133C8.16658 1.60445 8.14454 1.70983 8.25859 1.72717C8.78515 1.80604 9.15792 1.99473 9.37731 2.29305L9.45637 2.45112C9.51787 2.56518 9.57928 2.7671 9.64073 3.05661C9.70209 3.34612 9.74169 3.66637 9.75911 4.0172C9.80291 4.65785 9.80291 5.20626 9.75911 5.66247C9.71518 6.11886 9.67369 6.47416 9.63409 6.72863C9.59449 6.98311 9.5353 7.18931 9.45637 7.34721C9.37731 7.50515 9.32471 7.60168 9.29834 7.63672C9.27202 7.67175 9.25007 7.69383 9.23265 7.7025C9.1186 7.7462 8.99998 7.76847 8.87721 7.76847C8.75426 7.76847 8.60518 7.70697 8.42972 7.58407C8.25431 7.46117 8.07226 7.29235 7.88357 7.07734C7.69488 6.86228 7.48208 6.56175 7.24508 6.17571C7.00826 5.78966 6.76255 5.33341 6.50807 4.80694L6.29753 4.42514C6.16592 4.17952 5.98613 3.82187 5.75798 3.35252C5.52969 2.88299 5.32791 2.42881 5.15249 1.99007C5.08238 1.80581 4.97704 1.66553 4.83666 1.56899L4.77078 1.52939C4.72699 1.49436 4.65669 1.45716 4.56024 1.41751C4.46366 1.37791 4.36289 1.34951 4.2575 1.33204L0.651123 1.35822C0.282597 1.35822 0.032549 1.44171 -0.0991134 1.60846L-0.151806 1.68733C-0.178129 1.73127 -0.191406 1.80143 -0.191406 1.89801C-0.191406 1.99455 -0.165083 2.11302 -0.11239 2.25331C0.414075 3.49064 0.986595 4.68395 1.60517 5.83341C2.22374 6.98288 2.76127 7.9088 3.21743 8.61035C3.67369 9.31242 4.13875 9.97502 4.61261 10.5978C5.08648 11.2209 5.40015 11.6202 5.55361 11.7956C5.70727 11.9713 5.82796 12.1027 5.91568 12.1904L6.2448 12.5062C6.45538 12.7169 6.76462 12.9691 7.17266 13.263C7.58078 13.5571 8.03261 13.8466 8.52837 14.132C9.02423 14.417 9.60108 14.6495 10.2593 14.8293C10.9173 15.0094 11.5579 15.0816 12.1809 15.0467H13.6946C14.0015 15.0202 14.2341 14.9237 14.3922 14.7571L14.4446 14.6911C14.4798 14.6388 14.5127 14.5574 14.5432 14.4479C14.574 14.3382 14.5893 14.2174 14.5893 14.086C14.5803 13.7087 14.609 13.3687 14.6746 13.066C14.7402 12.7634 14.815 12.5353 14.8987 12.3816C14.9822 12.2281 15.0766 12.0986 15.1815 11.9936C15.2867 11.8883 15.3617 11.8246 15.4057 11.8026C15.4494 11.7805 15.4843 11.7656 15.5106 11.7566C15.7212 11.6864 15.969 11.7543 16.2545 11.9607C16.5397 12.1669 16.8072 12.4216 17.0574 12.7242C17.3075 13.027 17.608 13.3668 17.9589 13.7441C18.3101 14.1215 18.6171 14.402 18.8802 14.5865L19.1434 14.7445C19.3191 14.8498 19.5473 14.9464 19.8281 15.0341C20.1084 15.1218 20.3541 15.1437 20.565 15.0999L23.9343 15.0473C24.2676 15.0473 24.5269 14.9922 24.7108 14.8827C24.8951 14.773 25.0046 14.6522 25.0399 14.5207C25.0752 14.3892 25.077 14.2399 25.0466 14.073C25.0154 13.9065 24.9847 13.7901 24.954 13.7244Z" fill="currentColor"/>
<path d="M24.954 13.7244C24.9234 13.6584 24.8949 13.6037 24.8684 13.5598C24.4298 12.7699 23.5916 11.8003 22.3545 10.6508L22.3283 10.6245L22.3152 10.6116L22.302 10.5983H22.2887C21.7272 10.0631 21.3716 9.70316 21.2227 9.5189C20.9503 9.16789 20.8892 8.8126 21.0382 8.4526C21.1434 8.18061 21.5385 7.6062 22.2227 6.72859C22.5826 6.26348 22.8677 5.89071 23.0782 5.60987C24.5963 3.5916 25.2545 2.3019 25.0526 1.74026L24.9741 1.60901C24.9215 1.52999 24.7855 1.45771 24.5663 1.39178C24.3467 1.326 24.066 1.31512 23.7237 1.35896L19.9332 1.38515C19.8718 1.36339 19.7841 1.36542 19.6698 1.39178C19.5557 1.41815 19.4987 1.43139 19.4987 1.43139L19.4327 1.46435L19.3803 1.50395C19.3365 1.53013 19.2882 1.57619 19.2355 1.64202C19.1831 1.70762 19.1392 1.78461 19.1042 1.87233C18.6915 2.93407 18.2223 3.92122 17.6957 4.83373C17.371 5.37785 17.0728 5.84941 16.8005 6.24868C16.5286 6.64782 16.3004 6.94189 16.1163 7.1304C15.9319 7.31909 15.7655 7.47025 15.616 7.58444C15.4668 7.69868 15.3529 7.74694 15.274 7.72929C15.1949 7.71163 15.1205 7.69411 15.05 7.67659C14.9272 7.59758 14.8285 7.49012 14.754 7.35412C14.6793 7.21813 14.6289 7.04696 14.6026 6.84075C14.5764 6.6344 14.5609 6.45692 14.5565 6.30769C14.5524 6.15865 14.5543 5.94783 14.5632 5.67584C14.5723 5.40371 14.5764 5.21959 14.5764 5.12305C14.5764 4.78956 14.5829 4.42763 14.596 4.03716C14.6092 3.64669 14.62 3.33731 14.629 3.10939C14.6379 2.88124 14.6421 2.63986 14.6421 2.38539C14.6421 2.13091 14.6266 1.93134 14.596 1.7865C14.5657 1.64183 14.5193 1.50141 14.4581 1.36528C14.3966 1.22928 14.3065 1.12408 14.1883 1.0494C14.0699 0.974808 13.9226 0.915615 13.7474 0.871635C13.2823 0.766388 12.69 0.709454 11.9704 0.700603C10.3384 0.683085 9.28972 0.78847 8.82466 1.01662C8.6404 1.11302 8.47365 1.24472 8.32456 1.41133C8.16658 1.60445 8.14454 1.70983 8.25859 1.72717C8.78515 1.80604 9.15792 1.99473 9.37731 2.29305L9.45637 2.45112C9.51787 2.56518 9.57928 2.7671 9.64073 3.05661C9.70209 3.34612 9.74169 3.66637 9.75911 4.0172C9.80291 4.65785 9.80291 5.20626 9.75911 5.66247C9.71518 6.11886 9.67369 6.47416 9.63409 6.72863C9.59449 6.98311 9.5353 7.18931 9.45637 7.34721C9.37731 7.50515 9.32471 7.60168 9.29834 7.63672C9.27202 7.67175 9.25007 7.69383 9.23265 7.7025C9.1186 7.7462 8.99998 7.76847 8.87721 7.76847C8.75426 7.76847 8.60518 7.70697 8.42972 7.58407C8.25431 7.46117 8.07226 7.29235 7.88357 7.07734C7.69488 6.86228 7.48208 6.56175 7.24508 6.17571C7.00826 5.78966 6.76255 5.33341 6.50807 4.80694L6.29753 4.42514C6.16592 4.17952 5.98613 3.82187 5.75798 3.35252C5.52969 2.88299 5.32791 2.42881 5.15249 1.99007C5.08238 1.80581 4.97704 1.66553 4.83666 1.56899L4.77078 1.52939C4.72699 1.49436 4.65669 1.45716 4.56024 1.41751C4.46366 1.37791 4.36289 1.34951 4.2575 1.33204L0.651123 1.35822C0.282597 1.35822 0.032549 1.44171 -0.0991134 1.60846L-0.151806 1.68733C-0.178129 1.73127 -0.191406 1.80143 -0.191406 1.89801C-0.191406 1.99455 -0.165083 2.11302 -0.11239 2.25331C0.414075 3.49064 0.986595 4.68395 1.60517 5.83341C2.22374 6.98288 2.76127 7.9088 3.21743 8.61035C3.67369 9.31242 4.13875 9.97502 4.61261 10.5978C5.08648 11.2209 5.40015 11.6202 5.55361 11.7956C5.70727 11.9713 5.82796 12.1027 5.91568 12.1904L6.2448 12.5062C6.45538 12.7169 6.76462 12.9691 7.17266 13.263C7.58078 13.5571 8.03261 13.8466 8.52837 14.132C9.02423 14.417 9.60108 14.6495 10.2593 14.8293C10.9173 15.0094 11.5579 15.0816 12.1809 15.0467H13.6946C14.0015 15.0202 14.2341 14.9237 14.3922 14.7571L14.4446 14.6911C14.4798 14.6388 14.5127 14.5574 14.5432 14.4479C14.574 14.3382 14.5893 14.2174 14.5893 14.086C14.5803 13.7087 14.609 13.3687 14.6746 13.066C14.7402 12.7634 14.815 12.5353 14.8987 12.3816C14.9822 12.2281 15.0766 12.0986 15.1815 11.9936C15.2867 11.8883 15.3617 11.8246 15.4057 11.8026C15.4494 11.7805 15.4843 11.7656 15.5106 11.7566C15.7212 11.6864 15.969 11.7543 16.2545 11.9607C16.5397 12.1669 16.8072 12.4216 17.0574 12.7242C17.3075 13.027 17.608 13.3668 17.9589 13.7441C18.3101 14.1215 18.6171 14.402 18.8802 14.5865L19.1434 14.7445C19.3191 14.8498 19.5473 14.9464 19.8281 15.0341C20.1084 15.1218 20.3541 15.1437 20.565 15.0999L23.9343 15.0473C24.2676 15.0473 24.5269 14.9922 24.7108 14.8827C24.8951 14.773 25.0046 14.6522 25.0399 14.5207C25.0752 14.3892 25.077 14.2399 25.0466 14.073C25.0154 13.9065 24.9847 13.7901 24.954 13.7244Z" fill="currentColor"/>
</svg>
