<svg width="30" height="30" viewBox="0 0 30 30" fill="none" xmlns="http://www.w3.org/2000/svg">
<mask id="path-1-inside-1_515_520" fill="transparent">
<path fill-rule="evenodd" clip-rule="evenodd" d="M7.40625 16.9454H23.4727C23.9581 16.9454 24.3516 17.3389 24.3516 17.8243V29.1211C24.3516 29.6065 23.958 30 23.4727 30C22.9873 30 22.5938 29.6065 22.5938 29.1211V18.7032H6.52734C6.04195 18.7032 5.64844 18.3097 5.64844 17.8243V3.64066H5.11523C4.7823 3.64066 4.47797 3.45258 4.32914 3.1548C4.18025 2.85703 4.21236 2.50072 4.41211 2.23441L5.82422 0.351562C5.99021 0.130254 6.25072 0 6.52734 0C6.80402 0 7.06447 0.130254 7.23047 0.351562L8.61838 2.20207C8.74406 2.35412 8.81953 2.54912 8.81953 2.76176C8.81953 3.24715 8.42607 3.64066 7.94062 3.64066H7.93945H7.40625V16.9454ZM17.8242 22.5938H6.52734C6.04195 22.5938 5.64844 22.9873 5.64844 23.4727C5.64844 23.9581 6.04195 24.3516 6.52734 24.3516H16.9453V28.2422H6.52734H1.75781V6.52735C1.75781 6.04196 1.3643 5.64845 0.878906 5.64845C0.393516 5.64845 0 6.04196 0 6.52735V29.1211C0 29.6065 0.393516 30 0.878906 30H6.52734H17.8242C18.3096 30 18.7031 29.6065 18.7031 29.1211V23.4727C18.7031 22.9873 18.3096 22.5938 17.8242 22.5938ZM29.1211 5.64845H23.4727H12.1758C11.6904 5.64845 11.2969 6.04196 11.2969 6.52735V12.1758C11.2969 12.6612 11.6904 13.0547 12.1758 13.0547H23.4727C23.9581 13.0547 24.3516 12.6612 24.3516 12.1758C24.3516 11.6904 23.9581 11.2969 23.4727 11.2969H13.0547V7.40626H23.4727H28.2422V29.1211C28.2422 29.6065 28.6357 30 29.1211 30C29.6065 30 30 29.6065 30 29.1211V6.52735C30 6.04196 29.6065 5.64845 29.1211 5.64845Z"/>
</mask>
<path fill-rule="evenodd" clip-rule="evenodd" d="M7.40625 16.9454H23.4727C23.9581 16.9454 24.3516 17.3389 24.3516 17.8243V29.1211C24.3516 29.6065 23.958 30 23.4727 30C22.9873 30 22.5938 29.6065 22.5938 29.1211V18.7032H6.52734C6.04195 18.7032 5.64844 18.3097 5.64844 17.8243V3.64066H5.11523C4.7823 3.64066 4.47797 3.45258 4.32914 3.1548C4.18025 2.85703 4.21236 2.50072 4.41211 2.23441L5.82422 0.351562C5.99021 0.130254 6.25072 0 6.52734 0C6.80402 0 7.06447 0.130254 7.23047 0.351562L8.61838 2.20207C8.74406 2.35412 8.81953 2.54912 8.81953 2.76176C8.81953 3.24715 8.42607 3.64066 7.94062 3.64066H7.93945H7.40625V16.9454ZM17.8242 22.5938H6.52734C6.04195 22.5938 5.64844 22.9873 5.64844 23.4727C5.64844 23.9581 6.04195 24.3516 6.52734 24.3516H16.9453V28.2422H6.52734H1.75781V6.52735C1.75781 6.04196 1.3643 5.64845 0.878906 5.64845C0.393516 5.64845 0 6.04196 0 6.52735V29.1211C0 29.6065 0.393516 30 0.878906 30H6.52734H17.8242C18.3096 30 18.7031 29.6065 18.7031 29.1211V23.4727C18.7031 22.9873 18.3096 22.5938 17.8242 22.5938ZM29.1211 5.64845H23.4727H12.1758C11.6904 5.64845 11.2969 6.04196 11.2969 6.52735V12.1758C11.2969 12.6612 11.6904 13.0547 12.1758 13.0547H23.4727C23.9581 13.0547 24.3516 12.6612 24.3516 12.1758C24.3516 11.6904 23.9581 11.2969 23.4727 11.2969H13.0547V7.40626H23.4727H28.2422V29.1211C28.2422 29.6065 28.6357 30 29.1211 30C29.6065 30 30 29.6065 30 29.1211V6.52735C30 6.04196 29.6065 5.64845 29.1211 5.64845Z" fill="currentColor"/>
<path d="M7.40625 16.9454H6.90625V17.4454H7.40625V16.9454ZM24.3516 17.8243L23.8516 17.8242V17.8243H24.3516ZM22.5938 18.7032H23.0938V18.2032H22.5938V18.7032ZM5.64844 3.64066H6.14844V3.14066H5.64844V3.64066ZM4.32914 3.1548L4.77639 2.93127L4.77635 2.9312L4.32914 3.1548ZM4.41211 2.23441L4.8121 2.53443L4.81211 2.53441L4.41211 2.23441ZM5.82422 0.351562L5.42423 0.0515456L5.42421 0.0515665L5.82422 0.351562ZM7.23047 0.351562L7.63046 0.0515583L7.63045 0.0515456L7.23047 0.351562ZM8.61838 2.20207L8.21838 2.50207L8.22547 2.51152L8.23299 2.52063L8.61838 2.20207ZM7.40625 3.64066V3.14066H6.90625V3.64066H7.40625ZM16.9453 24.3516H17.4453V23.8516H16.9453V24.3516ZM16.9453 28.2422V28.7422H17.4453V28.2422H16.9453ZM1.75781 28.2422H1.25781V28.7422H1.75781V28.2422ZM13.0547 11.2969H12.5547V11.7969H13.0547V11.2969ZM13.0547 7.40626V6.90626H12.5547V7.40626H13.0547ZM28.2422 7.40626H28.7422V6.90626H28.2422V7.40626ZM23.4727 16.4454H7.40625V17.4454H23.4727V16.4454ZM24.8516 17.8243C24.8517 17.0627 24.2342 16.4454 23.4727 16.4454V17.4454C23.682 17.4454 23.8516 17.615 23.8516 17.8242L24.8516 17.8243ZM24.8516 29.1211V17.8243H23.8516V29.1211H24.8516ZM23.4727 30.5C24.2342 30.5 24.8516 29.8826 24.8516 29.1211H23.8516C23.8516 29.3303 23.6819 29.5 23.4727 29.5V30.5ZM22.0938 29.1211C22.0938 29.8826 22.7111 30.5 23.4727 30.5V29.5C23.2634 29.5 23.0938 29.3303 23.0938 29.1211H22.0938ZM22.0938 18.7032V29.1211H23.0938V18.7032H22.0938ZM6.52734 19.2032H22.5938V18.2032H6.52734V19.2032ZM5.14844 17.8243C5.14844 18.5858 5.76581 19.2032 6.52734 19.2032V18.2032C6.31809 18.2032 6.14844 18.0335 6.14844 17.8243H5.14844ZM5.14844 3.64066V17.8243H6.14844V3.64066H5.14844ZM5.11523 4.14066H5.64844V3.14066H5.11523V4.14066ZM3.88189 3.37834C4.11542 3.84559 4.59294 4.14066 5.11523 4.14066V3.14066C4.97167 3.14066 4.84051 3.05957 4.77639 2.93127L3.88189 3.37834ZM4.01212 1.9344C3.69871 2.35225 3.64836 2.91128 3.88193 3.37841L4.77635 2.9312C4.71215 2.80279 4.72602 2.6492 4.8121 2.53443L4.01212 1.9344ZM5.42421 0.0515665L4.0121 1.93442L4.81211 2.53441L6.22422 0.651559L5.42421 0.0515665ZM6.52734 -0.5C6.09333 -0.5 5.68464 -0.295643 5.42423 0.0515456L6.2242 0.651579C6.29578 0.556151 6.40811 0.5 6.52734 0.5V-0.5ZM7.63045 0.0515456C7.37005 -0.295629 6.96143 -0.5 6.52734 -0.5V0.5C6.64662 0.5 6.75889 0.556137 6.83048 0.651579L7.63045 0.0515456ZM9.01837 1.90207L7.63046 0.0515583L6.83047 0.651567L8.21838 2.50207L9.01837 1.90207ZM9.31953 2.76176C9.31953 2.42865 9.20082 2.12191 9.00376 1.88351L8.23299 2.52063C8.2873 2.58633 8.31953 2.66959 8.31953 2.76176H9.31953ZM7.94062 4.14066C8.70224 4.14066 9.31953 3.52327 9.31953 2.76176H8.31953C8.31953 2.97103 8.14991 3.14066 7.94062 3.14066V4.14066ZM7.93945 4.14066H7.94062V3.14066H7.93945V4.14066ZM7.40625 4.14066H7.93945V3.14066H7.40625V4.14066ZM7.90625 16.9454V3.64066H6.90625V16.9454H7.90625ZM6.52734 23.0938H17.8242V22.0938H6.52734V23.0938ZM6.14844 23.4727C6.14844 23.2635 6.31809 23.0938 6.52734 23.0938V22.0938C5.76581 22.0938 5.14844 22.7112 5.14844 23.4727H6.14844ZM6.52734 23.8516C6.31809 23.8516 6.14844 23.682 6.14844 23.4727H5.14844C5.14844 24.2343 5.76581 24.8516 6.52734 24.8516V23.8516ZM16.9453 23.8516H6.52734V24.8516H16.9453V23.8516ZM17.4453 28.2422V24.3516H16.4453V28.2422H17.4453ZM6.52734 28.7422H16.9453V27.7422H6.52734V28.7422ZM1.75781 28.7422H6.52734V27.7422H1.75781V28.7422ZM1.25781 6.52735V28.2422H2.25781V6.52735H1.25781ZM0.878906 6.14845C1.08815 6.14845 1.25781 6.3181 1.25781 6.52735H2.25781C2.25781 5.76582 1.64044 5.14845 0.878906 5.14845V6.14845ZM0.5 6.52735C0.5 6.3181 0.669658 6.14845 0.878906 6.14845V5.14845C0.117373 5.14845 -0.5 5.76582 -0.5 6.52735H0.5ZM0.5 29.1211V6.52735H-0.5V29.1211H0.5ZM0.878906 29.5C0.669658 29.5 0.5 29.3303 0.5 29.1211H-0.5C-0.5 29.8826 0.117373 30.5 0.878906 30.5V29.5ZM6.52734 29.5H0.878906V30.5H6.52734V29.5ZM17.8242 29.5H6.52734V30.5H17.8242V29.5ZM18.2031 29.1211C18.2031 29.3303 18.0335 29.5 17.8242 29.5V30.5C18.5858 30.5 19.2031 29.8826 19.2031 29.1211H18.2031ZM18.2031 23.4727V29.1211H19.2031V23.4727H18.2031ZM17.8242 23.0938C18.0335 23.0938 18.2031 23.2634 18.2031 23.4727H19.2031C19.2031 22.7111 18.5857 22.0938 17.8242 22.0938V23.0938ZM23.4727 6.14845H29.1211V5.14845H23.4727V6.14845ZM12.1758 6.14845H23.4727V5.14845H12.1758V6.14845ZM11.7969 6.52735C11.7969 6.3181 11.9665 6.14845 12.1758 6.14845V5.14845C11.4143 5.14845 10.7969 5.76582 10.7969 6.52735H11.7969ZM11.7969 12.1758V6.52735H10.7969V12.1758H11.7969ZM12.1758 12.5547C11.9665 12.5547 11.7969 12.385 11.7969 12.1758H10.7969C10.7969 12.9373 11.4143 13.5547 12.1758 13.5547V12.5547ZM23.4727 12.5547H12.1758V13.5547H23.4727V12.5547ZM23.8516 12.1758C23.8516 12.385 23.682 12.5547 23.4727 12.5547V13.5547C24.2343 13.5547 24.8516 12.9373 24.8516 12.1758H23.8516ZM23.4727 11.7969C23.682 11.7969 23.8516 11.9665 23.8516 12.1758H24.8516C24.8516 11.4143 24.2343 10.7969 23.4727 10.7969V11.7969ZM13.0547 11.7969H23.4727V10.7969H13.0547V11.7969ZM12.5547 7.40626V11.2969H13.5547V7.40626H12.5547ZM23.4727 6.90626H13.0547V7.90626H23.4727V6.90626ZM28.2422 6.90626H23.4727V7.90626H28.2422V6.90626ZM28.7422 29.1211V7.40626H27.7422V29.1211H28.7422ZM29.1211 29.5C28.9119 29.5 28.7422 29.3303 28.7422 29.1211H27.7422C27.7422 29.8826 28.3596 30.5 29.1211 30.5V29.5ZM29.5 29.1211C29.5 29.3303 29.3304 29.5 29.1211 29.5V30.5C29.8826 30.5 30.5 29.8826 30.5 29.1211H29.5ZM29.5 6.52735V29.1211H30.5V6.52735H29.5ZM29.1211 6.14845C29.3304 6.14845 29.5 6.3181 29.5 6.52735H30.5C30.5 5.76582 29.8826 5.14845 29.1211 5.14845V6.14845Z" fill="transparent" mask="url(#path-1-inside-1_515_520)"/>
</svg>
