<svg width="8" height="5" viewBox="0 0 8 5" fill="none" xmlns="http://www.w3.org/2000/svg">
<path d="M3.96875 0.466553L1.07812 3.33765C0.960938 3.45483 0.960938 3.56551 1.07812 3.66968L1.44922 4.0603C1.56641 4.16447 1.67708 4.16447 1.78125 4.0603L4.125 1.73608L6.46875 4.0603C6.57292 4.16447 6.68359 4.16447 6.80078 4.0603L7.17188 3.66968C7.28906 3.56551 7.28906 3.45483 7.17188 3.33765L4.28125 0.466553C4.17708 0.362386 4.07292 0.362386 3.96875 0.466553Z" fill="#AAB5BD"/>
<path d="M3.96875 0.466553L1.07812 3.33765C0.960938 3.45483 0.960938 3.56551 1.07812 3.66968L1.44922 4.0603C1.56641 4.16447 1.67708 4.16447 1.78125 4.0603L4.125 1.73608L6.46875 4.0603C6.57292 4.16447 6.68359 4.16447 6.80078 4.0603L7.17188 3.66968C7.28906 3.56551 7.28906 3.45483 7.17188 3.33765L4.28125 0.466553C4.17708 0.362386 4.07292 0.362386 3.96875 0.466553Z" fill="white"/>
</svg>
