<svg width="29" height="20" viewBox="0 0 29 20" fill="none" xmlns="http://www.w3.org/2000/svg">
<path d="M28.4025 3.12952C28.0683 1.90578 27.0888 0.941123 25.8466 0.611608C23.5772 0 14.4997 0 14.4997 0C14.4997 0 5.42247 0 3.15312 0.58842C1.93481 0.917586 0.931386 1.90596 0.597206 3.12952C0 5.36465 0 10 0 10C0 10 0 14.6587 0.597206 16.8705C0.93174 18.094 1.91092 19.0587 3.1533 19.3882C5.44636 20 14.5 20 14.5 20C14.5 20 23.5772 20 25.8466 19.4116C27.089 19.0822 28.0683 18.1176 28.4028 16.894C28.9999 14.6587 28.9999 10.0235 28.9999 10.0235C28.9999 10.0235 29.0238 5.36465 28.4025 3.12952ZM11.6096 14.2823V5.7177L19.158 10L11.6096 14.2823Z" fill="currentColor"/>
<path d="M28.4025 3.12952C28.0683 1.90578 27.0888 0.941123 25.8466 0.611608C23.5772 0 14.4997 0 14.4997 0C14.4997 0 5.42247 0 3.15312 0.58842C1.93481 0.917586 0.931386 1.90596 0.597206 3.12952C0 5.36465 0 10 0 10C0 10 0 14.6587 0.597206 16.8705C0.93174 18.094 1.91092 19.0587 3.1533 19.3882C5.44636 20 14.5 20 14.5 20C14.5 20 23.5772 20 25.8466 19.4116C27.089 19.0822 28.0683 18.1176 28.4028 16.894C28.9999 14.6587 28.9999 10.0235 28.9999 10.0235C28.9999 10.0235 29.0238 5.36465 28.4025 3.12952ZM11.6096 14.2823V5.7177L19.158 10L11.6096 14.2823Z" fill="currentColor"/>
<path d="M28.4025 3.12952C28.0683 1.90578 27.0888 0.941123 25.8466 0.611608C23.5772 0 14.4997 0 14.4997 0C14.4997 0 5.42247 0 3.15312 0.58842C1.93481 0.917586 0.931386 1.90596 0.597206 3.12952C0 5.36465 0 10 0 10C0 10 0 14.6587 0.597206 16.8705C0.93174 18.094 1.91092 19.0587 3.1533 19.3882C5.44636 20 14.5 20 14.5 20C14.5 20 23.5772 20 25.8466 19.4116C27.089 19.0822 28.0683 18.1176 28.4028 16.894C28.9999 14.6587 28.9999 10.0235 28.9999 10.0235C28.9999 10.0235 29.0238 5.36465 28.4025 3.12952ZM11.6096 14.2823V5.7177L19.158 10L11.6096 14.2823Z" fill="currentColor"/>
</svg>
