<svg width="15" height="16" viewBox="0 0 15 16" fill="none" xmlns="http://www.w3.org/2000/svg">
<path fill-rule="evenodd" clip-rule="evenodd" d="M5.83333 9.70263L11.0629 0.583252H14.5833L9.3538 9.70263L12.7236 15.5833H9.20311L5.83333 9.70263ZM0.644281 3.49992H4.19555L6.25 6.67915L3.55127 10.5833H0L2.69873 6.67915L0.644281 3.49992Z" fill="currentColor"/>
<path fill-rule="evenodd" clip-rule="evenodd" d="M5.83333 9.70263L11.0629 0.583252H14.5833L9.3538 9.70263L12.7236 15.5833H9.20311L5.83333 9.70263ZM0.644281 3.49992H4.19555L6.25 6.67915L3.55127 10.5833H0L2.69873 6.67915L0.644281 3.49992Z" fill="currentColor"/>
<path fill-rule="evenodd" clip-rule="evenodd" d="M5.83333 9.70263L11.0629 0.583252H14.5833L9.3538 9.70263L12.7236 15.5833H9.20311L5.83333 9.70263ZM0.644281 3.49992H4.19555L6.25 6.67915L3.55127 10.5833H0L2.69873 6.67915L0.644281 3.49992Z" fill="currentColor"/>
</svg>
