<svg width="19" height="15" viewBox="0 0 19 15" fill="none" xmlns="http://www.w3.org/2000/svg">
<path d="M18.6667 1.72544C18.0072 2.01824 17.2997 2.21681 16.5562 2.30546C17.3153 1.84997 17.8964 1.12749 18.1718 0.269243C17.4597 0.691061 16.6738 0.997355 15.8363 1.1634C15.1657 0.446519 14.2118 0 13.1538 0C11.124 0 9.47821 1.64916 9.47821 3.68201C9.47821 3.97032 9.51068 4.25192 9.57339 4.52119C6.51918 4.36747 3.81092 2.90118 1.99831 0.673108C1.68146 1.21611 1.50121 1.84882 1.50121 2.52422C1.50121 3.80205 2.15058 4.92954 3.13582 5.58918C2.53347 5.569 1.96696 5.40296 1.471 5.12697V5.17297C1.471 6.95676 2.73837 8.44548 4.41885 8.78431C4.11096 8.86733 3.78629 8.91333 3.45041 8.91333C3.21308 8.91333 2.98356 8.88977 2.75851 8.84489C3.22649 10.3089 4.58344 11.3736 6.19117 11.4028C4.93387 12.39 3.34854 12.9768 1.62663 12.9768C1.32995 12.9768 1.03772 12.9588 0.75 12.9263C2.37676 13.973 4.30804 14.5833 6.38375 14.5833C13.1449 14.5833 16.8407 8.97168 16.8407 4.10497L16.8283 3.62818C17.5504 3.11208 18.1752 2.46364 18.6667 1.72544Z" fill="currentColor"/>
<path d="M18.6667 1.72544C18.0072 2.01824 17.2997 2.21681 16.5562 2.30546C17.3153 1.84997 17.8964 1.12749 18.1718 0.269243C17.4597 0.691061 16.6738 0.997355 15.8363 1.1634C15.1657 0.446519 14.2118 0 13.1538 0C11.124 0 9.47821 1.64916 9.47821 3.68201C9.47821 3.97032 9.51068 4.25192 9.57339 4.52119C6.51918 4.36747 3.81092 2.90118 1.99831 0.673108C1.68146 1.21611 1.50121 1.84882 1.50121 2.52422C1.50121 3.80205 2.15058 4.92954 3.13582 5.58918C2.53347 5.569 1.96696 5.40296 1.471 5.12697V5.17297C1.471 6.95676 2.73837 8.44548 4.41885 8.78431C4.11096 8.86733 3.78629 8.91333 3.45041 8.91333C3.21308 8.91333 2.98356 8.88977 2.75851 8.84489C3.22649 10.3089 4.58344 11.3736 6.19117 11.4028C4.93387 12.39 3.34854 12.9768 1.62663 12.9768C1.32995 12.9768 1.03772 12.9588 0.75 12.9263C2.37676 13.973 4.30804 14.5833 6.38375 14.5833C13.1449 14.5833 16.8407 8.97168 16.8407 4.10497L16.8283 3.62818C17.5504 3.11208 18.1752 2.46364 18.6667 1.72544Z" fill="currentColor"/>
<path d="M18.6667 1.72544C18.0072 2.01824 17.2997 2.21681 16.5562 2.30546C17.3153 1.84997 17.8964 1.12749 18.1718 0.269243C17.4597 0.691061 16.6738 0.997355 15.8363 1.1634C15.1657 0.446519 14.2118 0 13.1538 0C11.124 0 9.47821 1.64916 9.47821 3.68201C9.47821 3.97032 9.51068 4.25192 9.57339 4.52119C6.51918 4.36747 3.81092 2.90118 1.99831 0.673108C1.68146 1.21611 1.50121 1.84882 1.50121 2.52422C1.50121 3.80205 2.15058 4.92954 3.13582 5.58918C2.53347 5.569 1.96696 5.40296 1.471 5.12697V5.17297C1.471 6.95676 2.73837 8.44548 4.41885 8.78431C4.11096 8.86733 3.78629 8.91333 3.45041 8.91333C3.21308 8.91333 2.98356 8.88977 2.75851 8.84489C3.22649 10.3089 4.58344 11.3736 6.19117 11.4028C4.93387 12.39 3.34854 12.9768 1.62663 12.9768C1.32995 12.9768 1.03772 12.9588 0.75 12.9263C2.37676 13.973 4.30804 14.5833 6.38375 14.5833C13.1449 14.5833 16.8407 8.97168 16.8407 4.10497L16.8283 3.62818C17.5504 3.11208 18.1752 2.46364 18.6667 1.72544Z" fill="currentColor"/>
</svg>
