<svg width="12" height="21" viewBox="0 0 12 21" fill="none" xmlns="http://www.w3.org/2000/svg">
<path fill-rule="evenodd" clip-rule="evenodd" d="M10.802 11.0684L1.6862 20.4091C1.30046 20.8044 0.675058 20.8044 0.289322 20.4091C-0.0964152 20.0138 -0.0964153 19.373 0.289322 18.9778L8.70665 10.3528L0.289304 1.72778C-0.0964337 1.33253 -0.0964349 0.691697 0.289301 0.296442C0.675037 -0.0988126 1.30044 -0.0988144 1.68618 0.296439L10.8018 9.6369C10.8018 9.63697 10.8019 9.63703 10.802 9.63709C11.1877 10.0323 11.1877 10.6732 10.802 11.0684Z" fill="white"/>
<path fill-rule="evenodd" clip-rule="evenodd" d="M10.802 11.0684L1.6862 20.4091C1.30046 20.8044 0.675058 20.8044 0.289322 20.4091C-0.0964152 20.0138 -0.0964153 19.373 0.289322 18.9778L8.70665 10.3528L0.289304 1.72778C-0.0964337 1.33253 -0.0964349 0.691697 0.289301 0.296442C0.675037 -0.0988126 1.30044 -0.0988144 1.68618 0.296439L10.8018 9.6369C10.8018 9.63697 10.8019 9.63703 10.802 9.63709C11.1877 10.0323 11.1877 10.6732 10.802 11.0684Z" fill="url(#paint0_linear_459_377)"/>
<defs>
<linearGradient id="paint0_linear_459_377" x1="0" y1="0" x2="11.4608" y2="0.206577" gradientUnits="userSpaceOnUse">
<stop stop-color="#FA3901"/>
<stop offset="1" stop-color="#FF8902"/>
</linearGradient>
</defs>
</svg>
