<svg width="30" height="30" viewBox="0 0 30 30" fill="none" xmlns="http://www.w3.org/2000/svg">
<path d="M15 0C9.48611 0 5 4.48611 5 10C5 11.6553 5.41385 13.2965 6.20059 14.7522L14.4532 29.6777C14.563 29.8767 14.7724 30 15 30C15.2277 30 15.437 29.8767 15.5469 29.6777L23.8025 14.7473C24.5862 13.2965 25 11.6552 25 9.99996C25 4.48611 20.5139 0 15 0ZM22.7057 14.1473L15 28.0835L7.2974 14.1529C6.61197 12.8845 6.25004 11.4484 6.25004 10C6.25004 5.17518 10.1752 1.25004 15 1.25004C19.8248 1.25004 23.75 5.17523 23.75 10C23.75 11.4483 23.3881 12.8845 22.7057 14.1473Z" fill="black"/>
<path d="M15 0C9.48611 0 5 4.48611 5 10C5 11.6553 5.41385 13.2965 6.20059 14.7522L14.4532 29.6777C14.563 29.8767 14.7724 30 15 30C15.2277 30 15.437 29.8767 15.5469 29.6777L23.8025 14.7473C24.5862 13.2965 25 11.6552 25 9.99996C25 4.48611 20.5139 0 15 0ZM22.7057 14.1473L15 28.0835L7.2974 14.1529C6.61197 12.8845 6.25004 11.4484 6.25004 10C6.25004 5.17518 10.1752 1.25004 15 1.25004C19.8248 1.25004 23.75 5.17523 23.75 10C23.75 11.4483 23.3881 12.8845 22.7057 14.1473Z" fill="url(#paint0_linear_459_11210)"/>
<path d="M15 5C12.243 5 10 7.24303 10 9.99998C10 12.757 12.243 15 15 15C17.7569 15 20 12.757 20 10C20 7.24309 17.7569 5 15 5ZM15 13.75C12.9321 13.75 11.25 12.0679 11.25 10C11.25 7.93215 12.9321 6.25004 15 6.25004C17.0679 6.25004 18.75 7.93215 18.75 10C18.75 12.0679 17.0679 13.75 15 13.75Z" fill="black"/>
<path d="M15 5C12.243 5 10 7.24303 10 9.99998C10 12.757 12.243 15 15 15C17.7569 15 20 12.757 20 10C20 7.24309 17.7569 5 15 5ZM15 13.75C12.9321 13.75 11.25 12.0679 11.25 10C11.25 7.93215 12.9321 6.25004 15 6.25004C17.0679 6.25004 18.75 7.93215 18.75 10C18.75 12.0679 17.0679 13.75 15 13.75Z" fill="url(#paint1_linear_459_11210)"/>
<defs>
<linearGradient id="paint0_linear_459_11210" x1="5" y1="0" x2="25.6626" y2="0.463521" gradientUnits="userSpaceOnUse">
<stop stop-color="#FA3901"/>
<stop offset="1" stop-color="#FF8902"/>
</linearGradient>
<linearGradient id="paint1_linear_459_11210" x1="10" y1="5" x2="20.3248" y2="5.34742" gradientUnits="userSpaceOnUse">
<stop stop-color="#FA3901"/>
<stop offset="1" stop-color="#FF8902"/>
</linearGradient>
</defs>
</svg>
