<svg width="24" height="24" viewBox="0 0 24 24" fill="none" xmlns="http://www.w3.org/2000/svg">
<g clip-path="url(#clip0_391_4428)">
<path d="M9.94944 18.2927L7.12141 21.1207C5.94897 22.2932 4.05028 22.2932 2.87882 21.121C1.70713 19.9493 1.70713 18.0504 2.87859 16.8789L8.53564 11.2219C9.7071 10.0504 11.606 10.0504 12.7774 11.2219C13.1679 11.6124 13.8011 11.6124 14.1917 11.2219C14.5822 10.8314 14.5822 10.1982 14.1917 9.80767C12.2391 7.85513 9.07395 7.85513 7.12141 9.80767L1.46441 15.4647C-0.488136 17.4172 -0.488136 20.5824 1.46441 22.5349C3.41672 24.4885 6.58211 24.4885 8.53568 22.5349L11.3637 19.7069C11.7542 19.3164 11.7542 18.6832 11.3637 18.2927C10.9732 17.9021 10.34 17.9022 9.94944 18.2927Z" fill="#000AFF"/>
<path d="M22.5344 1.46465C20.5818 -0.487892 17.4157 -0.487892 15.4631 1.46465L12.0701 4.85767C11.6796 5.24819 11.6796 5.88138 12.0701 6.2719C12.4606 6.66242 13.0938 6.66242 13.4843 6.2719L16.8773 2.87888C18.0488 1.70737 19.9487 1.70737 21.1202 2.87888C22.2916 4.05034 22.2916 5.94921 21.1202 7.12067L14.8981 13.3428C13.7266 14.5143 11.8278 14.5143 10.6563 13.3428C10.2658 12.9522 9.63263 12.9522 9.24211 13.3428C8.85159 13.7333 8.85159 14.3665 9.24211 14.757C11.1947 16.7095 14.3598 16.7095 16.3124 14.757L22.5344 8.53494C24.4869 6.5824 24.4869 3.41719 22.5344 1.46465Z" fill="#000AFF"/>
</g>
<defs>
<clipPath id="clip0_391_4428">
<rect width="24" height="24" fill="white"/>
</clipPath>
</defs>
</svg>
