<svg width="9" height="16" viewBox="0 0 9 16" fill="none" xmlns="http://www.w3.org/2000/svg">
<path fill-rule="evenodd" clip-rule="evenodd" d="M0.288656 8.71566C0.288595 8.7156 0.288535 8.71554 0.288474 8.71548C-0.0972614 8.32022 -0.0972605 7.67939 0.288477 7.28414L7.03648 0.369681C7.42222 -0.0255722 8.04762 -0.0255704 8.43336 0.369684C8.81909 0.764939 8.81909 1.40577 8.43335 1.80102L2.38379 7.99981L8.43334 14.1986C8.81908 14.5939 8.81908 15.2347 8.43334 15.6299C8.0476 16.0252 7.4222 16.0252 7.03646 15.6299L0.288656 8.71566Z" fill="white"/>
<path fill-rule="evenodd" clip-rule="evenodd" d="M0.288656 8.71566C0.288595 8.7156 0.288535 8.71554 0.288474 8.71548C-0.0972614 8.32022 -0.0972605 7.67939 0.288477 7.28414L7.03648 0.369681C7.42222 -0.0255722 8.04762 -0.0255704 8.43336 0.369684C8.81909 0.764939 8.81909 1.40577 8.43335 1.80102L2.38379 7.99981L8.43334 14.1986C8.81908 14.5939 8.81908 15.2347 8.43334 15.6299C8.0476 16.0252 7.4222 16.0252 7.03646 15.6299L0.288656 8.71566Z" fill="white"/>
</svg>
