<svg width="30" height="30" viewBox="0 0 30 30" fill="none" xmlns="http://www.w3.org/2000/svg">
<g clip-path="url(#clip0_459_11228)">
<path d="M1.91484 29C1.91484 21.9424 7.65728 16.2 14.7148 16.2C21.7724 16.2 27.5148 21.9424 27.5148 28.9999C27.5148 29.4414 27.1563 29.7999 26.7148 29.7999C26.2733 29.7999 25.9148 29.4414 25.9148 28.9999C25.9148 22.8235 20.8913 17.8 14.7148 17.8C8.5384 17.8 3.5149 22.8235 3.5149 28.9999C3.5149 29.4415 3.15639 29.8 2.71487 29.8C2.27333 29.8 1.91484 29.4415 1.91484 29Z" fill="black"/>
<path d="M1.91484 29C1.91484 21.9424 7.65728 16.2 14.7148 16.2C21.7724 16.2 27.5148 21.9424 27.5148 28.9999C27.5148 29.4414 27.1563 29.7999 26.7148 29.7999C26.2733 29.7999 25.9148 29.4414 25.9148 28.9999C25.9148 22.8235 20.8913 17.8 14.7148 17.8C8.5384 17.8 3.5149 22.8235 3.5149 28.9999C3.5149 29.4415 3.15639 29.8 2.71487 29.8C2.27333 29.8 1.91484 29.4415 1.91484 29Z" fill="url(#paint0_linear_459_11228)"/>
<path d="M1.91484 29C1.91484 21.9424 7.65728 16.2 14.7148 16.2C21.7724 16.2 27.5148 21.9424 27.5148 28.9999C27.5148 29.4414 27.1563 29.7999 26.7148 29.7999C26.2733 29.7999 25.9148 29.4414 25.9148 28.9999C25.9148 22.8235 20.8913 17.8 14.7148 17.8C8.5384 17.8 3.5149 22.8235 3.5149 28.9999C3.5149 29.4415 3.15639 29.8 2.71487 29.8C2.27333 29.8 1.91484 29.4415 1.91484 29Z" stroke="#FEFEFE" stroke-width="0.4"/>
<path d="M7.91484 7.00001C7.91484 3.25042 10.9654 0.2 14.7149 0.2C18.4644 0.2 21.5149 3.25051 21.5149 7.00001C21.5149 10.7495 18.4644 13.8 14.7149 13.8C10.9653 13.8 7.91484 10.7496 7.91484 7.00001ZM9.5149 7.00001C9.5149 9.86643 11.8484 12.2 14.7149 12.2C17.5814 12.2 19.9148 9.86642 19.9148 7.00001C19.9148 4.13359 17.5813 1.80006 14.7149 1.80006C11.8484 1.80006 9.5149 4.13359 9.5149 7.00001Z" fill="black"/>
<path d="M7.91484 7.00001C7.91484 3.25042 10.9654 0.2 14.7149 0.2C18.4644 0.2 21.5149 3.25051 21.5149 7.00001C21.5149 10.7495 18.4644 13.8 14.7149 13.8C10.9653 13.8 7.91484 10.7496 7.91484 7.00001ZM9.5149 7.00001C9.5149 9.86643 11.8484 12.2 14.7149 12.2C17.5814 12.2 19.9148 9.86642 19.9148 7.00001C19.9148 4.13359 17.5813 1.80006 14.7149 1.80006C11.8484 1.80006 9.5149 4.13359 9.5149 7.00001Z" fill="url(#paint1_linear_459_11228)"/>
<path d="M7.91484 7.00001C7.91484 3.25042 10.9654 0.2 14.7149 0.2C18.4644 0.2 21.5149 3.25051 21.5149 7.00001C21.5149 10.7495 18.4644 13.8 14.7149 13.8C10.9653 13.8 7.91484 10.7496 7.91484 7.00001ZM9.5149 7.00001C9.5149 9.86643 11.8484 12.2 14.7149 12.2C17.5814 12.2 19.9148 9.86642 19.9148 7.00001C19.9148 4.13359 17.5813 1.80006 14.7149 1.80006C11.8484 1.80006 9.5149 4.13359 9.5149 7.00001Z" stroke="#FEFEFE" stroke-width="0.4"/>
</g>
<defs>
<linearGradient id="paint0_linear_459_11228" x1="1.71484" y1="16" x2="28.4852" y2="17.6729" gradientUnits="userSpaceOnUse">
<stop stop-color="#FA3901"/>
<stop offset="1" stop-color="#FF8902"/>
</linearGradient>
<linearGradient id="paint1_linear_459_11228" x1="7.71484" y1="0" x2="22.1696" y2="0.48639" gradientUnits="userSpaceOnUse">
<stop stop-color="#FA3901"/>
<stop offset="1" stop-color="#FF8902"/>
</linearGradient>
<clipPath id="clip0_459_11228">
<rect width="30" height="30" fill="white"/>
</clipPath>
</defs>
</svg>
