<svg width="55" height="43" viewBox="0 0 55 43" fill="none" xmlns="http://www.w3.org/2000/svg">
<g opacity="0.78">
<path d="M50.166 0.552734H4.83398C2.17186 0.552734 0 2.72223 0 5.38672V37.6133C0 40.2687 2.16219 42.4473 4.83398 42.4473H50.166C52.8215 42.4473 55 40.2851 55 37.6133V5.38672C55 2.73125 52.8378 0.552734 50.166 0.552734ZM49.4985 3.77539L27.6025 25.6715L5.51708 3.77539H49.4985ZM3.22266 36.946V6.03866L18.7429 21.4258L3.22266 36.946ZM5.5014 39.2246L21.0314 23.6946L26.473 29.0896C27.103 29.7141 28.1195 29.7121 28.7468 29.0846L34.0527 23.7787L49.4986 39.2246H5.5014ZM51.7773 36.9459L36.3315 21.5L51.7773 6.05402V36.9459Z" fill="black"/>
<path d="M50.166 0.552734H4.83398C2.17186 0.552734 0 2.72223 0 5.38672V37.6133C0 40.2687 2.16219 42.4473 4.83398 42.4473H50.166C52.8215 42.4473 55 40.2851 55 37.6133V5.38672C55 2.73125 52.8378 0.552734 50.166 0.552734ZM49.4985 3.77539L27.6025 25.6715L5.51708 3.77539H49.4985ZM3.22266 36.946V6.03866L18.7429 21.4258L3.22266 36.946ZM5.5014 39.2246L21.0314 23.6946L26.473 29.0896C27.103 29.7141 28.1195 29.7121 28.7468 29.0846L34.0527 23.7787L49.4986 39.2246H5.5014ZM51.7773 36.9459L36.3315 21.5L51.7773 6.05402V36.9459Z" fill="url(#paint0_linear_457_1573)"/>
<path d="M50.166 0.552734H4.83398C2.17186 0.552734 0 2.72223 0 5.38672V37.6133C0 40.2687 2.16219 42.4473 4.83398 42.4473H50.166C52.8215 42.4473 55 40.2851 55 37.6133V5.38672C55 2.73125 52.8378 0.552734 50.166 0.552734ZM49.4985 3.77539L27.6025 25.6715L5.51708 3.77539H49.4985ZM3.22266 36.946V6.03866L18.7429 21.4258L3.22266 36.946ZM5.5014 39.2246L21.0314 23.6946L26.473 29.0896C27.103 29.7141 28.1195 29.7121 28.7468 29.0846L34.0527 23.7787L49.4986 39.2246H5.5014ZM51.7773 36.9459L36.3315 21.5L51.7773 6.05402V36.9459Z" fill="white"/>
</g>
<defs>
<linearGradient id="paint0_linear_457_1573" x1="0" y1="0.552734" x2="56.74" y2="3.05924" gradientUnits="userSpaceOnUse">
<stop stop-color="#FA3901"/>
<stop offset="1" stop-color="#FF8902"/>
</linearGradient>
</defs>
</svg>
