<svg width="124" height="17" viewBox="0 0 124 17" fill="none" xmlns="http://www.w3.org/2000/svg">
<path d="M15.2913 16.6401C14.6822 14.8795 14.0972 13.2466 13.5362 11.742C12.9912 10.2531 12.4543 8.83645 11.9253 7.49196C11.3964 6.14711 10.8674 4.85859 10.3385 3.62605C9.82559 2.40935 9.29664 1.20075 8.75165 0.000244141H6.56371C6.01872 1.20075 5.4818 2.40935 4.95285 3.62605C4.43997 4.85859 3.91102 6.14711 3.36602 7.49196C2.83707 8.83645 2.29209 10.2531 1.73109 11.742C1.17009 13.2466 0.593061 14.8795 0 16.6401H2.5726C3.43815 14.1109 4.28765 11.6779 5.12114 9.3406C5.95467 7.00366 6.81217 4.81072 7.69374 2.76176C8.57536 4.79452 9.43285 6.97972 10.2663 9.31665C11.0998 11.6698 11.9414 14.1109 12.7909 16.6401H15.2913Z" fill="white"/>
<path d="M101.051 16.6398C100.442 14.8792 99.8564 13.2464 99.2959 11.7417C98.7505 10.2529 98.2136 8.83621 97.6849 7.49171C97.1557 6.14687 96.6266 4.85835 96.0982 3.62581C95.5853 2.40911 95.0565 1.20051 94.5111 0H92.3234C91.7781 1.20051 91.2412 2.40911 90.7124 3.62581C90.1995 4.85835 89.6704 6.14687 89.125 7.49171C88.5966 8.83621 88.0516 10.2529 87.4904 11.7417C86.9295 13.2464 86.3528 14.8792 85.7599 16.6398H88.3319C89.1976 14.1107 90.0469 11.6776 90.8809 9.34035C91.7143 7.00342 92.5712 4.81047 93.4532 2.76152C94.3349 4.79428 95.1919 6.97947 96.0259 9.31641C96.8593 11.6695 97.7007 14.1107 98.5503 16.6398H101.051Z" fill="white"/>
<path d="M116.937 17C115.847 17 114.902 16.8321 114.1 16.4959C113.299 16.1596 112.641 15.7034 112.128 15.1271C111.615 14.5349 111.231 13.8385 110.974 13.038C110.734 12.2378 110.614 11.3735 110.614 10.4447V0H112.946V10.1807C112.946 11.8456 113.314 13.0542 114.052 13.8065C114.789 14.5589 115.751 14.9352 116.937 14.9352C117.53 14.9352 118.067 14.8468 118.548 14.6708C119.045 14.4789 119.47 14.1906 119.822 13.8065C120.175 13.4224 120.447 12.9341 120.64 12.3416C120.832 11.7336 120.928 11.0133 120.928 10.1807V0H123.26V10.4447C123.26 11.3735 123.132 12.2378 122.876 13.038C122.635 13.8385 122.251 14.5349 121.721 15.1271C121.208 15.7034 120.551 16.1596 119.75 16.4959C118.965 16.8321 118.027 17 116.937 17Z" fill="white"/>
<path d="M34.8802 14.6229V16.6398H24.8542V0H27.1864V14.6229H34.8802Z" fill="white"/>
<path d="M54.469 14.6229V16.6398H44.4431V0H46.7757V14.6229H54.469Z" fill="white"/>
<path d="M68.5276 16.9521C68.1909 16.9521 67.8222 16.944 67.4217 16.9282C67.0368 16.912 66.6448 16.888 66.2436 16.856C65.8587 16.824 65.4741 16.7842 65.0891 16.736C64.7049 16.6881 64.352 16.624 64.0319 16.5441V0.408384C64.352 0.328468 64.7049 0.264398 65.0891 0.216166C65.4741 0.168287 65.8587 0.128151 66.2436 0.0961144C66.6448 0.0640775 67.0368 0.0401343 67.4217 0.0242918C67.806 0.00809733 68.1673 0 68.5036 0C69.4656 0 70.3628 0.0721759 71.1961 0.216166C72.0457 0.360156 72.7754 0.608354 73.3839 0.960408C74.0092 1.29662 74.4982 1.74513 74.851 2.30525C75.2036 2.86537 75.3798 3.55364 75.3798 4.37005C75.3798 5.28258 75.1634 6.03492 74.7308 6.62743C74.2979 7.20374 73.7212 7.63571 72.9996 7.92404C73.9775 8.21202 74.7548 8.66828 75.3315 9.29247C75.909 9.91667 76.197 10.7972 76.197 11.9336C76.197 13.5984 75.58 14.8553 74.3459 15.7037C73.1276 16.536 71.1884 16.9521 68.5276 16.9521ZM66.3399 9.05237V14.9113C66.5161 14.9271 66.7241 14.9433 66.9652 14.9591C67.1732 14.9753 67.414 14.9912 67.6861 15.0074C67.9748 15.0074 68.3034 15.0074 68.6718 15.0074C69.3609 15.0074 70.0103 14.9672 70.6194 14.8873C71.2444 14.7912 71.7898 14.631 72.254 14.4071C72.7187 14.1829 73.0881 13.8706 73.3599 13.4707C73.6486 13.0704 73.7928 12.5662 73.7928 11.9579C73.7928 11.4136 73.6888 10.9573 73.4801 10.5891C73.2721 10.205 72.9679 9.90082 72.5667 9.67657C72.1818 9.45266 71.7175 9.29247 71.1722 9.19636C70.6272 9.10061 70.0184 9.05237 69.3447 9.05237H66.3399ZM66.3399 7.17944H68.792C69.3694 7.17944 69.9144 7.13966 70.427 7.05939C70.9395 6.97948 71.3809 6.83549 71.7489 6.62743C72.1338 6.41901 72.4307 6.14687 72.639 5.81101C72.8632 5.4748 72.9756 5.05057 72.9756 4.53833C72.9756 4.05813 72.8632 3.65784 72.639 3.33783C72.4144 3.00162 72.1025 2.73758 71.7013 2.54536C71.3167 2.33729 70.8595 2.1852 70.3304 2.08909C69.8019 1.99298 69.2407 1.9451 68.6478 1.9451C68.0549 1.9451 67.5899 1.9532 67.2532 1.96904C66.9166 1.98523 66.6116 2.00918 66.3399 2.04121V7.17944Z" fill="white"/>
</svg>
