<svg width="67" height="60" viewBox="0 0 67 60" fill="none" xmlns="http://www.w3.org/2000/svg">
<path d="M44.3398 48.8862C43.7977 48.8862 43.3584 49.3257 43.3584 49.8677C43.3584 50.4097 43.7977 50.8491 44.3398 50.8491C49.9663 50.8491 50.1258 48.2319 55.1792 48.2319C58.9669 48.2319 59.8213 49.5999 62.4681 50.384C62.9881 50.5385 63.5339 50.2414 63.6879 49.7218C63.8419 49.2021 63.5454 48.6559 63.0256 48.502C60.7115 47.8163 59.4338 46.269 55.1791 46.269C49.5528 46.269 49.3932 48.8862 44.3398 48.8862Z" fill="black"/>
<path d="M44.3398 48.8862C43.7977 48.8862 43.3584 49.3257 43.3584 49.8677C43.3584 50.4097 43.7977 50.8491 44.3398 50.8491C49.9663 50.8491 50.1258 48.2319 55.1792 48.2319C58.9669 48.2319 59.8213 49.5999 62.4681 50.384C62.9881 50.5385 63.5339 50.2414 63.6879 49.7218C63.8419 49.2021 63.5454 48.6559 63.0256 48.502C60.7115 47.8163 59.4338 46.269 55.1791 46.269C49.5528 46.269 49.3932 48.8862 44.3398 48.8862Z" fill="currentColor"/>
<path d="M44.3398 48.8862C43.7977 48.8862 43.3584 49.3257 43.3584 49.8677C43.3584 50.4097 43.7977 50.8491 44.3398 50.8491C49.9663 50.8491 50.1258 48.2319 55.1792 48.2319C58.9669 48.2319 59.8213 49.5999 62.4681 50.384C62.9881 50.5385 63.5339 50.2414 63.6879 49.7218C63.8419 49.2021 63.5454 48.6559 63.0256 48.502C60.7115 47.8163 59.4338 46.269 55.1791 46.269C49.5528 46.269 49.3932 48.8862 44.3398 48.8862Z" stroke="transparent"/>
<path d="M31.6609 47C26.0344 47 25.875 49.6172 20.8214 49.6172C15.7461 49.6172 15.6351 47 9.98145 47C9.43943 47 9 47.4394 9 47.9814C9 48.5235 9.43943 48.9629 9.98145 48.9629C15.0568 48.9629 15.1678 51.5801 20.8214 51.5801C26.448 51.5801 26.6074 48.9629 31.6609 48.9629C32.2031 48.9629 32.6424 48.5235 32.6424 47.9814C32.6424 47.4394 32.2029 47 31.6609 47Z" fill="black"/>
<path d="M31.6609 47C26.0344 47 25.875 49.6172 20.8214 49.6172C15.7461 49.6172 15.6351 47 9.98145 47C9.43943 47 9 47.4394 9 47.9814C9 48.5235 9.43943 48.9629 9.98145 48.9629C15.0568 48.9629 15.1678 51.5801 20.8214 51.5801C26.448 51.5801 26.6074 48.9629 31.6609 48.9629C32.2031 48.9629 32.6424 48.5235 32.6424 47.9814C32.6424 47.4394 32.2029 47 31.6609 47Z" fill="currentColor"/>
<path d="M31.6609 47C26.0344 47 25.875 49.6172 20.8214 49.6172C15.7461 49.6172 15.6351 47 9.98145 47C9.43943 47 9 47.4394 9 47.9814C9 48.5235 9.43943 48.9629 9.98145 48.9629C15.0568 48.9629 15.1678 51.5801 20.8214 51.5801C26.448 51.5801 26.6074 48.9629 31.6609 48.9629C32.2031 48.9629 32.6424 48.5235 32.6424 47.9814C32.6424 47.4394 32.2029 47 31.6609 47Z" stroke="transparent"/>
<path d="M52.6609 53C47.0344 53 46.875 55.6172 41.8214 55.6172C36.7461 55.6172 36.6351 53 30.9814 53C30.4394 53 30 53.4394 30 53.9814C30 54.5235 30.4394 54.9629 30.9814 54.9629C36.0568 54.9629 36.1678 57.5801 41.8214 57.5801C47.448 57.5801 47.6074 54.9629 52.6609 54.9629C53.2031 54.9629 53.6424 54.5235 53.6424 53.9814C53.6424 53.4394 53.2029 53 52.6609 53Z" fill="black"/>
<path d="M52.6609 53C47.0344 53 46.875 55.6172 41.8214 55.6172C36.7461 55.6172 36.6351 53 30.9814 53C30.4394 53 30 53.4394 30 53.9814C30 54.5235 30.4394 54.9629 30.9814 54.9629C36.0568 54.9629 36.1678 57.5801 41.8214 57.5801C47.448 57.5801 47.6074 54.9629 52.6609 54.9629C53.2031 54.9629 53.6424 54.5235 53.6424 53.9814C53.6424 53.4394 53.2029 53 52.6609 53Z" fill="currentColor"/>
<path d="M52.6609 53C47.0344 53 46.875 55.6172 41.8214 55.6172C36.7461 55.6172 36.6351 53 30.9814 53C30.4394 53 30 53.4394 30 53.9814C30 54.5235 30.4394 54.9629 30.9814 54.9629C36.0568 54.9629 36.1678 57.5801 41.8214 57.5801C47.448 57.5801 47.6074 54.9629 52.6609 54.9629C53.2031 54.9629 53.6424 54.5235 53.6424 53.9814C53.6424 53.4394 53.2029 53 52.6609 53Z" stroke="transparent"/>
<path d="M19.1698 55C14.41 55 14.2752 57.2857 10.0002 57.2857C5.70676 57.2857 5.61289 55 0.830243 55C0.371727 55 0 55.3838 0 55.8571C0 56.3305 0.371727 56.7143 0.830243 56.7143C5.12371 56.7143 5.21758 59 10.0002 59C14.7599 59 14.8948 56.7143 19.1698 56.7143C19.6284 56.7143 20 56.3305 20 55.8571C20 55.3838 19.6283 55 19.1698 55Z" fill="black"/>
<path d="M19.1698 55C14.41 55 14.2752 57.2857 10.0002 57.2857C5.70676 57.2857 5.61289 55 0.830243 55C0.371727 55 0 55.3838 0 55.8571C0 56.3305 0.371727 56.7143 0.830243 56.7143C5.12371 56.7143 5.21758 59 10.0002 59C14.7599 59 14.8948 56.7143 19.1698 56.7143C19.6284 56.7143 20 56.3305 20 55.8571C20 55.3838 19.6283 55 19.1698 55Z" fill="currentColor"/>
<path d="M19.1698 55C14.41 55 14.2752 57.2857 10.0002 57.2857C5.70676 57.2857 5.61289 55 0.830243 55C0.371727 55 0 55.3838 0 55.8571C0 56.3305 0.371727 56.7143 0.830243 56.7143C5.12371 56.7143 5.21758 59 10.0002 59C14.7599 59 14.8948 56.7143 19.1698 56.7143C19.6284 56.7143 20 56.3305 20 55.8571C20 55.3838 19.6283 55 19.1698 55Z" stroke="transparent"/>
<mask id="path-5-inside-1_459_6525" fill="currentColor">
<path d="M66.0186 2.55884H57.3443V1.82642C57.3443 1.2844 56.905 0.844971 56.3629 0.844971H51.8091C51.267 0.844971 50.8277 1.2844 50.8277 1.82642V2.55884H22.4516V4.52173H50.8277V5.91852H16.1741V4.52173H22.4516V2.55884H16.1741V1.82642C16.1741 1.2844 15.7347 0.844971 15.1927 0.844971H10.6389C10.0969 0.844971 9.65747 1.2844 9.65747 1.82642V2.55884H0.983329C0.44131 2.55884 0.00188391 2.99826 0.00188391 3.54028C0.00188391 43.0399 0 45 0 45C0 45 39.6386 45.3129 65.0372 45.5134C64.495 45.5134 64.495 45.5433 65.0372 45.5433C65.5793 45.5433 67.0001 46.0853 67.0001 45.5433V3.54028C67.0001 2.99826 66.5608 2.55884 66.0186 2.55884ZM61.3251 42.5135L59.9613 38.6946L58.1126 39.3547L58.869 41.4726C57.9112 41.175 56.742 40.9632 55.1794 40.9632C49.553 40.9632 49.3934 43.5804 44.34 43.5804C40.5667 43.5804 39.7156 42.2269 37.083 41.4399L36.7722 19.6813L51.1025 19.7261L58.1126 39.3547L59.9613 38.6946L53.2018 19.7683H55.6712L64.1264 43.4428C62.9574 43.2557 62.1348 42.9 61.3251 42.5135ZM9.65747 18.6169L1.96477 40.1568V11.7749H9.65747V18.6169ZM11.3305 19.7683H13.8L5.67712 42.5127C4.86724 42.8993 4.04465 43.2553 2.87556 43.4426L11.3305 19.7683ZM30.2426 17.6579C29.6694 17.4529 29.1792 17.0151 28.1548 16.8353V14.0649C28.1548 13.5229 27.7154 13.0835 27.1734 13.0835C26.6314 13.0835 26.1919 13.5229 26.1919 14.0649V16.8512C25.2274 17.0396 24.7408 17.461 24.1898 17.658V14.0649C24.1898 13.5229 23.7504 13.0835 23.2084 13.0835C22.6663 13.0835 22.2269 13.5229 22.2269 14.0649V17.6578C21.6711 17.4589 21.1913 17.0399 20.2248 16.8512V14.0649C20.2248 13.5229 19.7853 13.0835 19.2433 13.0835C18.7013 13.0835 18.2619 13.5229 18.2619 14.0649V16.8353C17.2375 17.0151 16.7447 17.4539 16.1741 17.6579V11.7749H30.2426V17.6579ZM15.8993 19.7261C17.5 19.7261 30.2299 19.6813 30.2299 19.6813L29.9191 41.44C27.2851 42.2273 26.4333 43.5805 22.6616 43.5805C17.5862 43.5805 17.4753 40.9633 11.8216 40.9633C10.2596 40.9633 9.09072 41.1749 8.13309 41.4724L15.8993 19.7261ZM32.1916 19.7683H34.8103L35.1143 41.0473C34.1188 40.9377 32.9313 40.9324 31.8877 41.0473L32.1916 19.7683ZM57.3443 11.7749H65.0372V40.1567L57.3443 18.6167V11.7749ZM65.0372 4.52173V9.81198H57.3443V4.52173H65.0372ZM52.7906 2.80786H55.3814V17.8054H52.7906V2.80786ZM50.8277 9.81198H43.0999V11.7749H50.8277V17.6579C50.2582 17.4542 49.7644 17.0151 48.7399 16.8353V14.0649C48.7399 13.5229 48.3006 13.0835 47.7585 13.0835C47.2163 13.0835 46.777 13.5229 46.777 14.0649V16.8513C45.8125 17.0397 45.3259 17.4611 44.7749 17.6582V14.0649C44.7749 13.5229 44.3356 13.0835 43.7934 13.0835C43.2513 13.0835 42.812 13.5229 42.812 14.0649V17.6578C42.2562 17.4589 41.7764 17.0399 40.8099 16.8512V14.0649C40.8099 13.5229 40.3706 13.0835 39.8284 13.0835C39.2863 13.0835 38.847 13.5229 38.847 14.0649V16.8353C37.8226 17.0151 37.3298 17.4539 36.7592 17.6579V11.7749H43.0999V9.81198H36.7592V7.88154H50.8277V9.81198ZM34.7963 7.88154V17.8054H32.2055V7.88154H34.7963ZM30.2426 7.88154V9.81211H16.1741V7.88154H30.2426ZM11.6204 2.80786H14.2112V17.8054H11.6204V2.80786ZM1.96477 4.52173H9.65747V9.81198H1.96477V4.52173ZM65.0372 45.5134C39.6386 45.3129 0 45 0 45C0 45 4 46 6.82829 44.137C8.11791 43.5143 9.33608 42.9261 11.8215 42.9261C16.8969 42.9261 17.0078 45.5433 22.6615 45.5433C28.2881 45.5433 28.4474 42.9261 33.501 42.9261C38.5761 42.9261 38.6868 45.5433 44.34 45.5433C49.9665 45.5433 50.126 42.9261 55.1794 42.9261C59.9962 42.9261 59.5 44.5 65.0372 45.5134Z"/>
</mask>
<path d="M66.0186 2.55884H57.3443V1.82642C57.3443 1.2844 56.905 0.844971 56.3629 0.844971H51.8091C51.267 0.844971 50.8277 1.2844 50.8277 1.82642V2.55884H22.4516V4.52173H50.8277V5.91852H16.1741V4.52173H22.4516V2.55884H16.1741V1.82642C16.1741 1.2844 15.7347 0.844971 15.1927 0.844971H10.6389C10.0969 0.844971 9.65747 1.2844 9.65747 1.82642V2.55884H0.983329C0.44131 2.55884 0.00188391 2.99826 0.00188391 3.54028C0.00188391 43.0399 0 45 0 45C0 45 39.6386 45.3129 65.0372 45.5134C64.495 45.5134 64.495 45.5433 65.0372 45.5433C65.5793 45.5433 67.0001 46.0853 67.0001 45.5433V3.54028C67.0001 2.99826 66.5608 2.55884 66.0186 2.55884ZM61.3251 42.5135L59.9613 38.6946L58.1126 39.3547L58.869 41.4726C57.9112 41.175 56.742 40.9632 55.1794 40.9632C49.553 40.9632 49.3934 43.5804 44.34 43.5804C40.5667 43.5804 39.7156 42.2269 37.083 41.4399L36.7722 19.6813L51.1025 19.7261L58.1126 39.3547L59.9613 38.6946L53.2018 19.7683H55.6712L64.1264 43.4428C62.9574 43.2557 62.1348 42.9 61.3251 42.5135ZM9.65747 18.6169L1.96477 40.1568V11.7749H9.65747V18.6169ZM11.3305 19.7683H13.8L5.67712 42.5127C4.86724 42.8993 4.04465 43.2553 2.87556 43.4426L11.3305 19.7683ZM30.2426 17.6579C29.6694 17.4529 29.1792 17.0151 28.1548 16.8353V14.0649C28.1548 13.5229 27.7154 13.0835 27.1734 13.0835C26.6314 13.0835 26.1919 13.5229 26.1919 14.0649V16.8512C25.2274 17.0396 24.7408 17.461 24.1898 17.658V14.0649C24.1898 13.5229 23.7504 13.0835 23.2084 13.0835C22.6663 13.0835 22.2269 13.5229 22.2269 14.0649V17.6578C21.6711 17.4589 21.1913 17.0399 20.2248 16.8512V14.0649C20.2248 13.5229 19.7853 13.0835 19.2433 13.0835C18.7013 13.0835 18.2619 13.5229 18.2619 14.0649V16.8353C17.2375 17.0151 16.7447 17.4539 16.1741 17.6579V11.7749H30.2426V17.6579ZM15.8993 19.7261C17.5 19.7261 30.2299 19.6813 30.2299 19.6813L29.9191 41.44C27.2851 42.2273 26.4333 43.5805 22.6616 43.5805C17.5862 43.5805 17.4753 40.9633 11.8216 40.9633C10.2596 40.9633 9.09072 41.1749 8.13309 41.4724L15.8993 19.7261ZM32.1916 19.7683H34.8103L35.1143 41.0473C34.1188 40.9377 32.9313 40.9324 31.8877 41.0473L32.1916 19.7683ZM57.3443 11.7749H65.0372V40.1567L57.3443 18.6167V11.7749ZM65.0372 4.52173V9.81198H57.3443V4.52173H65.0372ZM52.7906 2.80786H55.3814V17.8054H52.7906V2.80786ZM50.8277 9.81198H43.0999V11.7749H50.8277V17.6579C50.2582 17.4542 49.7644 17.0151 48.7399 16.8353V14.0649C48.7399 13.5229 48.3006 13.0835 47.7585 13.0835C47.2163 13.0835 46.777 13.5229 46.777 14.0649V16.8513C45.8125 17.0397 45.3259 17.4611 44.7749 17.6582V14.0649C44.7749 13.5229 44.3356 13.0835 43.7934 13.0835C43.2513 13.0835 42.812 13.5229 42.812 14.0649V17.6578C42.2562 17.4589 41.7764 17.0399 40.8099 16.8512V14.0649C40.8099 13.5229 40.3706 13.0835 39.8284 13.0835C39.2863 13.0835 38.847 13.5229 38.847 14.0649V16.8353C37.8226 17.0151 37.3298 17.4539 36.7592 17.6579V11.7749H43.0999V9.81198H36.7592V7.88154H50.8277V9.81198ZM34.7963 7.88154V17.8054H32.2055V7.88154H34.7963ZM30.2426 7.88154V9.81211H16.1741V7.88154H30.2426ZM11.6204 2.80786H14.2112V17.8054H11.6204V2.80786ZM1.96477 4.52173H9.65747V9.81198H1.96477V4.52173ZM65.0372 45.5134C39.6386 45.3129 0 45 0 45C0 45 4 46 6.82829 44.137C8.11791 43.5143 9.33608 42.9261 11.8215 42.9261C16.8969 42.9261 17.0078 45.5433 22.6615 45.5433C28.2881 45.5433 28.4474 42.9261 33.501 42.9261C38.5761 42.9261 38.6868 45.5433 44.34 45.5433C49.9665 45.5433 50.126 42.9261 55.1794 42.9261C59.9962 42.9261 59.5 44.5 65.0372 45.5134Z" fill="currentColor"/>
<path d="M22.3016 2.55884V4.52173H22.6016V2.55884H22.3016ZM59.9108 38.5533L58.0622 39.2134L58.163 39.4959L60.0117 38.8359L59.9108 38.5533ZM42.9499 9.81198V11.7749H43.2499V9.81198H42.9499ZM65.0383 45.3634C52.3391 45.2632 36.0797 45.1348 22.9953 45.0315C16.4526 44.9799 10.705 44.9345 6.59156 44.902C4.53701 44.8858 2.88555 44.8728 1.75401 44.8638C1.18731 44.8594 0.749032 44.8559 0.452545 44.8536C0.304301 44.8524 0.191426 44.8515 0.115668 44.8509C0.0777894 44.8506 0.0491517 44.8504 0.0300107 44.8502C0.0276171 44.8502 0.0253714 44.8502 0.0232742 44.8502C0.0211769 44.8502 0.019228 44.8501 0.017428 44.8501C0.00367811 44.85 0.0209727 44.8502 0.00841646 44.8501C0.00721321 44.8501 0.00615956 44.85 0.00525592 44.85C0.00435228 44.85 0.00359864 44.85 0.00299541 44.85C0.00239218 44.85 0.00193935 44.85 0.00163734 44.85C0.00133532 44.85 0.00118411 44.85 0 45C-0.00118411 45.15 -0.0010329 45.15 -0.000730885 45.15C-0.000428868 45.15 2.39569e-05 45.15 0.000627188 45.15C0.00540512 45.15 7.02637e-05 45.15 0.00604824 45.1501C0.00877518 45.1501 0.0111392 45.1501 0.0150598 45.1501C0.0168598 45.1501 0.0188087 45.1502 0.0209059 45.1502C0.0230032 45.1502 0.0252489 45.1502 0.0276425 45.1502C0.0467999 45.1504 0.0754047 45.1506 0.1133 45.1509C0.189093 45.1515 0.301898 45.1524 0.450176 45.1536C0.746734 45.1559 1.18487 45.1594 1.75164 45.1638C2.88705 45.1728 4.53078 45.1858 6.5892 45.202C10.7017 45.2345 16.4512 45.2799 22.9929 45.3315C36.0774 45.4348 52.3367 45.5632 65.036 45.6634L65.0383 45.3634ZM57.3443 2.55884H57.0443V2.85884H57.3443V2.55884ZM50.8277 2.55884V2.85884H51.1277V2.55884H50.8277ZM50.8277 4.52173H51.1277V4.22173H50.8277V4.52173ZM50.8277 5.91852V6.21852H51.1277V5.91852H50.8277ZM16.1741 5.91852H15.8741V6.21852H16.1741V5.91852ZM16.1741 4.52173V4.22173H15.8741V4.52173H16.1741ZM16.1741 2.55884H15.8741V2.85884H16.1741V2.55884ZM9.65747 2.55884V2.85884H9.95747V2.55884H9.65747ZM0 45L-0.3 44.9997L-0.300225 45.2342L-0.0727607 45.291L0 45ZM61.3251 42.5135L61.0425 42.6144L61.0842 42.7309L61.1958 42.7842L61.3251 42.5135ZM59.9613 38.6946L60.2438 38.5937V38.5937L59.9613 38.6946ZM58.1126 39.3547L58.3951 39.2538V39.2538L58.1126 39.3547ZM58.869 41.4726L58.78 41.7591L59.3535 41.9373L59.1515 41.3717L58.869 41.4726ZM37.083 41.4399L36.783 41.4442L36.7862 41.6643L36.9971 41.7273L37.083 41.4399ZM36.7722 19.6813L36.7731 19.3813L36.4679 19.3803L36.4722 19.6855L36.7722 19.6813ZM51.1025 19.7261L51.385 19.6252L51.3141 19.4268L51.1034 19.4261L51.1025 19.7261ZM53.2018 19.7683V19.4683H52.7761L52.9193 19.8692L53.2018 19.7683ZM55.6712 19.7683L55.9537 19.6674L55.8826 19.4683H55.6712V19.7683ZM64.1264 43.4428L64.079 43.7391L64.5793 43.8192L64.4089 43.3419L64.1264 43.4428ZM9.65747 18.6169L9.94 18.7178L9.95747 18.6688V18.6169H9.65747ZM1.96477 40.1568H1.66477L2.2473 40.2577L1.96477 40.1568ZM1.96477 11.7749V11.4749H1.66477V11.7749H1.96477ZM9.65747 11.7749H9.95747V11.4749H9.65747V11.7749ZM11.3305 19.7683V19.4683H11.1191L11.048 19.6674L11.3305 19.7683ZM13.8 19.7683L14.0825 19.8692L14.2257 19.4683H13.8V19.7683ZM5.67712 42.5127L5.80635 42.7834L5.91803 42.7301L5.95965 42.6136L5.67712 42.5127ZM2.87556 43.4426L2.59303 43.3417L2.42258 43.819L2.923 43.7388L2.87556 43.4426ZM30.2426 17.6579L30.1415 17.9404L30.5426 18.0839V17.6579H30.2426ZM28.1548 16.8353H27.8548V17.0873L28.103 17.1308L28.1548 16.8353ZM26.1919 16.8512L26.2495 17.1456L26.4919 17.0982V16.8512H26.1919ZM24.1898 17.658H23.8898V18.0839L24.2908 17.9405L24.1898 17.658ZM22.2269 17.6578L22.1258 17.9402L22.5269 18.0838V17.6578H22.2269ZM20.2248 16.8512H19.9248V17.0983L20.1673 17.1456L20.2248 16.8512ZM18.2619 16.8353L18.3137 17.1308L18.5619 17.0873V16.8353H18.2619ZM16.1741 17.6579H15.8741V18.0838L16.2751 17.9404L16.1741 17.6579ZM16.1741 11.7749V11.4749H15.8741V11.7749H16.1741ZM30.2426 11.7749H30.5426V11.4749H30.2426V11.7749ZM15.8993 19.7261V19.4261H15.6879L15.6168 19.6252L15.8993 19.7261ZM30.2299 19.6813L30.5298 19.6855L30.5342 19.3802L30.2288 19.3813L30.2299 19.6813ZM29.9191 41.44L30.005 41.7275L30.2159 41.6644L30.2191 41.4443L29.9191 41.44ZM8.13309 41.4724L7.85057 41.3715L7.6486 41.937L8.22208 41.7589L8.13309 41.4724ZM32.1916 19.7683V19.4683H31.8958L31.8916 19.764L32.1916 19.7683ZM34.8103 19.7683L35.1103 19.764L35.1061 19.4683H34.8103V19.7683ZM35.1143 41.0473L35.0815 41.3455L35.4192 41.3827L35.4143 41.043L35.1143 41.0473ZM31.8877 41.0473L31.5878 41.043L31.5829 41.3827L31.9206 41.3455L31.8877 41.0473ZM57.3443 11.7749V11.4749H57.0443V11.7749H57.3443ZM65.0372 11.7749H65.3372V11.4749H65.0372V11.7749ZM65.0372 40.1567L64.7546 40.2576L65.3372 40.1567H65.0372ZM57.3443 18.6167H57.0443V18.6687L57.0618 18.7176L57.3443 18.6167ZM65.0372 4.52173H65.3372V4.22173H65.0372V4.52173ZM65.0372 9.81198V10.112H65.3372V9.81198H65.0372ZM57.3443 9.81198H57.0443V10.112H57.3443V9.81198ZM57.3443 4.52173V4.22173H57.0443V4.52173H57.3443ZM52.7906 2.80786V2.50786H52.4906V2.80786H52.7906ZM55.3814 2.80786H55.6814V2.50786H55.3814V2.80786ZM55.3814 17.8054V18.1054H55.6814V17.8054H55.3814ZM52.7906 17.8054H52.4906V18.1054H52.7906V17.8054ZM50.8277 9.81198V10.112H51.1277V9.81198H50.8277ZM50.8277 11.7749H51.1277V11.4749H50.8277V11.7749ZM50.8277 17.6579L50.7266 17.9404L51.1277 18.0839V17.6579H50.8277ZM48.7399 16.8353H48.4399V17.0873L48.6881 17.1308L48.7399 16.8353ZM46.777 16.8513L46.8346 17.1457L47.077 17.0984V16.8513H46.777ZM44.7749 17.6582H44.4749V18.0841L44.8759 17.9407L44.7749 17.6582ZM42.812 17.6578L42.7109 17.9402L43.112 18.0838V17.6578H42.812ZM40.8099 16.8512H40.5099V17.0983L40.7524 17.1456L40.8099 16.8512ZM38.847 16.8353L38.8988 17.1308L39.147 17.0873V16.8353H38.847ZM36.7592 17.6579H36.4592V18.0838L36.8602 17.9404L36.7592 17.6579ZM36.7592 11.7749V11.4749H36.4592V11.7749H36.7592ZM36.7592 9.81198H36.4592V10.112H36.7592V9.81198ZM36.7592 7.88154V7.58154H36.4592V7.88154H36.7592ZM50.8277 7.88154H51.1277V7.58154H50.8277V7.88154ZM34.7963 7.88154H35.0963V7.58154H34.7963V7.88154ZM34.7963 17.8054V18.1054H35.0963V17.8054H34.7963ZM32.2055 17.8054H31.9055V18.1054H32.2055V17.8054ZM32.2055 7.88154V7.58154H31.9055V7.88154H32.2055ZM30.2426 7.88154H30.5426V7.58154H30.2426V7.88154ZM30.2426 9.81211V10.1121H30.5426V9.81211H30.2426ZM16.1741 9.81211H15.8741V10.1121H16.1741V9.81211ZM16.1741 7.88154V7.58154H15.8741V7.88154H16.1741ZM11.6204 2.80786V2.50786H11.3204V2.80786H11.6204ZM14.2112 2.80786H14.5112V2.50786H14.2112V2.80786ZM14.2112 17.8054V18.1054H14.5112V17.8054H14.2112ZM11.6204 17.8054H11.3204V18.1054H11.6204V17.8054ZM1.96477 4.52173V4.22173H1.66477V4.52173H1.96477ZM9.65747 4.52173H9.95747V4.22173H9.65747V4.52173ZM9.65747 9.81198V10.112H9.95747V9.81198H9.65747ZM1.96477 9.81198H1.66477V10.112H1.96477V9.81198ZM65.0372 45.5134V45.8134L65.0912 45.2183L65.0372 45.5134ZM6.82829 44.137L6.69784 43.8669L6.6799 43.8756L6.66327 43.8865L6.82829 44.137ZM66.0186 2.25884H57.3443V2.85884H66.0186V2.25884ZM57.6443 2.55884V1.82642H57.0443V2.55884H57.6443ZM57.6443 1.82642C57.6443 1.11874 57.0707 0.544971 56.3629 0.544971V1.14497C56.7393 1.14497 57.0443 1.45006 57.0443 1.82642H57.6443ZM56.3629 0.544971H51.8091V1.14497H56.3629V0.544971ZM51.8091 0.544971C51.1012 0.544971 50.5277 1.11874 50.5277 1.82642H51.1277C51.1277 1.45006 51.4327 1.14497 51.8091 1.14497V0.544971ZM50.5277 1.82642V2.55884H51.1277V1.82642H50.5277ZM50.8277 2.25884H22.4516V2.85884H50.8277V2.25884ZM22.4516 4.82173H50.8277V4.22173H22.4516V4.82173ZM50.5277 4.52173V5.91852H51.1277V4.52173H50.5277ZM50.8277 5.61852H16.1741V6.21852H50.8277V5.61852ZM16.4741 5.91852V4.52173H15.8741V5.91852H16.4741ZM16.1741 4.82173H22.4516V4.22173H16.1741V4.82173ZM22.4516 2.25884H16.1741V2.85884H22.4516V2.25884ZM16.4741 2.55884V1.82642H15.8741V2.55884H16.4741ZM16.4741 1.82642C16.4741 1.11871 15.9004 0.544971 15.1927 0.544971V1.14497C15.569 1.14497 15.8741 1.45008 15.8741 1.82642H16.4741ZM15.1927 0.544971H10.6389V1.14497H15.1927V0.544971ZM10.6389 0.544971C9.93121 0.544971 9.35747 1.11871 9.35747 1.82642H9.95747C9.95747 1.45008 10.2626 1.14497 10.6389 1.14497V0.544971ZM9.35747 1.82642V2.55884H9.95747V1.82642H9.35747ZM9.65747 2.25884H0.983329V2.85884H9.65747V2.25884ZM0.983329 2.25884C0.275624 2.25884 -0.298116 2.83258 -0.298116 3.54028H0.301884C0.301884 3.16395 0.606995 2.85884 0.983329 2.85884V2.25884ZM-0.298116 3.54028C-0.298116 23.2901 -0.298587 33.655 -0.299058 39.0825C-0.299294 41.7962 -0.299529 43.2756 -0.299706 44.0765C-0.299794 44.477 -0.299868 44.7078 -0.299919 44.8385C-0.299945 44.9039 -0.299965 44.9442 -0.299979 44.9682C-0.299986 44.9802 -0.299991 44.9881 -0.299995 44.993C-0.299996 44.9954 -0.299998 44.9971 -0.299999 44.9982C-0.299999 44.9987 -0.299999 44.9991 -0.3 44.9994C-0.3 44.9995 -0.3 44.9996 -0.3 44.9996C-0.3 44.9997 -0.3 44.9997 -0.3 44.9997C-0.3 44.9997 -0.3 44.9997 0 45C0.3 45.0003 0.3 45.0003 0.3 45.0003C0.3 45.0002 0.3 45.0002 0.3 45.0002C0.3 45.0001 0.3 45 0.3 44.9999C0.3 44.9996 0.300001 44.9992 0.300001 44.9987C0.300002 44.9976 0.300004 44.9959 0.300005 44.9934C0.300009 44.9885 0.300014 44.9805 0.300021 44.9685C0.300035 44.9445 0.300055 44.9041 0.300081 44.8387C0.300132 44.708 0.300206 44.4771 0.300294 44.0766C0.300471 43.2757 0.300706 41.7963 0.300942 39.0825C0.301413 33.655 0.301884 23.2901 0.301884 3.54028H-0.298116ZM65.0372 45.8433C65.1375 45.8433 65.2982 45.8701 65.5131 45.9135C65.7143 45.9542 65.955 46.0076 66.1745 46.0427C66.3875 46.0769 66.6264 46.1024 66.8225 46.0672C66.9229 46.0492 67.0436 46.0101 67.1421 45.9187C67.2504 45.8181 67.3001 45.6839 67.3001 45.5433H66.7001C66.7001 45.5441 66.7 45.5344 66.7062 45.5192C66.7128 45.5031 66.7229 45.4891 66.7338 45.479C66.7525 45.4617 66.758 45.4692 66.7166 45.4766C66.6294 45.4923 66.4793 45.4839 66.2694 45.4503C66.0659 45.4177 65.8498 45.3695 65.632 45.3254C65.4281 45.2842 65.2079 45.2433 65.0372 45.2433V45.8433ZM67.3001 45.5433V3.54028H66.7001V45.5433H67.3001ZM67.3001 3.54028C67.3001 2.8326 66.7265 2.25884 66.0186 2.25884V2.85884C66.3951 2.85884 66.7001 3.16392 66.7001 3.54028H67.3001ZM61.6076 42.4126L60.2438 38.5937L59.6787 38.7955L61.0425 42.6144L61.6076 42.4126ZM57.8301 39.4556L58.5864 41.5735L59.1515 41.3717L58.3951 39.2538L57.8301 39.4556ZM58.958 41.1861C57.9702 40.8792 56.7708 40.6632 55.1794 40.6632V41.2632C56.7131 41.2632 57.8523 41.4709 58.78 41.7591L58.958 41.1861ZM55.1794 40.6632C52.3039 40.6632 50.8112 41.3368 49.4159 42.0009C48.051 42.6505 46.7977 43.2804 44.34 43.2804V43.8804C46.9358 43.8804 48.2889 43.2017 49.6738 42.5427C51.0281 41.8981 52.4285 41.2632 55.1794 41.2632V40.6632ZM44.34 43.2804C42.497 43.2804 41.3812 42.9515 40.4025 42.5298C39.4351 42.1129 38.5046 41.5518 37.1689 41.1525L36.9971 41.7273C38.294 42.115 39.1054 42.6242 40.165 43.0808C41.2134 43.5325 42.4097 43.8804 44.34 43.8804V43.2804ZM37.3829 41.4356L37.0722 19.677L36.4722 19.6855L36.783 41.4442L37.3829 41.4356ZM36.7713 19.9813L51.1015 20.0261L51.1034 19.4261L36.7731 19.3813L36.7713 19.9813ZM50.8199 19.827L57.8301 39.4556L58.3951 39.2538L51.385 19.6252L50.8199 19.827ZM60.2438 38.5937L53.4844 19.6674L52.9193 19.8692L59.6787 38.7955L60.2438 38.5937ZM53.2018 20.0683H55.6712V19.4683H53.2018V20.0683ZM55.3886 19.8692L63.8439 43.5437L64.4089 43.3419L55.9537 19.6674L55.3886 19.8692ZM64.1738 43.1466C63.0466 42.9662 62.2542 42.6246 61.4543 42.2427L61.1958 42.7842C62.0155 43.1755 62.8683 43.5453 64.079 43.7391L64.1738 43.1466ZM9.37495 18.516L1.68225 40.0559L2.2473 40.2577L9.94 18.7178L9.37495 18.516ZM2.26477 40.1568V11.7749H1.66477V40.1568H2.26477ZM1.96477 12.0749H9.65747V11.4749H1.96477V12.0749ZM9.35747 11.7749V18.6169H9.95747V11.7749H9.35747ZM11.3305 20.0683H13.8V19.4683H11.3305V20.0683ZM13.5174 19.6674L5.3946 42.4118L5.95965 42.6136L14.0825 19.8692L13.5174 19.6674ZM5.5479 42.242C4.74782 42.6238 3.95544 42.9658 2.82811 43.1464L2.923 43.7388C4.13386 43.5448 4.98665 43.1747 5.80635 42.7834L5.5479 42.242ZM3.15808 43.5435L11.613 19.8692L11.048 19.6674L2.59303 43.3417L3.15808 43.5435ZM30.3436 17.3754C30.077 17.2801 29.8548 17.1413 29.4997 16.9676C29.1607 16.8019 28.7547 16.636 28.2067 16.5398L28.103 17.1308C28.5794 17.2144 28.9306 17.3573 29.2361 17.5067C29.5254 17.6481 29.8349 17.8307 30.1415 17.9404L30.3436 17.3754ZM28.4548 16.8353V14.0649H27.8548V16.8353H28.4548ZM28.4548 14.0649C28.4548 13.3572 27.8811 12.7835 27.1734 12.7835V13.3835C27.5497 13.3835 27.8548 13.6886 27.8548 14.0649H28.4548ZM27.1734 12.7835C26.4657 12.7835 25.8919 13.3572 25.8919 14.0649H26.4919C26.4919 13.6886 26.7971 13.3835 27.1734 13.3835V12.7835ZM25.8919 14.0649V16.8512H26.4919V14.0649H25.8919ZM26.1344 16.5567C25.6176 16.6577 25.2288 16.8216 24.903 16.9823C24.5627 17.1503 24.343 17.2846 24.0888 17.3756L24.2908 17.9405C24.5876 17.8344 24.8867 17.6595 25.1686 17.5204C25.465 17.3741 25.8017 17.2331 26.2495 17.1456L26.1344 16.5567ZM24.4898 17.658V14.0649H23.8898V17.658H24.4898ZM24.4898 14.0649C24.4898 13.3572 23.9161 12.7835 23.2084 12.7835V13.3835C23.5847 13.3835 23.8898 13.6886 23.8898 14.0649H24.4898ZM23.2084 12.7835C22.5006 12.7835 21.9269 13.3572 21.9269 14.0649H22.5269C22.5269 13.6886 22.832 13.3835 23.2084 13.3835V12.7835ZM21.9269 14.0649V17.6578H22.5269V14.0649H21.9269ZM22.328 17.3753C22.0714 17.2835 21.852 17.1492 21.5127 16.9817C21.1876 16.8211 20.8 16.6578 20.2822 16.5567L20.1673 17.1456C20.6161 17.2332 20.9516 17.3738 21.247 17.5196C21.5282 17.6585 21.8267 17.8332 22.1258 17.9402L22.328 17.3753ZM20.5248 16.8512V14.0649H19.9248V16.8512H20.5248ZM20.5248 14.0649C20.5248 13.3572 19.951 12.7835 19.2433 12.7835V13.3835C19.6196 13.3835 19.9248 13.6886 19.9248 14.0649H20.5248ZM19.2433 12.7835C18.5356 12.7835 17.9619 13.3572 17.9619 14.0649H18.5619C18.5619 13.6886 18.867 13.3835 19.2433 13.3835V12.7835ZM17.9619 14.0649V16.8353H18.5619V14.0649H17.9619ZM18.21 16.5398C17.662 16.636 17.2553 16.8022 16.9161 16.968C16.5604 17.1419 16.3384 17.2806 16.0731 17.3754L16.2751 17.9404C16.5804 17.8312 16.8901 17.6486 17.1796 17.5071C17.4855 17.3575 17.8373 17.2144 18.3137 17.1308L18.21 16.5398ZM16.4741 17.6579V11.7749H15.8741V17.6579H16.4741ZM16.1741 12.0749H30.2426V11.4749H16.1741V12.0749ZM29.9426 11.7749V17.6579H30.5426V11.7749H29.9426ZM15.8993 20.0261C16.7003 20.0261 20.2837 20.0149 23.6658 20.0037C25.3571 19.9981 26.9984 19.9925 28.2169 19.9883C28.8261 19.9862 29.3296 19.9844 29.6808 19.9832C29.8564 19.9826 29.9939 19.9821 30.0876 19.9818C30.1344 19.9816 30.1702 19.9815 30.1944 19.9814C30.2064 19.9813 30.2156 19.9813 30.2217 19.9813C30.2248 19.9813 30.2271 19.9813 30.2286 19.9813C30.2294 19.9813 30.23 19.9813 30.2304 19.9813C30.2305 19.9813 30.2307 19.9813 30.2308 19.9813C30.2309 19.9813 30.2309 19.9813 30.2299 19.6813C30.2288 19.3813 30.2288 19.3813 30.2287 19.3813C30.2286 19.3813 30.2284 19.3813 30.2282 19.3813C30.2278 19.3813 30.2273 19.3813 30.2265 19.3813C30.225 19.3813 30.2226 19.3813 30.2196 19.3813C30.2135 19.3813 30.2043 19.3813 30.1923 19.3814C30.1681 19.3815 30.1323 19.3816 30.0855 19.3818C29.9918 19.3821 29.8543 19.3826 29.6787 19.3832C29.3275 19.3844 28.824 19.3862 28.2148 19.3883C26.9964 19.3925 25.3551 19.3981 23.6639 19.4037C20.2809 19.4149 16.699 19.4261 15.8993 19.4261V20.0261ZM29.9299 19.677L29.6191 41.4357L30.2191 41.4443L30.5298 19.6855L29.9299 19.677ZM29.8332 41.1526C28.4968 41.552 27.5659 42.1131 26.5983 42.53C25.6194 42.9517 24.5038 43.2805 22.6616 43.2805V43.8805C24.5911 43.8805 25.7872 43.5327 26.8357 43.081C27.8954 42.6245 28.7074 42.1153 30.005 41.7275L29.8332 41.1526ZM22.6616 43.2805C20.1931 43.2805 18.9464 42.6506 17.5879 42.0012C16.198 41.3369 14.7107 40.6633 11.8216 40.6633V41.2633C14.5862 41.2633 15.9812 41.8983 17.3291 42.5426C18.7083 43.2018 20.0548 43.8805 22.6616 43.8805V43.2805ZM11.8216 40.6633C10.2307 40.6633 9.03181 40.8791 8.04411 41.1859L8.22208 41.7589C9.14964 41.4708 10.2884 41.2633 11.8216 41.2633V40.6633ZM8.41562 41.5733L16.1819 19.827L15.6168 19.6252L7.85057 41.3715L8.41562 41.5733ZM32.1916 20.0683H34.8103V19.4683H32.1916V20.0683ZM34.5104 19.7726L34.8144 41.0516L35.4143 41.043L35.1103 19.764L34.5104 19.7726ZM35.1472 40.7491C34.1302 40.6371 32.9208 40.6318 31.8549 40.7491L31.9206 41.3455C32.9419 41.2331 34.1073 41.2382 35.0815 41.3455L35.1472 40.7491ZM32.1877 41.0516L32.4916 19.7726L31.8916 19.764L31.5878 41.043L32.1877 41.0516ZM57.3443 12.0749H65.0372V11.4749H57.3443V12.0749ZM64.7372 11.7749V40.1567H65.3372V11.7749H64.7372ZM65.3197 40.0558L57.6269 18.5158L57.0618 18.7176L64.7546 40.2576L65.3197 40.0558ZM57.6443 18.6167V11.7749H57.0443V18.6167H57.6443ZM64.7372 4.52173V9.81198H65.3372V4.52173H64.7372ZM65.0372 9.51198H57.3443V10.112H65.0372V9.51198ZM57.6443 9.81198V4.52173H57.0443V9.81198H57.6443ZM57.3443 4.82173H65.0372V4.22173H57.3443V4.82173ZM52.7906 3.10786H55.3814V2.50786H52.7906V3.10786ZM55.0814 2.80786V17.8054H55.6814V2.80786H55.0814ZM55.3814 17.5054H52.7906V18.1054H55.3814V17.5054ZM53.0906 17.8054V2.80786H52.4906V17.8054H53.0906ZM50.8277 9.51198H43.0999V10.112H50.8277V9.51198ZM43.0999 12.0749H50.8277V11.4749H43.0999V12.0749ZM50.5277 11.7749V17.6579H51.1277V11.7749H50.5277ZM50.9287 17.3754C50.6639 17.2807 50.442 17.142 50.0862 16.9681C49.7468 16.8023 49.3398 16.636 48.7918 16.5398L48.6881 17.1308C49.1645 17.2144 49.5167 17.3576 49.8227 17.5072C50.1122 17.6487 50.4219 17.8314 50.7266 17.9404L50.9287 17.3754ZM49.0399 16.8353V14.0649H48.4399V16.8353H49.0399ZM49.0399 14.0649C49.0399 13.3572 48.4664 12.7835 47.7585 12.7835V13.3835C48.1349 13.3835 48.4399 13.6885 48.4399 14.0649H49.0399ZM47.7585 12.7835C47.0506 12.7835 46.477 13.3572 46.477 14.0649H47.077C47.077 13.6885 47.382 13.3835 47.7585 13.3835V12.7835ZM46.477 14.0649V16.8513H47.077V14.0649H46.477ZM46.7195 16.5569C46.2027 16.6578 45.8139 16.8217 45.4881 16.9825C45.1478 17.1504 44.9281 17.2848 44.6739 17.3757L44.8759 17.9407C45.1727 17.8345 45.4718 17.6596 45.7537 17.5205C46.0501 17.3742 46.3868 17.2332 46.8346 17.1457L46.7195 16.5569ZM45.0749 17.6582V14.0649H44.4749V17.6582H45.0749ZM45.0749 14.0649C45.0749 13.3572 44.5013 12.7835 43.7934 12.7835V13.3835C44.1699 13.3835 44.4749 13.6885 44.4749 14.0649H45.0749ZM43.7934 12.7835C43.0856 12.7835 42.512 13.3572 42.512 14.0649H43.112C43.112 13.6885 43.417 13.3835 43.7934 13.3835V12.7835ZM42.512 14.0649V17.6578H43.112V14.0649H42.512ZM42.9131 17.3753C42.6565 17.2835 42.4371 17.1492 42.0978 16.9817C41.7727 16.8211 41.385 16.6578 40.8673 16.5567L40.7524 17.1456C41.2012 17.2332 41.5367 17.3738 41.8321 17.5196C42.1133 17.6585 42.4118 17.8332 42.7109 17.9402L42.9131 17.3753ZM41.1099 16.8512V14.0649H40.5099V16.8512H41.1099ZM41.1099 14.0649C41.1099 13.3572 40.5363 12.7835 39.8284 12.7835V13.3835C40.2048 13.3835 40.5099 13.6885 40.5099 14.0649H41.1099ZM39.8284 12.7835C39.1205 12.7835 38.547 13.3572 38.547 14.0649H39.147C39.147 13.6885 39.452 13.3835 39.8284 13.3835V12.7835ZM38.547 14.0649V16.8353H39.147V14.0649H38.547ZM38.7951 16.5398C38.2471 16.636 37.8404 16.8022 37.5012 16.968C37.1455 17.1419 36.9235 17.2806 36.6582 17.3754L36.8602 17.9404C37.1655 17.8312 37.4752 17.6486 37.7647 17.5071C38.0706 17.3575 38.4224 17.2144 38.8988 17.1308L38.7951 16.5398ZM37.0592 17.6579V11.7749H36.4592V17.6579H37.0592ZM36.7592 12.0749H43.0999V11.4749H36.7592V12.0749ZM43.0999 9.51198H36.7592V10.112H43.0999V9.51198ZM37.0592 9.81198V7.88154H36.4592V9.81198H37.0592ZM36.7592 8.18154H50.8277V7.58154H36.7592V8.18154ZM50.5277 7.88154V9.81198H51.1277V7.88154H50.5277ZM34.4963 7.88154V17.8054H35.0963V7.88154H34.4963ZM34.7963 17.5054H32.2055V18.1054H34.7963V17.5054ZM32.5055 17.8054V7.88154H31.9055V17.8054H32.5055ZM32.2055 8.18154H34.7963V7.58154H32.2055V8.18154ZM29.9426 7.88154V9.81211H30.5426V7.88154H29.9426ZM30.2426 9.51211H16.1741V10.1121H30.2426V9.51211ZM16.4741 9.81211V7.88154H15.8741V9.81211H16.4741ZM16.1741 8.18154H30.2426V7.58154H16.1741V8.18154ZM11.6204 3.10786H14.2112V2.50786H11.6204V3.10786ZM13.9112 2.80786V17.8054H14.5112V2.80786H13.9112ZM14.2112 17.5054H11.6204V18.1054H14.2112V17.5054ZM11.9204 17.8054V2.80786H11.3204V17.8054H11.9204ZM1.96477 4.82173H9.65747V4.22173H1.96477V4.82173ZM9.35747 4.52173V9.81198H9.95747V4.52173H9.35747ZM9.65747 9.51198H1.96477V10.112H9.65747V9.51198ZM2.26477 9.81198V4.52173H1.66477V9.81198H2.26477ZM0 45C-0.0727607 45.291 -0.0726594 45.2911 -0.0725428 45.2911C-0.0724836 45.2911 -0.0723516 45.2911 -0.0722331 45.2912C-0.0719961 45.2912 -0.071698 45.2913 -0.0713391 45.2914C-0.0706214 45.2916 -0.0696606 45.2918 -0.0684593 45.2921C-0.0660565 45.2927 -0.0626912 45.2935 -0.0583831 45.2945C-0.0497671 45.2966 -0.0373784 45.2995 -0.0213753 45.3032C0.0106281 45.3105 0.0571034 45.3208 0.116782 45.3331C0.236111 45.3578 0.408397 45.3905 0.623471 45.4236C1.05323 45.4899 1.65594 45.5583 2.34974 45.5671C3.73035 45.5846 5.50731 45.3664 6.99332 44.3876L6.66327 43.8865C5.32098 44.7707 3.6838 44.9839 2.35733 44.9672C1.69759 44.9588 1.12354 44.8937 0.714913 44.8306C0.510796 44.7992 0.348485 44.7683 0.238016 44.7455C0.182796 44.7341 0.140571 44.7248 0.1126 44.7183C0.0986158 44.7151 0.0881983 44.7127 0.0815049 44.7111C0.0781583 44.7103 0.0757432 44.7097 0.0742792 44.7093C0.0735472 44.7092 0.073053 44.709 0.072799 44.709C0.0726721 44.7089 0.0726052 44.7089 0.0725987 44.7089C0.0725954 44.7089 0.072636 44.7089 0.0726343 44.7089C0.0726899 44.7089 0.0727607 44.709 0 45ZM6.95875 44.4072C8.23136 43.7926 9.40173 43.2261 11.8215 43.2261V42.6261C9.27044 42.6261 8.00447 43.2359 6.69784 43.8669L6.95875 44.4072ZM11.8215 43.2261C14.2901 43.2261 15.5367 43.856 16.8953 44.5053C18.2851 45.1696 19.7724 45.8433 22.6615 45.8433V45.2433C19.8969 45.2433 18.5019 44.6083 17.154 43.964C15.7748 43.3048 14.4283 42.6261 11.8215 42.6261V43.2261ZM22.6615 45.8433C25.5371 45.8433 27.0297 45.1696 28.425 44.5056C29.7899 43.856 31.0433 43.2261 33.501 43.2261V42.6261C30.9051 42.6261 29.552 43.3047 28.1672 43.9638C26.8128 44.6083 25.4125 45.2433 22.6615 45.2433V45.8433ZM33.501 43.2261C35.9694 43.2261 37.2159 43.856 38.5743 44.5053C39.964 45.1696 41.4512 45.8433 44.34 45.8433V45.2433C41.5757 45.2433 40.1809 44.6083 38.8331 43.964C37.454 43.3048 36.1077 42.6261 33.501 42.6261V43.2261ZM44.34 45.8433C47.2156 45.8433 48.7082 45.1696 50.1035 44.5056C51.4684 43.856 52.7218 43.2261 55.1794 43.2261V42.6261C52.5836 42.6261 51.2305 43.3047 49.8457 43.9638C48.4913 44.6083 47.091 45.2433 44.34 45.2433V45.8433ZM55.1794 43.2261C57.54 43.2261 58.5787 43.6082 59.7163 44.1139C60.8884 44.6349 62.1767 45.2949 64.9832 45.8085L65.0912 45.2183C62.3605 44.7185 61.1283 44.0849 59.96 43.5656C58.7572 43.0309 57.6356 42.6261 55.1794 42.6261V43.2261ZM65.0372 45.2134C64.8995 45.2134 64.7934 45.2153 64.7198 45.2183C64.684 45.2198 64.6513 45.2218 64.6252 45.2244C64.6137 45.2256 64.5942 45.2279 64.5734 45.2324C64.5654 45.2341 64.5405 45.2396 64.5116 45.2522C64.4984 45.258 64.4663 45.273 64.4328 45.3024C64.4011 45.3303 64.3306 45.4057 64.3306 45.5283C64.3306 45.651 64.4011 45.7264 64.4328 45.7543C64.4663 45.7837 64.4984 45.7987 64.5116 45.8045C64.5405 45.8171 64.5654 45.8226 64.5734 45.8243C64.5942 45.8288 64.6137 45.8311 64.6252 45.8322C64.6513 45.8349 64.684 45.8369 64.7198 45.8383C64.7934 45.8414 64.8995 45.8433 65.0372 45.8433V45.2433C64.9037 45.2433 64.8066 45.2414 64.7446 45.2389C64.7127 45.2375 64.6945 45.2362 64.6868 45.2354C64.6812 45.2348 64.6881 45.2353 64.7004 45.2379C64.7042 45.2388 64.7259 45.2433 64.7526 45.255C64.7648 45.2603 64.7962 45.2748 64.8291 45.3038C64.8603 45.3312 64.9305 45.4062 64.9305 45.5283C64.9305 45.6505 64.8603 45.7255 64.8291 45.7529C64.7962 45.7819 64.7648 45.7963 64.7526 45.8017C64.7259 45.8134 64.7042 45.8179 64.7004 45.8188C64.6881 45.8214 64.6812 45.8218 64.6868 45.8213C64.6945 45.8205 64.7127 45.8191 64.7446 45.8178C64.8066 45.8153 64.9037 45.8134 65.0372 45.8134V45.2134Z" fill="#transparent" mask="url(#path-5-inside-1_459_6525)"/>
</svg>
