<svg width="67" height="67" viewBox="0 0 67 67" fill="none" xmlns="http://www.w3.org/2000/svg">
<g clip-path="url(#clip0_456_176)">
<path d="M34.2421 0H33.7476V9.59533H34.2421V0Z" fill="currentColor"/>
<path d="M29.8236 10.6084H29.2095V20.8578H29.8236V10.6084Z" fill="currentColor"/>
<path d="M31.1073 10.6084H30.4932V20.8578H31.1073V10.6084Z" fill="currentColor"/>
<path d="M32.391 10.6084H31.7769V20.8578H32.391V10.6084Z" fill="currentColor"/>
<path d="M33.684 10.6084H33.0698V20.8578H33.684V10.6084Z" fill="currentColor"/>
<path d="M34.9677 10.6084H34.3535V20.8578H34.9677V10.6084Z" fill="currentColor"/>
<path d="M36.2602 10.6084H35.646V20.8578H36.2602V10.6084Z" fill="currentColor"/>
<path d="M37.5443 10.6084H36.9302V20.8578H37.5443V10.6084Z" fill="currentColor"/>
<path d="M38.828 10.6084H38.2139V20.8578H38.828V10.6084Z" fill="currentColor"/>
<path d="M25.7154 22.1816H24.8779V39.5458H25.7154V22.1816Z" fill="currentColor"/>
<path d="M27.6617 22.1816H26.8242V39.5458H27.6617V22.1816Z" fill="currentColor"/>
<path d="M29.6233 22.1816H28.7778V39.5458H29.6233V22.1816Z" fill="currentColor"/>
<path d="M31.5626 22.1895H30.7251V39.5536H31.5626V22.1895Z" fill="currentColor"/>
<path d="M33.5157 22.1895H32.6782V39.5536H33.5157V22.1895Z" fill="currentColor"/>
<path d="M35.4625 22.1895H34.625V39.5536H35.4625V22.1895Z" fill="currentColor"/>
<path d="M37.4166 22.1975H36.5791V39.5616H37.4166V22.1975Z" fill="currentColor"/>
<path d="M39.3624 22.1975H38.5249V39.5616H39.3624V22.1975Z" fill="currentColor"/>
<path d="M41.3165 22.1975H40.479V39.5616H41.3165V22.1975Z" fill="currentColor"/>
<path d="M43.2717 22.2053H42.4263V39.5694H43.2717V22.2053Z" fill="currentColor"/>
<path d="M19.1588 41.1809H18.3213V60.8661H19.1588V41.1809Z" fill="currentColor"/>
<path d="M21.073 41.1887H20.2275V60.8659H21.073V41.1887Z" fill="currentColor"/>
<path d="M22.9713 41.1968H22.1338V60.866H22.9713V41.1968Z" fill="currentColor"/>
<path d="M24.8697 41.2046H24.0322V60.8658H24.8697V41.2046Z" fill="currentColor"/>
<path d="M26.7765 41.2126H25.939V60.8659H26.7765V41.2126Z" fill="currentColor"/>
<path d="M28.6749 41.2205H27.8374V60.8658H28.6749V41.2205Z" fill="currentColor"/>
<path d="M30.5812 41.2295H29.7437V60.8668H30.5812V41.2295Z" fill="currentColor"/>
<path d="M32.4864 41.2373H31.6489V60.8667H32.4864V41.2373Z" fill="currentColor"/>
<path d="M34.3858 41.2444H33.5483V60.8658H34.3858V41.2444Z" fill="currentColor"/>
<path d="M36.2921 41.2522H35.4546V60.8656H36.2921V41.2522Z" fill="currentColor"/>
<path d="M38.1979 41.2612H37.3604V60.8666H38.1979V41.2612Z" fill="currentColor"/>
<path d="M40.0963 41.269H39.2588V60.8665H40.0963V41.269Z" fill="currentColor"/>
<path d="M42.0025 41.2771H41.165V60.8666H42.0025V41.2771Z" fill="currentColor"/>
<path d="M43.9089 41.2839H43.0635V60.8654H43.9089V41.2839Z" fill="currentColor"/>
<path d="M45.8072 41.292H44.9697V60.8655H45.8072V41.292Z" fill="currentColor"/>
<path d="M47.7219 41.1729H46.8765V60.866H47.7219V41.1729Z" fill="currentColor"/>
<path d="M49.6124 41.3008H48.7749V60.8663H49.6124V41.3008Z" fill="currentColor"/>
<path d="M66.3777 66.9995C66.3777 66.9995 65.3886 66.6645 63.6658 66.0344C62.8203 65.6914 61.7435 65.4123 60.5471 65.0294C59.3506 64.6466 57.9628 64.2956 56.4633 63.8968L55.3147 63.6017L54.1023 63.3544L51.542 62.836C50.6726 62.6605 49.7713 62.5488 48.854 62.3973C47.9368 62.2457 46.9956 62.0782 46.0304 61.9905L43.1112 61.6635C42.1221 61.5678 41.1171 61.5279 40.1042 61.4481L38.5807 61.3364H37.0493L33.9944 61.2328L30.8997 61.3045C30.3812 61.3045 29.8548 61.3045 29.3044 61.3045L27.7969 61.4082C26.7919 61.488 25.7949 61.5359 24.8059 61.6236L21.8866 61.9586C20.9215 62.0384 19.9883 62.2218 19.071 62.3574C18.1537 62.493 17.2445 62.6286 16.3751 62.7961L13.8466 63.3305L12.6342 63.5778L11.4857 63.8729C9.98615 64.2717 8.5983 64.5987 7.40187 65.0055C6.20545 65.4123 5.12068 65.6675 4.27521 66.0105C2.56831 66.6406 1.57129 66.9756 1.57129 66.9756C1.57129 66.9756 2.48057 66.4651 4.10771 65.6037C4.90533 65.1491 5.93426 64.7263 7.10675 64.2079L8.01603 63.8091L8.4946 63.6017L8.98913 63.4103L11.1267 62.6126L12.2673 62.2058L13.4717 61.8469L16.0161 61.137C16.8935 60.9057 17.8028 60.7303 18.736 60.5149C19.6692 60.2995 20.6184 60.1001 21.5995 59.9645L24.5825 59.5099C25.5955 59.3823 26.6324 59.3105 27.6773 59.2148L29.2725 59.0792C29.799 59.0792 30.3094 59.0792 30.8678 59.0154L33.9944 59.0234L37.1849 59.1111C37.7113 59.1111 38.2377 59.1111 38.7801 59.1749L40.3754 59.3105C41.4043 59.4062 42.4412 59.486 43.4462 59.6136L46.4293 60.0603C47.4103 60.1959 48.3675 60.4032 49.2927 60.6186C50.2179 60.8339 51.1352 61.0014 52.0126 61.2328L54.557 61.9506L55.7614 62.3016L56.902 62.7084L59.0396 63.506L59.5341 63.6894L60.0127 63.8968L60.9299 64.2956C62.1024 64.8141 63.1314 65.2448 63.929 65.6994C65.4684 66.505 66.3777 66.9995 66.3777 66.9995Z" fill="currentColor"/>
</g>
<defs>
<clipPath id="clip0_456_176">
<rect width="67" height="67" fill="currentColor"/>
</clipPath>
</defs>
</svg>
