<svg width="67" height="67" viewBox="0 0 67 67" fill="none" xmlns="http://www.w3.org/2000/svg">
<g clip-path="url(#clip0_459_6383)">
<path d="M62.7777 13.8252H37.2538C36.6668 13.8252 36.1904 14.3016 36.1904 14.8886V61.6825C36.1904 62.2695 36.6668 62.7459 37.2538 62.7459H62.7777C63.3647 62.7459 63.8411 62.2695 63.8411 61.6825V14.8889C63.8411 14.3019 63.3647 13.8252 62.7777 13.8252ZM61.7143 60.6191H38.3172V15.9523H61.714V60.6191H61.7143Z" fill="currentColor"/>
<path d="M42.5724 22.3337H40.4453V61.6829H42.5724V22.3337Z" fill="currentColor"/>
<path d="M46.8253 22.3337H44.6982V61.6829H46.8253V22.3337Z" fill="currentColor"/>
<path d="M51.0792 22.3337H48.9521V61.6829H51.0792V22.3337Z" fill="currentColor"/>
<path d="M55.3341 22.3337H53.207V61.6829H55.3341V22.3337Z" fill="currentColor"/>
<path d="M59.588 22.3337H57.4609V61.6829H59.588V22.3337Z" fill="currentColor"/>
<path d="M42.5724 18.0791H40.4453V20.2062H42.5724V18.0791Z" fill="currentColor"/>
<path d="M46.8253 18.0791H44.6982V20.2062H46.8253V18.0791Z" fill="currentColor"/>
<path d="M51.0792 18.0791H48.9521V20.2062H51.0792V18.0791Z" fill="currentColor"/>
<path d="M55.3341 18.0791H53.207V20.2062H55.3341V18.0791Z" fill="currentColor"/>
<path d="M59.588 18.0791H57.4609V20.2062H59.588V18.0791Z" fill="currentColor"/>
<path d="M65.9682 60.6191H34.0634C33.4764 60.6191 33 61.0955 33 61.6825V65.9364C33 66.5234 33.4764 66.9998 34.0634 66.9998H65.9682C66.5552 66.9998 67.0316 66.5234 67.0316 65.9364V61.6825C67.0316 61.0955 66.5552 60.6191 65.9682 60.6191ZM64.9048 64.873H35.1268V62.7459H64.9045V64.873H64.9048Z" fill="currentColor"/>
<path d="M58.5248 6.38086H41.5087C40.9217 6.38086 40.4453 6.85725 40.4453 7.44425V14.8886C40.4453 15.4756 40.9217 15.952 41.5087 15.952H58.5245C59.1115 15.952 59.5879 15.4756 59.5879 14.8886V7.44425C59.5882 6.85725 59.1118 6.38086 58.5248 6.38086ZM57.4611 13.8252H42.5724V8.50795H57.4614V13.8252H57.4611Z" fill="currentColor"/>
<path d="M51.0792 0H48.9521V7.44436H51.0792V0Z" fill="currentColor"/>
<path d="M45.7628 4.25366H43.6357V7.44415H45.7628V4.25366Z" fill="currentColor"/>
<path d="M56.3976 4.25366H54.2705V7.44415H56.3976V4.25366Z" fill="currentColor"/>
<path d="M28 25.5C27.2913 25.501 26.6057 25.7524 26.0645 26.2099C25.5232 26.6673 25.161 27.3014 25.0419 28H8.5V25.75C8.49949 25.286 8.31495 24.8412 7.98687 24.5131C7.65879 24.1851 7.21397 24.0005 6.75 24H6.25C5.78603 24.0005 5.34121 24.1851 5.01313 24.5131C4.68505 24.8412 4.50051 25.286 4.5 25.75V28H0.5C0.367392 28 0.240215 28.0527 0.146447 28.1464C0.0526784 28.2402 0 28.3674 0 28.5V51C0 51.1326 0.0526784 51.2598 0.146447 51.3536C0.240215 51.4473 0.367392 51.5 0.5 51.5H28C28.7954 51.4992 29.558 51.1828 30.1204 50.6204C30.6828 50.058 30.9992 49.2954 31 48.5V28.5C30.9992 27.7046 30.6828 26.942 30.1204 26.3796C29.558 25.8172 28.7954 25.5008 28 25.5V25.5ZM5.5 25.75C5.50017 25.5511 5.57924 25.3605 5.71985 25.2199C5.86047 25.0792 6.05114 25.0002 6.25 25H6.75C6.94886 25.0002 7.13953 25.0792 7.28015 25.2199C7.42076 25.3605 7.49983 25.5511 7.5 25.75V27H5.5V25.75ZM5.5 28H6V35.5C6 35.6326 6.05268 35.7598 6.14645 35.8536C6.24021 35.9473 6.36739 36 6.5 36C6.63261 36 6.75979 35.9473 6.85355 35.8536C6.94732 35.7598 7 35.6326 7 35.5V28H7.5V38.5H5.5V28ZM5.5 39.5H7.5V39.9094L7.46625 40H5.53375L5.5 39.9094V39.5ZM7.09125 41L6.5 42.5762L5.90875 41H7.09125ZM4.53188 40.1756L6.03188 44.1756C6.06763 44.2709 6.1316 44.353 6.21525 44.411C6.2989 44.4689 6.39824 44.5 6.5 44.5C6.60176 44.5 6.7011 44.4689 6.78475 44.411C6.8684 44.353 6.93237 44.2709 6.96812 44.1756L8.46813 40.1756C8.48928 40.1195 8.50008 40.06 8.5 40V31H10.5V34C10.5 34.1326 10.5527 34.2598 10.6464 34.3536C10.7402 34.4473 10.8674 34.5 11 34.5H16V39H11.5C11.3674 39 11.2402 39.0527 11.1464 39.1464C11.0527 39.2402 11 39.3674 11 39.5V48H3V31H4.5V40C4.49992 40.06 4.51072 40.1195 4.53188 40.1756V40.1756ZM17 39V34C17 33.8674 16.9473 33.7402 16.8536 33.6464C16.7598 33.5527 16.6326 33.5 16.5 33.5H11.5V31H20V39H17ZM20 40V48H12V40H20ZM28 50.5H1V29H4.5V30H2.5C2.36739 30 2.24021 30.0527 2.14645 30.1464C2.05268 30.2402 2 30.3674 2 30.5V48.5C2 48.6326 2.05268 48.7598 2.14645 48.8536C2.24021 48.9473 2.36739 49 2.5 49H20.5C20.6326 49 20.7598 48.9473 20.8536 48.8536C20.9473 48.7598 21 48.6326 21 48.5V30.5C21 30.3674 20.9473 30.2402 20.8536 30.1464C20.7598 30.0527 20.6326 30 20.5 30H8.5V29H25V48.5C25 48.6326 25.0527 48.7598 25.1464 48.8536C25.2402 48.9473 25.3674 49 25.5 49C25.6326 49 25.7598 48.9473 25.8536 48.8536C25.9473 48.7598 26 48.6326 26 48.5C26 48.1044 26.1173 47.7178 26.3371 47.3889C26.5568 47.06 26.8692 46.8036 27.2346 46.6522C27.6001 46.5009 28.0022 46.4613 28.3902 46.5384C28.7781 46.6156 29.1345 46.8061 29.4142 47.0858C29.6939 47.3655 29.8844 47.7219 29.9616 48.1098C30.0387 48.4978 29.9991 48.8999 29.8478 49.2654C29.6964 49.6308 29.44 49.9432 29.1111 50.1629C28.7822 50.3827 28.3956 50.5 28 50.5ZM30 46.2662C29.4506 45.773 28.7384 45.5001 28.0001 45.5C27.2618 45.4999 26.5495 45.7725 26 46.2656V28.5C26 27.9696 26.2107 27.4609 26.5858 27.0858C26.9609 26.7107 27.4696 26.5 28 26.5C28.5304 26.5 29.0391 26.7107 29.4142 27.0858C29.7893 27.4609 30 27.9696 30 28.5V46.2662Z" fill="black"/>
<path d="M28 25.5C27.2913 25.501 26.6057 25.7524 26.0645 26.2099C25.5232 26.6673 25.161 27.3014 25.0419 28H8.5V25.75C8.49949 25.286 8.31495 24.8412 7.98687 24.5131C7.65879 24.1851 7.21397 24.0005 6.75 24H6.25C5.78603 24.0005 5.34121 24.1851 5.01313 24.5131C4.68505 24.8412 4.50051 25.286 4.5 25.75V28H0.5C0.367392 28 0.240215 28.0527 0.146447 28.1464C0.0526784 28.2402 0 28.3674 0 28.5V51C0 51.1326 0.0526784 51.2598 0.146447 51.3536C0.240215 51.4473 0.367392 51.5 0.5 51.5H28C28.7954 51.4992 29.558 51.1828 30.1204 50.6204C30.6828 50.058 30.9992 49.2954 31 48.5V28.5C30.9992 27.7046 30.6828 26.942 30.1204 26.3796C29.558 25.8172 28.7954 25.5008 28 25.5V25.5ZM5.5 25.75C5.50017 25.5511 5.57924 25.3605 5.71985 25.2199C5.86047 25.0792 6.05114 25.0002 6.25 25H6.75C6.94886 25.0002 7.13953 25.0792 7.28015 25.2199C7.42076 25.3605 7.49983 25.5511 7.5 25.75V27H5.5V25.75ZM5.5 28H6V35.5C6 35.6326 6.05268 35.7598 6.14645 35.8536C6.24021 35.9473 6.36739 36 6.5 36C6.63261 36 6.75979 35.9473 6.85355 35.8536C6.94732 35.7598 7 35.6326 7 35.5V28H7.5V38.5H5.5V28ZM5.5 39.5H7.5V39.9094L7.46625 40H5.53375L5.5 39.9094V39.5ZM7.09125 41L6.5 42.5762L5.90875 41H7.09125ZM4.53188 40.1756L6.03188 44.1756C6.06763 44.2709 6.1316 44.353 6.21525 44.411C6.2989 44.4689 6.39824 44.5 6.5 44.5C6.60176 44.5 6.7011 44.4689 6.78475 44.411C6.8684 44.353 6.93237 44.2709 6.96812 44.1756L8.46813 40.1756C8.48928 40.1195 8.50008 40.06 8.5 40V31H10.5V34C10.5 34.1326 10.5527 34.2598 10.6464 34.3536C10.7402 34.4473 10.8674 34.5 11 34.5H16V39H11.5C11.3674 39 11.2402 39.0527 11.1464 39.1464C11.0527 39.2402 11 39.3674 11 39.5V48H3V31H4.5V40C4.49992 40.06 4.51072 40.1195 4.53188 40.1756V40.1756ZM17 39V34C17 33.8674 16.9473 33.7402 16.8536 33.6464C16.7598 33.5527 16.6326 33.5 16.5 33.5H11.5V31H20V39H17ZM20 40V48H12V40H20ZM28 50.5H1V29H4.5V30H2.5C2.36739 30 2.24021 30.0527 2.14645 30.1464C2.05268 30.2402 2 30.3674 2 30.5V48.5C2 48.6326 2.05268 48.7598 2.14645 48.8536C2.24021 48.9473 2.36739 49 2.5 49H20.5C20.6326 49 20.7598 48.9473 20.8536 48.8536C20.9473 48.7598 21 48.6326 21 48.5V30.5C21 30.3674 20.9473 30.2402 20.8536 30.1464C20.7598 30.0527 20.6326 30 20.5 30H8.5V29H25V48.5C25 48.6326 25.0527 48.7598 25.1464 48.8536C25.2402 48.9473 25.3674 49 25.5 49C25.6326 49 25.7598 48.9473 25.8536 48.8536C25.9473 48.7598 26 48.6326 26 48.5C26 48.1044 26.1173 47.7178 26.3371 47.3889C26.5568 47.06 26.8692 46.8036 27.2346 46.6522C27.6001 46.5009 28.0022 46.4613 28.3902 46.5384C28.7781 46.6156 29.1345 46.8061 29.4142 47.0858C29.6939 47.3655 29.8844 47.7219 29.9616 48.1098C30.0387 48.4978 29.9991 48.8999 29.8478 49.2654C29.6964 49.6308 29.44 49.9432 29.1111 50.1629C28.7822 50.3827 28.3956 50.5 28 50.5ZM30 46.2662C29.4506 45.773 28.7384 45.5001 28.0001 45.5C27.2618 45.4999 26.5495 45.7725 26 46.2656V28.5C26 27.9696 26.2107 27.4609 26.5858 27.0858C26.9609 26.7107 27.4696 26.5 28 26.5C28.5304 26.5 29.0391 26.7107 29.4142 27.0858C29.7893 27.4609 30 27.9696 30 28.5V46.2662Z" fill="currentColor"/>
<path d="M6 37.5C6 37.6326 6.05268 37.7598 6.14645 37.8536C6.24021 37.9473 6.36739 38 6.5 38C6.63261 38 6.75979 37.9473 6.85355 37.8536C6.94732 37.7598 7 37.6326 7 37.5V37C7 36.8674 6.94732 36.7402 6.85355 36.6464C6.75979 36.5527 6.63261 36.5 6.5 36.5C6.36739 36.5 6.24021 36.5527 6.14645 36.6464C6.05268 36.7402 6 36.8674 6 37V37.5Z" fill="black"/>
<path d="M6 37.5C6 37.6326 6.05268 37.7598 6.14645 37.8536C6.24021 37.9473 6.36739 38 6.5 38C6.63261 38 6.75979 37.9473 6.85355 37.8536C6.94732 37.7598 7 37.6326 7 37.5V37C7 36.8674 6.94732 36.7402 6.85355 36.6464C6.75979 36.5527 6.63261 36.5 6.5 36.5C6.36739 36.5 6.24021 36.5527 6.14645 36.6464C6.05268 36.7402 6 36.8674 6 37V37.5Z" fill="currentColor"/>
</g>
<defs>
<clipPath id="clip0_459_6383">
<rect width="67" height="67" fill="currentColor"/>
</clipPath>
</defs>
</svg>
