<svg width="67" height="52" viewBox="0 0 67 52" fill="none" xmlns="http://www.w3.org/2000/svg">
<path d="M71.2745 21.2916H71.2585C67.2945 21.3646 63.4321 20.0451 60.3541 17.5664C57.2667 15.0939 55.1499 11.627 54.3711 7.76774V4.58731C54.3711 4.39852 54.2955 4.21747 54.1609 4.08397C54.0263 3.95048 53.8438 3.87549 53.6535 3.87549H52.6966V0.711824C52.6966 0.523036 52.621 0.341981 52.4864 0.208488C52.3518 0.074995 52.1693 0 51.979 0C51.7886 0 51.6061 0.074995 51.4715 0.208488C51.3369 0.341981 51.2613 0.523036 51.2613 0.711824V3.87549H50.3044C50.1141 3.87549 49.9316 3.95048 49.797 4.08397C49.6624 4.21747 49.5868 4.39852 49.5868 4.58731V7.7679C48.0558 15.4423 41.268 21.1263 33.4228 21.2918C29.4578 21.352 25.597 20.032 22.5116 17.5611C19.4263 15.0903 17.3116 11.625 16.5354 7.7679V4.58731C16.5354 4.39852 16.4597 4.21747 16.3252 4.08397C16.1906 3.95048 16.008 3.87549 15.8177 3.87549H14.8656V0.711824C14.8656 0.523036 14.79 0.341981 14.6554 0.208488C14.5208 0.074995 14.3383 0 14.148 0C13.9576 0 13.7751 0.074995 13.6405 0.208488C13.5059 0.341981 13.4303 0.523036 13.4303 0.711824V3.87549H12.4708C12.2804 3.87549 12.0979 3.95048 11.9633 4.08397C11.8287 4.21747 11.7531 4.39852 11.7531 4.58731V7.81867C10.9665 11.6811 8.8262 15.1424 5.71176 17.5887C2.60166 20.0534 -1.27867 21.3631 -5.25887 21.2918H-5.27482C-5.46515 21.2898 -5.64847 21.3629 -5.78447 21.495C-5.92046 21.6271 -5.99797 21.8074 -5.99996 21.9961C-6.00195 22.1849 -5.92825 22.3668 -5.79507 22.5017C-5.66189 22.6365 -5.48014 22.7134 -5.28981 22.7154C-5.16222 22.7181 -5.03464 22.7195 -4.9061 22.7195C-4.45223 22.7195 -3.99947 22.6994 -3.54831 22.6657V25.0739H-4.55717V27.5909H13.1884V46.453H12.137C11.8898 46.453 11.6527 46.5502 11.4778 46.7234C11.3028 46.8965 11.2042 47.1315 11.2037 47.3766V49.7573H-4.55717V52H70.5568V49.7568H54.7803V47.3761C54.7798 47.131 54.6813 46.8961 54.5063 46.723C54.3314 46.5498 54.0944 46.4526 53.8472 46.4525H52.9365V27.5906H70.5568V25.0736H69.4966V22.6613C69.9661 22.6982 70.4376 22.7192 70.9106 22.7192C71.0369 22.7192 71.1633 22.7178 71.2898 22.7151C71.4801 22.7131 71.6619 22.6362 71.7951 22.5013C71.9282 22.3665 72.0019 22.1846 72 21.9958C71.998 21.807 71.9205 21.6268 71.7845 21.4947C71.6485 21.3626 71.4651 21.2895 71.2748 21.2914L71.2745 21.2916ZM1.95128 25.0736H-2.11333V22.5006C-0.720286 22.2861 0.643449 21.9143 1.95128 21.3924V25.0736ZM6.95601 25.0736H3.38658V20.7471C4.52746 20.1765 5.60634 19.4914 6.60628 18.7025C6.72556 18.6083 6.84023 18.5098 6.95713 18.413L6.95601 25.0736ZM11.7531 25.0736H8.39131V17.0926C9.76609 15.6814 10.9014 14.0587 11.7531 12.2875V25.0736ZM45.5145 17.7972C47.2102 16.2243 48.592 14.3487 49.5876 12.2684V25.0738H45.5145V17.7972ZM37.6462 22.1268C39.977 21.5146 42.1631 20.4522 44.0792 19.0006V25.0738H37.6469L37.6462 22.1268ZM29.7784 22.4123C30.8656 22.6151 31.9693 22.7178 33.0756 22.7192C33.2019 22.7192 33.3283 22.7178 33.4548 22.7151C34.3795 22.6943 35.3012 22.6024 36.2116 22.4403V25.0736H29.7784V22.4123ZM21.9101 18.8983C23.8218 20.3709 26.008 21.4546 28.3431 22.0869V25.0736H21.9101V18.8983ZM16.5368 12.262C17.504 14.2904 18.8389 16.1252 20.4748 17.6751V25.0736H16.5368V12.262ZM13.1878 7.88764V5.29913H15.1015V25.0736H13.1878V7.88764ZM51.0235 46.453H50.1394C49.8923 46.453 49.6552 46.5503 49.4803 46.7234C49.3054 46.8966 49.2068 47.1315 49.2063 47.3766V49.7573H16.7779V47.3766C16.7774 47.1315 16.6788 46.8966 16.5039 46.7234C16.329 46.5503 16.0919 46.453 15.8448 46.453H15.1015V27.5906H51.0235V46.453ZM52.9373 7.83592V25.0736H51.0235V5.29913H52.9373V7.83592ZM54.3726 25.0741V12.262C55.1818 13.9587 56.2492 15.5219 57.5374 16.8968L57.5569 25.0749L54.3726 25.0741ZM62.5622 25.0741H58.9914L58.9754 18.2741C59.1328 18.4092 59.2904 18.5441 59.4527 18.6743C60.4182 19.4471 61.4597 20.1214 62.5616 20.6869L62.5622 25.0741ZM68.0621 25.0741H63.9967V21.3493C65.3024 21.8848 66.6664 22.2676 68.0613 22.4902L68.0621 25.0741Z" fill="currentColor"/>
</svg>
