<svg width="73" height="59" viewBox="0 0 73 59" fill="none" xmlns="http://www.w3.org/2000/svg">
<g clip-path="url(#clip0_459_6533)">
<path d="M22.3637 52.8543H22.3634H21.8577H21.3526H21.352L18.3526 52.859L18.2928 52.8591L18.2356 52.8418C17.3725 52.5794 16.7383 52.2659 16.2743 51.9115L22.3637 52.8543ZM22.3637 52.8543L24.6725 52.8523L25.5645 52.8515L24.9706 52.186L21.5571 48.3608L21.4379 48.2271H21.2587H16.1386H15.9485M22.3637 52.8543L15.9485 48.2271M16.1386 48.6271C15.8284 48.3745 15.8283 48.3746 15.8282 48.3747L15.828 48.375L15.8275 48.3756L15.8264 48.3771L15.8232 48.3811L15.8136 48.3933C15.8059 48.4033 15.7955 48.4169 15.7831 48.434C15.7581 48.4682 15.7245 48.5164 15.6861 48.5769C15.6097 48.6974 15.5126 48.8699 15.4284 49.0804C15.2616 49.4975 15.1327 50.0989 15.3648 50.7393L15.3649 50.7396C15.4408 50.9483 15.5544 51.148 15.7005 51.3416L15.701 51.3421C15.8484 51.5368 16.0351 51.7293 16.2738 51.9112L16.1386 48.6271ZM16.1386 48.6271L15.8284 48.3745M16.1386 48.6271L15.8284 48.3745M15.9485 48.2271L15.8284 48.3745M15.9485 48.2271L15.8284 48.3745M57.278 37.5048L57.2977 37.5269L57.3204 37.5458C58.1657 38.2511 58.8786 39.2718 59.3801 40.3709C59.882 41.4708 60.1579 42.6182 60.157 43.561V43.5613V49.581C60.157 50.9316 59.6129 52.1596 58.7256 53.0786L58.6133 53.1948V53.3564V55.6908C58.6133 56.8163 57.6431 57.7691 56.4041 57.7691H53.249C52.0087 57.7691 51.0389 56.8179 51.0389 55.6908V55.0936V54.6936H50.6389H36.5022H36.5002H22.3625H21.9625V55.0936V55.6908C21.9625 56.8179 20.9916 57.7691 19.7533 57.7691H16.5971C15.3589 57.7691 14.3871 56.816 14.3871 55.6908V53.3564V53.1949L14.2749 53.0787C13.3883 52.1596 12.8434 50.9315 12.8434 49.581V43.5613C12.8434 42.6184 13.1198 41.4709 13.6219 40.3709C14.1237 39.2718 14.8366 38.2511 15.6819 37.5458L15.7023 37.5288L15.7203 37.5093C15.7326 37.4959 15.7435 37.4833 15.7523 37.4732L15.7743 37.4477C15.786 37.4342 15.7916 37.4286 15.7956 37.4249L15.7956 37.4249L15.7982 37.4225L17.4842 35.834L18.0343 35.3157L17.2964 35.1523C16.662 35.0118 15.9952 34.6785 15.4931 34.2493C14.9811 33.8116 14.7052 33.3334 14.7052 32.9159C14.7052 32.4696 15.0084 32.1117 15.6393 31.8458C16.2652 31.582 17.1073 31.4637 17.9082 31.4637C18.6748 31.4637 19.0192 31.713 19.1977 31.9728C19.3978 32.264 19.4535 32.6576 19.4645 33.0545L19.4891 33.9461L20.1385 33.3347L24.4877 29.2401L24.4877 29.2401L24.4914 29.2366C24.8864 28.8552 25.4776 28.4983 26.1306 28.2367C26.7833 27.9752 27.4638 27.8226 28.0256 27.8226H36.5002H36.5022H44.9747C45.5371 27.8226 46.2181 27.9753 46.871 28.2367C47.5243 28.4983 48.1154 28.8552 48.5098 29.2365L48.5098 29.2365L48.5137 29.2402L52.8639 33.3347L53.5154 33.948L53.5379 33.0536C53.5479 32.6571 53.6033 32.2637 53.8032 31.9728C53.9815 31.7132 54.3263 31.4637 55.0942 31.4637C55.894 31.4637 56.7358 31.5819 57.3618 31.8458C57.9929 32.1118 58.2962 32.4697 58.2962 32.9159C58.2962 33.3335 58.0204 33.8117 57.5087 34.2493C57.0068 34.6785 56.3402 35.0118 55.7058 35.1523L54.9679 35.3157L55.5181 35.834L57.2042 37.4225L57.2064 37.4246C57.2176 37.435 57.2219 37.44 57.2332 37.4533C57.2419 37.4635 57.2547 37.4786 57.278 37.5048ZM25.5588 30.4582L25.5472 30.4676L25.5363 30.478L19.8328 35.8755L19.1032 36.566H20.1078H36.5002H36.5022H52.8955H53.9002L53.1704 35.8754L47.466 30.4779L47.4551 30.4676L47.4435 30.4582C47.0941 30.174 46.6323 29.9366 46.1971 29.7705C45.7681 29.6069 45.3144 29.4932 44.9767 29.4932H36.5022H36.5002H28.0256C27.6879 29.4932 27.2343 29.6069 26.8053 29.7705C26.3701 29.9366 25.9082 30.174 25.5588 30.4582ZM26.3582 49.3421H25.9582V49.7421C25.9582 51.4696 27.3926 52.8562 29.1392 52.8562H36.5002H36.5022H43.8631C45.6095 52.8562 47.0441 51.4717 47.0441 49.7421V49.3421H46.6441H36.5022H36.5002H26.3582ZM25.4685 43.0022H25.0685V43.4022C25.0685 44.7102 25.4254 45.9124 26.023 46.799C26.619 47.6831 27.4849 48.2899 28.493 48.2899H36.5002H36.5022H44.5093C45.5173 48.2899 46.3832 47.6834 46.9792 46.7994C47.5769 45.9129 47.9338 44.7107 47.9338 43.4022V43.0022H47.5338H36.5022H36.5002H25.4685ZM57.6377 50.7434L57.6386 50.7407C57.87 50.0995 57.7407 49.4982 57.5734 49.0813C57.489 48.8709 57.3916 48.6986 57.315 48.5783C57.2765 48.5179 57.2427 48.4697 57.2176 48.4355C57.205 48.4184 57.1945 48.4046 57.1865 48.3943L57.1758 48.3809L57.1704 48.3744L57.1647 48.3676C57.1639 48.3667 57.1597 48.3619 57.1541 48.3559C57.1504 48.352 57.1382 48.34 57.1297 48.3321C57.113 48.3187 56.9984 48.3069 56.8628 48.3401V48.23H51.7437H51.5646L51.4453 48.3636L48.0299 52.1888L47.4349 52.8552H48.3283H50.6389H51.1446H51.6497H51.6503L54.6497 52.86L54.709 52.8601L54.7658 52.843C55.6299 52.5824 56.2651 52.2668 56.7281 51.9125C56.9679 51.7305 57.1549 51.5378 57.3019 51.3424C57.4484 51.1493 57.5613 50.9503 57.6377 50.7434ZM17.0558 39.5653C15.3634 39.5653 14.0005 40.9519 14.0005 42.6506C14.0005 44.3511 15.3642 45.7321 17.0558 45.7321C17.2379 45.7321 17.4821 45.738 17.7684 45.7448C18.5796 45.7643 19.7291 45.7919 20.7629 45.7174C21.463 45.667 22.1542 45.568 22.6814 45.3711C23.1839 45.1835 23.7131 44.8336 23.7131 44.1931C23.7131 43.9042 23.5984 43.625 23.4447 43.3759C23.2885 43.1227 23.0721 42.8689 22.8225 42.6225C22.3229 42.1295 21.6525 41.63 20.9477 41.1851C20.2412 40.7392 19.4861 40.3394 18.8094 40.0497C18.1505 39.7676 17.5106 39.5653 17.0558 39.5653ZM49.2903 44.1931C49.2903 44.8333 49.8198 45.183 50.3219 45.3703C50.8491 45.567 51.5402 45.6661 52.2402 45.7167C53.275 45.7914 54.4255 45.764 55.2366 45.7447C55.5218 45.7379 55.7651 45.7321 55.9465 45.7321C57.6382 45.7321 59.0018 44.349 59.0018 42.6506C59.0018 40.9519 57.6389 39.5653 55.9465 39.5653C55.4918 39.5653 54.8521 39.7678 54.1934 40.05C53.5168 40.3399 52.7619 40.7398 52.0554 41.1859C51.3507 41.6308 50.6804 42.1304 50.1809 42.6233C49.9312 42.8696 49.7149 43.1233 49.5587 43.3763C49.405 43.6252 49.2903 43.9043 49.2903 44.1931Z" stroke="currentColor" stroke-width="0.8"/>
<path d="M36.0728 42.3716C36.4506 42.3577 36.8286 42.3938 37.204 42.3549C37.4081 42.3327 37.6046 42.2854 37.7684 42.1409C37.98 41.9546 38.0707 41.7101 38.0128 41.4155C37.9598 41.1487 37.8137 40.9736 37.5694 40.9069C37.5164 40.893 37.4535 40.8902 37.4584 40.7929C37.461 40.7012 37.5215 40.7068 37.5694 40.6901C37.6928 40.6456 37.8162 40.6011 37.9195 40.5067C38.2874 40.1648 38.2219 39.5478 37.7885 39.267C37.5996 39.1447 37.3904 39.1003 37.1763 39.078C36.8613 39.0419 36.5464 39.0613 36.234 39.0641C35.8359 39.0697 35.4378 39.0725 35.0373 39.0613C34.8155 39.0558 34.8483 39.028 34.8457 39.2587C34.8432 39.3699 34.8508 39.481 34.8432 39.5922C34.8382 39.6784 34.8709 39.7006 34.9465 39.7006C35.1632 39.6979 35.1632 39.7006 35.1632 39.948C35.1632 40.5038 35.1607 41.0597 35.1658 41.6156C35.1658 41.7212 35.138 41.7601 35.0448 41.7434C35.0171 41.7378 34.9868 41.7434 34.9566 41.7407C34.8684 41.7268 34.8357 41.7629 34.8432 41.8629C34.8508 41.9769 34.8533 42.0964 34.8432 42.2103C34.8306 42.341 34.8659 42.3854 34.9919 42.3799C35.3497 42.3632 35.7099 42.3716 36.0728 42.3716ZM36.2239 40.0897C36.2239 39.9757 36.2264 39.8591 36.2239 39.7451C36.2239 39.6895 36.234 39.6589 36.2919 39.6617C36.4305 39.6673 36.5691 39.6533 36.7051 39.6867C36.8866 39.7312 37.0075 39.9063 37.0024 40.1092C36.9949 40.312 36.874 40.4621 36.6875 40.4955C36.564 40.5177 36.4381 40.5121 36.3121 40.5177C36.2466 40.5205 36.2214 40.4955 36.2239 40.4232C36.2264 40.3093 36.2239 40.2009 36.2239 40.0897ZM36.4583 41.7712C36.4255 41.774 36.3902 41.7657 36.3575 41.774C36.2416 41.799 36.2164 41.7462 36.2214 41.6239C36.2315 41.4349 36.2264 41.2459 36.2214 41.0569C36.2189 40.9846 36.239 40.9569 36.307 40.9625C36.4078 40.968 36.5086 40.9625 36.6069 40.968C36.816 40.9791 36.9571 41.1375 36.9621 41.3682C36.9672 41.6045 36.8412 41.7518 36.6194 41.7712C36.5666 41.774 36.5111 41.7712 36.4583 41.7712Z" fill="black"/>
<path d="M36.0728 42.3716C36.4506 42.3577 36.8286 42.3938 37.204 42.3549C37.4081 42.3327 37.6046 42.2854 37.7684 42.1409C37.98 41.9546 38.0707 41.7101 38.0128 41.4155C37.9598 41.1487 37.8137 40.9736 37.5694 40.9069C37.5164 40.893 37.4535 40.8902 37.4584 40.7929C37.461 40.7012 37.5215 40.7068 37.5694 40.6901C37.6928 40.6456 37.8162 40.6011 37.9195 40.5067C38.2874 40.1648 38.2219 39.5478 37.7885 39.267C37.5996 39.1447 37.3904 39.1003 37.1763 39.078C36.8613 39.0419 36.5464 39.0613 36.234 39.0641C35.8359 39.0697 35.4378 39.0725 35.0373 39.0613C34.8155 39.0558 34.8483 39.028 34.8457 39.2587C34.8432 39.3699 34.8508 39.481 34.8432 39.5922C34.8382 39.6784 34.8709 39.7006 34.9465 39.7006C35.1632 39.6979 35.1632 39.7006 35.1632 39.948C35.1632 40.5038 35.1607 41.0597 35.1658 41.6156C35.1658 41.7212 35.138 41.7601 35.0448 41.7434C35.0171 41.7378 34.9868 41.7434 34.9566 41.7407C34.8684 41.7268 34.8357 41.7629 34.8432 41.8629C34.8508 41.9769 34.8533 42.0964 34.8432 42.2103C34.8306 42.341 34.8659 42.3854 34.9919 42.3799C35.3497 42.3632 35.7099 42.3716 36.0728 42.3716ZM36.2239 40.0897C36.2239 39.9757 36.2264 39.8591 36.2239 39.7451C36.2239 39.6895 36.234 39.6589 36.2919 39.6617C36.4305 39.6673 36.5691 39.6533 36.7051 39.6867C36.8866 39.7312 37.0075 39.9063 37.0024 40.1092C36.9949 40.312 36.874 40.4621 36.6875 40.4955C36.564 40.5177 36.4381 40.5121 36.3121 40.5177C36.2466 40.5205 36.2214 40.4955 36.2239 40.4232C36.2264 40.3093 36.2239 40.2009 36.2239 40.0897ZM36.4583 41.7712C36.4255 41.774 36.3902 41.7657 36.3575 41.774C36.2416 41.799 36.2164 41.7462 36.2214 41.6239C36.2315 41.4349 36.2264 41.2459 36.2214 41.0569C36.2189 40.9846 36.239 40.9569 36.307 40.9625C36.4078 40.968 36.5086 40.9625 36.6069 40.968C36.816 40.9791 36.9571 41.1375 36.9621 41.3682C36.9672 41.6045 36.8412 41.7518 36.6194 41.7712C36.5666 41.774 36.5111 41.7712 36.4583 41.7712Z" fill="currentColor"/>
<path d="M36.0728 42.3716C36.4506 42.3577 36.8286 42.3938 37.204 42.3549C37.4081 42.3327 37.6046 42.2854 37.7684 42.1409C37.98 41.9546 38.0707 41.7101 38.0128 41.4155C37.9598 41.1487 37.8137 40.9736 37.5694 40.9069C37.5164 40.893 37.4535 40.8902 37.4584 40.7929C37.461 40.7012 37.5215 40.7068 37.5694 40.6901C37.6928 40.6456 37.8162 40.6011 37.9195 40.5067C38.2874 40.1648 38.2219 39.5478 37.7885 39.267C37.5996 39.1447 37.3904 39.1003 37.1763 39.078C36.8613 39.0419 36.5464 39.0613 36.234 39.0641C35.8359 39.0697 35.4378 39.0725 35.0373 39.0613C34.8155 39.0558 34.8483 39.028 34.8457 39.2587C34.8432 39.3699 34.8508 39.481 34.8432 39.5922C34.8382 39.6784 34.8709 39.7006 34.9465 39.7006C35.1632 39.6979 35.1632 39.7006 35.1632 39.948C35.1632 40.5038 35.1607 41.0597 35.1658 41.6156C35.1658 41.7212 35.138 41.7601 35.0448 41.7434C35.0171 41.7378 34.9868 41.7434 34.9566 41.7407C34.8684 41.7268 34.8357 41.7629 34.8432 41.8629C34.8508 41.9769 34.8533 42.0964 34.8432 42.2103C34.8306 42.341 34.8659 42.3854 34.9919 42.3799C35.3497 42.3632 35.7099 42.3716 36.0728 42.3716ZM36.2239 40.0897C36.2239 39.9757 36.2264 39.8591 36.2239 39.7451C36.2239 39.6895 36.234 39.6589 36.2919 39.6617C36.4305 39.6673 36.5691 39.6533 36.7051 39.6867C36.8866 39.7312 37.0075 39.9063 37.0024 40.1092C36.9949 40.312 36.874 40.4621 36.6875 40.4955C36.564 40.5177 36.4381 40.5121 36.3121 40.5177C36.2466 40.5205 36.2214 40.4955 36.2239 40.4232C36.2264 40.3093 36.2239 40.2009 36.2239 40.0897ZM36.4583 41.7712C36.4255 41.774 36.3902 41.7657 36.3575 41.774C36.2416 41.799 36.2164 41.7462 36.2214 41.6239C36.2315 41.4349 36.2264 41.2459 36.2214 41.0569C36.2189 40.9846 36.239 40.9569 36.307 40.9625C36.4078 40.968 36.5086 40.9625 36.6069 40.968C36.816 40.9791 36.9571 41.1375 36.9621 41.3682C36.9672 41.6045 36.8412 41.7518 36.6194 41.7712C36.5666 41.774 36.5111 41.7712 36.4583 41.7712Z" fill="black"/>
<path d="M36.0728 42.3716C36.4506 42.3577 36.8286 42.3938 37.204 42.3549C37.4081 42.3327 37.6046 42.2854 37.7684 42.1409C37.98 41.9546 38.0707 41.7101 38.0128 41.4155C37.9598 41.1487 37.8137 40.9736 37.5694 40.9069C37.5164 40.893 37.4535 40.8902 37.4584 40.7929C37.461 40.7012 37.5215 40.7068 37.5694 40.6901C37.6928 40.6456 37.8162 40.6011 37.9195 40.5067C38.2874 40.1648 38.2219 39.5478 37.7885 39.267C37.5996 39.1447 37.3904 39.1003 37.1763 39.078C36.8613 39.0419 36.5464 39.0613 36.234 39.0641C35.8359 39.0697 35.4378 39.0725 35.0373 39.0613C34.8155 39.0558 34.8483 39.028 34.8457 39.2587C34.8432 39.3699 34.8508 39.481 34.8432 39.5922C34.8382 39.6784 34.8709 39.7006 34.9465 39.7006C35.1632 39.6979 35.1632 39.7006 35.1632 39.948C35.1632 40.5038 35.1607 41.0597 35.1658 41.6156C35.1658 41.7212 35.138 41.7601 35.0448 41.7434C35.0171 41.7378 34.9868 41.7434 34.9566 41.7407C34.8684 41.7268 34.8357 41.7629 34.8432 41.8629C34.8508 41.9769 34.8533 42.0964 34.8432 42.2103C34.8306 42.341 34.8659 42.3854 34.9919 42.3799C35.3497 42.3632 35.7099 42.3716 36.0728 42.3716ZM36.2239 40.0897C36.2239 39.9757 36.2264 39.8591 36.2239 39.7451C36.2239 39.6895 36.234 39.6589 36.2919 39.6617C36.4305 39.6673 36.5691 39.6533 36.7051 39.6867C36.8866 39.7312 37.0075 39.9063 37.0024 40.1092C36.9949 40.312 36.874 40.4621 36.6875 40.4955C36.564 40.5177 36.4381 40.5121 36.3121 40.5177C36.2466 40.5205 36.2214 40.4955 36.2239 40.4232C36.2264 40.3093 36.2239 40.2009 36.2239 40.0897ZM36.4583 41.7712C36.4255 41.774 36.3902 41.7657 36.3575 41.774C36.2416 41.799 36.2164 41.7462 36.2214 41.6239C36.2315 41.4349 36.2264 41.2459 36.2214 41.0569C36.2189 40.9846 36.239 40.9569 36.307 40.9625C36.4078 40.968 36.5086 40.9625 36.6069 40.968C36.816 40.9791 36.9571 41.1375 36.9621 41.3682C36.9672 41.6045 36.8412 41.7518 36.6194 41.7712C36.5666 41.774 36.5111 41.7712 36.4583 41.7712Z" fill="currentColor"/>
<path d="M36.4772 21.6056C30.5027 21.5782 25.6886 16.7301 25.7159 10.7571C25.7433 4.78394 30.6124 -0.0366259 36.5777 -3.72266e-05C42.5156 0.0365515 47.3115 4.88455 47.2841 10.8577C47.2659 16.8216 42.4334 21.6239 36.4772 21.6056ZM40.6976 10.0893C41.4559 9.76911 41.94 9.21119 42.1593 8.44278C42.5612 7.01585 41.6751 5.35106 40.2226 4.78394C39.5923 4.53696 38.9346 4.4089 38.2586 4.39976C35.4906 4.38147 32.7226 4.39061 29.9547 4.37232C29.6897 4.37232 29.6166 4.45464 29.6166 4.71076C29.6258 5.51571 29.6258 6.32981 29.6166 7.13476C29.6075 7.40003 29.6806 7.53723 29.9729 7.49151C30.0917 7.47321 30.2196 7.50065 30.3383 7.48236C30.6946 7.41833 30.7677 7.58297 30.7586 7.91227C30.7403 9.37581 30.7495 10.8393 30.7495 12.303C30.7495 13.1353 30.7495 13.1445 29.9455 13.1536C29.6806 13.1536 29.6075 13.245 29.6166 13.492C29.6258 14.2421 29.6166 14.9831 29.6258 15.7331C29.6258 16.0898 29.7811 16.2911 30.1739 16.282C32.8505 16.2728 35.5271 16.2911 38.2129 16.2545C39.1264 16.2453 40.0307 16.0807 40.8804 15.7148C42.2963 15.0928 43.0088 13.6293 42.5978 12.1932C42.4425 11.6443 42.1501 11.1687 41.7482 10.7571C43.3926 9.84232 43.8218 7.63786 42.5064 6.69569C43.0911 7.8025 43.0363 8.82702 42.2963 9.80576C41.7939 10.4643 41.4559 10.5284 40.6976 10.0893ZM42.9906 11.9919C43.0911 12.2389 43.1916 12.4402 43.2555 12.6505C43.694 14.1324 42.8261 15.66 41.2092 16.227C40.2044 16.5746 39.1538 16.6387 38.1033 16.6296C36.0021 16.6204 33.9011 16.5655 31.8 16.6296C31.6812 16.6296 31.4802 16.5655 31.4802 16.7759C31.4802 16.9954 31.6812 16.9131 31.8 16.9131C34.3578 16.9131 36.9157 16.9222 39.4735 16.8948C40.1769 16.8857 40.8621 16.7668 41.5381 16.5381C42.5338 16.1996 43.2555 15.5685 43.6026 14.5622C43.9133 13.6202 43.6757 12.5865 42.9906 11.9919Z" fill="black"/>
<path d="M36.4772 21.6056C30.5027 21.5782 25.6886 16.7301 25.7159 10.7571C25.7433 4.78394 30.6124 -0.0366259 36.5777 -3.72266e-05C42.5156 0.0365515 47.3115 4.88455 47.2841 10.8577C47.2659 16.8216 42.4334 21.6239 36.4772 21.6056ZM40.6976 10.0893C41.4559 9.76911 41.94 9.21119 42.1593 8.44278C42.5612 7.01585 41.6751 5.35106 40.2226 4.78394C39.5923 4.53696 38.9346 4.4089 38.2586 4.39976C35.4906 4.38147 32.7226 4.39061 29.9547 4.37232C29.6897 4.37232 29.6166 4.45464 29.6166 4.71076C29.6258 5.51571 29.6258 6.32981 29.6166 7.13476C29.6075 7.40003 29.6806 7.53723 29.9729 7.49151C30.0917 7.47321 30.2196 7.50065 30.3383 7.48236C30.6946 7.41833 30.7677 7.58297 30.7586 7.91227C30.7403 9.37581 30.7495 10.8393 30.7495 12.303C30.7495 13.1353 30.7495 13.1445 29.9455 13.1536C29.6806 13.1536 29.6075 13.245 29.6166 13.492C29.6258 14.2421 29.6166 14.9831 29.6258 15.7331C29.6258 16.0898 29.7811 16.2911 30.1739 16.282C32.8505 16.2728 35.5271 16.2911 38.2129 16.2545C39.1264 16.2453 40.0307 16.0807 40.8804 15.7148C42.2963 15.0928 43.0088 13.6293 42.5978 12.1932C42.4425 11.6443 42.1501 11.1687 41.7482 10.7571C43.3926 9.84232 43.8218 7.63786 42.5064 6.69569C43.0911 7.8025 43.0363 8.82702 42.2963 9.80576C41.7939 10.4643 41.4559 10.5284 40.6976 10.0893ZM42.9906 11.9919C43.0911 12.2389 43.1916 12.4402 43.2555 12.6505C43.694 14.1324 42.8261 15.66 41.2092 16.227C40.2044 16.5746 39.1538 16.6387 38.1033 16.6296C36.0021 16.6204 33.9011 16.5655 31.8 16.6296C31.6812 16.6296 31.4802 16.5655 31.4802 16.7759C31.4802 16.9954 31.6812 16.9131 31.8 16.9131C34.3578 16.9131 36.9157 16.9222 39.4735 16.8948C40.1769 16.8857 40.8621 16.7668 41.5381 16.5381C42.5338 16.1996 43.2555 15.5685 43.6026 14.5622C43.9133 13.6202 43.6757 12.5865 42.9906 11.9919Z" fill="currentColor"/>
<path d="M34.577 4.87513C35.9473 4.92087 37.3176 4.80196 38.6787 4.93002C39.4187 5.0032 40.1313 5.1587 40.725 5.63436C41.4924 6.24722 41.8212 7.05217 41.6111 8.02177C41.4193 8.89988 40.8895 9.47617 40.0033 9.69572C39.8115 9.74142 39.5831 9.75056 39.6013 10.0707C39.6105 10.3726 39.8298 10.3543 40.0033 10.4092C40.451 10.5555 40.8986 10.7019 41.2731 11.0129C42.6069 12.138 42.3694 14.1687 40.7981 15.0926C40.1129 15.495 39.3547 15.6413 38.5783 15.7145C37.4363 15.8335 36.2944 15.7694 35.1617 15.7603C33.7183 15.742 32.275 15.7328 30.8224 15.7694C30.0186 15.7878 30.1373 15.8792 30.1282 15.12C30.1191 14.7541 30.1464 14.3882 30.1191 14.0223C30.1008 13.7387 30.2195 13.6656 30.4936 13.6656C31.2793 13.6747 31.2793 13.6656 31.2793 12.8515C31.2793 11.0221 31.27 9.19264 31.2884 7.36317C31.2884 7.01558 31.1878 6.88752 30.8499 6.9424C30.7493 6.96069 30.6398 6.9424 30.5301 6.95154C30.2104 6.99728 30.0917 6.87837 30.1191 6.54907C30.1464 6.17404 30.1556 5.78071 30.1191 5.40568C30.0733 4.97576 30.2013 4.82941 30.658 4.8477C31.9552 4.90258 33.2615 4.87513 34.577 4.87513ZM35.1251 12.385C35.1251 12.76 35.1342 13.1442 35.1251 13.5192C35.1251 13.7021 35.1617 13.8028 35.3718 13.7936C35.8742 13.7754 36.3766 13.8211 36.87 13.7113C37.5277 13.565 37.9661 12.9887 37.9479 12.321C37.9205 11.6532 37.482 11.1592 36.806 11.0495C36.3584 10.9763 35.9016 10.9946 35.4449 10.9763C35.2073 10.9671 35.116 11.0495 35.1251 11.2873C35.1342 11.6623 35.1251 12.0191 35.1251 12.385ZM35.9747 6.85093C35.8559 6.84178 35.728 6.86923 35.6093 6.84178C35.1891 6.75946 35.0977 6.93325 35.116 7.33573C35.1526 7.95774 35.1342 8.57979 35.116 9.20178C35.1069 9.43961 35.1799 9.53102 35.4266 9.51273C35.792 9.49445 36.1574 9.51273 36.5137 9.49445C37.2719 9.45789 37.7835 8.93645 37.8017 8.17727C37.82 7.39976 37.3632 6.91496 36.5594 6.85093C36.3675 6.84178 36.1665 6.85093 35.9747 6.85093Z" fill="currentColor"/>
<path d="M36.0728 42.3716C36.4506 42.3577 36.8286 42.3938 37.204 42.3549C37.4081 42.3327 37.6046 42.2854 37.7684 42.1409C37.98 41.9546 38.0707 41.7101 38.0128 41.4155C37.9598 41.1487 37.8137 40.9736 37.5694 40.9069C37.5164 40.893 37.4535 40.8902 37.4584 40.7929C37.461 40.7012 37.5215 40.7068 37.5694 40.6901C37.6928 40.6456 37.8162 40.6011 37.9195 40.5067C38.2874 40.1648 38.2219 39.5478 37.7885 39.267C37.5996 39.1447 37.3904 39.1003 37.1763 39.078C36.8613 39.0419 36.5464 39.0613 36.234 39.0641C35.8359 39.0697 35.4378 39.0725 35.0373 39.0613C34.8155 39.0558 34.8483 39.028 34.8457 39.2587C34.8432 39.3699 34.8508 39.481 34.8432 39.5922C34.8382 39.6784 34.8709 39.7006 34.9465 39.7006C35.1632 39.6979 35.1632 39.7006 35.1632 39.948C35.1632 40.5038 35.1607 41.0597 35.1658 41.6156C35.1658 41.7212 35.138 41.7601 35.0448 41.7434C35.0171 41.7378 34.9868 41.7434 34.9566 41.7407C34.8684 41.7268 34.8357 41.7629 34.8432 41.8629C34.8508 41.9769 34.8533 42.0964 34.8432 42.2103C34.8306 42.341 34.8659 42.3854 34.9919 42.3799C35.3497 42.3632 35.7099 42.3716 36.0728 42.3716ZM36.2239 40.0897C36.2239 39.9757 36.2264 39.8591 36.2239 39.7451C36.2239 39.6895 36.234 39.6589 36.2919 39.6617C36.4305 39.6673 36.5691 39.6533 36.7051 39.6867C36.8866 39.7312 37.0075 39.9063 37.0024 40.1092C36.9949 40.312 36.874 40.4621 36.6875 40.4955C36.564 40.5177 36.4381 40.5121 36.3121 40.5177C36.2466 40.5205 36.2214 40.4955 36.2239 40.4232C36.2264 40.3093 36.2239 40.2009 36.2239 40.0897ZM36.4583 41.7712C36.4255 41.774 36.3902 41.7657 36.3575 41.774C36.2416 41.799 36.2164 41.7462 36.2214 41.6239C36.2315 41.4349 36.2264 41.2459 36.2214 41.0569C36.2189 40.9846 36.239 40.9569 36.307 40.9625C36.4078 40.968 36.5086 40.9625 36.6069 40.968C36.816 40.9791 36.9571 41.1375 36.9621 41.3682C36.9672 41.6045 36.8412 41.7518 36.6194 41.7712C36.5666 41.774 36.5111 41.7712 36.4583 41.7712Z" fill="currentColor"/>
<path d="M0.829545 2.49285V1.66187H0V2.49285H0.829545ZM72.1705 2.49285H73V1.66187H72.1705V2.49285ZM72.1705 58.1689V58.9999H73V58.1689H72.1705ZM68.8523 58.1689H68.0227V58.9999H68.8523V58.1689ZM68.8523 19.1126H69.6818V18.2816H68.8523V19.1126ZM4.14773 19.1126V18.2816H3.31818V19.1126H4.14773ZM4.14773 58.1689V58.9999H4.97727V58.1689H4.14773ZM0.829545 58.1689H0V58.9999H0.829545V58.1689ZM4.14773 1.66187H0.829545V3.32384H4.14773V1.66187ZM4.14773 3.32384H68.8523V1.66187H4.14773V3.32384ZM72.1705 1.66187H68.8523V3.32384H72.1705V1.66187ZM73 58.1689V2.49285H71.3409V58.1689H73ZM68.8523 58.9999H72.1705V57.3379H68.8523V58.9999ZM68.0227 19.1126V58.1689H69.6818V19.1126H68.0227ZM68.8523 18.2816H4.14773V19.9436H68.8523V18.2816ZM4.97727 58.1689V19.1126H3.31818V58.1689H4.97727ZM0.829545 58.9999H4.14773V57.3379H0.829545V58.9999ZM0 2.49285V58.1689H1.65909V2.49285H0Z" fill="black"/>
<path d="M0.829545 2.49285V1.66187H0V2.49285H0.829545ZM72.1705 2.49285H73V1.66187H72.1705V2.49285ZM72.1705 58.1689V58.9999H73V58.1689H72.1705ZM68.8523 58.1689H68.0227V58.9999H68.8523V58.1689ZM68.8523 19.1126H69.6818V18.2816H68.8523V19.1126ZM4.14773 19.1126V18.2816H3.31818V19.1126H4.14773ZM4.14773 58.1689V58.9999H4.97727V58.1689H4.14773ZM0.829545 58.1689H0V58.9999H0.829545V58.1689ZM4.14773 1.66187H0.829545V3.32384H4.14773V1.66187ZM4.14773 3.32384H68.8523V1.66187H4.14773V3.32384ZM72.1705 1.66187H68.8523V3.32384H72.1705V1.66187ZM73 58.1689V2.49285H71.3409V58.1689H73ZM68.8523 58.9999H72.1705V57.3379H68.8523V58.9999ZM68.0227 19.1126V58.1689H69.6818V19.1126H68.0227ZM68.8523 18.2816H4.14773V19.9436H68.8523V18.2816ZM4.97727 58.1689V19.1126H3.31818V58.1689H4.97727ZM0.829545 58.9999H4.14773V57.3379H0.829545V58.9999ZM0 2.49285V58.1689H1.65909V2.49285H0Z" fill="currentColor"/>
</g>
<defs>
<clipPath id="clip0_459_6533">
<rect width="73" height="59" fill="currentColor"/>
</clipPath>
</defs>
</svg>
