<svg width="517" height="438" fill="none" xmlns="http://www.w3.org/2000/svg"><g filter="url(#filter0_d_459_7160)" fill-rule="evenodd" clip-rule="evenodd"><path d="M233.545 58.696L257.034.876l92.602 218.179-22.586-11.895-69.715-167.135-7.98 18.67 57.217 136.419-21.231-11.594-51.796-124.824zm15.81 76.641l-23.489-57.82-60.229 143.947 21.491-12.648 38.437-92.15 7.98 18.671-25.446 61.283 21.833-13.1 19.423-48.183zM43.922 295.253a627.54 627.54 0 015.01 13.98h-7.137a1349.375 1349.375 0 00-7.205-20.902c-2.379-6.669-4.826-12.906-7.342-18.708-2.516 5.848-4.964 12.107-7.343 18.777a1715.528 1715.528 0 00-7.273 20.833H5.289a466.239 466.239 0 014.941-13.98 899.76 899.76 0 014.666-12.129 1288.76 1288.76 0 014.529-11.034 707.14 707.14 0 014.598-10.348h6.244a415.527 415.527 0 014.529 10.348c1.51 3.518 3.02 7.195 4.529 11.034 1.51 3.837 3.042 7.88 4.597 12.129zm373.067 13.979a641.752 641.752 0 00-5.008-13.98 554.132 554.132 0 00-4.598-12.129 394.926 394.926 0 00-4.529-11.034 414.047 414.047 0 00-4.529-10.348h-6.244a693.524 693.524 0 00-4.598 10.348 1287.94 1287.94 0 00-4.53 11.034 934.673 934.673 0 00-4.666 12.129 470.695 470.695 0 00-4.939 13.98h7.341a1706.49 1706.49 0 017.275-20.833c2.378-6.67 4.824-12.929 7.342-18.777 2.516 5.802 4.962 12.039 7.342 18.708 2.378 6.716 4.78 13.683 7.205 20.902h7.136zm68.49.694c2.288.959 4.986 1.439 8.097 1.439 3.11 0 5.787-.48 8.028-1.439 2.286-.96 4.163-2.262 5.627-3.907 1.51-1.69 2.606-3.677 3.295-5.962.731-2.284 1.096-4.751 1.096-7.401v-29.81h-6.655v29.056c0 2.376-.275 4.432-.824 6.167-.549 1.691-1.326 3.085-2.332 4.181a9.545 9.545 0 01-3.637 2.467c-1.373.502-2.905.755-4.598.755-3.386 0-6.13-1.075-8.234-3.222-2.106-2.147-3.156-5.596-3.156-10.348v-29.056h-6.658v29.81c0 2.65.343 5.117 1.03 7.401.733 2.285 1.83 4.272 3.294 5.962 1.463 1.645 3.34 2.947 5.627 3.907zm-349.035-5.346v5.757h-28.615v-47.491h6.657v41.734h21.958zm87.328 5.757v-5.757h-21.957v-41.734h-6.657v47.491h28.614zm71.563.408c-.96 0-2.013-.024-3.156-.069a79.957 79.957 0 01-6.657-.548 25.584 25.584 0 01-3.017-.548v-46.052c.913-.228 1.92-.411 3.017-.549a81.734 81.734 0 013.295-.342 85.843 85.843 0 016.45-.275c2.746 0 5.306.206 7.685.617 2.424.411 4.507 1.12 6.243 2.125 1.785.959 3.181 2.239 4.188 3.838 1.006 1.598 1.509 3.563 1.509 5.893 0 2.604-.618 4.751-1.852 6.442-1.236 1.645-2.882 2.878-4.941 3.701 2.791.822 5.009 2.124 6.655 3.906 1.648 1.781 2.47 4.294 2.47 7.537 0 4.752-1.761 8.339-5.283 10.761-3.477 2.375-9.012 3.563-16.606 3.563zm-6.244-22.547v16.722c.504.045 1.097.091 1.785.136.594.047 1.281.092 2.058.138h2.813c1.967 0 3.82-.114 5.559-.342 1.783-.275 3.34-.732 4.665-1.371 1.326-.64 2.38-1.531 3.156-2.673.824-1.142 1.235-2.581 1.235-4.317 0-1.554-.296-2.856-.892-3.907-.594-1.096-1.462-1.964-2.607-2.604-1.098-.639-2.423-1.096-3.98-1.371-1.555-.273-3.293-.411-5.215-.411h-8.577zm0-5.345h6.999a30.18 30.18 0 004.666-.343c1.463-.228 2.723-.639 3.773-1.233 1.099-.594 1.946-1.371 2.541-2.33.639-.959.96-2.17.96-3.632 0-1.37-.321-2.513-.96-3.426-.641-.96-1.532-1.713-2.677-2.262-1.097-.594-2.402-1.028-3.912-1.302a26.869 26.869 0 00-4.803-.411c-1.692 0-3.019.023-3.98.068-.961.046-1.831.115-2.607.206v14.665zM6.373 345.748c0-1.209.885-1.814 2.655-1.814.792 0 1.462.093 2.01.279.546.186.954.355 1.222.506l.506-1.395a9.294 9.294 0 00-.524-.262 9.496 9.496 0 00-.82-.28 10.56 10.56 0 00-1.066-.209 7.965 7.965 0 00-1.328-.104c-1.409 0-2.497.284-3.266.855-.78.569-1.17 1.383-1.17 2.441 0 .57.087 1.053.262 1.448.174.407.425.756.75 1.047a4.46 4.46 0 001.136.75c.431.21.908.419 1.432.628.373.139.717.279 1.031.419.303.139.57.29.804.453.232.175.413.373.541.594.128.221.192.494.192.82 0 .29-.058.54-.175.749a1.616 1.616 0 01-.506.541 2.35 2.35 0 01-.734.314c-.28.07-.582.105-.908.105-.64 0-1.2-.076-1.677-.227-.489-.14-.856-.285-1.1-.436l-.542 1.378c.28.186.722.355 1.328.506a7.564 7.564 0 001.991.244c1.27 0 2.265-.297 2.987-.889.722-.593 1.083-1.419 1.083-2.477 0-.513-.082-.949-.245-1.309a3.107 3.107 0 00-.698-.942 4.8 4.8 0 00-1.031-.68 12.29 12.29 0 00-1.258-.506 25.318 25.318 0 01-1.083-.419 4.096 4.096 0 01-.925-.506 2.051 2.051 0 01-.629-.68c-.163-.255-.245-.57-.245-.942zm66.617 3.392c0-1.035.152-1.949.454-2.739.315-.791.734-1.448 1.258-1.971a5.257 5.257 0 011.851-1.204 6.35 6.35 0 012.254-.401c.78 0 1.513.134 2.2.401a5.09 5.09 0 011.834 1.204c.524.523.938 1.18 1.24 1.971.315.79.472 1.704.472 2.739 0 1.034-.157 1.948-.471 2.739-.303.79-.717 1.453-1.24 1.988a5.193 5.193 0 01-1.835 1.186 6.003 6.003 0 01-2.2.402 6.329 6.329 0 01-2.254-.402 5.366 5.366 0 01-1.851-1.186c-.524-.535-.943-1.198-1.258-1.988-.302-.791-.454-1.705-.454-2.739zm1.782 0c0 .732.093 1.401.28 2.006.185.593.448 1.098.785 1.517.35.419.769.745 1.258.977.5.221 1.06.332 1.677.332s1.17-.111 1.659-.332a3.498 3.498 0 001.24-.977c.35-.419.617-.924.804-1.517.186-.605.28-1.274.28-2.006 0-.733-.094-1.396-.28-1.989-.187-.605-.454-1.116-.804-1.535a3.346 3.346 0 00-1.24-.96c-.489-.232-1.042-.348-1.66-.348-.616 0-1.175.116-1.676.348a3.503 3.503 0 00-1.258.96c-.337.419-.6.93-.786 1.535a6.626 6.626 0 00-.28 1.989zm71.079-6.036v12.088h1.694v-5.564h4.978v-1.431h-4.978v-3.645h5.607v-1.448h-7.301zm80.436 0v1.465h-3.808v10.623h-1.693v-10.623h-3.808v-1.465h9.309zm69.421 8.216c.5-1.326.996-2.768 1.484-4.327.49 1.559.979 3.001 1.467 4.327.49 1.325.99 2.617 1.503 3.872h1.694a60.262 60.262 0 001.607-5.634c.478-1.977.925-4.129 1.345-6.454h-1.729c-.164.906-.333 1.82-.507 2.738-.175.907-.356 1.792-.542 2.652a80.616 80.616 0 01-.54 2.442 49.046 49.046 0 01-.561 2.145c-.465-1.22-.966-2.558-1.501-4.012a71.675 71.675 0 01-1.484-4.535h-1.468a78.747 78.747 0 01-1.467 4.535 234.728 234.728 0 01-1.486 4.012 40 40 0 01-.576-2.163c-.184-.779-.372-1.592-.558-2.441-.186-.862-.367-1.745-.543-2.652a219.78 219.78 0 01-.505-2.721h-1.783c.409 2.325.846 4.477 1.311 6.454a60.49 60.49 0 001.643 5.634h1.694c.5-1.255 1.002-2.547 1.502-3.872zm77.458 4.131a68.713 68.713 0 01-.6-1.65c-.187-.549-.382-1.105-.582-1.668h-5.892l-1.183 3.318h-1.895a364.439 364.439 0 012.683-7.141c.426-1.05.845-2.05 1.258-2.999.413-.962.845-1.911 1.295-2.849h1.67c.45.938.882 1.887 1.295 2.849.413.949.826 1.949 1.239 2.999.425 1.049.856 2.161 1.295 3.336.438 1.163.907 2.431 1.407 3.805h-1.99zm-1.707-4.817c-.401-1.087-.8-2.137-1.201-3.149a49.808 49.808 0 00-1.22-2.942 49.078 49.078 0 00-1.257 2.942 139.423 139.423 0 00-1.164 3.149h4.842zm70.459.418a27.734 27.734 0 00-.697-.924c.827-.279 1.45-.703 1.867-1.274.432-.57.647-1.255.647-2.058 0-1.268-.448-2.221-1.344-2.86-.885-.64-2.177-.96-3.878-.96-.489 0-1.031.023-1.624.069a9.13 9.13 0 00-1.59.227v11.914h1.694v-4.726h1.99c.164 0 .321-.006.473-.019a22.281 22.281 0 01.734.943c.28.361.558.75.838 1.169.28.406.552.836.821 1.291.28.453.535.901.769 1.342h1.851a14 14 0 00-.768-1.448 27.851 27.851 0 00-.892-1.43 17.296 17.296 0 00-.891-1.256zm-4.925-6.541c.384-.035.937-.053 1.661-.053.453 0 .878.035 1.273.106.408.069.758.191 1.048.365.303.175.543.413.717.716.175.302.263.68.263 1.134 0 .488-.088.883-.263 1.186-.174.29-.426.517-.752.68-.314.163-.704.273-1.17.332-.466.058-.989.087-1.571.087h-1.206v-4.553zm68.183 10.681v-12.088h7.388v1.448h-5.694v3.593h5.065v1.413h-5.065v4.187h6.131v1.447h-7.825zM18.704 426.316c.273.782.564 1.581.873 2.399h2.894a532.157 532.157 0 00-2.048-5.534 184.214 184.214 0 00-1.883-4.852 130.97 130.97 0 00-1.802-4.362 105.6 105.6 0 00-1.883-4.143h-2.43a106.199 106.199 0 00-1.883 4.143c-.6 1.381-1.21 2.835-1.83 4.362-.6 1.526-1.219 3.144-1.855 4.852a529.66 529.66 0 00-2.048 5.534h2.757l1.72-4.825h8.571c.291.818.573 1.627.847 2.426zm-3.358-9.187a205.643 205.643 0 011.747 4.58H10.05a210.289 210.289 0 011.693-4.58 72.132 72.132 0 011.829-4.28 72.293 72.293 0 011.774 4.28zm21.895 11.586v-2.289h-8.735v-16.602h-2.648v18.891H37.24zm14.974 0v-2.289H43.48v-16.602h-2.648v18.891h11.383zm14.728-17.556c-1.42-1.018-3.457-1.526-6.114-1.526-.765 0-1.611.036-2.54.108-.909.055-1.737.173-2.483.355v18.619h2.648v-7.006h2.102c1.328 0 2.52-.108 3.576-.326 1.055-.22 1.947-.564 2.675-1.036a4.81 4.81 0 001.692-1.882c.4-.781.6-1.718.6-2.808 0-1.999-.718-3.498-2.156-4.498zm-8.49.872c.601-.054 1.466-.081 2.594-.081.71 0 1.383.054 2.02.163.637.109 1.192.309 1.665.6a2.95 2.95 0 011.147 1.118c.29.472.436 1.072.436 1.799 0 .763-.136 1.39-.41 1.881-.272.49-.663.881-1.173 1.172-.491.273-1.1.473-1.829.6a16.7 16.7 0 01-2.457.163h-1.992v-7.415zm26.162 16.684v-2.289H75.88v-16.602h-2.648v18.891h11.383zm16.13-2.399c.273.782.564 1.581.873 2.399h2.894a529.054 529.054 0 00-2.048-5.534 183.91 183.91 0 00-1.883-4.852 133.37 133.37 0 00-1.802-4.362 106.05 106.05 0 00-1.883-4.143h-2.43a106.2 106.2 0 00-1.883 4.143c-.6 1.381-1.21 2.835-1.83 4.362a288.81 288.81 0 00-1.855 4.852c-.637 1.69-1.32 3.535-2.048 5.534h2.757l1.72-4.825h8.571c.292.818.574 1.627.847 2.426zm-3.358-9.187a206.634 206.634 0 011.747 4.58h-7.043a210.812 210.812 0 011.693-4.58 72.132 72.132 0 011.829-4.28 72.158 72.158 0 011.774 4.28zm22.086 9.324c.528.836.992 1.59 1.392 2.262h2.212v-18.891h-2.594v13.984a65.761 65.761 0 00-2.156-3.299 88.587 88.587 0 00-2.703-3.762 88.349 88.349 0 00-2.893-3.734 49.314 49.314 0 00-2.731-3.189h-2.101v18.891h2.593v-14.748a49.76 49.76 0 011.665 2.017 83.75 83.75 0 011.857 2.454 85.811 85.811 0 011.91 2.671c.655.928 1.283 1.845 1.884 2.753.6.892 1.156 1.755 1.665 2.591zm34.515-15.294c-1.419-1.018-3.457-1.526-6.114-1.526-.765 0-1.611.036-2.539.108-.91.055-1.738.173-2.484.355v18.619h2.648v-7.006h2.101c1.329 0 2.522-.108 3.577-.326 1.055-.22 1.947-.564 2.675-1.036a4.819 4.819 0 001.693-1.882c.4-.781.6-1.718.6-2.808 0-1.999-.719-3.498-2.157-4.498zm-8.489.872c.6-.054 1.465-.081 2.593-.081.71 0 1.383.054 2.021.163.636.109 1.191.309 1.664.6.492.273.874.645 1.147 1.118.29.472.436 1.072.436 1.799 0 .763-.136 1.39-.409 1.881-.273.49-.664.881-1.174 1.172-.491.273-1.101.473-1.828.6-.729.109-1.548.163-2.457.163h-1.993v-7.415zm26.161 16.684v-2.289h-8.735v-16.602h-2.648v18.891h11.383zm6.933-.163c.91.381 1.983.572 3.222.572 1.236 0 2.302-.191 3.193-.572.91-.382 1.655-.9 2.239-1.554a6.203 6.203 0 001.311-2.372 9.63 9.63 0 00.436-2.944v-11.858h-2.648v11.559c0 .944-.109 1.762-.328 2.452-.218.673-.528 1.227-.927 1.663a3.812 3.812 0 01-1.447.982c-.546.2-1.157.3-1.829.3-1.348 0-2.44-.428-3.276-1.282-.837-.854-1.256-2.226-1.256-4.115v-11.559h-2.648v11.858c0 1.054.137 2.036.41 2.944a6.674 6.674 0 001.311 2.372c.581.654 1.327 1.172 2.237 1.554zm29.985-9.133h-2.648v7.034c-.235.072-.628.154-1.173.245-.527.073-1.174.109-1.939.109-1.072 0-2.009-.182-2.811-.545a5.68 5.68 0 01-1.993-1.527c-.527-.673-.928-1.472-1.201-2.399-.254-.926-.383-1.953-.383-3.081 0-1.162.156-2.207.465-3.134.31-.946.737-1.745 1.283-2.4a5.679 5.679 0 012.02-1.499c.802-.345 1.684-.517 2.647-.517.912 0 1.802.117 2.676.353.873.219 1.574.501 2.101.846l.847-2.208a5.356 5.356 0 00-.628-.328 7.696 7.696 0 00-1.146-.436 13.276 13.276 0 00-1.72-.382 14.056 14.056 0 00-2.265-.162 9.62 9.62 0 00-3.549.654 8.242 8.242 0 00-2.866 1.908c-.819.836-1.474 1.872-1.966 3.107-.472 1.218-.71 2.618-.71 4.198 0 1.582.21 2.982.628 4.199.437 1.217 1.048 2.244 1.829 3.08a7.719 7.719 0 002.811 1.909c1.093.436 2.303.654 3.631.654.655 0 1.302-.036 1.938-.109a20.88 20.88 0 001.748-.218c.545-.091 1.02-.182 1.418-.273.421-.09.738-.172.956-.245v-8.833zm7.612-9.595h-2.647v18.891h2.647v-18.891zm17.077 16.629c.529.836.993 1.59 1.392 2.262h2.211v-18.891h-2.593v13.984a63.798 63.798 0 00-2.157-3.299 85.951 85.951 0 00-2.702-3.762 86.736 86.736 0 00-2.894-3.734 48.7 48.7 0 00-2.73-3.189h-2.101v18.891h2.593v-14.748a48.897 48.897 0 011.666 2.017c.6.763 1.219 1.581 1.856 2.454a82.604 82.604 0 011.91 2.671c.655.928 1.283 1.845 1.884 2.753.6.892 1.157 1.755 1.665 2.591zm17.649-2.454c0 1.89-1.383 2.835-4.149 2.835-1.237 0-2.284-.145-3.139-.436-.854-.291-1.493-.554-1.911-.79l-.792 2.18c.2.109.473.246.819.409.364.146.792.291 1.283.437.492.127 1.046.236 1.665.327.637.109 1.329.163 2.075.163 2.202 0 3.903-.445 5.105-1.336 1.219-.89 1.829-2.162 1.829-3.816 0-.89-.137-1.645-.41-2.263a4.581 4.581 0 00-1.174-1.636 6.973 6.973 0 00-1.774-1.171 33.6 33.6 0 00-2.238-.982 29.086 29.086 0 01-1.611-.654 8.167 8.167 0 01-1.256-.709 3.136 3.136 0 01-.846-.927c-.2-.345-.3-.772-.3-1.281 0-.455.09-.846.273-1.172.199-.346.464-.627.791-.845a3.65 3.65 0 011.147-.492 5.9 5.9 0 011.42-.163c1.001 0 1.874.118 2.62.354.764.218 1.338.445 1.72.682l.846-2.154c-.437-.29-1.128-.554-2.075-.791-.928-.254-1.965-.38-3.111-.38-1.984 0-3.541.463-4.669 1.389-1.128.928-1.692 2.218-1.692 3.871 0 .8.128 1.482.382 2.045a4.846 4.846 0 001.092 1.472c.456.4.992.755 1.611 1.063a18.91 18.91 0 001.966.791c.599.218 1.165.436 1.692.654a6.442 6.442 0 011.447.791c.417.29.745.645.982 1.063.254.4.382.89.382 1.472zm20.313-2.18c-.218.544-.328 1.171-.328 1.881 0 .562.099 1.153.301 1.771a4.723 4.723 0 001.009 1.718c.492.509 1.128.936 1.912 1.281.78.327 1.763.491 2.948.491 1.272 0 2.401-.228 3.384-.682a9.423 9.423 0 002.594-1.826c.344.381.672.763.982 1.145.328.381.6.754.819 1.117h2.675a13.09 13.09 0 00-1.337-1.963 34.572 34.572 0 00-1.748-2.044c.547-.873.964-1.745 1.256-2.617.309-.89.5-1.708.573-2.454l-2.101-.272c-.183 1.399-.584 2.672-1.202 3.816l-4.422-4.498c.509-.273.991-.581 1.447-.927a7.275 7.275 0 001.202-1.145c.363-.417.644-.881.846-1.39.218-.509.327-1.082.327-1.718 0-.563-.101-1.099-.3-1.608a3.477 3.477 0 00-.901-1.309c-.382-.363-.865-.654-1.446-.872-.566-.218-1.212-.326-1.939-.326-.709 0-1.364.108-1.965.326a4.656 4.656 0 00-1.529.927c-.42.4-.756.891-1.009 1.472-.238.581-.356 1.236-.356 1.963 0 1.436.672 2.826 2.021 4.171-.53.255-1.038.554-1.53.9a6.179 6.179 0 00-1.31 1.171 5.299 5.299 0 00-.873 1.501zm2.402 2.889a3.353 3.353 0 01-.191-1.064c0-.58.082-1.09.246-1.526.18-.436.408-.809.682-1.117.273-.328.574-.6.901-.818a11.65 11.65 0 011.01-.573l5.323 5.371a6.207 6.207 0 01-2.02 1.39 6.067 6.067 0 01-2.457.491c-.692 0-1.275-.101-1.747-.3a3.752 3.752 0 01-1.12-.791 3.025 3.025 0 01-.627-1.063zm5.814-12.677c.418.418.628.936.628 1.554 0 .473-.082.9-.246 1.282a3.495 3.495 0 01-.628 1.008 4.06 4.06 0 01-.927.818 9.792 9.792 0 01-1.12.654c-1.238-1.126-1.856-2.281-1.856-3.462 0-.708.208-1.299.628-1.772.436-.491 1.054-.736 1.856-.736.71 0 1.264.218 1.665.654zm36.957-.872c-1.42-1.018-3.456-1.526-6.114-1.526-.765 0-1.611.036-2.539.108-.909.055-1.737.173-2.483.355v18.619h2.647v-7.006h2.101c1.329 0 2.523-.108 3.577-.326 1.055-.22 1.948-.564 2.675-1.036a4.801 4.801 0 001.692-1.882c.401-.781.601-1.718.601-2.808 0-1.999-.718-3.498-2.157-4.498zm-8.489.872c.6-.054 1.465-.081 2.593-.081.71 0 1.384.054 2.021.163.637.109 1.192.309 1.665.6.491.273.873.645 1.146 1.118.291.472.436 1.072.436 1.799 0 .763-.136 1.39-.409 1.881a3.03 3.03 0 01-1.173 1.172c-.492.273-1.101.473-1.829.6-.728.109-1.547.163-2.457.163h-1.993v-7.415zm25.125 10.224c-.437-.6-.802-1.082-1.092-1.445 1.292-.436 2.266-1.1 2.921-1.991.672-.89 1.01-1.962 1.01-3.216 0-1.981-.701-3.471-2.102-4.471-1.383-1-3.403-1.499-6.059-1.499-.765 0-1.611.036-2.54.108-.91.055-1.738.173-2.484.355v18.619h2.648v-7.388h3.112c.255 0 .5-.009.738-.027.344.418.726.908 1.146 1.472a32.62 32.62 0 011.311 1.827c.436.636.863 1.308 1.282 2.017.437.709.836 1.409 1.202 2.099h2.893a21.459 21.459 0 00-1.201-2.262 43.625 43.625 0 00-1.393-2.236 27.93 27.93 0 00-1.392-1.962zm-7.698-10.224c.601-.054 1.464-.081 2.594-.081.709 0 1.373.054 1.992.163.637.109 1.182.3 1.638.572.473.273.846.646 1.12 1.118.272.473.409 1.064.409 1.772 0 .764-.137 1.381-.409 1.854a2.797 2.797 0 01-1.174 1.064c-.491.254-1.102.427-1.829.517-.729.091-1.548.137-2.457.137h-1.884v-7.116zm14.99 2.945c-.473 1.235-.71 2.662-.71 4.279 0 1.618.237 3.045.71 4.281.491 1.236 1.146 2.272 1.965 3.108a8.41 8.41 0 002.894 1.853 9.909 9.909 0 003.521.627c1.22 0 2.366-.209 3.44-.627a8.133 8.133 0 002.866-1.853c.819-.836 1.465-1.872 1.938-3.108.491-1.236.737-2.663.737-4.281 0-1.617-.246-3.044-.737-4.279-.473-1.236-1.119-2.263-1.938-3.081a7.949 7.949 0 00-2.866-1.881 9.397 9.397 0 00-3.44-.626 9.908 9.908 0 00-3.521.626 8.214 8.214 0 00-2.894 1.881c-.819.818-1.474 1.845-1.965 3.081zm2.511 7.414c-.289-.944-.436-1.989-.436-3.135 0-1.144.147-2.18.436-3.107.292-.945.702-1.745 1.229-2.399a5.461 5.461 0 011.965-1.5c.784-.363 1.657-.544 2.621-.544.965 0 1.829.181 2.593.544a5.214 5.214 0 011.938 1.5c.546.654.966 1.454 1.256 2.399.292.927.436 1.963.436 3.107 0 1.146-.144 2.191-.436 3.135-.29.928-.71 1.718-1.256 2.373a5.475 5.475 0 01-1.938 1.526c-.764.345-1.628.518-2.593.518-.964 0-1.837-.173-2.621-.518a5.744 5.744 0 01-1.965-1.526c-.527-.655-.937-1.445-1.229-2.373zm33.803-2.971h-2.648v7.034c-.235.072-.628.154-1.174.245a14.47 14.47 0 01-1.938.109c-1.073 0-2.01-.182-2.812-.545a5.695 5.695 0 01-1.992-1.527c-.527-.673-.928-1.472-1.201-2.399-.255-.926-.382-1.953-.382-3.081 0-1.162.155-2.207.464-3.134.31-.946.737-1.745 1.282-2.4a5.683 5.683 0 012.021-1.499c.801-.345 1.684-.517 2.648-.517.91 0 1.802.117 2.675.353.873.219 1.574.501 2.102.846l.846-2.208a5.356 5.356 0 00-.628-.328 7.671 7.671 0 00-1.147-.436 13.182 13.182 0 00-1.719-.382 14.06 14.06 0 00-2.266-.162 9.623 9.623 0 00-3.549.654 8.26 8.26 0 00-2.866 1.908c-.819.836-1.474 1.872-1.965 3.107-.473 1.218-.71 2.618-.71 4.198 0 1.582.21 2.982.627 4.199.438 1.217 1.049 2.244 1.83 3.08a7.714 7.714 0 002.812 1.909c1.091.436 2.303.654 3.63.654.655 0 1.301-.036 1.938-.109.638-.055 1.22-.127 1.747-.218a25.15 25.15 0 001.42-.273c.419-.09.737-.172.955-.245v-8.833zm15.31 2.836c-.436-.6-.8-1.082-1.091-1.445 1.292-.436 2.265-1.1 2.92-1.991.674-.89 1.01-1.962 1.01-3.216 0-1.981-.699-3.471-2.101-4.471-1.383-1-3.403-1.499-6.061-1.499-.764 0-1.61.036-2.538.108-.91.055-1.737.173-2.485.355v18.619h2.649v-7.388h3.111c.256 0 .501-.009.737-.027.347.418.729.908 1.147 1.472.436.564.873 1.173 1.31 1.827.436.636.865 1.308 1.284 2.017.436.709.837 1.409 1.2 2.099h2.893a20.74 20.74 0 00-1.201-2.262 41.619 41.619 0 00-1.391-2.236 27.283 27.283 0 00-1.393-1.962zm-7.697-10.224c.6-.054 1.465-.081 2.592-.081.711 0 1.376.054 1.993.163.638.109 1.185.3 1.638.572.474.273.846.646 1.119 1.118.274.473.41 1.064.41 1.772 0 .764-.136 1.381-.41 1.854a2.777 2.777 0 01-1.173 1.064c-.492.254-1.101.427-1.829.517-.728.091-1.546.137-2.457.137h-1.883v-7.116zm27.877 14.285c.273.782.564 1.581.873 2.399h2.893a530.228 530.228 0 00-2.047-5.534 180.482 180.482 0 00-1.883-4.852c-.6-1.527-1.201-2.981-1.801-4.362a107.106 107.106 0 00-1.884-4.143h-2.43a108.624 108.624 0 00-1.883 4.143 191.45 191.45 0 00-1.829 4.362 286.287 286.287 0 00-1.856 4.852 578.6 578.6 0 00-2.048 5.534h2.757l1.72-4.825h8.571c.292.818.574 1.627.847 2.426zm-3.358-9.187a206.137 206.137 0 011.747 4.58h-7.043a215.6 215.6 0 011.693-4.58 73.209 73.209 0 011.828-4.28 71.295 71.295 0 011.775 4.28zm18.264 7.306c.31.673.556 1.227.736 1.663h2.13c.12-.286.263-.623.429-1.011l.281-.652c.311-.672.638-1.399.983-2.18.346-.782.709-1.582 1.091-2.4.402-.836.775-1.617 1.119-2.344.347-.745.666-1.409.956-1.99a42.08 42.08 0 01.737-1.336c.202 2.144.366 4.471.491 6.978.128 2.49.238 5.008.328 7.552h2.593a351.722 351.722 0 00-1.392-18.891h-2.321a44.496 44.496 0 00-1.582 2.834 104.318 104.318 0 00-1.693 3.435 135.432 135.432 0 00-1.638 3.571l-.953 2.136-.494 1.109c-.437-.982-.918-2.063-1.446-3.245a123.605 123.605 0 00-1.638-3.571 98.653 98.653 0 00-1.693-3.435 43.502 43.502 0 00-1.583-2.834h-2.32a183.41 183.41 0 00-.465 4.334c-.125 1.526-.253 3.099-.381 4.716-.11 1.599-.208 3.235-.301 4.907-.09 1.654-.172 3.299-.245 4.934h2.593c.092-2.544.201-5.062.328-7.552.127-2.507.291-4.834.491-6.978.183.309.42.754.71 1.336.31.581.638 1.245.983 1.99.346.727.709 1.508 1.091 2.344a64.12 64.12 0 011.119 2.4c.346.781.666 1.508.956 2.18zm24.598 0c.309.673.555 1.227.737 1.663h2.13c.182-.436.417-.99.709-1.663.309-.672.637-1.399.983-2.18.346-.782.709-1.582 1.091-2.4.402-.836.773-1.617 1.12-2.344.346-.745.663-1.409.955-1.99a35.25 35.25 0 01.737-1.336c.2 2.144.364 4.471.491 6.978.128 2.49.238 5.008.328 7.552h2.593a351.722 351.722 0 00-1.392-18.891h-2.32a44.466 44.466 0 00-1.583 2.834 102.358 102.358 0 00-1.693 3.435 123.578 123.578 0 00-1.637 3.571l-.365.819-1.082 2.426-.168-.378-1.279-2.867a123.605 123.605 0 00-1.638-3.571 102.384 102.384 0 00-1.692-3.435 44.932 44.932 0 00-1.584-2.834h-2.32a178.45 178.45 0 00-.464 4.334c-.128 1.526-.254 3.099-.382 4.716a359.05 359.05 0 00-.301 4.907c-.09 1.654-.172 3.299-.245 4.934h2.594c.089-2.544.199-5.062.327-7.552.127-2.507.291-4.834.491-6.978.183.309.418.754.71 1.336.309.581.636 1.245.983 1.99.346.727.709 1.508 1.092 2.344.4.818.772 1.618 1.118 2.4.346.781.664 1.508.956 2.18zm19.492-14.611h-2.648v18.891h2.648v-18.891zm17.076 16.629c.529.836.993 1.59 1.392 2.262h2.212v-18.891h-2.594v13.984a63.717 63.717 0 00-2.156-3.299 86.798 86.798 0 00-2.702-3.762 88.363 88.363 0 00-2.894-3.734 48.7 48.7 0 00-2.73-3.189h-2.102v18.891h2.593v-14.748a48.897 48.897 0 011.666 2.017c.6.763 1.219 1.581 1.856 2.454a81.088 81.088 0 011.91 2.671c.655.928 1.283 1.845 1.884 2.753.6.892 1.157 1.755 1.665 2.591zm23.3-7.034h-2.648v7.034c-.237.072-.628.154-1.174.245a14.46 14.46 0 01-1.938.109c-1.073 0-2.011-.182-2.812-.545a5.66 5.66 0 01-1.992-1.527c-.527-.673-.928-1.472-1.201-2.399-.255-.926-.382-1.953-.382-3.081 0-1.162.155-2.207.463-3.134.309-.946.738-1.745 1.284-2.4a5.667 5.667 0 012.019-1.499c.801-.345 1.685-.517 2.648-.517.91 0 1.802.117 2.676.353.873.219 1.574.501 2.101.846l.847-2.208a5.533 5.533 0 00-.628-.328 7.873 7.873 0 00-1.146-.436 13.257 13.257 0 00-1.721-.382 14.052 14.052 0 00-2.264-.162 9.625 9.625 0 00-3.55.654 8.247 8.247 0 00-2.865 1.908c-.819.836-1.475 1.872-1.966 3.107-.473 1.218-.71 2.618-.71 4.198 0 1.582.21 2.982.628 4.199.437 1.217 1.046 2.244 1.829 3.08a7.719 7.719 0 002.811 1.909c1.092.436 2.302.654 3.631.654.655 0 1.301-.036 1.938-.109a20.96 20.96 0 001.747-.218 25.1 25.1 0 001.419-.273c.419-.09.738-.172.956-.245v-8.833z" fill="url(#paint0_linear_459_7160)"/><path d="M233.545 58.696L257.034.876l92.602 218.179-22.586-11.895-69.715-167.135-7.98 18.67 57.217 136.419-21.231-11.594-51.796-124.824zm15.81 76.641l-23.489-57.82-60.229 143.947 21.491-12.648 38.437-92.15 7.98 18.671-25.446 61.283 21.833-13.1 19.423-48.183zM43.922 295.253a627.54 627.54 0 015.01 13.98h-7.137a1349.375 1349.375 0 00-7.205-20.902c-2.379-6.669-4.826-12.906-7.342-18.708-2.516 5.848-4.964 12.107-7.343 18.777a1715.528 1715.528 0 00-7.273 20.833H5.289a466.239 466.239 0 014.941-13.98 899.76 899.76 0 014.666-12.129 1288.76 1288.76 0 014.529-11.034 707.14 707.14 0 014.598-10.348h6.244a415.527 415.527 0 014.529 10.348c1.51 3.518 3.02 7.195 4.529 11.034 1.51 3.837 3.042 7.88 4.597 12.129zm373.067 13.979a641.752 641.752 0 00-5.008-13.98 554.132 554.132 0 00-4.598-12.129 394.926 394.926 0 00-4.529-11.034 414.047 414.047 0 00-4.529-10.348h-6.244a693.524 693.524 0 00-4.598 10.348 1287.94 1287.94 0 00-4.53 11.034 934.673 934.673 0 00-4.666 12.129 470.695 470.695 0 00-4.939 13.98h7.341a1706.49 1706.49 0 017.275-20.833c2.378-6.67 4.824-12.929 7.342-18.777 2.516 5.802 4.962 12.039 7.342 18.708 2.378 6.716 4.78 13.683 7.205 20.902h7.136zm68.49.694c2.288.959 4.986 1.439 8.097 1.439 3.11 0 5.787-.48 8.028-1.439 2.286-.96 4.163-2.262 5.627-3.907 1.51-1.69 2.606-3.677 3.295-5.962.731-2.284 1.096-4.751 1.096-7.401v-29.81h-6.655v29.056c0 2.376-.275 4.432-.824 6.167-.549 1.691-1.326 3.085-2.332 4.181a9.545 9.545 0 01-3.637 2.467c-1.373.502-2.905.755-4.598.755-3.386 0-6.13-1.075-8.234-3.222-2.106-2.147-3.156-5.596-3.156-10.348v-29.056h-6.658v29.81c0 2.65.343 5.117 1.03 7.401.733 2.285 1.83 4.272 3.294 5.962 1.463 1.645 3.34 2.947 5.627 3.907zm-349.035-5.346v5.757h-28.615v-47.491h6.657v41.734h21.958zm87.328 5.757v-5.757h-21.957v-41.734h-6.657v47.491h28.614zm71.563.408c-.96 0-2.013-.024-3.156-.069a79.957 79.957 0 01-6.657-.548 25.584 25.584 0 01-3.017-.548v-46.052c.913-.228 1.92-.411 3.017-.549a81.734 81.734 0 013.295-.342 85.843 85.843 0 016.45-.275c2.746 0 5.306.206 7.685.617 2.424.411 4.507 1.12 6.243 2.125 1.785.959 3.181 2.239 4.188 3.838 1.006 1.598 1.509 3.563 1.509 5.893 0 2.604-.618 4.751-1.852 6.442-1.236 1.645-2.882 2.878-4.941 3.701 2.791.822 5.009 2.124 6.655 3.906 1.648 1.781 2.47 4.294 2.47 7.537 0 4.752-1.761 8.339-5.283 10.761-3.477 2.375-9.012 3.563-16.606 3.563zm-6.244-22.547v16.722c.504.045 1.097.091 1.785.136.594.047 1.281.092 2.058.138h2.813c1.967 0 3.82-.114 5.559-.342 1.783-.275 3.34-.732 4.665-1.371 1.326-.64 2.38-1.531 3.156-2.673.824-1.142 1.235-2.581 1.235-4.317 0-1.554-.296-2.856-.892-3.907-.594-1.096-1.462-1.964-2.607-2.604-1.098-.639-2.423-1.096-3.98-1.371-1.555-.273-3.293-.411-5.215-.411h-8.577zm0-5.345h6.999a30.18 30.18 0 004.666-.343c1.463-.228 2.723-.639 3.773-1.233 1.099-.594 1.946-1.371 2.541-2.33.639-.959.96-2.17.96-3.632 0-1.37-.321-2.513-.96-3.426-.641-.96-1.532-1.713-2.677-2.262-1.097-.594-2.402-1.028-3.912-1.302a26.869 26.869 0 00-4.803-.411c-1.692 0-3.019.023-3.98.068-.961.046-1.831.115-2.607.206v14.665zM6.373 345.748c0-1.209.885-1.814 2.655-1.814.792 0 1.462.093 2.01.279.546.186.954.355 1.222.506l.506-1.395a9.294 9.294 0 00-.524-.262 9.496 9.496 0 00-.82-.28 10.56 10.56 0 00-1.066-.209 7.965 7.965 0 00-1.328-.104c-1.409 0-2.497.284-3.266.855-.78.569-1.17 1.383-1.17 2.441 0 .57.087 1.053.262 1.448.174.407.425.756.75 1.047a4.46 4.46 0 001.136.75c.431.21.908.419 1.432.628.373.139.717.279 1.031.419.303.139.57.29.804.453.232.175.413.373.541.594.128.221.192.494.192.82 0 .29-.058.54-.175.749a1.616 1.616 0 01-.506.541 2.35 2.35 0 01-.734.314c-.28.07-.582.105-.908.105-.64 0-1.2-.076-1.677-.227-.489-.14-.856-.285-1.1-.436l-.542 1.378c.28.186.722.355 1.328.506a7.564 7.564 0 001.991.244c1.27 0 2.265-.297 2.987-.889.722-.593 1.083-1.419 1.083-2.477 0-.513-.082-.949-.245-1.309a3.107 3.107 0 00-.698-.942 4.8 4.8 0 00-1.031-.68 12.29 12.29 0 00-1.258-.506 25.318 25.318 0 01-1.083-.419 4.096 4.096 0 01-.925-.506 2.051 2.051 0 01-.629-.68c-.163-.255-.245-.57-.245-.942zm66.617 3.392c0-1.035.152-1.949.454-2.739.315-.791.734-1.448 1.258-1.971a5.257 5.257 0 011.851-1.204 6.35 6.35 0 012.254-.401c.78 0 1.513.134 2.2.401a5.09 5.09 0 011.834 1.204c.524.523.938 1.18 1.24 1.971.315.79.472 1.704.472 2.739 0 1.034-.157 1.948-.471 2.739-.303.79-.717 1.453-1.24 1.988a5.193 5.193 0 01-1.835 1.186 6.003 6.003 0 01-2.2.402 6.329 6.329 0 01-2.254-.402 5.366 5.366 0 01-1.851-1.186c-.524-.535-.943-1.198-1.258-1.988-.302-.791-.454-1.705-.454-2.739zm1.782 0c0 .732.093 1.401.28 2.006.185.593.448 1.098.785 1.517.35.419.769.745 1.258.977.5.221 1.06.332 1.677.332s1.17-.111 1.659-.332a3.498 3.498 0 001.24-.977c.35-.419.617-.924.804-1.517.186-.605.28-1.274.28-2.006 0-.733-.094-1.396-.28-1.989-.187-.605-.454-1.116-.804-1.535a3.346 3.346 0 00-1.24-.96c-.489-.232-1.042-.348-1.66-.348-.616 0-1.175.116-1.676.348a3.503 3.503 0 00-1.258.96c-.337.419-.6.93-.786 1.535a6.626 6.626 0 00-.28 1.989zm71.079-6.036v12.088h1.694v-5.564h4.978v-1.431h-4.978v-3.645h5.607v-1.448h-7.301zm80.436 0v1.465h-3.808v10.623h-1.693v-10.623h-3.808v-1.465h9.309zm69.421 8.216c.5-1.326.996-2.768 1.484-4.327.49 1.559.979 3.001 1.467 4.327.49 1.325.99 2.617 1.503 3.872h1.694a60.262 60.262 0 001.607-5.634c.478-1.977.925-4.129 1.345-6.454h-1.729c-.164.906-.333 1.82-.507 2.738-.175.907-.356 1.792-.542 2.652a80.616 80.616 0 01-.54 2.442 49.046 49.046 0 01-.561 2.145c-.465-1.22-.966-2.558-1.501-4.012a71.675 71.675 0 01-1.484-4.535h-1.468a78.747 78.747 0 01-1.467 4.535 234.728 234.728 0 01-1.486 4.012 40 40 0 01-.576-2.163c-.184-.779-.372-1.592-.558-2.441-.186-.862-.367-1.745-.543-2.652a219.78 219.78 0 01-.505-2.721h-1.783c.409 2.325.846 4.477 1.311 6.454a60.49 60.49 0 001.643 5.634h1.694c.5-1.255 1.002-2.547 1.502-3.872zm77.458 4.131a68.713 68.713 0 01-.6-1.65c-.187-.549-.382-1.105-.582-1.668h-5.892l-1.183 3.318h-1.895a364.439 364.439 0 012.683-7.141c.426-1.05.845-2.05 1.258-2.999.413-.962.845-1.911 1.295-2.849h1.67c.45.938.882 1.887 1.295 2.849.413.949.826 1.949 1.239 2.999.425 1.049.856 2.161 1.295 3.336.438 1.163.907 2.431 1.407 3.805h-1.99zm-1.707-4.817c-.401-1.087-.8-2.137-1.201-3.149a49.808 49.808 0 00-1.22-2.942 49.078 49.078 0 00-1.257 2.942 139.423 139.423 0 00-1.164 3.149h4.842zm70.459.418a27.734 27.734 0 00-.697-.924c.827-.279 1.45-.703 1.867-1.274.432-.57.647-1.255.647-2.058 0-1.268-.448-2.221-1.344-2.86-.885-.64-2.177-.96-3.878-.96-.489 0-1.031.023-1.624.069a9.13 9.13 0 00-1.59.227v11.914h1.694v-4.726h1.99c.164 0 .321-.006.473-.019a22.281 22.281 0 01.734.943c.28.361.558.75.838 1.169.28.406.552.836.821 1.291.28.453.535.901.769 1.342h1.851a14 14 0 00-.768-1.448 27.851 27.851 0 00-.892-1.43 17.296 17.296 0 00-.891-1.256zm-4.925-6.541c.384-.035.937-.053 1.661-.053.453 0 .878.035 1.273.106.408.069.758.191 1.048.365.303.175.543.413.717.716.175.302.263.68.263 1.134 0 .488-.088.883-.263 1.186-.174.29-.426.517-.752.68-.314.163-.704.273-1.17.332-.466.058-.989.087-1.571.087h-1.206v-4.553zm68.183 10.681v-12.088h7.388v1.448h-5.694v3.593h5.065v1.413h-5.065v4.187h6.131v1.447h-7.825zM18.704 426.316c.273.782.564 1.581.873 2.399h2.894a532.157 532.157 0 00-2.048-5.534 184.214 184.214 0 00-1.883-4.852 130.97 130.97 0 00-1.802-4.362 105.6 105.6 0 00-1.883-4.143h-2.43a106.199 106.199 0 00-1.883 4.143c-.6 1.381-1.21 2.835-1.83 4.362-.6 1.526-1.219 3.144-1.855 4.852a529.66 529.66 0 00-2.048 5.534h2.757l1.72-4.825h8.571c.291.818.573 1.627.847 2.426zm-3.358-9.187a205.643 205.643 0 011.747 4.58H10.05a210.289 210.289 0 011.693-4.58 72.132 72.132 0 011.829-4.28 72.293 72.293 0 011.774 4.28zm21.895 11.586v-2.289h-8.735v-16.602h-2.648v18.891H37.24zm14.974 0v-2.289H43.48v-16.602h-2.648v18.891h11.383zm14.728-17.556c-1.42-1.018-3.457-1.526-6.114-1.526-.765 0-1.611.036-2.54.108-.909.055-1.737.173-2.483.355v18.619h2.648v-7.006h2.102c1.328 0 2.52-.108 3.576-.326 1.055-.22 1.947-.564 2.675-1.036a4.81 4.81 0 001.692-1.882c.4-.781.6-1.718.6-2.808 0-1.999-.718-3.498-2.156-4.498zm-8.49.872c.601-.054 1.466-.081 2.594-.081.71 0 1.383.054 2.02.163.637.109 1.192.309 1.665.6a2.95 2.95 0 011.147 1.118c.29.472.436 1.072.436 1.799 0 .763-.136 1.39-.41 1.881-.272.49-.663.881-1.173 1.172-.491.273-1.1.473-1.829.6a16.7 16.7 0 01-2.457.163h-1.992v-7.415zm26.162 16.684v-2.289H75.88v-16.602h-2.648v18.891h11.383zm16.13-2.399c.273.782.564 1.581.873 2.399h2.894a529.054 529.054 0 00-2.048-5.534 183.91 183.91 0 00-1.883-4.852 133.37 133.37 0 00-1.802-4.362 106.05 106.05 0 00-1.883-4.143h-2.43a106.2 106.2 0 00-1.883 4.143c-.6 1.381-1.21 2.835-1.83 4.362a288.81 288.81 0 00-1.855 4.852c-.637 1.69-1.32 3.535-2.048 5.534h2.757l1.72-4.825h8.571c.292.818.574 1.627.847 2.426zm-3.358-9.187a206.634 206.634 0 011.747 4.58h-7.043a210.812 210.812 0 011.693-4.58 72.132 72.132 0 011.829-4.28 72.158 72.158 0 011.774 4.28zm22.086 9.324c.528.836.992 1.59 1.392 2.262h2.212v-18.891h-2.594v13.984a65.761 65.761 0 00-2.156-3.299 88.587 88.587 0 00-2.703-3.762 88.349 88.349 0 00-2.893-3.734 49.314 49.314 0 00-2.731-3.189h-2.101v18.891h2.593v-14.748a49.76 49.76 0 011.665 2.017 83.75 83.75 0 011.857 2.454 85.811 85.811 0 011.91 2.671c.655.928 1.283 1.845 1.884 2.753.6.892 1.156 1.755 1.665 2.591zm34.515-15.294c-1.419-1.018-3.457-1.526-6.114-1.526-.765 0-1.611.036-2.539.108-.91.055-1.738.173-2.484.355v18.619h2.648v-7.006h2.101c1.329 0 2.522-.108 3.577-.326 1.055-.22 1.947-.564 2.675-1.036a4.819 4.819 0 001.693-1.882c.4-.781.6-1.718.6-2.808 0-1.999-.719-3.498-2.157-4.498zm-8.489.872c.6-.054 1.465-.081 2.593-.081.71 0 1.383.054 2.021.163.636.109 1.191.309 1.664.6.492.273.874.645 1.147 1.118.29.472.436 1.072.436 1.799 0 .763-.136 1.39-.409 1.881-.273.49-.664.881-1.174 1.172-.491.273-1.101.473-1.828.6-.729.109-1.548.163-2.457.163h-1.993v-7.415zm26.161 16.684v-2.289h-8.735v-16.602h-2.648v18.891h11.383zm6.933-.163c.91.381 1.983.572 3.222.572 1.236 0 2.302-.191 3.193-.572.91-.382 1.655-.9 2.239-1.554a6.203 6.203 0 001.311-2.372 9.63 9.63 0 00.436-2.944v-11.858h-2.648v11.559c0 .944-.109 1.762-.328 2.452-.218.673-.528 1.227-.927 1.663a3.812 3.812 0 01-1.447.982c-.546.2-1.157.3-1.829.3-1.348 0-2.44-.428-3.276-1.282-.837-.854-1.256-2.226-1.256-4.115v-11.559h-2.648v11.858c0 1.054.137 2.036.41 2.944a6.674 6.674 0 001.311 2.372c.581.654 1.327 1.172 2.237 1.554zm29.985-9.133h-2.648v7.034c-.235.072-.628.154-1.173.245-.527.073-1.174.109-1.939.109-1.072 0-2.009-.182-2.811-.545a5.68 5.68 0 01-1.993-1.527c-.527-.673-.928-1.472-1.201-2.399-.254-.926-.383-1.953-.383-3.081 0-1.162.156-2.207.465-3.134.31-.946.737-1.745 1.283-2.4a5.679 5.679 0 012.02-1.499c.802-.345 1.684-.517 2.647-.517.912 0 1.802.117 2.676.353.873.219 1.574.501 2.101.846l.847-2.208a5.356 5.356 0 00-.628-.328 7.696 7.696 0 00-1.146-.436 13.276 13.276 0 00-1.72-.382 14.056 14.056 0 00-2.265-.162 9.62 9.62 0 00-3.549.654 8.242 8.242 0 00-2.866 1.908c-.819.836-1.474 1.872-1.966 3.107-.472 1.218-.71 2.618-.71 4.198 0 1.582.21 2.982.628 4.199.437 1.217 1.048 2.244 1.829 3.08a7.719 7.719 0 002.811 1.909c1.093.436 2.303.654 3.631.654.655 0 1.302-.036 1.938-.109a20.88 20.88 0 001.748-.218c.545-.091 1.02-.182 1.418-.273.421-.09.738-.172.956-.245v-8.833zm7.612-9.595h-2.647v18.891h2.647v-18.891zm17.077 16.629c.529.836.993 1.59 1.392 2.262h2.211v-18.891h-2.593v13.984a63.798 63.798 0 00-2.157-3.299 85.951 85.951 0 00-2.702-3.762 86.736 86.736 0 00-2.894-3.734 48.7 48.7 0 00-2.73-3.189h-2.101v18.891h2.593v-14.748a48.897 48.897 0 011.666 2.017c.6.763 1.219 1.581 1.856 2.454a82.604 82.604 0 011.91 2.671c.655.928 1.283 1.845 1.884 2.753.6.892 1.157 1.755 1.665 2.591zm17.649-2.454c0 1.89-1.383 2.835-4.149 2.835-1.237 0-2.284-.145-3.139-.436-.854-.291-1.493-.554-1.911-.79l-.792 2.18c.2.109.473.246.819.409.364.146.792.291 1.283.437.492.127 1.046.236 1.665.327.637.109 1.329.163 2.075.163 2.202 0 3.903-.445 5.105-1.336 1.219-.89 1.829-2.162 1.829-3.816 0-.89-.137-1.645-.41-2.263a4.581 4.581 0 00-1.174-1.636 6.973 6.973 0 00-1.774-1.171 33.6 33.6 0 00-2.238-.982 29.086 29.086 0 01-1.611-.654 8.167 8.167 0 01-1.256-.709 3.136 3.136 0 01-.846-.927c-.2-.345-.3-.772-.3-1.281 0-.455.09-.846.273-1.172.199-.346.464-.627.791-.845a3.65 3.65 0 011.147-.492 5.9 5.9 0 011.42-.163c1.001 0 1.874.118 2.62.354.764.218 1.338.445 1.72.682l.846-2.154c-.437-.29-1.128-.554-2.075-.791-.928-.254-1.965-.38-3.111-.38-1.984 0-3.541.463-4.669 1.389-1.128.928-1.692 2.218-1.692 3.871 0 .8.128 1.482.382 2.045a4.846 4.846 0 001.092 1.472c.456.4.992.755 1.611 1.063a18.91 18.91 0 001.966.791c.599.218 1.165.436 1.692.654a6.442 6.442 0 011.447.791c.417.29.745.645.982 1.063.254.4.382.89.382 1.472zm20.313-2.18c-.218.544-.328 1.171-.328 1.881 0 .562.099 1.153.301 1.771a4.723 4.723 0 001.009 1.718c.492.509 1.128.936 1.912 1.281.78.327 1.763.491 2.948.491 1.272 0 2.401-.228 3.384-.682a9.423 9.423 0 002.594-1.826c.344.381.672.763.982 1.145.328.381.6.754.819 1.117h2.675a13.09 13.09 0 00-1.337-1.963 34.572 34.572 0 00-1.748-2.044c.547-.873.964-1.745 1.256-2.617.309-.89.5-1.708.573-2.454l-2.101-.272c-.183 1.399-.584 2.672-1.202 3.816l-4.422-4.498c.509-.273.991-.581 1.447-.927a7.275 7.275 0 001.202-1.145c.363-.417.644-.881.846-1.39.218-.509.327-1.082.327-1.718 0-.563-.101-1.099-.3-1.608a3.477 3.477 0 00-.901-1.309c-.382-.363-.865-.654-1.446-.872-.566-.218-1.212-.326-1.939-.326-.709 0-1.364.108-1.965.326a4.656 4.656 0 00-1.529.927c-.42.4-.756.891-1.009 1.472-.238.581-.356 1.236-.356 1.963 0 1.436.672 2.826 2.021 4.171-.53.255-1.038.554-1.53.9a6.179 6.179 0 00-1.31 1.171 5.299 5.299 0 00-.873 1.501zm2.402 2.889a3.353 3.353 0 01-.191-1.064c0-.58.082-1.09.246-1.526.18-.436.408-.809.682-1.117.273-.328.574-.6.901-.818a11.65 11.65 0 011.01-.573l5.323 5.371a6.207 6.207 0 01-2.02 1.39 6.067 6.067 0 01-2.457.491c-.692 0-1.275-.101-1.747-.3a3.752 3.752 0 01-1.12-.791 3.025 3.025 0 01-.627-1.063zm5.814-12.677c.418.418.628.936.628 1.554 0 .473-.082.9-.246 1.282a3.495 3.495 0 01-.628 1.008 4.06 4.06 0 01-.927.818 9.792 9.792 0 01-1.12.654c-1.238-1.126-1.856-2.281-1.856-3.462 0-.708.208-1.299.628-1.772.436-.491 1.054-.736 1.856-.736.71 0 1.264.218 1.665.654zm36.957-.872c-1.42-1.018-3.456-1.526-6.114-1.526-.765 0-1.611.036-2.539.108-.909.055-1.737.173-2.483.355v18.619h2.647v-7.006h2.101c1.329 0 2.523-.108 3.577-.326 1.055-.22 1.948-.564 2.675-1.036a4.801 4.801 0 001.692-1.882c.401-.781.601-1.718.601-2.808 0-1.999-.718-3.498-2.157-4.498zm-8.489.872c.6-.054 1.465-.081 2.593-.081.71 0 1.384.054 2.021.163.637.109 1.192.309 1.665.6.491.273.873.645 1.146 1.118.291.472.436 1.072.436 1.799 0 .763-.136 1.39-.409 1.881a3.03 3.03 0 01-1.173 1.172c-.492.273-1.101.473-1.829.6-.728.109-1.547.163-2.457.163h-1.993v-7.415zm25.125 10.224c-.437-.6-.802-1.082-1.092-1.445 1.292-.436 2.266-1.1 2.921-1.991.672-.89 1.01-1.962 1.01-3.216 0-1.981-.701-3.471-2.102-4.471-1.383-1-3.403-1.499-6.059-1.499-.765 0-1.611.036-2.54.108-.91.055-1.738.173-2.484.355v18.619h2.648v-7.388h3.112c.255 0 .5-.009.738-.027.344.418.726.908 1.146 1.472a32.62 32.62 0 011.311 1.827c.436.636.863 1.308 1.282 2.017.437.709.836 1.409 1.202 2.099h2.893a21.459 21.459 0 00-1.201-2.262 43.625 43.625 0 00-1.393-2.236 27.93 27.93 0 00-1.392-1.962zm-7.698-10.224c.601-.054 1.464-.081 2.594-.081.709 0 1.373.054 1.992.163.637.109 1.182.3 1.638.572.473.273.846.646 1.12 1.118.272.473.409 1.064.409 1.772 0 .764-.137 1.381-.409 1.854a2.797 2.797 0 01-1.174 1.064c-.491.254-1.102.427-1.829.517-.729.091-1.548.137-2.457.137h-1.884v-7.116zm14.99 2.945c-.473 1.235-.71 2.662-.71 4.279 0 1.618.237 3.045.71 4.281.491 1.236 1.146 2.272 1.965 3.108a8.41 8.41 0 002.894 1.853 9.909 9.909 0 003.521.627c1.22 0 2.366-.209 3.44-.627a8.133 8.133 0 002.866-1.853c.819-.836 1.465-1.872 1.938-3.108.491-1.236.737-2.663.737-4.281 0-1.617-.246-3.044-.737-4.279-.473-1.236-1.119-2.263-1.938-3.081a7.949 7.949 0 00-2.866-1.881 9.397 9.397 0 00-3.44-.626 9.908 9.908 0 00-3.521.626 8.214 8.214 0 00-2.894 1.881c-.819.818-1.474 1.845-1.965 3.081zm2.511 7.414c-.289-.944-.436-1.989-.436-3.135 0-1.144.147-2.18.436-3.107.292-.945.702-1.745 1.229-2.399a5.461 5.461 0 011.965-1.5c.784-.363 1.657-.544 2.621-.544.965 0 1.829.181 2.593.544a5.214 5.214 0 011.938 1.5c.546.654.966 1.454 1.256 2.399.292.927.436 1.963.436 3.107 0 1.146-.144 2.191-.436 3.135-.29.928-.71 1.718-1.256 2.373a5.475 5.475 0 01-1.938 1.526c-.764.345-1.628.518-2.593.518-.964 0-1.837-.173-2.621-.518a5.744 5.744 0 01-1.965-1.526c-.527-.655-.937-1.445-1.229-2.373zm33.803-2.971h-2.648v7.034c-.235.072-.628.154-1.174.245a14.47 14.47 0 01-1.938.109c-1.073 0-2.01-.182-2.812-.545a5.695 5.695 0 01-1.992-1.527c-.527-.673-.928-1.472-1.201-2.399-.255-.926-.382-1.953-.382-3.081 0-1.162.155-2.207.464-3.134.31-.946.737-1.745 1.282-2.4a5.683 5.683 0 012.021-1.499c.801-.345 1.684-.517 2.648-.517.91 0 1.802.117 2.675.353.873.219 1.574.501 2.102.846l.846-2.208a5.356 5.356 0 00-.628-.328 7.671 7.671 0 00-1.147-.436 13.182 13.182 0 00-1.719-.382 14.06 14.06 0 00-2.266-.162 9.623 9.623 0 00-3.549.654 8.26 8.26 0 00-2.866 1.908c-.819.836-1.474 1.872-1.965 3.107-.473 1.218-.71 2.618-.71 4.198 0 1.582.21 2.982.627 4.199.438 1.217 1.049 2.244 1.83 3.08a7.714 7.714 0 002.812 1.909c1.091.436 2.303.654 3.63.654.655 0 1.301-.036 1.938-.109.638-.055 1.22-.127 1.747-.218a25.15 25.15 0 001.42-.273c.419-.09.737-.172.955-.245v-8.833zm15.31 2.836c-.436-.6-.8-1.082-1.091-1.445 1.292-.436 2.265-1.1 2.92-1.991.674-.89 1.01-1.962 1.01-3.216 0-1.981-.699-3.471-2.101-4.471-1.383-1-3.403-1.499-6.061-1.499-.764 0-1.61.036-2.538.108-.91.055-1.737.173-2.485.355v18.619h2.649v-7.388h3.111c.256 0 .501-.009.737-.027.347.418.729.908 1.147 1.472.436.564.873 1.173 1.31 1.827.436.636.865 1.308 1.284 2.017.436.709.837 1.409 1.2 2.099h2.893a20.74 20.74 0 00-1.201-2.262 41.619 41.619 0 00-1.391-2.236 27.283 27.283 0 00-1.393-1.962zm-7.697-10.224c.6-.054 1.465-.081 2.592-.081.711 0 1.376.054 1.993.163.638.109 1.185.3 1.638.572.474.273.846.646 1.119 1.118.274.473.41 1.064.41 1.772 0 .764-.136 1.381-.41 1.854a2.777 2.777 0 01-1.173 1.064c-.492.254-1.101.427-1.829.517-.728.091-1.546.137-2.457.137h-1.883v-7.116zm27.877 14.285c.273.782.564 1.581.873 2.399h2.893a530.228 530.228 0 00-2.047-5.534 180.482 180.482 0 00-1.883-4.852c-.6-1.527-1.201-2.981-1.801-4.362a107.106 107.106 0 00-1.884-4.143h-2.43a108.624 108.624 0 00-1.883 4.143 191.45 191.45 0 00-1.829 4.362 286.287 286.287 0 00-1.856 4.852 578.6 578.6 0 00-2.048 5.534h2.757l1.72-4.825h8.571c.292.818.574 1.627.847 2.426zm-3.358-9.187a206.137 206.137 0 011.747 4.58h-7.043a215.6 215.6 0 011.693-4.58 73.209 73.209 0 011.828-4.28 71.295 71.295 0 011.775 4.28zm18.264 7.306c.31.673.556 1.227.736 1.663h2.13c.12-.286.263-.623.429-1.011l.281-.652c.311-.672.638-1.399.983-2.18.346-.782.709-1.582 1.091-2.4.402-.836.775-1.617 1.119-2.344.347-.745.666-1.409.956-1.99a42.08 42.08 0 01.737-1.336c.202 2.144.366 4.471.491 6.978.128 2.49.238 5.008.328 7.552h2.593a351.722 351.722 0 00-1.392-18.891h-2.321a44.496 44.496 0 00-1.582 2.834 104.318 104.318 0 00-1.693 3.435 135.432 135.432 0 00-1.638 3.571l-.953 2.136-.494 1.109c-.437-.982-.918-2.063-1.446-3.245a123.605 123.605 0 00-1.638-3.571 98.653 98.653 0 00-1.693-3.435 43.502 43.502 0 00-1.583-2.834h-2.32a183.41 183.41 0 00-.465 4.334c-.125 1.526-.253 3.099-.381 4.716-.11 1.599-.208 3.235-.301 4.907-.09 1.654-.172 3.299-.245 4.934h2.593c.092-2.544.201-5.062.328-7.552.127-2.507.291-4.834.491-6.978.183.309.42.754.71 1.336.31.581.638 1.245.983 1.99.346.727.709 1.508 1.091 2.344a64.12 64.12 0 011.119 2.4c.346.781.666 1.508.956 2.18zm24.598 0c.309.673.555 1.227.737 1.663h2.13c.182-.436.417-.99.709-1.663.309-.672.637-1.399.983-2.18.346-.782.709-1.582 1.091-2.4.402-.836.773-1.617 1.12-2.344.346-.745.663-1.409.955-1.99a35.25 35.25 0 01.737-1.336c.2 2.144.364 4.471.491 6.978.128 2.49.238 5.008.328 7.552h2.593a351.722 351.722 0 00-1.392-18.891h-2.32a44.466 44.466 0 00-1.583 2.834 102.358 102.358 0 00-1.693 3.435 123.578 123.578 0 00-1.637 3.571l-.365.819-1.082 2.426-.168-.378-1.279-2.867a123.605 123.605 0 00-1.638-3.571 102.384 102.384 0 00-1.692-3.435 44.932 44.932 0 00-1.584-2.834h-2.32a178.45 178.45 0 00-.464 4.334c-.128 1.526-.254 3.099-.382 4.716a359.05 359.05 0 00-.301 4.907c-.09 1.654-.172 3.299-.245 4.934h2.594c.089-2.544.199-5.062.327-7.552.127-2.507.291-4.834.491-6.978.183.309.418.754.71 1.336.309.581.636 1.245.983 1.99.346.727.709 1.508 1.092 2.344.4.818.772 1.618 1.118 2.4.346.781.664 1.508.956 2.18zm19.492-14.611h-2.648v18.891h2.648v-18.891zm17.076 16.629c.529.836.993 1.59 1.392 2.262h2.212v-18.891h-2.594v13.984a63.717 63.717 0 00-2.156-3.299 86.798 86.798 0 00-2.702-3.762 88.363 88.363 0 00-2.894-3.734 48.7 48.7 0 00-2.73-3.189h-2.102v18.891h2.593v-14.748a48.897 48.897 0 011.666 2.017c.6.763 1.219 1.581 1.856 2.454a81.088 81.088 0 011.91 2.671c.655.928 1.283 1.845 1.884 2.753.6.892 1.157 1.755 1.665 2.591zm23.3-7.034h-2.648v7.034c-.237.072-.628.154-1.174.245a14.46 14.46 0 01-1.938.109c-1.073 0-2.011-.182-2.812-.545a5.66 5.66 0 01-1.992-1.527c-.527-.673-.928-1.472-1.201-2.399-.255-.926-.382-1.953-.382-3.081 0-1.162.155-2.207.463-3.134.309-.946.738-1.745 1.284-2.4a5.667 5.667 0 012.019-1.499c.801-.345 1.685-.517 2.648-.517.91 0 1.802.117 2.676.353.873.219 1.574.501 2.101.846l.847-2.208a5.533 5.533 0 00-.628-.328 7.873 7.873 0 00-1.146-.436 13.257 13.257 0 00-1.721-.382 14.052 14.052 0 00-2.264-.162 9.625 9.625 0 00-3.55.654 8.247 8.247 0 00-2.865 1.908c-.819.836-1.475 1.872-1.966 3.107-.473 1.218-.71 2.618-.71 4.198 0 1.582.21 2.982.628 4.199.437 1.217 1.046 2.244 1.829 3.08a7.719 7.719 0 002.811 1.909c1.092.436 2.302.654 3.631.654.655 0 1.301-.036 1.938-.109a20.96 20.96 0 001.747-.218 25.1 25.1 0 001.419-.273c.419-.09.738-.172.956-.245v-8.833z" fill="#183646"/><path d="M233.545 58.696L257.034.876l92.602 218.179-22.586-11.895-69.715-167.135-7.98 18.67 57.217 136.419-21.231-11.594-51.796-124.824zm15.81 76.641l-23.489-57.82-60.229 143.947 21.491-12.648 38.437-92.15 7.98 18.671-25.446 61.283 21.833-13.1 19.423-48.183zM43.922 295.253a627.54 627.54 0 015.01 13.98h-7.137a1349.375 1349.375 0 00-7.205-20.902c-2.379-6.669-4.826-12.906-7.342-18.708-2.516 5.848-4.964 12.107-7.343 18.777a1715.528 1715.528 0 00-7.273 20.833H5.289a466.239 466.239 0 014.941-13.98 899.76 899.76 0 014.666-12.129 1288.76 1288.76 0 014.529-11.034 707.14 707.14 0 014.598-10.348h6.244a415.527 415.527 0 014.529 10.348c1.51 3.518 3.02 7.195 4.529 11.034 1.51 3.837 3.042 7.88 4.597 12.129zm373.067 13.979a641.752 641.752 0 00-5.008-13.98 554.132 554.132 0 00-4.598-12.129 394.926 394.926 0 00-4.529-11.034 414.047 414.047 0 00-4.529-10.348h-6.244a693.524 693.524 0 00-4.598 10.348 1287.94 1287.94 0 00-4.53 11.034 934.673 934.673 0 00-4.666 12.129 470.695 470.695 0 00-4.939 13.98h7.341a1706.49 1706.49 0 017.275-20.833c2.378-6.67 4.824-12.929 7.342-18.777 2.516 5.802 4.962 12.039 7.342 18.708 2.378 6.716 4.78 13.683 7.205 20.902h7.136zm68.49.694c2.288.959 4.986 1.439 8.097 1.439 3.11 0 5.787-.48 8.028-1.439 2.286-.96 4.163-2.262 5.627-3.907 1.51-1.69 2.606-3.677 3.295-5.962.731-2.284 1.096-4.751 1.096-7.401v-29.81h-6.655v29.056c0 2.376-.275 4.432-.824 6.167-.549 1.691-1.326 3.085-2.332 4.181a9.545 9.545 0 01-3.637 2.467c-1.373.502-2.905.755-4.598.755-3.386 0-6.13-1.075-8.234-3.222-2.106-2.147-3.156-5.596-3.156-10.348v-29.056h-6.658v29.81c0 2.65.343 5.117 1.03 7.401.733 2.285 1.83 4.272 3.294 5.962 1.463 1.645 3.34 2.947 5.627 3.907zm-349.035-5.346v5.757h-28.615v-47.491h6.657v41.734h21.958zm87.328 5.757v-5.757h-21.957v-41.734h-6.657v47.491h28.614zm71.563.408c-.96 0-2.013-.024-3.156-.069a79.957 79.957 0 01-6.657-.548 25.584 25.584 0 01-3.017-.548v-46.052c.913-.228 1.92-.411 3.017-.549a81.734 81.734 0 013.295-.342 85.843 85.843 0 016.45-.275c2.746 0 5.306.206 7.685.617 2.424.411 4.507 1.12 6.243 2.125 1.785.959 3.181 2.239 4.188 3.838 1.006 1.598 1.509 3.563 1.509 5.893 0 2.604-.618 4.751-1.852 6.442-1.236 1.645-2.882 2.878-4.941 3.701 2.791.822 5.009 2.124 6.655 3.906 1.648 1.781 2.47 4.294 2.47 7.537 0 4.752-1.761 8.339-5.283 10.761-3.477 2.375-9.012 3.563-16.606 3.563zm-6.244-22.547v16.722c.504.045 1.097.091 1.785.136.594.047 1.281.092 2.058.138h2.813c1.967 0 3.82-.114 5.559-.342 1.783-.275 3.34-.732 4.665-1.371 1.326-.64 2.38-1.531 3.156-2.673.824-1.142 1.235-2.581 1.235-4.317 0-1.554-.296-2.856-.892-3.907-.594-1.096-1.462-1.964-2.607-2.604-1.098-.639-2.423-1.096-3.98-1.371-1.555-.273-3.293-.411-5.215-.411h-8.577zm0-5.345h6.999a30.18 30.18 0 004.666-.343c1.463-.228 2.723-.639 3.773-1.233 1.099-.594 1.946-1.371 2.541-2.33.639-.959.96-2.17.96-3.632 0-1.37-.321-2.513-.96-3.426-.641-.96-1.532-1.713-2.677-2.262-1.097-.594-2.402-1.028-3.912-1.302a26.869 26.869 0 00-4.803-.411c-1.692 0-3.019.023-3.98.068-.961.046-1.831.115-2.607.206v14.665zM6.373 345.748c0-1.209.885-1.814 2.655-1.814.792 0 1.462.093 2.01.279.546.186.954.355 1.222.506l.506-1.395a9.294 9.294 0 00-.524-.262 9.496 9.496 0 00-.82-.28 10.56 10.56 0 00-1.066-.209 7.965 7.965 0 00-1.328-.104c-1.409 0-2.497.284-3.266.855-.78.569-1.17 1.383-1.17 2.441 0 .57.087 1.053.262 1.448.174.407.425.756.75 1.047a4.46 4.46 0 001.136.75c.431.21.908.419 1.432.628.373.139.717.279 1.031.419.303.139.57.29.804.453.232.175.413.373.541.594.128.221.192.494.192.82 0 .29-.058.54-.175.749a1.616 1.616 0 01-.506.541 2.35 2.35 0 01-.734.314c-.28.07-.582.105-.908.105-.64 0-1.2-.076-1.677-.227-.489-.14-.856-.285-1.1-.436l-.542 1.378c.28.186.722.355 1.328.506a7.564 7.564 0 001.991.244c1.27 0 2.265-.297 2.987-.889.722-.593 1.083-1.419 1.083-2.477 0-.513-.082-.949-.245-1.309a3.107 3.107 0 00-.698-.942 4.8 4.8 0 00-1.031-.68 12.29 12.29 0 00-1.258-.506 25.318 25.318 0 01-1.083-.419 4.096 4.096 0 01-.925-.506 2.051 2.051 0 01-.629-.68c-.163-.255-.245-.57-.245-.942zm66.617 3.392c0-1.035.152-1.949.454-2.739.315-.791.734-1.448 1.258-1.971a5.257 5.257 0 011.851-1.204 6.35 6.35 0 012.254-.401c.78 0 1.513.134 2.2.401a5.09 5.09 0 011.834 1.204c.524.523.938 1.18 1.24 1.971.315.79.472 1.704.472 2.739 0 1.034-.157 1.948-.471 2.739-.303.79-.717 1.453-1.24 1.988a5.193 5.193 0 01-1.835 1.186 6.003 6.003 0 01-2.2.402 6.329 6.329 0 01-2.254-.402 5.366 5.366 0 01-1.851-1.186c-.524-.535-.943-1.198-1.258-1.988-.302-.791-.454-1.705-.454-2.739zm1.782 0c0 .732.093 1.401.28 2.006.185.593.448 1.098.785 1.517.35.419.769.745 1.258.977.5.221 1.06.332 1.677.332s1.17-.111 1.659-.332a3.498 3.498 0 001.24-.977c.35-.419.617-.924.804-1.517.186-.605.28-1.274.28-2.006 0-.733-.094-1.396-.28-1.989-.187-.605-.454-1.116-.804-1.535a3.346 3.346 0 00-1.24-.96c-.489-.232-1.042-.348-1.66-.348-.616 0-1.175.116-1.676.348a3.503 3.503 0 00-1.258.96c-.337.419-.6.93-.786 1.535a6.626 6.626 0 00-.28 1.989zm71.079-6.036v12.088h1.694v-5.564h4.978v-1.431h-4.978v-3.645h5.607v-1.448h-7.301zm80.436 0v1.465h-3.808v10.623h-1.693v-10.623h-3.808v-1.465h9.309zm69.421 8.216c.5-1.326.996-2.768 1.484-4.327.49 1.559.979 3.001 1.467 4.327.49 1.325.99 2.617 1.503 3.872h1.694a60.262 60.262 0 001.607-5.634c.478-1.977.925-4.129 1.345-6.454h-1.729c-.164.906-.333 1.82-.507 2.738-.175.907-.356 1.792-.542 2.652a80.616 80.616 0 01-.54 2.442 49.046 49.046 0 01-.561 2.145c-.465-1.22-.966-2.558-1.501-4.012a71.675 71.675 0 01-1.484-4.535h-1.468a78.747 78.747 0 01-1.467 4.535 234.728 234.728 0 01-1.486 4.012 40 40 0 01-.576-2.163c-.184-.779-.372-1.592-.558-2.441-.186-.862-.367-1.745-.543-2.652a219.78 219.78 0 01-.505-2.721h-1.783c.409 2.325.846 4.477 1.311 6.454a60.49 60.49 0 001.643 5.634h1.694c.5-1.255 1.002-2.547 1.502-3.872zm77.458 4.131a68.713 68.713 0 01-.6-1.65c-.187-.549-.382-1.105-.582-1.668h-5.892l-1.183 3.318h-1.895a364.439 364.439 0 012.683-7.141c.426-1.05.845-2.05 1.258-2.999.413-.962.845-1.911 1.295-2.849h1.67c.45.938.882 1.887 1.295 2.849.413.949.826 1.949 1.239 2.999.425 1.049.856 2.161 1.295 3.336.438 1.163.907 2.431 1.407 3.805h-1.99zm-1.707-4.817c-.401-1.087-.8-2.137-1.201-3.149a49.808 49.808 0 00-1.22-2.942 49.078 49.078 0 00-1.257 2.942 139.423 139.423 0 00-1.164 3.149h4.842zm70.459.418a27.734 27.734 0 00-.697-.924c.827-.279 1.45-.703 1.867-1.274.432-.57.647-1.255.647-2.058 0-1.268-.448-2.221-1.344-2.86-.885-.64-2.177-.96-3.878-.96-.489 0-1.031.023-1.624.069a9.13 9.13 0 00-1.59.227v11.914h1.694v-4.726h1.99c.164 0 .321-.006.473-.019a22.281 22.281 0 01.734.943c.28.361.558.75.838 1.169.28.406.552.836.821 1.291.28.453.535.901.769 1.342h1.851a14 14 0 00-.768-1.448 27.851 27.851 0 00-.892-1.43 17.296 17.296 0 00-.891-1.256zm-4.925-6.541c.384-.035.937-.053 1.661-.053.453 0 .878.035 1.273.106.408.069.758.191 1.048.365.303.175.543.413.717.716.175.302.263.68.263 1.134 0 .488-.088.883-.263 1.186-.174.29-.426.517-.752.68-.314.163-.704.273-1.17.332-.466.058-.989.087-1.571.087h-1.206v-4.553zm68.183 10.681v-12.088h7.388v1.448h-5.694v3.593h5.065v1.413h-5.065v4.187h6.131v1.447h-7.825zM18.704 426.316c.273.782.564 1.581.873 2.399h2.894a532.157 532.157 0 00-2.048-5.534 184.214 184.214 0 00-1.883-4.852 130.97 130.97 0 00-1.802-4.362 105.6 105.6 0 00-1.883-4.143h-2.43a106.199 106.199 0 00-1.883 4.143c-.6 1.381-1.21 2.835-1.83 4.362-.6 1.526-1.219 3.144-1.855 4.852a529.66 529.66 0 00-2.048 5.534h2.757l1.72-4.825h8.571c.291.818.573 1.627.847 2.426zm-3.358-9.187a205.643 205.643 0 011.747 4.58H10.05a210.289 210.289 0 011.693-4.58 72.132 72.132 0 011.829-4.28 72.293 72.293 0 011.774 4.28zm21.895 11.586v-2.289h-8.735v-16.602h-2.648v18.891H37.24zm14.974 0v-2.289H43.48v-16.602h-2.648v18.891h11.383zm14.728-17.556c-1.42-1.018-3.457-1.526-6.114-1.526-.765 0-1.611.036-2.54.108-.909.055-1.737.173-2.483.355v18.619h2.648v-7.006h2.102c1.328 0 2.52-.108 3.576-.326 1.055-.22 1.947-.564 2.675-1.036a4.81 4.81 0 001.692-1.882c.4-.781.6-1.718.6-2.808 0-1.999-.718-3.498-2.156-4.498zm-8.49.872c.601-.054 1.466-.081 2.594-.081.71 0 1.383.054 2.02.163.637.109 1.192.309 1.665.6a2.95 2.95 0 011.147 1.118c.29.472.436 1.072.436 1.799 0 .763-.136 1.39-.41 1.881-.272.49-.663.881-1.173 1.172-.491.273-1.1.473-1.829.6a16.7 16.7 0 01-2.457.163h-1.992v-7.415zm26.162 16.684v-2.289H75.88v-16.602h-2.648v18.891h11.383zm16.13-2.399c.273.782.564 1.581.873 2.399h2.894a529.054 529.054 0 00-2.048-5.534 183.91 183.91 0 00-1.883-4.852 133.37 133.37 0 00-1.802-4.362 106.05 106.05 0 00-1.883-4.143h-2.43a106.2 106.2 0 00-1.883 4.143c-.6 1.381-1.21 2.835-1.83 4.362a288.81 288.81 0 00-1.855 4.852c-.637 1.69-1.32 3.535-2.048 5.534h2.757l1.72-4.825h8.571c.292.818.574 1.627.847 2.426zm-3.358-9.187a206.634 206.634 0 011.747 4.58h-7.043a210.812 210.812 0 011.693-4.58 72.132 72.132 0 011.829-4.28 72.158 72.158 0 011.774 4.28zm22.086 9.324c.528.836.992 1.59 1.392 2.262h2.212v-18.891h-2.594v13.984a65.761 65.761 0 00-2.156-3.299 88.587 88.587 0 00-2.703-3.762 88.349 88.349 0 00-2.893-3.734 49.314 49.314 0 00-2.731-3.189h-2.101v18.891h2.593v-14.748a49.76 49.76 0 011.665 2.017 83.75 83.75 0 011.857 2.454 85.811 85.811 0 011.91 2.671c.655.928 1.283 1.845 1.884 2.753.6.892 1.156 1.755 1.665 2.591zm34.515-15.294c-1.419-1.018-3.457-1.526-6.114-1.526-.765 0-1.611.036-2.539.108-.91.055-1.738.173-2.484.355v18.619h2.648v-7.006h2.101c1.329 0 2.522-.108 3.577-.326 1.055-.22 1.947-.564 2.675-1.036a4.819 4.819 0 001.693-1.882c.4-.781.6-1.718.6-2.808 0-1.999-.719-3.498-2.157-4.498zm-8.489.872c.6-.054 1.465-.081 2.593-.081.71 0 1.383.054 2.021.163.636.109 1.191.309 1.664.6.492.273.874.645 1.147 1.118.29.472.436 1.072.436 1.799 0 .763-.136 1.39-.409 1.881-.273.49-.664.881-1.174 1.172-.491.273-1.101.473-1.828.6-.729.109-1.548.163-2.457.163h-1.993v-7.415zm26.161 16.684v-2.289h-8.735v-16.602h-2.648v18.891h11.383zm6.933-.163c.91.381 1.983.572 3.222.572 1.236 0 2.302-.191 3.193-.572.91-.382 1.655-.9 2.239-1.554a6.203 6.203 0 001.311-2.372 9.63 9.63 0 00.436-2.944v-11.858h-2.648v11.559c0 .944-.109 1.762-.328 2.452-.218.673-.528 1.227-.927 1.663a3.812 3.812 0 01-1.447.982c-.546.2-1.157.3-1.829.3-1.348 0-2.44-.428-3.276-1.282-.837-.854-1.256-2.226-1.256-4.115v-11.559h-2.648v11.858c0 1.054.137 2.036.41 2.944a6.674 6.674 0 001.311 2.372c.581.654 1.327 1.172 2.237 1.554zm29.985-9.133h-2.648v7.034c-.235.072-.628.154-1.173.245-.527.073-1.174.109-1.939.109-1.072 0-2.009-.182-2.811-.545a5.68 5.68 0 01-1.993-1.527c-.527-.673-.928-1.472-1.201-2.399-.254-.926-.383-1.953-.383-3.081 0-1.162.156-2.207.465-3.134.31-.946.737-1.745 1.283-2.4a5.679 5.679 0 012.02-1.499c.802-.345 1.684-.517 2.647-.517.912 0 1.802.117 2.676.353.873.219 1.574.501 2.101.846l.847-2.208a5.356 5.356 0 00-.628-.328 7.696 7.696 0 00-1.146-.436 13.276 13.276 0 00-1.72-.382 14.056 14.056 0 00-2.265-.162 9.62 9.62 0 00-3.549.654 8.242 8.242 0 00-2.866 1.908c-.819.836-1.474 1.872-1.966 3.107-.472 1.218-.71 2.618-.71 4.198 0 1.582.21 2.982.628 4.199.437 1.217 1.048 2.244 1.829 3.08a7.719 7.719 0 002.811 1.909c1.093.436 2.303.654 3.631.654.655 0 1.302-.036 1.938-.109a20.88 20.88 0 001.748-.218c.545-.091 1.02-.182 1.418-.273.421-.09.738-.172.956-.245v-8.833zm7.612-9.595h-2.647v18.891h2.647v-18.891zm17.077 16.629c.529.836.993 1.59 1.392 2.262h2.211v-18.891h-2.593v13.984a63.798 63.798 0 00-2.157-3.299 85.951 85.951 0 00-2.702-3.762 86.736 86.736 0 00-2.894-3.734 48.7 48.7 0 00-2.73-3.189h-2.101v18.891h2.593v-14.748a48.897 48.897 0 011.666 2.017c.6.763 1.219 1.581 1.856 2.454a82.604 82.604 0 011.91 2.671c.655.928 1.283 1.845 1.884 2.753.6.892 1.157 1.755 1.665 2.591zm17.649-2.454c0 1.89-1.383 2.835-4.149 2.835-1.237 0-2.284-.145-3.139-.436-.854-.291-1.493-.554-1.911-.79l-.792 2.18c.2.109.473.246.819.409.364.146.792.291 1.283.437.492.127 1.046.236 1.665.327.637.109 1.329.163 2.075.163 2.202 0 3.903-.445 5.105-1.336 1.219-.89 1.829-2.162 1.829-3.816 0-.89-.137-1.645-.41-2.263a4.581 4.581 0 00-1.174-1.636 6.973 6.973 0 00-1.774-1.171 33.6 33.6 0 00-2.238-.982 29.086 29.086 0 01-1.611-.654 8.167 8.167 0 01-1.256-.709 3.136 3.136 0 01-.846-.927c-.2-.345-.3-.772-.3-1.281 0-.455.09-.846.273-1.172.199-.346.464-.627.791-.845a3.65 3.65 0 011.147-.492 5.9 5.9 0 011.42-.163c1.001 0 1.874.118 2.62.354.764.218 1.338.445 1.72.682l.846-2.154c-.437-.29-1.128-.554-2.075-.791-.928-.254-1.965-.38-3.111-.38-1.984 0-3.541.463-4.669 1.389-1.128.928-1.692 2.218-1.692 3.871 0 .8.128 1.482.382 2.045a4.846 4.846 0 001.092 1.472c.456.4.992.755 1.611 1.063a18.91 18.91 0 001.966.791c.599.218 1.165.436 1.692.654a6.442 6.442 0 011.447.791c.417.29.745.645.982 1.063.254.4.382.89.382 1.472zm20.313-2.18c-.218.544-.328 1.171-.328 1.881 0 .562.099 1.153.301 1.771a4.723 4.723 0 001.009 1.718c.492.509 1.128.936 1.912 1.281.78.327 1.763.491 2.948.491 1.272 0 2.401-.228 3.384-.682a9.423 9.423 0 002.594-1.826c.344.381.672.763.982 1.145.328.381.6.754.819 1.117h2.675a13.09 13.09 0 00-1.337-1.963 34.572 34.572 0 00-1.748-2.044c.547-.873.964-1.745 1.256-2.617.309-.89.5-1.708.573-2.454l-2.101-.272c-.183 1.399-.584 2.672-1.202 3.816l-4.422-4.498c.509-.273.991-.581 1.447-.927a7.275 7.275 0 001.202-1.145c.363-.417.644-.881.846-1.39.218-.509.327-1.082.327-1.718 0-.563-.101-1.099-.3-1.608a3.477 3.477 0 00-.901-1.309c-.382-.363-.865-.654-1.446-.872-.566-.218-1.212-.326-1.939-.326-.709 0-1.364.108-1.965.326a4.656 4.656 0 00-1.529.927c-.42.4-.756.891-1.009 1.472-.238.581-.356 1.236-.356 1.963 0 1.436.672 2.826 2.021 4.171-.53.255-1.038.554-1.53.9a6.179 6.179 0 00-1.31 1.171 5.299 5.299 0 00-.873 1.501zm2.402 2.889a3.353 3.353 0 01-.191-1.064c0-.58.082-1.09.246-1.526.18-.436.408-.809.682-1.117.273-.328.574-.6.901-.818a11.65 11.65 0 011.01-.573l5.323 5.371a6.207 6.207 0 01-2.02 1.39 6.067 6.067 0 01-2.457.491c-.692 0-1.275-.101-1.747-.3a3.752 3.752 0 01-1.12-.791 3.025 3.025 0 01-.627-1.063zm5.814-12.677c.418.418.628.936.628 1.554 0 .473-.082.9-.246 1.282a3.495 3.495 0 01-.628 1.008 4.06 4.06 0 01-.927.818 9.792 9.792 0 01-1.12.654c-1.238-1.126-1.856-2.281-1.856-3.462 0-.708.208-1.299.628-1.772.436-.491 1.054-.736 1.856-.736.71 0 1.264.218 1.665.654zm36.957-.872c-1.42-1.018-3.456-1.526-6.114-1.526-.765 0-1.611.036-2.539.108-.909.055-1.737.173-2.483.355v18.619h2.647v-7.006h2.101c1.329 0 2.523-.108 3.577-.326 1.055-.22 1.948-.564 2.675-1.036a4.801 4.801 0 001.692-1.882c.401-.781.601-1.718.601-2.808 0-1.999-.718-3.498-2.157-4.498zm-8.489.872c.6-.054 1.465-.081 2.593-.081.71 0 1.384.054 2.021.163.637.109 1.192.309 1.665.6.491.273.873.645 1.146 1.118.291.472.436 1.072.436 1.799 0 .763-.136 1.39-.409 1.881a3.03 3.03 0 01-1.173 1.172c-.492.273-1.101.473-1.829.6-.728.109-1.547.163-2.457.163h-1.993v-7.415zm25.125 10.224c-.437-.6-.802-1.082-1.092-1.445 1.292-.436 2.266-1.1 2.921-1.991.672-.89 1.01-1.962 1.01-3.216 0-1.981-.701-3.471-2.102-4.471-1.383-1-3.403-1.499-6.059-1.499-.765 0-1.611.036-2.54.108-.91.055-1.738.173-2.484.355v18.619h2.648v-7.388h3.112c.255 0 .5-.009.738-.027.344.418.726.908 1.146 1.472a32.62 32.62 0 011.311 1.827c.436.636.863 1.308 1.282 2.017.437.709.836 1.409 1.202 2.099h2.893a21.459 21.459 0 00-1.201-2.262 43.625 43.625 0 00-1.393-2.236 27.93 27.93 0 00-1.392-1.962zm-7.698-10.224c.601-.054 1.464-.081 2.594-.081.709 0 1.373.054 1.992.163.637.109 1.182.3 1.638.572.473.273.846.646 1.12 1.118.272.473.409 1.064.409 1.772 0 .764-.137 1.381-.409 1.854a2.797 2.797 0 01-1.174 1.064c-.491.254-1.102.427-1.829.517-.729.091-1.548.137-2.457.137h-1.884v-7.116zm14.99 2.945c-.473 1.235-.71 2.662-.71 4.279 0 1.618.237 3.045.71 4.281.491 1.236 1.146 2.272 1.965 3.108a8.41 8.41 0 002.894 1.853 9.909 9.909 0 003.521.627c1.22 0 2.366-.209 3.44-.627a8.133 8.133 0 002.866-1.853c.819-.836 1.465-1.872 1.938-3.108.491-1.236.737-2.663.737-4.281 0-1.617-.246-3.044-.737-4.279-.473-1.236-1.119-2.263-1.938-3.081a7.949 7.949 0 00-2.866-1.881 9.397 9.397 0 00-3.44-.626 9.908 9.908 0 00-3.521.626 8.214 8.214 0 00-2.894 1.881c-.819.818-1.474 1.845-1.965 3.081zm2.511 7.414c-.289-.944-.436-1.989-.436-3.135 0-1.144.147-2.18.436-3.107.292-.945.702-1.745 1.229-2.399a5.461 5.461 0 011.965-1.5c.784-.363 1.657-.544 2.621-.544.965 0 1.829.181 2.593.544a5.214 5.214 0 011.938 1.5c.546.654.966 1.454 1.256 2.399.292.927.436 1.963.436 3.107 0 1.146-.144 2.191-.436 3.135-.29.928-.71 1.718-1.256 2.373a5.475 5.475 0 01-1.938 1.526c-.764.345-1.628.518-2.593.518-.964 0-1.837-.173-2.621-.518a5.744 5.744 0 01-1.965-1.526c-.527-.655-.937-1.445-1.229-2.373zm33.803-2.971h-2.648v7.034c-.235.072-.628.154-1.174.245a14.47 14.47 0 01-1.938.109c-1.073 0-2.01-.182-2.812-.545a5.695 5.695 0 01-1.992-1.527c-.527-.673-.928-1.472-1.201-2.399-.255-.926-.382-1.953-.382-3.081 0-1.162.155-2.207.464-3.134.31-.946.737-1.745 1.282-2.4a5.683 5.683 0 012.021-1.499c.801-.345 1.684-.517 2.648-.517.91 0 1.802.117 2.675.353.873.219 1.574.501 2.102.846l.846-2.208a5.356 5.356 0 00-.628-.328 7.671 7.671 0 00-1.147-.436 13.182 13.182 0 00-1.719-.382 14.06 14.06 0 00-2.266-.162 9.623 9.623 0 00-3.549.654 8.26 8.26 0 00-2.866 1.908c-.819.836-1.474 1.872-1.965 3.107-.473 1.218-.71 2.618-.71 4.198 0 1.582.21 2.982.627 4.199.438 1.217 1.049 2.244 1.83 3.08a7.714 7.714 0 002.812 1.909c1.091.436 2.303.654 3.63.654.655 0 1.301-.036 1.938-.109.638-.055 1.22-.127 1.747-.218a25.15 25.15 0 001.42-.273c.419-.09.737-.172.955-.245v-8.833zm15.31 2.836c-.436-.6-.8-1.082-1.091-1.445 1.292-.436 2.265-1.1 2.92-1.991.674-.89 1.01-1.962 1.01-3.216 0-1.981-.699-3.471-2.101-4.471-1.383-1-3.403-1.499-6.061-1.499-.764 0-1.61.036-2.538.108-.91.055-1.737.173-2.485.355v18.619h2.649v-7.388h3.111c.256 0 .501-.009.737-.027.347.418.729.908 1.147 1.472.436.564.873 1.173 1.31 1.827.436.636.865 1.308 1.284 2.017.436.709.837 1.409 1.2 2.099h2.893a20.74 20.74 0 00-1.201-2.262 41.619 41.619 0 00-1.391-2.236 27.283 27.283 0 00-1.393-1.962zm-7.697-10.224c.6-.054 1.465-.081 2.592-.081.711 0 1.376.054 1.993.163.638.109 1.185.3 1.638.572.474.273.846.646 1.119 1.118.274.473.41 1.064.41 1.772 0 .764-.136 1.381-.41 1.854a2.777 2.777 0 01-1.173 1.064c-.492.254-1.101.427-1.829.517-.728.091-1.546.137-2.457.137h-1.883v-7.116zm27.877 14.285c.273.782.564 1.581.873 2.399h2.893a530.228 530.228 0 00-2.047-5.534 180.482 180.482 0 00-1.883-4.852c-.6-1.527-1.201-2.981-1.801-4.362a107.106 107.106 0 00-1.884-4.143h-2.43a108.624 108.624 0 00-1.883 4.143 191.45 191.45 0 00-1.829 4.362 286.287 286.287 0 00-1.856 4.852 578.6 578.6 0 00-2.048 5.534h2.757l1.72-4.825h8.571c.292.818.574 1.627.847 2.426zm-3.358-9.187a206.137 206.137 0 011.747 4.58h-7.043a215.6 215.6 0 011.693-4.58 73.209 73.209 0 011.828-4.28 71.295 71.295 0 011.775 4.28zm18.264 7.306c.31.673.556 1.227.736 1.663h2.13c.12-.286.263-.623.429-1.011l.281-.652c.311-.672.638-1.399.983-2.18.346-.782.709-1.582 1.091-2.4.402-.836.775-1.617 1.119-2.344.347-.745.666-1.409.956-1.99a42.08 42.08 0 01.737-1.336c.202 2.144.366 4.471.491 6.978.128 2.49.238 5.008.328 7.552h2.593a351.722 351.722 0 00-1.392-18.891h-2.321a44.496 44.496 0 00-1.582 2.834 104.318 104.318 0 00-1.693 3.435 135.432 135.432 0 00-1.638 3.571l-.953 2.136-.494 1.109c-.437-.982-.918-2.063-1.446-3.245a123.605 123.605 0 00-1.638-3.571 98.653 98.653 0 00-1.693-3.435 43.502 43.502 0 00-1.583-2.834h-2.32a183.41 183.41 0 00-.465 4.334c-.125 1.526-.253 3.099-.381 4.716-.11 1.599-.208 3.235-.301 4.907-.09 1.654-.172 3.299-.245 4.934h2.593c.092-2.544.201-5.062.328-7.552.127-2.507.291-4.834.491-6.978.183.309.42.754.71 1.336.31.581.638 1.245.983 1.99.346.727.709 1.508 1.091 2.344a64.12 64.12 0 011.119 2.4c.346.781.666 1.508.956 2.18zm24.598 0c.309.673.555 1.227.737 1.663h2.13c.182-.436.417-.99.709-1.663.309-.672.637-1.399.983-2.18.346-.782.709-1.582 1.091-2.4.402-.836.773-1.617 1.12-2.344.346-.745.663-1.409.955-1.99a35.25 35.25 0 01.737-1.336c.2 2.144.364 4.471.491 6.978.128 2.49.238 5.008.328 7.552h2.593a351.722 351.722 0 00-1.392-18.891h-2.32a44.466 44.466 0 00-1.583 2.834 102.358 102.358 0 00-1.693 3.435 123.578 123.578 0 00-1.637 3.571l-.365.819-1.082 2.426-.168-.378-1.279-2.867a123.605 123.605 0 00-1.638-3.571 102.384 102.384 0 00-1.692-3.435 44.932 44.932 0 00-1.584-2.834h-2.32a178.45 178.45 0 00-.464 4.334c-.128 1.526-.254 3.099-.382 4.716a359.05 359.05 0 00-.301 4.907c-.09 1.654-.172 3.299-.245 4.934h2.594c.089-2.544.199-5.062.327-7.552.127-2.507.291-4.834.491-6.978.183.309.418.754.71 1.336.309.581.636 1.245.983 1.99.346.727.709 1.508 1.092 2.344.4.818.772 1.618 1.118 2.4.346.781.664 1.508.956 2.18zm19.492-14.611h-2.648v18.891h2.648v-18.891zm17.076 16.629c.529.836.993 1.59 1.392 2.262h2.212v-18.891h-2.594v13.984a63.717 63.717 0 00-2.156-3.299 86.798 86.798 0 00-2.702-3.762 88.363 88.363 0 00-2.894-3.734 48.7 48.7 0 00-2.73-3.189h-2.102v18.891h2.593v-14.748a48.897 48.897 0 011.666 2.017c.6.763 1.219 1.581 1.856 2.454a81.088 81.088 0 011.91 2.671c.655.928 1.283 1.845 1.884 2.753.6.892 1.157 1.755 1.665 2.591zm23.3-7.034h-2.648v7.034c-.237.072-.628.154-1.174.245a14.46 14.46 0 01-1.938.109c-1.073 0-2.011-.182-2.812-.545a5.66 5.66 0 01-1.992-1.527c-.527-.673-.928-1.472-1.201-2.399-.255-.926-.382-1.953-.382-3.081 0-1.162.155-2.207.463-3.134.309-.946.738-1.745 1.284-2.4a5.667 5.667 0 012.019-1.499c.801-.345 1.685-.517 2.648-.517.91 0 1.802.117 2.676.353.873.219 1.574.501 2.101.846l.847-2.208a5.533 5.533 0 00-.628-.328 7.873 7.873 0 00-1.146-.436 13.257 13.257 0 00-1.721-.382 14.052 14.052 0 00-2.264-.162 9.625 9.625 0 00-3.55.654 8.247 8.247 0 00-2.865 1.908c-.819.836-1.475 1.872-1.966 3.107-.473 1.218-.71 2.618-.71 4.198 0 1.582.21 2.982.628 4.199.437 1.217 1.046 2.244 1.829 3.08a7.719 7.719 0 002.811 1.909c1.092.436 2.302.654 3.631.654.655 0 1.301-.036 1.938-.109a20.96 20.96 0 001.747-.218 25.1 25.1 0 001.419-.273c.419-.09.738-.172.956-.245v-8.833z" fill="url(#paint1_linear_459_7160)"/></g><defs><linearGradient id="paint0_linear_459_7160" x1="513.001" y1=".877" x2="3.218" y2="2.519" gradientUnits="userSpaceOnUse"><stop stop-color="#A459D0"/><stop offset=".49" stop-color="#E35F87"/><stop offset="1" stop-color="#FF5761"/></linearGradient><linearGradient id="paint1_linear_459_7160" x1="4.592" y1=".876" x2="529.271" y2="21.836" gradientUnits="userSpaceOnUse"><stop stop-color="#FA3901"/><stop offset="1" stop-color="#FF8902"/></linearGradient><filter id="filter0_d_459_7160" x=".592" y=".876" width="516.409" height="436.248" filterUnits="userSpaceOnUse" color-interpolation-filters="sRGB"><feFlood flood-opacity="0" result="BackgroundImageFix"/><feColorMatrix in="SourceAlpha" values="0 0 0 0 0 0 0 0 0 0 0 0 0 0 0 0 0 0 127 0" result="hardAlpha"/><feOffset dy="4"/><feGaussianBlur stdDeviation="2"/><feColorMatrix values="0 0 0 0 0 0 0 0 0 0 0 0 0 0 0 0 0 0 0.25 0"/><feBlend in2="BackgroundImageFix" result="effect1_dropShadow_459_7160"/><feBlend in="SourceGraphic" in2="effect1_dropShadow_459_7160" result="shape"/></filter></defs></svg>