<svg width="288" height="42" fill="none" xmlns="http://www.w3.org/2000/svg"><path fill-rule="evenodd" clip-rule="evenodd" d="M23.899.05c.406 1.304.813 2.608 1.22 3.861l7.773 23.017 4.877 14.442c.026.1.051.188.077.276.025.087.05.175.076.275-.965.15-.965.15-1.22-.601C32.08 27.68 27.457 14.04 22.833.35a.701.701 0 01-.05-.175A.712.712 0 0022.73 0c.458.05.813.05 1.169.05zM15.716 14h3.886v-.511h-2.978l1.589-1.433c.744-.671 1.116-1.25 1.116-1.735 0-.4-.16-.72-.481-.959-.32-.241-.756-.362-1.307-.362-.59 0-1.061.14-1.414.42-.35.28-.525.647-.525 1.101h.753c0-.316.103-.562.31-.738.209-.179.5-.268.876-.268.312 0 .562.082.749.247a.806.806 0 01.281.634c0 .192-.058.378-.175.559-.114.178-.323.41-.627.697l-2.053 1.898V14zM.102 11.17l1.18 2.059h3.673c2.386 0 4.24.734 5.563 2.202 1.332 1.468 1.999 3.558 1.999 6.271v1.356c0 2.639-.629 4.687-1.887 6.144-1.247 1.468-3.02 2.213-5.32 2.234H3.364l.737 2.064 1.202.01c2.042 0 3.644-.446 5.213-1.34 1.57-.893 2.427-1.925 3.276-3.574.86-1.65 1.33-3.67 1.34-5.809v-1.085c0-2.191-.48-3.968-1.34-5.617-.849-1.649-1.685-2.691-3.275-3.574-1.58-.883-3.102-1.32-5.209-1.34H.102zm23.906 17.464c-1.4-.38-2.422-.845-3.062-1.396-.636-.556-.953-1.24-.953-2.053 0-.92.388-1.68 1.165-2.279.783-.604 1.798-.906 3.046-.906.85 0 1.607.155 2.27.465.67.31 1.186.738 1.55 1.284a3.13 3.13 0 01.552 1.788h-1.642c0-.705-.238-1.259-.714-1.66-.477-.406-1.149-.61-2.016-.61-.806 0-1.435.169-1.889.506-.448.331-.672.794-.672 1.387 0 .476.213.88.638 1.212.431.326 1.16.625 2.186.898 1.033.273 1.838.575 2.416.907.584.326 1.015.708 1.293 1.146.284.439.426.955.426 1.549 0 .946-.392 1.706-1.174 2.278-.783.567-1.83.85-3.14.85-.85 0-1.644-.152-2.381-.457-.737-.31-1.307-.733-1.71-1.268a2.977 2.977 0 01-.595-1.82h1.641c0 .705.275 1.264.826 1.676.555.406 1.295.61 2.22.61.862 0 1.522-.166 1.982-.498.46-.331.689-.783.689-1.355 0-.573-.213-1.014-.638-1.324-.425-.315-1.197-.625-2.314-.93zm25.828-5.697V40h4.91c1.54 0 2.902-.332 4.09-.996a6.744 6.744 0 002.754-2.836c.648-1.227.972-2.648.972-4.266v-.855c0-1.594-.32-3.008-.96-4.242-.641-1.235-1.547-2.188-2.72-2.86-1.163-.672-2.5-1.008-4.007-1.008h-5.04zM52.8 37.633V25.328h2.074c1.531 0 2.7.488 3.504 1.465.805.977 1.207 2.39 1.207 4.242v.95c-.016 1.82-.441 3.218-1.277 4.195-.828.968-2.02 1.453-3.575 1.453H52.8zm19.4-5.25h7.007v-2.344H72.2v-4.71h8.109v-2.392H69.236V40h11.156v-2.367H72.2v-5.25zm22.446 1.488c.531.406.797.984.797 1.734 0 .688-.262 1.243-.785 1.665-.516.414-1.29.62-2.32.62-1.196 0-2.114-.265-2.754-.796-.641-.532-.961-1.282-.961-2.25h-2.965c0 1.07.285 2.008.855 2.812.578.805 1.383 1.438 2.414 1.899 1.04.453 2.176.68 3.41.68 1.868 0 3.344-.419 4.43-1.255 1.094-.843 1.64-1.976 1.64-3.398 0-.875-.187-1.637-.562-2.285-.375-.656-.965-1.234-1.77-1.734-.804-.508-1.87-.957-3.198-1.348-1.329-.399-2.282-.805-2.86-1.219-.578-.422-.867-.945-.867-1.57 0-.742.266-1.32.797-1.735.539-.414 1.293-.62 2.262-.62 1.039 0 1.836.253 2.39.761.563.5.844 1.195.844 2.086h2.953c0-.984-.266-1.879-.797-2.684-.531-.812-1.262-1.437-2.191-1.875-.93-.437-1.989-.656-3.176-.656-1.79 0-3.246.445-4.371 1.336-1.117.89-1.676 2.023-1.676 3.398 0 1.57.777 2.844 2.332 3.82.813.509 1.906.97 3.281 1.384 1.375.414 2.325.824 2.848 1.23zM104.906 40h2.953V22.937h-2.953V40zm20.829-.387c1.094-.414 1.95-1.023 2.567-1.828v-6.539h-6.469v2.25h3.516v3.34c-.641.687-1.719 1.031-3.235 1.031-1.382 0-2.464-.508-3.246-1.523-.773-1.024-1.16-2.457-1.16-4.301V30.73c.024-1.851.379-3.253 1.067-4.207.695-.96 1.707-1.441 3.035-1.441 2.054 0 3.246 1.027 3.574 3.082h2.906c-.226-1.766-.898-3.117-2.015-4.055-1.118-.937-2.625-1.406-4.524-1.406-2.211 0-3.934.727-5.168 2.18-1.234 1.445-1.851 3.457-1.851 6.035v1.336c.023 1.61.332 3.02.925 4.23.602 1.203 1.453 2.13 2.555 2.778 1.102.648 2.367.972 3.797.972 1.391 0 2.633-.207 3.726-.62zM145.85 40h2.965V22.937h-2.942V35.09l-7.628-12.153h-2.965V40h2.965V27.895L145.85 40zm19.428 0h11.473v-2.273h-7.922l4.172-4.465c1.094-1.188 1.879-2.246 2.355-3.176.485-.938.727-1.832.727-2.684 0-1.468-.48-2.617-1.441-3.445-.954-.836-2.258-1.254-3.914-1.254-1.149 0-2.165.23-3.047.692a4.923 4.923 0 00-2.028 1.945c-.468.828-.703 1.762-.703 2.8h2.848c0-.976.254-1.745.762-2.308.507-.563 1.222-.844 2.144-.844.774 0 1.387.25 1.84.75.461.5.691 1.157.691 1.969 0 .617-.175 1.234-.527 1.852-.344.609-.926 1.37-1.746 2.285l-5.684 6.199V40zm35.636-6.129c.531.406.796.984.796 1.734 0 .688-.261 1.243-.785 1.665-.515.414-1.289.62-2.32.62-1.195 0-2.113-.265-2.754-.796-.641-.532-.961-1.282-.961-2.25h-2.965c0 1.07.285 2.008.856 2.812.578.805 1.383 1.438 2.414 1.899 1.039.453 2.176.68 3.41.68 1.867 0 3.344-.419 4.43-1.255 1.093-.843 1.64-1.976 1.64-3.398 0-.875-.187-1.637-.562-2.285-.375-.656-.965-1.234-1.77-1.734-.804-.508-1.871-.957-3.199-1.348-1.328-.399-2.281-.805-2.859-1.219-.578-.422-.868-.945-.868-1.57 0-.742.266-1.32.797-1.735.539-.414 1.293-.62 2.262-.62 1.039 0 1.836.253 2.391.761.562.5.843 1.195.843 2.086h2.954c0-.984-.266-1.879-.797-2.684-.532-.812-1.262-1.437-2.192-1.875-.929-.437-1.988-.656-3.175-.656-1.79 0-3.247.445-4.372 1.336-1.117.89-1.675 2.023-1.675 3.398 0 1.57.777 2.844 2.332 3.82.812.509 1.906.97 3.281 1.384 1.375.414 2.324.824 2.848 1.23zm17.091-8.543h5.32v-2.39H209.79v2.39h5.273V40h2.942V25.328zM229.447 40l1.383-3.973h6.61L238.834 40h3.094l-6.457-17.063h-2.66L226.365 40h3.082zm4.688-13.441l2.472 7.078h-4.945l2.473-7.078zm19.06-1.23h5.32v-2.392H244.98v2.391h5.273V40h2.942V25.328zM264.661 40h2.953V22.937h-2.953V40zm21.321-1.29c1.172-1.023 1.844-2.444 2.016-4.265h-2.953c-.156 1.22-.527 2.09-1.113 2.614-.586.523-1.461.785-2.625.785-1.274 0-2.243-.485-2.907-1.453-.656-.97-.984-2.375-.984-4.22v-1.51c.016-1.821.367-3.2 1.055-4.138.695-.945 1.687-1.418 2.976-1.418 1.11 0 1.949.274 2.52.82.578.54.937 1.423 1.078 2.65h2.953c-.188-1.868-.855-3.313-2.004-4.337-1.148-1.023-2.664-1.535-4.547-1.535-1.398 0-2.633.332-3.703.996-1.062.664-1.879 1.61-2.449 2.836-.57 1.227-.856 2.645-.856 4.254v1.594c.024 1.57.317 2.949.879 4.136.563 1.188 1.36 2.106 2.391 2.754 1.039.641 2.238.961 3.598.961 1.945 0 3.503-.507 4.675-1.523zM56.896 11.57c-.35-1.012-.687-1.951-1.01-2.817-.313-.856-.621-1.67-.926-2.444a78.487 78.487 0 00-.912-2.224c-.295-.7-.6-1.395-.913-2.085h-1.258c-.314.69-.623 1.386-.927 2.085-.295.71-.599 1.45-.913 2.224-.304.773-.617 1.588-.94 2.444a93.671 93.671 0 00-.995 2.817h1.48c.497-1.454.986-2.854 1.465-4.198.48-1.344.973-2.605 1.48-3.784a61.6 61.6 0 011.48 3.77 274.87 274.87 0 011.451 4.212h1.438zm73.162-2.817c.322.866.659 1.805 1.009 2.817h-1.438a259.914 259.914 0 00-1.452-4.212 60.741 60.741 0 00-1.479-3.77 62.972 62.972 0 00-1.48 3.784 339.58 339.58 0 00-1.466 4.198h-1.479a96.76 96.76 0 01.995-2.817c.323-.856.636-1.67.94-2.444.314-.774.618-1.515.913-2.224.304-.7.613-1.395.927-2.085h1.258c.314.69.618 1.386.913 2.085.304.71.608 1.45.912 2.224.305.773.613 1.588.927 2.444zM146.5 12c-.627 0-1.17-.096-1.632-.29a3.106 3.106 0 01-1.134-.787 3.398 3.398 0 01-.663-1.202 5.136 5.136 0 01-.208-1.491V2.223h1.342v5.855c0 .958.212 1.653.636 2.085.424.433.977.65 1.659.65.341 0 .65-.051.927-.152.285-.11.53-.277.733-.498a2.27 2.27 0 00.47-.842c.11-.35.166-.764.166-1.243V2.223h1.341V8.23c0 .534-.074 1.031-.221 1.491a3.15 3.15 0 01-.664 1.202 3.09 3.09 0 01-1.134.787c-.452.194-.991.29-1.618.29zm-71.968-.207v-1.16h-4.425v-8.41h-1.341v9.57h5.766zm17.598-1.16v1.16h-5.766v-9.57h1.341v8.41h4.425zm13.784 1.228c.231.01.443.014.637.014 1.53 0 2.645-.24 3.346-.718.71-.488 1.065-1.21 1.065-2.168 0-.654-.166-1.16-.498-1.52-.332-.358-.779-.62-1.341-.786.415-.166.746-.415.995-.746.249-.34.374-.774.374-1.298 0-.47-.102-.866-.305-1.188a2.215 2.215 0 00-.843-.773 3.75 3.75 0 00-1.259-.428 9.094 9.094 0 00-1.548-.125 17.658 17.658 0 00-1.3.055c-.222.019-.443.042-.664.07a5.18 5.18 0 00-.608.11v9.28c.184.046.387.083.608.11a15.884 15.884 0 001.341.111zm-.622-1.16v-3.37h1.728c.388 0 .738.028 1.052.084.313.055.58.147.802.276.23.129.405.304.525.525.12.211.18.474.18.787 0 .35-.083.64-.249.87a1.59 1.59 0 01-.636.539c-.267.128-.581.22-.94.276a8.629 8.629 0 01-1.121.069h-.566a23.298 23.298 0 01-.775-.056zm1.411-4.447h-1.411V3.3c.157-.018.332-.032.526-.041.193-.01.461-.014.802-.014a5.4 5.4 0 01.967.083c.305.055.568.143.789.262.231.11.41.263.539.456.129.184.194.414.194.69 0 .295-.065.54-.194.732-.12.194-.29.35-.512.47-.211.12-.465.202-.76.248a6.078 6.078 0 01-.94.07z" fill="#000"/><path fill-rule="evenodd" clip-rule="evenodd" d="M23.899.05c.406 1.304.813 2.608 1.22 3.861l7.773 23.017 4.877 14.442c.026.1.051.188.077.276.025.087.05.175.076.275-.965.15-.965.15-1.22-.601C32.08 27.68 27.457 14.04 22.833.35a.701.701 0 01-.05-.175A.712.712 0 0022.73 0c.458.05.813.05 1.169.05zM15.716 14h3.886v-.511h-2.978l1.589-1.433c.744-.671 1.116-1.25 1.116-1.735 0-.4-.16-.72-.481-.959-.32-.241-.756-.362-1.307-.362-.59 0-1.061.14-1.414.42-.35.28-.525.647-.525 1.101h.753c0-.316.103-.562.31-.738.209-.179.5-.268.876-.268.312 0 .562.082.749.247a.806.806 0 01.281.634c0 .192-.058.378-.175.559-.114.178-.323.41-.627.697l-2.053 1.898V14zM.102 11.17l1.18 2.059h3.673c2.386 0 4.24.734 5.563 2.202 1.332 1.468 1.999 3.558 1.999 6.271v1.356c0 2.639-.629 4.687-1.887 6.144-1.247 1.468-3.02 2.213-5.32 2.234H3.364l.737 2.064 1.202.01c2.042 0 3.644-.446 5.213-1.34 1.57-.893 2.427-1.925 3.276-3.574.86-1.65 1.33-3.67 1.34-5.809v-1.085c0-2.191-.48-3.968-1.34-5.617-.849-1.649-1.685-2.691-3.275-3.574-1.58-.883-3.102-1.32-5.209-1.34H.102zm23.906 17.464c-1.4-.38-2.422-.845-3.062-1.396-.636-.556-.953-1.24-.953-2.053 0-.92.388-1.68 1.165-2.279.783-.604 1.798-.906 3.046-.906.85 0 1.607.155 2.27.465.67.31 1.186.738 1.55 1.284a3.13 3.13 0 01.552 1.788h-1.642c0-.705-.238-1.259-.714-1.66-.477-.406-1.149-.61-2.016-.61-.806 0-1.435.169-1.889.506-.448.331-.672.794-.672 1.387 0 .476.213.88.638 1.212.431.326 1.16.625 2.186.898 1.033.273 1.838.575 2.416.907.584.326 1.015.708 1.293 1.146.284.439.426.955.426 1.549 0 .946-.392 1.706-1.174 2.278-.783.567-1.83.85-3.14.85-.85 0-1.644-.152-2.381-.457-.737-.31-1.307-.733-1.71-1.268a2.977 2.977 0 01-.595-1.82h1.641c0 .705.275 1.264.826 1.676.555.406 1.295.61 2.22.61.862 0 1.522-.166 1.982-.498.46-.331.689-.783.689-1.355 0-.573-.213-1.014-.638-1.324-.425-.315-1.197-.625-2.314-.93zm25.828-5.697V40h4.91c1.54 0 2.902-.332 4.09-.996a6.744 6.744 0 002.754-2.836c.648-1.227.972-2.648.972-4.266v-.855c0-1.594-.32-3.008-.96-4.242-.641-1.235-1.547-2.188-2.72-2.86-1.163-.672-2.5-1.008-4.007-1.008h-5.04zM52.8 37.633V25.328h2.074c1.531 0 2.7.488 3.504 1.465.805.977 1.207 2.39 1.207 4.242v.95c-.016 1.82-.441 3.218-1.277 4.195-.828.968-2.02 1.453-3.575 1.453H52.8zm19.4-5.25h7.007v-2.344H72.2v-4.71h8.109v-2.392H69.236V40h11.156v-2.367H72.2v-5.25zm22.446 1.488c.531.406.797.984.797 1.734 0 .688-.262 1.243-.785 1.665-.516.414-1.29.62-2.32.62-1.196 0-2.114-.265-2.754-.796-.641-.532-.961-1.282-.961-2.25h-2.965c0 1.07.285 2.008.855 2.812.578.805 1.383 1.438 2.414 1.899 1.04.453 2.176.68 3.41.68 1.868 0 3.344-.419 4.43-1.255 1.094-.843 1.64-1.976 1.64-3.398 0-.875-.187-1.637-.562-2.285-.375-.656-.965-1.234-1.77-1.734-.804-.508-1.87-.957-3.198-1.348-1.329-.399-2.282-.805-2.86-1.219-.578-.422-.867-.945-.867-1.57 0-.742.266-1.32.797-1.735.539-.414 1.293-.62 2.262-.62 1.039 0 1.836.253 2.39.761.563.5.844 1.195.844 2.086h2.953c0-.984-.266-1.879-.797-2.684-.531-.812-1.262-1.437-2.191-1.875-.93-.437-1.989-.656-3.176-.656-1.79 0-3.246.445-4.371 1.336-1.117.89-1.676 2.023-1.676 3.398 0 1.57.777 2.844 2.332 3.82.813.509 1.906.97 3.281 1.384 1.375.414 2.325.824 2.848 1.23zM104.906 40h2.953V22.937h-2.953V40zm20.829-.387c1.094-.414 1.95-1.023 2.567-1.828v-6.539h-6.469v2.25h3.516v3.34c-.641.687-1.719 1.031-3.235 1.031-1.382 0-2.464-.508-3.246-1.523-.773-1.024-1.16-2.457-1.16-4.301V30.73c.024-1.851.379-3.253 1.067-4.207.695-.96 1.707-1.441 3.035-1.441 2.054 0 3.246 1.027 3.574 3.082h2.906c-.226-1.766-.898-3.117-2.015-4.055-1.118-.937-2.625-1.406-4.524-1.406-2.211 0-3.934.727-5.168 2.18-1.234 1.445-1.851 3.457-1.851 6.035v1.336c.023 1.61.332 3.02.925 4.23.602 1.203 1.453 2.13 2.555 2.778 1.102.648 2.367.972 3.797.972 1.391 0 2.633-.207 3.726-.62zM145.85 40h2.965V22.937h-2.942V35.09l-7.628-12.153h-2.965V40h2.965V27.895L145.85 40zm19.428 0h11.473v-2.273h-7.922l4.172-4.465c1.094-1.188 1.879-2.246 2.355-3.176.485-.938.727-1.832.727-2.684 0-1.468-.48-2.617-1.441-3.445-.954-.836-2.258-1.254-3.914-1.254-1.149 0-2.165.23-3.047.692a4.923 4.923 0 00-2.028 1.945c-.468.828-.703 1.762-.703 2.8h2.848c0-.976.254-1.745.762-2.308.507-.563 1.222-.844 2.144-.844.774 0 1.387.25 1.84.75.461.5.691 1.157.691 1.969 0 .617-.175 1.234-.527 1.852-.344.609-.926 1.37-1.746 2.285l-5.684 6.199V40zm35.636-6.129c.531.406.796.984.796 1.734 0 .688-.261 1.243-.785 1.665-.515.414-1.289.62-2.32.62-1.195 0-2.113-.265-2.754-.796-.641-.532-.961-1.282-.961-2.25h-2.965c0 1.07.285 2.008.856 2.812.578.805 1.383 1.438 2.414 1.899 1.039.453 2.176.68 3.41.68 1.867 0 3.344-.419 4.43-1.255 1.093-.843 1.64-1.976 1.64-3.398 0-.875-.187-1.637-.562-2.285-.375-.656-.965-1.234-1.77-1.734-.804-.508-1.871-.957-3.199-1.348-1.328-.399-2.281-.805-2.859-1.219-.578-.422-.868-.945-.868-1.57 0-.742.266-1.32.797-1.735.539-.414 1.293-.62 2.262-.62 1.039 0 1.836.253 2.391.761.562.5.843 1.195.843 2.086h2.954c0-.984-.266-1.879-.797-2.684-.532-.812-1.262-1.437-2.192-1.875-.929-.437-1.988-.656-3.175-.656-1.79 0-3.247.445-4.372 1.336-1.117.89-1.675 2.023-1.675 3.398 0 1.57.777 2.844 2.332 3.82.812.509 1.906.97 3.281 1.384 1.375.414 2.324.824 2.848 1.23zm17.091-8.543h5.32v-2.39H209.79v2.39h5.273V40h2.942V25.328zM229.447 40l1.383-3.973h6.61L238.834 40h3.094l-6.457-17.063h-2.66L226.365 40h3.082zm4.688-13.441l2.472 7.078h-4.945l2.473-7.078zm19.06-1.23h5.32v-2.392H244.98v2.391h5.273V40h2.942V25.328zM264.661 40h2.953V22.937h-2.953V40zm21.321-1.29c1.172-1.023 1.844-2.444 2.016-4.265h-2.953c-.156 1.22-.527 2.09-1.113 2.614-.586.523-1.461.785-2.625.785-1.274 0-2.243-.485-2.907-1.453-.656-.97-.984-2.375-.984-4.22v-1.51c.016-1.821.367-3.2 1.055-4.138.695-.945 1.687-1.418 2.976-1.418 1.11 0 1.949.274 2.52.82.578.54.937 1.423 1.078 2.65h2.953c-.188-1.868-.855-3.313-2.004-4.337-1.148-1.023-2.664-1.535-4.547-1.535-1.398 0-2.633.332-3.703.996-1.062.664-1.879 1.61-2.449 2.836-.57 1.227-.856 2.645-.856 4.254v1.594c.024 1.57.317 2.949.879 4.136.563 1.188 1.36 2.106 2.391 2.754 1.039.641 2.238.961 3.598.961 1.945 0 3.503-.507 4.675-1.523zM56.896 11.57c-.35-1.012-.687-1.951-1.01-2.817-.313-.856-.621-1.67-.926-2.444a78.487 78.487 0 00-.912-2.224c-.295-.7-.6-1.395-.913-2.085h-1.258c-.314.69-.623 1.386-.927 2.085-.295.71-.599 1.45-.913 2.224-.304.773-.617 1.588-.94 2.444a93.671 93.671 0 00-.995 2.817h1.48c.497-1.454.986-2.854 1.465-4.198.48-1.344.973-2.605 1.48-3.784a61.6 61.6 0 011.48 3.77 274.87 274.87 0 011.451 4.212h1.438zm73.162-2.817c.322.866.659 1.805 1.009 2.817h-1.438a259.914 259.914 0 00-1.452-4.212 60.741 60.741 0 00-1.479-3.77 62.972 62.972 0 00-1.48 3.784 339.58 339.58 0 00-1.466 4.198h-1.479a96.76 96.76 0 01.995-2.817c.323-.856.636-1.67.94-2.444.314-.774.618-1.515.913-2.224.304-.7.613-1.395.927-2.085h1.258c.314.69.618 1.386.913 2.085.304.71.608 1.45.912 2.224.305.773.613 1.588.927 2.444zM146.5 12c-.627 0-1.17-.096-1.632-.29a3.106 3.106 0 01-1.134-.787 3.398 3.398 0 01-.663-1.202 5.136 5.136 0 01-.208-1.491V2.223h1.342v5.855c0 .958.212 1.653.636 2.085.424.433.977.65 1.659.65.341 0 .65-.051.927-.152.285-.11.53-.277.733-.498a2.27 2.27 0 00.47-.842c.11-.35.166-.764.166-1.243V2.223h1.341V8.23c0 .534-.074 1.031-.221 1.491a3.15 3.15 0 01-.664 1.202 3.09 3.09 0 01-1.134.787c-.452.194-.991.29-1.618.29zm-71.968-.207v-1.16h-4.425v-8.41h-1.341v9.57h5.766zm17.598-1.16v1.16h-5.766v-9.57h1.341v8.41h4.425zm13.784 1.228c.231.01.443.014.637.014 1.53 0 2.645-.24 3.346-.718.71-.488 1.065-1.21 1.065-2.168 0-.654-.166-1.16-.498-1.52-.332-.358-.779-.62-1.341-.786.415-.166.746-.415.995-.746.249-.34.374-.774.374-1.298 0-.47-.102-.866-.305-1.188a2.215 2.215 0 00-.843-.773 3.75 3.75 0 00-1.259-.428 9.094 9.094 0 00-1.548-.125 17.658 17.658 0 00-1.3.055c-.222.019-.443.042-.664.07a5.18 5.18 0 00-.608.11v9.28c.184.046.387.083.608.11a15.884 15.884 0 001.341.111zm-.622-1.16v-3.37h1.728c.388 0 .738.028 1.052.084.313.055.58.147.802.276.23.129.405.304.525.525.12.211.18.474.18.787 0 .35-.083.64-.249.87a1.59 1.59 0 01-.636.539c-.267.128-.581.22-.94.276a8.629 8.629 0 01-1.121.069h-.566a23.298 23.298 0 01-.775-.056zm1.411-4.447h-1.411V3.3c.157-.018.332-.032.526-.041.193-.01.461-.014.802-.014a5.4 5.4 0 01.967.083c.305.055.568.143.789.262.231.11.41.263.539.456.129.184.194.414.194.69 0 .295-.065.54-.194.732-.12.194-.29.35-.512.47-.211.12-.465.202-.76.248a6.078 6.078 0 01-.94.07z" fill="#062633"/><path fill-rule="evenodd" clip-rule="evenodd" d="M23.899.05c.406 1.304.813 2.608 1.22 3.861l7.773 23.017 4.877 14.442c.026.1.051.188.077.276.025.087.05.175.076.275-.965.15-.965.15-1.22-.601C32.08 27.68 27.457 14.04 22.833.35a.701.701 0 01-.05-.175A.712.712 0 0022.73 0c.458.05.813.05 1.169.05zM15.716 14h3.886v-.511h-2.978l1.589-1.433c.744-.671 1.116-1.25 1.116-1.735 0-.4-.16-.72-.481-.959-.32-.241-.756-.362-1.307-.362-.59 0-1.061.14-1.414.42-.35.28-.525.647-.525 1.101h.753c0-.316.103-.562.31-.738.209-.179.5-.268.876-.268.312 0 .562.082.749.247a.806.806 0 01.281.634c0 .192-.058.378-.175.559-.114.178-.323.41-.627.697l-2.053 1.898V14zM.102 11.17l1.18 2.059h3.673c2.386 0 4.24.734 5.563 2.202 1.332 1.468 1.999 3.558 1.999 6.271v1.356c0 2.639-.629 4.687-1.887 6.144-1.247 1.468-3.02 2.213-5.32 2.234H3.364l.737 2.064 1.202.01c2.042 0 3.644-.446 5.213-1.34 1.57-.893 2.427-1.925 3.276-3.574.86-1.65 1.33-3.67 1.34-5.809v-1.085c0-2.191-.48-3.968-1.34-5.617-.849-1.649-1.685-2.691-3.275-3.574-1.58-.883-3.102-1.32-5.209-1.34H.102zm23.906 17.464c-1.4-.38-2.422-.845-3.062-1.396-.636-.556-.953-1.24-.953-2.053 0-.92.388-1.68 1.165-2.279.783-.604 1.798-.906 3.046-.906.85 0 1.607.155 2.27.465.67.31 1.186.738 1.55 1.284a3.13 3.13 0 01.552 1.788h-1.642c0-.705-.238-1.259-.714-1.66-.477-.406-1.149-.61-2.016-.61-.806 0-1.435.169-1.889.506-.448.331-.672.794-.672 1.387 0 .476.213.88.638 1.212.431.326 1.16.625 2.186.898 1.033.273 1.838.575 2.416.907.584.326 1.015.708 1.293 1.146.284.439.426.955.426 1.549 0 .946-.392 1.706-1.174 2.278-.783.567-1.83.85-3.14.85-.85 0-1.644-.152-2.381-.457-.737-.31-1.307-.733-1.71-1.268a2.977 2.977 0 01-.595-1.82h1.641c0 .705.275 1.264.826 1.676.555.406 1.295.61 2.22.61.862 0 1.522-.166 1.982-.498.46-.331.689-.783.689-1.355 0-.573-.213-1.014-.638-1.324-.425-.315-1.197-.625-2.314-.93zm25.828-5.697V40h4.91c1.54 0 2.902-.332 4.09-.996a6.744 6.744 0 002.754-2.836c.648-1.227.972-2.648.972-4.266v-.855c0-1.594-.32-3.008-.96-4.242-.641-1.235-1.547-2.188-2.72-2.86-1.163-.672-2.5-1.008-4.007-1.008h-5.04zM52.8 37.633V25.328h2.074c1.531 0 2.7.488 3.504 1.465.805.977 1.207 2.39 1.207 4.242v.95c-.016 1.82-.441 3.218-1.277 4.195-.828.968-2.02 1.453-3.575 1.453H52.8zm19.4-5.25h7.007v-2.344H72.2v-4.71h8.109v-2.392H69.236V40h11.156v-2.367H72.2v-5.25zm22.446 1.488c.531.406.797.984.797 1.734 0 .688-.262 1.243-.785 1.665-.516.414-1.29.62-2.32.62-1.196 0-2.114-.265-2.754-.796-.641-.532-.961-1.282-.961-2.25h-2.965c0 1.07.285 2.008.855 2.812.578.805 1.383 1.438 2.414 1.899 1.04.453 2.176.68 3.41.68 1.868 0 3.344-.419 4.43-1.255 1.094-.843 1.64-1.976 1.64-3.398 0-.875-.187-1.637-.562-2.285-.375-.656-.965-1.234-1.77-1.734-.804-.508-1.87-.957-3.198-1.348-1.329-.399-2.282-.805-2.86-1.219-.578-.422-.867-.945-.867-1.57 0-.742.266-1.32.797-1.735.539-.414 1.293-.62 2.262-.62 1.039 0 1.836.253 2.39.761.563.5.844 1.195.844 2.086h2.953c0-.984-.266-1.879-.797-2.684-.531-.812-1.262-1.437-2.191-1.875-.93-.437-1.989-.656-3.176-.656-1.79 0-3.246.445-4.371 1.336-1.117.89-1.676 2.023-1.676 3.398 0 1.57.777 2.844 2.332 3.82.813.509 1.906.97 3.281 1.384 1.375.414 2.325.824 2.848 1.23zM104.906 40h2.953V22.937h-2.953V40zm20.829-.387c1.094-.414 1.95-1.023 2.567-1.828v-6.539h-6.469v2.25h3.516v3.34c-.641.687-1.719 1.031-3.235 1.031-1.382 0-2.464-.508-3.246-1.523-.773-1.024-1.16-2.457-1.16-4.301V30.73c.024-1.851.379-3.253 1.067-4.207.695-.96 1.707-1.441 3.035-1.441 2.054 0 3.246 1.027 3.574 3.082h2.906c-.226-1.766-.898-3.117-2.015-4.055-1.118-.937-2.625-1.406-4.524-1.406-2.211 0-3.934.727-5.168 2.18-1.234 1.445-1.851 3.457-1.851 6.035v1.336c.023 1.61.332 3.02.925 4.23.602 1.203 1.453 2.13 2.555 2.778 1.102.648 2.367.972 3.797.972 1.391 0 2.633-.207 3.726-.62zM145.85 40h2.965V22.937h-2.942V35.09l-7.628-12.153h-2.965V40h2.965V27.895L145.85 40zm19.428 0h11.473v-2.273h-7.922l4.172-4.465c1.094-1.188 1.879-2.246 2.355-3.176.485-.938.727-1.832.727-2.684 0-1.468-.48-2.617-1.441-3.445-.954-.836-2.258-1.254-3.914-1.254-1.149 0-2.165.23-3.047.692a4.923 4.923 0 00-2.028 1.945c-.468.828-.703 1.762-.703 2.8h2.848c0-.976.254-1.745.762-2.308.507-.563 1.222-.844 2.144-.844.774 0 1.387.25 1.84.75.461.5.691 1.157.691 1.969 0 .617-.175 1.234-.527 1.852-.344.609-.926 1.37-1.746 2.285l-5.684 6.199V40zm35.636-6.129c.531.406.796.984.796 1.734 0 .688-.261 1.243-.785 1.665-.515.414-1.289.62-2.32.62-1.195 0-2.113-.265-2.754-.796-.641-.532-.961-1.282-.961-2.25h-2.965c0 1.07.285 2.008.856 2.812.578.805 1.383 1.438 2.414 1.899 1.039.453 2.176.68 3.41.68 1.867 0 3.344-.419 4.43-1.255 1.093-.843 1.64-1.976 1.64-3.398 0-.875-.187-1.637-.562-2.285-.375-.656-.965-1.234-1.77-1.734-.804-.508-1.871-.957-3.199-1.348-1.328-.399-2.281-.805-2.859-1.219-.578-.422-.868-.945-.868-1.57 0-.742.266-1.32.797-1.735.539-.414 1.293-.62 2.262-.62 1.039 0 1.836.253 2.391.761.562.5.843 1.195.843 2.086h2.954c0-.984-.266-1.879-.797-2.684-.532-.812-1.262-1.437-2.192-1.875-.929-.437-1.988-.656-3.175-.656-1.79 0-3.247.445-4.372 1.336-1.117.89-1.675 2.023-1.675 3.398 0 1.57.777 2.844 2.332 3.82.812.509 1.906.97 3.281 1.384 1.375.414 2.324.824 2.848 1.23zm17.091-8.543h5.32v-2.39H209.79v2.39h5.273V40h2.942V25.328zM229.447 40l1.383-3.973h6.61L238.834 40h3.094l-6.457-17.063h-2.66L226.365 40h3.082zm4.688-13.441l2.472 7.078h-4.945l2.473-7.078zm19.06-1.23h5.32v-2.392H244.98v2.391h5.273V40h2.942V25.328zM264.661 40h2.953V22.937h-2.953V40zm21.321-1.29c1.172-1.023 1.844-2.444 2.016-4.265h-2.953c-.156 1.22-.527 2.09-1.113 2.614-.586.523-1.461.785-2.625.785-1.274 0-2.243-.485-2.907-1.453-.656-.97-.984-2.375-.984-4.22v-1.51c.016-1.821.367-3.2 1.055-4.138.695-.945 1.687-1.418 2.976-1.418 1.11 0 1.949.274 2.52.82.578.54.937 1.423 1.078 2.65h2.953c-.188-1.868-.855-3.313-2.004-4.337-1.148-1.023-2.664-1.535-4.547-1.535-1.398 0-2.633.332-3.703.996-1.062.664-1.879 1.61-2.449 2.836-.57 1.227-.856 2.645-.856 4.254v1.594c.024 1.57.317 2.949.879 4.136.563 1.188 1.36 2.106 2.391 2.754 1.039.641 2.238.961 3.598.961 1.945 0 3.503-.507 4.675-1.523zM56.896 11.57c-.35-1.012-.687-1.951-1.01-2.817-.313-.856-.621-1.67-.926-2.444a78.487 78.487 0 00-.912-2.224c-.295-.7-.6-1.395-.913-2.085h-1.258c-.314.69-.623 1.386-.927 2.085-.295.71-.599 1.45-.913 2.224-.304.773-.617 1.588-.94 2.444a93.671 93.671 0 00-.995 2.817h1.48c.497-1.454.986-2.854 1.465-4.198.48-1.344.973-2.605 1.48-3.784a61.6 61.6 0 011.48 3.77 274.87 274.87 0 011.451 4.212h1.438zm73.162-2.817c.322.866.659 1.805 1.009 2.817h-1.438a259.914 259.914 0 00-1.452-4.212 60.741 60.741 0 00-1.479-3.77 62.972 62.972 0 00-1.48 3.784 339.58 339.58 0 00-1.466 4.198h-1.479a96.76 96.76 0 01.995-2.817c.323-.856.636-1.67.94-2.444.314-.774.618-1.515.913-2.224.304-.7.613-1.395.927-2.085h1.258c.314.69.618 1.386.913 2.085.304.71.608 1.45.912 2.224.305.773.613 1.588.927 2.444zM146.5 12c-.627 0-1.17-.096-1.632-.29a3.106 3.106 0 01-1.134-.787 3.398 3.398 0 01-.663-1.202 5.136 5.136 0 01-.208-1.491V2.223h1.342v5.855c0 .958.212 1.653.636 2.085.424.433.977.65 1.659.65.341 0 .65-.051.927-.152.285-.11.53-.277.733-.498a2.27 2.27 0 00.47-.842c.11-.35.166-.764.166-1.243V2.223h1.341V8.23c0 .534-.074 1.031-.221 1.491a3.15 3.15 0 01-.664 1.202 3.09 3.09 0 01-1.134.787c-.452.194-.991.29-1.618.29zm-71.968-.207v-1.16h-4.425v-8.41h-1.341v9.57h5.766zm17.598-1.16v1.16h-5.766v-9.57h1.341v8.41h4.425zm13.784 1.228c.231.01.443.014.637.014 1.53 0 2.645-.24 3.346-.718.71-.488 1.065-1.21 1.065-2.168 0-.654-.166-1.16-.498-1.52-.332-.358-.779-.62-1.341-.786.415-.166.746-.415.995-.746.249-.34.374-.774.374-1.298 0-.47-.102-.866-.305-1.188a2.215 2.215 0 00-.843-.773 3.75 3.75 0 00-1.259-.428 9.094 9.094 0 00-1.548-.125 17.658 17.658 0 00-1.3.055c-.222.019-.443.042-.664.07a5.18 5.18 0 00-.608.11v9.28c.184.046.387.083.608.11a15.884 15.884 0 001.341.111zm-.622-1.16v-3.37h1.728c.388 0 .738.028 1.052.084.313.055.58.147.802.276.23.129.405.304.525.525.12.211.18.474.18.787 0 .35-.083.64-.249.87a1.59 1.59 0 01-.636.539c-.267.128-.581.22-.94.276a8.629 8.629 0 01-1.121.069h-.566a23.298 23.298 0 01-.775-.056zm1.411-4.447h-1.411V3.3c.157-.018.332-.032.526-.041.193-.01.461-.014.802-.014a5.4 5.4 0 01.967.083c.305.055.568.143.789.262.231.11.41.263.539.456.129.184.194.414.194.69 0 .295-.065.54-.194.732-.12.194-.29.35-.512.47-.211.12-.465.202-.76.248a6.078 6.078 0 01-.94.07z" fill="#226180"/><path fill-rule="evenodd" clip-rule="evenodd" d="M23.899.05c.406 1.304.813 2.608 1.22 3.861l7.773 23.017 4.877 14.442c.026.1.051.188.077.276.025.087.05.175.076.275-.965.15-.965.15-1.22-.601C32.08 27.68 27.457 14.04 22.833.35a.701.701 0 01-.05-.175A.712.712 0 0022.73 0c.458.05.813.05 1.169.05zM15.716 14h3.886v-.511h-2.978l1.589-1.433c.744-.671 1.116-1.25 1.116-1.735 0-.4-.16-.72-.481-.959-.32-.241-.756-.362-1.307-.362-.59 0-1.061.14-1.414.42-.35.28-.525.647-.525 1.101h.753c0-.316.103-.562.31-.738.209-.179.5-.268.876-.268.312 0 .562.082.749.247a.806.806 0 01.281.634c0 .192-.058.378-.175.559-.114.178-.323.41-.627.697l-2.053 1.898V14zM.102 11.17l1.18 2.059h3.673c2.386 0 4.24.734 5.563 2.202 1.332 1.468 1.999 3.558 1.999 6.271v1.356c0 2.639-.629 4.687-1.887 6.144-1.247 1.468-3.02 2.213-5.32 2.234H3.364l.737 2.064 1.202.01c2.042 0 3.644-.446 5.213-1.34 1.57-.893 2.427-1.925 3.276-3.574.86-1.65 1.33-3.67 1.34-5.809v-1.085c0-2.191-.48-3.968-1.34-5.617-.849-1.649-1.685-2.691-3.275-3.574-1.58-.883-3.102-1.32-5.209-1.34H.102zm23.906 17.464c-1.4-.38-2.422-.845-3.062-1.396-.636-.556-.953-1.24-.953-2.053 0-.92.388-1.68 1.165-2.279.783-.604 1.798-.906 3.046-.906.85 0 1.607.155 2.27.465.67.31 1.186.738 1.55 1.284a3.13 3.13 0 01.552 1.788h-1.642c0-.705-.238-1.259-.714-1.66-.477-.406-1.149-.61-2.016-.61-.806 0-1.435.169-1.889.506-.448.331-.672.794-.672 1.387 0 .476.213.88.638 1.212.431.326 1.16.625 2.186.898 1.033.273 1.838.575 2.416.907.584.326 1.015.708 1.293 1.146.284.439.426.955.426 1.549 0 .946-.392 1.706-1.174 2.278-.783.567-1.83.85-3.14.85-.85 0-1.644-.152-2.381-.457-.737-.31-1.307-.733-1.71-1.268a2.977 2.977 0 01-.595-1.82h1.641c0 .705.275 1.264.826 1.676.555.406 1.295.61 2.22.61.862 0 1.522-.166 1.982-.498.46-.331.689-.783.689-1.355 0-.573-.213-1.014-.638-1.324-.425-.315-1.197-.625-2.314-.93zm25.828-5.697V40h4.91c1.54 0 2.902-.332 4.09-.996a6.744 6.744 0 002.754-2.836c.648-1.227.972-2.648.972-4.266v-.855c0-1.594-.32-3.008-.96-4.242-.641-1.235-1.547-2.188-2.72-2.86-1.163-.672-2.5-1.008-4.007-1.008h-5.04zM52.8 37.633V25.328h2.074c1.531 0 2.7.488 3.504 1.465.805.977 1.207 2.39 1.207 4.242v.95c-.016 1.82-.441 3.218-1.277 4.195-.828.968-2.02 1.453-3.575 1.453H52.8zm19.4-5.25h7.007v-2.344H72.2v-4.71h8.109v-2.392H69.236V40h11.156v-2.367H72.2v-5.25zm22.446 1.488c.531.406.797.984.797 1.734 0 .688-.262 1.243-.785 1.665-.516.414-1.29.62-2.32.62-1.196 0-2.114-.265-2.754-.796-.641-.532-.961-1.282-.961-2.25h-2.965c0 1.07.285 2.008.855 2.812.578.805 1.383 1.438 2.414 1.899 1.04.453 2.176.68 3.41.68 1.868 0 3.344-.419 4.43-1.255 1.094-.843 1.64-1.976 1.64-3.398 0-.875-.187-1.637-.562-2.285-.375-.656-.965-1.234-1.77-1.734-.804-.508-1.87-.957-3.198-1.348-1.329-.399-2.282-.805-2.86-1.219-.578-.422-.867-.945-.867-1.57 0-.742.266-1.32.797-1.735.539-.414 1.293-.62 2.262-.62 1.039 0 1.836.253 2.39.761.563.5.844 1.195.844 2.086h2.953c0-.984-.266-1.879-.797-2.684-.531-.812-1.262-1.437-2.191-1.875-.93-.437-1.989-.656-3.176-.656-1.79 0-3.246.445-4.371 1.336-1.117.89-1.676 2.023-1.676 3.398 0 1.57.777 2.844 2.332 3.82.813.509 1.906.97 3.281 1.384 1.375.414 2.325.824 2.848 1.23zM104.906 40h2.953V22.937h-2.953V40zm20.829-.387c1.094-.414 1.95-1.023 2.567-1.828v-6.539h-6.469v2.25h3.516v3.34c-.641.687-1.719 1.031-3.235 1.031-1.382 0-2.464-.508-3.246-1.523-.773-1.024-1.16-2.457-1.16-4.301V30.73c.024-1.851.379-3.253 1.067-4.207.695-.96 1.707-1.441 3.035-1.441 2.054 0 3.246 1.027 3.574 3.082h2.906c-.226-1.766-.898-3.117-2.015-4.055-1.118-.937-2.625-1.406-4.524-1.406-2.211 0-3.934.727-5.168 2.18-1.234 1.445-1.851 3.457-1.851 6.035v1.336c.023 1.61.332 3.02.925 4.23.602 1.203 1.453 2.13 2.555 2.778 1.102.648 2.367.972 3.797.972 1.391 0 2.633-.207 3.726-.62zM145.85 40h2.965V22.937h-2.942V35.09l-7.628-12.153h-2.965V40h2.965V27.895L145.85 40zm19.428 0h11.473v-2.273h-7.922l4.172-4.465c1.094-1.188 1.879-2.246 2.355-3.176.485-.938.727-1.832.727-2.684 0-1.468-.48-2.617-1.441-3.445-.954-.836-2.258-1.254-3.914-1.254-1.149 0-2.165.23-3.047.692a4.923 4.923 0 00-2.028 1.945c-.468.828-.703 1.762-.703 2.8h2.848c0-.976.254-1.745.762-2.308.507-.563 1.222-.844 2.144-.844.774 0 1.387.25 1.84.75.461.5.691 1.157.691 1.969 0 .617-.175 1.234-.527 1.852-.344.609-.926 1.37-1.746 2.285l-5.684 6.199V40zm35.636-6.129c.531.406.796.984.796 1.734 0 .688-.261 1.243-.785 1.665-.515.414-1.289.62-2.32.62-1.195 0-2.113-.265-2.754-.796-.641-.532-.961-1.282-.961-2.25h-2.965c0 1.07.285 2.008.856 2.812.578.805 1.383 1.438 2.414 1.899 1.039.453 2.176.68 3.41.68 1.867 0 3.344-.419 4.43-1.255 1.093-.843 1.64-1.976 1.64-3.398 0-.875-.187-1.637-.562-2.285-.375-.656-.965-1.234-1.77-1.734-.804-.508-1.871-.957-3.199-1.348-1.328-.399-2.281-.805-2.859-1.219-.578-.422-.868-.945-.868-1.57 0-.742.266-1.32.797-1.735.539-.414 1.293-.62 2.262-.62 1.039 0 1.836.253 2.391.761.562.5.843 1.195.843 2.086h2.954c0-.984-.266-1.879-.797-2.684-.532-.812-1.262-1.437-2.192-1.875-.929-.437-1.988-.656-3.175-.656-1.79 0-3.247.445-4.372 1.336-1.117.89-1.675 2.023-1.675 3.398 0 1.57.777 2.844 2.332 3.82.812.509 1.906.97 3.281 1.384 1.375.414 2.324.824 2.848 1.23zm17.091-8.543h5.32v-2.39H209.79v2.39h5.273V40h2.942V25.328zM229.447 40l1.383-3.973h6.61L238.834 40h3.094l-6.457-17.063h-2.66L226.365 40h3.082zm4.688-13.441l2.472 7.078h-4.945l2.473-7.078zm19.06-1.23h5.32v-2.392H244.98v2.391h5.273V40h2.942V25.328zM264.661 40h2.953V22.937h-2.953V40zm21.321-1.29c1.172-1.023 1.844-2.444 2.016-4.265h-2.953c-.156 1.22-.527 2.09-1.113 2.614-.586.523-1.461.785-2.625.785-1.274 0-2.243-.485-2.907-1.453-.656-.97-.984-2.375-.984-4.22v-1.51c.016-1.821.367-3.2 1.055-4.138.695-.945 1.687-1.418 2.976-1.418 1.11 0 1.949.274 2.52.82.578.54.937 1.423 1.078 2.65h2.953c-.188-1.868-.855-3.313-2.004-4.337-1.148-1.023-2.664-1.535-4.547-1.535-1.398 0-2.633.332-3.703.996-1.062.664-1.879 1.61-2.449 2.836-.57 1.227-.856 2.645-.856 4.254v1.594c.024 1.57.317 2.949.879 4.136.563 1.188 1.36 2.106 2.391 2.754 1.039.641 2.238.961 3.598.961 1.945 0 3.503-.507 4.675-1.523zM56.896 11.57c-.35-1.012-.687-1.951-1.01-2.817-.313-.856-.621-1.67-.926-2.444a78.487 78.487 0 00-.912-2.224c-.295-.7-.6-1.395-.913-2.085h-1.258c-.314.69-.623 1.386-.927 2.085-.295.71-.599 1.45-.913 2.224-.304.773-.617 1.588-.94 2.444a93.671 93.671 0 00-.995 2.817h1.48c.497-1.454.986-2.854 1.465-4.198.48-1.344.973-2.605 1.48-3.784a61.6 61.6 0 011.48 3.77 274.87 274.87 0 011.451 4.212h1.438zm73.162-2.817c.322.866.659 1.805 1.009 2.817h-1.438a259.914 259.914 0 00-1.452-4.212 60.741 60.741 0 00-1.479-3.77 62.972 62.972 0 00-1.48 3.784 339.58 339.58 0 00-1.466 4.198h-1.479a96.76 96.76 0 01.995-2.817c.323-.856.636-1.67.94-2.444.314-.774.618-1.515.913-2.224.304-.7.613-1.395.927-2.085h1.258c.314.69.618 1.386.913 2.085.304.71.608 1.45.912 2.224.305.773.613 1.588.927 2.444zM146.5 12c-.627 0-1.17-.096-1.632-.29a3.106 3.106 0 01-1.134-.787 3.398 3.398 0 01-.663-1.202 5.136 5.136 0 01-.208-1.491V2.223h1.342v5.855c0 .958.212 1.653.636 2.085.424.433.977.65 1.659.65.341 0 .65-.051.927-.152.285-.11.53-.277.733-.498a2.27 2.27 0 00.47-.842c.11-.35.166-.764.166-1.243V2.223h1.341V8.23c0 .534-.074 1.031-.221 1.491a3.15 3.15 0 01-.664 1.202 3.09 3.09 0 01-1.134.787c-.452.194-.991.29-1.618.29zm-71.968-.207v-1.16h-4.425v-8.41h-1.341v9.57h5.766zm17.598-1.16v1.16h-5.766v-9.57h1.341v8.41h4.425zm13.784 1.228c.231.01.443.014.637.014 1.53 0 2.645-.24 3.346-.718.71-.488 1.065-1.21 1.065-2.168 0-.654-.166-1.16-.498-1.52-.332-.358-.779-.62-1.341-.786.415-.166.746-.415.995-.746.249-.34.374-.774.374-1.298 0-.47-.102-.866-.305-1.188a2.215 2.215 0 00-.843-.773 3.75 3.75 0 00-1.259-.428 9.094 9.094 0 00-1.548-.125 17.658 17.658 0 00-1.3.055c-.222.019-.443.042-.664.07a5.18 5.18 0 00-.608.11v9.28c.184.046.387.083.608.11a15.884 15.884 0 001.341.111zm-.622-1.16v-3.37h1.728c.388 0 .738.028 1.052.084.313.055.58.147.802.276.23.129.405.304.525.525.12.211.18.474.18.787 0 .35-.083.64-.249.87a1.59 1.59 0 01-.636.539c-.267.128-.581.22-.94.276a8.629 8.629 0 01-1.121.069h-.566a23.298 23.298 0 01-.775-.056zm1.411-4.447h-1.411V3.3c.157-.018.332-.032.526-.041.193-.01.461-.014.802-.014a5.4 5.4 0 01.967.083c.305.055.568.143.789.262.231.11.41.263.539.456.129.184.194.414.194.69 0 .295-.065.54-.194.732-.12.194-.29.35-.512.47-.211.12-.465.202-.76.248a6.078 6.078 0 01-.94.07z" fill="#549DA1"/><path fill-rule="evenodd" clip-rule="evenodd" d="M23.899.05c.406 1.304.813 2.608 1.22 3.861l7.773 23.017 4.877 14.442c.026.1.051.188.077.276.025.087.05.175.076.275-.965.15-.965.15-1.22-.601C32.08 27.68 27.457 14.04 22.833.35a.701.701 0 01-.05-.175A.712.712 0 0022.73 0c.458.05.813.05 1.169.05zM15.716 14h3.886v-.511h-2.978l1.589-1.433c.744-.671 1.116-1.25 1.116-1.735 0-.4-.16-.72-.481-.959-.32-.241-.756-.362-1.307-.362-.59 0-1.061.14-1.414.42-.35.28-.525.647-.525 1.101h.753c0-.316.103-.562.31-.738.209-.179.5-.268.876-.268.312 0 .562.082.749.247a.806.806 0 01.281.634c0 .192-.058.378-.175.559-.114.178-.323.41-.627.697l-2.053 1.898V14zM.102 11.17l1.18 2.059h3.673c2.386 0 4.24.734 5.563 2.202 1.332 1.468 1.999 3.558 1.999 6.271v1.356c0 2.639-.629 4.687-1.887 6.144-1.247 1.468-3.02 2.213-5.32 2.234H3.364l.737 2.064 1.202.01c2.042 0 3.644-.446 5.213-1.34 1.57-.893 2.427-1.925 3.276-3.574.86-1.65 1.33-3.67 1.34-5.809v-1.085c0-2.191-.48-3.968-1.34-5.617-.849-1.649-1.685-2.691-3.275-3.574-1.58-.883-3.102-1.32-5.209-1.34H.102zm23.906 17.464c-1.4-.38-2.422-.845-3.062-1.396-.636-.556-.953-1.24-.953-2.053 0-.92.388-1.68 1.165-2.279.783-.604 1.798-.906 3.046-.906.85 0 1.607.155 2.27.465.67.31 1.186.738 1.55 1.284a3.13 3.13 0 01.552 1.788h-1.642c0-.705-.238-1.259-.714-1.66-.477-.406-1.149-.61-2.016-.61-.806 0-1.435.169-1.889.506-.448.331-.672.794-.672 1.387 0 .476.213.88.638 1.212.431.326 1.16.625 2.186.898 1.033.273 1.838.575 2.416.907.584.326 1.015.708 1.293 1.146.284.439.426.955.426 1.549 0 .946-.392 1.706-1.174 2.278-.783.567-1.83.85-3.14.85-.85 0-1.644-.152-2.381-.457-.737-.31-1.307-.733-1.71-1.268a2.977 2.977 0 01-.595-1.82h1.641c0 .705.275 1.264.826 1.676.555.406 1.295.61 2.22.61.862 0 1.522-.166 1.982-.498.46-.331.689-.783.689-1.355 0-.573-.213-1.014-.638-1.324-.425-.315-1.197-.625-2.314-.93zm25.828-5.697V40h4.91c1.54 0 2.902-.332 4.09-.996a6.744 6.744 0 002.754-2.836c.648-1.227.972-2.648.972-4.266v-.855c0-1.594-.32-3.008-.96-4.242-.641-1.235-1.547-2.188-2.72-2.86-1.163-.672-2.5-1.008-4.007-1.008h-5.04zM52.8 37.633V25.328h2.074c1.531 0 2.7.488 3.504 1.465.805.977 1.207 2.39 1.207 4.242v.95c-.016 1.82-.441 3.218-1.277 4.195-.828.968-2.02 1.453-3.575 1.453H52.8zm19.4-5.25h7.007v-2.344H72.2v-4.71h8.109v-2.392H69.236V40h11.156v-2.367H72.2v-5.25zm22.446 1.488c.531.406.797.984.797 1.734 0 .688-.262 1.243-.785 1.665-.516.414-1.29.62-2.32.62-1.196 0-2.114-.265-2.754-.796-.641-.532-.961-1.282-.961-2.25h-2.965c0 1.07.285 2.008.855 2.812.578.805 1.383 1.438 2.414 1.899 1.04.453 2.176.68 3.41.68 1.868 0 3.344-.419 4.43-1.255 1.094-.843 1.64-1.976 1.64-3.398 0-.875-.187-1.637-.562-2.285-.375-.656-.965-1.234-1.77-1.734-.804-.508-1.87-.957-3.198-1.348-1.329-.399-2.282-.805-2.86-1.219-.578-.422-.867-.945-.867-1.57 0-.742.266-1.32.797-1.735.539-.414 1.293-.62 2.262-.62 1.039 0 1.836.253 2.39.761.563.5.844 1.195.844 2.086h2.953c0-.984-.266-1.879-.797-2.684-.531-.812-1.262-1.437-2.191-1.875-.93-.437-1.989-.656-3.176-.656-1.79 0-3.246.445-4.371 1.336-1.117.89-1.676 2.023-1.676 3.398 0 1.57.777 2.844 2.332 3.82.813.509 1.906.97 3.281 1.384 1.375.414 2.325.824 2.848 1.23zM104.906 40h2.953V22.937h-2.953V40zm20.829-.387c1.094-.414 1.95-1.023 2.567-1.828v-6.539h-6.469v2.25h3.516v3.34c-.641.687-1.719 1.031-3.235 1.031-1.382 0-2.464-.508-3.246-1.523-.773-1.024-1.16-2.457-1.16-4.301V30.73c.024-1.851.379-3.253 1.067-4.207.695-.96 1.707-1.441 3.035-1.441 2.054 0 3.246 1.027 3.574 3.082h2.906c-.226-1.766-.898-3.117-2.015-4.055-1.118-.937-2.625-1.406-4.524-1.406-2.211 0-3.934.727-5.168 2.18-1.234 1.445-1.851 3.457-1.851 6.035v1.336c.023 1.61.332 3.02.925 4.23.602 1.203 1.453 2.13 2.555 2.778 1.102.648 2.367.972 3.797.972 1.391 0 2.633-.207 3.726-.62zM145.85 40h2.965V22.937h-2.942V35.09l-7.628-12.153h-2.965V40h2.965V27.895L145.85 40zm19.428 0h11.473v-2.273h-7.922l4.172-4.465c1.094-1.188 1.879-2.246 2.355-3.176.485-.938.727-1.832.727-2.684 0-1.468-.48-2.617-1.441-3.445-.954-.836-2.258-1.254-3.914-1.254-1.149 0-2.165.23-3.047.692a4.923 4.923 0 00-2.028 1.945c-.468.828-.703 1.762-.703 2.8h2.848c0-.976.254-1.745.762-2.308.507-.563 1.222-.844 2.144-.844.774 0 1.387.25 1.84.75.461.5.691 1.157.691 1.969 0 .617-.175 1.234-.527 1.852-.344.609-.926 1.37-1.746 2.285l-5.684 6.199V40zm35.636-6.129c.531.406.796.984.796 1.734 0 .688-.261 1.243-.785 1.665-.515.414-1.289.62-2.32.62-1.195 0-2.113-.265-2.754-.796-.641-.532-.961-1.282-.961-2.25h-2.965c0 1.07.285 2.008.856 2.812.578.805 1.383 1.438 2.414 1.899 1.039.453 2.176.68 3.41.68 1.867 0 3.344-.419 4.43-1.255 1.093-.843 1.64-1.976 1.64-3.398 0-.875-.187-1.637-.562-2.285-.375-.656-.965-1.234-1.77-1.734-.804-.508-1.871-.957-3.199-1.348-1.328-.399-2.281-.805-2.859-1.219-.578-.422-.868-.945-.868-1.57 0-.742.266-1.32.797-1.735.539-.414 1.293-.62 2.262-.62 1.039 0 1.836.253 2.391.761.562.5.843 1.195.843 2.086h2.954c0-.984-.266-1.879-.797-2.684-.532-.812-1.262-1.437-2.192-1.875-.929-.437-1.988-.656-3.175-.656-1.79 0-3.247.445-4.372 1.336-1.117.89-1.675 2.023-1.675 3.398 0 1.57.777 2.844 2.332 3.82.812.509 1.906.97 3.281 1.384 1.375.414 2.324.824 2.848 1.23zm17.091-8.543h5.32v-2.39H209.79v2.39h5.273V40h2.942V25.328zM229.447 40l1.383-3.973h6.61L238.834 40h3.094l-6.457-17.063h-2.66L226.365 40h3.082zm4.688-13.441l2.472 7.078h-4.945l2.473-7.078zm19.06-1.23h5.32v-2.392H244.98v2.391h5.273V40h2.942V25.328zM264.661 40h2.953V22.937h-2.953V40zm21.321-1.29c1.172-1.023 1.844-2.444 2.016-4.265h-2.953c-.156 1.22-.527 2.09-1.113 2.614-.586.523-1.461.785-2.625.785-1.274 0-2.243-.485-2.907-1.453-.656-.97-.984-2.375-.984-4.22v-1.51c.016-1.821.367-3.2 1.055-4.138.695-.945 1.687-1.418 2.976-1.418 1.11 0 1.949.274 2.52.82.578.54.937 1.423 1.078 2.65h2.953c-.188-1.868-.855-3.313-2.004-4.337-1.148-1.023-2.664-1.535-4.547-1.535-1.398 0-2.633.332-3.703.996-1.062.664-1.879 1.61-2.449 2.836-.57 1.227-.856 2.645-.856 4.254v1.594c.024 1.57.317 2.949.879 4.136.563 1.188 1.36 2.106 2.391 2.754 1.039.641 2.238.961 3.598.961 1.945 0 3.503-.507 4.675-1.523zM56.896 11.57c-.35-1.012-.687-1.951-1.01-2.817-.313-.856-.621-1.67-.926-2.444a78.487 78.487 0 00-.912-2.224c-.295-.7-.6-1.395-.913-2.085h-1.258c-.314.69-.623 1.386-.927 2.085-.295.71-.599 1.45-.913 2.224-.304.773-.617 1.588-.94 2.444a93.671 93.671 0 00-.995 2.817h1.48c.497-1.454.986-2.854 1.465-4.198.48-1.344.973-2.605 1.48-3.784a61.6 61.6 0 011.48 3.77 274.87 274.87 0 011.451 4.212h1.438zm73.162-2.817c.322.866.659 1.805 1.009 2.817h-1.438a259.914 259.914 0 00-1.452-4.212 60.741 60.741 0 00-1.479-3.77 62.972 62.972 0 00-1.48 3.784 339.58 339.58 0 00-1.466 4.198h-1.479a96.76 96.76 0 01.995-2.817c.323-.856.636-1.67.94-2.444.314-.774.618-1.515.913-2.224.304-.7.613-1.395.927-2.085h1.258c.314.69.618 1.386.913 2.085.304.71.608 1.45.912 2.224.305.773.613 1.588.927 2.444zM146.5 12c-.627 0-1.17-.096-1.632-.29a3.106 3.106 0 01-1.134-.787 3.398 3.398 0 01-.663-1.202 5.136 5.136 0 01-.208-1.491V2.223h1.342v5.855c0 .958.212 1.653.636 2.085.424.433.977.65 1.659.65.341 0 .65-.051.927-.152.285-.11.53-.277.733-.498a2.27 2.27 0 00.47-.842c.11-.35.166-.764.166-1.243V2.223h1.341V8.23c0 .534-.074 1.031-.221 1.491a3.15 3.15 0 01-.664 1.202 3.09 3.09 0 01-1.134.787c-.452.194-.991.29-1.618.29zm-71.968-.207v-1.16h-4.425v-8.41h-1.341v9.57h5.766zm17.598-1.16v1.16h-5.766v-9.57h1.341v8.41h4.425zm13.784 1.228c.231.01.443.014.637.014 1.53 0 2.645-.24 3.346-.718.71-.488 1.065-1.21 1.065-2.168 0-.654-.166-1.16-.498-1.52-.332-.358-.779-.62-1.341-.786.415-.166.746-.415.995-.746.249-.34.374-.774.374-1.298 0-.47-.102-.866-.305-1.188a2.215 2.215 0 00-.843-.773 3.75 3.75 0 00-1.259-.428 9.094 9.094 0 00-1.548-.125 17.658 17.658 0 00-1.3.055c-.222.019-.443.042-.664.07a5.18 5.18 0 00-.608.11v9.28c.184.046.387.083.608.11a15.884 15.884 0 001.341.111zm-.622-1.16v-3.37h1.728c.388 0 .738.028 1.052.084.313.055.58.147.802.276.23.129.405.304.525.525.12.211.18.474.18.787 0 .35-.083.64-.249.87a1.59 1.59 0 01-.636.539c-.267.128-.581.22-.94.276a8.629 8.629 0 01-1.121.069h-.566a23.298 23.298 0 01-.775-.056zm1.411-4.447h-1.411V3.3c.157-.018.332-.032.526-.041.193-.01.461-.014.802-.014a5.4 5.4 0 01.967.083c.305.055.568.143.789.262.231.11.41.263.539.456.129.184.194.414.194.69 0 .295-.065.54-.194.732-.12.194-.29.35-.512.47-.211.12-.465.202-.76.248a6.078 6.078 0 01-.94.07z" fill="#005B8B"/></svg>