<svg width="270" height="50" fill="none" xmlns="http://www.w3.org/2000/svg"><path fill-rule="evenodd" clip-rule="evenodd" d="M215.566 17.88a337.95 337.95 0 012.65 7.458h-3.776a734.355 734.355 0 00-3.812-11.152 163.231 163.231 0 00-3.885-9.98 169.036 169.036 0 00-3.885 10.017 917.064 917.064 0 00-3.85 11.115h-3.884a251.505 251.505 0 012.614-7.458c.847-2.267 1.67-4.425 2.468-6.472.824-2.048 1.623-4.01 2.397-5.887.799-1.853 1.61-3.693 2.433-5.521h3.304a220.529 220.529 0 012.397 5.521 211.824 211.824 0 012.396 5.887 290 290 0 012.433 6.472zm-194.755 0c.847 2.291 1.73 4.778 2.65 7.459h-3.775a725.542 725.542 0 00-3.813-11.152 162.198 162.198 0 00-3.885-9.982 170 170 0 00-3.885 10.018 924.648 924.648 0 00-3.85 11.116H.37a249.813 249.813 0 012.614-7.459c.847-2.267 1.67-4.424 2.47-6.472.822-2.048 1.621-4.01 2.396-5.887.798-1.852 1.61-3.693 2.432-5.52h3.304a222.743 222.743 0 012.397 5.52 209.078 209.078 0 012.396 5.887c.8 2.048 1.61 4.205 2.433 6.472zm237.931 8.596c-1.646 0-3.074-.256-4.285-.768-1.21-.512-2.203-1.206-2.977-2.084-.775-.902-1.355-1.962-1.743-3.181-.363-1.219-.545-2.535-.545-3.95V.59h3.523v15.503c0 2.535.556 4.375 1.67 5.521 1.113 1.146 2.565 1.719 4.357 1.719.896 0 1.706-.135 2.433-.403a5.042 5.042 0 001.924-1.316c.533-.585.944-1.328 1.234-2.23.291-.927.436-2.023.436-3.291V.589h3.522v15.905c0 1.414-.193 2.73-.58 3.949-.365 1.219-.945 2.28-1.744 3.18-.775.878-1.767 1.573-2.977 2.085-1.186.512-2.603.768-4.248.768zm-188.974-.549v-3.07H58.15V.588h-3.522v25.338h15.141zm46.209-3.07v3.07h-15.141V.59h3.523v22.267h11.618zm36.197 3.252c.605.024 1.162.037 1.67.037 4.019 0 6.947-.634 8.787-1.901 1.864-1.292 2.796-3.206 2.796-5.741 0-1.73-.435-3.072-1.307-4.022-.871-.95-2.045-1.645-3.522-2.084 1.09-.439 1.961-1.097 2.615-1.974.653-.902.98-2.048.98-3.438 0-1.243-.267-2.29-.799-3.144-.533-.853-1.271-1.536-2.216-2.048-.918-.536-2.02-.914-3.303-1.133a23.716 23.716 0 00-4.067-.33 45.88 45.88 0 00-3.413.146c-.581.05-1.162.111-1.743.184a13.52 13.52 0 00-1.597.293v24.57c.484.122 1.016.22 1.597.293a41.852 41.852 0 003.522.292zm-1.633-3.071v-8.922h4.538c1.017 0 1.936.074 2.759.22.824.146 1.525.39 2.106.73a3.446 3.446 0 011.38 1.39c.315.561.472 1.256.472 2.085 0 .926-.218 1.694-.654 2.303a4.162 4.162 0 01-1.67 1.426c-.701.341-1.525.585-2.468.732a22.59 22.59 0 01-2.942.182h-1.488a61.55 61.55 0 01-1.089-.073 39.313 39.313 0 01-.944-.073zm3.703-11.774h-3.703V3.44c.41-.049.871-.085 1.379-.11a47.075 47.075 0 012.106-.036c.895 0 1.743.073 2.541.219.799.146 1.49.378 2.07.695.606.292 1.077.695 1.417 1.207.338.487.508 1.096.508 1.828 0 .78-.17 1.426-.508 1.938-.315.511-.763.925-1.345 1.243-.556.317-1.222.536-1.996.658s-1.597.182-2.469.182zM2.348 43.854c-.937 0-1.405.322-1.405.968 0 .198.043.366.13.502.08.143.19.264.332.363.142.106.305.196.49.27.178.075.37.15.573.224.234.08.456.17.665.27.21.105.391.226.545.362.155.143.278.31.37.503.086.192.13.425.13.698 0 .565-.191 1.005-.573 1.322-.382.316-.91.474-1.58.474-.39 0-.74-.043-1.055-.13-.32-.08-.554-.17-.702-.27l.287-.735c.129.08.323.158.582.232.252.081.548.122.887.122.173 0 .333-.02.48-.056.149-.038.278-.093.389-.168a.87.87 0 00.268-.288.815.815 0 00.092-.4.866.866 0 00-.101-.438 1.064 1.064 0 00-.287-.317 2.754 2.754 0 00-.425-.241 9.817 9.817 0 00-.545-.224 11.21 11.21 0 01-.758-.335 2.368 2.368 0 01-.6-.4 1.57 1.57 0 01-.398-.559A1.921 1.921 0 010 44.831c0-.565.206-.999.62-1.303.406-.304.982-.456 1.728-.456.252 0 .486.019.702.056.21.03.397.068.564.111.166.05.311.1.434.15.117.055.21.102.277.14l-.268.744a3.979 3.979 0 00-.647-.27c-.29-.1-.643-.15-1.062-.15zm34.085 1.315c-.16.422-.24.91-.24 1.462 0 .552.08 1.04.24 1.461.166.422.388.776.665 1.061.284.28.61.49.98.633.376.143.773.214 1.192.214a3.15 3.15 0 001.165-.214c.37-.143.693-.354.97-.633.278-.285.496-.639.657-1.06.166-.423.25-.91.25-1.462 0-.552-.084-1.04-.25-1.462a2.956 2.956 0 00-.657-1.05c-.277-.287-.6-.5-.97-.643a3.16 3.16 0 00-1.165-.215c-.419 0-.816.072-1.192.215a2.77 2.77 0 00-.98.642c-.277.279-.499.63-.665 1.051zm.85 2.532a3.658 3.658 0 01-.148-1.07c0-.391.05-.745.148-1.061.099-.323.237-.596.416-.82.185-.222.407-.393.666-.511.264-.124.56-.186.887-.186.326 0 .62.062.878.186.259.118.477.289.656.512.185.223.327.496.425.819.099.316.148.67.148 1.06 0 .392-.05.749-.148 1.071a2.34 2.34 0 01-.425.81 1.854 1.854 0 01-.656.52 2.094 2.094 0 01-.878.178c-.327 0-.623-.06-.887-.177a1.943 1.943 0 01-.666-.521 2.45 2.45 0 01-.416-.81zm37.463 2.16v-6.45h3.863v.772h-2.966v1.945h2.634v.763h-2.635v2.97h-.896zm42.562-5.669v-.782h-4.926v.782h2.015v5.668h.896v-5.668h2.015zm37.518 1.294c-.258.831-.52 1.6-.785 2.308-.264.707-.53 1.396-.795 2.066h-.896a32.518 32.518 0 01-.869-3.006 62.088 62.088 0 01-.694-3.444h.944c.085.484.175.968.267 1.452.093.484.189.956.287 1.415.098.453.198.887.295 1.303.099.416.201.8.305 1.154.247-.651.509-1.365.787-2.14.277-.782.535-1.59.776-2.42h.777c.24.83.502 1.638.785 2.42.283.775.548 1.489.794 2.14.099-.348.198-.73.297-1.145.098-.416.194-.85.286-1.303.098-.459.194-.93.287-1.415.092-.49.181-.977.268-1.46h.914a60.549 60.549 0 01-.711 3.443 32.563 32.563 0 01-.85 3.006h-.897a64.262 64.262 0 01-.795-2.066 51.2 51.2 0 01-.777-2.308zm39.884 3.632c.1.287.205.58.318.88h1.053c-.265-.733-.513-1.41-.745-2.03-.232-.627-.46-1.22-.685-1.78a49.019 49.019 0 00-1.341-3.12h-.884c-.238.5-.466 1.007-.685 1.52a70.93 70.93 0 00-.665 1.6 175.345 175.345 0 00-1.42 3.81h1.003l.625-1.77h3.118c.106.3.209.597.308.89zm-1.221-3.37c.212.54.423 1.1.635 1.68h-2.562c.205-.58.411-1.14.616-1.68.212-.547.433-1.07.665-1.57.225.5.441 1.023.646 1.57zm37.55 1.41c.098.124.221.289.369.493.154.199.311.422.471.67.161.242.318.497.472.763.16.267.296.525.407.773h-.98a12.779 12.779 0 00-.407-.716 11.936 11.936 0 00-.434-.69 10.822 10.822 0 00-.444-.623c-.142-.192-.271-.36-.388-.503-.08.007-.163.01-.25.01h-1.053v2.522h-.897V43.5a4.68 4.68 0 01.842-.122c.314-.024.6-.037.859-.037.9 0 1.584.17 2.052.512.474.341.711.85.711 1.526 0 .429-.114.794-.342 1.098-.221.305-.55.531-.988.68zm-1.359-3.025c-.382 0-.675.01-.878.028v2.43h.638c.308 0 .585-.016.831-.047a1.82 1.82 0 00.619-.177.941.941 0 00.398-.363c.093-.161.139-.372.139-.633 0-.242-.046-.444-.139-.605a1.02 1.02 0 00-.379-.381 1.586 1.586 0 00-.555-.196 3.812 3.812 0 00-.674-.056zm35.199-.723v6.45h4.141v-.772h-3.244v-2.234h2.68V46.1h-2.68v-1.917h3.013v-.773h-3.91z" fill="url(#paint0_linear_459_247)"/><path fill-rule="evenodd" clip-rule="evenodd" d="M215.566 17.88a337.95 337.95 0 012.65 7.458h-3.776a734.355 734.355 0 00-3.812-11.152 163.231 163.231 0 00-3.885-9.98 169.036 169.036 0 00-3.885 10.017 917.064 917.064 0 00-3.85 11.115h-3.884a251.505 251.505 0 012.614-7.458c.847-2.267 1.67-4.425 2.468-6.472.824-2.048 1.623-4.01 2.397-5.887.799-1.853 1.61-3.693 2.433-5.521h3.304a220.529 220.529 0 012.397 5.521 211.824 211.824 0 012.396 5.887 290 290 0 012.433 6.472zm-194.755 0c.847 2.291 1.73 4.778 2.65 7.459h-3.775a725.542 725.542 0 00-3.813-11.152 162.198 162.198 0 00-3.885-9.982 170 170 0 00-3.885 10.018 924.648 924.648 0 00-3.85 11.116H.37a249.813 249.813 0 012.614-7.459c.847-2.267 1.67-4.424 2.47-6.472.822-2.048 1.621-4.01 2.396-5.887.798-1.852 1.61-3.693 2.432-5.52h3.304a222.743 222.743 0 012.397 5.52 209.078 209.078 0 012.396 5.887c.8 2.048 1.61 4.205 2.433 6.472zm237.931 8.596c-1.646 0-3.074-.256-4.285-.768-1.21-.512-2.203-1.206-2.977-2.084-.775-.902-1.355-1.962-1.743-3.181-.363-1.219-.545-2.535-.545-3.95V.59h3.523v15.503c0 2.535.556 4.375 1.67 5.521 1.113 1.146 2.565 1.719 4.357 1.719.896 0 1.706-.135 2.433-.403a5.042 5.042 0 001.924-1.316c.533-.585.944-1.328 1.234-2.23.291-.927.436-2.023.436-3.291V.589h3.522v15.905c0 1.414-.193 2.73-.58 3.949-.365 1.219-.945 2.28-1.744 3.18-.775.878-1.767 1.573-2.977 2.085-1.186.512-2.603.768-4.248.768zm-188.974-.549v-3.07H58.15V.588h-3.522v25.338h15.141zm46.209-3.07v3.07h-15.141V.59h3.523v22.267h11.618zm36.197 3.252c.605.024 1.162.037 1.67.037 4.019 0 6.947-.634 8.787-1.901 1.864-1.292 2.796-3.206 2.796-5.741 0-1.73-.435-3.072-1.307-4.022-.871-.95-2.045-1.645-3.522-2.084 1.09-.439 1.961-1.097 2.615-1.974.653-.902.98-2.048.98-3.438 0-1.243-.267-2.29-.799-3.144-.533-.853-1.271-1.536-2.216-2.048-.918-.536-2.02-.914-3.303-1.133a23.716 23.716 0 00-4.067-.33 45.88 45.88 0 00-3.413.146c-.581.05-1.162.111-1.743.184a13.52 13.52 0 00-1.597.293v24.57c.484.122 1.016.22 1.597.293a41.852 41.852 0 003.522.292zm-1.633-3.071v-8.922h4.538c1.017 0 1.936.074 2.759.22.824.146 1.525.39 2.106.73a3.446 3.446 0 011.38 1.39c.315.561.472 1.256.472 2.085 0 .926-.218 1.694-.654 2.303a4.162 4.162 0 01-1.67 1.426c-.701.341-1.525.585-2.468.732a22.59 22.59 0 01-2.942.182h-1.488a61.55 61.55 0 01-1.089-.073 39.313 39.313 0 01-.944-.073zm3.703-11.774h-3.703V3.44c.41-.049.871-.085 1.379-.11a47.075 47.075 0 012.106-.036c.895 0 1.743.073 2.541.219.799.146 1.49.378 2.07.695.606.292 1.077.695 1.417 1.207.338.487.508 1.096.508 1.828 0 .78-.17 1.426-.508 1.938-.315.511-.763.925-1.345 1.243-.556.317-1.222.536-1.996.658s-1.597.182-2.469.182zM2.348 43.854c-.937 0-1.405.322-1.405.968 0 .198.043.366.13.502.08.143.19.264.332.363.142.106.305.196.49.27.178.075.37.15.573.224.234.08.456.17.665.27.21.105.391.226.545.362.155.143.278.31.37.503.086.192.13.425.13.698 0 .565-.191 1.005-.573 1.322-.382.316-.91.474-1.58.474-.39 0-.74-.043-1.055-.13-.32-.08-.554-.17-.702-.27l.287-.735c.129.08.323.158.582.232.252.081.548.122.887.122.173 0 .333-.02.48-.056.149-.038.278-.093.389-.168a.87.87 0 00.268-.288.815.815 0 00.092-.4.866.866 0 00-.101-.438 1.064 1.064 0 00-.287-.317 2.754 2.754 0 00-.425-.241 9.817 9.817 0 00-.545-.224 11.21 11.21 0 01-.758-.335 2.368 2.368 0 01-.6-.4 1.57 1.57 0 01-.398-.559A1.921 1.921 0 010 44.831c0-.565.206-.999.62-1.303.406-.304.982-.456 1.728-.456.252 0 .486.019.702.056.21.03.397.068.564.111.166.05.311.1.434.15.117.055.21.102.277.14l-.268.744a3.979 3.979 0 00-.647-.27c-.29-.1-.643-.15-1.062-.15zm34.085 1.315c-.16.422-.24.91-.24 1.462 0 .552.08 1.04.24 1.461.166.422.388.776.665 1.061.284.28.61.49.98.633.376.143.773.214 1.192.214a3.15 3.15 0 001.165-.214c.37-.143.693-.354.97-.633.278-.285.496-.639.657-1.06.166-.423.25-.91.25-1.462 0-.552-.084-1.04-.25-1.462a2.956 2.956 0 00-.657-1.05c-.277-.287-.6-.5-.97-.643a3.16 3.16 0 00-1.165-.215c-.419 0-.816.072-1.192.215a2.77 2.77 0 00-.98.642c-.277.279-.499.63-.665 1.051zm.85 2.532a3.658 3.658 0 01-.148-1.07c0-.391.05-.745.148-1.061.099-.323.237-.596.416-.82.185-.222.407-.393.666-.511.264-.124.56-.186.887-.186.326 0 .62.062.878.186.259.118.477.289.656.512.185.223.327.496.425.819.099.316.148.67.148 1.06 0 .392-.05.749-.148 1.071a2.34 2.34 0 01-.425.81 1.854 1.854 0 01-.656.52 2.094 2.094 0 01-.878.178c-.327 0-.623-.06-.887-.177a1.943 1.943 0 01-.666-.521 2.45 2.45 0 01-.416-.81zm37.463 2.16v-6.45h3.863v.772h-2.966v1.945h2.634v.763h-2.635v2.97h-.896zm42.562-5.669v-.782h-4.926v.782h2.015v5.668h.896v-5.668h2.015zm37.518 1.294c-.258.831-.52 1.6-.785 2.308-.264.707-.53 1.396-.795 2.066h-.896a32.518 32.518 0 01-.869-3.006 62.088 62.088 0 01-.694-3.444h.944c.085.484.175.968.267 1.452.093.484.189.956.287 1.415.098.453.198.887.295 1.303.099.416.201.8.305 1.154.247-.651.509-1.365.787-2.14.277-.782.535-1.59.776-2.42h.777c.24.83.502 1.638.785 2.42.283.775.548 1.489.794 2.14.099-.348.198-.73.297-1.145.098-.416.194-.85.286-1.303.098-.459.194-.93.287-1.415.092-.49.181-.977.268-1.46h.914a60.549 60.549 0 01-.711 3.443 32.563 32.563 0 01-.85 3.006h-.897a64.262 64.262 0 01-.795-2.066 51.2 51.2 0 01-.777-2.308zm39.884 3.632c.1.287.205.58.318.88h1.053c-.265-.733-.513-1.41-.745-2.03-.232-.627-.46-1.22-.685-1.78a49.019 49.019 0 00-1.341-3.12h-.884c-.238.5-.466 1.007-.685 1.52a70.93 70.93 0 00-.665 1.6 175.345 175.345 0 00-1.42 3.81h1.003l.625-1.77h3.118c.106.3.209.597.308.89zm-1.221-3.37c.212.54.423 1.1.635 1.68h-2.562c.205-.58.411-1.14.616-1.68.212-.547.433-1.07.665-1.57.225.5.441 1.023.646 1.57zm37.55 1.41c.098.124.221.289.369.493.154.199.311.422.471.67.161.242.318.497.472.763.16.267.296.525.407.773h-.98a12.779 12.779 0 00-.407-.716 11.936 11.936 0 00-.434-.69 10.822 10.822 0 00-.444-.623c-.142-.192-.271-.36-.388-.503-.08.007-.163.01-.25.01h-1.053v2.522h-.897V43.5a4.68 4.68 0 01.842-.122c.314-.024.6-.037.859-.037.9 0 1.584.17 2.052.512.474.341.711.85.711 1.526 0 .429-.114.794-.342 1.098-.221.305-.55.531-.988.68zm-1.359-3.025c-.382 0-.675.01-.878.028v2.43h.638c.308 0 .585-.016.831-.047a1.82 1.82 0 00.619-.177.941.941 0 00.398-.363c.093-.161.139-.372.139-.633 0-.242-.046-.444-.139-.605a1.02 1.02 0 00-.379-.381 1.586 1.586 0 00-.555-.196 3.812 3.812 0 00-.674-.056zm35.199-.723v6.45h4.141v-.772h-3.244v-2.234h2.68V46.1h-2.68v-1.917h3.013v-.773h-3.91z" fill="#fff"/><defs><linearGradient id="paint0_linear_459_247" x1="416" y1="0" x2="-1.04" y2="6.087" gradientUnits="userSpaceOnUse"><stop stop-color="#A459D0"/><stop offset=".49" stop-color="#E35F87"/><stop offset="1" stop-color="#FF5761"/></linearGradient></defs></svg>