<svg width="170" height="56" fill="none" xmlns="http://www.w3.org/2000/svg"><path fill-rule="evenodd" clip-rule="evenodd" d="M77.066 18.657A6693.613 6693.613 0 0170.704.067c-.853 0-1.706 0-2.558-.067-1.234 3.618-2.491 7.235-3.757 10.88a2986.46 2986.46 0 00-2.671 7.71c.21 0 .396-.008.569-.016.31-.014.578-.026.874.017.59.066.787-.199.984-.728.196-.596.41-1.19.623-1.786.213-.596.426-1.191.623-1.787.197-.463.393-.595.918-.595.702 0 1.397.007 2.09.015 1.377.014 2.745.029 4.141-.015.525 0 .722.198.853.662.394 1.257.787 2.514 1.246 3.77.066.265.328.53.525.53.385.043.77.03 1.191.015.225-.007.46-.015.711-.015zm-4.83-7.923l.436 1.24h-6.625a806.99 806.99 0 001.342-3.782l.001-.003.001-.003.001-.003.001-.002V8.18l.001-.002c.647-1.833 1.3-3.68 1.998-5.598.968 2.816 1.887 5.431 2.843 8.151v.003zM1.7 39.464a333.45 333.45 0 01-.787 2.216v.463c.422 0 .833-.021 1.243-.042.609-.032 1.212-.063 1.84-.024.656 0 .918-.132 1.115-.794 1.443-4.896 2.944-9.792 4.446-14.687.75-2.448 1.5-4.896 2.244-7.344.033-.132.082-.248.132-.364a2.26 2.26 0 00.13-.364c1.247 3.573 2.362 7.146 3.411 10.718a858.15 858.15 0 003.674 12.174c.065.264.328.661.524.661h4.198a10.993 10.993 0 01-.262-.86 1792.356 1792.356 0 01-3.343-10.05v-.001l-.002-.005c-.886-2.713-1.788-5.409-2.69-8.105-.902-2.696-1.803-5.392-2.689-8.104l-.005-.024c-.064-.326-.139-.704-.65-.704h-4.133c-.131.331-.262.662-.328.926-1.213 3.672-2.427 7.36-3.64 11.049-1.214 3.688-2.427 7.377-3.64 11.049-.263.727-.525 1.472-.788 2.216zm146.89-35.67l.003.009c.426 1.241.853 2.482 1.279 3.739l3.542 10.32c.066.2.131.464.197.795-.221 0-.442.007-.661.015-.43.014-.85.028-1.241-.015-.197 0-.394-.265-.459-.464-.46-1.257-.919-2.514-1.312-3.837-.132-.463-.394-.595-.853-.595h-6.297c-.459 0-.721.132-.853.595a59.475 59.475 0 01-.719 2.118h-.001l-.002.006-.001.003-.002.006-.001.003c-.178.504-.355 1.004-.52 1.503-.131.53-.393.728-.918.662-.295-.043-.563-.03-.874-.017-.173.008-.358.017-.569.017.59-1.654 1.115-3.176 1.64-4.697.754-2.217 1.525-4.417 2.295-6.617.771-2.2 1.542-4.4 2.296-6.616.033-.099.066-.215.099-.33V.394c.033-.115.065-.23.098-.33h2.558c.425 1.254.85 2.492 1.276 3.729zm-2.391-.95h-.197a372.171 372.171 0 01-2.113 5.911c-.387 1.063-.777 2.133-1.166 3.22h6.624a691.666 691.666 0 00-2.099-6.102c-.349-1.007-.699-2.014-1.049-3.029zM29.119 5.16A486.045 486.045 0 0127.544.066c-.459 0-.918 0-1.508-.066a.926.926 0 01.065.232.954.954 0 00.066.231 51930.679 51930.679 0 0017.907 54.052c.328.992.328.992 1.574.794a10.54 10.54 0 00-.099-.363 10.988 10.988 0 01-.098-.365l-6.297-19.054L29.12 5.16zM78.32 35.883h-6.207V53h-3.431V35.883h-6.153v-2.79H78.32v2.79zm22.469 7.683c0 1.95-.337 3.664-1.011 5.141-.675 1.468-1.641 2.598-2.899 3.39-1.249.785-2.689 1.176-4.32 1.176-1.614 0-3.054-.392-4.32-1.175-1.258-.793-2.234-1.919-2.926-3.377-.684-1.459-1.03-3.14-1.04-5.045v-1.121c0-1.942.342-3.655 1.026-5.14.693-1.487 1.663-2.621 2.912-3.405 1.258-.793 2.698-1.19 4.32-1.19 1.623 0 3.058.392 4.307 1.176 1.258.775 2.229 1.896 2.912 3.363.684 1.459 1.03 3.159 1.039 5.1v1.107zm-3.459-1.039c0-2.205-.419-3.896-1.258-5.072-.829-1.176-2.01-1.764-3.54-1.764-1.495 0-2.667.588-3.514 1.764-.839 1.167-1.267 2.821-1.285 4.963v1.148c0 2.188.423 3.879 1.271 5.073.857 1.194 2.042 1.79 3.555 1.79 1.531 0 2.707-.583 3.527-1.75.83-1.166 1.244-2.87 1.244-5.113v-1.039zm27.131 1.04c0 1.95-.337 3.663-1.011 5.14-.675 1.468-1.641 2.598-2.899 3.39-1.249.785-2.689 1.176-4.32 1.176-1.613 0-3.054-.392-4.321-1.175-1.257-.793-2.233-1.919-2.925-3.377-.684-1.459-1.03-3.14-1.039-5.045v-1.121c0-1.942.341-3.655 1.025-5.14.693-1.487 1.663-2.621 2.912-3.405 1.258-.793 2.698-1.19 4.32-1.19 1.623 0 3.058.392 4.307 1.176 1.258.775 2.229 1.896 2.912 3.363.684 1.459 1.03 3.159 1.039 5.1v1.107zm-3.459-1.04c0-2.205-.419-3.896-1.258-5.072-.829-1.176-2.009-1.764-3.541-1.764-1.494 0-2.666.588-3.513 1.764-.839 1.167-1.267 2.821-1.285 4.963v1.148c0 2.188.423 3.879 1.271 5.073.857 1.194 2.042 1.79 3.555 1.79 1.531 0 2.707-.583 3.527-1.75.83-1.166 1.244-2.87 1.244-5.113v-1.039zm14.704 7.711h9.037V53h-12.496V33.094h3.459v17.144zm26.433-2.365c0-.875-.31-1.55-.929-2.023-.611-.474-1.718-.953-3.323-1.436-1.604-.483-2.88-1.02-3.828-1.613-1.814-1.14-2.72-2.625-2.72-4.457 0-1.604.651-2.926 1.955-3.965 1.312-1.04 3.012-1.559 5.099-1.559 1.386 0 2.621.255 3.705.766 1.085.51 1.937 1.24 2.557 2.187.62.94.93 1.983.93 3.131h-3.446c0-1.039-.328-1.85-.984-2.433-.647-.593-1.577-.889-2.789-.889-1.13 0-2.01.242-2.639.725-.62.483-.929 1.157-.929 2.023 0 .73.337 1.34 1.011 1.832.675.483 1.787.957 3.336 1.422 1.55.456 2.794.98 3.733 1.572.938.584 1.627 1.258 2.064 2.024.438.756.656 1.645.656 2.666 0 1.659-.638 2.98-1.914 3.965-1.267.975-2.989 1.462-5.168 1.462-1.44 0-2.766-.264-3.978-.793-1.203-.537-2.142-1.276-2.817-2.214-.665-.94-.998-2.033-.998-3.282h3.459c0 1.13.374 2.006 1.121 2.625.748.62 1.819.93 3.213.93 1.203 0 2.106-.242 2.707-.724.611-.493.916-1.14.916-1.942zm-5.904-29.216h1.968V4.102c.154.232.285.42.394.574.077.11.142.203.197.286 1.443 2.183 2.886 4.35 4.329 6.516 1.443 2.167 2.886 4.334 4.329 6.517.131.265.459.53.721.595.345.044.691.03 1.055.016.189-.008.383-.016.585-.016V.198h-1.968v14.423a3.476 3.476 0 01-.787-.926c-1.763-2.73-3.552-5.434-5.334-8.128h-.001v-.001a1382.325 1382.325 0 01-3.192-4.838c-.131-.199-.393-.464-.656-.53-.345-.043-.69-.03-1.054-.015-.189.007-.384.015-.586.015v18.459zm-45.651-7.674v7.674h-1.968V.265c.81 0 1.614-.01 2.414-.022 1.988-.027 3.952-.053 5.916.088 2.821.199 4.526 2.448 4.46 5.425-.065 3.044-1.705 4.962-4.591 5.16-1.279.1-2.558.087-3.837.075-.427-.004-.853-.008-1.279-.008h-1.115zm.065-1.919c.583 0 1.165.011 1.746.022 1.447.027 2.885.054 4.289-.088 1.705-.132 2.623-1.39 2.689-3.176.066-1.918-.787-3.44-2.427-3.638-1.447-.142-2.928-.115-4.441-.088-.613.01-1.232.021-1.856.021v6.947zm-31.09-8.8v18.393c3.738 0 7.477 0 11.216-.066v-1.72h-9.249V.264h-1.968zm14.56 0h1.903v16.607h9.248v1.786H94.12V.265zm30.567 0v18.393c3.804 0 7.477 0 11.281-.066v-1.72h-9.248V.264h-2.033z" fill="#fff"/></svg>