<svg width="213" height="65" fill="none" xmlns="http://www.w3.org/2000/svg"><path fill-rule="evenodd" clip-rule="evenodd" d="M83.044.077c2.498 7.145 4.995 14.29 7.57 21.59-.298 0-.578.009-.846.018-.5.017-.959.032-1.417-.018-.234 0-.546-.308-.624-.615-.546-1.46-1.014-2.919-1.483-4.378v-.001c-.156-.538-.39-.769-1.015-.769-1.662.051-3.29.034-4.928.017-.824-.008-1.65-.017-2.486-.017-.624 0-.858.154-1.093.692a85.85 85.85 0 01-.741 2.074 88.107 88.107 0 00-.741 2.075c-.235.614-.469.922-1.171.845-.352-.05-.67-.035-1.04-.02-.206.01-.426.02-.677.02 1.061-3.008 2.122-5.989 3.178-8.955C77.036 8.403 78.532 4.201 80 0c1.015.077 2.03.077 3.044.077zm2.341 13.83l-.517-1.438c-1.137-3.16-2.232-6.2-3.385-9.473a677.247 677.247 0 00-2.377 6.5c-.532 1.472-1.06 2.935-1.603 4.41h7.882zM0 48.404c.312-.845.624-1.71.937-2.574.312-.864.624-1.728.936-2.574 1.443-4.262 2.886-8.543 4.33-12.824l.001-.005v-.002c1.445-4.283 2.888-8.566 4.332-12.83.078-.308.234-.692.39-1.076h4.917c.61 0 .699.44.775.818l.006.027c1.053 3.15 2.127 6.281 3.2 9.412a1348.61 1348.61 0 013.2 9.412l.002.007v.002a2093.96 2093.96 0 003.978 11.67c.078.306.156.537.312.997v.001h-4.995c-.234 0-.546-.46-.624-.768a977.794 977.794 0 01-4.37-14.137c-1.25-4.15-2.576-8.298-4.06-12.447-.038.154-.097.288-.155.422a2.706 2.706 0 00-.156.423c-.885 2.842-1.778 5.685-2.67 8.527l-.001.001c-1.787 5.686-3.573 11.372-5.29 17.057-.234.769-.546.922-1.327.922-.747-.046-1.465-.01-2.19.027a28.6 28.6 0 01-1.478.05v-.538zm175.758 16.442a38.167 38.167 0 00-.937-.213c-.624-.137-1.249-.273-1.873-.478-3.746-1.153-5.932-3.842-6.868-7.453-1.171-4.533-1.249-9.066-.156-13.6 1.249-5.147 4.761-7.99 10.146-8.374 4.058-.307 7.96.23 11.863 1.46-.104.382-.207.755-.311 1.128l-.002.008c-.208.75-.416 1.502-.624 2.321-.409-.084-.811-.175-1.212-.265-1.051-.236-2.084-.469-3.158-.58-1.795-.23-3.512-.384-5.307-.307-3.981.23-6.322 2.228-7.181 6.07-.78 3.457-.78 6.991.078 10.526 1.171 4.84 4.527 6.53 9.288 6.07 1.15-.142 2.233-.544 3.372-.967l.009-.003.287-.106c.234-.077.546-.461.546-.692.052-1.374.035-2.715.018-4.09a164.35 164.35 0 01-.018-2.133h-5.619V49.48h9.834v12.37c0 .614-.156.922-.781 1.152-1.092.308-2.165.615-3.238.922h-.003v.001h-.001c-1.072.307-2.144.614-3.236.921-.078 0-.234.077-.312.154-1.483-.154-3.043-.154-4.604-.154zm19.198-.384h17.872v-3.61h-14.985v-9.758h12.722v-3.765h-12.722V38.8h14.673v-3.61h-18.887v29.272h1.327zM175.721 4.418c-.507-1.44-1.015-2.881-1.522-4.341h-3.044c-.039.115-.078.25-.117.384v.001a9.546 9.546 0 01-.117.383c-.897 2.574-1.814 5.128-2.731 7.683-.917 2.555-1.835 5.11-2.732 7.684a515.703 515.703 0 01-1.951 5.455c.251 0 .471-.01.677-.02.369-.015.688-.03 1.04.02.624.077.936-.154 1.092-.769.198-.583.409-1.166.623-1.755l.001-.004.002-.006h.001v-.001c.291-.804.587-1.619.856-2.46.156-.537.469-.69 1.015-.69h7.492c.547 0 .859.153 1.015.69.468 1.537 1.014 2.997 1.561 4.457.078.23.312.538.546.538.466.05.966.034 1.477.017.26-.009.523-.017.786-.017a7.874 7.874 0 00-.234-.922l-4.214-11.986c-.507-1.46-1.015-2.9-1.522-4.341zm-3.083-1.114h.234c.416 1.178.833 2.347 1.249 3.517l.001.004h.001c.831 2.338 1.663 4.676 2.495 7.082h-7.882c.463-1.262.927-2.505 1.387-3.739l.001-.001a416.227 416.227 0 002.514-6.863zM31.688.077a555.721 555.721 0 001.874 5.916l11.94 35.266 7.493 22.127c.04.154.078.288.117.423.04.135.078.269.117.423-1.483.23-1.483.23-1.873-.922C44.254 42.41 37.152 21.513 30.05.538a1.084 1.084 0 01-.078-.27A1.088 1.088 0 0029.894 0c.702.077 1.248.077 1.795.077zm58.68 49.333a1.837 1.837 0 00-.149-.084l.056-.027.033-.016.044-.02c.248-.118.448-.213.648-.475 2.341-1.152 3.668-3.073 3.824-5.608.156-2.843-.546-5.302-3.2-6.915-1.639-.922-3.434-1.306-5.307-1.306H74.61c-.167 0-.312.022-.447.042a2.187 2.187 0 01-.333.034v29.273h7.258c.515 0 1.03.003 1.545.007 2.06.012 4.121.024 6.181-.16 3.825-.308 6.244-2.69 6.79-6.377.625-3.996-1.248-6.915-5.073-8.298-.048 0-.096-.03-.163-.07zm-2.412 11.134c-3.278.153-6.478.23-9.834.307v-.003c0-3.303 0-6.375-.078-9.524h3.044c.465 0 .934-.005 1.406-.01h.003c1.43-.014 2.881-.029 4.288.087 3.825.23 5.776 3.995 3.903 7.299-.625 1.075-1.561 1.767-2.732 1.844zm-9.834-13.062v-8.605c.969 0 1.928-.026 2.882-.052 1.89-.05 3.758-.101 5.625.052 3.278.307 4.917 3.842 3.278 6.761-.702 1.23-1.873 1.767-3.2 1.844-1.87.051-3.775.034-5.691.017a323.86 323.86 0 00-2.894-.017zM118.57 57.4c1.46 2.317 2.93 4.65 4.427 7.062h-4.604c-.234 0-.547-.384-.703-.615-1.532-2.402-3.023-4.845-4.503-7.27-.555-.91-1.109-1.816-1.662-2.718-.312-.538-.625-.768-1.327-.768-1.188.05-2.342.034-3.53.017-.606-.008-1.222-.017-1.855-.017v11.294h-4.137V35.112h12.254c8.897 0 10.458 8.452 8.116 13.215-.936 1.921-2.575 3.15-4.604 3.765a5.093 5.093 0 00-1.015.307 1566.76 1566.76 0 003.143 5zm-13.835-8.074h7.492c.468 0 .937-.077 1.405-.154 1.717-.307 3.044-1.229 3.668-2.92 1.483-3.995-.858-7.452-5.151-7.452h-6.556c-.234 0-.546 0-.78.077-.078 3.456-.078 6.836-.078 10.446v.003zm32.471-14.137v29.35c1.67-.056 3.33-.071 4.98-.087h.001c2.898-.026 5.764-.053 8.599-.297 4.527-.385 7.336-3.227 8.663-7.453 1.171-3.842 1.171-7.683.624-11.525-.39-2.459-1.17-4.764-2.887-6.608-2.342-2.612-5.464-3.38-8.82-3.457h-10.302c-.156 0-.292.02-.429.038-.136.02-.273.039-.429.039zm6.628 25.543c-.798-.017-1.601-.035-2.414-.035V39.031c.078-.077.156-.154.235-.154.626 0 1.248-.005 1.867-.01h.003c1.844-.014 3.655-.028 5.466.087 3.434.153 5.697 2.151 6.478 5.608a22.61 22.61 0 010 10.22c-.859 3.764-3.044 5.608-6.946 5.915-1.556.102-3.111.069-4.689.035zm43.321-39.065h-2.342V.23c.241 0 .472-.01.697-.018.433-.017.844-.033 1.254.018.313.077.625.384.781.614 1.258 1.873 2.527 3.745 3.799 5.621 2.121 3.129 4.249 6.269 6.347 9.439.234.384.546.768.936 1.075V.23h2.342v21.36c-.24 0-.471.01-.697.018-.433.017-.843.033-1.254-.018-.312-.077-.703-.384-.859-.691-1.717-2.536-3.434-5.052-5.151-7.568a2579.106 2579.106 0 01-5.151-7.568 13.306 13.306 0 00-.232-.328l-.002-.003V5.43c-.13-.18-.286-.397-.468-.667v16.903zm-56.662 0v-8.913h1.327c.507 0 1.014.005 1.522.01 1.521.014 3.043.029 4.565-.087 3.434-.23 5.385-2.458 5.464-5.993.078-3.457-1.952-6.07-5.308-6.3-2.337-.164-4.673-.133-7.039-.102-.952.013-1.909.025-2.872.025v21.36h2.341zm2.155-11.116c-.691-.012-1.384-.025-2.077-.025V2.46c.742 0 1.478-.013 2.208-.026 1.801-.03 3.562-.062 5.284.103 1.952.23 2.966 1.997 2.888 4.225-.078 2.075-1.171 3.535-3.2 3.688-1.67.165-3.381.134-5.103.102zm-5.196 24.561h4.059v29.196h-4.059V35.112zM93.576.307v21.36c4.449 0 8.897 0 13.346-.077v-1.998H95.917V.307h-2.341zm17.324 0h2.263v19.285h11.005v2.075H110.9V.307zm36.372 0v21.36c4.527 0 8.897 0 13.424-.077v-1.998h-11.005V.307h-2.419z" fill="#000"/><path fill-rule="evenodd" clip-rule="evenodd" d="M83.044.077c2.498 7.145 4.995 14.29 7.57 21.59-.298 0-.578.009-.846.018-.5.017-.959.032-1.417-.018-.234 0-.546-.308-.624-.615-.546-1.46-1.014-2.919-1.483-4.378v-.001c-.156-.538-.39-.769-1.015-.769-1.662.051-3.29.034-4.928.017-.824-.008-1.65-.017-2.486-.017-.624 0-.858.154-1.093.692a85.85 85.85 0 01-.741 2.074 88.107 88.107 0 00-.741 2.075c-.235.614-.469.922-1.171.845-.352-.05-.67-.035-1.04-.02-.206.01-.426.02-.677.02 1.061-3.008 2.122-5.989 3.178-8.955C77.036 8.403 78.532 4.201 80 0c1.015.077 2.03.077 3.044.077zm2.341 13.83l-.517-1.438c-1.137-3.16-2.232-6.2-3.385-9.473a677.247 677.247 0 00-2.377 6.5c-.532 1.472-1.06 2.935-1.603 4.41h7.882zM0 48.404c.312-.845.624-1.71.937-2.574.312-.864.624-1.728.936-2.574 1.443-4.262 2.886-8.543 4.33-12.824l.001-.005v-.002c1.445-4.283 2.888-8.566 4.332-12.83.078-.308.234-.692.39-1.076h4.917c.61 0 .699.44.775.818l.006.027c1.053 3.15 2.127 6.281 3.2 9.412a1348.61 1348.61 0 013.2 9.412l.002.007v.002a2093.96 2093.96 0 003.978 11.67c.078.306.156.537.312.997v.001h-4.995c-.234 0-.546-.46-.624-.768a977.794 977.794 0 01-4.37-14.137c-1.25-4.15-2.576-8.298-4.06-12.447-.038.154-.097.288-.155.422a2.706 2.706 0 00-.156.423c-.885 2.842-1.778 5.685-2.67 8.527l-.001.001c-1.787 5.686-3.573 11.372-5.29 17.057-.234.769-.546.922-1.327.922-.747-.046-1.465-.01-2.19.027a28.6 28.6 0 01-1.478.05v-.538zm175.758 16.442a38.167 38.167 0 00-.937-.213c-.624-.137-1.249-.273-1.873-.478-3.746-1.153-5.932-3.842-6.868-7.453-1.171-4.533-1.249-9.066-.156-13.6 1.249-5.147 4.761-7.99 10.146-8.374 4.058-.307 7.96.23 11.863 1.46-.104.382-.207.755-.311 1.128l-.002.008c-.208.75-.416 1.502-.624 2.321-.409-.084-.811-.175-1.212-.265-1.051-.236-2.084-.469-3.158-.58-1.795-.23-3.512-.384-5.307-.307-3.981.23-6.322 2.228-7.181 6.07-.78 3.457-.78 6.991.078 10.526 1.171 4.84 4.527 6.53 9.288 6.07 1.15-.142 2.233-.544 3.372-.967l.009-.003.287-.106c.234-.077.546-.461.546-.692.052-1.374.035-2.715.018-4.09a164.35 164.35 0 01-.018-2.133h-5.619V49.48h9.834v12.37c0 .614-.156.922-.781 1.152-1.092.308-2.165.615-3.238.922h-.003v.001h-.001c-1.072.307-2.144.614-3.236.921-.078 0-.234.077-.312.154-1.483-.154-3.043-.154-4.604-.154zm19.198-.384h17.872v-3.61h-14.985v-9.758h12.722v-3.765h-12.722V38.8h14.673v-3.61h-18.887v29.272h1.327zM175.721 4.418c-.507-1.44-1.015-2.881-1.522-4.341h-3.044c-.039.115-.078.25-.117.384v.001a9.546 9.546 0 01-.117.383c-.897 2.574-1.814 5.128-2.731 7.683-.917 2.555-1.835 5.11-2.732 7.684a515.703 515.703 0 01-1.951 5.455c.251 0 .471-.01.677-.02.369-.015.688-.03 1.04.02.624.077.936-.154 1.092-.769.198-.583.409-1.166.623-1.755l.001-.004.002-.006h.001v-.001c.291-.804.587-1.619.856-2.46.156-.537.469-.69 1.015-.69h7.492c.547 0 .859.153 1.015.69.468 1.537 1.014 2.997 1.561 4.457.078.23.312.538.546.538.466.05.966.034 1.477.017.26-.009.523-.017.786-.017a7.874 7.874 0 00-.234-.922l-4.214-11.986c-.507-1.46-1.015-2.9-1.522-4.341zm-3.083-1.114h.234c.416 1.178.833 2.347 1.249 3.517l.001.004h.001c.831 2.338 1.663 4.676 2.495 7.082h-7.882c.463-1.262.927-2.505 1.387-3.739l.001-.001a416.227 416.227 0 002.514-6.863zM31.688.077a555.721 555.721 0 001.874 5.916l11.94 35.266 7.493 22.127c.04.154.078.288.117.423.04.135.078.269.117.423-1.483.23-1.483.23-1.873-.922C44.254 42.41 37.152 21.513 30.05.538a1.084 1.084 0 01-.078-.27A1.088 1.088 0 0029.894 0c.702.077 1.248.077 1.795.077zm58.68 49.333a1.837 1.837 0 00-.149-.084l.056-.027.033-.016.044-.02c.248-.118.448-.213.648-.475 2.341-1.152 3.668-3.073 3.824-5.608.156-2.843-.546-5.302-3.2-6.915-1.639-.922-3.434-1.306-5.307-1.306H74.61c-.167 0-.312.022-.447.042a2.187 2.187 0 01-.333.034v29.273h7.258c.515 0 1.03.003 1.545.007 2.06.012 4.121.024 6.181-.16 3.825-.308 6.244-2.69 6.79-6.377.625-3.996-1.248-6.915-5.073-8.298-.048 0-.096-.03-.163-.07zm-2.412 11.134c-3.278.153-6.478.23-9.834.307v-.003c0-3.303 0-6.375-.078-9.524h3.044c.465 0 .934-.005 1.406-.01h.003c1.43-.014 2.881-.029 4.288.087 3.825.23 5.776 3.995 3.903 7.299-.625 1.075-1.561 1.767-2.732 1.844zm-9.834-13.062v-8.605c.969 0 1.928-.026 2.882-.052 1.89-.05 3.758-.101 5.625.052 3.278.307 4.917 3.842 3.278 6.761-.702 1.23-1.873 1.767-3.2 1.844-1.87.051-3.775.034-5.691.017a323.86 323.86 0 00-2.894-.017zM118.57 57.4c1.46 2.317 2.93 4.65 4.427 7.062h-4.604c-.234 0-.547-.384-.703-.615-1.532-2.402-3.023-4.845-4.503-7.27-.555-.91-1.109-1.816-1.662-2.718-.312-.538-.625-.768-1.327-.768-1.188.05-2.342.034-3.53.017-.606-.008-1.222-.017-1.855-.017v11.294h-4.137V35.112h12.254c8.897 0 10.458 8.452 8.116 13.215-.936 1.921-2.575 3.15-4.604 3.765a5.093 5.093 0 00-1.015.307 1566.76 1566.76 0 003.143 5zm-13.835-8.074h7.492c.468 0 .937-.077 1.405-.154 1.717-.307 3.044-1.229 3.668-2.92 1.483-3.995-.858-7.452-5.151-7.452h-6.556c-.234 0-.546 0-.78.077-.078 3.456-.078 6.836-.078 10.446v.003zm32.471-14.137v29.35c1.67-.056 3.33-.071 4.98-.087h.001c2.898-.026 5.764-.053 8.599-.297 4.527-.385 7.336-3.227 8.663-7.453 1.171-3.842 1.171-7.683.624-11.525-.39-2.459-1.17-4.764-2.887-6.608-2.342-2.612-5.464-3.38-8.82-3.457h-10.302c-.156 0-.292.02-.429.038-.136.02-.273.039-.429.039zm6.628 25.543c-.798-.017-1.601-.035-2.414-.035V39.031c.078-.077.156-.154.235-.154.626 0 1.248-.005 1.867-.01h.003c1.844-.014 3.655-.028 5.466.087 3.434.153 5.697 2.151 6.478 5.608a22.61 22.61 0 010 10.22c-.859 3.764-3.044 5.608-6.946 5.915-1.556.102-3.111.069-4.689.035zm43.321-39.065h-2.342V.23c.241 0 .472-.01.697-.018.433-.017.844-.033 1.254.018.313.077.625.384.781.614 1.258 1.873 2.527 3.745 3.799 5.621 2.121 3.129 4.249 6.269 6.347 9.439.234.384.546.768.936 1.075V.23h2.342v21.36c-.24 0-.471.01-.697.018-.433.017-.843.033-1.254-.018-.312-.077-.703-.384-.859-.691-1.717-2.536-3.434-5.052-5.151-7.568a2579.106 2579.106 0 01-5.151-7.568 13.306 13.306 0 00-.232-.328l-.002-.003V5.43c-.13-.18-.286-.397-.468-.667v16.903zm-56.662 0v-8.913h1.327c.507 0 1.014.005 1.522.01 1.521.014 3.043.029 4.565-.087 3.434-.23 5.385-2.458 5.464-5.993.078-3.457-1.952-6.07-5.308-6.3-2.337-.164-4.673-.133-7.039-.102-.952.013-1.909.025-2.872.025v21.36h2.341zm2.155-11.116c-.691-.012-1.384-.025-2.077-.025V2.46c.742 0 1.478-.013 2.208-.026 1.801-.03 3.562-.062 5.284.103 1.952.23 2.966 1.997 2.888 4.225-.078 2.075-1.171 3.535-3.2 3.688-1.67.165-3.381.134-5.103.102zm-5.196 24.561h4.059v29.196h-4.059V35.112zM93.576.307v21.36c4.449 0 8.897 0 13.346-.077v-1.998H95.917V.307h-2.341zm17.324 0h2.263v19.285h11.005v2.075H110.9V.307zm36.372 0v21.36c4.527 0 8.897 0 13.424-.077v-1.998h-11.005V.307h-2.419z" fill="url(#paint0_linear_520_6438)"/><path fill-rule="evenodd" clip-rule="evenodd" d="M83.044.077c2.498 7.145 4.995 14.29 7.57 21.59-.298 0-.578.009-.846.018-.5.017-.959.032-1.417-.018-.234 0-.546-.308-.624-.615-.546-1.46-1.014-2.919-1.483-4.378v-.001c-.156-.538-.39-.769-1.015-.769-1.662.051-3.29.034-4.928.017-.824-.008-1.65-.017-2.486-.017-.624 0-.858.154-1.093.692a85.85 85.85 0 01-.741 2.074 88.107 88.107 0 00-.741 2.075c-.235.614-.469.922-1.171.845-.352-.05-.67-.035-1.04-.02-.206.01-.426.02-.677.02 1.061-3.008 2.122-5.989 3.178-8.955C77.036 8.403 78.532 4.201 80 0c1.015.077 2.03.077 3.044.077zm2.341 13.83l-.517-1.438c-1.137-3.16-2.232-6.2-3.385-9.473a677.247 677.247 0 00-2.377 6.5c-.532 1.472-1.06 2.935-1.603 4.41h7.882zM0 48.404c.312-.845.624-1.71.937-2.574.312-.864.624-1.728.936-2.574 1.443-4.262 2.886-8.543 4.33-12.824l.001-.005v-.002c1.445-4.283 2.888-8.566 4.332-12.83.078-.308.234-.692.39-1.076h4.917c.61 0 .699.44.775.818l.006.027c1.053 3.15 2.127 6.281 3.2 9.412a1348.61 1348.61 0 013.2 9.412l.002.007v.002a2093.96 2093.96 0 003.978 11.67c.078.306.156.537.312.997v.001h-4.995c-.234 0-.546-.46-.624-.768a977.794 977.794 0 01-4.37-14.137c-1.25-4.15-2.576-8.298-4.06-12.447-.038.154-.097.288-.155.422a2.706 2.706 0 00-.156.423c-.885 2.842-1.778 5.685-2.67 8.527l-.001.001c-1.787 5.686-3.573 11.372-5.29 17.057-.234.769-.546.922-1.327.922-.747-.046-1.465-.01-2.19.027a28.6 28.6 0 01-1.478.05v-.538zm175.758 16.442a38.167 38.167 0 00-.937-.213c-.624-.137-1.249-.273-1.873-.478-3.746-1.153-5.932-3.842-6.868-7.453-1.171-4.533-1.249-9.066-.156-13.6 1.249-5.147 4.761-7.99 10.146-8.374 4.058-.307 7.96.23 11.863 1.46-.104.382-.207.755-.311 1.128l-.002.008c-.208.75-.416 1.502-.624 2.321-.409-.084-.811-.175-1.212-.265-1.051-.236-2.084-.469-3.158-.58-1.795-.23-3.512-.384-5.307-.307-3.981.23-6.322 2.228-7.181 6.07-.78 3.457-.78 6.991.078 10.526 1.171 4.84 4.527 6.53 9.288 6.07 1.15-.142 2.233-.544 3.372-.967l.009-.003.287-.106c.234-.077.546-.461.546-.692.052-1.374.035-2.715.018-4.09a164.35 164.35 0 01-.018-2.133h-5.619V49.48h9.834v12.37c0 .614-.156.922-.781 1.152-1.092.308-2.165.615-3.238.922h-.003v.001h-.001c-1.072.307-2.144.614-3.236.921-.078 0-.234.077-.312.154-1.483-.154-3.043-.154-4.604-.154zm19.198-.384h17.872v-3.61h-14.985v-9.758h12.722v-3.765h-12.722V38.8h14.673v-3.61h-18.887v29.272h1.327zM175.721 4.418c-.507-1.44-1.015-2.881-1.522-4.341h-3.044c-.039.115-.078.25-.117.384v.001a9.546 9.546 0 01-.117.383c-.897 2.574-1.814 5.128-2.731 7.683-.917 2.555-1.835 5.11-2.732 7.684a515.703 515.703 0 01-1.951 5.455c.251 0 .471-.01.677-.02.369-.015.688-.03 1.04.02.624.077.936-.154 1.092-.769.198-.583.409-1.166.623-1.755l.001-.004.002-.006h.001v-.001c.291-.804.587-1.619.856-2.46.156-.537.469-.69 1.015-.69h7.492c.547 0 .859.153 1.015.69.468 1.537 1.014 2.997 1.561 4.457.078.23.312.538.546.538.466.05.966.034 1.477.017.26-.009.523-.017.786-.017a7.874 7.874 0 00-.234-.922l-4.214-11.986c-.507-1.46-1.015-2.9-1.522-4.341zm-3.083-1.114h.234c.416 1.178.833 2.347 1.249 3.517l.001.004h.001c.831 2.338 1.663 4.676 2.495 7.082h-7.882c.463-1.262.927-2.505 1.387-3.739l.001-.001a416.227 416.227 0 002.514-6.863zM31.688.077a555.721 555.721 0 001.874 5.916l11.94 35.266 7.493 22.127c.04.154.078.288.117.423.04.135.078.269.117.423-1.483.23-1.483.23-1.873-.922C44.254 42.41 37.152 21.513 30.05.538a1.084 1.084 0 01-.078-.27A1.088 1.088 0 0029.894 0c.702.077 1.248.077 1.795.077zm58.68 49.333a1.837 1.837 0 00-.149-.084l.056-.027.033-.016.044-.02c.248-.118.448-.213.648-.475 2.341-1.152 3.668-3.073 3.824-5.608.156-2.843-.546-5.302-3.2-6.915-1.639-.922-3.434-1.306-5.307-1.306H74.61c-.167 0-.312.022-.447.042a2.187 2.187 0 01-.333.034v29.273h7.258c.515 0 1.03.003 1.545.007 2.06.012 4.121.024 6.181-.16 3.825-.308 6.244-2.69 6.79-6.377.625-3.996-1.248-6.915-5.073-8.298-.048 0-.096-.03-.163-.07zm-2.412 11.134c-3.278.153-6.478.23-9.834.307v-.003c0-3.303 0-6.375-.078-9.524h3.044c.465 0 .934-.005 1.406-.01h.003c1.43-.014 2.881-.029 4.288.087 3.825.23 5.776 3.995 3.903 7.299-.625 1.075-1.561 1.767-2.732 1.844zm-9.834-13.062v-8.605c.969 0 1.928-.026 2.882-.052 1.89-.05 3.758-.101 5.625.052 3.278.307 4.917 3.842 3.278 6.761-.702 1.23-1.873 1.767-3.2 1.844-1.87.051-3.775.034-5.691.017a323.86 323.86 0 00-2.894-.017zM118.57 57.4c1.46 2.317 2.93 4.65 4.427 7.062h-4.604c-.234 0-.547-.384-.703-.615-1.532-2.402-3.023-4.845-4.503-7.27-.555-.91-1.109-1.816-1.662-2.718-.312-.538-.625-.768-1.327-.768-1.188.05-2.342.034-3.53.017-.606-.008-1.222-.017-1.855-.017v11.294h-4.137V35.112h12.254c8.897 0 10.458 8.452 8.116 13.215-.936 1.921-2.575 3.15-4.604 3.765a5.093 5.093 0 00-1.015.307 1566.76 1566.76 0 003.143 5zm-13.835-8.074h7.492c.468 0 .937-.077 1.405-.154 1.717-.307 3.044-1.229 3.668-2.92 1.483-3.995-.858-7.452-5.151-7.452h-6.556c-.234 0-.546 0-.78.077-.078 3.456-.078 6.836-.078 10.446v.003zm32.471-14.137v29.35c1.67-.056 3.33-.071 4.98-.087h.001c2.898-.026 5.764-.053 8.599-.297 4.527-.385 7.336-3.227 8.663-7.453 1.171-3.842 1.171-7.683.624-11.525-.39-2.459-1.17-4.764-2.887-6.608-2.342-2.612-5.464-3.38-8.82-3.457h-10.302c-.156 0-.292.02-.429.038-.136.02-.273.039-.429.039zm6.628 25.543c-.798-.017-1.601-.035-2.414-.035V39.031c.078-.077.156-.154.235-.154.626 0 1.248-.005 1.867-.01h.003c1.844-.014 3.655-.028 5.466.087 3.434.153 5.697 2.151 6.478 5.608a22.61 22.61 0 010 10.22c-.859 3.764-3.044 5.608-6.946 5.915-1.556.102-3.111.069-4.689.035zm43.321-39.065h-2.342V.23c.241 0 .472-.01.697-.018.433-.017.844-.033 1.254.018.313.077.625.384.781.614 1.258 1.873 2.527 3.745 3.799 5.621 2.121 3.129 4.249 6.269 6.347 9.439.234.384.546.768.936 1.075V.23h2.342v21.36c-.24 0-.471.01-.697.018-.433.017-.843.033-1.254-.018-.312-.077-.703-.384-.859-.691-1.717-2.536-3.434-5.052-5.151-7.568a2579.106 2579.106 0 01-5.151-7.568 13.306 13.306 0 00-.232-.328l-.002-.003V5.43c-.13-.18-.286-.397-.468-.667v16.903zm-56.662 0v-8.913h1.327c.507 0 1.014.005 1.522.01 1.521.014 3.043.029 4.565-.087 3.434-.23 5.385-2.458 5.464-5.993.078-3.457-1.952-6.07-5.308-6.3-2.337-.164-4.673-.133-7.039-.102-.952.013-1.909.025-2.872.025v21.36h2.341zm2.155-11.116c-.691-.012-1.384-.025-2.077-.025V2.46c.742 0 1.478-.013 2.208-.026 1.801-.03 3.562-.062 5.284.103 1.952.23 2.966 1.997 2.888 4.225-.078 2.075-1.171 3.535-3.2 3.688-1.67.165-3.381.134-5.103.102zm-5.196 24.561h4.059v29.196h-4.059V35.112zM93.576.307v21.36c4.449 0 8.897 0 13.346-.077v-1.998H95.917V.307h-2.341zm17.324 0h2.263v19.285h11.005v2.075H110.9V.307zm36.372 0v21.36c4.527 0 8.897 0 13.424-.077v-1.998h-11.005V.307h-2.419z" fill="#183646"/><path fill-rule="evenodd" clip-rule="evenodd" d="M83.044.077c2.498 7.145 4.995 14.29 7.57 21.59-.298 0-.578.009-.846.018-.5.017-.959.032-1.417-.018-.234 0-.546-.308-.624-.615-.546-1.46-1.014-2.919-1.483-4.378v-.001c-.156-.538-.39-.769-1.015-.769-1.662.051-3.29.034-4.928.017-.824-.008-1.65-.017-2.486-.017-.624 0-.858.154-1.093.692a85.85 85.85 0 01-.741 2.074 88.107 88.107 0 00-.741 2.075c-.235.614-.469.922-1.171.845-.352-.05-.67-.035-1.04-.02-.206.01-.426.02-.677.02 1.061-3.008 2.122-5.989 3.178-8.955C77.036 8.403 78.532 4.201 80 0c1.015.077 2.03.077 3.044.077zm2.341 13.83l-.517-1.438c-1.137-3.16-2.232-6.2-3.385-9.473a677.247 677.247 0 00-2.377 6.5c-.532 1.472-1.06 2.935-1.603 4.41h7.882zM0 48.404c.312-.845.624-1.71.937-2.574.312-.864.624-1.728.936-2.574 1.443-4.262 2.886-8.543 4.33-12.824l.001-.005v-.002c1.445-4.283 2.888-8.566 4.332-12.83.078-.308.234-.692.39-1.076h4.917c.61 0 .699.44.775.818l.006.027c1.053 3.15 2.127 6.281 3.2 9.412a1348.61 1348.61 0 013.2 9.412l.002.007v.002a2093.96 2093.96 0 003.978 11.67c.078.306.156.537.312.997v.001h-4.995c-.234 0-.546-.46-.624-.768a977.794 977.794 0 01-4.37-14.137c-1.25-4.15-2.576-8.298-4.06-12.447-.038.154-.097.288-.155.422a2.706 2.706 0 00-.156.423c-.885 2.842-1.778 5.685-2.67 8.527l-.001.001c-1.787 5.686-3.573 11.372-5.29 17.057-.234.769-.546.922-1.327.922-.747-.046-1.465-.01-2.19.027a28.6 28.6 0 01-1.478.05v-.538zm175.758 16.442a38.167 38.167 0 00-.937-.213c-.624-.137-1.249-.273-1.873-.478-3.746-1.153-5.932-3.842-6.868-7.453-1.171-4.533-1.249-9.066-.156-13.6 1.249-5.147 4.761-7.99 10.146-8.374 4.058-.307 7.96.23 11.863 1.46-.104.382-.207.755-.311 1.128l-.002.008c-.208.75-.416 1.502-.624 2.321-.409-.084-.811-.175-1.212-.265-1.051-.236-2.084-.469-3.158-.58-1.795-.23-3.512-.384-5.307-.307-3.981.23-6.322 2.228-7.181 6.07-.78 3.457-.78 6.991.078 10.526 1.171 4.84 4.527 6.53 9.288 6.07 1.15-.142 2.233-.544 3.372-.967l.009-.003.287-.106c.234-.077.546-.461.546-.692.052-1.374.035-2.715.018-4.09a164.35 164.35 0 01-.018-2.133h-5.619V49.48h9.834v12.37c0 .614-.156.922-.781 1.152-1.092.308-2.165.615-3.238.922h-.003v.001h-.001c-1.072.307-2.144.614-3.236.921-.078 0-.234.077-.312.154-1.483-.154-3.043-.154-4.604-.154zm19.198-.384h17.872v-3.61h-14.985v-9.758h12.722v-3.765h-12.722V38.8h14.673v-3.61h-18.887v29.272h1.327zM175.721 4.418c-.507-1.44-1.015-2.881-1.522-4.341h-3.044c-.039.115-.078.25-.117.384v.001a9.546 9.546 0 01-.117.383c-.897 2.574-1.814 5.128-2.731 7.683-.917 2.555-1.835 5.11-2.732 7.684a515.703 515.703 0 01-1.951 5.455c.251 0 .471-.01.677-.02.369-.015.688-.03 1.04.02.624.077.936-.154 1.092-.769.198-.583.409-1.166.623-1.755l.001-.004.002-.006h.001v-.001c.291-.804.587-1.619.856-2.46.156-.537.469-.69 1.015-.69h7.492c.547 0 .859.153 1.015.69.468 1.537 1.014 2.997 1.561 4.457.078.23.312.538.546.538.466.05.966.034 1.477.017.26-.009.523-.017.786-.017a7.874 7.874 0 00-.234-.922l-4.214-11.986c-.507-1.46-1.015-2.9-1.522-4.341zm-3.083-1.114h.234c.416 1.178.833 2.347 1.249 3.517l.001.004h.001c.831 2.338 1.663 4.676 2.495 7.082h-7.882c.463-1.262.927-2.505 1.387-3.739l.001-.001a416.227 416.227 0 002.514-6.863zM31.688.077a555.721 555.721 0 001.874 5.916l11.94 35.266 7.493 22.127c.04.154.078.288.117.423.04.135.078.269.117.423-1.483.23-1.483.23-1.873-.922C44.254 42.41 37.152 21.513 30.05.538a1.084 1.084 0 01-.078-.27A1.088 1.088 0 0029.894 0c.702.077 1.248.077 1.795.077zm58.68 49.333a1.837 1.837 0 00-.149-.084l.056-.027.033-.016.044-.02c.248-.118.448-.213.648-.475 2.341-1.152 3.668-3.073 3.824-5.608.156-2.843-.546-5.302-3.2-6.915-1.639-.922-3.434-1.306-5.307-1.306H74.61c-.167 0-.312.022-.447.042a2.187 2.187 0 01-.333.034v29.273h7.258c.515 0 1.03.003 1.545.007 2.06.012 4.121.024 6.181-.16 3.825-.308 6.244-2.69 6.79-6.377.625-3.996-1.248-6.915-5.073-8.298-.048 0-.096-.03-.163-.07zm-2.412 11.134c-3.278.153-6.478.23-9.834.307v-.003c0-3.303 0-6.375-.078-9.524h3.044c.465 0 .934-.005 1.406-.01h.003c1.43-.014 2.881-.029 4.288.087 3.825.23 5.776 3.995 3.903 7.299-.625 1.075-1.561 1.767-2.732 1.844zm-9.834-13.062v-8.605c.969 0 1.928-.026 2.882-.052 1.89-.05 3.758-.101 5.625.052 3.278.307 4.917 3.842 3.278 6.761-.702 1.23-1.873 1.767-3.2 1.844-1.87.051-3.775.034-5.691.017a323.86 323.86 0 00-2.894-.017zM118.57 57.4c1.46 2.317 2.93 4.65 4.427 7.062h-4.604c-.234 0-.547-.384-.703-.615-1.532-2.402-3.023-4.845-4.503-7.27-.555-.91-1.109-1.816-1.662-2.718-.312-.538-.625-.768-1.327-.768-1.188.05-2.342.034-3.53.017-.606-.008-1.222-.017-1.855-.017v11.294h-4.137V35.112h12.254c8.897 0 10.458 8.452 8.116 13.215-.936 1.921-2.575 3.15-4.604 3.765a5.093 5.093 0 00-1.015.307 1566.76 1566.76 0 003.143 5zm-13.835-8.074h7.492c.468 0 .937-.077 1.405-.154 1.717-.307 3.044-1.229 3.668-2.92 1.483-3.995-.858-7.452-5.151-7.452h-6.556c-.234 0-.546 0-.78.077-.078 3.456-.078 6.836-.078 10.446v.003zm32.471-14.137v29.35c1.67-.056 3.33-.071 4.98-.087h.001c2.898-.026 5.764-.053 8.599-.297 4.527-.385 7.336-3.227 8.663-7.453 1.171-3.842 1.171-7.683.624-11.525-.39-2.459-1.17-4.764-2.887-6.608-2.342-2.612-5.464-3.38-8.82-3.457h-10.302c-.156 0-.292.02-.429.038-.136.02-.273.039-.429.039zm6.628 25.543c-.798-.017-1.601-.035-2.414-.035V39.031c.078-.077.156-.154.235-.154.626 0 1.248-.005 1.867-.01h.003c1.844-.014 3.655-.028 5.466.087 3.434.153 5.697 2.151 6.478 5.608a22.61 22.61 0 010 10.22c-.859 3.764-3.044 5.608-6.946 5.915-1.556.102-3.111.069-4.689.035zm43.321-39.065h-2.342V.23c.241 0 .472-.01.697-.018.433-.017.844-.033 1.254.018.313.077.625.384.781.614 1.258 1.873 2.527 3.745 3.799 5.621 2.121 3.129 4.249 6.269 6.347 9.439.234.384.546.768.936 1.075V.23h2.342v21.36c-.24 0-.471.01-.697.018-.433.017-.843.033-1.254-.018-.312-.077-.703-.384-.859-.691-1.717-2.536-3.434-5.052-5.151-7.568a2579.106 2579.106 0 01-5.151-7.568 13.306 13.306 0 00-.232-.328l-.002-.003V5.43c-.13-.18-.286-.397-.468-.667v16.903zm-56.662 0v-8.913h1.327c.507 0 1.014.005 1.522.01 1.521.014 3.043.029 4.565-.087 3.434-.23 5.385-2.458 5.464-5.993.078-3.457-1.952-6.07-5.308-6.3-2.337-.164-4.673-.133-7.039-.102-.952.013-1.909.025-2.872.025v21.36h2.341zm2.155-11.116c-.691-.012-1.384-.025-2.077-.025V2.46c.742 0 1.478-.013 2.208-.026 1.801-.03 3.562-.062 5.284.103 1.952.23 2.966 1.997 2.888 4.225-.078 2.075-1.171 3.535-3.2 3.688-1.67.165-3.381.134-5.103.102zm-5.196 24.561h4.059v29.196h-4.059V35.112zM93.576.307v21.36c4.449 0 8.897 0 13.346-.077v-1.998H95.917V.307h-2.341zm17.324 0h2.263v19.285h11.005v2.075H110.9V.307zm36.372 0v21.36c4.527 0 8.897 0 13.424-.077v-1.998h-11.005V.307h-2.419z" fill="#005B8B"/><path fill-rule="evenodd" clip-rule="evenodd" d="M83.044.077c2.498 7.145 4.995 14.29 7.57 21.59-.298 0-.578.009-.846.018-.5.017-.959.032-1.417-.018-.234 0-.546-.308-.624-.615-.546-1.46-1.014-2.919-1.483-4.378v-.001c-.156-.538-.39-.769-1.015-.769-1.662.051-3.29.034-4.928.017-.824-.008-1.65-.017-2.486-.017-.624 0-.858.154-1.093.692a85.85 85.85 0 01-.741 2.074 88.107 88.107 0 00-.741 2.075c-.235.614-.469.922-1.171.845-.352-.05-.67-.035-1.04-.02-.206.01-.426.02-.677.02 1.061-3.008 2.122-5.989 3.178-8.955C77.036 8.403 78.532 4.201 80 0c1.015.077 2.03.077 3.044.077zm2.341 13.83l-.517-1.438c-1.137-3.16-2.232-6.2-3.385-9.473a677.247 677.247 0 00-2.377 6.5c-.532 1.472-1.06 2.935-1.603 4.41h7.882zM0 48.404c.312-.845.624-1.71.937-2.574.312-.864.624-1.728.936-2.574 1.443-4.262 2.886-8.543 4.33-12.824l.001-.005v-.002c1.445-4.283 2.888-8.566 4.332-12.83.078-.308.234-.692.39-1.076h4.917c.61 0 .699.44.775.818l.006.027c1.053 3.15 2.127 6.281 3.2 9.412a1348.61 1348.61 0 013.2 9.412l.002.007v.002a2093.96 2093.96 0 003.978 11.67c.078.306.156.537.312.997v.001h-4.995c-.234 0-.546-.46-.624-.768a977.794 977.794 0 01-4.37-14.137c-1.25-4.15-2.576-8.298-4.06-12.447-.038.154-.097.288-.155.422a2.706 2.706 0 00-.156.423c-.885 2.842-1.778 5.685-2.67 8.527l-.001.001c-1.787 5.686-3.573 11.372-5.29 17.057-.234.769-.546.922-1.327.922-.747-.046-1.465-.01-2.19.027a28.6 28.6 0 01-1.478.05v-.538zm175.758 16.442a38.167 38.167 0 00-.937-.213c-.624-.137-1.249-.273-1.873-.478-3.746-1.153-5.932-3.842-6.868-7.453-1.171-4.533-1.249-9.066-.156-13.6 1.249-5.147 4.761-7.99 10.146-8.374 4.058-.307 7.96.23 11.863 1.46-.104.382-.207.755-.311 1.128l-.002.008c-.208.75-.416 1.502-.624 2.321-.409-.084-.811-.175-1.212-.265-1.051-.236-2.084-.469-3.158-.58-1.795-.23-3.512-.384-5.307-.307-3.981.23-6.322 2.228-7.181 6.07-.78 3.457-.78 6.991.078 10.526 1.171 4.84 4.527 6.53 9.288 6.07 1.15-.142 2.233-.544 3.372-.967l.009-.003.287-.106c.234-.077.546-.461.546-.692.052-1.374.035-2.715.018-4.09a164.35 164.35 0 01-.018-2.133h-5.619V49.48h9.834v12.37c0 .614-.156.922-.781 1.152-1.092.308-2.165.615-3.238.922h-.003v.001h-.001c-1.072.307-2.144.614-3.236.921-.078 0-.234.077-.312.154-1.483-.154-3.043-.154-4.604-.154zm19.198-.384h17.872v-3.61h-14.985v-9.758h12.722v-3.765h-12.722V38.8h14.673v-3.61h-18.887v29.272h1.327zM175.721 4.418c-.507-1.44-1.015-2.881-1.522-4.341h-3.044c-.039.115-.078.25-.117.384v.001a9.546 9.546 0 01-.117.383c-.897 2.574-1.814 5.128-2.731 7.683-.917 2.555-1.835 5.11-2.732 7.684a515.703 515.703 0 01-1.951 5.455c.251 0 .471-.01.677-.02.369-.015.688-.03 1.04.02.624.077.936-.154 1.092-.769.198-.583.409-1.166.623-1.755l.001-.004.002-.006h.001v-.001c.291-.804.587-1.619.856-2.46.156-.537.469-.69 1.015-.69h7.492c.547 0 .859.153 1.015.69.468 1.537 1.014 2.997 1.561 4.457.078.23.312.538.546.538.466.05.966.034 1.477.017.26-.009.523-.017.786-.017a7.874 7.874 0 00-.234-.922l-4.214-11.986c-.507-1.46-1.015-2.9-1.522-4.341zm-3.083-1.114h.234c.416 1.178.833 2.347 1.249 3.517l.001.004h.001c.831 2.338 1.663 4.676 2.495 7.082h-7.882c.463-1.262.927-2.505 1.387-3.739l.001-.001a416.227 416.227 0 002.514-6.863zM31.688.077a555.721 555.721 0 001.874 5.916l11.94 35.266 7.493 22.127c.04.154.078.288.117.423.04.135.078.269.117.423-1.483.23-1.483.23-1.873-.922C44.254 42.41 37.152 21.513 30.05.538a1.084 1.084 0 01-.078-.27A1.088 1.088 0 0029.894 0c.702.077 1.248.077 1.795.077zm58.68 49.333a1.837 1.837 0 00-.149-.084l.056-.027.033-.016.044-.02c.248-.118.448-.213.648-.475 2.341-1.152 3.668-3.073 3.824-5.608.156-2.843-.546-5.302-3.2-6.915-1.639-.922-3.434-1.306-5.307-1.306H74.61c-.167 0-.312.022-.447.042a2.187 2.187 0 01-.333.034v29.273h7.258c.515 0 1.03.003 1.545.007 2.06.012 4.121.024 6.181-.16 3.825-.308 6.244-2.69 6.79-6.377.625-3.996-1.248-6.915-5.073-8.298-.048 0-.096-.03-.163-.07zm-2.412 11.134c-3.278.153-6.478.23-9.834.307v-.003c0-3.303 0-6.375-.078-9.524h3.044c.465 0 .934-.005 1.406-.01h.003c1.43-.014 2.881-.029 4.288.087 3.825.23 5.776 3.995 3.903 7.299-.625 1.075-1.561 1.767-2.732 1.844zm-9.834-13.062v-8.605c.969 0 1.928-.026 2.882-.052 1.89-.05 3.758-.101 5.625.052 3.278.307 4.917 3.842 3.278 6.761-.702 1.23-1.873 1.767-3.2 1.844-1.87.051-3.775.034-5.691.017a323.86 323.86 0 00-2.894-.017zM118.57 57.4c1.46 2.317 2.93 4.65 4.427 7.062h-4.604c-.234 0-.547-.384-.703-.615-1.532-2.402-3.023-4.845-4.503-7.27-.555-.91-1.109-1.816-1.662-2.718-.312-.538-.625-.768-1.327-.768-1.188.05-2.342.034-3.53.017-.606-.008-1.222-.017-1.855-.017v11.294h-4.137V35.112h12.254c8.897 0 10.458 8.452 8.116 13.215-.936 1.921-2.575 3.15-4.604 3.765a5.093 5.093 0 00-1.015.307 1566.76 1566.76 0 003.143 5zm-13.835-8.074h7.492c.468 0 .937-.077 1.405-.154 1.717-.307 3.044-1.229 3.668-2.92 1.483-3.995-.858-7.452-5.151-7.452h-6.556c-.234 0-.546 0-.78.077-.078 3.456-.078 6.836-.078 10.446v.003zm32.471-14.137v29.35c1.67-.056 3.33-.071 4.98-.087h.001c2.898-.026 5.764-.053 8.599-.297 4.527-.385 7.336-3.227 8.663-7.453 1.171-3.842 1.171-7.683.624-11.525-.39-2.459-1.17-4.764-2.887-6.608-2.342-2.612-5.464-3.38-8.82-3.457h-10.302c-.156 0-.292.02-.429.038-.136.02-.273.039-.429.039zm6.628 25.543c-.798-.017-1.601-.035-2.414-.035V39.031c.078-.077.156-.154.235-.154.626 0 1.248-.005 1.867-.01h.003c1.844-.014 3.655-.028 5.466.087 3.434.153 5.697 2.151 6.478 5.608a22.61 22.61 0 010 10.22c-.859 3.764-3.044 5.608-6.946 5.915-1.556.102-3.111.069-4.689.035zm43.321-39.065h-2.342V.23c.241 0 .472-.01.697-.018.433-.017.844-.033 1.254.018.313.077.625.384.781.614 1.258 1.873 2.527 3.745 3.799 5.621 2.121 3.129 4.249 6.269 6.347 9.439.234.384.546.768.936 1.075V.23h2.342v21.36c-.24 0-.471.01-.697.018-.433.017-.843.033-1.254-.018-.312-.077-.703-.384-.859-.691-1.717-2.536-3.434-5.052-5.151-7.568a2579.106 2579.106 0 01-5.151-7.568 13.306 13.306 0 00-.232-.328l-.002-.003V5.43c-.13-.18-.286-.397-.468-.667v16.903zm-56.662 0v-8.913h1.327c.507 0 1.014.005 1.522.01 1.521.014 3.043.029 4.565-.087 3.434-.23 5.385-2.458 5.464-5.993.078-3.457-1.952-6.07-5.308-6.3-2.337-.164-4.673-.133-7.039-.102-.952.013-1.909.025-2.872.025v21.36h2.341zm2.155-11.116c-.691-.012-1.384-.025-2.077-.025V2.46c.742 0 1.478-.013 2.208-.026 1.801-.03 3.562-.062 5.284.103 1.952.23 2.966 1.997 2.888 4.225-.078 2.075-1.171 3.535-3.2 3.688-1.67.165-3.381.134-5.103.102zm-5.196 24.561h4.059v29.196h-4.059V35.112zM93.576.307v21.36c4.449 0 8.897 0 13.346-.077v-1.998H95.917V.307h-2.341zm17.324 0h2.263v19.285h11.005v2.075H110.9V.307zm36.372 0v21.36c4.527 0 8.897 0 13.424-.077v-1.998h-11.005V.307h-2.419z" fill="url(#paint1_linear_520_6438)"/><defs><linearGradient id="paint0_linear_520_6438" x1="212.984" y1="65.033" x2="93.764" y2="141.459" gradientUnits="userSpaceOnUse"><stop offset="1" stop-color="#9002FF"/></linearGradient><linearGradient id="paint1_linear_520_6438" x1="212.984" y1="65.033" x2="93.764" y2="141.459" gradientUnits="userSpaceOnUse"><stop stop-color="#FA3901"/><stop offset="1" stop-color="#FF8902"/></linearGradient></defs></svg>