<svg width="475" height="400" fill="none" xmlns="http://www.w3.org/2000/svg"><path fill-rule="evenodd" clip-rule="evenodd" d="M213.85 54.006L235.79 0l86.494 203.787-21.096-11.11-65.117-156.11-7.454 17.439 53.444 127.42-19.831-10.83-48.38-116.59zm14.767 71.585l-21.939-54.005-56.256 134.451 20.072-11.813 35.902-86.072 7.454 17.439-23.768 57.241 20.393-12.236 18.142-45.005zM36.736 274.959a583.39 583.39 0 014.678 13.058H34.75a1259.824 1259.824 0 00-6.73-19.523c-2.222-6.23-4.508-12.055-6.858-17.474-2.35 5.462-4.636 11.308-6.858 17.538a1601.218 1601.218 0 00-6.794 19.459H.651a434.39 434.39 0 014.615-13.058 839.036 839.036 0 014.358-11.329c1.453-3.585 2.863-7.02 4.23-10.306a663.95 663.95 0 014.294-9.666h5.833a389.578 389.578 0 014.23 9.666c1.41 3.286 2.82 6.721 4.23 10.306 1.41 3.584 2.842 7.36 4.295 11.329zm348.458 13.057a595.07 595.07 0 00-4.678-13.058 514.894 514.894 0 00-4.295-11.329 370.364 370.364 0 00-4.229-10.306 386.42 386.42 0 00-4.231-9.665h-5.832a646.55 646.55 0 00-4.295 9.665 1250.413 1250.413 0 00-4.231 10.306 866.19 866.19 0 00-4.358 11.329 437.08 437.08 0 00-4.613 13.058h6.856a1587.364 1587.364 0 016.796-19.459c2.221-6.23 4.506-12.076 6.857-17.538 2.35 5.419 4.635 11.244 6.858 17.474a1256.24 1256.24 0 016.729 19.523h6.666zm63.972.648c2.137.896 4.657 1.344 7.563 1.344 2.905 0 5.406-.448 7.499-1.344 2.135-.896 3.888-2.113 5.255-3.649 1.411-1.578 2.435-3.435 3.078-5.569.683-2.133 1.024-4.437 1.024-6.913V244.69h-6.216v27.139c0 2.22-.257 4.14-.77 5.761-.513 1.579-1.238 2.881-2.178 3.905a8.912 8.912 0 01-3.397 2.304c-1.282.469-2.713.705-4.295.705-3.162 0-5.726-1.004-7.691-3.009-1.967-2.006-2.948-5.228-2.948-9.666V244.69h-6.218v27.843c0 2.476.321 4.78.961 6.913.686 2.134 1.71 3.991 3.077 5.569 1.368 1.536 3.12 2.753 5.256 3.649zm-326.012-4.993v5.377H96.427V244.69h6.218v38.981h20.509zm81.569 5.377v-5.377h-20.509V244.69h-6.218v44.358h26.727zm66.842.381a75.578 75.578 0 01-9.166-.577 23.731 23.731 0 01-2.818-.511v-43.014a24.127 24.127 0 012.818-.513 78.285 78.285 0 013.078-.32 81.831 81.831 0 013.14-.191 69.133 69.133 0 012.884-.065c2.565 0 4.957.192 7.178.576 2.265.384 4.21 1.046 5.832 1.984 1.667.897 2.971 2.092 3.911 3.585.94 1.493 1.41 3.328 1.41 5.505 0 2.432-.577 4.438-1.73 6.017-1.154 1.537-2.691 2.688-4.615 3.457 2.607.767 4.679 1.984 6.216 3.648 1.54 1.664 2.307 4.011 2.307 7.04 0 4.439-1.644 7.789-4.934 10.051-3.248 2.218-8.417 3.328-15.511 3.328zm-5.832-21.059v15.618c.47.042 1.025.086 1.668.128a108.2 108.2 0 001.921.128h2.628c1.837 0 3.568-.107 5.192-.32 1.666-.256 3.12-.683 4.357-1.28 1.239-.598 2.224-1.43 2.948-2.496.77-1.067 1.154-2.411 1.154-4.033 0-1.451-.277-2.667-.833-3.649-.555-1.024-1.366-1.835-2.435-2.432-1.026-.597-2.264-1.024-3.718-1.28-1.453-.256-3.075-.384-4.871-.384h-8.011zm0-4.993h6.537c1.54 0 2.992-.106 4.359-.32 1.366-.213 2.543-.597 3.524-1.152 1.026-.555 1.817-1.281 2.373-2.176.597-.896.897-2.027.897-3.393 0-1.28-.3-2.347-.897-3.2-.599-.896-1.431-1.6-2.5-2.113-1.025-.554-2.244-.96-3.655-1.216a25.067 25.067 0 00-4.485-.384c-1.581 0-2.82.022-3.718.064-.897.043-1.71.107-2.435.192v13.698zM1.664 322.124c0-1.13.827-1.695 2.48-1.695.74 0 1.365.087 1.876.261.511.173.892.331 1.142.473l.473-1.304a9.511 9.511 0 00-.49-.245 8.882 8.882 0 00-.766-.261 9.443 9.443 0 00-.995-.195 7.377 7.377 0 00-1.24-.098c-1.316 0-2.333.266-3.05.799-.73.532-1.094 1.292-1.094 2.281 0 .532.082.983.245 1.352.163.38.397.706.701.978a4.18 4.18 0 001.06.7c.403.196.85.391 1.339.587.348.13.668.26.962.391.283.13.533.271.75.423.218.163.387.348.506.555.12.206.18.462.18.766 0 .271-.055.505-.163.7-.12.206-.278.374-.474.505a2.18 2.18 0 01-.685.293 3.505 3.505 0 01-.848.098c-.598 0-1.12-.07-1.566-.212-.457-.131-.8-.266-1.028-.407l-.506 1.287c.261.174.674.331 1.24.472a7.036 7.036 0 001.86.228c1.185 0 2.115-.277 2.79-.83.674-.554 1.011-1.325 1.011-2.314 0-.478-.076-.886-.228-1.223a2.909 2.909 0 00-.653-.879 4.492 4.492 0 00-.962-.635 11.19 11.19 0 00-1.175-.472 24.933 24.933 0 01-1.011-.392 3.831 3.831 0 01-.865-.473 1.902 1.902 0 01-.587-.635c-.153-.238-.229-.532-.229-.879zm62.223 3.167c0-.966.141-1.82.424-2.558.294-.739.685-1.353 1.175-1.841a4.9 4.9 0 011.73-1.124 5.919 5.919 0 012.104-.375c.729 0 1.414.125 2.056.375.652.25 1.223.624 1.713 1.124.489.488.875 1.102 1.158 1.841.293.738.44 1.592.44 2.558 0 .967-.147 1.82-.44 2.559-.283.738-.67 1.358-1.158 1.857-.49.489-1.06.858-1.713 1.107a5.593 5.593 0 01-2.056.376 5.9 5.9 0 01-2.105-.376 4.996 4.996 0 01-1.73-1.107c-.489-.499-.88-1.119-1.174-1.857-.283-.739-.424-1.592-.424-2.559zm1.664 0c0 .684.087 1.309.261 1.874.174.554.419 1.026.734 1.418.327.391.718.695 1.175.912.468.206.99.309 1.566.309a3.73 3.73 0 001.55-.309 3.274 3.274 0 001.158-.912c.327-.392.577-.864.75-1.418.175-.565.262-1.19.262-1.874 0-.684-.087-1.303-.261-1.857a4.084 4.084 0 00-.75-1.434 3.114 3.114 0 00-1.159-.896 3.568 3.568 0 00-1.55-.326c-.576 0-1.098.109-1.566.326a3.26 3.26 0 00-1.175.896c-.315.391-.56.869-.734 1.434a6.185 6.185 0 00-.26 1.857zm66.39-5.637v11.291h1.583v-5.198h4.649v-1.336h-4.649v-3.405h5.237v-1.352h-6.82zm75.131 0v1.368h-3.557v9.923h-1.582v-9.923h-3.557v-1.368h8.696zm64.841 7.674a75.51 75.51 0 001.386-4.041 88.617 88.617 0 001.37 4.041c.457 1.238.925 2.444 1.404 3.617h1.582a56.204 56.204 0 001.501-5.263 105.9 105.9 0 001.257-6.028h-1.615a294.86 294.86 0 01-.474 2.557c-.163.848-.332 1.673-.506 2.477a76.372 76.372 0 01-.505 2.281 47.108 47.108 0 01-.523 2.004c-.435-1.14-.903-2.389-1.402-3.747a66.102 66.102 0 01-1.386-4.237h-1.371a74.597 74.597 0 01-1.371 4.237c-.49 1.358-.953 2.607-1.388 3.747a37.41 37.41 0 01-.538-2.021c-.172-.727-.348-1.487-.522-2.28a120.87 120.87 0 01-.506-2.477c-.163-.847-.321-1.695-.472-2.541h-1.665a107.12 107.12 0 001.224 6.028 56.436 56.436 0 001.535 5.263h1.582c.467-1.173.936-2.379 1.403-3.617zm72.349 3.858a61.042 61.042 0 01-.561-1.541c-.175-.513-.356-1.032-.543-1.558h-5.504l-1.105 3.099h-1.77c.467-1.284.905-2.468 1.315-3.554.409-1.097.806-2.136 1.191-3.116.398-.98.79-1.914 1.175-2.801.386-.898.789-1.785 1.209-2.661h1.56a86.192 86.192 0 012.367 5.462c.397.98.8 2.019 1.21 3.116.409 1.086.848 2.27 1.315 3.554h-1.859zm-1.595-4.499a132.343 132.343 0 00-1.122-2.941 46.283 46.283 0 00-1.139-2.748 45.57 45.57 0 00-1.175 2.748c-.361.945-.725 1.926-1.087 2.941h4.523zm65.813.391a26.785 26.785 0 00-.651-.864c.772-.261 1.354-.657 1.744-1.19.403-.532.604-1.172.604-1.922 0-1.184-.419-2.075-1.256-2.672-.826-.597-2.033-.896-3.622-.896-.457 0-.962.022-1.517.065a8.42 8.42 0 00-1.485.212v11.128h1.583v-4.415h1.859c.153 0 .299-.006.441-.017.206.251.433.544.685.88.262.337.522.701.783 1.092.261.38.516.782.767 1.206.261.423.5.842.718 1.254h1.729a12.819 12.819 0 00-.717-1.353 25.72 25.72 0 00-.834-1.335 15.808 15.808 0 00-.831-1.173zm-4.6-6.11c.358-.033.875-.05 1.55-.05.424 0 .821.033 1.19.099.381.065.708.179.978.342.284.163.508.385.67.668.164.282.246.635.246 1.059 0 .456-.082.825-.246 1.108a1.656 1.656 0 01-.702.635c-.293.152-.657.255-1.093.31-.435.054-.923.081-1.467.081h-1.126v-4.252zm63.683 9.977v-11.291h6.902v1.352h-5.319v3.356h4.731v1.32h-4.731v3.91h5.727v1.353h-7.31zM13.181 397.377c.255.73.526 1.477.815 2.241H16.7a483.7 483.7 0 00-1.912-5.169 170.685 170.685 0 00-1.76-4.532 122.665 122.665 0 00-1.682-4.074 98.892 98.892 0 00-1.76-3.871h-2.27a98.966 98.966 0 00-1.759 3.871 172.561 172.561 0 00-1.708 4.074 267.106 267.106 0 00-1.734 4.532 483.464 483.464 0 00-1.912 5.169h2.575l1.606-4.507h8.006c.272.764.535 1.52.79 2.266zm-3.137-8.581a192.191 192.191 0 011.632 4.278H5.098a196.07 196.07 0 011.58-4.278 67.56 67.56 0 011.71-3.998 67.68 67.68 0 011.656 3.998zm20.451 10.822v-2.139h-8.159v-15.507h-2.473v17.646h10.632zm13.986 0v-2.139h-8.159v-15.507H33.85v17.646h10.632zm13.757-16.398c-1.326-.951-3.23-1.426-5.711-1.426-.714 0-1.505.034-2.371.101-.85.052-1.624.162-2.32.332v17.391h2.473v-6.544h1.963c1.24 0 2.354-.102 3.34-.305.986-.205 1.819-.527 2.498-.968a4.48 4.48 0 001.581-1.758c.374-.729.561-1.604.561-2.622 0-1.867-.671-3.268-2.014-4.201zm-7.93.814c.562-.051 1.369-.076 2.423-.076.663 0 1.292.051 1.886.153a4.315 4.315 0 011.556.56c.459.255.816.603 1.07 1.044.273.441.409 1.001.409 1.681 0 .712-.128 1.298-.383 1.757-.255.458-.62.823-1.096 1.094-.46.255-1.029.442-1.709.56a15.43 15.43 0 01-2.294.153h-1.861v-6.926zm24.437 15.584v-2.139h-8.16v-15.507h-2.473v17.646h10.633zm15.065-2.241c.255.73.527 1.477.816 2.241h2.702a488.08 488.08 0 00-1.912-5.169 171.03 171.03 0 00-1.76-4.532 122.88 122.88 0 00-1.682-4.074 98.804 98.804 0 00-1.76-3.871h-2.268a98.95 98.95 0 00-1.76 3.871 172.532 172.532 0 00-1.708 4.074 267.268 267.268 0 00-1.734 4.532 485.767 485.767 0 00-1.912 5.169h2.575l1.606-4.507h8.006c.272.764.536 1.52.79 2.266zm-3.136-8.581a192.687 192.687 0 011.632 4.278h-6.579a196.07 196.07 0 011.581-4.278 67.56 67.56 0 011.708-3.998 67.646 67.646 0 011.658 3.998zm20.629 8.708c.493.781.926 1.486 1.3 2.114h2.066v-17.646h-2.423v13.062a61.247 61.247 0 00-2.014-3.081 82.72 82.72 0 00-2.524-3.514 83.706 83.706 0 00-2.702-3.488 46.947 46.947 0 00-2.55-2.979h-1.964v17.646h2.423v-13.775c.475.542.994 1.171 1.555 1.883a79.93 79.93 0 011.734 2.292c.595.798 1.189 1.63 1.784 2.495a103.16 103.16 0 011.759 2.572c.561.832 1.08 1.639 1.556 2.419zm32.238-14.284c-1.326-.951-3.229-1.426-5.71-1.426-.715 0-1.505.034-2.372.101-.85.052-1.623.162-2.321.332v17.391h2.474v-6.544h1.963c1.241 0 2.355-.102 3.341-.305.985-.205 1.818-.527 2.498-.968a4.48 4.48 0 001.581-1.758c.374-.729.561-1.604.561-2.622 0-1.867-.672-3.268-2.015-4.201zm-7.929.814c.561-.051 1.368-.076 2.422-.076.663 0 1.292.051 1.887.153a4.314 4.314 0 011.555.56c.459.255.816.603 1.071 1.044.272.441.408 1.001.408 1.681 0 .712-.127 1.298-.383 1.757-.254.458-.62.823-1.096 1.094-.459.255-1.028.442-1.708.56-.68.103-1.445.153-2.295.153h-1.861v-6.926zm24.436 15.584v-2.139h-8.159v-15.507h-2.473v17.646h10.632zm6.475-.153c.85.357 1.853.535 3.009.535 1.155 0 2.151-.178 2.983-.535.85-.357 1.546-.84 2.091-1.451a5.786 5.786 0 001.225-2.216c.27-.848.407-1.765.407-2.75v-11.076h-2.473v10.797c0 .882-.102 1.646-.306 2.291-.204.628-.494 1.146-.867 1.553a3.56 3.56 0 01-1.351.917c-.51.186-1.081.28-1.709.28-1.259 0-2.278-.399-3.059-1.197-.782-.798-1.173-2.079-1.173-3.844v-10.797h-2.473v11.076c0 .985.127 1.902.382 2.75a6.24 6.24 0 001.224 2.216c.544.611 1.24 1.094 2.09 1.451zm28.007-8.53h-2.473v6.569c-.22.068-.586.145-1.096.229-.492.069-1.096.103-1.811.103-1.001 0-1.876-.17-2.625-.51a5.33 5.33 0 01-1.862-1.425c-.492-.629-.866-1.375-1.122-2.242-.237-.865-.357-1.824-.357-2.877 0-1.086.146-2.062.434-2.928.29-.883.688-1.629 1.198-2.241a5.302 5.302 0 011.887-1.401c.749-.321 1.573-.483 2.473-.483.851 0 1.683.11 2.499.33.815.205 1.47.468 1.963.791l.79-2.063a4.928 4.928 0 00-.586-.306 7.203 7.203 0 00-1.071-.407 12.13 12.13 0 00-1.606-.357 13.104 13.104 0 00-2.116-.152 8.992 8.992 0 00-3.315.611 7.7 7.7 0 00-2.677 1.782c-.765.781-1.377 1.749-1.836 2.903-.441 1.137-.663 2.445-.663 3.921 0 1.477.196 2.784.587 3.922.408 1.136.978 2.096 1.708 2.876a7.21 7.21 0 002.626 1.784c1.02.407 2.151.611 3.391.611.612 0 1.216-.034 1.81-.103.596-.05 1.14-.118 1.633-.203.509-.085.953-.17 1.325-.255.392-.084.688-.161.892-.229v-8.25zm7.11-8.963h-2.472v17.646h2.472v-17.646zm15.951 15.532a89.25 89.25 0 011.3 2.114h2.065v-17.646h-2.422v13.062a59.3 59.3 0 00-2.015-3.081 80.132 80.132 0 00-2.524-3.514 80.442 80.442 0 00-2.703-3.488 45.94 45.94 0 00-2.549-2.979h-1.963v17.646h2.423v-13.775c.476.542.994 1.171 1.555 1.883a79.93 79.93 0 011.734 2.292c.595.798 1.189 1.63 1.784 2.495a103.16 103.16 0 011.759 2.572 62.366 62.366 0 011.556 2.419zm16.484-2.291c0 1.765-1.292 2.648-3.875 2.648-1.155 0-2.133-.136-2.932-.407-.798-.272-1.395-.518-1.785-.739l-.739 2.037c.103.056.228.121.374.193.117.058.247.121.391.189.339.136.739.272 1.198.408.46.118.977.22 1.555.305.595.102 1.242.153 1.938.153 2.057 0 3.646-.416 4.768-1.248 1.139-.832 1.709-2.02 1.709-3.565 0-.831-.128-1.536-.383-2.113a4.282 4.282 0 00-1.096-1.528 6.56 6.56 0 00-1.657-1.094 31.476 31.476 0 00-2.091-.917 28.294 28.294 0 01-1.505-.611 7.575 7.575 0 01-1.172-.663 2.897 2.897 0 01-.791-.865c-.187-.323-.281-.722-.281-1.197 0-.425.085-.79.256-1.095.186-.323.433-.586.738-.789a3.416 3.416 0 011.072-.459 5.453 5.453 0 011.326-.152c.935 0 1.75.11 2.448.33.713.204 1.249.416 1.606.637l.79-2.012c-.408-.271-1.053-.517-1.938-.738-.867-.238-1.836-.356-2.906-.356-1.853 0-3.307.433-4.361 1.298-1.053.866-1.58 2.071-1.58 3.616 0 .747.119 1.383.357 1.91a4.54 4.54 0 001.019 1.375c.426.373.927.704 1.505.993.579.272 1.191.518 1.836.738.56.204 1.088.407 1.581.611.509.204.96.45 1.351.739.39.271.697.602.917.993.238.373.357.831.357 1.375zm18.974-2.037c-.204.509-.307 1.094-.307 1.757 0 .525.092 1.077.281 1.654.186.578.5 1.113.943 1.605.459.475 1.053.874 1.785 1.197.73.305 1.648.458 2.754.458 1.189 0 2.243-.212 3.161-.636a8.778 8.778 0 002.423-1.707c.321.357.627.714.917 1.07.306.356.561.704.765 1.044h2.499a12.32 12.32 0 00-1.249-1.834 32.389 32.389 0 00-1.633-1.909c.511-.815.901-1.63 1.173-2.445.289-.831.467-1.595.536-2.291l-1.963-.255c-.17 1.307-.545 2.496-1.122 3.565l-4.13-4.202c.474-.254.925-.542 1.351-.865a6.8 6.8 0 001.122-1.07c.339-.39.602-.823.79-1.298a4.036 4.036 0 00.306-1.605c0-.526-.094-1.027-.28-1.502a3.25 3.25 0 00-.841-1.222c-.358-.339-.809-.611-1.352-.815-.528-.204-1.131-.305-1.811-.305-.662 0-1.274.101-1.835.305a4.353 4.353 0 00-1.428.866 4.187 4.187 0 00-.943 1.375c-.222.543-.332 1.154-.332 1.833 0 1.341.628 2.64 1.887 3.896-.494.238-.969.518-1.428.841-.459.305-.866.67-1.224 1.094a4.945 4.945 0 00-.815 1.401zm2.243 2.699a3.153 3.153 0 01-.179-.994c0-.542.077-1.018.231-1.425.168-.408.381-.756.637-1.044.254-.306.535-.56.841-.764.322-.203.637-.382.943-.535l4.972 5.016a5.766 5.766 0 01-1.887 1.299 5.668 5.668 0 01-2.294.458c-.647 0-1.191-.093-1.632-.279a3.525 3.525 0 01-1.046-.739 2.832 2.832 0 01-.586-.993zm5.431-11.841c.391.391.586.875.586 1.452 0 .441-.076.84-.229 1.197a3.267 3.267 0 01-.587.942 3.818 3.818 0 01-.866.764 9.2 9.2 0 01-1.046.611c-1.157-1.052-1.734-2.131-1.734-3.234 0-.662.195-1.214.587-1.655.407-.459.984-.688 1.733-.688.664 0 1.182.204 1.556.611zm34.519-.814c-1.326-.951-3.228-1.426-5.711-1.426-.714 0-1.504.034-2.372.101-.848.052-1.622.162-2.319.332v17.391h2.472v-6.544h1.964c1.241 0 2.355-.102 3.34-.305.986-.205 1.82-.527 2.499-.968a4.48 4.48 0 001.581-1.758c.374-.729.561-1.604.561-2.622 0-1.867-.671-3.268-2.015-4.201zm-7.93.814c.561-.051 1.37-.076 2.423-.076.663 0 1.292.051 1.887.153a4.3 4.3 0 011.555.56c.459.255.816.603 1.071 1.044.272.441.408 1.001.408 1.681 0 .712-.127 1.298-.383 1.757a2.818 2.818 0 01-1.096 1.094c-.459.255-1.028.442-1.708.56-.68.103-1.444.153-2.295.153h-1.862v-6.926zm23.468 9.549a39.36 39.36 0 00-1.019-1.349c1.206-.408 2.116-1.028 2.728-1.859.628-.832.943-1.833.943-3.005 0-1.85-.655-3.242-1.963-4.176-1.292-.934-3.179-1.4-5.66-1.4-.714 0-1.504.034-2.372.101-.85.052-1.623.162-2.32.332v17.391h2.474v-6.901h2.906c.238 0 .467-.008.689-.025.321.39.678.848 1.07 1.375.408.526.817 1.095 1.225 1.706.408.594.806 1.222 1.198 1.884.408.662.781 1.316 1.122 1.961h2.703a20.4 20.4 0 00-1.122-2.114 41.163 41.163 0 00-1.301-2.088 26.853 26.853 0 00-1.301-1.833zm-7.189-9.549c.561-.051 1.367-.076 2.422-.076.663 0 1.283.051 1.861.153.595.101 1.104.28 1.53.534.441.255.79.604 1.046 1.045.254.441.382.993.382 1.654 0 .713-.128 1.291-.382 1.732a2.617 2.617 0 01-1.097.994c-.459.237-1.029.398-1.708.483-.681.084-1.446.128-2.295.128h-1.759v-6.647zm14.001 2.751c-.442 1.153-.664 2.486-.664 3.997 0 1.511.222 2.844.664 3.998.458 1.154 1.07 2.122 1.835 2.903a7.84 7.84 0 002.703 1.731 9.247 9.247 0 003.289.586c1.14 0 2.21-.195 3.213-.586a7.58 7.58 0 002.677-1.731c.765-.781 1.368-1.749 1.81-2.903.459-1.154.689-2.487.689-3.998 0-1.511-.23-2.844-.689-3.997-.442-1.154-1.045-2.114-1.81-2.878a7.428 7.428 0 00-2.677-1.756 8.763 8.763 0 00-3.213-.586 9.247 9.247 0 00-3.289.586c-1.02.39-1.92.976-2.703 1.756-.765.764-1.377 1.724-1.835 2.878zm2.345 6.925c-.27-.882-.408-1.858-.408-2.928 0-1.069.138-2.037.408-2.903.273-.882.655-1.629 1.148-2.24a5.1 5.1 0 011.835-1.401c.732-.339 1.548-.509 2.448-.509.902 0 1.708.17 2.423.509a4.876 4.876 0 011.81 1.401c.51.611.902 1.358 1.172 2.24.273.866.408 1.834.408 2.903 0 1.07-.135 2.046-.408 2.928-.27.866-.662 1.605-1.172 2.216a5.111 5.111 0 01-1.81 1.425c-.715.323-1.521.485-2.423.485-.9 0-1.716-.162-2.448-.485a5.354 5.354 0 01-1.835-1.425c-.493-.611-.875-1.35-1.148-2.216zm31.573-2.775h-2.473v6.569c-.22.068-.586.145-1.097.229-.492.069-1.096.103-1.809.103-1.003 0-1.878-.17-2.627-.51a5.335 5.335 0 01-1.861-1.425c-.492-.629-.867-1.375-1.122-2.242-.238-.865-.357-1.824-.357-2.877 0-1.086.145-2.062.433-2.928.291-.883.689-1.629 1.199-2.241a5.293 5.293 0 011.887-1.401c.748-.321 1.573-.483 2.473-.483.85 0 1.683.11 2.499.33.815.205 1.47.468 1.963.791l.79-2.063a4.928 4.928 0 00-.586-.306 7.178 7.178 0 00-1.072-.407c-.44-.136-.976-.255-1.606-.357a13.095 13.095 0 00-2.116-.152 8.987 8.987 0 00-3.314.611 7.705 7.705 0 00-2.678 1.782c-.765.781-1.376 1.749-1.835 2.903-.442 1.137-.663 2.445-.663 3.921 0 1.477.196 2.784.586 3.922.409 1.136.979 2.096 1.708 2.876a7.221 7.221 0 002.627 1.784c1.02.407 2.151.611 3.391.611.611 0 1.216-.034 1.81-.103.596-.05 1.139-.118 1.632-.203.51-.085.953-.17 1.326-.255.392-.084.689-.161.892-.229v-8.25zm14.3 2.648a36.9 36.9 0 00-1.019-1.349c1.207-.408 2.116-1.028 2.728-1.859.63-.832.943-1.833.943-3.005 0-1.85-.653-3.242-1.963-4.176-1.291-.934-3.178-1.4-5.661-1.4-.713 0-1.503.034-2.371.101a13.25 13.25 0 00-2.32.332v17.391h2.474v-6.901h2.906c.239 0 .468-.008.688-.025.324.39.681.848 1.071 1.375.408.526.816 1.095 1.224 1.706.408.594.808 1.222 1.199 1.884.408.662.782 1.316 1.121 1.961h2.703a19.658 19.658 0 00-1.122-2.114 39.127 39.127 0 00-1.3-2.088 25.846 25.846 0 00-1.301-1.833zm-7.189-9.549c.561-.051 1.369-.076 2.421-.076.664 0 1.285.051 1.862.153.596.101 1.106.28 1.53.534.442.255.79.604 1.045 1.045.255.441.382.993.382 1.654 0 .713-.127 1.291-.382 1.732-.255.425-.62.755-1.096.994-.46.237-1.028.398-1.708.483a18.82 18.82 0 01-2.295.128h-1.759v-6.647zm26.038 13.343c.255.73.527 1.477.815 2.241h2.703a483.925 483.925 0 00-1.912-5.169 167.663 167.663 0 00-1.759-4.532 122.872 122.872 0 00-1.683-4.074 98.947 98.947 0 00-1.759-3.871h-2.269a98.947 98.947 0 00-1.759 3.871 176.786 176.786 0 00-1.709 4.074 267.215 267.215 0 00-1.734 4.532 506.674 506.674 0 00-1.912 5.169h2.575l1.607-4.507h8.005c.273.764.536 1.52.791 2.266zm-3.136-8.581a192.25 192.25 0 011.631 4.278h-6.578a195.975 195.975 0 011.582-4.278 67.563 67.563 0 011.707-3.998 66.975 66.975 0 011.658 3.998zm17.059 6.824c.289.629.52 1.146.688 1.553h1.989c.17-.407.392-.924.663-1.553.29-.628.595-1.306.918-2.037.323-.73.662-1.477 1.019-2.241.375-.781.724-1.511 1.045-2.189a82.6 82.6 0 01.893-1.859c.291-.544.52-.96.689-1.248.188 2.003.341 4.176.459 6.518.119 2.326.221 4.678.306 7.054h2.422a328.186 328.186 0 00-1.301-17.646h-2.167a41.433 41.433 0 00-1.478 2.648 99.434 99.434 0 00-1.582 3.208 130.696 130.696 0 00-1.53 3.336c-.31.698-.605 1.358-.883 1.981l-.468 1.049v-.001c-.408-.916-.857-1.926-1.35-3.029a118.19 118.19 0 00-1.53-3.336 93.565 93.565 0 00-1.582-3.208 40.476 40.476 0 00-1.478-2.648h-2.167a170.891 170.891 0 00-.434 4.049 1127.29 1127.29 0 00-.356 4.404 332.718 332.718 0 00-.281 4.584 469.085 469.085 0 00-.23 4.609h2.422c.087-2.376.188-4.728.306-7.054.12-2.342.273-4.515.459-6.518.171.288.393.704.663 1.248.29.543.596 1.162.919 1.859.323.678.662 1.408 1.019 2.189.374.764.724 1.511 1.045 2.241.323.731.622 1.409.893 2.037zm22.975 0c.289.629.518 1.146.688 1.553h1.99c.17-.407.39-.924.662-1.553.289-.628.595-1.306.918-2.037.324-.73.663-1.477 1.02-2.241l.712-1.49.334-.699c.323-.697.619-1.316.892-1.859.288-.544.518-.96.689-1.248.186 2.003.339 4.176.458 6.518.12 2.326.222 4.678.307 7.054h2.421a327.179 327.179 0 00-1.3-17.646h-2.167a41.897 41.897 0 00-1.479 2.648 95.467 95.467 0 00-1.581 3.208 115.402 115.402 0 00-1.529 3.336l-.691 1.548-.66 1.482-.093-.206-1.259-2.824a112.793 112.793 0 00-1.53-3.336 97.45 97.45 0 00-1.58-3.208 42.404 42.404 0 00-1.479-2.648h-2.167a165.617 165.617 0 00-.435 4.049 1127.29 1127.29 0 00-.356 4.404 332.718 332.718 0 00-.281 4.584c-.084 1.545-.16 3.081-.229 4.609h2.423c.083-2.376.186-4.728.305-7.054.119-2.342.272-4.515.459-6.518.171.288.391.704.663 1.248.289.543.594 1.162.918 1.859.323.678.663 1.408 1.02 2.189.374.764.721 1.511 1.045 2.241.323.731.62 1.409.892 2.037zm18.207-13.648h-2.473v17.646h2.473v-17.646zm15.949 15.532c.494.781.928 1.486 1.301 2.114h2.065v-17.646h-2.422v13.062a61.247 61.247 0 00-2.014-3.081 80.976 80.976 0 00-2.524-3.514 83.72 83.72 0 00-2.703-3.488c-.9-1.137-1.75-2.13-2.55-2.979h-1.964v17.646h2.423v-13.775c.477.542.994 1.171 1.555 1.883a79.93 79.93 0 011.734 2.292c.596.798 1.191 1.63 1.785 2.495.611.867 1.198 1.724 1.759 2.572a61.142 61.142 0 011.555 2.419zm21.764-6.569h-2.474v6.569a9.302 9.302 0 01-1.097.229c-.492.069-1.095.103-1.81.103-1.002 0-1.878-.17-2.626-.51a5.317 5.317 0 01-1.861-1.425c-.492-.629-.867-1.375-1.122-2.242-.238-.865-.357-1.824-.357-2.877 0-1.086.146-2.062.433-2.928.289-.883.689-1.629 1.199-2.241a5.284 5.284 0 011.887-1.401c.748-.321 1.573-.483 2.473-.483.849 0 1.683.11 2.499.33.815.205 1.47.468 1.963.791l.79-2.063a5.1 5.1 0 00-.586-.306 7.38 7.38 0 00-1.071-.407 12.112 12.112 0 00-1.607-.357 13.1 13.1 0 00-2.115-.152 8.988 8.988 0 00-3.315.611 7.7 7.7 0 00-2.677 1.782c-.765.781-1.377 1.749-1.836 2.903-.442 1.137-.663 2.445-.663 3.921 0 1.477.196 2.784.587 3.922.408 1.136.976 2.096 1.708 2.876a7.21 7.21 0 002.626 1.784c1.02.407 2.15.611 3.391.611.612 0 1.216-.034 1.81-.103.594-.05 1.139-.118 1.632-.203.51-.085.952-.17 1.326-.255.391-.084.689-.161.893-.229v-8.25z" fill="#fff"/></svg>