<svg width="218" height="40" fill="none" xmlns="http://www.w3.org/2000/svg"><path d="M18.925 20.27a267.41 267.41 0 00-2.138-5.966 231.62 231.62 0 00-1.963-5.178 166.24 166.24 0 00-1.933-4.71A177.202 177.202 0 0010.958 0H8.293A301.026 301.026 0 006.33 4.417a547.57 547.57 0 00-1.933 4.71 383.892 383.892 0 00-1.991 5.177 198.813 198.813 0 00-2.11 5.967h3.135a735.34 735.34 0 013.104-8.893A135.35 135.35 0 019.67 3.364a129.111 129.111 0 013.134 7.985c1.016 2.867 2.04 5.84 3.076 8.922h3.046z" fill="#000"/><path d="M18.925 20.27a267.41 267.41 0 00-2.138-5.966 231.62 231.62 0 00-1.963-5.178 166.24 166.24 0 00-1.933-4.71A177.202 177.202 0 0010.958 0H8.293A301.026 301.026 0 006.33 4.417a547.57 547.57 0 00-1.933 4.71 383.892 383.892 0 00-1.991 5.177 198.813 198.813 0 00-2.11 5.967h3.135a735.34 735.34 0 013.104-8.893A135.35 135.35 0 019.67 3.364a129.111 129.111 0 013.134 7.985c1.016 2.867 2.04 5.84 3.076 8.922h3.046z" fill="#212121"/><path d="M176.024 20.27a269.461 269.461 0 00-2.138-5.966 229.118 229.118 0 00-1.963-5.178 169.304 169.304 0 00-1.932-4.71A173.948 173.948 0 00168.057 0h-2.665a296.203 296.203 0 00-1.962 4.417 543.31 543.31 0 00-1.934 4.71 383.611 383.611 0 00-1.991 5.177 198.61 198.61 0 00-2.109 5.967h3.134a717.507 717.507 0 013.105-8.893 135.039 135.039 0 013.133-8.014 129.46 129.46 0 013.134 7.985 571.551 571.551 0 013.076 8.922h3.046z" fill="#000"/><path d="M176.024 20.27a269.461 269.461 0 00-2.138-5.966 229.118 229.118 0 00-1.963-5.178 169.304 169.304 0 00-1.932-4.71A173.948 173.948 0 00168.057 0h-2.665a296.203 296.203 0 00-1.962 4.417 543.31 543.31 0 00-1.934 4.71 383.611 383.611 0 00-1.991 5.177 198.61 198.61 0 00-2.109 5.967h3.134a717.507 717.507 0 013.105-8.893 135.039 135.039 0 013.133-8.014 129.46 129.46 0 013.134 7.985 571.551 571.551 0 013.076 8.922h3.046z" fill="#212121"/><path d="M208.713 21.18c-1.328 0-2.48-.204-3.456-.614-.976-.41-1.777-.965-2.402-1.667a7.19 7.19 0 01-1.406-2.545c-.293-.975-.439-2.028-.439-3.16V.472h2.841v12.402c0 2.028.449 3.5 1.347 4.417.898.917 2.07 1.375 3.515 1.375.723 0 1.377-.107 1.963-.322a4.07 4.07 0 001.552-1.053c.429-.468.761-1.063.995-1.784.235-.741.352-1.619.352-2.633V.471h2.841v12.724c0 1.131-.156 2.184-.468 3.159a6.635 6.635 0 01-1.407 2.545c-.625.702-1.425 1.258-2.401 1.667-.957.41-2.1.614-3.427.614z" fill="#000"/><path d="M208.713 21.18c-1.328 0-2.48-.204-3.456-.614-.976-.41-1.777-.965-2.402-1.667a7.19 7.19 0 01-1.406-2.545c-.293-.975-.439-2.028-.439-3.16V.472h2.841v12.402c0 2.028.449 3.5 1.347 4.417.898.917 2.07 1.375 3.515 1.375.723 0 1.377-.107 1.963-.322a4.07 4.07 0 001.552-1.053c.429-.468.761-1.063.995-1.784.235-.741.352-1.619.352-2.633V.471h2.841v12.724c0 1.131-.156 2.184-.468 3.159a6.635 6.635 0 01-1.407 2.545c-.625.702-1.425 1.258-2.401 1.667-.957.41-2.1.614-3.427.614z" fill="#212121"/><path d="M56.278 18.285v2.457H44.065V.472h2.84v17.813h9.373z" fill="#000"/><path d="M56.278 18.285v2.457H44.065V.472h2.84v17.813h9.373z" fill="#212121"/><path d="M93.553 18.285v2.457H81.34V.472h2.841v17.813h9.372z" fill="#000"/><path d="M93.553 18.285v2.457H81.34V.472h2.841v17.813h9.372z" fill="#212121"/><path d="M124.098 20.916a34.268 34.268 0 01-4.189-.263 10.914 10.914 0 01-1.288-.234V.763c.39-.098.82-.176 1.288-.235a34.703 34.703 0 012.842-.233c.468-.02.908-.03 1.317-.03 1.172 0 2.265.088 3.281.263 1.034.176 1.923.478 2.665.907.761.41 1.357.956 1.787 1.638.429.683.644 1.521.644 2.516 0 1.111-.264 2.028-.791 2.75-.527.702-1.229 1.228-2.109 1.58 1.192.35 2.139.906 2.841 1.666.704.76 1.054 1.833 1.054 3.218 0 2.028-.751 3.559-2.254 4.592-1.485 1.014-3.847 1.521-7.088 1.521zm-2.665-9.623v7.137c.214.02.468.039.761.058.254.02.547.04.879.059h1.2c.84 0 1.631-.049 2.373-.146.761-.117 1.426-.312 1.991-.585a3.353 3.353 0 001.347-1.141c.352-.488.528-1.102.528-1.843 0-.663-.127-1.219-.381-1.667a2.771 2.771 0 00-1.113-1.112c-.469-.273-1.034-.468-1.699-.585a12.909 12.909 0 00-2.226-.175h-3.66zm0-2.282h2.987c.703 0 1.367-.048 1.991-.146.625-.098 1.163-.273 1.611-.526.469-.254.83-.586 1.084-.995.273-.41.41-.926.41-1.55 0-.585-.137-1.073-.41-1.463a2.776 2.776 0 00-1.142-.965c-.469-.254-1.026-.439-1.67-.556a11.46 11.46 0 00-2.05-.175c-.722 0-1.289.01-1.699.029-.41.02-.781.049-1.112.088v6.26z" fill="#000"/><path d="M124.098 20.916a34.268 34.268 0 01-4.189-.263 10.914 10.914 0 01-1.288-.234V.763c.39-.098.82-.176 1.288-.235a34.703 34.703 0 012.842-.233c.468-.02.908-.03 1.317-.03 1.172 0 2.265.088 3.281.263 1.034.176 1.923.478 2.665.907.761.41 1.357.956 1.787 1.638.429.683.644 1.521.644 2.516 0 1.111-.264 2.028-.791 2.75-.527.702-1.229 1.228-2.109 1.58 1.192.35 2.139.906 2.841 1.666.704.76 1.054 1.833 1.054 3.218 0 2.028-.751 3.559-2.254 4.592-1.485 1.014-3.847 1.521-7.088 1.521zm-2.665-9.623v7.137c.214.02.468.039.761.058.254.02.547.04.879.059h1.2c.84 0 1.631-.049 2.373-.146.761-.117 1.426-.312 1.991-.585a3.353 3.353 0 001.347-1.141c.352-.488.528-1.102.528-1.843 0-.663-.127-1.219-.381-1.667a2.771 2.771 0 00-1.113-1.112c-.469-.273-1.034-.468-1.699-.585a12.909 12.909 0 00-2.226-.175h-3.66zm0-2.282h2.987c.703 0 1.367-.048 1.991-.146.625-.098 1.163-.273 1.611-.526.469-.254.83-.586 1.084-.995.273-.41.41-.926.41-1.55 0-.585-.137-1.073-.41-1.463a2.776 2.776 0 00-1.142-.965c-.469-.254-1.026-.439-1.67-.556a11.46 11.46 0 00-2.05-.175c-.722 0-1.289.01-1.699.029-.41.02-.781.049-1.112.088v6.26z" fill="#212121"/><path d="M1.894 35.082c-.756 0-1.134.258-1.134.775 0 .158.035.293.105.401a.874.874 0 00.268.29c.115.085.246.157.395.217.145.06.299.12.463.179.188.064.367.136.536.215.17.085.316.181.44.29.124.115.224.25.298.403.07.154.105.34.105.559 0 .451-.154.804-.462 1.057-.309.253-.734.38-1.275.38a3.19 3.19 0 01-.85-.105c-.259-.064-.448-.136-.567-.216l.231-.588c.105.065.261.126.47.186.204.065.442.097.716.097.139 0 .268-.015.387-.045a.993.993 0 00.314-.134.688.688 0 00.216-.23.648.648 0 00.074-.32.688.688 0 00-.082-.35.854.854 0 00-.23-.254 2.23 2.23 0 00-.344-.193c-.134-.06-.28-.12-.44-.18a9.027 9.027 0 01-.611-.267 1.911 1.911 0 01-.485-.32 1.256 1.256 0 01-.32-.447A1.526 1.526 0 010 35.864c0-.452.167-.8.5-1.042.328-.244.792-.365 1.394-.365.203 0 .392.015.566.044.17.025.32.055.455.09.134.04.251.079.35.119.095.044.17.082.224.112l-.216.595a3.235 3.235 0 00-.522-.216 2.7 2.7 0 00-.857-.119z" fill="#000"/><path d="M1.894 35.082c-.756 0-1.134.258-1.134.775 0 .158.035.293.105.401a.874.874 0 00.268.29c.115.085.246.157.395.217.145.06.299.12.463.179.188.064.367.136.536.215.17.085.316.181.44.29.124.115.224.25.298.403.07.154.105.34.105.559 0 .451-.154.804-.462 1.057-.309.253-.734.38-1.275.38a3.19 3.19 0 01-.85-.105c-.259-.064-.448-.136-.567-.216l.231-.588c.105.065.261.126.47.186.204.065.442.097.716.097.139 0 .268-.015.387-.045a.993.993 0 00.314-.134.688.688 0 00.216-.23.648.648 0 00.074-.32.688.688 0 00-.082-.35.854.854 0 00-.23-.254 2.23 2.23 0 00-.344-.193c-.134-.06-.28-.12-.44-.18a9.027 9.027 0 01-.611-.267 1.911 1.911 0 01-.485-.32 1.256 1.256 0 01-.32-.447A1.526 1.526 0 010 35.864c0-.452.167-.8.5-1.042.328-.244.792-.365 1.394-.365.203 0 .392.015.566.044.17.025.32.055.455.09.134.04.251.079.35.119.095.044.17.082.224.112l-.216.595a3.235 3.235 0 00-.522-.216 2.7 2.7 0 00-.857-.119z" fill="#212121"/><path d="M29.195 37.305c0-.442.065-.832.194-1.17.134-.337.313-.617.537-.84.229-.23.492-.4.79-.514a2.711 2.711 0 011.902 0c.297.114.558.285.782.514.224.222.4.503.53.84.134.338.2.728.2 1.17 0 .441-.066.831-.2 1.169-.13.337-.306.62-.53.848a2.214 2.214 0 01-.783.506 2.56 2.56 0 01-.94.172c-.337 0-.658-.057-.96-.172a2.288 2.288 0 01-.791-.506 2.529 2.529 0 01-.537-.848 3.258 3.258 0 01-.194-1.17zm.76 0c0 .312.04.598.12.856.08.253.191.469.335.648.15.178.328.317.537.416.214.095.453.142.716.142.263 0 .5-.047.708-.142.209-.099.386-.238.53-.416a1.9 1.9 0 00.343-.648c.08-.258.119-.544.119-.856 0-.313-.04-.596-.12-.85a1.87 1.87 0 00-.342-.654 1.427 1.427 0 00-.53-.41 1.631 1.631 0 00-.708-.149c-.263 0-.502.05-.716.149a1.495 1.495 0 00-.537.41 1.946 1.946 0 00-.335.655c-.08.253-.12.536-.12.849z" fill="#000"/><path d="M29.195 37.305c0-.442.065-.832.194-1.17.134-.337.313-.617.537-.84.229-.23.492-.4.79-.514a2.711 2.711 0 011.902 0c.297.114.558.285.782.514.224.222.4.503.53.84.134.338.2.728.2 1.17 0 .441-.066.831-.2 1.169-.13.337-.306.62-.53.848a2.214 2.214 0 01-.783.506 2.56 2.56 0 01-.94.172c-.337 0-.658-.057-.96-.172a2.288 2.288 0 01-.791-.506 2.529 2.529 0 01-.537-.848 3.258 3.258 0 01-.194-1.17zm.76 0c0 .312.04.598.12.856.08.253.191.469.335.648.15.178.328.317.537.416.214.095.453.142.716.142.263 0 .5-.047.708-.142.209-.099.386-.238.53-.416a1.9 1.9 0 00.343-.648c.08-.258.119-.544.119-.856 0-.313-.04-.596-.12-.85a1.87 1.87 0 00-.342-.654 1.427 1.427 0 00-.53-.41 1.631 1.631 0 00-.708-.149c-.263 0-.502.05-.716.149a1.495 1.495 0 00-.537.41 1.946 1.946 0 00-.335.655c-.08.253-.12.536-.12.849z" fill="#212121"/><path d="M60.293 39.888v-5.16h3.116v.618h-2.393v1.556h2.125v.61h-2.125v2.376h-.723z" fill="#000"/><path d="M60.293 39.888v-5.16h3.116v.618h-2.393v1.556h2.125v.61h-2.125v2.376h-.723z" fill="#212121"/><path d="M94.626 34.728v.625H93v4.535h-.722v-4.535h-1.626v-.625h3.974z" fill="#000"/><path d="M94.626 34.728v.625H93v4.535h-.722v-4.535h-1.626v-.625h3.974z" fill="#212121"/><path d="M124.891 36.388c-.208.665-.42 1.28-.633 1.847a97.786 97.786 0 01-.642 1.653h-.722a25.752 25.752 0 01-.702-2.405 49.525 49.525 0 01-.559-2.755h.761a56.353 56.353 0 00.447 2.293c.079.363.16.71.238 1.042.08.333.162.64.246.924.199-.521.41-1.092.634-1.713.224-.625.433-1.27.627-1.936h.626c.194.666.405 1.31.634 1.936.228.62.441 1.192.64 1.713.08-.278.16-.584.239-.916.079-.333.157-.68.231-1.042.08-.368.157-.745.232-1.132.074-.392.146-.782.216-1.169h.738a48.08 48.08 0 01-.574 2.755 26.096 26.096 0 01-.686 2.405h-.723a52.302 52.302 0 01-.642-1.653 41.01 41.01 0 01-.626-1.847z" fill="#000"/><path d="M124.891 36.388c-.208.665-.42 1.28-.633 1.847a97.786 97.786 0 01-.642 1.653h-.722a25.752 25.752 0 01-.702-2.405 49.525 49.525 0 01-.559-2.755h.761a56.353 56.353 0 00.447 2.293c.079.363.16.71.238 1.042.08.333.162.64.246.924.199-.521.41-1.092.634-1.713.224-.625.433-1.27.627-1.936h.626c.194.666.405 1.31.634 1.936.228.62.441 1.192.64 1.713.08-.278.16-.584.239-.916.079-.333.157-.68.231-1.042.08-.368.157-.745.232-1.132.074-.392.146-.782.216-1.169h.738a48.08 48.08 0 01-.574 2.755 26.096 26.096 0 01-.686 2.405h-.723a52.302 52.302 0 01-.642-1.653 41.01 41.01 0 01-.626-1.847z" fill="#212121"/><path d="M157.32 39.998c-.091-.24-.176-.474-.257-.704a39.728 39.728 0 00-.248-.712H154.3l-.505 1.416h-.809a163.972 163.972 0 011.146-3.048c.181-.448.36-.875.536-1.28.177-.41.361-.816.553-1.216h.713c.192.4.377.806.553 1.216.176.405.352.832.529 1.28.181.448.365.923.552 1.424.187.496.388 1.038.601 1.624h-.849zm-.729-2.056a55.545 55.545 0 00-.513-1.344 21.058 21.058 0 00-.52-1.255c-.187.4-.366.818-.537 1.255-.165.432-.332.88-.497 1.344h2.067z" fill="#000"/><path d="M157.32 39.998c-.091-.24-.176-.474-.257-.704a39.728 39.728 0 00-.248-.712H154.3l-.505 1.416h-.809a163.972 163.972 0 011.146-3.048c.181-.448.36-.875.536-1.28.177-.41.361-.816.553-1.216h.713c.192.4.377.806.553 1.216.176.405.352.832.529 1.28.181.448.365.923.552 1.424.187.496.388 1.038.601 1.624h-.849zm-.729-2.056a55.545 55.545 0 00-.513-1.344 21.058 21.058 0 00-.52-1.255c-.187.4-.366.818-.537 1.255-.165.432-.332.88-.497 1.344h2.067z" fill="#212121"/><path d="M186.367 37.727c.08.099.179.23.298.394.125.159.251.338.38.536.13.194.257.397.381.61.129.214.238.42.328.618h-.79a9.83 9.83 0 00-.329-.572 9.44 9.44 0 00-.35-.552 8.194 8.194 0 00-.358-.498 11.23 11.23 0 00-.313-.403 2.529 2.529 0 01-.202.008h-.849v2.017h-.723V34.8a3.84 3.84 0 01.678-.097c.254-.02.485-.03.693-.03.727 0 1.278.137 1.656.41.382.273.574.68.574 1.221 0 .343-.092.636-.276.879-.179.243-.445.424-.798.544zm-1.095-2.42c-.309 0-.545.007-.709.022v1.943h.514c.249 0 .472-.012.671-.037.199-.025.366-.072.5-.142a.757.757 0 00.32-.29 1 1 0 00.113-.506.951.951 0 00-.113-.484.812.812 0 00-.306-.305 1.276 1.276 0 00-.447-.157 3.107 3.107 0 00-.543-.045z" fill="#000"/><path d="M186.367 37.727c.08.099.179.23.298.394.125.159.251.338.38.536.13.194.257.397.381.61.129.214.238.42.328.618h-.79a9.83 9.83 0 00-.329-.572 9.44 9.44 0 00-.35-.552 8.194 8.194 0 00-.358-.498 11.23 11.23 0 00-.313-.403 2.529 2.529 0 01-.202.008h-.849v2.017h-.723V34.8a3.84 3.84 0 01.678-.097c.254-.02.485-.03.693-.03.727 0 1.278.137 1.656.41.382.273.574.68.574 1.221 0 .343-.092.636-.276.879-.179.243-.445.424-.798.544zm-1.095-2.42c-.309 0-.545.007-.709.022v1.943h.514c.249 0 .472-.012.671-.037.199-.025.366-.072.5-.142a.757.757 0 00.32-.29 1 1 0 00.113-.506.951.951 0 00-.113-.484.812.812 0 00-.306-.305 1.276 1.276 0 00-.447-.157 3.107 3.107 0 00-.543-.045z" fill="#212121"/><path d="M213.664 39.888v-5.16h3.154v.618h-2.431v1.534h2.162v.603h-2.162v1.787h2.617v.618h-3.34z" fill="#000"/><path d="M213.664 39.888v-5.16h3.154v.618h-2.431v1.534h2.162v.603h-2.162v1.787h2.617v.618h-3.34z" fill="#212121"/></svg>