<svg width="67" height="67" fill="none" xmlns="http://www.w3.org/2000/svg"><g clip-path="url(#clip0_459_6435)" fill="#fff"><path d="M34.243 0h-.495v9.595h.495V0zm-4.42 10.608h-.614v10.25h.614v-10.25zm1.284 0h-.614v10.25h.614v-10.25zm1.285 0h-.615v10.25h.614v-10.25zm1.292 0h-.615v10.25h.614v-10.25zm1.284 0h-.615v10.25h.615v-10.25zm1.292 0h-.613v10.25h.614v-10.25zm1.284 0h-.614v10.25h.614v-10.25zm1.284 0h-.614v10.25h.614v-10.25zM25.715 22.182h-.837v17.364h.837V22.182zm1.947 0h-.838v17.364h.838V22.182zm1.962 0h-.846v17.364h.846V22.182zm1.938.008h-.837v17.364h.837V22.189zm1.953 0h-.837v17.364h.837V22.189zm1.947 0h-.837v17.364h.837V22.189zm1.955.008h-.838v17.364h.838V22.198zm1.946 0h-.838v17.364h.838V22.198zm1.954 0h-.837v17.364h.837V22.198zm1.954.007h-.845V39.57h.845V22.205zM19.159 41.18h-.838v19.686h.838V41.181zm1.914.009h-.846v19.677h.846V41.189zm1.898.008h-.837v19.669h.837v-19.67zm1.899.008h-.838v19.66h.838v-19.66zm1.906.008h-.837v19.653h.837V41.213zm1.898.007h-.837v19.646h.837V41.22zm1.906.01h-.837v19.637h.838V41.23zm1.907.007h-.838v19.63h.838v-19.63zm1.899.007h-.837v19.622h.837V41.244zm1.907.008h-.838v19.614h.838V41.252zm1.905.009h-.838v19.606h.838V41.26zm1.898.008h-.837v19.598h.837V41.269zm1.906.008h-.837v19.59h.837v-19.59zm1.907.007h-.846v19.581h.846V41.284zm1.898.008h-.837v19.573h.837V41.292zm1.914-.119h-.845v19.693h.846V41.173zm1.891.127h-.838v19.566h.838V41.301z"/><path d="M66.378 67s-.99-.335-2.712-.966c-.846-.343-1.922-.622-3.119-1.005-1.196-.382-2.584-.733-4.084-1.132l-1.148-.295-1.213-.248-2.56-.518c-.87-.175-1.77-.287-2.688-.439-.917-.151-1.858-.319-2.824-.407l-2.919-.327c-.989-.095-1.994-.135-3.007-.215l-1.523-.112h-1.532l-3.055-.103-3.094.072h-1.596l-1.507.103c-1.005.08-2.002.128-2.991.216l-2.92.335c-.964.08-1.898.263-2.815.398a63.47 63.47 0 00-2.696.44l-2.528.534-1.213.247-1.148.295c-1.5.399-2.888.726-4.084 1.133-1.197.406-2.281.662-3.127 1.004-1.707.63-2.704.966-2.704.966s.91-.51 2.537-1.372c.797-.455 1.826-.878 2.999-1.396l.909-.399.479-.207.494-.192 2.138-.797 1.14-.407 1.205-.36 2.544-.709c.878-.231 1.787-.407 2.72-.622a32.44 32.44 0 012.863-.55l2.983-.455c1.014-.128 2.05-.2 3.095-.295l1.596-.136c.526 0 1.036 0 1.595-.064l3.126.008 3.19.088c.527 0 1.054 0 1.596.064l1.595.136c1.03.095 2.066.175 3.071.303l2.983.446c.981.136 1.938.343 2.864.559.925.215 1.842.382 2.72.614l2.544.718 1.204.35 1.141.407 2.138.798.494.183.479.208.917.399c1.172.518 2.201.949 2.999 1.403 1.54.806 2.449 1.3 2.449 1.3z"/></g><defs><clipPath id="clip0_459_6435"><path fill="#fff" d="M0 0h67v67H0z"/></clipPath></defs></svg>