<svg width="659" height="405" fill="none" xmlns="http://www.w3.org/2000/svg"><path fill-rule="evenodd" clip-rule="evenodd" d="M296.354 78.635L328.3 0l125.939 296.724-30.717-16.178-94.813-227.304-10.853 25.393 77.816 185.529-28.874-15.768-70.444-169.761zM10.57 394.896L7.4 404H.339l14.77-39.102h6.097L36.002 404h-7.09l-3.196-9.104H10.57zm13.24-5.479l-5.667-16.22-5.666 16.22H23.81zm48.194 9.158h17.752V404H65.21v-39.102h6.794v33.677zm54.506 0h17.752V404h-24.546v-39.102h6.794v33.677zM174.222 404v-39.102h13.401c4.422 0 7.788.887 10.097 2.659 2.31 1.773 3.465 4.413 3.465 7.922 0 1.791-.484 3.402-1.451 4.834-.966 1.433-2.381 2.543-4.243 3.331 2.113.572 3.742 1.656 4.888 3.249 1.164 1.576 1.746 3.473 1.746 5.693 0 3.671-1.182 6.491-3.545 8.46-2.346 1.969-5.712 2.954-10.098 2.954h-14.26zm6.794-17.644v12.219h7.546c2.131 0 3.796-.528 4.996-1.584 1.199-1.057 1.799-2.525 1.799-4.405 0-4.064-2.077-6.141-6.231-6.23h-8.11zm0-4.995h6.66c2.113 0 3.76-.475 4.942-1.423 1.199-.967 1.799-2.328 1.799-4.083 0-1.933-.555-3.33-1.665-4.189-1.092-.859-2.802-1.289-5.129-1.289h-6.607v10.984zm59.394 13.535L237.241 404h-7.063l14.77-39.102h6.096L265.842 404h-7.09l-3.196-9.104H240.41zm13.239-5.479l-5.666-16.22-5.667 16.22h11.333zm69.518-24.519v26.131c0 4.153-1.333 7.448-4.001 9.883-2.65 2.417-6.186 3.625-10.608 3.625-4.476 0-8.03-1.19-10.662-3.572-2.631-2.399-3.947-5.72-3.947-9.963v-26.104h6.767v26.158c0 2.614.663 4.61 1.988 5.988 1.324 1.379 3.276 2.068 5.854 2.068 5.228 0 7.842-2.757 7.842-8.271v-25.943h6.767zm97.115 5.479H408.09V404h-6.741v-33.623h-12.085v-5.479h31.018v5.479zm60.361 15.093c0 3.831-.663 7.197-1.988 10.097-1.325 2.883-3.222 5.103-5.693 6.661-2.453 1.539-5.282 2.309-8.486 2.309-3.169 0-5.998-.77-8.487-2.309-2.47-1.558-4.386-3.769-5.747-6.634-1.343-2.864-2.023-6.168-2.041-9.909v-2.203c0-3.813.672-7.179 2.014-10.097 1.361-2.919 3.268-5.148 5.721-6.687 2.47-1.558 5.299-2.337 8.486-2.337 3.187 0 6.007.77 8.459 2.31 2.471 1.522 4.378 3.724 5.721 6.606 1.342 2.865 2.023 6.204 2.041 10.017v2.176zm-6.795-2.041c0-4.333-.823-7.654-2.471-9.964-1.629-2.309-3.947-3.464-6.955-3.464-2.936 0-5.237 1.155-6.902 3.464-1.647 2.292-2.489 5.542-2.524 9.749v2.256c0 4.297.832 7.618 2.497 9.963 1.683 2.345 4.011 3.518 6.983 3.518 3.007 0 5.317-1.146 6.928-3.437 1.63-2.292 2.444-5.64 2.444-10.044v-2.041zM512.16 404v-39.102h11.548c3.455 0 6.517.77 9.185 2.31 2.685 1.54 4.762 3.724 6.23 6.553 1.468 2.829 2.202 6.069 2.202 9.721v1.961c0 3.706-.743 6.964-2.229 9.775-1.468 2.811-3.572 4.977-6.311 6.499-2.721 1.522-5.845 2.283-9.372 2.283H512.16zm6.795-33.623v28.198h4.431c3.563 0 6.293-1.11 8.191-3.33 1.915-2.238 2.891-5.443 2.927-9.614v-2.175c0-4.244-.922-7.484-2.766-9.722-1.844-2.238-4.521-3.357-8.03-3.357h-4.753zm60.038 24.519L575.824 404h-7.063l14.77-39.102h6.096L604.425 404h-7.09l-3.196-9.104h-15.146zm13.239-5.479l-5.666-16.22-5.667 16.22h11.333zm50.129-5.988l8.996-18.531h7.52l-13.106 24.707V404h-6.821v-14.395l-13.132-24.707h7.546l8.997 18.531zm-356.45-279.197l31.946 78.635-26.417 65.529-29.692 17.816 34.607-83.345-10.853-25.393-52.275 125.325L204 300l81.911-195.768z" fill="#183646"/><path fill-rule="evenodd" clip-rule="evenodd" d="M296.354 78.635L328.3 0l125.939 296.724-30.717-16.178-94.813-227.304-10.853 25.393 77.816 185.529-28.874-15.768-70.444-169.761zM10.57 394.896L7.4 404H.339l14.77-39.102h6.097L36.002 404h-7.09l-3.196-9.104H10.57zm13.24-5.479l-5.667-16.22-5.666 16.22H23.81zm48.194 9.158h17.752V404H65.21v-39.102h6.794v33.677zm54.506 0h17.752V404h-24.546v-39.102h6.794v33.677zM174.222 404v-39.102h13.401c4.422 0 7.788.887 10.097 2.659 2.31 1.773 3.465 4.413 3.465 7.922 0 1.791-.484 3.402-1.451 4.834-.966 1.433-2.381 2.543-4.243 3.331 2.113.572 3.742 1.656 4.888 3.249 1.164 1.576 1.746 3.473 1.746 5.693 0 3.671-1.182 6.491-3.545 8.46-2.346 1.969-5.712 2.954-10.098 2.954h-14.26zm6.794-17.644v12.219h7.546c2.131 0 3.796-.528 4.996-1.584 1.199-1.057 1.799-2.525 1.799-4.405 0-4.064-2.077-6.141-6.231-6.23h-8.11zm0-4.995h6.66c2.113 0 3.76-.475 4.942-1.423 1.199-.967 1.799-2.328 1.799-4.083 0-1.933-.555-3.33-1.665-4.189-1.092-.859-2.802-1.289-5.129-1.289h-6.607v10.984zm59.394 13.535L237.241 404h-7.063l14.77-39.102h6.096L265.842 404h-7.09l-3.196-9.104H240.41zm13.239-5.479l-5.666-16.22-5.667 16.22h11.333zm69.518-24.519v26.131c0 4.153-1.333 7.448-4.001 9.883-2.65 2.417-6.186 3.625-10.608 3.625-4.476 0-8.03-1.19-10.662-3.572-2.631-2.399-3.947-5.72-3.947-9.963v-26.104h6.767v26.158c0 2.614.663 4.61 1.988 5.988 1.324 1.379 3.276 2.068 5.854 2.068 5.228 0 7.842-2.757 7.842-8.271v-25.943h6.767zm97.115 5.479H408.09V404h-6.741v-33.623h-12.085v-5.479h31.018v5.479zm60.361 15.093c0 3.831-.663 7.197-1.988 10.097-1.325 2.883-3.222 5.103-5.693 6.661-2.453 1.539-5.282 2.309-8.486 2.309-3.169 0-5.998-.77-8.487-2.309-2.47-1.558-4.386-3.769-5.747-6.634-1.343-2.864-2.023-6.168-2.041-9.909v-2.203c0-3.813.672-7.179 2.014-10.097 1.361-2.919 3.268-5.148 5.721-6.687 2.47-1.558 5.299-2.337 8.486-2.337 3.187 0 6.007.77 8.459 2.31 2.471 1.522 4.378 3.724 5.721 6.606 1.342 2.865 2.023 6.204 2.041 10.017v2.176zm-6.795-2.041c0-4.333-.823-7.654-2.471-9.964-1.629-2.309-3.947-3.464-6.955-3.464-2.936 0-5.237 1.155-6.902 3.464-1.647 2.292-2.489 5.542-2.524 9.749v2.256c0 4.297.832 7.618 2.497 9.963 1.683 2.345 4.011 3.518 6.983 3.518 3.007 0 5.317-1.146 6.928-3.437 1.63-2.292 2.444-5.64 2.444-10.044v-2.041zM512.16 404v-39.102h11.548c3.455 0 6.517.77 9.185 2.31 2.685 1.54 4.762 3.724 6.23 6.553 1.468 2.829 2.202 6.069 2.202 9.721v1.961c0 3.706-.743 6.964-2.229 9.775-1.468 2.811-3.572 4.977-6.311 6.499-2.721 1.522-5.845 2.283-9.372 2.283H512.16zm6.795-33.623v28.198h4.431c3.563 0 6.293-1.11 8.191-3.33 1.915-2.238 2.891-5.443 2.927-9.614v-2.175c0-4.244-.922-7.484-2.766-9.722-1.844-2.238-4.521-3.357-8.03-3.357h-4.753zm60.038 24.519L575.824 404h-7.063l14.77-39.102h6.096L604.425 404h-7.09l-3.196-9.104h-15.146zm13.239-5.479l-5.666-16.22-5.667 16.22h11.333zm50.129-5.988l8.996-18.531h7.52l-13.106 24.707V404h-6.821v-14.395l-13.132-24.707h7.546l8.997 18.531zm-356.45-279.197l31.946 78.635-26.417 65.529-29.692 17.816 34.607-83.345-10.853-25.393-52.275 125.325L204 300l81.911-195.768z" fill="url(#paint0_linear_459_7135)"/><defs><linearGradient id="paint0_linear_459_7135" x1=".338" y1="0" x2="679.169" y2="35.6" gradientUnits="userSpaceOnUse"><stop stop-color="#FA3901"/><stop offset="1" stop-color="#FF8902"/></linearGradient></defs></svg>