<svg width="131" height="40" fill="none" xmlns="http://www.w3.org/2000/svg"><path fill-rule="evenodd" clip-rule="evenodd" d="M51.076.047c1.536 4.395 3.073 8.79 4.657 13.28-.184 0-.356.005-.52.01-.31.01-.59.02-.872-.01-.144 0-.336-.19-.384-.379-.336-.897-.624-1.795-.912-2.692v-.001c-.096-.331-.24-.473-.625-.473-1.022.032-2.023.021-3.03.01-.508-.005-1.016-.01-1.53-.01-.384 0-.528.095-.672.425-.144.426-.3.851-.456 1.276-.156.426-.312.85-.456 1.276-.144.378-.288.567-.72.52a3.36 3.36 0 00-.64-.011 9.043 9.043 0 01-.416.011c.653-1.85 1.305-3.683 1.955-5.508C47.38 5.168 48.3 2.584 49.205 0c.623.047 1.247.047 1.871.047zm1.44 8.506l-.319-.886a905.72 905.72 0 01-2.08-5.824c-.512 1.37-.989 2.689-1.462 3.998-.328.905-.653 1.805-.987 2.712h4.849zM0 29.772c.192-.52.384-1.052.576-1.583.192-.532.384-1.064.576-1.584.888-2.622 1.776-5.257 2.664-7.891.888-2.635 1.776-5.27 2.664-7.892.048-.19.144-.426.24-.662h3.025c.375 0 .43.27.476.503l.004.017a822.032 822.032 0 001.968 5.789c.66 1.926 1.32 3.851 1.968 5.789l.001.004a1261.93 1261.93 0 002.447 7.179c.048.189.096.33.192.613v.001h-3.072c-.144 0-.336-.283-.384-.473a603.344 603.344 0 01-2.688-8.695 157.799 157.799 0 00-2.496-7.655c-.024.094-.06.177-.097.26a1.669 1.669 0 00-.096.26 1979.9 1979.9 0 01-1.642 5.245 987.02 987.02 0 00-3.254 10.491c-.144.473-.336.567-.816.567a11.87 11.87 0 00-1.346.017c-.3.015-.601.03-.91.03v-.33zm108.103 10.113c-.192-.048-.384-.09-.576-.132-.384-.084-.769-.168-1.153-.294-2.304-.709-3.648-2.363-4.224-4.584-.72-2.788-.768-5.576-.096-8.364.768-3.166 2.928-4.915 6.241-5.151 2.496-.19 4.896.142 7.296.898l-.192.698c-.128.462-.256.924-.384 1.428a45.158 45.158 0 01-.745-.163c-.647-.145-1.282-.288-1.943-.357-1.104-.141-2.16-.236-3.264-.189-2.449.142-3.889 1.37-4.417 3.734-.48 2.126-.48 4.3.048 6.474.72 2.977 2.785 4.017 5.713 3.733.707-.087 1.373-.334 2.074-.594l.182-.067c.144-.048.336-.284.336-.426.032-.845.021-1.67.011-2.515-.006-.43-.011-.866-.011-1.313h-3.456v-2.268h6.048v7.608c0 .379-.096.568-.48.71-.672.188-1.331.377-1.991.566h-.001c-.66.19-1.32.379-1.992.568a.366.366 0 00-.192.094c-.912-.094-1.872-.094-2.832-.094zm11.807-.237h10.992v-2.22h-9.216v-6.002h7.824V29.11h-7.824v-5.245h9.024v-2.222h-11.616v18.005h.816zm-11.831-36.93c-.312-.887-.624-1.773-.936-2.67h-1.873a5.9 5.9 0 00-.072.236 5.875 5.875 0 01-.072.236 549.267 549.267 0 01-1.68 4.726 549.239 549.239 0 00-1.68 4.725v.002l-.001.001a294.916 294.916 0 01-1.199 3.352c.154 0 .29-.006.416-.011.228-.01.424-.019.64.011.384.048.576-.094.672-.472.122-.361.253-.722.385-1.086.18-.495.362-.996.527-1.513.096-.331.288-.426.624-.426h4.609c.336 0 .528.095.624.426.288.945.624 1.842.96 2.74.048.142.192.331.336.331.286.032.594.021.908.011.16-.005.322-.01.484-.01a4.843 4.843 0 00-.144-.568l-2.592-7.372a672.14 672.14 0 00-.936-2.67zm-1.896-.686h.144c.255.724.511 1.443.767 2.163.512 1.439 1.025 2.877 1.537 4.358h-4.849c.284-.772.568-1.534.85-2.29l.002-.004.001-.003.001-.002c.527-1.414 1.047-2.808 1.547-4.222zM19.491.047a335.21 335.21 0 001.152 3.639l7.344 21.69 4.609 13.61c.024.095.048.178.072.26.024.083.048.166.072.26-.912.142-.913.142-1.153-.567C27.22 26.086 22.851 13.232 18.483.331a.67.67 0 01-.048-.166.669.669 0 00-.048-.165 9.41 9.41 0 001.104.047zM55.583 30.39c-.025-.015-.055-.033-.091-.051l.081-.04c.153-.072.276-.13.398-.291 1.44-.709 2.257-1.89 2.353-3.45.096-1.748-.336-3.26-1.968-4.253-1.009-.567-2.113-.803-3.265-.803h-7.2c-.103 0-.192.013-.275.026-.072.01-.138.021-.205.021v18.005h4.464c.317 0 .634.002.95.003 1.268.008 2.535.016 3.802-.098 2.353-.189 3.84-1.654 4.177-3.922.384-2.457-.768-4.253-3.12-5.104-.03 0-.06-.018-.1-.043zM54.1 37.238a251.73 251.73 0 01-6.048.19v-.002c0-2.032 0-3.922-.048-5.859h1.872c.287 0 .576-.003.867-.006.88-.008 1.772-.017 2.637.054 2.352.141 3.553 2.457 2.4 4.489-.384.662-.96 1.087-1.68 1.134zm-6.048-8.034v-5.292c.596 0 1.186-.016 1.772-.032 1.163-.031 2.312-.062 3.46.032 2.017.189 3.024 2.363 2.017 4.158-.433.756-1.153 1.087-1.969 1.134-1.15.032-2.322.022-3.5.011-.593-.005-1.186-.01-1.78-.01zm22.943 3.025c.644 1.029 1.287 2.05 1.934 3.076.898 1.425 1.802 2.86 2.723 4.343H72.82c-.145 0-.337-.236-.433-.378-.942-1.478-1.859-2.98-2.77-4.471-.34-.56-.681-1.118-1.022-1.672-.192-.331-.384-.473-.816-.473-.73.031-1.44.021-2.17.01-.374-.004-.752-.01-1.142-.01v6.947h-2.544V21.596h7.536c5.473 0 6.433 5.198 4.993 8.128-.576 1.182-1.584 1.938-2.832 2.316-.24.047-.385.094-.625.189zm-6.576-1.89h4.608c.288 0 .576-.048.864-.095 1.056-.189 1.873-.756 2.257-1.796.912-2.457-.529-4.584-3.169-4.584h-4.032c-.144 0-.336 0-.48.048-.048 2.126-.048 4.204-.048 6.425v.002zm19.973-8.696v18.052c1.027-.034 2.048-.043 3.063-.053 1.783-.016 3.546-.032 5.29-.183 2.783-.236 4.511-1.985 5.328-4.584.72-2.363.72-4.725.383-7.088-.24-1.512-.72-2.93-1.776-4.064-1.44-1.607-3.36-2.08-5.424-2.127H84.92c-.096 0-.18.012-.264.024a1.802 1.802 0 01-.264.023zm4.076 15.71c-.49-.01-.985-.02-1.484-.02V24.006c.048-.047.096-.094.144-.094.386 0 .769-.003 1.15-.006 1.134-.009 2.248-.018 3.362.053 2.112.095 3.504 1.323 3.984 3.45.48 2.079.48 4.206 0 6.285-.528 2.315-1.872 3.45-4.272 3.639-.956.062-1.913.042-2.883.02zm26.644-24.027h-1.44V.142c.148 0 .29-.006.428-.011.267-.01.519-.02.772.01.192.048.384.237.48.379.774 1.151 1.554 2.302 2.336 3.456l.001.001a637.95 637.95 0 013.903 5.805c.144.236.336.473.576.662V.142h1.441v13.137c-.148 0-.29.006-.429.011-.266.01-.519.02-.772-.01a.93.93 0 01-.528-.426 1588.52 1588.52 0 00-3.165-4.65l-.003-.005a1589.003 1589.003 0 01-3.168-4.655c-.039-.058-.087-.124-.142-.2l-.001-.002-.001-.001c-.08-.111-.176-.245-.288-.411v10.396zm-34.85 0V7.845h.816a99 99 0 01.936.006c.936.008 1.872.017 2.808-.054 2.112-.141 3.313-1.512 3.36-3.686.049-2.126-1.2-3.733-3.264-3.875-1.437-.1-2.874-.082-4.33-.062-.585.007-1.174.015-1.766.015v13.137h1.44zm1.326-6.836a67.965 67.965 0 00-1.278-.016V1.512c.457 0 .91-.008 1.358-.015 1.108-.02 2.191-.038 3.25.063 1.2.141 1.824 1.228 1.776 2.599-.048 1.276-.72 2.173-1.968 2.268-1.027.101-2.08.082-3.138.063zM78.39 21.596h2.496v17.958H78.39V21.596zM57.555.19v13.137c2.737 0 5.473 0 8.209-.047v-1.23h-6.768V.19h-1.44zm10.656 0h1.392v11.86h6.769v1.276H68.21V.19zm22.37 0v13.137c2.785 0 5.473 0 8.257-.047v-1.23H92.07V.19h-1.488z" fill="#000"/><path fill-rule="evenodd" clip-rule="evenodd" d="M51.076.047c1.536 4.395 3.073 8.79 4.657 13.28-.184 0-.356.005-.52.01-.31.01-.59.02-.872-.01-.144 0-.336-.19-.384-.379-.336-.897-.624-1.795-.912-2.692v-.001c-.096-.331-.24-.473-.625-.473-1.022.032-2.023.021-3.03.01-.508-.005-1.016-.01-1.53-.01-.384 0-.528.095-.672.425-.144.426-.3.851-.456 1.276-.156.426-.312.85-.456 1.276-.144.378-.288.567-.72.52a3.36 3.36 0 00-.64-.011 9.043 9.043 0 01-.416.011c.653-1.85 1.305-3.683 1.955-5.508C47.38 5.168 48.3 2.584 49.205 0c.623.047 1.247.047 1.871.047zm1.44 8.506l-.319-.886a905.72 905.72 0 01-2.08-5.824c-.512 1.37-.989 2.689-1.462 3.998-.328.905-.653 1.805-.987 2.712h4.849zM0 29.772c.192-.52.384-1.052.576-1.583.192-.532.384-1.064.576-1.584.888-2.622 1.776-5.257 2.664-7.891.888-2.635 1.776-5.27 2.664-7.892.048-.19.144-.426.24-.662h3.025c.375 0 .43.27.476.503l.004.017a822.032 822.032 0 001.968 5.789c.66 1.926 1.32 3.851 1.968 5.789l.001.004a1261.93 1261.93 0 002.447 7.179c.048.189.096.33.192.613v.001h-3.072c-.144 0-.336-.283-.384-.473a603.344 603.344 0 01-2.688-8.695 157.799 157.799 0 00-2.496-7.655c-.024.094-.06.177-.097.26a1.669 1.669 0 00-.096.26 1979.9 1979.9 0 01-1.642 5.245 987.02 987.02 0 00-3.254 10.491c-.144.473-.336.567-.816.567a11.87 11.87 0 00-1.346.017c-.3.015-.601.03-.91.03v-.33zm108.103 10.113c-.192-.048-.384-.09-.576-.132-.384-.084-.769-.168-1.153-.294-2.304-.709-3.648-2.363-4.224-4.584-.72-2.788-.768-5.576-.096-8.364.768-3.166 2.928-4.915 6.241-5.151 2.496-.19 4.896.142 7.296.898l-.192.698c-.128.462-.256.924-.384 1.428a45.158 45.158 0 01-.745-.163c-.647-.145-1.282-.288-1.943-.357-1.104-.141-2.16-.236-3.264-.189-2.449.142-3.889 1.37-4.417 3.734-.48 2.126-.48 4.3.048 6.474.72 2.977 2.785 4.017 5.713 3.733.707-.087 1.373-.334 2.074-.594l.182-.067c.144-.048.336-.284.336-.426.032-.845.021-1.67.011-2.515-.006-.43-.011-.866-.011-1.313h-3.456v-2.268h6.048v7.608c0 .379-.096.568-.48.71-.672.188-1.331.377-1.991.566h-.001c-.66.19-1.32.379-1.992.568a.366.366 0 00-.192.094c-.912-.094-1.872-.094-2.832-.094zm11.807-.237h10.992v-2.22h-9.216v-6.002h7.824V29.11h-7.824v-5.245h9.024v-2.222h-11.616v18.005h.816zm-11.831-36.93c-.312-.887-.624-1.773-.936-2.67h-1.873a5.9 5.9 0 00-.072.236 5.875 5.875 0 01-.072.236 549.267 549.267 0 01-1.68 4.726 549.239 549.239 0 00-1.68 4.725v.002l-.001.001a294.916 294.916 0 01-1.199 3.352c.154 0 .29-.006.416-.011.228-.01.424-.019.64.011.384.048.576-.094.672-.472.122-.361.253-.722.385-1.086.18-.495.362-.996.527-1.513.096-.331.288-.426.624-.426h4.609c.336 0 .528.095.624.426.288.945.624 1.842.96 2.74.048.142.192.331.336.331.286.032.594.021.908.011.16-.005.322-.01.484-.01a4.843 4.843 0 00-.144-.568l-2.592-7.372a672.14 672.14 0 00-.936-2.67zm-1.896-.686h.144c.255.724.511 1.443.767 2.163.512 1.439 1.025 2.877 1.537 4.358h-4.849c.284-.772.568-1.534.85-2.29l.002-.004.001-.003.001-.002c.527-1.414 1.047-2.808 1.547-4.222zM19.491.047a335.21 335.21 0 001.152 3.639l7.344 21.69 4.609 13.61c.024.095.048.178.072.26.024.083.048.166.072.26-.912.142-.913.142-1.153-.567C27.22 26.086 22.851 13.232 18.483.331a.67.67 0 01-.048-.166.669.669 0 00-.048-.165 9.41 9.41 0 001.104.047zM55.583 30.39c-.025-.015-.055-.033-.091-.051l.081-.04c.153-.072.276-.13.398-.291 1.44-.709 2.257-1.89 2.353-3.45.096-1.748-.336-3.26-1.968-4.253-1.009-.567-2.113-.803-3.265-.803h-7.2c-.103 0-.192.013-.275.026-.072.01-.138.021-.205.021v18.005h4.464c.317 0 .634.002.95.003 1.268.008 2.535.016 3.802-.098 2.353-.189 3.84-1.654 4.177-3.922.384-2.457-.768-4.253-3.12-5.104-.03 0-.06-.018-.1-.043zM54.1 37.238a251.73 251.73 0 01-6.048.19v-.002c0-2.032 0-3.922-.048-5.859h1.872c.287 0 .576-.003.867-.006.88-.008 1.772-.017 2.637.054 2.352.141 3.553 2.457 2.4 4.489-.384.662-.96 1.087-1.68 1.134zm-6.048-8.034v-5.292c.596 0 1.186-.016 1.772-.032 1.163-.031 2.312-.062 3.46.032 2.017.189 3.024 2.363 2.017 4.158-.433.756-1.153 1.087-1.969 1.134-1.15.032-2.322.022-3.5.011-.593-.005-1.186-.01-1.78-.01zm22.943 3.025c.644 1.029 1.287 2.05 1.934 3.076.898 1.425 1.802 2.86 2.723 4.343H72.82c-.145 0-.337-.236-.433-.378-.942-1.478-1.859-2.98-2.77-4.471-.34-.56-.681-1.118-1.022-1.672-.192-.331-.384-.473-.816-.473-.73.031-1.44.021-2.17.01-.374-.004-.752-.01-1.142-.01v6.947h-2.544V21.596h7.536c5.473 0 6.433 5.198 4.993 8.128-.576 1.182-1.584 1.938-2.832 2.316-.24.047-.385.094-.625.189zm-6.576-1.89h4.608c.288 0 .576-.048.864-.095 1.056-.189 1.873-.756 2.257-1.796.912-2.457-.529-4.584-3.169-4.584h-4.032c-.144 0-.336 0-.48.048-.048 2.126-.048 4.204-.048 6.425v.002zm19.973-8.696v18.052c1.027-.034 2.048-.043 3.063-.053 1.783-.016 3.546-.032 5.29-.183 2.783-.236 4.511-1.985 5.328-4.584.72-2.363.72-4.725.383-7.088-.24-1.512-.72-2.93-1.776-4.064-1.44-1.607-3.36-2.08-5.424-2.127H84.92c-.096 0-.18.012-.264.024a1.802 1.802 0 01-.264.023zm4.076 15.71c-.49-.01-.985-.02-1.484-.02V24.006c.048-.047.096-.094.144-.094.386 0 .769-.003 1.15-.006 1.134-.009 2.248-.018 3.362.053 2.112.095 3.504 1.323 3.984 3.45.48 2.079.48 4.206 0 6.285-.528 2.315-1.872 3.45-4.272 3.639-.956.062-1.913.042-2.883.02zm26.644-24.027h-1.44V.142c.148 0 .29-.006.428-.011.267-.01.519-.02.772.01.192.048.384.237.48.379.774 1.151 1.554 2.302 2.336 3.456l.001.001a637.95 637.95 0 013.903 5.805c.144.236.336.473.576.662V.142h1.441v13.137c-.148 0-.29.006-.429.011-.266.01-.519.02-.772-.01a.93.93 0 01-.528-.426 1588.52 1588.52 0 00-3.165-4.65l-.003-.005a1589.003 1589.003 0 01-3.168-4.655c-.039-.058-.087-.124-.142-.2l-.001-.002-.001-.001c-.08-.111-.176-.245-.288-.411v10.396zm-34.85 0V7.845h.816a99 99 0 01.936.006c.936.008 1.872.017 2.808-.054 2.112-.141 3.313-1.512 3.36-3.686.049-2.126-1.2-3.733-3.264-3.875-1.437-.1-2.874-.082-4.33-.062-.585.007-1.174.015-1.766.015v13.137h1.44zm1.326-6.836a67.965 67.965 0 00-1.278-.016V1.512c.457 0 .91-.008 1.358-.015 1.108-.02 2.191-.038 3.25.063 1.2.141 1.824 1.228 1.776 2.599-.048 1.276-.72 2.173-1.968 2.268-1.027.101-2.08.082-3.138.063zM78.39 21.596h2.496v17.958H78.39V21.596zM57.555.19v13.137c2.737 0 5.473 0 8.209-.047v-1.23h-6.768V.19h-1.44zm10.656 0h1.392v11.86h6.769v1.276H68.21V.19zm22.37 0v13.137c2.785 0 5.473 0 8.257-.047v-1.23H92.07V.19h-1.488z" fill="url(#paint0_linear_391_804)"/><path fill-rule="evenodd" clip-rule="evenodd" d="M51.076.047c1.536 4.395 3.073 8.79 4.657 13.28-.184 0-.356.005-.52.01-.31.01-.59.02-.872-.01-.144 0-.336-.19-.384-.379-.336-.897-.624-1.795-.912-2.692v-.001c-.096-.331-.24-.473-.625-.473-1.022.032-2.023.021-3.03.01-.508-.005-1.016-.01-1.53-.01-.384 0-.528.095-.672.425-.144.426-.3.851-.456 1.276-.156.426-.312.85-.456 1.276-.144.378-.288.567-.72.52a3.36 3.36 0 00-.64-.011 9.043 9.043 0 01-.416.011c.653-1.85 1.305-3.683 1.955-5.508C47.38 5.168 48.3 2.584 49.205 0c.623.047 1.247.047 1.871.047zm1.44 8.506l-.319-.886a905.72 905.72 0 01-2.08-5.824c-.512 1.37-.989 2.689-1.462 3.998-.328.905-.653 1.805-.987 2.712h4.849zM0 29.772c.192-.52.384-1.052.576-1.583.192-.532.384-1.064.576-1.584.888-2.622 1.776-5.257 2.664-7.891.888-2.635 1.776-5.27 2.664-7.892.048-.19.144-.426.24-.662h3.025c.375 0 .43.27.476.503l.004.017a822.032 822.032 0 001.968 5.789c.66 1.926 1.32 3.851 1.968 5.789l.001.004a1261.93 1261.93 0 002.447 7.179c.048.189.096.33.192.613v.001h-3.072c-.144 0-.336-.283-.384-.473a603.344 603.344 0 01-2.688-8.695 157.799 157.799 0 00-2.496-7.655c-.024.094-.06.177-.097.26a1.669 1.669 0 00-.096.26 1979.9 1979.9 0 01-1.642 5.245 987.02 987.02 0 00-3.254 10.491c-.144.473-.336.567-.816.567a11.87 11.87 0 00-1.346.017c-.3.015-.601.03-.91.03v-.33zm108.103 10.113c-.192-.048-.384-.09-.576-.132-.384-.084-.769-.168-1.153-.294-2.304-.709-3.648-2.363-4.224-4.584-.72-2.788-.768-5.576-.096-8.364.768-3.166 2.928-4.915 6.241-5.151 2.496-.19 4.896.142 7.296.898l-.192.698c-.128.462-.256.924-.384 1.428a45.158 45.158 0 01-.745-.163c-.647-.145-1.282-.288-1.943-.357-1.104-.141-2.16-.236-3.264-.189-2.449.142-3.889 1.37-4.417 3.734-.48 2.126-.48 4.3.048 6.474.72 2.977 2.785 4.017 5.713 3.733.707-.087 1.373-.334 2.074-.594l.182-.067c.144-.048.336-.284.336-.426.032-.845.021-1.67.011-2.515-.006-.43-.011-.866-.011-1.313h-3.456v-2.268h6.048v7.608c0 .379-.096.568-.48.71-.672.188-1.331.377-1.991.566h-.001c-.66.19-1.32.379-1.992.568a.366.366 0 00-.192.094c-.912-.094-1.872-.094-2.832-.094zm11.807-.237h10.992v-2.22h-9.216v-6.002h7.824V29.11h-7.824v-5.245h9.024v-2.222h-11.616v18.005h.816zm-11.831-36.93c-.312-.887-.624-1.773-.936-2.67h-1.873a5.9 5.9 0 00-.072.236 5.875 5.875 0 01-.072.236 549.267 549.267 0 01-1.68 4.726 549.239 549.239 0 00-1.68 4.725v.002l-.001.001a294.916 294.916 0 01-1.199 3.352c.154 0 .29-.006.416-.011.228-.01.424-.019.64.011.384.048.576-.094.672-.472.122-.361.253-.722.385-1.086.18-.495.362-.996.527-1.513.096-.331.288-.426.624-.426h4.609c.336 0 .528.095.624.426.288.945.624 1.842.96 2.74.048.142.192.331.336.331.286.032.594.021.908.011.16-.005.322-.01.484-.01a4.843 4.843 0 00-.144-.568l-2.592-7.372a672.14 672.14 0 00-.936-2.67zm-1.896-.686h.144c.255.724.511 1.443.767 2.163.512 1.439 1.025 2.877 1.537 4.358h-4.849c.284-.772.568-1.534.85-2.29l.002-.004.001-.003.001-.002c.527-1.414 1.047-2.808 1.547-4.222zM19.491.047a335.21 335.21 0 001.152 3.639l7.344 21.69 4.609 13.61c.024.095.048.178.072.26.024.083.048.166.072.26-.912.142-.913.142-1.153-.567C27.22 26.086 22.851 13.232 18.483.331a.67.67 0 01-.048-.166.669.669 0 00-.048-.165 9.41 9.41 0 001.104.047zM55.583 30.39c-.025-.015-.055-.033-.091-.051l.081-.04c.153-.072.276-.13.398-.291 1.44-.709 2.257-1.89 2.353-3.45.096-1.748-.336-3.26-1.968-4.253-1.009-.567-2.113-.803-3.265-.803h-7.2c-.103 0-.192.013-.275.026-.072.01-.138.021-.205.021v18.005h4.464c.317 0 .634.002.95.003 1.268.008 2.535.016 3.802-.098 2.353-.189 3.84-1.654 4.177-3.922.384-2.457-.768-4.253-3.12-5.104-.03 0-.06-.018-.1-.043zM54.1 37.238a251.73 251.73 0 01-6.048.19v-.002c0-2.032 0-3.922-.048-5.859h1.872c.287 0 .576-.003.867-.006.88-.008 1.772-.017 2.637.054 2.352.141 3.553 2.457 2.4 4.489-.384.662-.96 1.087-1.68 1.134zm-6.048-8.034v-5.292c.596 0 1.186-.016 1.772-.032 1.163-.031 2.312-.062 3.46.032 2.017.189 3.024 2.363 2.017 4.158-.433.756-1.153 1.087-1.969 1.134-1.15.032-2.322.022-3.5.011-.593-.005-1.186-.01-1.78-.01zm22.943 3.025c.644 1.029 1.287 2.05 1.934 3.076.898 1.425 1.802 2.86 2.723 4.343H72.82c-.145 0-.337-.236-.433-.378-.942-1.478-1.859-2.98-2.77-4.471-.34-.56-.681-1.118-1.022-1.672-.192-.331-.384-.473-.816-.473-.73.031-1.44.021-2.17.01-.374-.004-.752-.01-1.142-.01v6.947h-2.544V21.596h7.536c5.473 0 6.433 5.198 4.993 8.128-.576 1.182-1.584 1.938-2.832 2.316-.24.047-.385.094-.625.189zm-6.576-1.89h4.608c.288 0 .576-.048.864-.095 1.056-.189 1.873-.756 2.257-1.796.912-2.457-.529-4.584-3.169-4.584h-4.032c-.144 0-.336 0-.48.048-.048 2.126-.048 4.204-.048 6.425v.002zm19.973-8.696v18.052c1.027-.034 2.048-.043 3.063-.053 1.783-.016 3.546-.032 5.29-.183 2.783-.236 4.511-1.985 5.328-4.584.72-2.363.72-4.725.383-7.088-.24-1.512-.72-2.93-1.776-4.064-1.44-1.607-3.36-2.08-5.424-2.127H84.92c-.096 0-.18.012-.264.024a1.802 1.802 0 01-.264.023zm4.076 15.71c-.49-.01-.985-.02-1.484-.02V24.006c.048-.047.096-.094.144-.094.386 0 .769-.003 1.15-.006 1.134-.009 2.248-.018 3.362.053 2.112.095 3.504 1.323 3.984 3.45.48 2.079.48 4.206 0 6.285-.528 2.315-1.872 3.45-4.272 3.639-.956.062-1.913.042-2.883.02zm26.644-24.027h-1.44V.142c.148 0 .29-.006.428-.011.267-.01.519-.02.772.01.192.048.384.237.48.379.774 1.151 1.554 2.302 2.336 3.456l.001.001a637.95 637.95 0 013.903 5.805c.144.236.336.473.576.662V.142h1.441v13.137c-.148 0-.29.006-.429.011-.266.01-.519.02-.772-.01a.93.93 0 01-.528-.426 1588.52 1588.52 0 00-3.165-4.65l-.003-.005a1589.003 1589.003 0 01-3.168-4.655c-.039-.058-.087-.124-.142-.2l-.001-.002-.001-.001c-.08-.111-.176-.245-.288-.411v10.396zm-34.85 0V7.845h.816a99 99 0 01.936.006c.936.008 1.872.017 2.808-.054 2.112-.141 3.313-1.512 3.36-3.686.049-2.126-1.2-3.733-3.264-3.875-1.437-.1-2.874-.082-4.33-.062-.585.007-1.174.015-1.766.015v13.137h1.44zm1.326-6.836a67.965 67.965 0 00-1.278-.016V1.512c.457 0 .91-.008 1.358-.015 1.108-.02 2.191-.038 3.25.063 1.2.141 1.824 1.228 1.776 2.599-.048 1.276-.72 2.173-1.968 2.268-1.027.101-2.08.082-3.138.063zM78.39 21.596h2.496v17.958H78.39V21.596zM57.555.19v13.137c2.737 0 5.473 0 8.209-.047v-1.23h-6.768V.19h-1.44zm10.656 0h1.392v11.86h6.769v1.276H68.21V.19zm22.37 0v13.137c2.785 0 5.473 0 8.257-.047v-1.23H92.07V.19h-1.488z" fill="#183646"/><path fill-rule="evenodd" clip-rule="evenodd" d="M51.076.047c1.536 4.395 3.073 8.79 4.657 13.28-.184 0-.356.005-.52.01-.31.01-.59.02-.872-.01-.144 0-.336-.19-.384-.379-.336-.897-.624-1.795-.912-2.692v-.001c-.096-.331-.24-.473-.625-.473-1.022.032-2.023.021-3.03.01-.508-.005-1.016-.01-1.53-.01-.384 0-.528.095-.672.425-.144.426-.3.851-.456 1.276-.156.426-.312.85-.456 1.276-.144.378-.288.567-.72.52a3.36 3.36 0 00-.64-.011 9.043 9.043 0 01-.416.011c.653-1.85 1.305-3.683 1.955-5.508C47.38 5.168 48.3 2.584 49.205 0c.623.047 1.247.047 1.871.047zm1.44 8.506l-.319-.886a905.72 905.72 0 01-2.08-5.824c-.512 1.37-.989 2.689-1.462 3.998-.328.905-.653 1.805-.987 2.712h4.849zM0 29.772c.192-.52.384-1.052.576-1.583.192-.532.384-1.064.576-1.584.888-2.622 1.776-5.257 2.664-7.891.888-2.635 1.776-5.27 2.664-7.892.048-.19.144-.426.24-.662h3.025c.375 0 .43.27.476.503l.004.017a822.032 822.032 0 001.968 5.789c.66 1.926 1.32 3.851 1.968 5.789l.001.004a1261.93 1261.93 0 002.447 7.179c.048.189.096.33.192.613v.001h-3.072c-.144 0-.336-.283-.384-.473a603.344 603.344 0 01-2.688-8.695 157.799 157.799 0 00-2.496-7.655c-.024.094-.06.177-.097.26a1.669 1.669 0 00-.096.26 1979.9 1979.9 0 01-1.642 5.245 987.02 987.02 0 00-3.254 10.491c-.144.473-.336.567-.816.567a11.87 11.87 0 00-1.346.017c-.3.015-.601.03-.91.03v-.33zm108.103 10.113c-.192-.048-.384-.09-.576-.132-.384-.084-.769-.168-1.153-.294-2.304-.709-3.648-2.363-4.224-4.584-.72-2.788-.768-5.576-.096-8.364.768-3.166 2.928-4.915 6.241-5.151 2.496-.19 4.896.142 7.296.898l-.192.698c-.128.462-.256.924-.384 1.428a45.158 45.158 0 01-.745-.163c-.647-.145-1.282-.288-1.943-.357-1.104-.141-2.16-.236-3.264-.189-2.449.142-3.889 1.37-4.417 3.734-.48 2.126-.48 4.3.048 6.474.72 2.977 2.785 4.017 5.713 3.733.707-.087 1.373-.334 2.074-.594l.182-.067c.144-.048.336-.284.336-.426.032-.845.021-1.67.011-2.515-.006-.43-.011-.866-.011-1.313h-3.456v-2.268h6.048v7.608c0 .379-.096.568-.48.71-.672.188-1.331.377-1.991.566h-.001c-.66.19-1.32.379-1.992.568a.366.366 0 00-.192.094c-.912-.094-1.872-.094-2.832-.094zm11.807-.237h10.992v-2.22h-9.216v-6.002h7.824V29.11h-7.824v-5.245h9.024v-2.222h-11.616v18.005h.816zm-11.831-36.93c-.312-.887-.624-1.773-.936-2.67h-1.873a5.9 5.9 0 00-.072.236 5.875 5.875 0 01-.072.236 549.267 549.267 0 01-1.68 4.726 549.239 549.239 0 00-1.68 4.725v.002l-.001.001a294.916 294.916 0 01-1.199 3.352c.154 0 .29-.006.416-.011.228-.01.424-.019.64.011.384.048.576-.094.672-.472.122-.361.253-.722.385-1.086.18-.495.362-.996.527-1.513.096-.331.288-.426.624-.426h4.609c.336 0 .528.095.624.426.288.945.624 1.842.96 2.74.048.142.192.331.336.331.286.032.594.021.908.011.16-.005.322-.01.484-.01a4.843 4.843 0 00-.144-.568l-2.592-7.372a672.14 672.14 0 00-.936-2.67zm-1.896-.686h.144c.255.724.511 1.443.767 2.163.512 1.439 1.025 2.877 1.537 4.358h-4.849c.284-.772.568-1.534.85-2.29l.002-.004.001-.003.001-.002c.527-1.414 1.047-2.808 1.547-4.222zM19.491.047a335.21 335.21 0 001.152 3.639l7.344 21.69 4.609 13.61c.024.095.048.178.072.26.024.083.048.166.072.26-.912.142-.913.142-1.153-.567C27.22 26.086 22.851 13.232 18.483.331a.67.67 0 01-.048-.166.669.669 0 00-.048-.165 9.41 9.41 0 001.104.047zM55.583 30.39c-.025-.015-.055-.033-.091-.051l.081-.04c.153-.072.276-.13.398-.291 1.44-.709 2.257-1.89 2.353-3.45.096-1.748-.336-3.26-1.968-4.253-1.009-.567-2.113-.803-3.265-.803h-7.2c-.103 0-.192.013-.275.026-.072.01-.138.021-.205.021v18.005h4.464c.317 0 .634.002.95.003 1.268.008 2.535.016 3.802-.098 2.353-.189 3.84-1.654 4.177-3.922.384-2.457-.768-4.253-3.12-5.104-.03 0-.06-.018-.1-.043zM54.1 37.238a251.73 251.73 0 01-6.048.19v-.002c0-2.032 0-3.922-.048-5.859h1.872c.287 0 .576-.003.867-.006.88-.008 1.772-.017 2.637.054 2.352.141 3.553 2.457 2.4 4.489-.384.662-.96 1.087-1.68 1.134zm-6.048-8.034v-5.292c.596 0 1.186-.016 1.772-.032 1.163-.031 2.312-.062 3.46.032 2.017.189 3.024 2.363 2.017 4.158-.433.756-1.153 1.087-1.969 1.134-1.15.032-2.322.022-3.5.011-.593-.005-1.186-.01-1.78-.01zm22.943 3.025c.644 1.029 1.287 2.05 1.934 3.076.898 1.425 1.802 2.86 2.723 4.343H72.82c-.145 0-.337-.236-.433-.378-.942-1.478-1.859-2.98-2.77-4.471-.34-.56-.681-1.118-1.022-1.672-.192-.331-.384-.473-.816-.473-.73.031-1.44.021-2.17.01-.374-.004-.752-.01-1.142-.01v6.947h-2.544V21.596h7.536c5.473 0 6.433 5.198 4.993 8.128-.576 1.182-1.584 1.938-2.832 2.316-.24.047-.385.094-.625.189zm-6.576-1.89h4.608c.288 0 .576-.048.864-.095 1.056-.189 1.873-.756 2.257-1.796.912-2.457-.529-4.584-3.169-4.584h-4.032c-.144 0-.336 0-.48.048-.048 2.126-.048 4.204-.048 6.425v.002zm19.973-8.696v18.052c1.027-.034 2.048-.043 3.063-.053 1.783-.016 3.546-.032 5.29-.183 2.783-.236 4.511-1.985 5.328-4.584.72-2.363.72-4.725.383-7.088-.24-1.512-.72-2.93-1.776-4.064-1.44-1.607-3.36-2.08-5.424-2.127H84.92c-.096 0-.18.012-.264.024a1.802 1.802 0 01-.264.023zm4.076 15.71c-.49-.01-.985-.02-1.484-.02V24.006c.048-.047.096-.094.144-.094.386 0 .769-.003 1.15-.006 1.134-.009 2.248-.018 3.362.053 2.112.095 3.504 1.323 3.984 3.45.48 2.079.48 4.206 0 6.285-.528 2.315-1.872 3.45-4.272 3.639-.956.062-1.913.042-2.883.02zm26.644-24.027h-1.44V.142c.148 0 .29-.006.428-.011.267-.01.519-.02.772.01.192.048.384.237.48.379.774 1.151 1.554 2.302 2.336 3.456l.001.001a637.95 637.95 0 013.903 5.805c.144.236.336.473.576.662V.142h1.441v13.137c-.148 0-.29.006-.429.011-.266.01-.519.02-.772-.01a.93.93 0 01-.528-.426 1588.52 1588.52 0 00-3.165-4.65l-.003-.005a1589.003 1589.003 0 01-3.168-4.655c-.039-.058-.087-.124-.142-.2l-.001-.002-.001-.001c-.08-.111-.176-.245-.288-.411v10.396zm-34.85 0V7.845h.816a99 99 0 01.936.006c.936.008 1.872.017 2.808-.054 2.112-.141 3.313-1.512 3.36-3.686.049-2.126-1.2-3.733-3.264-3.875-1.437-.1-2.874-.082-4.33-.062-.585.007-1.174.015-1.766.015v13.137h1.44zm1.326-6.836a67.965 67.965 0 00-1.278-.016V1.512c.457 0 .91-.008 1.358-.015 1.108-.02 2.191-.038 3.25.063 1.2.141 1.824 1.228 1.776 2.599-.048 1.276-.72 2.173-1.968 2.268-1.027.101-2.08.082-3.138.063zM78.39 21.596h2.496v17.958H78.39V21.596zM57.555.19v13.137c2.737 0 5.473 0 8.209-.047v-1.23h-6.768V.19h-1.44zm10.656 0h1.392v11.86h6.769v1.276H68.21V.19zm22.37 0v13.137c2.785 0 5.473 0 8.257-.047v-1.23H92.07V.19h-1.488z" fill="#005B8B"/><defs><linearGradient id="paint0_linear_391_804" x1="130.998" y1="39.999" x2="57.67" y2="87.006" gradientUnits="userSpaceOnUse"><stop offset="1" stop-color="#9002FF"/></linearGradient></defs></svg>