<svg width="407" height="65" fill="none" xmlns="http://www.w3.org/2000/svg"><path d="M36.828.078c.629 2.017 1.258 4.035 1.887 5.975l19.58 57.972c.038.155.078.29.117.426.04.136.079.272.118.427-1.494.233-1.494.233-1.887-.93A60494.382 60494.382 0 0135.177.542a1.104 1.104 0 01-.079-.271A1.1 1.1 0 0035.019 0c.708.078 1.259.078 1.809.078z" fill="#000"/><path d="M36.828.078c.629 2.017 1.258 4.035 1.887 5.975l19.58 57.972c.038.155.078.29.117.426.04.136.079.272.118.427-1.494.233-1.494.233-1.887-.93A60494.382 60494.382 0 0135.177.542a1.104 1.104 0 01-.079-.271A1.1 1.1 0 0035.019 0c.708.078 1.259.078 1.809.078z" fill="#062633"/><path d="M36.828.078c.629 2.017 1.258 4.035 1.887 5.975l19.58 57.972c.038.155.078.29.117.426.04.136.079.272.118.427-1.494.233-1.494.233-1.887-.93A60494.382 60494.382 0 0135.177.542a1.104 1.104 0 01-.079-.271A1.1 1.1 0 0035.019 0c.708.078 1.259.078 1.809.078z" fill="#226180"/><path d="M36.828.078c.629 2.017 1.258 4.035 1.887 5.975l19.58 57.972c.038.155.078.29.117.426.04.136.079.272.118.427-1.494.233-1.494.233-1.887-.93A60494.382 60494.382 0 0135.177.542a1.104 1.104 0 01-.079-.271A1.1 1.1 0 0035.019 0c.708.078 1.259.078 1.809.078z" fill="red"/><path d="M36.828.078c.629 2.017 1.258 4.035 1.887 5.975l19.58 57.972c.038.155.078.29.117.426.04.136.079.272.118.427-1.494.233-1.494.233-1.887-.93A60494.382 60494.382 0 0135.177.542a1.104 1.104 0 01-.079-.271A1.1 1.1 0 0035.019 0c.708.078 1.259.078 1.809.078z" fill="#183646"/><path d="M36.828.078c.629 2.017 1.258 4.035 1.887 5.975l19.58 57.972c.038.155.078.29.117.426.04.136.079.272.118.427-1.494.233-1.494.233-1.887-.93A60494.382 60494.382 0 0135.177.542a1.104 1.104 0 01-.079-.271A1.1 1.1 0 0035.019 0c.708.078 1.259.078 1.809.078z" fill="#005B8B"/><path d="M36.828.078c.629 2.017 1.258 4.035 1.887 5.975l19.58 57.972c.038.155.078.29.117.426.04.136.079.272.118.427-1.494.233-1.494.233-1.887-.93A60494.382 60494.382 0 0135.177.542a1.104 1.104 0 01-.079-.271A1.1 1.1 0 0035.019 0c.708.078 1.259.078 1.809.078z" fill="url(#paint0_linear_520_6565)"/><path d="M24.165 21.667h6.014v-.792H25.57l2.459-2.218c1.151-1.038 1.727-1.932 1.727-2.684a1.76 1.76 0 00-.744-1.484c-.496-.373-1.17-.56-2.023-.56-.912 0-1.641.216-2.188.65-.542.433-.813 1.001-.813 1.703h1.166c0-.489.16-.87.48-1.142.323-.277.775-.415 1.355-.415.483 0 .87.128 1.16.383.29.255.435.582.435.98 0 .298-.09.586-.271.866-.177.276-.5.636-.971 1.08l-3.177 2.935v.698z" fill="#000"/><path d="M24.165 21.667h6.014v-.792H25.57l2.459-2.218c1.151-1.038 1.727-1.932 1.727-2.684a1.76 1.76 0 00-.744-1.484c-.496-.373-1.17-.56-2.023-.56-.912 0-1.641.216-2.188.65-.542.433-.813 1.001-.813 1.703h1.166c0-.489.16-.87.48-1.142.323-.277.775-.415 1.355-.415.483 0 .87.128 1.16.383.29.255.435.582.435.98 0 .298-.09.586-.271.866-.177.276-.5.636-.971 1.08l-3.177 2.935v.698z" fill="#062633"/><path d="M24.165 21.667h6.014v-.792H25.57l2.459-2.218c1.151-1.038 1.727-1.932 1.727-2.684a1.76 1.76 0 00-.744-1.484c-.496-.373-1.17-.56-2.023-.56-.912 0-1.641.216-2.188.65-.542.433-.813 1.001-.813 1.703h1.166c0-.489.16-.87.48-1.142.323-.277.775-.415 1.355-.415.483 0 .87.128 1.16.383.29.255.435.582.435.98 0 .298-.09.586-.271.866-.177.276-.5.636-.971 1.08l-3.177 2.935v.698z" fill="#226180"/><path d="M24.165 21.667h6.014v-.792H25.57l2.459-2.218c1.151-1.038 1.727-1.932 1.727-2.684a1.76 1.76 0 00-.744-1.484c-.496-.373-1.17-.56-2.023-.56-.912 0-1.641.216-2.188.65-.542.433-.813 1.001-.813 1.703h1.166c0-.489.16-.87.48-1.142.323-.277.775-.415 1.355-.415.483 0 .87.128 1.16.383.29.255.435.582.435.98 0 .298-.09.586-.271.866-.177.276-.5.636-.971 1.08l-3.177 2.935v.698z" fill="red"/><path d="M24.165 21.667h6.014v-.792H25.57l2.459-2.218c1.151-1.038 1.727-1.932 1.727-2.684a1.76 1.76 0 00-.744-1.484c-.496-.373-1.17-.56-2.023-.56-.912 0-1.641.216-2.188.65-.542.433-.813 1.001-.813 1.703h1.166c0-.489.16-.87.48-1.142.323-.277.775-.415 1.355-.415.483 0 .87.128 1.16.383.29.255.435.582.435.98 0 .298-.09.586-.271.866-.177.276-.5.636-.971 1.08l-3.177 2.935v.698z" fill="#183646"/><path d="M24.165 21.667h6.014v-.792H25.57l2.459-2.218c1.151-1.038 1.727-1.932 1.727-2.684a1.76 1.76 0 00-.744-1.484c-.496-.373-1.17-.56-2.023-.56-.912 0-1.641.216-2.188.65-.542.433-.813 1.001-.813 1.703h1.166c0-.489.16-.87.48-1.142.323-.277.775-.415 1.355-.415.483 0 .87.128 1.16.383.29.255.435.582.435.98 0 .298-.09.586-.271.866-.177.276-.5.636-.971 1.08l-3.177 2.935v.698z" fill="#005B8B"/><path d="M24.165 21.667h6.014v-.792H25.57l2.459-2.218c1.151-1.038 1.727-1.932 1.727-2.684a1.76 1.76 0 00-.744-1.484c-.496-.373-1.17-.56-2.023-.56-.912 0-1.641.216-2.188.65-.542.433-.813 1.001-.813 1.703h1.166c0-.489.16-.87.48-1.142.323-.277.775-.415 1.355-.415.483 0 .87.128 1.16.383.29.255.435.582.435.98 0 .298-.09.586-.271.866-.177.276-.5.636-.971 1.08l-3.177 2.935v.698z" fill="url(#paint1_linear_520_6565)"/><path d="M0 17.287l1.828 3.186H7.51c3.693 0 6.563 1.136 8.609 3.408 2.063 2.272 3.094 5.507 3.094 9.706v2.099c0 4.083-.973 7.252-2.92 9.508-1.93 2.272-4.674 3.424-8.234 3.457H5.05l1.14 3.194 1.86.017c3.161 0 5.64-.692 8.069-2.075 2.429-1.383 3.755-2.98 5.07-5.532 1.33-2.551 2.057-5.68 2.074-8.989v-1.68c0-3.39-.744-6.14-2.075-8.692-1.314-2.552-2.607-4.166-5.07-5.532-2.445-1.367-4.799-2.042-8.06-2.075H0z" fill="#000"/><path d="M0 17.287l1.828 3.186H7.51c3.693 0 6.563 1.136 8.609 3.408 2.063 2.272 3.094 5.507 3.094 9.706v2.099c0 4.083-.973 7.252-2.92 9.508-1.93 2.272-4.674 3.424-8.234 3.457H5.05l1.14 3.194 1.86.017c3.161 0 5.64-.692 8.069-2.075 2.429-1.383 3.755-2.98 5.07-5.532 1.33-2.551 2.057-5.68 2.074-8.989v-1.68c0-3.39-.744-6.14-2.075-8.692-1.314-2.552-2.607-4.166-5.07-5.532-2.445-1.367-4.799-2.042-8.06-2.075H0z" fill="#062633"/><path d="M0 17.287l1.828 3.186H7.51c3.693 0 6.563 1.136 8.609 3.408 2.063 2.272 3.094 5.507 3.094 9.706v2.099c0 4.083-.973 7.252-2.92 9.508-1.93 2.272-4.674 3.424-8.234 3.457H5.05l1.14 3.194 1.86.017c3.161 0 5.64-.692 8.069-2.075 2.429-1.383 3.755-2.98 5.07-5.532 1.33-2.551 2.057-5.68 2.074-8.989v-1.68c0-3.39-.744-6.14-2.075-8.692-1.314-2.552-2.607-4.166-5.07-5.532-2.445-1.367-4.799-2.042-8.06-2.075H0z" fill="#226180"/><path d="M0 17.287l1.828 3.186H7.51c3.693 0 6.563 1.136 8.609 3.408 2.063 2.272 3.094 5.507 3.094 9.706v2.099c0 4.083-.973 7.252-2.92 9.508-1.93 2.272-4.674 3.424-8.234 3.457H5.05l1.14 3.194 1.86.017c3.161 0 5.64-.692 8.069-2.075 2.429-1.383 3.755-2.98 5.07-5.532 1.33-2.551 2.057-5.68 2.074-8.989v-1.68c0-3.39-.744-6.14-2.075-8.692-1.314-2.552-2.607-4.166-5.07-5.532-2.445-1.367-4.799-2.042-8.06-2.075H0z" fill="red"/><path d="M0 17.287l1.828 3.186H7.51c3.693 0 6.563 1.136 8.609 3.408 2.063 2.272 3.094 5.507 3.094 9.706v2.099c0 4.083-.973 7.252-2.92 9.508-1.93 2.272-4.674 3.424-8.234 3.457H5.05l1.14 3.194 1.86.017c3.161 0 5.64-.692 8.069-2.075 2.429-1.383 3.755-2.98 5.07-5.532 1.33-2.551 2.057-5.68 2.074-8.989v-1.68c0-3.39-.744-6.14-2.075-8.692-1.314-2.552-2.607-4.166-5.07-5.532-2.445-1.367-4.799-2.042-8.06-2.075H0z" fill="#183646"/><path d="M0 17.287l1.828 3.186H7.51c3.693 0 6.563 1.136 8.609 3.408 2.063 2.272 3.094 5.507 3.094 9.706v2.099c0 4.083-.973 7.252-2.92 9.508-1.93 2.272-4.674 3.424-8.234 3.457H5.05l1.14 3.194 1.86.017c3.161 0 5.64-.692 8.069-2.075 2.429-1.383 3.755-2.98 5.07-5.532 1.33-2.551 2.057-5.68 2.074-8.989v-1.68c0-3.39-.744-6.14-2.075-8.692-1.314-2.552-2.607-4.166-5.07-5.532-2.445-1.367-4.799-2.042-8.06-2.075H0z" fill="#005B8B"/><path d="M0 17.287l1.828 3.186H7.51c3.693 0 6.563 1.136 8.609 3.408 2.063 2.272 3.094 5.507 3.094 9.706v2.099c0 4.083-.973 7.252-2.92 9.508-1.93 2.272-4.674 3.424-8.234 3.457H5.05l1.14 3.194 1.86.017c3.161 0 5.64-.692 8.069-2.075 2.429-1.383 3.755-2.98 5.07-5.532 1.33-2.551 2.057-5.68 2.074-8.989v-1.68c0-3.39-.744-6.14-2.075-8.692-1.314-2.552-2.607-4.166-5.07-5.532-2.445-1.367-4.799-2.042-8.06-2.075H0z" fill="url(#paint2_linear_520_6565)"/><path d="M43.333 46.635c-.223 1.912-.932 3.39-2.124 4.432-1.185 1.035-2.763 1.552-4.734 1.552-2.137 0-3.852-.766-5.144-2.297-1.284-1.53-1.926-3.579-1.926-6.145V42.44c0-1.68.298-3.158.894-4.432.605-1.275 1.458-2.251 2.56-2.93 1.102-.687 2.377-1.03 3.827-1.03 1.922 0 3.462.538 4.622 1.613 1.16 1.068 1.835 2.55 2.025 4.445h-2.398c-.207-1.44-.658-2.483-1.354-3.129-.688-.645-1.653-.968-2.895-.968-1.524 0-2.721.563-3.591 1.688-.861 1.126-1.292 2.727-1.292 4.805v1.75c0 1.961.41 3.521 1.23 4.68.82 1.159 1.967 1.738 3.442 1.738 1.325 0 2.34-.298 3.044-.894.712-.604 1.184-1.65 1.416-3.14h2.398z" fill="#000"/><path d="M43.333 46.635c-.223 1.912-.932 3.39-2.124 4.432-1.185 1.035-2.763 1.552-4.734 1.552-2.137 0-3.852-.766-5.144-2.297-1.284-1.53-1.926-3.579-1.926-6.145V42.44c0-1.68.298-3.158.894-4.432.605-1.275 1.458-2.251 2.56-2.93 1.102-.687 2.377-1.03 3.827-1.03 1.922 0 3.462.538 4.622 1.613 1.16 1.068 1.835 2.55 2.025 4.445h-2.398c-.207-1.44-.658-2.483-1.354-3.129-.688-.645-1.653-.968-2.895-.968-1.524 0-2.721.563-3.591 1.688-.861 1.126-1.292 2.727-1.292 4.805v1.75c0 1.961.41 3.521 1.23 4.68.82 1.159 1.967 1.738 3.442 1.738 1.325 0 2.34-.298 3.044-.894.712-.604 1.184-1.65 1.416-3.14h2.398z" fill="#062633"/><path d="M43.333 46.635c-.223 1.912-.932 3.39-2.124 4.432-1.185 1.035-2.763 1.552-4.734 1.552-2.137 0-3.852-.766-5.144-2.297-1.284-1.53-1.926-3.579-1.926-6.145V42.44c0-1.68.298-3.158.894-4.432.605-1.275 1.458-2.251 2.56-2.93 1.102-.687 2.377-1.03 3.827-1.03 1.922 0 3.462.538 4.622 1.613 1.16 1.068 1.835 2.55 2.025 4.445h-2.398c-.207-1.44-.658-2.483-1.354-3.129-.688-.645-1.653-.968-2.895-.968-1.524 0-2.721.563-3.591 1.688-.861 1.126-1.292 2.727-1.292 4.805v1.75c0 1.961.41 3.521 1.23 4.68.82 1.159 1.967 1.738 3.442 1.738 1.325 0 2.34-.298 3.044-.894.712-.604 1.184-1.65 1.416-3.14h2.398z" fill="#226180"/><path d="M43.333 46.635c-.223 1.912-.932 3.39-2.124 4.432-1.185 1.035-2.763 1.552-4.734 1.552-2.137 0-3.852-.766-5.144-2.297-1.284-1.53-1.926-3.579-1.926-6.145V42.44c0-1.68.298-3.158.894-4.432.605-1.275 1.458-2.251 2.56-2.93 1.102-.687 2.377-1.03 3.827-1.03 1.922 0 3.462.538 4.622 1.613 1.16 1.068 1.835 2.55 2.025 4.445h-2.398c-.207-1.44-.658-2.483-1.354-3.129-.688-.645-1.653-.968-2.895-.968-1.524 0-2.721.563-3.591 1.688-.861 1.126-1.292 2.727-1.292 4.805v1.75c0 1.961.41 3.521 1.23 4.68.82 1.159 1.967 1.738 3.442 1.738 1.325 0 2.34-.298 3.044-.894.712-.604 1.184-1.65 1.416-3.14h2.398z" fill="red"/><path d="M43.333 46.635c-.223 1.912-.932 3.39-2.124 4.432-1.185 1.035-2.763 1.552-4.734 1.552-2.137 0-3.852-.766-5.144-2.297-1.284-1.53-1.926-3.579-1.926-6.145V42.44c0-1.68.298-3.158.894-4.432.605-1.275 1.458-2.251 2.56-2.93 1.102-.687 2.377-1.03 3.827-1.03 1.922 0 3.462.538 4.622 1.613 1.16 1.068 1.835 2.55 2.025 4.445h-2.398c-.207-1.44-.658-2.483-1.354-3.129-.688-.645-1.653-.968-2.895-.968-1.524 0-2.721.563-3.591 1.688-.861 1.126-1.292 2.727-1.292 4.805v1.75c0 1.961.41 3.521 1.23 4.68.82 1.159 1.967 1.738 3.442 1.738 1.325 0 2.34-.298 3.044-.894.712-.604 1.184-1.65 1.416-3.14h2.398z" fill="#183646"/><path d="M43.333 46.635c-.223 1.912-.932 3.39-2.124 4.432-1.185 1.035-2.763 1.552-4.734 1.552-2.137 0-3.852-.766-5.144-2.297-1.284-1.53-1.926-3.579-1.926-6.145V42.44c0-1.68.298-3.158.894-4.432.605-1.275 1.458-2.251 2.56-2.93 1.102-.687 2.377-1.03 3.827-1.03 1.922 0 3.462.538 4.622 1.613 1.16 1.068 1.835 2.55 2.025 4.445h-2.398c-.207-1.44-.658-2.483-1.354-3.129-.688-.645-1.653-.968-2.895-.968-1.524 0-2.721.563-3.591 1.688-.861 1.126-1.292 2.727-1.292 4.805v1.75c0 1.961.41 3.521 1.23 4.68.82 1.159 1.967 1.738 3.442 1.738 1.325 0 2.34-.298 3.044-.894.712-.604 1.184-1.65 1.416-3.14h2.398z" fill="#005B8B"/><path d="M43.333 46.635c-.223 1.912-.932 3.39-2.124 4.432-1.185 1.035-2.763 1.552-4.734 1.552-2.137 0-3.852-.766-5.144-2.297-1.284-1.53-1.926-3.579-1.926-6.145V42.44c0-1.68.298-3.158.894-4.432.605-1.275 1.458-2.251 2.56-2.93 1.102-.687 2.377-1.03 3.827-1.03 1.922 0 3.462.538 4.622 1.613 1.16 1.068 1.835 2.55 2.025 4.445h-2.398c-.207-1.44-.658-2.483-1.354-3.129-.688-.645-1.653-.968-2.895-.968-1.524 0-2.721.563-3.591 1.688-.861 1.126-1.292 2.727-1.292 4.805v1.75c0 1.961.41 3.521 1.23 4.68.82 1.159 1.967 1.738 3.442 1.738 1.325 0 2.34-.298 3.044-.894.712-.604 1.184-1.65 1.416-3.14h2.398z" fill="url(#paint3_linear_520_6565)"/><path fill-rule="evenodd" clip-rule="evenodd" d="M76.97 35.498v26.407h7.599c2.382 0 4.492-.514 6.33-1.542 1.85-1.027 3.27-2.49 4.261-4.389 1.004-1.898 1.506-4.098 1.506-6.601v-1.324c0-2.467-.496-4.655-1.487-6.566-.992-1.91-2.394-3.385-4.208-4.425-1.802-1.04-3.87-1.56-6.203-1.56H76.97zm4.588 22.743V39.198h3.21c2.37 0 4.178.756 5.423 2.267 1.245 1.512 1.868 3.7 1.868 6.566V49.5c-.024 2.817-.683 4.981-1.977 6.492-1.281 1.5-3.125 2.25-5.531 2.25h-2.993z" fill="#000"/><path fill-rule="evenodd" clip-rule="evenodd" d="M76.97 35.498v26.407h7.599c2.382 0 4.492-.514 6.33-1.542 1.85-1.027 3.27-2.49 4.261-4.389 1.004-1.898 1.506-4.098 1.506-6.601v-1.324c0-2.467-.496-4.655-1.487-6.566-.992-1.91-2.394-3.385-4.208-4.425-1.802-1.04-3.87-1.56-6.203-1.56H76.97zm4.588 22.743V39.198h3.21c2.37 0 4.178.756 5.423 2.267 1.245 1.512 1.868 3.7 1.868 6.566V49.5c-.024 2.817-.683 4.981-1.977 6.492-1.281 1.5-3.125 2.25-5.531 2.25h-2.993z" fill="#062633"/><path fill-rule="evenodd" clip-rule="evenodd" d="M76.97 35.498v26.407h7.599c2.382 0 4.492-.514 6.33-1.542 1.85-1.027 3.27-2.49 4.261-4.389 1.004-1.898 1.506-4.098 1.506-6.601v-1.324c0-2.467-.496-4.655-1.487-6.566-.992-1.91-2.394-3.385-4.208-4.425-1.802-1.04-3.87-1.56-6.203-1.56H76.97zm4.588 22.743V39.198h3.21c2.37 0 4.178.756 5.423 2.267 1.245 1.512 1.868 3.7 1.868 6.566V49.5c-.024 2.817-.683 4.981-1.977 6.492-1.281 1.5-3.125 2.25-5.531 2.25h-2.993z" fill="#226180"/><path fill-rule="evenodd" clip-rule="evenodd" d="M76.97 35.498v26.407h7.599c2.382 0 4.492-.514 6.33-1.542 1.85-1.027 3.27-2.49 4.261-4.389 1.004-1.898 1.506-4.098 1.506-6.601v-1.324c0-2.467-.496-4.655-1.487-6.566-.992-1.91-2.394-3.385-4.208-4.425-1.802-1.04-3.87-1.56-6.203-1.56H76.97zm4.588 22.743V39.198h3.21c2.37 0 4.178.756 5.423 2.267 1.245 1.512 1.868 3.7 1.868 6.566V49.5c-.024 2.817-.683 4.981-1.977 6.492-1.281 1.5-3.125 2.25-5.531 2.25h-2.993z" fill="red"/><path fill-rule="evenodd" clip-rule="evenodd" d="M76.97 35.498v26.407h7.599c2.382 0 4.492-.514 6.33-1.542 1.85-1.027 3.27-2.49 4.261-4.389 1.004-1.898 1.506-4.098 1.506-6.601v-1.324c0-2.467-.496-4.655-1.487-6.566-.992-1.91-2.394-3.385-4.208-4.425-1.802-1.04-3.87-1.56-6.203-1.56H76.97zm4.588 22.743V39.198h3.21c2.37 0 4.178.756 5.423 2.267 1.245 1.512 1.868 3.7 1.868 6.566V49.5c-.024 2.817-.683 4.981-1.977 6.492-1.281 1.5-3.125 2.25-5.531 2.25h-2.993z" fill="#183646"/><path fill-rule="evenodd" clip-rule="evenodd" d="M76.97 35.498v26.407h7.599c2.382 0 4.492-.514 6.33-1.542 1.85-1.027 3.27-2.49 4.261-4.389 1.004-1.898 1.506-4.098 1.506-6.601v-1.324c0-2.467-.496-4.655-1.487-6.566-.992-1.91-2.394-3.385-4.208-4.425-1.802-1.04-3.87-1.56-6.203-1.56H76.97zm4.588 22.743V39.198h3.21c2.37 0 4.178.756 5.423 2.267 1.245 1.512 1.868 3.7 1.868 6.566V49.5c-.024 2.817-.683 4.981-1.977 6.492-1.281 1.5-3.125 2.25-5.531 2.25h-2.993z" fill="#005B8B"/><path fill-rule="evenodd" clip-rule="evenodd" d="M76.97 35.498v26.407h7.599c2.382 0 4.492-.514 6.33-1.542 1.85-1.027 3.27-2.49 4.261-4.389 1.004-1.898 1.506-4.098 1.506-6.601v-1.324c0-2.467-.496-4.655-1.487-6.566-.992-1.91-2.394-3.385-4.208-4.425-1.802-1.04-3.87-1.56-6.203-1.56H76.97zm4.588 22.743V39.198h3.21c2.37 0 4.178.756 5.423 2.267 1.245 1.512 1.868 3.7 1.868 6.566V49.5c-.024 2.817-.683 4.981-1.977 6.492-1.281 1.5-3.125 2.25-5.531 2.25h-2.993z" fill="url(#paint4_linear_520_6565)"/><path d="M111.582 50.116h10.845V46.49h-10.845V39.2h12.55v-3.7h-17.139v26.406h17.266V58.24h-12.677v-8.125z" fill="#000"/><path d="M111.582 50.116h10.845V46.49h-10.845V39.2h12.55v-3.7h-17.139v26.406h17.266V58.24h-12.677v-8.125z" fill="#062633"/><path d="M111.582 50.116h10.845V46.49h-10.845V39.2h12.55v-3.7h-17.139v26.406h17.266V58.24h-12.677v-8.125z" fill="#226180"/><path d="M111.582 50.116h10.845V46.49h-10.845V39.2h12.55v-3.7h-17.139v26.406h17.266V58.24h-12.677v-8.125z" fill="red"/><path d="M111.582 50.116h10.845V46.49h-10.845V39.2h12.55v-3.7h-17.139v26.406h17.266V58.24h-12.677v-8.125z" fill="#183646"/><path d="M111.582 50.116h10.845V46.49h-10.845V39.2h12.55v-3.7h-17.139v26.406h17.266V58.24h-12.677v-8.125z" fill="#005B8B"/><path d="M111.582 50.116h10.845V46.49h-10.845V39.2h12.55v-3.7h-17.139v26.406h17.266V58.24h-12.677v-8.125z" fill="url(#paint5_linear_520_6565)"/><path d="M146.32 52.42c.823.628 1.234 1.523 1.234 2.684 0 1.064-.405 1.922-1.215 2.575-.798.64-1.995.961-3.591.961-1.85 0-3.271-.41-4.262-1.233-.992-.822-1.488-1.983-1.488-3.482h-4.588c0 1.656.441 3.107 1.324 4.353.895 1.245 2.14 2.224 3.736 2.938 1.608.7 3.367 1.051 5.278 1.051 2.889 0 5.174-.646 6.855-1.94 1.693-1.306 2.539-3.059 2.539-5.26 0-1.354-.29-2.533-.87-3.536-.581-1.016-1.494-1.91-2.739-2.684-1.245-.786-2.896-1.481-4.951-2.086-2.056-.617-3.531-1.245-4.425-1.886-.895-.653-1.342-1.463-1.342-2.43 0-1.149.411-2.044 1.233-2.684.834-.641 2.001-.962 3.5-.962 1.608 0 2.841.393 3.7 1.18.87.773 1.306 1.849 1.306 3.227h4.57c0-1.523-.411-2.908-1.233-4.153-.822-1.257-1.953-2.224-3.392-2.902-1.439-.677-3.077-1.015-4.915-1.015-2.768 0-5.023.689-6.764 2.067-1.729 1.379-2.594 3.132-2.594 5.26 0 2.43 1.203 4.4 3.609 5.912 1.258.786 2.95 1.5 5.078 2.14 2.128.641 3.597 1.276 4.407 1.905z" fill="#000"/><path d="M146.32 52.42c.823.628 1.234 1.523 1.234 2.684 0 1.064-.405 1.922-1.215 2.575-.798.64-1.995.961-3.591.961-1.85 0-3.271-.41-4.262-1.233-.992-.822-1.488-1.983-1.488-3.482h-4.588c0 1.656.441 3.107 1.324 4.353.895 1.245 2.14 2.224 3.736 2.938 1.608.7 3.367 1.051 5.278 1.051 2.889 0 5.174-.646 6.855-1.94 1.693-1.306 2.539-3.059 2.539-5.26 0-1.354-.29-2.533-.87-3.536-.581-1.016-1.494-1.91-2.739-2.684-1.245-.786-2.896-1.481-4.951-2.086-2.056-.617-3.531-1.245-4.425-1.886-.895-.653-1.342-1.463-1.342-2.43 0-1.149.411-2.044 1.233-2.684.834-.641 2.001-.962 3.5-.962 1.608 0 2.841.393 3.7 1.18.87.773 1.306 1.849 1.306 3.227h4.57c0-1.523-.411-2.908-1.233-4.153-.822-1.257-1.953-2.224-3.392-2.902-1.439-.677-3.077-1.015-4.915-1.015-2.768 0-5.023.689-6.764 2.067-1.729 1.379-2.594 3.132-2.594 5.26 0 2.43 1.203 4.4 3.609 5.912 1.258.786 2.95 1.5 5.078 2.14 2.128.641 3.597 1.276 4.407 1.905z" fill="#062633"/><path d="M146.32 52.42c.823.628 1.234 1.523 1.234 2.684 0 1.064-.405 1.922-1.215 2.575-.798.64-1.995.961-3.591.961-1.85 0-3.271-.41-4.262-1.233-.992-.822-1.488-1.983-1.488-3.482h-4.588c0 1.656.441 3.107 1.324 4.353.895 1.245 2.14 2.224 3.736 2.938 1.608.7 3.367 1.051 5.278 1.051 2.889 0 5.174-.646 6.855-1.94 1.693-1.306 2.539-3.059 2.539-5.26 0-1.354-.29-2.533-.87-3.536-.581-1.016-1.494-1.91-2.739-2.684-1.245-.786-2.896-1.481-4.951-2.086-2.056-.617-3.531-1.245-4.425-1.886-.895-.653-1.342-1.463-1.342-2.43 0-1.149.411-2.044 1.233-2.684.834-.641 2.001-.962 3.5-.962 1.608 0 2.841.393 3.7 1.18.87.773 1.306 1.849 1.306 3.227h4.57c0-1.523-.411-2.908-1.233-4.153-.822-1.257-1.953-2.224-3.392-2.902-1.439-.677-3.077-1.015-4.915-1.015-2.768 0-5.023.689-6.764 2.067-1.729 1.379-2.594 3.132-2.594 5.26 0 2.43 1.203 4.4 3.609 5.912 1.258.786 2.95 1.5 5.078 2.14 2.128.641 3.597 1.276 4.407 1.905z" fill="#226180"/><path d="M146.32 52.42c.823.628 1.234 1.523 1.234 2.684 0 1.064-.405 1.922-1.215 2.575-.798.64-1.995.961-3.591.961-1.85 0-3.271-.41-4.262-1.233-.992-.822-1.488-1.983-1.488-3.482h-4.588c0 1.656.441 3.107 1.324 4.353.895 1.245 2.14 2.224 3.736 2.938 1.608.7 3.367 1.051 5.278 1.051 2.889 0 5.174-.646 6.855-1.94 1.693-1.306 2.539-3.059 2.539-5.26 0-1.354-.29-2.533-.87-3.536-.581-1.016-1.494-1.91-2.739-2.684-1.245-.786-2.896-1.481-4.951-2.086-2.056-.617-3.531-1.245-4.425-1.886-.895-.653-1.342-1.463-1.342-2.43 0-1.149.411-2.044 1.233-2.684.834-.641 2.001-.962 3.5-.962 1.608 0 2.841.393 3.7 1.18.87.773 1.306 1.849 1.306 3.227h4.57c0-1.523-.411-2.908-1.233-4.153-.822-1.257-1.953-2.224-3.392-2.902-1.439-.677-3.077-1.015-4.915-1.015-2.768 0-5.023.689-6.764 2.067-1.729 1.379-2.594 3.132-2.594 5.26 0 2.43 1.203 4.4 3.609 5.912 1.258.786 2.95 1.5 5.078 2.14 2.128.641 3.597 1.276 4.407 1.905z" fill="red"/><path d="M146.32 52.42c.823.628 1.234 1.523 1.234 2.684 0 1.064-.405 1.922-1.215 2.575-.798.64-1.995.961-3.591.961-1.85 0-3.271-.41-4.262-1.233-.992-.822-1.488-1.983-1.488-3.482h-4.588c0 1.656.441 3.107 1.324 4.353.895 1.245 2.14 2.224 3.736 2.938 1.608.7 3.367 1.051 5.278 1.051 2.889 0 5.174-.646 6.855-1.94 1.693-1.306 2.539-3.059 2.539-5.26 0-1.354-.29-2.533-.87-3.536-.581-1.016-1.494-1.91-2.739-2.684-1.245-.786-2.896-1.481-4.951-2.086-2.056-.617-3.531-1.245-4.425-1.886-.895-.653-1.342-1.463-1.342-2.43 0-1.149.411-2.044 1.233-2.684.834-.641 2.001-.962 3.5-.962 1.608 0 2.841.393 3.7 1.18.87.773 1.306 1.849 1.306 3.227h4.57c0-1.523-.411-2.908-1.233-4.153-.822-1.257-1.953-2.224-3.392-2.902-1.439-.677-3.077-1.015-4.915-1.015-2.768 0-5.023.689-6.764 2.067-1.729 1.379-2.594 3.132-2.594 5.26 0 2.43 1.203 4.4 3.609 5.912 1.258.786 2.95 1.5 5.078 2.14 2.128.641 3.597 1.276 4.407 1.905z" fill="#183646"/><path d="M146.32 52.42c.823.628 1.234 1.523 1.234 2.684 0 1.064-.405 1.922-1.215 2.575-.798.64-1.995.961-3.591.961-1.85 0-3.271-.41-4.262-1.233-.992-.822-1.488-1.983-1.488-3.482h-4.588c0 1.656.441 3.107 1.324 4.353.895 1.245 2.14 2.224 3.736 2.938 1.608.7 3.367 1.051 5.278 1.051 2.889 0 5.174-.646 6.855-1.94 1.693-1.306 2.539-3.059 2.539-5.26 0-1.354-.29-2.533-.87-3.536-.581-1.016-1.494-1.91-2.739-2.684-1.245-.786-2.896-1.481-4.951-2.086-2.056-.617-3.531-1.245-4.425-1.886-.895-.653-1.342-1.463-1.342-2.43 0-1.149.411-2.044 1.233-2.684.834-.641 2.001-.962 3.5-.962 1.608 0 2.841.393 3.7 1.18.87.773 1.306 1.849 1.306 3.227h4.57c0-1.523-.411-2.908-1.233-4.153-.822-1.257-1.953-2.224-3.392-2.902-1.439-.677-3.077-1.015-4.915-1.015-2.768 0-5.023.689-6.764 2.067-1.729 1.379-2.594 3.132-2.594 5.26 0 2.43 1.203 4.4 3.609 5.912 1.258.786 2.95 1.5 5.078 2.14 2.128.641 3.597 1.276 4.407 1.905z" fill="#005B8B"/><path d="M146.32 52.42c.823.628 1.234 1.523 1.234 2.684 0 1.064-.405 1.922-1.215 2.575-.798.64-1.995.961-3.591.961-1.85 0-3.271-.41-4.262-1.233-.992-.822-1.488-1.983-1.488-3.482h-4.588c0 1.656.441 3.107 1.324 4.353.895 1.245 2.14 2.224 3.736 2.938 1.608.7 3.367 1.051 5.278 1.051 2.889 0 5.174-.646 6.855-1.94 1.693-1.306 2.539-3.059 2.539-5.26 0-1.354-.29-2.533-.87-3.536-.581-1.016-1.494-1.91-2.739-2.684-1.245-.786-2.896-1.481-4.951-2.086-2.056-.617-3.531-1.245-4.425-1.886-.895-.653-1.342-1.463-1.342-2.43 0-1.149.411-2.044 1.233-2.684.834-.641 2.001-.962 3.5-.962 1.608 0 2.841.393 3.7 1.18.87.773 1.306 1.849 1.306 3.227h4.57c0-1.523-.411-2.908-1.233-4.153-.822-1.257-1.953-2.224-3.392-2.902-1.439-.677-3.077-1.015-4.915-1.015-2.768 0-5.023.689-6.764 2.067-1.729 1.379-2.594 3.132-2.594 5.26 0 2.43 1.203 4.4 3.609 5.912 1.258.786 2.95 1.5 5.078 2.14 2.128.641 3.597 1.276 4.407 1.905z" fill="url(#paint6_linear_520_6565)"/><path d="M162.197 61.905h4.571V35.498h-4.571v26.407z" fill="#000"/><path d="M162.197 61.905h4.571V35.498h-4.571v26.407z" fill="#062633"/><path d="M162.197 61.905h4.571V35.498h-4.571v26.407z" fill="#226180"/><path d="M162.197 61.905h4.571V35.498h-4.571v26.407z" fill="red"/><path d="M162.197 61.905h4.571V35.498h-4.571v26.407z" fill="#183646"/><path d="M162.197 61.905h4.571V35.498h-4.571v26.407z" fill="#005B8B"/><path d="M162.197 61.905h4.571V35.498h-4.571v26.407z" fill="url(#paint7_linear_520_6565)"/><path d="M194.433 61.306c1.693-.64 3.017-1.584 3.972-2.829v-10.12h-10.011v3.482h5.441v5.169c-.992 1.064-2.66 1.596-5.006 1.596-2.14 0-3.814-.786-5.023-2.358-1.197-1.584-1.796-3.802-1.796-6.656v-2.03c.036-2.867.587-5.037 1.651-6.512 1.076-1.487 2.641-2.23 4.697-2.23 3.18 0 5.024 1.59 5.531 4.77h4.498c-.351-2.733-1.39-4.825-3.119-6.276-1.729-1.45-4.063-2.176-7.001-2.176-3.422 0-6.088 1.124-7.998 3.373-1.91 2.237-2.865 5.35-2.865 9.34v2.068c.036 2.49.513 4.673 1.432 6.547.931 1.862 2.249 3.295 3.954 4.298 1.705 1.004 3.664 1.505 5.876 1.505 2.152 0 4.075-.32 5.767-.96z" fill="#000"/><path d="M194.433 61.306c1.693-.64 3.017-1.584 3.972-2.829v-10.12h-10.011v3.482h5.441v5.169c-.992 1.064-2.66 1.596-5.006 1.596-2.14 0-3.814-.786-5.023-2.358-1.197-1.584-1.796-3.802-1.796-6.656v-2.03c.036-2.867.587-5.037 1.651-6.512 1.076-1.487 2.641-2.23 4.697-2.23 3.18 0 5.024 1.59 5.531 4.77h4.498c-.351-2.733-1.39-4.825-3.119-6.276-1.729-1.45-4.063-2.176-7.001-2.176-3.422 0-6.088 1.124-7.998 3.373-1.91 2.237-2.865 5.35-2.865 9.34v2.068c.036 2.49.513 4.673 1.432 6.547.931 1.862 2.249 3.295 3.954 4.298 1.705 1.004 3.664 1.505 5.876 1.505 2.152 0 4.075-.32 5.767-.96z" fill="#062633"/><path d="M194.433 61.306c1.693-.64 3.017-1.584 3.972-2.829v-10.12h-10.011v3.482h5.441v5.169c-.992 1.064-2.66 1.596-5.006 1.596-2.14 0-3.814-.786-5.023-2.358-1.197-1.584-1.796-3.802-1.796-6.656v-2.03c.036-2.867.587-5.037 1.651-6.512 1.076-1.487 2.641-2.23 4.697-2.23 3.18 0 5.024 1.59 5.531 4.77h4.498c-.351-2.733-1.39-4.825-3.119-6.276-1.729-1.45-4.063-2.176-7.001-2.176-3.422 0-6.088 1.124-7.998 3.373-1.91 2.237-2.865 5.35-2.865 9.34v2.068c.036 2.49.513 4.673 1.432 6.547.931 1.862 2.249 3.295 3.954 4.298 1.705 1.004 3.664 1.505 5.876 1.505 2.152 0 4.075-.32 5.767-.96z" fill="#226180"/><path d="M194.433 61.306c1.693-.64 3.017-1.584 3.972-2.829v-10.12h-10.011v3.482h5.441v5.169c-.992 1.064-2.66 1.596-5.006 1.596-2.14 0-3.814-.786-5.023-2.358-1.197-1.584-1.796-3.802-1.796-6.656v-2.03c.036-2.867.587-5.037 1.651-6.512 1.076-1.487 2.641-2.23 4.697-2.23 3.18 0 5.024 1.59 5.531 4.77h4.498c-.351-2.733-1.39-4.825-3.119-6.276-1.729-1.45-4.063-2.176-7.001-2.176-3.422 0-6.088 1.124-7.998 3.373-1.91 2.237-2.865 5.35-2.865 9.34v2.068c.036 2.49.513 4.673 1.432 6.547.931 1.862 2.249 3.295 3.954 4.298 1.705 1.004 3.664 1.505 5.876 1.505 2.152 0 4.075-.32 5.767-.96z" fill="red"/><path d="M194.433 61.306c1.693-.64 3.017-1.584 3.972-2.829v-10.12h-10.011v3.482h5.441v5.169c-.992 1.064-2.66 1.596-5.006 1.596-2.14 0-3.814-.786-5.023-2.358-1.197-1.584-1.796-3.802-1.796-6.656v-2.03c.036-2.867.587-5.037 1.651-6.512 1.076-1.487 2.641-2.23 4.697-2.23 3.18 0 5.024 1.59 5.531 4.77h4.498c-.351-2.733-1.39-4.825-3.119-6.276-1.729-1.45-4.063-2.176-7.001-2.176-3.422 0-6.088 1.124-7.998 3.373-1.91 2.237-2.865 5.35-2.865 9.34v2.068c.036 2.49.513 4.673 1.432 6.547.931 1.862 2.249 3.295 3.954 4.298 1.705 1.004 3.664 1.505 5.876 1.505 2.152 0 4.075-.32 5.767-.96z" fill="#183646"/><path d="M194.433 61.306c1.693-.64 3.017-1.584 3.972-2.829v-10.12h-10.011v3.482h5.441v5.169c-.992 1.064-2.66 1.596-5.006 1.596-2.14 0-3.814-.786-5.023-2.358-1.197-1.584-1.796-3.802-1.796-6.656v-2.03c.036-2.867.587-5.037 1.651-6.512 1.076-1.487 2.641-2.23 4.697-2.23 3.18 0 5.024 1.59 5.531 4.77h4.498c-.351-2.733-1.39-4.825-3.119-6.276-1.729-1.45-4.063-2.176-7.001-2.176-3.422 0-6.088 1.124-7.998 3.373-1.91 2.237-2.865 5.35-2.865 9.34v2.068c.036 2.49.513 4.673 1.432 6.547.931 1.862 2.249 3.295 3.954 4.298 1.705 1.004 3.664 1.505 5.876 1.505 2.152 0 4.075-.32 5.767-.96z" fill="#005B8B"/><path d="M194.433 61.306c1.693-.64 3.017-1.584 3.972-2.829v-10.12h-10.011v3.482h5.441v5.169c-.992 1.064-2.66 1.596-5.006 1.596-2.14 0-3.814-.786-5.023-2.358-1.197-1.584-1.796-3.802-1.796-6.656v-2.03c.036-2.867.587-5.037 1.651-6.512 1.076-1.487 2.641-2.23 4.697-2.23 3.18 0 5.024 1.59 5.531 4.77h4.498c-.351-2.733-1.39-4.825-3.119-6.276-1.729-1.45-4.063-2.176-7.001-2.176-3.422 0-6.088 1.124-7.998 3.373-1.91 2.237-2.865 5.35-2.865 9.34v2.068c.036 2.49.513 4.673 1.432 6.547.931 1.862 2.249 3.295 3.954 4.298 1.705 1.004 3.664 1.505 5.876 1.505 2.152 0 4.075-.32 5.767-.96z" fill="url(#paint8_linear_520_6565)"/><path d="M225.563 61.905h4.589V35.498h-4.553v18.808l-11.806-18.807h-4.589v26.406h4.589V43.17l11.77 18.735z" fill="#000"/><path d="M225.563 61.905h4.589V35.498h-4.553v18.808l-11.806-18.807h-4.589v26.406h4.589V43.17l11.77 18.735z" fill="#062633"/><path d="M225.563 61.905h4.589V35.498h-4.553v18.808l-11.806-18.807h-4.589v26.406h4.589V43.17l11.77 18.735z" fill="#226180"/><path d="M225.563 61.905h4.589V35.498h-4.553v18.808l-11.806-18.807h-4.589v26.406h4.589V43.17l11.77 18.735z" fill="red"/><path d="M225.563 61.905h4.589V35.498h-4.553v18.808l-11.806-18.807h-4.589v26.406h4.589V43.17l11.77 18.735z" fill="#183646"/><path d="M225.563 61.905h4.589V35.498h-4.553v18.808l-11.806-18.807h-4.589v26.406h4.589V43.17l11.77 18.735z" fill="#005B8B"/><path d="M225.563 61.905h4.589V35.498h-4.553v18.808l-11.806-18.807h-4.589v26.406h4.589V43.17l11.77 18.735z" fill="url(#paint9_linear_520_6565)"/><path d="M255.631 61.905h17.755v-3.519h-12.26l6.456-6.91c1.693-1.837 2.908-3.476 3.646-4.914.749-1.451 1.124-2.836 1.124-4.154 0-2.273-.743-4.05-2.231-5.332-1.475-1.293-3.494-1.94-6.057-1.94-1.777 0-3.349.356-4.715 1.07-1.355.713-2.4 1.717-3.138 3.01-.725 1.282-1.088 2.727-1.088 4.335h4.407c0-1.511.393-2.702 1.179-3.573.786-.87 1.892-1.306 3.319-1.306 1.197 0 2.146.387 2.847 1.161.713.774 1.07 1.79 1.07 3.047 0 .955-.272 1.91-.816 2.865-.532.944-1.433 2.122-2.702 3.537l-8.796 9.594v3.029z" fill="#000"/><path d="M255.631 61.905h17.755v-3.519h-12.26l6.456-6.91c1.693-1.837 2.908-3.476 3.646-4.914.749-1.451 1.124-2.836 1.124-4.154 0-2.273-.743-4.05-2.231-5.332-1.475-1.293-3.494-1.94-6.057-1.94-1.777 0-3.349.356-4.715 1.07-1.355.713-2.4 1.717-3.138 3.01-.725 1.282-1.088 2.727-1.088 4.335h4.407c0-1.511.393-2.702 1.179-3.573.786-.87 1.892-1.306 3.319-1.306 1.197 0 2.146.387 2.847 1.161.713.774 1.07 1.79 1.07 3.047 0 .955-.272 1.91-.816 2.865-.532.944-1.433 2.122-2.702 3.537l-8.796 9.594v3.029z" fill="#062633"/><path d="M255.631 61.905h17.755v-3.519h-12.26l6.456-6.91c1.693-1.837 2.908-3.476 3.646-4.914.749-1.451 1.124-2.836 1.124-4.154 0-2.273-.743-4.05-2.231-5.332-1.475-1.293-3.494-1.94-6.057-1.94-1.777 0-3.349.356-4.715 1.07-1.355.713-2.4 1.717-3.138 3.01-.725 1.282-1.088 2.727-1.088 4.335h4.407c0-1.511.393-2.702 1.179-3.573.786-.87 1.892-1.306 3.319-1.306 1.197 0 2.146.387 2.847 1.161.713.774 1.07 1.79 1.07 3.047 0 .955-.272 1.91-.816 2.865-.532.944-1.433 2.122-2.702 3.537l-8.796 9.594v3.029z" fill="#226180"/><path d="M255.631 61.905h17.755v-3.519h-12.26l6.456-6.91c1.693-1.837 2.908-3.476 3.646-4.914.749-1.451 1.124-2.836 1.124-4.154 0-2.273-.743-4.05-2.231-5.332-1.475-1.293-3.494-1.94-6.057-1.94-1.777 0-3.349.356-4.715 1.07-1.355.713-2.4 1.717-3.138 3.01-.725 1.282-1.088 2.727-1.088 4.335h4.407c0-1.511.393-2.702 1.179-3.573.786-.87 1.892-1.306 3.319-1.306 1.197 0 2.146.387 2.847 1.161.713.774 1.07 1.79 1.07 3.047 0 .955-.272 1.91-.816 2.865-.532.944-1.433 2.122-2.702 3.537l-8.796 9.594v3.029z" fill="red"/><path d="M255.631 61.905h17.755v-3.519h-12.26l6.456-6.91c1.693-1.837 2.908-3.476 3.646-4.914.749-1.451 1.124-2.836 1.124-4.154 0-2.273-.743-4.05-2.231-5.332-1.475-1.293-3.494-1.94-6.057-1.94-1.777 0-3.349.356-4.715 1.07-1.355.713-2.4 1.717-3.138 3.01-.725 1.282-1.088 2.727-1.088 4.335h4.407c0-1.511.393-2.702 1.179-3.573.786-.87 1.892-1.306 3.319-1.306 1.197 0 2.146.387 2.847 1.161.713.774 1.07 1.79 1.07 3.047 0 .955-.272 1.91-.816 2.865-.532.944-1.433 2.122-2.702 3.537l-8.796 9.594v3.029z" fill="#183646"/><path d="M255.631 61.905h17.755v-3.519h-12.26l6.456-6.91c1.693-1.837 2.908-3.476 3.646-4.914.749-1.451 1.124-2.836 1.124-4.154 0-2.273-.743-4.05-2.231-5.332-1.475-1.293-3.494-1.94-6.057-1.94-1.777 0-3.349.356-4.715 1.07-1.355.713-2.4 1.717-3.138 3.01-.725 1.282-1.088 2.727-1.088 4.335h4.407c0-1.511.393-2.702 1.179-3.573.786-.87 1.892-1.306 3.319-1.306 1.197 0 2.146.387 2.847 1.161.713.774 1.07 1.79 1.07 3.047 0 .955-.272 1.91-.816 2.865-.532.944-1.433 2.122-2.702 3.537l-8.796 9.594v3.029z" fill="#005B8B"/><path d="M255.631 61.905h17.755v-3.519h-12.26l6.456-6.91c1.693-1.837 2.908-3.476 3.646-4.914.749-1.451 1.124-2.836 1.124-4.154 0-2.273-.743-4.05-2.231-5.332-1.475-1.293-3.494-1.94-6.057-1.94-1.777 0-3.349.356-4.715 1.07-1.355.713-2.4 1.717-3.138 3.01-.725 1.282-1.088 2.727-1.088 4.335h4.407c0-1.511.393-2.702 1.179-3.573.786-.87 1.892-1.306 3.319-1.306 1.197 0 2.146.387 2.847 1.161.713.774 1.07 1.79 1.07 3.047 0 .955-.272 1.91-.816 2.865-.532.944-1.433 2.122-2.702 3.537l-8.796 9.594v3.029z" fill="url(#paint10_linear_520_6565)"/><path d="M315.242 59.91c1.814-1.584 2.853-3.785 3.119-6.602h-4.57c-.242 1.886-.816 3.234-1.723 4.045-.907.81-2.261 1.215-4.062 1.215-1.971 0-3.47-.75-4.498-2.25-1.016-1.498-1.524-3.675-1.524-6.528v-2.34c.025-2.817.569-4.95 1.633-6.402 1.076-1.463 2.611-2.194 4.606-2.194 1.717 0 3.017.423 3.9 1.27.894.834 1.45 2.2 1.668 4.098h4.57c-.29-2.89-1.324-5.127-3.101-6.71-1.777-1.584-4.123-2.376-7.037-2.376-2.164 0-4.074.514-5.731 1.541-1.644 1.028-2.908 2.491-3.79 4.39-.883 1.898-1.324 4.092-1.324 6.583v2.466c.036 2.43.49 4.565 1.36 6.402.871 1.838 2.104 3.259 3.7 4.262 1.608.992 3.464 1.487 5.568 1.487 3.01 0 5.422-.785 7.236-2.357z" fill="#000"/><path d="M315.242 59.91c1.814-1.584 2.853-3.785 3.119-6.602h-4.57c-.242 1.886-.816 3.234-1.723 4.045-.907.81-2.261 1.215-4.062 1.215-1.971 0-3.47-.75-4.498-2.25-1.016-1.498-1.524-3.675-1.524-6.528v-2.34c.025-2.817.569-4.95 1.633-6.402 1.076-1.463 2.611-2.194 4.606-2.194 1.717 0 3.017.423 3.9 1.27.894.834 1.45 2.2 1.668 4.098h4.57c-.29-2.89-1.324-5.127-3.101-6.71-1.777-1.584-4.123-2.376-7.037-2.376-2.164 0-4.074.514-5.731 1.541-1.644 1.028-2.908 2.491-3.79 4.39-.883 1.898-1.324 4.092-1.324 6.583v2.466c.036 2.43.49 4.565 1.36 6.402.871 1.838 2.104 3.259 3.7 4.262 1.608.992 3.464 1.487 5.568 1.487 3.01 0 5.422-.785 7.236-2.357z" fill="#062633"/><path d="M315.242 59.91c1.814-1.584 2.853-3.785 3.119-6.602h-4.57c-.242 1.886-.816 3.234-1.723 4.045-.907.81-2.261 1.215-4.062 1.215-1.971 0-3.47-.75-4.498-2.25-1.016-1.498-1.524-3.675-1.524-6.528v-2.34c.025-2.817.569-4.95 1.633-6.402 1.076-1.463 2.611-2.194 4.606-2.194 1.717 0 3.017.423 3.9 1.27.894.834 1.45 2.2 1.668 4.098h4.57c-.29-2.89-1.324-5.127-3.101-6.71-1.777-1.584-4.123-2.376-7.037-2.376-2.164 0-4.074.514-5.731 1.541-1.644 1.028-2.908 2.491-3.79 4.39-.883 1.898-1.324 4.092-1.324 6.583v2.466c.036 2.43.49 4.565 1.36 6.402.871 1.838 2.104 3.259 3.7 4.262 1.608.992 3.464 1.487 5.568 1.487 3.01 0 5.422-.785 7.236-2.357z" fill="#226180"/><path d="M315.242 59.91c1.814-1.584 2.853-3.785 3.119-6.602h-4.57c-.242 1.886-.816 3.234-1.723 4.045-.907.81-2.261 1.215-4.062 1.215-1.971 0-3.47-.75-4.498-2.25-1.016-1.498-1.524-3.675-1.524-6.528v-2.34c.025-2.817.569-4.95 1.633-6.402 1.076-1.463 2.611-2.194 4.606-2.194 1.717 0 3.017.423 3.9 1.27.894.834 1.45 2.2 1.668 4.098h4.57c-.29-2.89-1.324-5.127-3.101-6.71-1.777-1.584-4.123-2.376-7.037-2.376-2.164 0-4.074.514-5.731 1.541-1.644 1.028-2.908 2.491-3.79 4.39-.883 1.898-1.324 4.092-1.324 6.583v2.466c.036 2.43.49 4.565 1.36 6.402.871 1.838 2.104 3.259 3.7 4.262 1.608.992 3.464 1.487 5.568 1.487 3.01 0 5.422-.785 7.236-2.357z" fill="red"/><path d="M315.242 59.91c1.814-1.584 2.853-3.785 3.119-6.602h-4.57c-.242 1.886-.816 3.234-1.723 4.045-.907.81-2.261 1.215-4.062 1.215-1.971 0-3.47-.75-4.498-2.25-1.016-1.498-1.524-3.675-1.524-6.528v-2.34c.025-2.817.569-4.95 1.633-6.402 1.076-1.463 2.611-2.194 4.606-2.194 1.717 0 3.017.423 3.9 1.27.894.834 1.45 2.2 1.668 4.098h4.57c-.29-2.89-1.324-5.127-3.101-6.71-1.777-1.584-4.123-2.376-7.037-2.376-2.164 0-4.074.514-5.731 1.541-1.644 1.028-2.908 2.491-3.79 4.39-.883 1.898-1.324 4.092-1.324 6.583v2.466c.036 2.43.49 4.565 1.36 6.402.871 1.838 2.104 3.259 3.7 4.262 1.608.992 3.464 1.487 5.568 1.487 3.01 0 5.422-.785 7.236-2.357z" fill="#183646"/><path d="M315.242 59.91c1.814-1.584 2.853-3.785 3.119-6.602h-4.57c-.242 1.886-.816 3.234-1.723 4.045-.907.81-2.261 1.215-4.062 1.215-1.971 0-3.47-.75-4.498-2.25-1.016-1.498-1.524-3.675-1.524-6.528v-2.34c.025-2.817.569-4.95 1.633-6.402 1.076-1.463 2.611-2.194 4.606-2.194 1.717 0 3.017.423 3.9 1.27.894.834 1.45 2.2 1.668 4.098h4.57c-.29-2.89-1.324-5.127-3.101-6.71-1.777-1.584-4.123-2.376-7.037-2.376-2.164 0-4.074.514-5.731 1.541-1.644 1.028-2.908 2.491-3.79 4.39-.883 1.898-1.324 4.092-1.324 6.583v2.466c.036 2.43.49 4.565 1.36 6.402.871 1.838 2.104 3.259 3.7 4.262 1.608.992 3.464 1.487 5.568 1.487 3.01 0 5.422-.785 7.236-2.357z" fill="#005B8B"/><path d="M315.242 59.91c1.814-1.584 2.853-3.785 3.119-6.602h-4.57c-.242 1.886-.816 3.234-1.723 4.045-.907.81-2.261 1.215-4.062 1.215-1.971 0-3.47-.75-4.498-2.25-1.016-1.498-1.524-3.675-1.524-6.528v-2.34c.025-2.817.569-4.95 1.633-6.402 1.076-1.463 2.611-2.194 4.606-2.194 1.717 0 3.017.423 3.9 1.27.894.834 1.45 2.2 1.668 4.098h4.57c-.29-2.89-1.324-5.127-3.101-6.71-1.777-1.584-4.123-2.376-7.037-2.376-2.164 0-4.074.514-5.731 1.541-1.644 1.028-2.908 2.491-3.79 4.39-.883 1.898-1.324 4.092-1.324 6.583v2.466c.036 2.43.49 4.565 1.36 6.402.871 1.838 2.104 3.259 3.7 4.262 1.608.992 3.464 1.487 5.568 1.487 3.01 0 5.422-.785 7.236-2.357z" fill="url(#paint11_linear_520_6565)"/><path fill-rule="evenodd" clip-rule="evenodd" d="M347.968 56.21c.894-1.959 1.342-4.232 1.342-6.82v-1.468c-.012-2.576-.472-4.83-1.379-6.765-.906-1.947-2.194-3.434-3.863-4.461-1.656-1.04-3.56-1.56-5.713-1.56-2.152 0-4.062.526-5.731 1.578-1.656 1.04-2.944 2.545-3.863 4.516-.906 1.97-1.36 4.243-1.36 6.819v1.487c.012 2.527.472 4.758 1.379 6.692.918 1.935 2.212 3.428 3.881 4.48 1.68 1.04 3.591 1.56 5.731 1.56 2.164 0 4.074-.52 5.731-1.56 1.668-1.052 2.95-2.551 3.845-4.498zm-4.915-14.926c1.112 1.56 1.668 3.803 1.668 6.729v1.378c0 2.974-.55 5.235-1.65 6.783-1.088 1.547-2.648 2.321-4.679 2.321-2.007 0-3.579-.792-4.716-2.376-1.124-1.584-1.686-3.826-1.686-6.728v-1.524c.024-2.841.592-5.035 1.704-6.583 1.125-1.56 2.679-2.34 4.661-2.34 2.032 0 3.597.78 4.698 2.34z" fill="#000"/><path fill-rule="evenodd" clip-rule="evenodd" d="M347.968 56.21c.894-1.959 1.342-4.232 1.342-6.82v-1.468c-.012-2.576-.472-4.83-1.379-6.765-.906-1.947-2.194-3.434-3.863-4.461-1.656-1.04-3.56-1.56-5.713-1.56-2.152 0-4.062.526-5.731 1.578-1.656 1.04-2.944 2.545-3.863 4.516-.906 1.97-1.36 4.243-1.36 6.819v1.487c.012 2.527.472 4.758 1.379 6.692.918 1.935 2.212 3.428 3.881 4.48 1.68 1.04 3.591 1.56 5.731 1.56 2.164 0 4.074-.52 5.731-1.56 1.668-1.052 2.95-2.551 3.845-4.498zm-4.915-14.926c1.112 1.56 1.668 3.803 1.668 6.729v1.378c0 2.974-.55 5.235-1.65 6.783-1.088 1.547-2.648 2.321-4.679 2.321-2.007 0-3.579-.792-4.716-2.376-1.124-1.584-1.686-3.826-1.686-6.728v-1.524c.024-2.841.592-5.035 1.704-6.583 1.125-1.56 2.679-2.34 4.661-2.34 2.032 0 3.597.78 4.698 2.34z" fill="#062633"/><path fill-rule="evenodd" clip-rule="evenodd" d="M347.968 56.21c.894-1.959 1.342-4.232 1.342-6.82v-1.468c-.012-2.576-.472-4.83-1.379-6.765-.906-1.947-2.194-3.434-3.863-4.461-1.656-1.04-3.56-1.56-5.713-1.56-2.152 0-4.062.526-5.731 1.578-1.656 1.04-2.944 2.545-3.863 4.516-.906 1.97-1.36 4.243-1.36 6.819v1.487c.012 2.527.472 4.758 1.379 6.692.918 1.935 2.212 3.428 3.881 4.48 1.68 1.04 3.591 1.56 5.731 1.56 2.164 0 4.074-.52 5.731-1.56 1.668-1.052 2.95-2.551 3.845-4.498zm-4.915-14.926c1.112 1.56 1.668 3.803 1.668 6.729v1.378c0 2.974-.55 5.235-1.65 6.783-1.088 1.547-2.648 2.321-4.679 2.321-2.007 0-3.579-.792-4.716-2.376-1.124-1.584-1.686-3.826-1.686-6.728v-1.524c.024-2.841.592-5.035 1.704-6.583 1.125-1.56 2.679-2.34 4.661-2.34 2.032 0 3.597.78 4.698 2.34z" fill="#226180"/><path fill-rule="evenodd" clip-rule="evenodd" d="M347.968 56.21c.894-1.959 1.342-4.232 1.342-6.82v-1.468c-.012-2.576-.472-4.83-1.379-6.765-.906-1.947-2.194-3.434-3.863-4.461-1.656-1.04-3.56-1.56-5.713-1.56-2.152 0-4.062.526-5.731 1.578-1.656 1.04-2.944 2.545-3.863 4.516-.906 1.97-1.36 4.243-1.36 6.819v1.487c.012 2.527.472 4.758 1.379 6.692.918 1.935 2.212 3.428 3.881 4.48 1.68 1.04 3.591 1.56 5.731 1.56 2.164 0 4.074-.52 5.731-1.56 1.668-1.052 2.95-2.551 3.845-4.498zm-4.915-14.926c1.112 1.56 1.668 3.803 1.668 6.729v1.378c0 2.974-.55 5.235-1.65 6.783-1.088 1.547-2.648 2.321-4.679 2.321-2.007 0-3.579-.792-4.716-2.376-1.124-1.584-1.686-3.826-1.686-6.728v-1.524c.024-2.841.592-5.035 1.704-6.583 1.125-1.56 2.679-2.34 4.661-2.34 2.032 0 3.597.78 4.698 2.34z" fill="red"/><path fill-rule="evenodd" clip-rule="evenodd" d="M347.968 56.21c.894-1.959 1.342-4.232 1.342-6.82v-1.468c-.012-2.576-.472-4.83-1.379-6.765-.906-1.947-2.194-3.434-3.863-4.461-1.656-1.04-3.56-1.56-5.713-1.56-2.152 0-4.062.526-5.731 1.578-1.656 1.04-2.944 2.545-3.863 4.516-.906 1.97-1.36 4.243-1.36 6.819v1.487c.012 2.527.472 4.758 1.379 6.692.918 1.935 2.212 3.428 3.881 4.48 1.68 1.04 3.591 1.56 5.731 1.56 2.164 0 4.074-.52 5.731-1.56 1.668-1.052 2.95-2.551 3.845-4.498zm-4.915-14.926c1.112 1.56 1.668 3.803 1.668 6.729v1.378c0 2.974-.55 5.235-1.65 6.783-1.088 1.547-2.648 2.321-4.679 2.321-2.007 0-3.579-.792-4.716-2.376-1.124-1.584-1.686-3.826-1.686-6.728v-1.524c.024-2.841.592-5.035 1.704-6.583 1.125-1.56 2.679-2.34 4.661-2.34 2.032 0 3.597.78 4.698 2.34z" fill="#183646"/><path fill-rule="evenodd" clip-rule="evenodd" d="M347.968 56.21c.894-1.959 1.342-4.232 1.342-6.82v-1.468c-.012-2.576-.472-4.83-1.379-6.765-.906-1.947-2.194-3.434-3.863-4.461-1.656-1.04-3.56-1.56-5.713-1.56-2.152 0-4.062.526-5.731 1.578-1.656 1.04-2.944 2.545-3.863 4.516-.906 1.97-1.36 4.243-1.36 6.819v1.487c.012 2.527.472 4.758 1.379 6.692.918 1.935 2.212 3.428 3.881 4.48 1.68 1.04 3.591 1.56 5.731 1.56 2.164 0 4.074-.52 5.731-1.56 1.668-1.052 2.95-2.551 3.845-4.498zm-4.915-14.926c1.112 1.56 1.668 3.803 1.668 6.729v1.378c0 2.974-.55 5.235-1.65 6.783-1.088 1.547-2.648 2.321-4.679 2.321-2.007 0-3.579-.792-4.716-2.376-1.124-1.584-1.686-3.826-1.686-6.728v-1.524c.024-2.841.592-5.035 1.704-6.583 1.125-1.56 2.679-2.34 4.661-2.34 2.032 0 3.597.78 4.698 2.34z" fill="#005B8B"/><path fill-rule="evenodd" clip-rule="evenodd" d="M347.968 56.21c.894-1.959 1.342-4.232 1.342-6.82v-1.468c-.012-2.576-.472-4.83-1.379-6.765-.906-1.947-2.194-3.434-3.863-4.461-1.656-1.04-3.56-1.56-5.713-1.56-2.152 0-4.062.526-5.731 1.578-1.656 1.04-2.944 2.545-3.863 4.516-.906 1.97-1.36 4.243-1.36 6.819v1.487c.012 2.527.472 4.758 1.379 6.692.918 1.935 2.212 3.428 3.881 4.48 1.68 1.04 3.591 1.56 5.731 1.56 2.164 0 4.074-.52 5.731-1.56 1.668-1.052 2.95-2.551 3.845-4.498zm-4.915-14.926c1.112 1.56 1.668 3.803 1.668 6.729v1.378c0 2.974-.55 5.235-1.65 6.783-1.088 1.547-2.648 2.321-4.679 2.321-2.007 0-3.579-.792-4.716-2.376-1.124-1.584-1.686-3.826-1.686-6.728v-1.524c.024-2.841.592-5.035 1.704-6.583 1.125-1.56 2.679-2.34 4.661-2.34 2.032 0 3.597.78 4.698 2.34z" fill="url(#paint12_linear_520_6565)"/><path d="M372.206 52.42c.822.628 1.233 1.523 1.233 2.684 0 1.064-.405 1.922-1.215 2.575-.798.64-1.995.961-3.591.961-1.85 0-3.271-.41-4.262-1.233-.992-.822-1.487-1.983-1.487-3.482h-4.589c0 1.656.441 3.107 1.324 4.353.895 1.245 2.14 2.224 3.736 2.938 1.608.7 3.367 1.051 5.278 1.051 2.889 0 5.175-.646 6.855-1.94 1.693-1.306 2.539-3.059 2.539-5.26 0-1.354-.29-2.533-.87-3.536-.581-1.016-1.494-1.91-2.739-2.684-1.245-.786-2.896-1.481-4.951-2.086-2.055-.617-3.531-1.245-4.425-1.886-.895-.653-1.342-1.463-1.342-2.43 0-1.149.411-2.044 1.233-2.684.834-.641 2.001-.962 3.5-.962 1.608 0 2.842.393 3.7 1.18.871.773 1.306 1.849 1.306 3.227h4.57c0-1.523-.411-2.908-1.233-4.153-.822-1.257-1.953-2.224-3.392-2.902-1.438-.677-3.077-1.015-4.915-1.015-2.768 0-5.023.689-6.764 2.067-1.729 1.379-2.594 3.132-2.594 5.26 0 2.43 1.203 4.4 3.609 5.912 1.258.786 2.95 1.5 5.078 2.14 2.128.641 3.597 1.276 4.408 1.905z" fill="#000"/><path d="M372.206 52.42c.822.628 1.233 1.523 1.233 2.684 0 1.064-.405 1.922-1.215 2.575-.798.64-1.995.961-3.591.961-1.85 0-3.271-.41-4.262-1.233-.992-.822-1.487-1.983-1.487-3.482h-4.589c0 1.656.441 3.107 1.324 4.353.895 1.245 2.14 2.224 3.736 2.938 1.608.7 3.367 1.051 5.278 1.051 2.889 0 5.175-.646 6.855-1.94 1.693-1.306 2.539-3.059 2.539-5.26 0-1.354-.29-2.533-.87-3.536-.581-1.016-1.494-1.91-2.739-2.684-1.245-.786-2.896-1.481-4.951-2.086-2.055-.617-3.531-1.245-4.425-1.886-.895-.653-1.342-1.463-1.342-2.43 0-1.149.411-2.044 1.233-2.684.834-.641 2.001-.962 3.5-.962 1.608 0 2.842.393 3.7 1.18.871.773 1.306 1.849 1.306 3.227h4.57c0-1.523-.411-2.908-1.233-4.153-.822-1.257-1.953-2.224-3.392-2.902-1.438-.677-3.077-1.015-4.915-1.015-2.768 0-5.023.689-6.764 2.067-1.729 1.379-2.594 3.132-2.594 5.26 0 2.43 1.203 4.4 3.609 5.912 1.258.786 2.95 1.5 5.078 2.14 2.128.641 3.597 1.276 4.408 1.905z" fill="#062633"/><path d="M372.206 52.42c.822.628 1.233 1.523 1.233 2.684 0 1.064-.405 1.922-1.215 2.575-.798.64-1.995.961-3.591.961-1.85 0-3.271-.41-4.262-1.233-.992-.822-1.487-1.983-1.487-3.482h-4.589c0 1.656.441 3.107 1.324 4.353.895 1.245 2.14 2.224 3.736 2.938 1.608.7 3.367 1.051 5.278 1.051 2.889 0 5.175-.646 6.855-1.94 1.693-1.306 2.539-3.059 2.539-5.26 0-1.354-.29-2.533-.87-3.536-.581-1.016-1.494-1.91-2.739-2.684-1.245-.786-2.896-1.481-4.951-2.086-2.055-.617-3.531-1.245-4.425-1.886-.895-.653-1.342-1.463-1.342-2.43 0-1.149.411-2.044 1.233-2.684.834-.641 2.001-.962 3.5-.962 1.608 0 2.842.393 3.7 1.18.871.773 1.306 1.849 1.306 3.227h4.57c0-1.523-.411-2.908-1.233-4.153-.822-1.257-1.953-2.224-3.392-2.902-1.438-.677-3.077-1.015-4.915-1.015-2.768 0-5.023.689-6.764 2.067-1.729 1.379-2.594 3.132-2.594 5.26 0 2.43 1.203 4.4 3.609 5.912 1.258.786 2.95 1.5 5.078 2.14 2.128.641 3.597 1.276 4.408 1.905z" fill="#226180"/><path d="M372.206 52.42c.822.628 1.233 1.523 1.233 2.684 0 1.064-.405 1.922-1.215 2.575-.798.64-1.995.961-3.591.961-1.85 0-3.271-.41-4.262-1.233-.992-.822-1.487-1.983-1.487-3.482h-4.589c0 1.656.441 3.107 1.324 4.353.895 1.245 2.14 2.224 3.736 2.938 1.608.7 3.367 1.051 5.278 1.051 2.889 0 5.175-.646 6.855-1.94 1.693-1.306 2.539-3.059 2.539-5.26 0-1.354-.29-2.533-.87-3.536-.581-1.016-1.494-1.91-2.739-2.684-1.245-.786-2.896-1.481-4.951-2.086-2.055-.617-3.531-1.245-4.425-1.886-.895-.653-1.342-1.463-1.342-2.43 0-1.149.411-2.044 1.233-2.684.834-.641 2.001-.962 3.5-.962 1.608 0 2.842.393 3.7 1.18.871.773 1.306 1.849 1.306 3.227h4.57c0-1.523-.411-2.908-1.233-4.153-.822-1.257-1.953-2.224-3.392-2.902-1.438-.677-3.077-1.015-4.915-1.015-2.768 0-5.023.689-6.764 2.067-1.729 1.379-2.594 3.132-2.594 5.26 0 2.43 1.203 4.4 3.609 5.912 1.258.786 2.95 1.5 5.078 2.14 2.128.641 3.597 1.276 4.408 1.905z" fill="red"/><path d="M372.206 52.42c.822.628 1.233 1.523 1.233 2.684 0 1.064-.405 1.922-1.215 2.575-.798.64-1.995.961-3.591.961-1.85 0-3.271-.41-4.262-1.233-.992-.822-1.487-1.983-1.487-3.482h-4.589c0 1.656.441 3.107 1.324 4.353.895 1.245 2.14 2.224 3.736 2.938 1.608.7 3.367 1.051 5.278 1.051 2.889 0 5.175-.646 6.855-1.94 1.693-1.306 2.539-3.059 2.539-5.26 0-1.354-.29-2.533-.87-3.536-.581-1.016-1.494-1.91-2.739-2.684-1.245-.786-2.896-1.481-4.951-2.086-2.055-.617-3.531-1.245-4.425-1.886-.895-.653-1.342-1.463-1.342-2.43 0-1.149.411-2.044 1.233-2.684.834-.641 2.001-.962 3.5-.962 1.608 0 2.842.393 3.7 1.18.871.773 1.306 1.849 1.306 3.227h4.57c0-1.523-.411-2.908-1.233-4.153-.822-1.257-1.953-2.224-3.392-2.902-1.438-.677-3.077-1.015-4.915-1.015-2.768 0-5.023.689-6.764 2.067-1.729 1.379-2.594 3.132-2.594 5.26 0 2.43 1.203 4.4 3.609 5.912 1.258.786 2.95 1.5 5.078 2.14 2.128.641 3.597 1.276 4.408 1.905z" fill="#183646"/><path d="M372.206 52.42c.822.628 1.233 1.523 1.233 2.684 0 1.064-.405 1.922-1.215 2.575-.798.64-1.995.961-3.591.961-1.85 0-3.271-.41-4.262-1.233-.992-.822-1.487-1.983-1.487-3.482h-4.589c0 1.656.441 3.107 1.324 4.353.895 1.245 2.14 2.224 3.736 2.938 1.608.7 3.367 1.051 5.278 1.051 2.889 0 5.175-.646 6.855-1.94 1.693-1.306 2.539-3.059 2.539-5.26 0-1.354-.29-2.533-.87-3.536-.581-1.016-1.494-1.91-2.739-2.684-1.245-.786-2.896-1.481-4.951-2.086-2.055-.617-3.531-1.245-4.425-1.886-.895-.653-1.342-1.463-1.342-2.43 0-1.149.411-2.044 1.233-2.684.834-.641 2.001-.962 3.5-.962 1.608 0 2.842.393 3.7 1.18.871.773 1.306 1.849 1.306 3.227h4.57c0-1.523-.411-2.908-1.233-4.153-.822-1.257-1.953-2.224-3.392-2.902-1.438-.677-3.077-1.015-4.915-1.015-2.768 0-5.023.689-6.764 2.067-1.729 1.379-2.594 3.132-2.594 5.26 0 2.43 1.203 4.4 3.609 5.912 1.258.786 2.95 1.5 5.078 2.14 2.128.641 3.597 1.276 4.408 1.905z" fill="#005B8B"/><path d="M372.206 52.42c.822.628 1.233 1.523 1.233 2.684 0 1.064-.405 1.922-1.215 2.575-.798.64-1.995.961-3.591.961-1.85 0-3.271-.41-4.262-1.233-.992-.822-1.487-1.983-1.487-3.482h-4.589c0 1.656.441 3.107 1.324 4.353.895 1.245 2.14 2.224 3.736 2.938 1.608.7 3.367 1.051 5.278 1.051 2.889 0 5.175-.646 6.855-1.94 1.693-1.306 2.539-3.059 2.539-5.26 0-1.354-.29-2.533-.87-3.536-.581-1.016-1.494-1.91-2.739-2.684-1.245-.786-2.896-1.481-4.951-2.086-2.055-.617-3.531-1.245-4.425-1.886-.895-.653-1.342-1.463-1.342-2.43 0-1.149.411-2.044 1.233-2.684.834-.641 2.001-.962 3.5-.962 1.608 0 2.842.393 3.7 1.18.871.773 1.306 1.849 1.306 3.227h4.57c0-1.523-.411-2.908-1.233-4.153-.822-1.257-1.953-2.224-3.392-2.902-1.438-.677-3.077-1.015-4.915-1.015-2.768 0-5.023.689-6.764 2.067-1.729 1.379-2.594 3.132-2.594 5.26 0 2.43 1.203 4.4 3.609 5.912 1.258.786 2.95 1.5 5.078 2.14 2.128.641 3.597 1.276 4.408 1.905z" fill="url(#paint13_linear_520_6565)"/><path d="M398.656 39.198h8.234v-3.7h-20.947v3.7h8.161v22.707h4.552V39.198z" fill="#000"/><path d="M398.656 39.198h8.234v-3.7h-20.947v3.7h8.161v22.707h4.552V39.198z" fill="#062633"/><path d="M398.656 39.198h8.234v-3.7h-20.947v3.7h8.161v22.707h4.552V39.198z" fill="#226180"/><path d="M398.656 39.198h8.234v-3.7h-20.947v3.7h8.161v22.707h4.552V39.198z" fill="red"/><path d="M398.656 39.198h8.234v-3.7h-20.947v3.7h8.161v22.707h4.552V39.198z" fill="#183646"/><path d="M398.656 39.198h8.234v-3.7h-20.947v3.7h8.161v22.707h4.552V39.198z" fill="#005B8B"/><path d="M398.656 39.198h8.234v-3.7h-20.947v3.7h8.161v22.707h4.552V39.198z" fill="url(#paint14_linear_520_6565)"/><path d="M87.897 17.907a195.523 195.523 0 00-1.563-4.36A169.026 169.026 0 0084.9 9.764c-.47-1.197-.941-2.344-1.412-3.441a129.376 129.376 0 00-1.412-3.228h-1.948a219.742 219.742 0 00-1.434 3.228 400.858 400.858 0 00-1.412 3.44 271.558 271.558 0 00-1.455 3.784c-.5 1.339-1.013 2.792-1.541 4.36h2.29c.77-2.252 1.526-4.417 2.268-6.498a98.872 98.872 0 012.29-5.856 94.317 94.317 0 012.29 5.835c.742 2.094 1.49 4.267 2.247 6.519h2.226z" fill="#000"/><path d="M87.897 17.907a195.523 195.523 0 00-1.563-4.36A169.026 169.026 0 0084.9 9.764c-.47-1.197-.941-2.344-1.412-3.441a129.376 129.376 0 00-1.412-3.228h-1.948a219.742 219.742 0 00-1.434 3.228 400.858 400.858 0 00-1.412 3.44 271.558 271.558 0 00-1.455 3.784c-.5 1.339-1.013 2.792-1.541 4.36h2.29c.77-2.252 1.526-4.417 2.268-6.498a98.872 98.872 0 012.29-5.856 94.317 94.317 0 012.29 5.835c.742 2.094 1.49 4.267 2.247 6.519h2.226z" fill="#062633"/><path d="M87.897 17.907a195.523 195.523 0 00-1.563-4.36A169.026 169.026 0 0084.9 9.764c-.47-1.197-.941-2.344-1.412-3.441a129.376 129.376 0 00-1.412-3.228h-1.948a219.742 219.742 0 00-1.434 3.228 400.858 400.858 0 00-1.412 3.44 271.558 271.558 0 00-1.455 3.784c-.5 1.339-1.013 2.792-1.541 4.36h2.29c.77-2.252 1.526-4.417 2.268-6.498a98.872 98.872 0 012.29-5.856 94.317 94.317 0 012.29 5.835c.742 2.094 1.49 4.267 2.247 6.519h2.226z" fill="#226180"/><path d="M87.897 17.907a195.523 195.523 0 00-1.563-4.36A169.026 169.026 0 0084.9 9.764c-.47-1.197-.941-2.344-1.412-3.441a129.376 129.376 0 00-1.412-3.228h-1.948a219.742 219.742 0 00-1.434 3.228 400.858 400.858 0 00-1.412 3.44 271.558 271.558 0 00-1.455 3.784c-.5 1.339-1.013 2.792-1.541 4.36h2.29c.77-2.252 1.526-4.417 2.268-6.498a98.872 98.872 0 012.29-5.856 94.317 94.317 0 012.29 5.835c.742 2.094 1.49 4.267 2.247 6.519h2.226z" fill="red"/><path d="M87.897 17.907a195.523 195.523 0 00-1.563-4.36A169.026 169.026 0 0084.9 9.764c-.47-1.197-.941-2.344-1.412-3.441a129.376 129.376 0 00-1.412-3.228h-1.948a219.742 219.742 0 00-1.434 3.228 400.858 400.858 0 00-1.412 3.44 271.558 271.558 0 00-1.455 3.784c-.5 1.339-1.013 2.792-1.541 4.36h2.29c.77-2.252 1.526-4.417 2.268-6.498a98.872 98.872 0 012.29-5.856 94.317 94.317 0 012.29 5.835c.742 2.094 1.49 4.267 2.247 6.519h2.226z" fill="#183646"/><path d="M87.897 17.907a195.523 195.523 0 00-1.563-4.36A169.026 169.026 0 0084.9 9.764c-.47-1.197-.941-2.344-1.412-3.441a129.376 129.376 0 00-1.412-3.228h-1.948a219.742 219.742 0 00-1.434 3.228 400.858 400.858 0 00-1.412 3.44 271.558 271.558 0 00-1.455 3.784c-.5 1.339-1.013 2.792-1.541 4.36h2.29c.77-2.252 1.526-4.417 2.268-6.498a98.872 98.872 0 012.29-5.856 94.317 94.317 0 012.29 5.835c.742 2.094 1.49 4.267 2.247 6.519h2.226z" fill="#005B8B"/><path d="M87.897 17.907a195.523 195.523 0 00-1.563-4.36A169.026 169.026 0 0084.9 9.764c-.47-1.197-.941-2.344-1.412-3.441a129.376 129.376 0 00-1.412-3.228h-1.948a219.742 219.742 0 00-1.434 3.228 400.858 400.858 0 00-1.412 3.44 271.558 271.558 0 00-1.455 3.784c-.5 1.339-1.013 2.792-1.541 4.36h2.29c.77-2.252 1.526-4.417 2.268-6.498a98.872 98.872 0 012.29-5.856 94.317 94.317 0 012.29 5.835c.742 2.094 1.49 4.267 2.247 6.519h2.226z" fill="url(#paint15_linear_520_6565)"/><path d="M201.123 13.547c.499 1.339 1.02 2.792 1.562 4.36h-2.226a418.783 418.783 0 00-2.247-6.52 94.838 94.838 0 00-2.289-5.834 98.049 98.049 0 00-2.29 5.856 528.237 528.237 0 00-2.269 6.498h-2.289a142.743 142.743 0 011.54-4.36c.499-1.326.985-2.587 1.455-3.783.485-1.197.956-2.344 1.413-3.441.471-1.083.948-2.16 1.434-3.228h1.947a128.62 128.62 0 011.413 3.228c.47 1.097.941 2.244 1.412 3.44a168.04 168.04 0 011.434 3.784z" fill="#000"/><path d="M201.123 13.547c.499 1.339 1.02 2.792 1.562 4.36h-2.226a418.783 418.783 0 00-2.247-6.52 94.838 94.838 0 00-2.289-5.834 98.049 98.049 0 00-2.29 5.856 528.237 528.237 0 00-2.269 6.498h-2.289a142.743 142.743 0 011.54-4.36c.499-1.326.985-2.587 1.455-3.783.485-1.197.956-2.344 1.413-3.441.471-1.083.948-2.16 1.434-3.228h1.947a128.62 128.62 0 011.413 3.228c.47 1.097.941 2.244 1.412 3.44a168.04 168.04 0 011.434 3.784z" fill="#062633"/><path d="M201.123 13.547c.499 1.339 1.02 2.792 1.562 4.36h-2.226a418.783 418.783 0 00-2.247-6.52 94.838 94.838 0 00-2.289-5.834 98.049 98.049 0 00-2.29 5.856 528.237 528.237 0 00-2.269 6.498h-2.289a142.743 142.743 0 011.54-4.36c.499-1.326.985-2.587 1.455-3.783.485-1.197.956-2.344 1.413-3.441.471-1.083.948-2.16 1.434-3.228h1.947a128.62 128.62 0 011.413 3.228c.47 1.097.941 2.244 1.412 3.44a168.04 168.04 0 011.434 3.784z" fill="#226180"/><path d="M201.123 13.547c.499 1.339 1.02 2.792 1.562 4.36h-2.226a418.783 418.783 0 00-2.247-6.52 94.838 94.838 0 00-2.289-5.834 98.049 98.049 0 00-2.29 5.856 528.237 528.237 0 00-2.269 6.498h-2.289a142.743 142.743 0 011.54-4.36c.499-1.326.985-2.587 1.455-3.783.485-1.197.956-2.344 1.413-3.441.471-1.083.948-2.16 1.434-3.228h1.947a128.62 128.62 0 011.413 3.228c.47 1.097.941 2.244 1.412 3.44a168.04 168.04 0 011.434 3.784z" fill="red"/><path d="M201.123 13.547c.499 1.339 1.02 2.792 1.562 4.36h-2.226a418.783 418.783 0 00-2.247-6.52 94.838 94.838 0 00-2.289-5.834 98.049 98.049 0 00-2.29 5.856 528.237 528.237 0 00-2.269 6.498h-2.289a142.743 142.743 0 011.54-4.36c.499-1.326.985-2.587 1.455-3.783.485-1.197.956-2.344 1.413-3.441.471-1.083.948-2.16 1.434-3.228h1.947a128.62 128.62 0 011.413 3.228c.47 1.097.941 2.244 1.412 3.44a168.04 168.04 0 011.434 3.784z" fill="#183646"/><path d="M201.123 13.547c.499 1.339 1.02 2.792 1.562 4.36h-2.226a418.783 418.783 0 00-2.247-6.52 94.838 94.838 0 00-2.289-5.834 98.049 98.049 0 00-2.29 5.856 528.237 528.237 0 00-2.269 6.498h-2.289a142.743 142.743 0 011.54-4.36c.499-1.326.985-2.587 1.455-3.783.485-1.197.956-2.344 1.413-3.441.471-1.083.948-2.16 1.434-3.228h1.947a128.62 128.62 0 011.413 3.228c.47 1.097.941 2.244 1.412 3.44a168.04 168.04 0 011.434 3.784z" fill="#005B8B"/><path d="M201.123 13.547c.499 1.339 1.02 2.792 1.562 4.36h-2.226a418.783 418.783 0 00-2.247-6.52 94.838 94.838 0 00-2.289-5.834 98.049 98.049 0 00-2.29 5.856 528.237 528.237 0 00-2.269 6.498h-2.289a142.743 142.743 0 011.54-4.36c.499-1.326.985-2.587 1.455-3.783.485-1.197.956-2.344 1.413-3.441.471-1.083.948-2.16 1.434-3.228h1.947a128.62 128.62 0 011.413 3.228c.47 1.097.941 2.244 1.412 3.44a168.04 168.04 0 011.434 3.784z" fill="url(#paint16_linear_520_6565)"/><path d="M226.569 18.572c-.97 0-1.811-.15-2.525-.45-.713-.299-1.298-.705-1.755-1.218a5.252 5.252 0 01-1.027-1.86 7.987 7.987 0 01-.321-2.307V3.44h2.076v9.062c0 1.481.328 2.557.984 3.227.656.67 1.512 1.005 2.568 1.005a4.15 4.15 0 001.434-.236c.442-.17.821-.427 1.135-.77.313-.34.556-.776.727-1.303.171-.541.257-1.182.257-1.923V3.44h2.076v9.297c0 .826-.114 1.596-.342 2.308a4.854 4.854 0 01-1.028 1.86c-.457.512-1.042.918-1.755 1.218-.699.299-1.534.448-2.504.448z" fill="#000"/><path d="M226.569 18.572c-.97 0-1.811-.15-2.525-.45-.713-.299-1.298-.705-1.755-1.218a5.252 5.252 0 01-1.027-1.86 7.987 7.987 0 01-.321-2.307V3.44h2.076v9.062c0 1.481.328 2.557.984 3.227.656.67 1.512 1.005 2.568 1.005a4.15 4.15 0 001.434-.236c.442-.17.821-.427 1.135-.77.313-.34.556-.776.727-1.303.171-.541.257-1.182.257-1.923V3.44h2.076v9.297c0 .826-.114 1.596-.342 2.308a4.854 4.854 0 01-1.028 1.86c-.457.512-1.042.918-1.755 1.218-.699.299-1.534.448-2.504.448z" fill="#062633"/><path d="M226.569 18.572c-.97 0-1.811-.15-2.525-.45-.713-.299-1.298-.705-1.755-1.218a5.252 5.252 0 01-1.027-1.86 7.987 7.987 0 01-.321-2.307V3.44h2.076v9.062c0 1.481.328 2.557.984 3.227.656.67 1.512 1.005 2.568 1.005a4.15 4.15 0 001.434-.236c.442-.17.821-.427 1.135-.77.313-.34.556-.776.727-1.303.171-.541.257-1.182.257-1.923V3.44h2.076v9.297c0 .826-.114 1.596-.342 2.308a4.854 4.854 0 01-1.028 1.86c-.457.512-1.042.918-1.755 1.218-.699.299-1.534.448-2.504.448z" fill="#226180"/><path d="M226.569 18.572c-.97 0-1.811-.15-2.525-.45-.713-.299-1.298-.705-1.755-1.218a5.252 5.252 0 01-1.027-1.86 7.987 7.987 0 01-.321-2.307V3.44h2.076v9.062c0 1.481.328 2.557.984 3.227.656.67 1.512 1.005 2.568 1.005a4.15 4.15 0 001.434-.236c.442-.17.821-.427 1.135-.77.313-.34.556-.776.727-1.303.171-.541.257-1.182.257-1.923V3.44h2.076v9.297c0 .826-.114 1.596-.342 2.308a4.854 4.854 0 01-1.028 1.86c-.457.512-1.042.918-1.755 1.218-.699.299-1.534.448-2.504.448z" fill="red"/><path d="M226.569 18.572c-.97 0-1.811-.15-2.525-.45-.713-.299-1.298-.705-1.755-1.218a5.252 5.252 0 01-1.027-1.86 7.987 7.987 0 01-.321-2.307V3.44h2.076v9.062c0 1.481.328 2.557.984 3.227.656.67 1.512 1.005 2.568 1.005a4.15 4.15 0 001.434-.236c.442-.17.821-.427 1.135-.77.313-.34.556-.776.727-1.303.171-.541.257-1.182.257-1.923V3.44h2.076v9.297c0 .826-.114 1.596-.342 2.308a4.854 4.854 0 01-1.028 1.86c-.457.512-1.042.918-1.755 1.218-.699.299-1.534.448-2.504.448z" fill="#183646"/><path d="M226.569 18.572c-.97 0-1.811-.15-2.525-.45-.713-.299-1.298-.705-1.755-1.218a5.252 5.252 0 01-1.027-1.86 7.987 7.987 0 01-.321-2.307V3.44h2.076v9.062c0 1.481.328 2.557.984 3.227.656.67 1.512 1.005 2.568 1.005a4.15 4.15 0 001.434-.236c.442-.17.821-.427 1.135-.77.313-.34.556-.776.727-1.303.171-.541.257-1.182.257-1.923V3.44h2.076v9.297c0 .826-.114 1.596-.342 2.308a4.854 4.854 0 01-1.028 1.86c-.457.512-1.042.918-1.755 1.218-.699.299-1.534.448-2.504.448z" fill="#005B8B"/><path d="M226.569 18.572c-.97 0-1.811-.15-2.525-.45-.713-.299-1.298-.705-1.755-1.218a5.252 5.252 0 01-1.027-1.86 7.987 7.987 0 01-.321-2.307V3.44h2.076v9.062c0 1.481.328 2.557.984 3.227.656.67 1.512 1.005 2.568 1.005a4.15 4.15 0 001.434-.236c.442-.17.821-.427 1.135-.77.313-.34.556-.776.727-1.303.171-.541.257-1.182.257-1.923V3.44h2.076v9.297c0 .826-.114 1.596-.342 2.308a4.854 4.854 0 01-1.028 1.86c-.457.512-1.042.918-1.755 1.218-.699.299-1.534.448-2.504.448z" fill="url(#paint17_linear_520_6565)"/><path d="M115.19 18.251v-1.795h-6.848V3.44h-2.076v14.81h8.924z" fill="#000"/><path d="M115.19 18.251v-1.795h-6.848V3.44h-2.076v14.81h8.924z" fill="#062633"/><path d="M115.19 18.251v-1.795h-6.848V3.44h-2.076v14.81h8.924z" fill="#226180"/><path d="M115.19 18.251v-1.795h-6.848V3.44h-2.076v14.81h8.924z" fill="red"/><path d="M115.19 18.251v-1.795h-6.848V3.44h-2.076v14.81h8.924z" fill="#183646"/><path d="M115.19 18.251v-1.795h-6.848V3.44h-2.076v14.81h8.924z" fill="#005B8B"/><path d="M115.19 18.251v-1.795h-6.848V3.44h-2.076v14.81h8.924z" fill="url(#paint18_linear_520_6565)"/><path d="M142.425 16.456v1.795h-8.924V3.44h2.076v13.016h6.848z" fill="#000"/><path d="M142.425 16.456v1.795h-8.924V3.44h2.076v13.016h6.848z" fill="#062633"/><path d="M142.425 16.456v1.795h-8.924V3.44h2.076v13.016h6.848z" fill="#226180"/><path d="M142.425 16.456v1.795h-8.924V3.44h2.076v13.016h6.848z" fill="red"/><path d="M142.425 16.456v1.795h-8.924V3.44h2.076v13.016h6.848z" fill="#183646"/><path d="M142.425 16.456v1.795h-8.924V3.44h2.076v13.016h6.848z" fill="#005B8B"/><path d="M142.425 16.456v1.795h-8.924V3.44h2.076v13.016h6.848z" fill="url(#paint19_linear_520_6565)"/><path fill-rule="evenodd" clip-rule="evenodd" d="M163.758 18.357c.357.014.685.021.984.021 2.369 0 4.095-.37 5.179-1.111 1.099-.755 1.648-1.874 1.648-3.356 0-1.011-.256-1.795-.77-2.35-.514-.556-1.206-.963-2.076-1.219.642-.257 1.156-.641 1.541-1.154.385-.527.578-1.197.578-2.01 0-.726-.157-1.339-.471-1.837a3.42 3.42 0 00-1.306-1.197c-.542-.314-1.191-.535-1.947-.663a14.093 14.093 0 00-2.397-.192 27.33 27.33 0 00-2.012.086c-.342.028-.685.064-1.027.106-.342.043-.656.1-.941.171v14.363c.285.071.599.128.941.17a24.989 24.989 0 002.076.172zm-.963-1.796v-5.214h2.675a9.44 9.44 0 011.626.128 3.75 3.75 0 011.242.427c.357.2.628.47.813.812.185.328.278.734.278 1.219 0 .541-.128.99-.385 1.346a2.45 2.45 0 01-.985.834c-.413.2-.898.342-1.455.427a13.36 13.36 0 01-1.733.107h-.878a34.988 34.988 0 01-.641-.043c-.215-.014-.4-.028-.557-.043zm2.183-6.882h-2.183V5.106c.242-.029.513-.05.813-.064.3-.015.714-.022 1.241-.022.528 0 1.028.043 1.498.128.471.086.878.221 1.22.407.357.17.635.406.835.705.2.285.3.641.3 1.068 0 .456-.1.834-.3 1.133-.185.3-.45.541-.792.727a3.468 3.468 0 01-1.177.385 9.404 9.404 0 01-1.455.106z" fill="#000"/><path fill-rule="evenodd" clip-rule="evenodd" d="M163.758 18.357c.357.014.685.021.984.021 2.369 0 4.095-.37 5.179-1.111 1.099-.755 1.648-1.874 1.648-3.356 0-1.011-.256-1.795-.77-2.35-.514-.556-1.206-.963-2.076-1.219.642-.257 1.156-.641 1.541-1.154.385-.527.578-1.197.578-2.01 0-.726-.157-1.339-.471-1.837a3.42 3.42 0 00-1.306-1.197c-.542-.314-1.191-.535-1.947-.663a14.093 14.093 0 00-2.397-.192 27.33 27.33 0 00-2.012.086c-.342.028-.685.064-1.027.106-.342.043-.656.1-.941.171v14.363c.285.071.599.128.941.17a24.989 24.989 0 002.076.172zm-.963-1.796v-5.214h2.675a9.44 9.44 0 011.626.128 3.75 3.75 0 011.242.427c.357.2.628.47.813.812.185.328.278.734.278 1.219 0 .541-.128.99-.385 1.346a2.45 2.45 0 01-.985.834c-.413.2-.898.342-1.455.427a13.36 13.36 0 01-1.733.107h-.878a34.988 34.988 0 01-.641-.043c-.215-.014-.4-.028-.557-.043zm2.183-6.882h-2.183V5.106c.242-.029.513-.05.813-.064.3-.015.714-.022 1.241-.022.528 0 1.028.043 1.498.128.471.086.878.221 1.22.407.357.17.635.406.835.705.2.285.3.641.3 1.068 0 .456-.1.834-.3 1.133-.185.3-.45.541-.792.727a3.468 3.468 0 01-1.177.385 9.404 9.404 0 01-1.455.106z" fill="#062633"/><path fill-rule="evenodd" clip-rule="evenodd" d="M163.758 18.357c.357.014.685.021.984.021 2.369 0 4.095-.37 5.179-1.111 1.099-.755 1.648-1.874 1.648-3.356 0-1.011-.256-1.795-.77-2.35-.514-.556-1.206-.963-2.076-1.219.642-.257 1.156-.641 1.541-1.154.385-.527.578-1.197.578-2.01 0-.726-.157-1.339-.471-1.837a3.42 3.42 0 00-1.306-1.197c-.542-.314-1.191-.535-1.947-.663a14.093 14.093 0 00-2.397-.192 27.33 27.33 0 00-2.012.086c-.342.028-.685.064-1.027.106-.342.043-.656.1-.941.171v14.363c.285.071.599.128.941.17a24.989 24.989 0 002.076.172zm-.963-1.796v-5.214h2.675a9.44 9.44 0 011.626.128 3.75 3.75 0 011.242.427c.357.2.628.47.813.812.185.328.278.734.278 1.219 0 .541-.128.99-.385 1.346a2.45 2.45 0 01-.985.834c-.413.2-.898.342-1.455.427a13.36 13.36 0 01-1.733.107h-.878a34.988 34.988 0 01-.641-.043c-.215-.014-.4-.028-.557-.043zm2.183-6.882h-2.183V5.106c.242-.029.513-.05.813-.064.3-.015.714-.022 1.241-.022.528 0 1.028.043 1.498.128.471.086.878.221 1.22.407.357.17.635.406.835.705.2.285.3.641.3 1.068 0 .456-.1.834-.3 1.133-.185.3-.45.541-.792.727a3.468 3.468 0 01-1.177.385 9.404 9.404 0 01-1.455.106z" fill="#226180"/><path fill-rule="evenodd" clip-rule="evenodd" d="M163.758 18.357c.357.014.685.021.984.021 2.369 0 4.095-.37 5.179-1.111 1.099-.755 1.648-1.874 1.648-3.356 0-1.011-.256-1.795-.77-2.35-.514-.556-1.206-.963-2.076-1.219.642-.257 1.156-.641 1.541-1.154.385-.527.578-1.197.578-2.01 0-.726-.157-1.339-.471-1.837a3.42 3.42 0 00-1.306-1.197c-.542-.314-1.191-.535-1.947-.663a14.093 14.093 0 00-2.397-.192 27.33 27.33 0 00-2.012.086c-.342.028-.685.064-1.027.106-.342.043-.656.1-.941.171v14.363c.285.071.599.128.941.17a24.989 24.989 0 002.076.172zm-.963-1.796v-5.214h2.675a9.44 9.44 0 011.626.128 3.75 3.75 0 011.242.427c.357.2.628.47.813.812.185.328.278.734.278 1.219 0 .541-.128.99-.385 1.346a2.45 2.45 0 01-.985.834c-.413.2-.898.342-1.455.427a13.36 13.36 0 01-1.733.107h-.878a34.988 34.988 0 01-.641-.043c-.215-.014-.4-.028-.557-.043zm2.183-6.882h-2.183V5.106c.242-.029.513-.05.813-.064.3-.015.714-.022 1.241-.022.528 0 1.028.043 1.498.128.471.086.878.221 1.22.407.357.17.635.406.835.705.2.285.3.641.3 1.068 0 .456-.1.834-.3 1.133-.185.3-.45.541-.792.727a3.468 3.468 0 01-1.177.385 9.404 9.404 0 01-1.455.106z" fill="red"/><path fill-rule="evenodd" clip-rule="evenodd" d="M163.758 18.357c.357.014.685.021.984.021 2.369 0 4.095-.37 5.179-1.111 1.099-.755 1.648-1.874 1.648-3.356 0-1.011-.256-1.795-.77-2.35-.514-.556-1.206-.963-2.076-1.219.642-.257 1.156-.641 1.541-1.154.385-.527.578-1.197.578-2.01 0-.726-.157-1.339-.471-1.837a3.42 3.42 0 00-1.306-1.197c-.542-.314-1.191-.535-1.947-.663a14.093 14.093 0 00-2.397-.192 27.33 27.33 0 00-2.012.086c-.342.028-.685.064-1.027.106-.342.043-.656.1-.941.171v14.363c.285.071.599.128.941.17a24.989 24.989 0 002.076.172zm-.963-1.796v-5.214h2.675a9.44 9.44 0 011.626.128 3.75 3.75 0 011.242.427c.357.2.628.47.813.812.185.328.278.734.278 1.219 0 .541-.128.99-.385 1.346a2.45 2.45 0 01-.985.834c-.413.2-.898.342-1.455.427a13.36 13.36 0 01-1.733.107h-.878a34.988 34.988 0 01-.641-.043c-.215-.014-.4-.028-.557-.043zm2.183-6.882h-2.183V5.106c.242-.029.513-.05.813-.064.3-.015.714-.022 1.241-.022.528 0 1.028.043 1.498.128.471.086.878.221 1.22.407.357.17.635.406.835.705.2.285.3.641.3 1.068 0 .456-.1.834-.3 1.133-.185.3-.45.541-.792.727a3.468 3.468 0 01-1.177.385 9.404 9.404 0 01-1.455.106z" fill="#183646"/><path fill-rule="evenodd" clip-rule="evenodd" d="M163.758 18.357c.357.014.685.021.984.021 2.369 0 4.095-.37 5.179-1.111 1.099-.755 1.648-1.874 1.648-3.356 0-1.011-.256-1.795-.77-2.35-.514-.556-1.206-.963-2.076-1.219.642-.257 1.156-.641 1.541-1.154.385-.527.578-1.197.578-2.01 0-.726-.157-1.339-.471-1.837a3.42 3.42 0 00-1.306-1.197c-.542-.314-1.191-.535-1.947-.663a14.093 14.093 0 00-2.397-.192 27.33 27.33 0 00-2.012.086c-.342.028-.685.064-1.027.106-.342.043-.656.1-.941.171v14.363c.285.071.599.128.941.17a24.989 24.989 0 002.076.172zm-.963-1.796v-5.214h2.675a9.44 9.44 0 011.626.128 3.75 3.75 0 011.242.427c.357.2.628.47.813.812.185.328.278.734.278 1.219 0 .541-.128.99-.385 1.346a2.45 2.45 0 01-.985.834c-.413.2-.898.342-1.455.427a13.36 13.36 0 01-1.733.107h-.878a34.988 34.988 0 01-.641-.043c-.215-.014-.4-.028-.557-.043zm2.183-6.882h-2.183V5.106c.242-.029.513-.05.813-.064.3-.015.714-.022 1.241-.022.528 0 1.028.043 1.498.128.471.086.878.221 1.22.407.357.17.635.406.835.705.2.285.3.641.3 1.068 0 .456-.1.834-.3 1.133-.185.3-.45.541-.792.727a3.468 3.468 0 01-1.177.385 9.404 9.404 0 01-1.455.106z" fill="#005B8B"/><path fill-rule="evenodd" clip-rule="evenodd" d="M163.758 18.357c.357.014.685.021.984.021 2.369 0 4.095-.37 5.179-1.111 1.099-.755 1.648-1.874 1.648-3.356 0-1.011-.256-1.795-.77-2.35-.514-.556-1.206-.963-2.076-1.219.642-.257 1.156-.641 1.541-1.154.385-.527.578-1.197.578-2.01 0-.726-.157-1.339-.471-1.837a3.42 3.42 0 00-1.306-1.197c-.542-.314-1.191-.535-1.947-.663a14.093 14.093 0 00-2.397-.192 27.33 27.33 0 00-2.012.086c-.342.028-.685.064-1.027.106-.342.043-.656.1-.941.171v14.363c.285.071.599.128.941.17a24.989 24.989 0 002.076.172zm-.963-1.796v-5.214h2.675a9.44 9.44 0 011.626.128 3.75 3.75 0 011.242.427c.357.2.628.47.813.812.185.328.278.734.278 1.219 0 .541-.128.99-.385 1.346a2.45 2.45 0 01-.985.834c-.413.2-.898.342-1.455.427a13.36 13.36 0 01-1.733.107h-.878a34.988 34.988 0 01-.641-.043c-.215-.014-.4-.028-.557-.043zm2.183-6.882h-2.183V5.106c.242-.029.513-.05.813-.064.3-.015.714-.022 1.241-.022.528 0 1.028.043 1.498.128.471.086.878.221 1.22.407.357.17.635.406.835.705.2.285.3.641.3 1.068 0 .456-.1.834-.3 1.133-.185.3-.45.541-.792.727a3.468 3.468 0 01-1.177.385 9.404 9.404 0 01-1.455.106z" fill="url(#paint20_linear_520_6565)"/><defs><linearGradient id="paint0_linear_520_6565" x1="407.187" y1="65.033" x2="278.654" y2="222.559" gradientUnits="userSpaceOnUse"><stop stop-color="#FA3901"/><stop offset="1" stop-color="#FF8902"/></linearGradient><linearGradient id="paint1_linear_520_6565" x1="407.187" y1="65.033" x2="278.654" y2="222.559" gradientUnits="userSpaceOnUse"><stop stop-color="#FA3901"/><stop offset="1" stop-color="#FF8902"/></linearGradient><linearGradient id="paint2_linear_520_6565" x1="407.187" y1="65.033" x2="278.654" y2="222.559" gradientUnits="userSpaceOnUse"><stop stop-color="#FA3901"/><stop offset="1" stop-color="#FF8902"/></linearGradient><linearGradient id="paint3_linear_520_6565" x1="407.187" y1="65.033" x2="278.654" y2="222.559" gradientUnits="userSpaceOnUse"><stop stop-color="#FA3901"/><stop offset="1" stop-color="#FF8902"/></linearGradient><linearGradient id="paint4_linear_520_6565" x1="407.187" y1="65.033" x2="278.654" y2="222.559" gradientUnits="userSpaceOnUse"><stop stop-color="#FA3901"/><stop offset="1" stop-color="#FF8902"/></linearGradient><linearGradient id="paint5_linear_520_6565" x1="407.187" y1="65.033" x2="278.654" y2="222.559" gradientUnits="userSpaceOnUse"><stop stop-color="#FA3901"/><stop offset="1" stop-color="#FF8902"/></linearGradient><linearGradient id="paint6_linear_520_6565" x1="407.187" y1="65.033" x2="278.654" y2="222.559" gradientUnits="userSpaceOnUse"><stop stop-color="#FA3901"/><stop offset="1" stop-color="#FF8902"/></linearGradient><linearGradient id="paint7_linear_520_6565" x1="407.187" y1="65.033" x2="278.654" y2="222.559" gradientUnits="userSpaceOnUse"><stop stop-color="#FA3901"/><stop offset="1" stop-color="#FF8902"/></linearGradient><linearGradient id="paint8_linear_520_6565" x1="407.187" y1="65.033" x2="278.654" y2="222.559" gradientUnits="userSpaceOnUse"><stop stop-color="#FA3901"/><stop offset="1" stop-color="#FF8902"/></linearGradient><linearGradient id="paint9_linear_520_6565" x1="407.187" y1="65.033" x2="278.654" y2="222.559" gradientUnits="userSpaceOnUse"><stop stop-color="#FA3901"/><stop offset="1" stop-color="#FF8902"/></linearGradient><linearGradient id="paint10_linear_520_6565" x1="407.187" y1="65.033" x2="278.654" y2="222.559" gradientUnits="userSpaceOnUse"><stop stop-color="#FA3901"/><stop offset="1" stop-color="#FF8902"/></linearGradient><linearGradient id="paint11_linear_520_6565" x1="407.187" y1="65.033" x2="278.654" y2="222.559" gradientUnits="userSpaceOnUse"><stop stop-color="#FA3901"/><stop offset="1" stop-color="#FF8902"/></linearGradient><linearGradient id="paint12_linear_520_6565" x1="407.187" y1="65.033" x2="278.654" y2="222.559" gradientUnits="userSpaceOnUse"><stop stop-color="#FA3901"/><stop offset="1" stop-color="#FF8902"/></linearGradient><linearGradient id="paint13_linear_520_6565" x1="407.187" y1="65.033" x2="278.654" y2="222.559" gradientUnits="userSpaceOnUse"><stop stop-color="#FA3901"/><stop offset="1" stop-color="#FF8902"/></linearGradient><linearGradient id="paint14_linear_520_6565" x1="407.187" y1="65.033" x2="278.654" y2="222.559" gradientUnits="userSpaceOnUse"><stop stop-color="#FA3901"/><stop offset="1" stop-color="#FF8902"/></linearGradient><linearGradient id="paint15_linear_520_6565" x1="407.187" y1="65.033" x2="278.654" y2="222.559" gradientUnits="userSpaceOnUse"><stop stop-color="#FA3901"/><stop offset="1" stop-color="#FF8902"/></linearGradient><linearGradient id="paint16_linear_520_6565" x1="407.187" y1="65.033" x2="278.654" y2="222.559" gradientUnits="userSpaceOnUse"><stop stop-color="#FA3901"/><stop offset="1" stop-color="#FF8902"/></linearGradient><linearGradient id="paint17_linear_520_6565" x1="407.187" y1="65.033" x2="278.654" y2="222.559" gradientUnits="userSpaceOnUse"><stop stop-color="#FA3901"/><stop offset="1" stop-color="#FF8902"/></linearGradient><linearGradient id="paint18_linear_520_6565" x1="407.187" y1="65.033" x2="278.654" y2="222.559" gradientUnits="userSpaceOnUse"><stop stop-color="#FA3901"/><stop offset="1" stop-color="#FF8902"/></linearGradient><linearGradient id="paint19_linear_520_6565" x1="407.187" y1="65.033" x2="278.654" y2="222.559" gradientUnits="userSpaceOnUse"><stop stop-color="#FA3901"/><stop offset="1" stop-color="#FF8902"/></linearGradient><linearGradient id="paint20_linear_520_6565" x1="407.187" y1="65.033" x2="278.654" y2="222.559" gradientUnits="userSpaceOnUse"><stop stop-color="#FA3901"/><stop offset="1" stop-color="#FF8902"/></linearGradient></defs></svg>