<svg width="180" height="56" fill="none" xmlns="http://www.w3.org/2000/svg"><path fill-rule="evenodd" clip-rule="evenodd" d="M70.234.066a6693.613 6693.613 0 006.363 18.59c-.252 0-.487.009-.712.017-.42.014-.806.027-1.19-.016-.197 0-.46-.265-.525-.53-.46-1.256-.853-2.512-1.246-3.769v-.002c-.132-.463-.329-.661-.853-.661-1.397.044-2.765.03-4.142.015-.693-.008-1.387-.015-2.09-.015-.524 0-.721.132-.918.595-.196.595-.41 1.19-.622 1.785v.001h-.001c-.213.596-.426 1.191-.623 1.787-.197.53-.394.794-.984.728-.295-.043-.563-.03-.874-.017a11.98 11.98 0 01-.569.017c.892-2.59 1.784-5.157 2.671-7.711l.002-.006C65.187 7.23 66.443 3.614 67.676 0c.853.066 1.705.066 2.558.066zm1.968 11.909l-.436-1.24-.001-.004c-.955-2.72-1.874-5.335-2.843-8.15a594.837 594.837 0 00-1.997 5.595v.003l-.002.004a811.18 811.18 0 01-1.346 3.792h6.625zM.444 41.68c.263-.728.525-1.472.787-2.216.263-.744.525-1.489.788-2.216 1.213-3.672 2.426-7.36 3.64-11.049 1.213-3.689 2.427-7.377 3.64-11.049.066-.264.197-.595.328-.926h4.132c.513 0 .587.378.652.704l.004.024c.886 2.713 1.788 5.408 2.69 8.104.901 2.696 1.803 5.392 2.689 8.105l.002.005c1.114 3.373 2.229 6.745 3.343 10.051.066.265.131.463.262.86h-4.197c-.197 0-.46-.397-.525-.661a859.454 859.454 0 01-3.673-12.174c-1.05-3.572-2.165-7.145-3.411-10.718a2.376 2.376 0 01-.131.364c-.05.116-.099.232-.131.364-.744 2.448-1.494 4.896-2.245 7.344-1.501 4.895-3.003 9.791-4.446 14.687-.197.662-.459.794-1.115.794-.627-.04-1.231-.008-1.84.024-.41.02-.82.042-1.243.042v-.463zM147.37 55.654c-.525-.117-1.05-.235-1.574-.411-3.149-.993-4.985-3.308-5.772-6.418-.984-3.903-1.05-7.806-.131-11.71 1.049-4.433 4.001-6.88 8.526-7.211 3.411-.265 6.691.198 9.97 1.257-.087.33-.174.654-.262.977-.175.647-.35 1.294-.525 2-.343-.073-.682-.15-1.018-.228-.884-.204-1.752-.404-2.655-.5-1.508-.198-2.951-.33-4.46-.264-3.345.198-5.313 1.918-6.035 5.226a20.167 20.167 0 00.066 9.064c.984 4.168 3.804 5.623 7.805 5.227.967-.122 1.877-.468 2.835-.832l.248-.095c.197-.066.459-.397.459-.595.044-1.184.03-2.338.015-3.521v-.002c-.007-.602-.015-1.212-.015-1.836h-4.722v-3.176h8.264v10.652c0 .53-.131.794-.656.992-.917.265-1.818.53-2.72.794h-.002a598.3 598.3 0 01-2.722.794.499.499 0 00-.262.133c-1.246-.133-2.558-.133-3.87-.133a29.677 29.677 0 00-.787-.184zm16.922-.146h15.021v-3.11h-12.594v-8.402h10.692v-3.242h-10.692V33.41h12.332v-3.109h-15.874v25.207h1.115zM148.124 3.803l-.003-.01c-.425-1.236-.851-2.474-1.276-3.727h-2.558c-.032.099-.065.214-.098.33a8.371 8.371 0 01-.099.331c-.754 2.217-1.525 4.417-2.295 6.616-.771 2.2-1.542 4.4-2.296 6.616a464.459 464.459 0 01-1.64 4.698c.211 0 .397-.009.569-.017.311-.014.579-.026.874.017.525.066.787-.133.918-.662.166-.5.342-.999.52-1.503l.001-.003.002-.006.002-.003.002-.006a61.55 61.55 0 00.72-2.118c.131-.463.393-.595.852-.595h6.297c.459 0 .722.132.853.595.394 1.323.853 2.58 1.312 3.837.065.199.262.463.459.463.391.044.811.03 1.241.016.219-.008.44-.015.661-.015a6.909 6.909 0 00-.197-.794l-3.542-10.321a825.716 825.716 0 00-1.279-3.738v-.001zm-2.591-.959h.197c.35 1.015.7 2.022 1.05 3.029.699 2.014 1.399 4.028 2.099 6.101h-6.625c.389-1.086.779-2.156 1.166-3.219.72-1.978 1.431-3.93 2.113-5.91zM27.075.066c.524 1.72 1.05 3.44 1.574 5.094l10.035 30.367 6.297 19.054c.033.132.066.248.099.364.032.116.065.232.098.364-1.246.199-1.246.199-1.574-.794A51292.809 51292.809 0 0125.697.463a.975.975 0 01-.065-.231.954.954 0 00-.066-.232c.59.066 1.05.066 1.509.066zm49.319 42.48a1.514 1.514 0 00-.126-.072l.06-.03.052-.025c.209-.101.377-.183.544-.408 1.968-.993 3.083-2.647 3.214-4.83.132-2.448-.459-4.565-2.689-5.954-1.377-.794-2.886-1.125-4.46-1.125H63.15c-.14 0-.262.02-.375.037-.098.015-.19.03-.28.03v25.206h6.1c.432 0 .865.002 1.298.005 1.731.01 3.463.021 5.195-.137 3.214-.265 5.247-2.316 5.706-5.492.525-3.44-1.05-5.954-4.263-7.145-.04 0-.081-.025-.137-.06zm-2.028 9.587c-2.754.132-5.444.199-8.264.265v-.002c0-2.844 0-5.49-.066-8.202h2.558c.392 0 .787-.004 1.184-.008 1.202-.013 2.422-.025 3.604.074 3.214.199 4.854 3.44 3.28 6.285-.525.926-1.312 1.522-2.296 1.588zm-8.264-11.247v-7.41c.813 0 1.62-.022 2.42-.044h.002c1.589-.044 3.158-.088 4.727.044 2.755.265 4.132 3.308 2.755 5.822-.59 1.059-1.574 1.522-2.69 1.588-1.57.044-3.172.03-4.782.015h-.001c-.81-.008-1.62-.015-2.431-.015zm33.992 8.538l.002.003c1.227 1.995 2.463 4.004 3.721 6.08h-3.87c-.197 0-.459-.33-.59-.529a373.884 373.884 0 01-3.785-6.26c-.466-.783-.932-1.564-1.397-2.34-.262-.463-.525-.662-1.115-.662-.998.044-1.968.03-2.966.015h-.001c-.51-.007-1.027-.015-1.559-.015v9.725h-3.476V30.235h10.297c7.478 0 8.79 7.277 6.822 11.38-.787 1.653-2.164 2.712-3.87 3.241a4.215 4.215 0 00-.852.265 1343.74 1343.74 0 002.635 4.296l.001.002.003.005zm-11.625-6.95h6.296c.394 0 .787-.066 1.18-.132h.001c1.443-.265 2.558-1.059 3.083-2.514 1.246-3.44-.722-6.418-4.33-6.418H89.19c-.197 0-.46 0-.656.067-.065 2.976-.065 5.887-.065 8.995v.002zm27.286-12.173v25.273c1.403-.048 2.798-.061 4.185-.074h.001c2.435-.023 4.844-.046 7.227-.257 3.804-.33 6.165-2.779 7.28-6.417.984-3.308.984-6.616.525-9.924-.328-2.117-.984-4.102-2.427-5.69-1.967-2.25-4.591-2.91-7.412-2.977h-8.658c-.131 0-.246.017-.36.033-.115.017-.23.033-.361.033zm5.57 21.995c-.67-.015-1.346-.03-2.028-.03V33.609c.065-.066.131-.132.197-.132.526 0 1.049-.005 1.569-.009h.003c1.549-.012 3.071-.024 4.593.075 2.886.132 4.788 1.852 5.444 4.83a19.917 19.917 0 010 8.799c-.721 3.241-2.558 4.83-5.837 5.094-1.307.088-2.615.059-3.941.03zm36.408-33.64h-1.967V.199c.202 0 .396-.008.585-.015.364-.015.709-.028 1.055.015.262.066.524.331.655.53 1.057 1.611 2.124 3.223 3.192 4.838h.001v.001c1.782 2.694 3.571 5.398 5.334 8.128.197.33.46.661.788.926V.198h1.967V18.59c-.202 0-.396.008-.585.016-.364.014-.709.028-1.055-.016-.262-.066-.59-.33-.721-.595-1.443-2.183-2.886-4.35-4.329-6.517a2168.468 2168.468 0 01-4.329-6.516c-.055-.083-.12-.176-.197-.286-.109-.155-.24-.342-.394-.574v14.555zm-47.619.001v-7.674h1.115c.426 0 .853.004 1.279.008 1.279.012 2.558.025 3.837-.074 2.886-.199 4.526-2.117 4.592-5.16.065-2.978-1.64-5.227-4.461-5.426-1.964-.141-3.928-.115-5.915-.088-.801.011-1.605.022-2.415.022v18.392h1.968zm1.812-9.571a93.746 93.746 0 00-1.746-.022V2.117c.624 0 1.242-.01 1.855-.021 1.514-.027 2.994-.054 4.441.088 1.64.198 2.493 1.72 2.427 3.638-.065 1.787-.984 3.044-2.689 3.176-1.404.142-2.841.115-4.288.088zm-4.37 21.149h3.411v25.14h-3.411v-25.14zM79.089.265v18.392c3.739 0 7.477 0 11.216-.066v-1.72h-9.249V.264H79.09zm14.561 0h1.902V16.87h9.249v1.787h-11.15V.265zm30.566 0v18.392c3.804 0 7.477 0 11.282-.066v-1.72h-9.249V.264h-2.033z" fill="#fff"/></svg>