<svg width="405" height="65" fill="none" xmlns="http://www.w3.org/2000/svg"><path d="M86.706 15.552a204.377 204.377 0 00-1.64-4.578 177.91 177.91 0 00-1.505-3.972 127.54 127.54 0 00-1.484-3.613A132.558 132.558 0 0080.594 0H78.55a230.894 230.894 0 00-1.506 3.389c-.48 1.152-.974 2.356-1.483 3.613a293.822 293.822 0 00-1.528 3.972 152.621 152.621 0 00-1.618 4.578h2.404a565.723 565.723 0 012.382-6.822c.78-2.185 1.58-4.234 2.405-6.15a99.006 99.006 0 012.404 6.127c.779 2.2 1.566 4.481 2.36 6.845h2.336z" fill="#000"/><path d="M86.706 15.552a204.377 204.377 0 00-1.64-4.578 177.91 177.91 0 00-1.505-3.972 127.54 127.54 0 00-1.484-3.613A132.558 132.558 0 0080.594 0H78.55a230.894 230.894 0 00-1.506 3.389c-.48 1.152-.974 2.356-1.483 3.613a293.822 293.822 0 00-1.528 3.972 152.621 152.621 0 00-1.618 4.578h2.404a565.723 565.723 0 012.382-6.822c.78-2.185 1.58-4.234 2.405-6.15a99.006 99.006 0 012.404 6.127c.779 2.2 1.566 4.481 2.36 6.845h2.336z" fill="url(#paint0_linear_520_6745)"/><path d="M86.706 15.552a204.377 204.377 0 00-1.64-4.578 177.91 177.91 0 00-1.505-3.972 127.54 127.54 0 00-1.484-3.613A132.558 132.558 0 0080.594 0H78.55a230.894 230.894 0 00-1.506 3.389c-.48 1.152-.974 2.356-1.483 3.613a293.822 293.822 0 00-1.528 3.972 152.621 152.621 0 00-1.618 4.578h2.404a565.723 565.723 0 012.382-6.822c.78-2.185 1.58-4.234 2.405-6.15a99.006 99.006 0 012.404 6.127c.779 2.2 1.566 4.481 2.36 6.845h2.336z" fill="#062633"/><path d="M86.706 15.552a204.377 204.377 0 00-1.64-4.578 177.91 177.91 0 00-1.505-3.972 127.54 127.54 0 00-1.484-3.613A132.558 132.558 0 0080.594 0H78.55a230.894 230.894 0 00-1.506 3.389c-.48 1.152-.974 2.356-1.483 3.613a293.822 293.822 0 00-1.528 3.972 152.621 152.621 0 00-1.618 4.578h2.404a565.723 565.723 0 012.382-6.822c.78-2.185 1.58-4.234 2.405-6.15a99.006 99.006 0 012.404 6.127c.779 2.2 1.566 4.481 2.36 6.845h2.336z" fill="#005B8B"/><path d="M86.706 15.552a204.377 204.377 0 00-1.64-4.578 177.91 177.91 0 00-1.505-3.972 127.54 127.54 0 00-1.484-3.613A132.558 132.558 0 0080.594 0H78.55a230.894 230.894 0 00-1.506 3.389c-.48 1.152-.974 2.356-1.483 3.613a293.822 293.822 0 00-1.528 3.972 152.621 152.621 0 00-1.618 4.578h2.404a565.723 565.723 0 012.382-6.822c.78-2.185 1.58-4.234 2.405-6.15a99.006 99.006 0 012.404 6.127c.779 2.2 1.566 4.481 2.36 6.845h2.336z" fill="url(#paint1_linear_520_6745)"/><path fill-rule="evenodd" clip-rule="evenodd" d="M80.152 51.448V61.75h-4.818V34.023h10.607c3.098 0 5.554.807 7.37 2.419 1.828 1.612 2.742 3.745 2.742 6.398 0 2.717-.895 4.83-2.685 6.342-1.778 1.51-4.272 2.266-7.484 2.266h-5.732zm0-3.866h5.789c1.714 0 3.021-.4 3.923-1.2.901-.812 1.352-1.98 1.352-3.504 0-1.498-.457-2.691-1.371-3.58-.914-.901-2.171-1.364-3.77-1.39h-5.923v9.674z" fill="#000"/><path fill-rule="evenodd" clip-rule="evenodd" d="M80.152 51.448V61.75h-4.818V34.023h10.607c3.098 0 5.554.807 7.37 2.419 1.828 1.612 2.742 3.745 2.742 6.398 0 2.717-.895 4.83-2.685 6.342-1.778 1.51-4.272 2.266-7.484 2.266h-5.732zm0-3.866h5.789c1.714 0 3.021-.4 3.923-1.2.901-.812 1.352-1.98 1.352-3.504 0-1.498-.457-2.691-1.371-3.58-.914-.901-2.171-1.364-3.77-1.39h-5.923v9.674z" fill="url(#paint2_linear_520_6745)"/><path fill-rule="evenodd" clip-rule="evenodd" d="M80.152 51.448V61.75h-4.818V34.023h10.607c3.098 0 5.554.807 7.37 2.419 1.828 1.612 2.742 3.745 2.742 6.398 0 2.717-.895 4.83-2.685 6.342-1.778 1.51-4.272 2.266-7.484 2.266h-5.732zm0-3.866h5.789c1.714 0 3.021-.4 3.923-1.2.901-.812 1.352-1.98 1.352-3.504 0-1.498-.457-2.691-1.371-3.58-.914-.901-2.171-1.364-3.77-1.39h-5.923v9.674z" fill="#062633"/><path fill-rule="evenodd" clip-rule="evenodd" d="M80.152 51.448V61.75h-4.818V34.023h10.607c3.098 0 5.554.807 7.37 2.419 1.828 1.612 2.742 3.745 2.742 6.398 0 2.717-.895 4.83-2.685 6.342-1.778 1.51-4.272 2.266-7.484 2.266h-5.732zm0-3.866h5.789c1.714 0 3.021-.4 3.923-1.2.901-.812 1.352-1.98 1.352-3.504 0-1.498-.457-2.691-1.371-3.58-.914-.901-2.171-1.364-3.77-1.39h-5.923v9.674z" fill="#005B8B"/><path fill-rule="evenodd" clip-rule="evenodd" d="M80.152 51.448V61.75h-4.818V34.023h10.607c3.098 0 5.554.807 7.37 2.419 1.828 1.612 2.742 3.745 2.742 6.398 0 2.717-.895 4.83-2.685 6.342-1.778 1.51-4.272 2.266-7.484 2.266h-5.732zm0-3.866h5.789c1.714 0 3.021-.4 3.923-1.2.901-.812 1.352-1.98 1.352-3.504 0-1.498-.457-2.691-1.371-3.58-.914-.901-2.171-1.364-3.77-1.39h-5.923v9.674z" fill="url(#paint3_linear_520_6745)"/><path d="M115.371 47.163l6.379-13.14h5.332l-9.293 17.52V61.75h-4.837V51.543l-9.312-17.52h5.351l6.38 13.14z" fill="#000"/><path d="M115.371 47.163l6.379-13.14h5.332l-9.293 17.52V61.75h-4.837V51.543l-9.312-17.52h5.351l6.38 13.14z" fill="url(#paint4_linear_520_6745)"/><path d="M115.371 47.163l6.379-13.14h5.332l-9.293 17.52V61.75h-4.837V51.543l-9.312-17.52h5.351l6.38 13.14z" fill="#062633"/><path d="M115.371 47.163l6.379-13.14h5.332l-9.293 17.52V61.75h-4.837V51.543l-9.312-17.52h5.351l6.38 13.14z" fill="#005B8B"/><path d="M115.371 47.163l6.379-13.14h5.332l-9.293 17.52V61.75h-4.837V51.543l-9.312-17.52h5.351l6.38 13.14z" fill="url(#paint5_linear_520_6745)"/><path d="M156.512 37.908h-8.646V61.75h-4.779V37.908h-8.57v-3.885h21.995v3.885z" fill="#000"/><path d="M156.512 37.908h-8.646V61.75h-4.779V37.908h-8.57v-3.885h21.995v3.885z" fill="url(#paint6_linear_520_6745)"/><path d="M156.512 37.908h-8.646V61.75h-4.779V37.908h-8.57v-3.885h21.995v3.885z" fill="#062633"/><path d="M156.512 37.908h-8.646V61.75h-4.779V37.908h-8.57v-3.885h21.995v3.885z" fill="#005B8B"/><path d="M156.512 37.908h-8.646V61.75h-4.779V37.908h-8.57v-3.885h21.995v3.885z" fill="url(#paint7_linear_520_6745)"/><path d="M188.227 61.75h-4.799V49.43h-12.397v12.32h-4.818V34.023h4.818v11.54h12.397v-11.54h4.799V61.75z" fill="#000"/><path d="M188.227 61.75h-4.799V49.43h-12.397v12.32h-4.818V34.023h4.818v11.54h12.397v-11.54h4.799V61.75z" fill="url(#paint8_linear_520_6745)"/><path d="M188.227 61.75h-4.799V49.43h-12.397v12.32h-4.818V34.023h4.818v11.54h12.397v-11.54h4.799V61.75z" fill="#062633"/><path d="M188.227 61.75h-4.799V49.43h-12.397v12.32h-4.818V34.023h4.818v11.54h12.397v-11.54h4.799V61.75z" fill="#005B8B"/><path d="M188.227 61.75h-4.799V49.43h-12.397v12.32h-4.818V34.023h4.818v11.54h12.397v-11.54h4.799V61.75z" fill="url(#paint9_linear_520_6745)"/><path fill-rule="evenodd" clip-rule="evenodd" d="M222.113 48.61c0 2.717-.47 5.104-1.41 7.16-.939 2.044-2.285 3.619-4.037 4.723-1.739 1.092-3.745 1.638-6.017 1.638-2.247 0-4.253-.546-6.018-1.638-1.752-1.104-3.11-2.672-4.075-4.703-.952-2.032-1.435-4.374-1.447-7.027V47.2c0-2.704.476-5.09 1.428-7.16.965-2.07 2.317-3.65 4.056-4.742 1.752-1.104 3.758-1.656 6.018-1.656 2.259 0 4.259.545 5.998 1.637 1.752 1.08 3.104 2.64 4.056 4.685.953 2.031 1.435 4.399 1.448 7.103v1.542zm-4.818-1.447c0-3.072-.584-5.427-1.752-7.065-1.155-1.638-2.8-2.456-4.932-2.456-2.082 0-3.714.818-4.894 2.456-1.168 1.625-1.765 3.93-1.79 6.913v1.6c0 3.046.59 5.401 1.771 7.064 1.193 1.663 2.843 2.495 4.951 2.495 2.133 0 3.77-.813 4.913-2.438 1.155-1.625 1.733-3.999 1.733-7.122v-1.447z" fill="#000"/><path fill-rule="evenodd" clip-rule="evenodd" d="M222.113 48.61c0 2.717-.47 5.104-1.41 7.16-.939 2.044-2.285 3.619-4.037 4.723-1.739 1.092-3.745 1.638-6.017 1.638-2.247 0-4.253-.546-6.018-1.638-1.752-1.104-3.11-2.672-4.075-4.703-.952-2.032-1.435-4.374-1.447-7.027V47.2c0-2.704.476-5.09 1.428-7.16.965-2.07 2.317-3.65 4.056-4.742 1.752-1.104 3.758-1.656 6.018-1.656 2.259 0 4.259.545 5.998 1.637 1.752 1.08 3.104 2.64 4.056 4.685.953 2.031 1.435 4.399 1.448 7.103v1.542zm-4.818-1.447c0-3.072-.584-5.427-1.752-7.065-1.155-1.638-2.8-2.456-4.932-2.456-2.082 0-3.714.818-4.894 2.456-1.168 1.625-1.765 3.93-1.79 6.913v1.6c0 3.046.59 5.401 1.771 7.064 1.193 1.663 2.843 2.495 4.951 2.495 2.133 0 3.77-.813 4.913-2.438 1.155-1.625 1.733-3.999 1.733-7.122v-1.447z" fill="url(#paint10_linear_520_6745)"/><path fill-rule="evenodd" clip-rule="evenodd" d="M222.113 48.61c0 2.717-.47 5.104-1.41 7.16-.939 2.044-2.285 3.619-4.037 4.723-1.739 1.092-3.745 1.638-6.017 1.638-2.247 0-4.253-.546-6.018-1.638-1.752-1.104-3.11-2.672-4.075-4.703-.952-2.032-1.435-4.374-1.447-7.027V47.2c0-2.704.476-5.09 1.428-7.16.965-2.07 2.317-3.65 4.056-4.742 1.752-1.104 3.758-1.656 6.018-1.656 2.259 0 4.259.545 5.998 1.637 1.752 1.08 3.104 2.64 4.056 4.685.953 2.031 1.435 4.399 1.448 7.103v1.542zm-4.818-1.447c0-3.072-.584-5.427-1.752-7.065-1.155-1.638-2.8-2.456-4.932-2.456-2.082 0-3.714.818-4.894 2.456-1.168 1.625-1.765 3.93-1.79 6.913v1.6c0 3.046.59 5.401 1.771 7.064 1.193 1.663 2.843 2.495 4.951 2.495 2.133 0 3.77-.813 4.913-2.438 1.155-1.625 1.733-3.999 1.733-7.122v-1.447z" fill="#062633"/><path fill-rule="evenodd" clip-rule="evenodd" d="M222.113 48.61c0 2.717-.47 5.104-1.41 7.16-.939 2.044-2.285 3.619-4.037 4.723-1.739 1.092-3.745 1.638-6.017 1.638-2.247 0-4.253-.546-6.018-1.638-1.752-1.104-3.11-2.672-4.075-4.703-.952-2.032-1.435-4.374-1.447-7.027V47.2c0-2.704.476-5.09 1.428-7.16.965-2.07 2.317-3.65 4.056-4.742 1.752-1.104 3.758-1.656 6.018-1.656 2.259 0 4.259.545 5.998 1.637 1.752 1.08 3.104 2.64 4.056 4.685.953 2.031 1.435 4.399 1.448 7.103v1.542zm-4.818-1.447c0-3.072-.584-5.427-1.752-7.065-1.155-1.638-2.8-2.456-4.932-2.456-2.082 0-3.714.818-4.894 2.456-1.168 1.625-1.765 3.93-1.79 6.913v1.6c0 3.046.59 5.401 1.771 7.064 1.193 1.663 2.843 2.495 4.951 2.495 2.133 0 3.77-.813 4.913-2.438 1.155-1.625 1.733-3.999 1.733-7.122v-1.447z" fill="#005B8B"/><path fill-rule="evenodd" clip-rule="evenodd" d="M222.113 48.61c0 2.717-.47 5.104-1.41 7.16-.939 2.044-2.285 3.619-4.037 4.723-1.739 1.092-3.745 1.638-6.017 1.638-2.247 0-4.253-.546-6.018-1.638-1.752-1.104-3.11-2.672-4.075-4.703-.952-2.032-1.435-4.374-1.447-7.027V47.2c0-2.704.476-5.09 1.428-7.16.965-2.07 2.317-3.65 4.056-4.742 1.752-1.104 3.758-1.656 6.018-1.656 2.259 0 4.259.545 5.998 1.637 1.752 1.08 3.104 2.64 4.056 4.685.953 2.031 1.435 4.399 1.448 7.103v1.542zm-4.818-1.447c0-3.072-.584-5.427-1.752-7.065-1.155-1.638-2.8-2.456-4.932-2.456-2.082 0-3.714.818-4.894 2.456-1.168 1.625-1.765 3.93-1.79 6.913v1.6c0 3.046.59 5.401 1.771 7.064 1.193 1.663 2.843 2.495 4.951 2.495 2.133 0 3.77-.813 4.913-2.438 1.155-1.625 1.733-3.999 1.733-7.122v-1.447z" fill="url(#paint11_linear_520_6745)"/><path d="M254.951 61.75h-4.818l-12.359-19.671V61.75h-4.818V34.023h4.818l12.397 19.748V34.023h4.78V61.75z" fill="#000"/><path d="M254.951 61.75h-4.818l-12.359-19.671V61.75h-4.818V34.023h4.818l12.397 19.748V34.023h4.78V61.75z" fill="url(#paint12_linear_520_6745)"/><path d="M254.951 61.75h-4.818l-12.359-19.671V61.75h-4.818V34.023h4.818l12.397 19.748V34.023h4.78V61.75z" fill="#062633"/><path d="M254.951 61.75h-4.818l-12.359-19.671V61.75h-4.818V34.023h4.818l12.397 19.748V34.023h4.78V61.75z" fill="#005B8B"/><path d="M254.951 61.75h-4.818l-12.359-19.671V61.75h-4.818V34.023h4.818l12.397 19.748V34.023h4.78V61.75z" fill="url(#paint13_linear_520_6745)"/><path fill-rule="evenodd" clip-rule="evenodd" d="M271.508 51.448V61.75h-4.818V34.023h10.607c3.098 0 5.554.807 7.37 2.419 1.828 1.612 2.742 3.745 2.742 6.398 0 2.717-.895 4.83-2.685 6.342-1.778 1.51-4.272 2.266-7.484 2.266h-5.732zm0-3.866h5.789c1.714 0 3.021-.4 3.923-1.2.901-.812 1.352-1.98 1.352-3.504 0-1.498-.457-2.691-1.371-3.58-.914-.901-2.171-1.364-3.771-1.39h-5.922v9.674z" fill="#000"/><path fill-rule="evenodd" clip-rule="evenodd" d="M271.508 51.448V61.75h-4.818V34.023h10.607c3.098 0 5.554.807 7.37 2.419 1.828 1.612 2.742 3.745 2.742 6.398 0 2.717-.895 4.83-2.685 6.342-1.778 1.51-4.272 2.266-7.484 2.266h-5.732zm0-3.866h5.789c1.714 0 3.021-.4 3.923-1.2.901-.812 1.352-1.98 1.352-3.504 0-1.498-.457-2.691-1.371-3.58-.914-.901-2.171-1.364-3.771-1.39h-5.922v9.674z" fill="url(#paint14_linear_520_6745)"/><path fill-rule="evenodd" clip-rule="evenodd" d="M271.508 51.448V61.75h-4.818V34.023h10.607c3.098 0 5.554.807 7.37 2.419 1.828 1.612 2.742 3.745 2.742 6.398 0 2.717-.895 4.83-2.685 6.342-1.778 1.51-4.272 2.266-7.484 2.266h-5.732zm0-3.866h5.789c1.714 0 3.021-.4 3.923-1.2.901-.812 1.352-1.98 1.352-3.504 0-1.498-.457-2.691-1.371-3.58-.914-.901-2.171-1.364-3.771-1.39h-5.922v9.674z" fill="#062633"/><path fill-rule="evenodd" clip-rule="evenodd" d="M271.508 51.448V61.75h-4.818V34.023h10.607c3.098 0 5.554.807 7.37 2.419 1.828 1.612 2.742 3.745 2.742 6.398 0 2.717-.895 4.83-2.685 6.342-1.778 1.51-4.272 2.266-7.484 2.266h-5.732zm0-3.866h5.789c1.714 0 3.021-.4 3.923-1.2.901-.812 1.352-1.98 1.352-3.504 0-1.498-.457-2.691-1.371-3.58-.914-.901-2.171-1.364-3.771-1.39h-5.922v9.674z" fill="#005B8B"/><path fill-rule="evenodd" clip-rule="evenodd" d="M271.508 51.448V61.75h-4.818V34.023h10.607c3.098 0 5.554.807 7.37 2.419 1.828 1.612 2.742 3.745 2.742 6.398 0 2.717-.895 4.83-2.685 6.342-1.778 1.51-4.272 2.266-7.484 2.266h-5.732zm0-3.866h5.789c1.714 0 3.021-.4 3.923-1.2.901-.812 1.352-1.98 1.352-3.504 0-1.498-.457-2.691-1.371-3.58-.914-.901-2.171-1.364-3.771-1.39h-5.922v9.674z" fill="url(#paint15_linear_520_6745)"/><path fill-rule="evenodd" clip-rule="evenodd" d="M299.071 55.294l-2.247 6.456h-5.008l10.474-27.727h4.322l10.493 27.727h-5.027l-2.266-6.456h-10.741zm9.389-3.884l-4.019-11.502-4.018 11.502h8.037z" fill="#000"/><path fill-rule="evenodd" clip-rule="evenodd" d="M299.071 55.294l-2.247 6.456h-5.008l10.474-27.727h4.322l10.493 27.727h-5.027l-2.266-6.456h-10.741zm9.389-3.884l-4.019-11.502-4.018 11.502h8.037z" fill="url(#paint16_linear_520_6745)"/><path fill-rule="evenodd" clip-rule="evenodd" d="M299.071 55.294l-2.247 6.456h-5.008l10.474-27.727h4.322l10.493 27.727h-5.027l-2.266-6.456h-10.741zm9.389-3.884l-4.019-11.502-4.018 11.502h8.037z" fill="#062633"/><path fill-rule="evenodd" clip-rule="evenodd" d="M299.071 55.294l-2.247 6.456h-5.008l10.474-27.727h4.322l10.493 27.727h-5.027l-2.266-6.456h-10.741zm9.389-3.884l-4.019-11.502-4.018 11.502h8.037z" fill="#005B8B"/><path fill-rule="evenodd" clip-rule="evenodd" d="M299.071 55.294l-2.247 6.456h-5.008l10.474-27.727h4.322l10.493 27.727h-5.027l-2.266-6.456h-10.741zm9.389-3.884l-4.019-11.502-4.018 11.502h8.037z" fill="url(#paint17_linear_520_6745)"/><path fill-rule="evenodd" clip-rule="evenodd" d="M336.499 51.067h-5.37V61.75h-4.818V34.023h9.75c3.199 0 5.669.718 7.408 2.152 1.739 1.435 2.609 3.51 2.609 6.227 0 1.854-.451 3.409-1.352 4.666-.889 1.244-2.133 2.203-3.733 2.875l6.227 11.56v.247h-5.16l-5.561-10.683zm-5.37-3.866h4.951c1.625 0 2.895-.406 3.809-1.219.914-.825 1.371-1.948 1.371-3.37 0-1.486-.425-2.635-1.276-3.447-.838-.813-2.095-1.231-3.77-1.257h-5.085v9.293z" fill="#000"/><path fill-rule="evenodd" clip-rule="evenodd" d="M336.499 51.067h-5.37V61.75h-4.818V34.023h9.75c3.199 0 5.669.718 7.408 2.152 1.739 1.435 2.609 3.51 2.609 6.227 0 1.854-.451 3.409-1.352 4.666-.889 1.244-2.133 2.203-3.733 2.875l6.227 11.56v.247h-5.16l-5.561-10.683zm-5.37-3.866h4.951c1.625 0 2.895-.406 3.809-1.219.914-.825 1.371-1.948 1.371-3.37 0-1.486-.425-2.635-1.276-3.447-.838-.813-2.095-1.231-3.77-1.257h-5.085v9.293z" fill="url(#paint18_linear_520_6745)"/><path fill-rule="evenodd" clip-rule="evenodd" d="M336.499 51.067h-5.37V61.75h-4.818V34.023h9.75c3.199 0 5.669.718 7.408 2.152 1.739 1.435 2.609 3.51 2.609 6.227 0 1.854-.451 3.409-1.352 4.666-.889 1.244-2.133 2.203-3.733 2.875l6.227 11.56v.247h-5.16l-5.561-10.683zm-5.37-3.866h4.951c1.625 0 2.895-.406 3.809-1.219.914-.825 1.371-1.948 1.371-3.37 0-1.486-.425-2.635-1.276-3.447-.838-.813-2.095-1.231-3.77-1.257h-5.085v9.293z" fill="#062633"/><path fill-rule="evenodd" clip-rule="evenodd" d="M336.499 51.067h-5.37V61.75h-4.818V34.023h9.75c3.199 0 5.669.718 7.408 2.152 1.739 1.435 2.609 3.51 2.609 6.227 0 1.854-.451 3.409-1.352 4.666-.889 1.244-2.133 2.203-3.733 2.875l6.227 11.56v.247h-5.16l-5.561-10.683zm-5.37-3.866h4.951c1.625 0 2.895-.406 3.809-1.219.914-.825 1.371-1.948 1.371-3.37 0-1.486-.425-2.635-1.276-3.447-.838-.813-2.095-1.231-3.77-1.257h-5.085v9.293z" fill="#005B8B"/><path fill-rule="evenodd" clip-rule="evenodd" d="M336.499 51.067h-5.37V61.75h-4.818V34.023h9.75c3.199 0 5.669.718 7.408 2.152 1.739 1.435 2.609 3.51 2.609 6.227 0 1.854-.451 3.409-1.352 4.666-.889 1.244-2.133 2.203-3.733 2.875l6.227 11.56v.247h-5.16l-5.561-10.683zm-5.37-3.866h4.951c1.625 0 2.895-.406 3.809-1.219.914-.825 1.371-1.948 1.371-3.37 0-1.486-.425-2.635-1.276-3.447-.838-.813-2.095-1.231-3.77-1.257h-5.085v9.293z" fill="url(#paint19_linear_520_6745)"/><path d="M375.774 37.908h-8.645V61.75h-4.78V37.908h-8.569v-3.885h21.994v3.885z" fill="#000"/><path d="M375.774 37.908h-8.645V61.75h-4.78V37.908h-8.569v-3.885h21.994v3.885z" fill="url(#paint20_linear_520_6745)"/><path d="M375.774 37.908h-8.645V61.75h-4.78V37.908h-8.569v-3.885h21.994v3.885z" fill="#062633"/><path d="M375.774 37.908h-8.645V61.75h-4.78V37.908h-8.569v-3.885h21.994v3.885z" fill="#005B8B"/><path d="M375.774 37.908h-8.645V61.75h-4.78V37.908h-8.569v-3.885h21.994v3.885z" fill="url(#paint21_linear_520_6745)"/><path d="M399.662 54.609c0-1.219-.431-2.158-1.295-2.819-.85-.66-2.393-1.326-4.627-1.999s-4.012-1.422-5.332-2.247c-2.526-1.587-3.79-3.656-3.79-6.208 0-2.234.908-4.075 2.724-5.523 1.828-1.447 4.195-2.17 7.103-2.17 1.929 0 3.65.355 5.16 1.066 1.511.71 2.698 1.726 3.561 3.047.864 1.307 1.295 2.761 1.295 4.36h-4.799c0-1.447-.457-2.576-1.371-3.389-.901-.825-2.196-1.238-3.884-1.238-1.575 0-2.8.337-3.676 1.01-.863.672-1.295 1.612-1.295 2.818 0 1.016.47 1.866 1.409 2.552.94.672 2.489 1.333 4.647 1.98 2.158.635 3.891 1.365 5.199 2.19 1.307.813 2.266 1.752 2.875 2.818.61 1.054.914 2.292.914 3.714 0 2.31-.888 4.151-2.666 5.522-1.764 1.359-4.164 2.038-7.198 2.038-2.006 0-3.853-.368-5.542-1.105-1.675-.749-2.983-1.777-3.922-3.085-.927-1.307-1.39-2.83-1.39-4.57h4.817c0 1.574.521 2.793 1.562 3.656 1.041.864 2.533 1.295 4.475 1.295 1.676 0 2.933-.336 3.771-1.009.85-.686 1.275-1.587 1.275-2.704z" fill="#000"/><path d="M399.662 54.609c0-1.219-.431-2.158-1.295-2.819-.85-.66-2.393-1.326-4.627-1.999s-4.012-1.422-5.332-2.247c-2.526-1.587-3.79-3.656-3.79-6.208 0-2.234.908-4.075 2.724-5.523 1.828-1.447 4.195-2.17 7.103-2.17 1.929 0 3.65.355 5.16 1.066 1.511.71 2.698 1.726 3.561 3.047.864 1.307 1.295 2.761 1.295 4.36h-4.799c0-1.447-.457-2.576-1.371-3.389-.901-.825-2.196-1.238-3.884-1.238-1.575 0-2.8.337-3.676 1.01-.863.672-1.295 1.612-1.295 2.818 0 1.016.47 1.866 1.409 2.552.94.672 2.489 1.333 4.647 1.98 2.158.635 3.891 1.365 5.199 2.19 1.307.813 2.266 1.752 2.875 2.818.61 1.054.914 2.292.914 3.714 0 2.31-.888 4.151-2.666 5.522-1.764 1.359-4.164 2.038-7.198 2.038-2.006 0-3.853-.368-5.542-1.105-1.675-.749-2.983-1.777-3.922-3.085-.927-1.307-1.39-2.83-1.39-4.57h4.817c0 1.574.521 2.793 1.562 3.656 1.041.864 2.533 1.295 4.475 1.295 1.676 0 2.933-.336 3.771-1.009.85-.686 1.275-1.587 1.275-2.704z" fill="url(#paint22_linear_520_6745)"/><path d="M399.662 54.609c0-1.219-.431-2.158-1.295-2.819-.85-.66-2.393-1.326-4.627-1.999s-4.012-1.422-5.332-2.247c-2.526-1.587-3.79-3.656-3.79-6.208 0-2.234.908-4.075 2.724-5.523 1.828-1.447 4.195-2.17 7.103-2.17 1.929 0 3.65.355 5.16 1.066 1.511.71 2.698 1.726 3.561 3.047.864 1.307 1.295 2.761 1.295 4.36h-4.799c0-1.447-.457-2.576-1.371-3.389-.901-.825-2.196-1.238-3.884-1.238-1.575 0-2.8.337-3.676 1.01-.863.672-1.295 1.612-1.295 2.818 0 1.016.47 1.866 1.409 2.552.94.672 2.489 1.333 4.647 1.98 2.158.635 3.891 1.365 5.199 2.19 1.307.813 2.266 1.752 2.875 2.818.61 1.054.914 2.292.914 3.714 0 2.31-.888 4.151-2.666 5.522-1.764 1.359-4.164 2.038-7.198 2.038-2.006 0-3.853-.368-5.542-1.105-1.675-.749-2.983-1.777-3.922-3.085-.927-1.307-1.39-2.83-1.39-4.57h4.817c0 1.574.521 2.793 1.562 3.656 1.041.864 2.533 1.295 4.475 1.295 1.676 0 2.933-.336 3.771-1.009.85-.686 1.275-1.587 1.275-2.704z" fill="#062633"/><path d="M399.662 54.609c0-1.219-.431-2.158-1.295-2.819-.85-.66-2.393-1.326-4.627-1.999s-4.012-1.422-5.332-2.247c-2.526-1.587-3.79-3.656-3.79-6.208 0-2.234.908-4.075 2.724-5.523 1.828-1.447 4.195-2.17 7.103-2.17 1.929 0 3.65.355 5.16 1.066 1.511.71 2.698 1.726 3.561 3.047.864 1.307 1.295 2.761 1.295 4.36h-4.799c0-1.447-.457-2.576-1.371-3.389-.901-.825-2.196-1.238-3.884-1.238-1.575 0-2.8.337-3.676 1.01-.863.672-1.295 1.612-1.295 2.818 0 1.016.47 1.866 1.409 2.552.94.672 2.489 1.333 4.647 1.98 2.158.635 3.891 1.365 5.199 2.19 1.307.813 2.266 1.752 2.875 2.818.61 1.054.914 2.292.914 3.714 0 2.31-.888 4.151-2.666 5.522-1.764 1.359-4.164 2.038-7.198 2.038-2.006 0-3.853-.368-5.542-1.105-1.675-.749-2.983-1.777-3.922-3.085-.927-1.307-1.39-2.83-1.39-4.57h4.817c0 1.574.521 2.793 1.562 3.656 1.041.864 2.533 1.295 4.475 1.295 1.676 0 2.933-.336 3.771-1.009.85-.686 1.275-1.587 1.275-2.704z" fill="#005B8B"/><path d="M399.662 54.609c0-1.219-.431-2.158-1.295-2.819-.85-.66-2.393-1.326-4.627-1.999s-4.012-1.422-5.332-2.247c-2.526-1.587-3.79-3.656-3.79-6.208 0-2.234.908-4.075 2.724-5.523 1.828-1.447 4.195-2.17 7.103-2.17 1.929 0 3.65.355 5.16 1.066 1.511.71 2.698 1.726 3.561 3.047.864 1.307 1.295 2.761 1.295 4.36h-4.799c0-1.447-.457-2.576-1.371-3.389-.901-.825-2.196-1.238-3.884-1.238-1.575 0-2.8.337-3.676 1.01-.863.672-1.295 1.612-1.295 2.818 0 1.016.47 1.866 1.409 2.552.94.672 2.489 1.333 4.647 1.98 2.158.635 3.891 1.365 5.199 2.19 1.307.813 2.266 1.752 2.875 2.818.61 1.054.914 2.292.914 3.714 0 2.31-.888 4.151-2.666 5.522-1.764 1.359-4.164 2.038-7.198 2.038-2.006 0-3.853-.368-5.542-1.105-1.675-.749-2.983-1.777-3.922-3.085-.927-1.307-1.39-2.83-1.39-4.57h4.817c0 1.574.521 2.793 1.562 3.656 1.041.864 2.533 1.295 4.475 1.295 1.676 0 2.933-.336 3.771-1.009.85-.686 1.275-1.587 1.275-2.704z" fill="url(#paint23_linear_520_6745)"/><path d="M205.594 10.974a205.47 205.47 0 011.64 4.578h-2.337a443.268 443.268 0 00-2.359-6.845 99.647 99.647 0 00-2.404-6.126 103.093 103.093 0 00-2.405 6.149 565.685 565.685 0 00-2.382 6.822h-2.404a149.863 149.863 0 011.618-4.578 295.586 295.586 0 011.527-3.972c.51-1.257 1.005-2.461 1.484-3.613A221.34 221.34 0 01199.078 0h2.044a135.98 135.98 0 011.484 3.389c.493 1.152.988 2.356 1.482 3.613.495 1.256.996 2.58 1.506 3.972z" fill="#000"/><path d="M205.594 10.974a205.47 205.47 0 011.64 4.578h-2.337a443.268 443.268 0 00-2.359-6.845 99.647 99.647 0 00-2.404-6.126 103.093 103.093 0 00-2.405 6.149 565.685 565.685 0 00-2.382 6.822h-2.404a149.863 149.863 0 011.618-4.578 295.586 295.586 0 011.527-3.972c.51-1.257 1.005-2.461 1.484-3.613A221.34 221.34 0 01199.078 0h2.044a135.98 135.98 0 011.484 3.389c.493 1.152.988 2.356 1.482 3.613.495 1.256.996 2.58 1.506 3.972z" fill="url(#paint24_linear_520_6745)"/><path d="M205.594 10.974a205.47 205.47 0 011.64 4.578h-2.337a443.268 443.268 0 00-2.359-6.845 99.647 99.647 0 00-2.404-6.126 103.093 103.093 0 00-2.405 6.149 565.685 565.685 0 00-2.382 6.822h-2.404a149.863 149.863 0 011.618-4.578 295.586 295.586 0 011.527-3.972c.51-1.257 1.005-2.461 1.484-3.613A221.34 221.34 0 01199.078 0h2.044a135.98 135.98 0 011.484 3.389c.493 1.152.988 2.356 1.482 3.613.495 1.256.996 2.58 1.506 3.972z" fill="#062633"/><path d="M205.594 10.974a205.47 205.47 0 011.64 4.578h-2.337a443.268 443.268 0 00-2.359-6.845 99.647 99.647 0 00-2.404-6.126 103.093 103.093 0 00-2.405 6.149 565.685 565.685 0 00-2.382 6.822h-2.404a149.863 149.863 0 011.618-4.578 295.586 295.586 0 011.527-3.972c.51-1.257 1.005-2.461 1.484-3.613A221.34 221.34 0 01199.078 0h2.044a135.98 135.98 0 011.484 3.389c.493 1.152.988 2.356 1.482 3.613.495 1.256.996 2.58 1.506 3.972z" fill="#005B8B"/><path d="M205.594 10.974a205.47 205.47 0 011.64 4.578h-2.337a443.268 443.268 0 00-2.359-6.845 99.647 99.647 0 00-2.404-6.126 103.093 103.093 0 00-2.405 6.149 565.685 565.685 0 00-2.382 6.822h-2.404a149.863 149.863 0 011.618-4.578 295.586 295.586 0 011.527-3.972c.51-1.257 1.005-2.461 1.484-3.613A221.34 221.34 0 01199.078 0h2.044a135.98 135.98 0 011.484 3.389c.493 1.152.988 2.356 1.482 3.613.495 1.256.996 2.58 1.506 3.972z" fill="url(#paint25_linear_520_6745)"/><path d="M232.313 16.25c-1.019 0-1.903-.157-2.652-.471-.749-.314-1.363-.74-1.843-1.28a5.521 5.521 0 01-1.078-1.952 8.376 8.376 0 01-.337-2.424V.363h2.18v9.515c0 1.556.344 2.685 1.033 3.388.689.704 1.588 1.055 2.697 1.055a4.34 4.34 0 001.505-.247 3.11 3.11 0 001.191-.808c.33-.359.584-.815.764-1.369.18-.568.27-1.241.27-2.02V.363h2.179v9.761a7.89 7.89 0 01-.359 2.424 5.08 5.08 0 01-1.079 1.953c-.479.538-1.094.965-1.842 1.279-.734.314-1.611.471-2.629.471z" fill="#000"/><path d="M232.313 16.25c-1.019 0-1.903-.157-2.652-.471-.749-.314-1.363-.74-1.843-1.28a5.521 5.521 0 01-1.078-1.952 8.376 8.376 0 01-.337-2.424V.363h2.18v9.515c0 1.556.344 2.685 1.033 3.388.689.704 1.588 1.055 2.697 1.055a4.34 4.34 0 001.505-.247 3.11 3.11 0 001.191-.808c.33-.359.584-.815.764-1.369.18-.568.27-1.241.27-2.02V.363h2.179v9.761a7.89 7.89 0 01-.359 2.424 5.08 5.08 0 01-1.079 1.953c-.479.538-1.094.965-1.842 1.279-.734.314-1.611.471-2.629.471z" fill="url(#paint26_linear_520_6745)"/><path d="M232.313 16.25c-1.019 0-1.903-.157-2.652-.471-.749-.314-1.363-.74-1.843-1.28a5.521 5.521 0 01-1.078-1.952 8.376 8.376 0 01-.337-2.424V.363h2.18v9.515c0 1.556.344 2.685 1.033 3.388.689.704 1.588 1.055 2.697 1.055a4.34 4.34 0 001.505-.247 3.11 3.11 0 001.191-.808c.33-.359.584-.815.764-1.369.18-.568.27-1.241.27-2.02V.363h2.179v9.761a7.89 7.89 0 01-.359 2.424 5.08 5.08 0 01-1.079 1.953c-.479.538-1.094.965-1.842 1.279-.734.314-1.611.471-2.629.471z" fill="#062633"/><path d="M232.313 16.25c-1.019 0-1.903-.157-2.652-.471-.749-.314-1.363-.74-1.843-1.28a5.521 5.521 0 01-1.078-1.952 8.376 8.376 0 01-.337-2.424V.363h2.18v9.515c0 1.556.344 2.685 1.033 3.388.689.704 1.588 1.055 2.697 1.055a4.34 4.34 0 001.505-.247 3.11 3.11 0 001.191-.808c.33-.359.584-.815.764-1.369.18-.568.27-1.241.27-2.02V.363h2.179v9.761a7.89 7.89 0 01-.359 2.424 5.08 5.08 0 01-1.079 1.953c-.479.538-1.094.965-1.842 1.279-.734.314-1.611.471-2.629.471z" fill="#005B8B"/><path d="M232.313 16.25c-1.019 0-1.903-.157-2.652-.471-.749-.314-1.363-.74-1.843-1.28a5.521 5.521 0 01-1.078-1.952 8.376 8.376 0 01-.337-2.424V.363h2.18v9.515c0 1.556.344 2.685 1.033 3.388.689.704 1.588 1.055 2.697 1.055a4.34 4.34 0 001.505-.247 3.11 3.11 0 001.191-.808c.33-.359.584-.815.764-1.369.18-.568.27-1.241.27-2.02V.363h2.179v9.761a7.89 7.89 0 01-.359 2.424 5.08 5.08 0 01-1.079 1.953c-.479.538-1.094.965-1.842 1.279-.734.314-1.611.471-2.629.471z" fill="url(#paint27_linear_520_6745)"/><path d="M115.364 15.914v-1.886h-7.19V.362h-2.18v15.552h9.37z" fill="#000"/><path d="M115.364 15.914v-1.886h-7.19V.362h-2.18v15.552h9.37z" fill="url(#paint28_linear_520_6745)"/><path d="M115.364 15.914v-1.886h-7.19V.362h-2.18v15.552h9.37z" fill="#062633"/><path d="M115.364 15.914v-1.886h-7.19V.362h-2.18v15.552h9.37z" fill="#005B8B"/><path d="M115.364 15.914v-1.886h-7.19V.362h-2.18v15.552h9.37z" fill="url(#paint29_linear_520_6745)"/><path d="M143.961 14.028v1.886h-9.37V.362h2.18v13.666h7.19z" fill="#000"/><path d="M143.961 14.028v1.886h-9.37V.362h2.18v13.666h7.19z" fill="url(#paint30_linear_520_6745)"/><path d="M143.961 14.028v1.886h-9.37V.362h2.18v13.666h7.19z" fill="#062633"/><path d="M143.961 14.028v1.886h-9.37V.362h2.18v13.666h7.19z" fill="#005B8B"/><path d="M143.961 14.028v1.886h-9.37V.362h2.18v13.666h7.19z" fill="url(#paint31_linear_520_6745)"/><path fill-rule="evenodd" clip-rule="evenodd" d="M165.669 15.821c.374.015.719.023 1.034.023 2.486 0 4.299-.39 5.437-1.167 1.154-.793 1.73-1.968 1.73-3.524 0-1.062-.269-1.885-.808-2.468-.539-.584-1.266-1.01-2.18-1.28.675-.269 1.214-.672 1.618-1.21.404-.555.607-1.258.607-2.11 0-.764-.165-1.407-.494-1.93a3.594 3.594 0 00-1.372-1.257c-.568-.33-1.25-.561-2.044-.696A14.797 14.797 0 00166.68 0a28.571 28.571 0 00-2.112.09c-.36.03-.719.067-1.079.112a8.425 8.425 0 00-.988.18v15.08c.299.075.629.135.988.18a26.296 26.296 0 002.18.18zm-1.011-1.885V8.46h2.808c.63 0 1.199.046 1.708.135.51.09.944.24 1.304.449.375.21.659.494.853.853.195.344.293.77.293 1.279 0 .569-.135 1.04-.405 1.414a2.57 2.57 0 01-1.034.875c-.434.21-.943.36-1.527.449-.57.075-1.177.112-1.821.112h-.921a37.5 37.5 0 01-.674-.045c-.225-.015-.419-.03-.584-.045zm2.292-7.226h-2.292V1.908c.254-.03.539-.053.854-.068.314-.015.749-.022 1.303-.022.554 0 1.079.045 1.572.134.495.09.922.232 1.282.427.375.18.666.426.876.74.21.3.315.674.315 1.123 0 .478-.105.875-.315 1.19a2.167 2.167 0 01-.832.762 3.632 3.632 0 01-1.235.404 9.886 9.886 0 01-1.528.112z" fill="#000"/><path fill-rule="evenodd" clip-rule="evenodd" d="M165.669 15.821c.374.015.719.023 1.034.023 2.486 0 4.299-.39 5.437-1.167 1.154-.793 1.73-1.968 1.73-3.524 0-1.062-.269-1.885-.808-2.468-.539-.584-1.266-1.01-2.18-1.28.675-.269 1.214-.672 1.618-1.21.404-.555.607-1.258.607-2.11 0-.764-.165-1.407-.494-1.93a3.594 3.594 0 00-1.372-1.257c-.568-.33-1.25-.561-2.044-.696A14.797 14.797 0 00166.68 0a28.571 28.571 0 00-2.112.09c-.36.03-.719.067-1.079.112a8.425 8.425 0 00-.988.18v15.08c.299.075.629.135.988.18a26.296 26.296 0 002.18.18zm-1.011-1.885V8.46h2.808c.63 0 1.199.046 1.708.135.51.09.944.24 1.304.449.375.21.659.494.853.853.195.344.293.77.293 1.279 0 .569-.135 1.04-.405 1.414a2.57 2.57 0 01-1.034.875c-.434.21-.943.36-1.527.449-.57.075-1.177.112-1.821.112h-.921a37.5 37.5 0 01-.674-.045c-.225-.015-.419-.03-.584-.045zm2.292-7.226h-2.292V1.908c.254-.03.539-.053.854-.068.314-.015.749-.022 1.303-.022.554 0 1.079.045 1.572.134.495.09.922.232 1.282.427.375.18.666.426.876.74.21.3.315.674.315 1.123 0 .478-.105.875-.315 1.19a2.167 2.167 0 01-.832.762 3.632 3.632 0 01-1.235.404 9.886 9.886 0 01-1.528.112z" fill="url(#paint32_linear_520_6745)"/><path fill-rule="evenodd" clip-rule="evenodd" d="M165.669 15.821c.374.015.719.023 1.034.023 2.486 0 4.299-.39 5.437-1.167 1.154-.793 1.73-1.968 1.73-3.524 0-1.062-.269-1.885-.808-2.468-.539-.584-1.266-1.01-2.18-1.28.675-.269 1.214-.672 1.618-1.21.404-.555.607-1.258.607-2.11 0-.764-.165-1.407-.494-1.93a3.594 3.594 0 00-1.372-1.257c-.568-.33-1.25-.561-2.044-.696A14.797 14.797 0 00166.68 0a28.571 28.571 0 00-2.112.09c-.36.03-.719.067-1.079.112a8.425 8.425 0 00-.988.18v15.08c.299.075.629.135.988.18a26.296 26.296 0 002.18.18zm-1.011-1.885V8.46h2.808c.63 0 1.199.046 1.708.135.51.09.944.24 1.304.449.375.21.659.494.853.853.195.344.293.77.293 1.279 0 .569-.135 1.04-.405 1.414a2.57 2.57 0 01-1.034.875c-.434.21-.943.36-1.527.449-.57.075-1.177.112-1.821.112h-.921a37.5 37.5 0 01-.674-.045c-.225-.015-.419-.03-.584-.045zm2.292-7.226h-2.292V1.908c.254-.03.539-.053.854-.068.314-.015.749-.022 1.303-.022.554 0 1.079.045 1.572.134.495.09.922.232 1.282.427.375.18.666.426.876.74.21.3.315.674.315 1.123 0 .478-.105.875-.315 1.19a2.167 2.167 0 01-.832.762 3.632 3.632 0 01-1.235.404 9.886 9.886 0 01-1.528.112z" fill="#062633"/><path fill-rule="evenodd" clip-rule="evenodd" d="M165.669 15.821c.374.015.719.023 1.034.023 2.486 0 4.299-.39 5.437-1.167 1.154-.793 1.73-1.968 1.73-3.524 0-1.062-.269-1.885-.808-2.468-.539-.584-1.266-1.01-2.18-1.28.675-.269 1.214-.672 1.618-1.21.404-.555.607-1.258.607-2.11 0-.764-.165-1.407-.494-1.93a3.594 3.594 0 00-1.372-1.257c-.568-.33-1.25-.561-2.044-.696A14.797 14.797 0 00166.68 0a28.571 28.571 0 00-2.112.09c-.36.03-.719.067-1.079.112a8.425 8.425 0 00-.988.18v15.08c.299.075.629.135.988.18a26.296 26.296 0 002.18.18zm-1.011-1.885V8.46h2.808c.63 0 1.199.046 1.708.135.51.09.944.24 1.304.449.375.21.659.494.853.853.195.344.293.77.293 1.279 0 .569-.135 1.04-.405 1.414a2.57 2.57 0 01-1.034.875c-.434.21-.943.36-1.527.449-.57.075-1.177.112-1.821.112h-.921a37.5 37.5 0 01-.674-.045c-.225-.015-.419-.03-.584-.045zm2.292-7.226h-2.292V1.908c.254-.03.539-.053.854-.068.314-.015.749-.022 1.303-.022.554 0 1.079.045 1.572.134.495.09.922.232 1.282.427.375.18.666.426.876.74.21.3.315.674.315 1.123 0 .478-.105.875-.315 1.19a2.167 2.167 0 01-.832.762 3.632 3.632 0 01-1.235.404 9.886 9.886 0 01-1.528.112z" fill="#005B8B"/><path fill-rule="evenodd" clip-rule="evenodd" d="M165.669 15.821c.374.015.719.023 1.034.023 2.486 0 4.299-.39 5.437-1.167 1.154-.793 1.73-1.968 1.73-3.524 0-1.062-.269-1.885-.808-2.468-.539-.584-1.266-1.01-2.18-1.28.675-.269 1.214-.672 1.618-1.21.404-.555.607-1.258.607-2.11 0-.764-.165-1.407-.494-1.93a3.594 3.594 0 00-1.372-1.257c-.568-.33-1.25-.561-2.044-.696A14.797 14.797 0 00166.68 0a28.571 28.571 0 00-2.112.09c-.36.03-.719.067-1.079.112a8.425 8.425 0 00-.988.18v15.08c.299.075.629.135.988.18a26.296 26.296 0 002.18.18zm-1.011-1.885V8.46h2.808c.63 0 1.199.046 1.708.135.51.09.944.24 1.304.449.375.21.659.494.853.853.195.344.293.77.293 1.279 0 .569-.135 1.04-.405 1.414a2.57 2.57 0 01-1.034.875c-.434.21-.943.36-1.527.449-.57.075-1.177.112-1.821.112h-.921a37.5 37.5 0 01-.674-.045c-.225-.015-.419-.03-.584-.045zm2.292-7.226h-2.292V1.908c.254-.03.539-.053.854-.068.314-.015.749-.022 1.303-.022.554 0 1.079.045 1.572.134.495.09.922.232 1.282.427.375.18.666.426.876.74.21.3.315.674.315 1.123 0 .478-.105.875-.315 1.19a2.167 2.167 0 01-.832.762 3.632 3.632 0 01-1.235.404 9.886 9.886 0 01-1.528.112z" fill="url(#paint33_linear_520_6745)"/><path d="M19.198 48.622h3.198L9.284 19.02h11.113s1.84 0 3.838 2.114c1.04 1.1 1.372 1.805 1.759 3.172.337 1.194.44 1.946.24 3.171-.17 1.042-.413 1.624-.96 2.521-.558.917-.997 1.377-1.839 2.033-.864.674-1.435.982-2.478 1.301-.757.232-1.999.326-1.999.326l1.44 2.846s.885-.045 1.438-.163c1.04-.22 2.015-.688 3.118-1.463 1.4-.985 2.084-1.769 2.959-3.253.786-1.336 1.104-2.206 1.359-3.741.228-1.378.245-2.203 0-3.578-.41-2.292-1.12-3.618-2.719-5.286-3.118-3.253-6.396-3.253-6.396-3.253l-15.695.066 14.736 32.788z" fill="#000"/><path d="M19.198 48.622h3.198L9.284 19.02h11.113s1.84 0 3.838 2.114c1.04 1.1 1.372 1.805 1.759 3.172.337 1.194.44 1.946.24 3.171-.17 1.042-.413 1.624-.96 2.521-.558.917-.997 1.377-1.839 2.033-.864.674-1.435.982-2.478 1.301-.757.232-1.999.326-1.999.326l1.44 2.846s.885-.045 1.438-.163c1.04-.22 2.015-.688 3.118-1.463 1.4-.985 2.084-1.769 2.959-3.253.786-1.336 1.104-2.206 1.359-3.741.228-1.378.245-2.203 0-3.578-.41-2.292-1.12-3.618-2.719-5.286-3.118-3.253-6.396-3.253-6.396-3.253l-15.695.066 14.736 32.788z" fill="url(#paint34_linear_520_6745)"/><path d="M19.198 48.622h3.198L9.284 19.02h11.113s1.84 0 3.838 2.114c1.04 1.1 1.372 1.805 1.759 3.172.337 1.194.44 1.946.24 3.171-.17 1.042-.413 1.624-.96 2.521-.558.917-.997 1.377-1.839 2.033-.864.674-1.435.982-2.478 1.301-.757.232-1.999.326-1.999.326l1.44 2.846s.885-.045 1.438-.163c1.04-.22 2.015-.688 3.118-1.463 1.4-.985 2.084-1.769 2.959-3.253.786-1.336 1.104-2.206 1.359-3.741.228-1.378.245-2.203 0-3.578-.41-2.292-1.12-3.618-2.719-5.286-3.118-3.253-6.396-3.253-6.396-3.253l-15.695.066 14.736 32.788z" fill="#062633"/><path d="M19.198 48.622h3.198L9.284 19.02h11.113s1.84 0 3.838 2.114c1.04 1.1 1.372 1.805 1.759 3.172.337 1.194.44 1.946.24 3.171-.17 1.042-.413 1.624-.96 2.521-.558.917-.997 1.377-1.839 2.033-.864.674-1.435.982-2.478 1.301-.757.232-1.999.326-1.999.326l1.44 2.846s.885-.045 1.438-.163c1.04-.22 2.015-.688 3.118-1.463 1.4-.985 2.084-1.769 2.959-3.253.786-1.336 1.104-2.206 1.359-3.741.228-1.378.245-2.203 0-3.578-.41-2.292-1.12-3.618-2.719-5.286-3.118-3.253-6.396-3.253-6.396-3.253l-15.695.066 14.736 32.788z" fill="#005B8B"/><path d="M19.198 48.622h3.198L9.284 19.02h11.113s1.84 0 3.838 2.114c1.04 1.1 1.372 1.805 1.759 3.172.337 1.194.44 1.946.24 3.171-.17 1.042-.413 1.624-.96 2.521-.558.917-.997 1.377-1.839 2.033-.864.674-1.435.982-2.478 1.301-.757.232-1.999.326-1.999.326l1.44 2.846s.885-.045 1.438-.163c1.04-.22 2.015-.688 3.118-1.463 1.4-.985 2.084-1.769 2.959-3.253.786-1.336 1.104-2.206 1.359-3.741.228-1.378.245-2.203 0-3.578-.41-2.292-1.12-3.618-2.719-5.286-3.118-3.253-6.396-3.253-6.396-3.253l-15.695.066 14.736 32.788z" fill="url(#paint35_linear_520_6745)"/><path d="M1.24 15.834H0l14.783 32.788h1.173L1.239 15.834z" fill="#000"/><path d="M1.24 15.834H0l14.783 32.788h1.173L1.239 15.834z" fill="url(#paint36_linear_520_6745)"/><path d="M1.24 15.834H0l14.783 32.788h1.173L1.239 15.834z" fill="#062633"/><path d="M1.24 15.834H0l14.783 32.788h1.173L1.239 15.834z" fill="#005B8B"/><path d="M1.24 15.834H0l14.783 32.788h1.173L1.239 15.834z" fill="url(#paint37_linear_520_6745)"/><path d="M35.62 6.053A545.664 545.664 0 0133.665.078c-.57 0-1.141 0-1.875-.078.04.078.061.175.082.272.02.097.04.194.081.271a58599.374 58599.374 0 0022.256 63.404c.407 1.164.407 1.164 1.956.931-.04-.155-.081-.29-.122-.427-.04-.135-.082-.271-.123-.426L35.621 6.053z" fill="#000"/><path d="M35.62 6.053A545.664 545.664 0 0133.665.078c-.57 0-1.141 0-1.875-.078.04.078.061.175.082.272.02.097.04.194.081.271a58599.374 58599.374 0 0022.256 63.404c.407 1.164.407 1.164 1.956.931-.04-.155-.081-.29-.122-.427-.04-.135-.082-.271-.123-.426L35.621 6.053z" fill="url(#paint38_linear_520_6745)"/><path d="M35.62 6.053A545.664 545.664 0 0133.665.078c-.57 0-1.141 0-1.875-.078.04.078.061.175.082.272.02.097.04.194.081.271a58599.374 58599.374 0 0022.256 63.404c.407 1.164.407 1.164 1.956.931-.04-.155-.081-.29-.122-.427-.04-.135-.082-.271-.123-.426L35.621 6.053z" fill="#062633"/><path d="M35.62 6.053A545.664 545.664 0 0133.665.078c-.57 0-1.141 0-1.875-.078.04.078.061.175.082.272.02.097.04.194.081.271a58599.374 58599.374 0 0022.256 63.404c.407 1.164.407 1.164 1.956.931-.04-.155-.081-.29-.122-.427-.04-.135-.082-.271-.123-.426L35.621 6.053z" fill="#005B8B"/><path d="M35.62 6.053A545.664 545.664 0 0133.665.078c-.57 0-1.141 0-1.875-.078.04.078.061.175.082.272.02.097.04.194.081.271a58599.374 58599.374 0 0022.256 63.404c.407 1.164.407 1.164 1.956.931-.04-.155-.081-.29-.122-.427-.04-.135-.082-.271-.123-.426L35.621 6.053z" fill="url(#paint39_linear_520_6745)"/><defs><linearGradient id="paint0_linear_520_6745" x1="58.075" y1="74.063" x2="33.768" y2="74.031" gradientUnits="userSpaceOnUse"><stop stop-color="#FA3901"/><stop offset="1" stop-color="#FF8902"/></linearGradient><linearGradient id="paint1_linear_520_6745" x1="404.776" y1="65.033" x2="276.091" y2="221.81" gradientUnits="userSpaceOnUse"><stop stop-color="#FA3901"/><stop offset="1" stop-color="#FF8902"/></linearGradient><linearGradient id="paint2_linear_520_6745" x1="58.075" y1="74.063" x2="33.768" y2="74.031" gradientUnits="userSpaceOnUse"><stop stop-color="#FA3901"/><stop offset="1" stop-color="#FF8902"/></linearGradient><linearGradient id="paint3_linear_520_6745" x1="404.776" y1="65.033" x2="276.091" y2="221.81" gradientUnits="userSpaceOnUse"><stop stop-color="#FA3901"/><stop offset="1" stop-color="#FF8902"/></linearGradient><linearGradient id="paint4_linear_520_6745" x1="58.075" y1="74.063" x2="33.768" y2="74.031" gradientUnits="userSpaceOnUse"><stop stop-color="#FA3901"/><stop offset="1" stop-color="#FF8902"/></linearGradient><linearGradient id="paint5_linear_520_6745" x1="404.776" y1="65.033" x2="276.091" y2="221.81" gradientUnits="userSpaceOnUse"><stop stop-color="#FA3901"/><stop offset="1" stop-color="#FF8902"/></linearGradient><linearGradient id="paint6_linear_520_6745" x1="58.075" y1="74.063" x2="33.768" y2="74.031" gradientUnits="userSpaceOnUse"><stop stop-color="#FA3901"/><stop offset="1" stop-color="#FF8902"/></linearGradient><linearGradient id="paint7_linear_520_6745" x1="404.776" y1="65.033" x2="276.091" y2="221.81" gradientUnits="userSpaceOnUse"><stop stop-color="#FA3901"/><stop offset="1" stop-color="#FF8902"/></linearGradient><linearGradient id="paint8_linear_520_6745" x1="58.075" y1="74.063" x2="33.768" y2="74.031" gradientUnits="userSpaceOnUse"><stop stop-color="#FA3901"/><stop offset="1" stop-color="#FF8902"/></linearGradient><linearGradient id="paint9_linear_520_6745" x1="404.776" y1="65.033" x2="276.091" y2="221.81" gradientUnits="userSpaceOnUse"><stop stop-color="#FA3901"/><stop offset="1" stop-color="#FF8902"/></linearGradient><linearGradient id="paint10_linear_520_6745" x1="58.075" y1="74.063" x2="33.768" y2="74.031" gradientUnits="userSpaceOnUse"><stop stop-color="#FA3901"/><stop offset="1" stop-color="#FF8902"/></linearGradient><linearGradient id="paint11_linear_520_6745" x1="404.776" y1="65.033" x2="276.091" y2="221.81" gradientUnits="userSpaceOnUse"><stop stop-color="#FA3901"/><stop offset="1" stop-color="#FF8902"/></linearGradient><linearGradient id="paint12_linear_520_6745" x1="58.075" y1="74.063" x2="33.768" y2="74.031" gradientUnits="userSpaceOnUse"><stop stop-color="#FA3901"/><stop offset="1" stop-color="#FF8902"/></linearGradient><linearGradient id="paint13_linear_520_6745" x1="404.776" y1="65.033" x2="276.091" y2="221.81" gradientUnits="userSpaceOnUse"><stop stop-color="#FA3901"/><stop offset="1" stop-color="#FF8902"/></linearGradient><linearGradient id="paint14_linear_520_6745" x1="58.075" y1="74.063" x2="33.768" y2="74.031" gradientUnits="userSpaceOnUse"><stop stop-color="#FA3901"/><stop offset="1" stop-color="#FF8902"/></linearGradient><linearGradient id="paint15_linear_520_6745" x1="404.776" y1="65.033" x2="276.091" y2="221.81" gradientUnits="userSpaceOnUse"><stop stop-color="#FA3901"/><stop offset="1" stop-color="#FF8902"/></linearGradient><linearGradient id="paint16_linear_520_6745" x1="58.075" y1="74.063" x2="33.768" y2="74.031" gradientUnits="userSpaceOnUse"><stop stop-color="#FA3901"/><stop offset="1" stop-color="#FF8902"/></linearGradient><linearGradient id="paint17_linear_520_6745" x1="404.776" y1="65.033" x2="276.091" y2="221.81" gradientUnits="userSpaceOnUse"><stop stop-color="#FA3901"/><stop offset="1" stop-color="#FF8902"/></linearGradient><linearGradient id="paint18_linear_520_6745" x1="58.075" y1="74.063" x2="33.768" y2="74.031" gradientUnits="userSpaceOnUse"><stop stop-color="#FA3901"/><stop offset="1" stop-color="#FF8902"/></linearGradient><linearGradient id="paint19_linear_520_6745" x1="404.776" y1="65.033" x2="276.091" y2="221.81" gradientUnits="userSpaceOnUse"><stop stop-color="#FA3901"/><stop offset="1" stop-color="#FF8902"/></linearGradient><linearGradient id="paint20_linear_520_6745" x1="58.075" y1="74.063" x2="33.768" y2="74.031" gradientUnits="userSpaceOnUse"><stop stop-color="#FA3901"/><stop offset="1" stop-color="#FF8902"/></linearGradient><linearGradient id="paint21_linear_520_6745" x1="404.776" y1="65.033" x2="276.091" y2="221.81" gradientUnits="userSpaceOnUse"><stop stop-color="#FA3901"/><stop offset="1" stop-color="#FF8902"/></linearGradient><linearGradient id="paint22_linear_520_6745" x1="58.075" y1="74.063" x2="33.768" y2="74.031" gradientUnits="userSpaceOnUse"><stop stop-color="#FA3901"/><stop offset="1" stop-color="#FF8902"/></linearGradient><linearGradient id="paint23_linear_520_6745" x1="404.776" y1="65.033" x2="276.091" y2="221.81" gradientUnits="userSpaceOnUse"><stop stop-color="#FA3901"/><stop offset="1" stop-color="#FF8902"/></linearGradient><linearGradient id="paint24_linear_520_6745" x1="58.075" y1="74.063" x2="33.768" y2="74.031" gradientUnits="userSpaceOnUse"><stop stop-color="#FA3901"/><stop offset="1" stop-color="#FF8902"/></linearGradient><linearGradient id="paint25_linear_520_6745" x1="404.776" y1="65.033" x2="276.091" y2="221.81" gradientUnits="userSpaceOnUse"><stop stop-color="#FA3901"/><stop offset="1" stop-color="#FF8902"/></linearGradient><linearGradient id="paint26_linear_520_6745" x1="58.075" y1="74.063" x2="33.768" y2="74.031" gradientUnits="userSpaceOnUse"><stop stop-color="#FA3901"/><stop offset="1" stop-color="#FF8902"/></linearGradient><linearGradient id="paint27_linear_520_6745" x1="404.776" y1="65.033" x2="276.091" y2="221.81" gradientUnits="userSpaceOnUse"><stop stop-color="#FA3901"/><stop offset="1" stop-color="#FF8902"/></linearGradient><linearGradient id="paint28_linear_520_6745" x1="58.075" y1="74.063" x2="33.768" y2="74.031" gradientUnits="userSpaceOnUse"><stop stop-color="#FA3901"/><stop offset="1" stop-color="#FF8902"/></linearGradient><linearGradient id="paint29_linear_520_6745" x1="404.776" y1="65.033" x2="276.091" y2="221.81" gradientUnits="userSpaceOnUse"><stop stop-color="#FA3901"/><stop offset="1" stop-color="#FF8902"/></linearGradient><linearGradient id="paint30_linear_520_6745" x1="58.075" y1="74.063" x2="33.768" y2="74.031" gradientUnits="userSpaceOnUse"><stop stop-color="#FA3901"/><stop offset="1" stop-color="#FF8902"/></linearGradient><linearGradient id="paint31_linear_520_6745" x1="404.776" y1="65.033" x2="276.091" y2="221.81" gradientUnits="userSpaceOnUse"><stop stop-color="#FA3901"/><stop offset="1" stop-color="#FF8902"/></linearGradient><linearGradient id="paint32_linear_520_6745" x1="58.075" y1="74.063" x2="33.768" y2="74.031" gradientUnits="userSpaceOnUse"><stop stop-color="#FA3901"/><stop offset="1" stop-color="#FF8902"/></linearGradient><linearGradient id="paint33_linear_520_6745" x1="404.776" y1="65.033" x2="276.091" y2="221.81" gradientUnits="userSpaceOnUse"><stop stop-color="#FA3901"/><stop offset="1" stop-color="#FF8902"/></linearGradient><linearGradient id="paint34_linear_520_6745" x1="58.075" y1="74.063" x2="33.768" y2="74.031" gradientUnits="userSpaceOnUse"><stop stop-color="#FA3901"/><stop offset="1" stop-color="#FF8902"/></linearGradient><linearGradient id="paint35_linear_520_6745" x1="404.776" y1="65.033" x2="276.091" y2="221.81" gradientUnits="userSpaceOnUse"><stop stop-color="#FA3901"/><stop offset="1" stop-color="#FF8902"/></linearGradient><linearGradient id="paint36_linear_520_6745" x1="58.075" y1="74.063" x2="33.768" y2="74.031" gradientUnits="userSpaceOnUse"><stop stop-color="#FA3901"/><stop offset="1" stop-color="#FF8902"/></linearGradient><linearGradient id="paint37_linear_520_6745" x1="404.776" y1="65.033" x2="276.091" y2="221.81" gradientUnits="userSpaceOnUse"><stop stop-color="#FA3901"/><stop offset="1" stop-color="#FF8902"/></linearGradient><linearGradient id="paint38_linear_520_6745" x1="58.075" y1="74.063" x2="33.768" y2="74.031" gradientUnits="userSpaceOnUse"><stop stop-color="#FA3901"/><stop offset="1" stop-color="#FF8902"/></linearGradient><linearGradient id="paint39_linear_520_6745" x1="404.776" y1="65.033" x2="276.091" y2="221.81" gradientUnits="userSpaceOnUse"><stop stop-color="#FA3901"/><stop offset="1" stop-color="#FF8902"/></linearGradient></defs></svg>