<svg width="194" height="40" fill="none" xmlns="http://www.w3.org/2000/svg"><path fill-rule="evenodd" clip-rule="evenodd" d="M26.182.048c.375 1.241.75 2.483 1.124 3.677l7.164 21.92L38.965 39.4c.023.095.047.179.07.263.024.083.047.167.07.262-.89.143-.89.143-1.123-.573l-.001-.002C33.72 26.36 29.46 13.37 25.199.333a.695.695 0 01-.047-.167.695.695 0 00-.047-.167c.422.048.75.048 1.077.048zm-5.075 30.785L13.07 9.167h1.497l8.036 21.666h-1.497zm-10.66-17.872l6.351 17.872h3.206L11.761 9.167H9.166L.937 30.833h3.191l6.32-17.872zm5.225-3.794l8.036 21.666h1.497L17.17 9.167h-1.497zM52.398 38l1.383-3.973h6.61L61.785 38h3.094l-6.457-17.063h-2.66L49.316 38h3.082zm4.688-13.441l2.473 7.078h-4.946l2.473-7.078zm24.17 11.074h-7.747V20.937h-2.965V38h10.711v-2.367zm16.704 0h-7.747V20.937H87.25V38h10.71v-2.367zm16.247 1.078c1.172-1.023 1.844-2.445 2.016-4.266h-2.954c-.156 1.22-.527 2.09-1.113 2.614-.586.523-1.461.785-2.625.785-1.273 0-2.242-.485-2.906-1.453-.656-.97-.985-2.375-.985-4.22v-1.51c.016-1.821.368-3.2 1.055-4.138.695-.945 1.688-1.418 2.977-1.418 1.109 0 1.949.274 2.519.82.578.54.938 1.423 1.078 2.65h2.954c-.188-1.868-.856-3.313-2.004-4.337-1.149-1.023-2.664-1.535-4.547-1.535-1.399 0-2.633.332-3.703.996-1.063.664-1.879 1.61-2.45 2.836-.57 1.227-.855 2.645-.855 4.254v1.594c.023 1.57.316 2.949.879 4.137.562 1.187 1.359 2.105 2.39 2.753 1.04.641 2.239.961 3.598.961 1.945 0 3.504-.507 4.676-1.523zM133.196 38h2.954V20.937h-2.954v7.102h-7.629v-7.102h-2.964V38h2.964v-7.582h7.629V38zm13.154-7.617h7.008v-2.344h-7.008v-4.71h8.109v-2.392h-11.074V38h11.156v-2.367h-8.191v-5.25zm25.329 6.328c1.172-1.023 1.844-2.445 2.016-4.266h-2.953c-.156 1.22-.527 2.09-1.113 2.614-.586.523-1.461.785-2.625.785-1.274 0-2.243-.485-2.907-1.453-.656-.97-.984-2.375-.984-4.22v-1.51c.016-1.821.367-3.2 1.055-4.138.695-.945 1.687-1.418 2.976-1.418 1.11 0 1.949.274 2.52.82.578.54.937 1.423 1.078 2.65h2.953c-.187-1.868-.855-3.313-2.004-4.337-1.148-1.023-2.664-1.535-4.547-1.535-1.398 0-2.633.332-3.703.996-1.062.664-1.879 1.61-2.449 2.836-.57 1.227-.856 2.645-.856 4.254v1.594c.024 1.57.317 2.949.879 4.137.563 1.187 1.36 2.105 2.391 2.753 1.039.641 2.238.961 3.598.961 1.945 0 3.504-.507 4.675-1.523zm11.361-4.031l1.934-2.051L190.106 38h3.516l-6.703-9.504 6.34-7.558h-3.586l-4.992 5.976-1.641 2.027v-8.003h-2.965V38h2.965v-5.32zM57.9 9.57c-.35-1.012-.687-1.951-1.01-2.817-.313-.856-.621-1.67-.926-2.444a78.487 78.487 0 00-.912-2.224c-.295-.7-.6-1.395-.913-2.085h-1.258c-.314.69-.623 1.386-.927 2.085-.295.71-.6 1.45-.913 2.224-.304.773-.617 1.588-.94 2.444a93.746 93.746 0 00-.995 2.817h1.48c.497-1.454.986-2.854 1.465-4.198.48-1.344.972-2.605 1.48-3.784a61.6 61.6 0 011.48 3.77c.478 1.354.962 2.758 1.451 4.212H57.9zm73.162-2.817c.322.866.659 1.805 1.009 2.817h-1.438a270.149 270.149 0 00-1.452-4.212 60.741 60.741 0 00-1.479-3.77 62.972 62.972 0 00-1.48 3.784 341.87 341.87 0 00-1.466 4.198h-1.479c.341-1.012.672-1.951.995-2.817.323-.856.636-1.67.94-2.444.314-.774.618-1.515.913-2.224.304-.7.613-1.395.927-2.085h1.258c.314.69.618 1.386.913 2.085.304.71.608 1.45.912 2.224.304.773.613 1.588.927 2.444zM147.504 10c-.627 0-1.171-.096-1.632-.29a3.097 3.097 0 01-1.134-.787 3.382 3.382 0 01-.663-1.202 5.136 5.136 0 01-.208-1.491V.223h1.342v5.855c0 .958.211 1.653.636 2.085.424.433.977.65 1.659.65.341 0 .65-.051.927-.152.285-.11.53-.277.733-.498a2.26 2.26 0 00.47-.842c.11-.35.166-.764.166-1.243V.223h1.341V6.23c0 .534-.074 1.031-.221 1.491a3.15 3.15 0 01-.664 1.202 3.089 3.089 0 01-1.134.787c-.452.194-.991.29-1.618.29zm-71.968-.207v-1.16h-4.425V.223H69.77v9.57h5.766zm17.598-1.16v1.16h-5.766V.223h1.341v8.41h4.425zm13.784 1.228c.231.01.443.014.636.014 1.531 0 2.646-.24 3.347-.718.71-.488 1.064-1.21 1.064-2.168 0-.654-.165-1.16-.497-1.52-.332-.358-.779-.62-1.342-.786a2.26 2.26 0 00.996-.746c.249-.34.373-.773.373-1.298 0-.47-.101-.866-.304-1.188a2.215 2.215 0 00-.843-.773 3.75 3.75 0 00-1.259-.428 9.094 9.094 0 00-1.548-.125 17.648 17.648 0 00-1.3.055c-.222.019-.443.042-.664.07a5.182 5.182 0 00-.608.11v9.28c.184.046.387.083.608.11a15.85 15.85 0 001.341.111zm-.622-1.16v-3.37h1.728c.388 0 .738.028 1.051.084.314.055.581.147.803.276.23.129.405.304.525.525.12.211.18.474.18.787 0 .35-.083.64-.249.87a1.59 1.59 0 01-.636.538 3.31 3.31 0 01-.94.277 8.636 8.636 0 01-1.121.069h-.567l-.414-.028c-.139-.01-.258-.018-.36-.028zm1.41-4.447h-1.41V1.3a7.78 7.78 0 01.525-.041c.194-.01.462-.014.803-.014a5.4 5.4 0 01.967.083c.305.055.568.143.789.262.231.11.41.263.539.456.129.184.194.414.194.69 0 .295-.065.54-.194.732-.12.194-.29.35-.512.47-.212.12-.465.202-.76.248a6.082 6.082 0 01-.941.07z" fill="#000"/><path fill-rule="evenodd" clip-rule="evenodd" d="M26.182.048c.375 1.241.75 2.483 1.124 3.677l7.164 21.92L38.965 39.4c.023.095.047.179.07.263.024.083.047.167.07.262-.89.143-.89.143-1.123-.573l-.001-.002C33.72 26.36 29.46 13.37 25.199.333a.695.695 0 01-.047-.167.695.695 0 00-.047-.167c.422.048.75.048 1.077.048zm-5.075 30.785L13.07 9.167h1.497l8.036 21.666h-1.497zm-10.66-17.872l6.351 17.872h3.206L11.761 9.167H9.166L.937 30.833h3.191l6.32-17.872zm5.225-3.794l8.036 21.666h1.497L17.17 9.167h-1.497zM52.398 38l1.383-3.973h6.61L61.785 38h3.094l-6.457-17.063h-2.66L49.316 38h3.082zm4.688-13.441l2.473 7.078h-4.946l2.473-7.078zm24.17 11.074h-7.747V20.937h-2.965V38h10.711v-2.367zm16.704 0h-7.747V20.937H87.25V38h10.71v-2.367zm16.247 1.078c1.172-1.023 1.844-2.445 2.016-4.266h-2.954c-.156 1.22-.527 2.09-1.113 2.614-.586.523-1.461.785-2.625.785-1.273 0-2.242-.485-2.906-1.453-.656-.97-.985-2.375-.985-4.22v-1.51c.016-1.821.368-3.2 1.055-4.138.695-.945 1.688-1.418 2.977-1.418 1.109 0 1.949.274 2.519.82.578.54.938 1.423 1.078 2.65h2.954c-.188-1.868-.856-3.313-2.004-4.337-1.149-1.023-2.664-1.535-4.547-1.535-1.399 0-2.633.332-3.703.996-1.063.664-1.879 1.61-2.45 2.836-.57 1.227-.855 2.645-.855 4.254v1.594c.023 1.57.316 2.949.879 4.137.562 1.187 1.359 2.105 2.39 2.753 1.04.641 2.239.961 3.598.961 1.945 0 3.504-.507 4.676-1.523zM133.196 38h2.954V20.937h-2.954v7.102h-7.629v-7.102h-2.964V38h2.964v-7.582h7.629V38zm13.154-7.617h7.008v-2.344h-7.008v-4.71h8.109v-2.392h-11.074V38h11.156v-2.367h-8.191v-5.25zm25.329 6.328c1.172-1.023 1.844-2.445 2.016-4.266h-2.953c-.156 1.22-.527 2.09-1.113 2.614-.586.523-1.461.785-2.625.785-1.274 0-2.243-.485-2.907-1.453-.656-.97-.984-2.375-.984-4.22v-1.51c.016-1.821.367-3.2 1.055-4.138.695-.945 1.687-1.418 2.976-1.418 1.11 0 1.949.274 2.52.82.578.54.937 1.423 1.078 2.65h2.953c-.187-1.868-.855-3.313-2.004-4.337-1.148-1.023-2.664-1.535-4.547-1.535-1.398 0-2.633.332-3.703.996-1.062.664-1.879 1.61-2.449 2.836-.57 1.227-.856 2.645-.856 4.254v1.594c.024 1.57.317 2.949.879 4.137.563 1.187 1.36 2.105 2.391 2.753 1.039.641 2.238.961 3.598.961 1.945 0 3.504-.507 4.675-1.523zm11.361-4.031l1.934-2.051L190.106 38h3.516l-6.703-9.504 6.34-7.558h-3.586l-4.992 5.976-1.641 2.027v-8.003h-2.965V38h2.965v-5.32zM57.9 9.57c-.35-1.012-.687-1.951-1.01-2.817-.313-.856-.621-1.67-.926-2.444a78.487 78.487 0 00-.912-2.224c-.295-.7-.6-1.395-.913-2.085h-1.258c-.314.69-.623 1.386-.927 2.085-.295.71-.6 1.45-.913 2.224-.304.773-.617 1.588-.94 2.444a93.746 93.746 0 00-.995 2.817h1.48c.497-1.454.986-2.854 1.465-4.198.48-1.344.972-2.605 1.48-3.784a61.6 61.6 0 011.48 3.77c.478 1.354.962 2.758 1.451 4.212H57.9zm73.162-2.817c.322.866.659 1.805 1.009 2.817h-1.438a270.149 270.149 0 00-1.452-4.212 60.741 60.741 0 00-1.479-3.77 62.972 62.972 0 00-1.48 3.784 341.87 341.87 0 00-1.466 4.198h-1.479c.341-1.012.672-1.951.995-2.817.323-.856.636-1.67.94-2.444.314-.774.618-1.515.913-2.224.304-.7.613-1.395.927-2.085h1.258c.314.69.618 1.386.913 2.085.304.71.608 1.45.912 2.224.304.773.613 1.588.927 2.444zM147.504 10c-.627 0-1.171-.096-1.632-.29a3.097 3.097 0 01-1.134-.787 3.382 3.382 0 01-.663-1.202 5.136 5.136 0 01-.208-1.491V.223h1.342v5.855c0 .958.211 1.653.636 2.085.424.433.977.65 1.659.65.341 0 .65-.051.927-.152.285-.11.53-.277.733-.498a2.26 2.26 0 00.47-.842c.11-.35.166-.764.166-1.243V.223h1.341V6.23c0 .534-.074 1.031-.221 1.491a3.15 3.15 0 01-.664 1.202 3.089 3.089 0 01-1.134.787c-.452.194-.991.29-1.618.29zm-71.968-.207v-1.16h-4.425V.223H69.77v9.57h5.766zm17.598-1.16v1.16h-5.766V.223h1.341v8.41h4.425zm13.784 1.228c.231.01.443.014.636.014 1.531 0 2.646-.24 3.347-.718.71-.488 1.064-1.21 1.064-2.168 0-.654-.165-1.16-.497-1.52-.332-.358-.779-.62-1.342-.786a2.26 2.26 0 00.996-.746c.249-.34.373-.773.373-1.298 0-.47-.101-.866-.304-1.188a2.215 2.215 0 00-.843-.773 3.75 3.75 0 00-1.259-.428 9.094 9.094 0 00-1.548-.125 17.648 17.648 0 00-1.3.055c-.222.019-.443.042-.664.07a5.182 5.182 0 00-.608.11v9.28c.184.046.387.083.608.11a15.85 15.85 0 001.341.111zm-.622-1.16v-3.37h1.728c.388 0 .738.028 1.051.084.314.055.581.147.803.276.23.129.405.304.525.525.12.211.18.474.18.787 0 .35-.083.64-.249.87a1.59 1.59 0 01-.636.538 3.31 3.31 0 01-.94.277 8.636 8.636 0 01-1.121.069h-.567l-.414-.028c-.139-.01-.258-.018-.36-.028zm1.41-4.447h-1.41V1.3a7.78 7.78 0 01.525-.041c.194-.01.462-.014.803-.014a5.4 5.4 0 01.967.083c.305.055.568.143.789.262.231.11.41.263.539.456.129.184.194.414.194.69 0 .295-.065.54-.194.732-.12.194-.29.35-.512.47-.212.12-.465.202-.76.248a6.082 6.082 0 01-.941.07z" fill="#062633"/><path fill-rule="evenodd" clip-rule="evenodd" d="M26.182.048c.375 1.241.75 2.483 1.124 3.677l7.164 21.92L38.965 39.4c.023.095.047.179.07.263.024.083.047.167.07.262-.89.143-.89.143-1.123-.573l-.001-.002C33.72 26.36 29.46 13.37 25.199.333a.695.695 0 01-.047-.167.695.695 0 00-.047-.167c.422.048.75.048 1.077.048zm-5.075 30.785L13.07 9.167h1.497l8.036 21.666h-1.497zm-10.66-17.872l6.351 17.872h3.206L11.761 9.167H9.166L.937 30.833h3.191l6.32-17.872zm5.225-3.794l8.036 21.666h1.497L17.17 9.167h-1.497zM52.398 38l1.383-3.973h6.61L61.785 38h3.094l-6.457-17.063h-2.66L49.316 38h3.082zm4.688-13.441l2.473 7.078h-4.946l2.473-7.078zm24.17 11.074h-7.747V20.937h-2.965V38h10.711v-2.367zm16.704 0h-7.747V20.937H87.25V38h10.71v-2.367zm16.247 1.078c1.172-1.023 1.844-2.445 2.016-4.266h-2.954c-.156 1.22-.527 2.09-1.113 2.614-.586.523-1.461.785-2.625.785-1.273 0-2.242-.485-2.906-1.453-.656-.97-.985-2.375-.985-4.22v-1.51c.016-1.821.368-3.2 1.055-4.138.695-.945 1.688-1.418 2.977-1.418 1.109 0 1.949.274 2.519.82.578.54.938 1.423 1.078 2.65h2.954c-.188-1.868-.856-3.313-2.004-4.337-1.149-1.023-2.664-1.535-4.547-1.535-1.399 0-2.633.332-3.703.996-1.063.664-1.879 1.61-2.45 2.836-.57 1.227-.855 2.645-.855 4.254v1.594c.023 1.57.316 2.949.879 4.137.562 1.187 1.359 2.105 2.39 2.753 1.04.641 2.239.961 3.598.961 1.945 0 3.504-.507 4.676-1.523zM133.196 38h2.954V20.937h-2.954v7.102h-7.629v-7.102h-2.964V38h2.964v-7.582h7.629V38zm13.154-7.617h7.008v-2.344h-7.008v-4.71h8.109v-2.392h-11.074V38h11.156v-2.367h-8.191v-5.25zm25.329 6.328c1.172-1.023 1.844-2.445 2.016-4.266h-2.953c-.156 1.22-.527 2.09-1.113 2.614-.586.523-1.461.785-2.625.785-1.274 0-2.243-.485-2.907-1.453-.656-.97-.984-2.375-.984-4.22v-1.51c.016-1.821.367-3.2 1.055-4.138.695-.945 1.687-1.418 2.976-1.418 1.11 0 1.949.274 2.52.82.578.54.937 1.423 1.078 2.65h2.953c-.187-1.868-.855-3.313-2.004-4.337-1.148-1.023-2.664-1.535-4.547-1.535-1.398 0-2.633.332-3.703.996-1.062.664-1.879 1.61-2.449 2.836-.57 1.227-.856 2.645-.856 4.254v1.594c.024 1.57.317 2.949.879 4.137.563 1.187 1.36 2.105 2.391 2.753 1.039.641 2.238.961 3.598.961 1.945 0 3.504-.507 4.675-1.523zm11.361-4.031l1.934-2.051L190.106 38h3.516l-6.703-9.504 6.34-7.558h-3.586l-4.992 5.976-1.641 2.027v-8.003h-2.965V38h2.965v-5.32zM57.9 9.57c-.35-1.012-.687-1.951-1.01-2.817-.313-.856-.621-1.67-.926-2.444a78.487 78.487 0 00-.912-2.224c-.295-.7-.6-1.395-.913-2.085h-1.258c-.314.69-.623 1.386-.927 2.085-.295.71-.6 1.45-.913 2.224-.304.773-.617 1.588-.94 2.444a93.746 93.746 0 00-.995 2.817h1.48c.497-1.454.986-2.854 1.465-4.198.48-1.344.972-2.605 1.48-3.784a61.6 61.6 0 011.48 3.77c.478 1.354.962 2.758 1.451 4.212H57.9zm73.162-2.817c.322.866.659 1.805 1.009 2.817h-1.438a270.149 270.149 0 00-1.452-4.212 60.741 60.741 0 00-1.479-3.77 62.972 62.972 0 00-1.48 3.784 341.87 341.87 0 00-1.466 4.198h-1.479c.341-1.012.672-1.951.995-2.817.323-.856.636-1.67.94-2.444.314-.774.618-1.515.913-2.224.304-.7.613-1.395.927-2.085h1.258c.314.69.618 1.386.913 2.085.304.71.608 1.45.912 2.224.304.773.613 1.588.927 2.444zM147.504 10c-.627 0-1.171-.096-1.632-.29a3.097 3.097 0 01-1.134-.787 3.382 3.382 0 01-.663-1.202 5.136 5.136 0 01-.208-1.491V.223h1.342v5.855c0 .958.211 1.653.636 2.085.424.433.977.65 1.659.65.341 0 .65-.051.927-.152.285-.11.53-.277.733-.498a2.26 2.26 0 00.47-.842c.11-.35.166-.764.166-1.243V.223h1.341V6.23c0 .534-.074 1.031-.221 1.491a3.15 3.15 0 01-.664 1.202 3.089 3.089 0 01-1.134.787c-.452.194-.991.29-1.618.29zm-71.968-.207v-1.16h-4.425V.223H69.77v9.57h5.766zm17.598-1.16v1.16h-5.766V.223h1.341v8.41h4.425zm13.784 1.228c.231.01.443.014.636.014 1.531 0 2.646-.24 3.347-.718.71-.488 1.064-1.21 1.064-2.168 0-.654-.165-1.16-.497-1.52-.332-.358-.779-.62-1.342-.786a2.26 2.26 0 00.996-.746c.249-.34.373-.773.373-1.298 0-.47-.101-.866-.304-1.188a2.215 2.215 0 00-.843-.773 3.75 3.75 0 00-1.259-.428 9.094 9.094 0 00-1.548-.125 17.648 17.648 0 00-1.3.055c-.222.019-.443.042-.664.07a5.182 5.182 0 00-.608.11v9.28c.184.046.387.083.608.11a15.85 15.85 0 001.341.111zm-.622-1.16v-3.37h1.728c.388 0 .738.028 1.051.084.314.055.581.147.803.276.23.129.405.304.525.525.12.211.18.474.18.787 0 .35-.083.64-.249.87a1.59 1.59 0 01-.636.538 3.31 3.31 0 01-.94.277 8.636 8.636 0 01-1.121.069h-.567l-.414-.028c-.139-.01-.258-.018-.36-.028zm1.41-4.447h-1.41V1.3a7.78 7.78 0 01.525-.041c.194-.01.462-.014.803-.014a5.4 5.4 0 01.967.083c.305.055.568.143.789.262.231.11.41.263.539.456.129.184.194.414.194.69 0 .295-.065.54-.194.732-.12.194-.29.35-.512.47-.212.12-.465.202-.76.248a6.082 6.082 0 01-.941.07z" fill="#226180"/><path fill-rule="evenodd" clip-rule="evenodd" d="M26.182.048c.375 1.241.75 2.483 1.124 3.677l7.164 21.92L38.965 39.4c.023.095.047.179.07.263.024.083.047.167.07.262-.89.143-.89.143-1.123-.573l-.001-.002C33.72 26.36 29.46 13.37 25.199.333a.695.695 0 01-.047-.167.695.695 0 00-.047-.167c.422.048.75.048 1.077.048zm-5.075 30.785L13.07 9.167h1.497l8.036 21.666h-1.497zm-10.66-17.872l6.351 17.872h3.206L11.761 9.167H9.166L.937 30.833h3.191l6.32-17.872zm5.225-3.794l8.036 21.666h1.497L17.17 9.167h-1.497zM52.398 38l1.383-3.973h6.61L61.785 38h3.094l-6.457-17.063h-2.66L49.316 38h3.082zm4.688-13.441l2.473 7.078h-4.946l2.473-7.078zm24.17 11.074h-7.747V20.937h-2.965V38h10.711v-2.367zm16.704 0h-7.747V20.937H87.25V38h10.71v-2.367zm16.247 1.078c1.172-1.023 1.844-2.445 2.016-4.266h-2.954c-.156 1.22-.527 2.09-1.113 2.614-.586.523-1.461.785-2.625.785-1.273 0-2.242-.485-2.906-1.453-.656-.97-.985-2.375-.985-4.22v-1.51c.016-1.821.368-3.2 1.055-4.138.695-.945 1.688-1.418 2.977-1.418 1.109 0 1.949.274 2.519.82.578.54.938 1.423 1.078 2.65h2.954c-.188-1.868-.856-3.313-2.004-4.337-1.149-1.023-2.664-1.535-4.547-1.535-1.399 0-2.633.332-3.703.996-1.063.664-1.879 1.61-2.45 2.836-.57 1.227-.855 2.645-.855 4.254v1.594c.023 1.57.316 2.949.879 4.137.562 1.187 1.359 2.105 2.39 2.753 1.04.641 2.239.961 3.598.961 1.945 0 3.504-.507 4.676-1.523zM133.196 38h2.954V20.937h-2.954v7.102h-7.629v-7.102h-2.964V38h2.964v-7.582h7.629V38zm13.154-7.617h7.008v-2.344h-7.008v-4.71h8.109v-2.392h-11.074V38h11.156v-2.367h-8.191v-5.25zm25.329 6.328c1.172-1.023 1.844-2.445 2.016-4.266h-2.953c-.156 1.22-.527 2.09-1.113 2.614-.586.523-1.461.785-2.625.785-1.274 0-2.243-.485-2.907-1.453-.656-.97-.984-2.375-.984-4.22v-1.51c.016-1.821.367-3.2 1.055-4.138.695-.945 1.687-1.418 2.976-1.418 1.11 0 1.949.274 2.52.82.578.54.937 1.423 1.078 2.65h2.953c-.187-1.868-.855-3.313-2.004-4.337-1.148-1.023-2.664-1.535-4.547-1.535-1.398 0-2.633.332-3.703.996-1.062.664-1.879 1.61-2.449 2.836-.57 1.227-.856 2.645-.856 4.254v1.594c.024 1.57.317 2.949.879 4.137.563 1.187 1.36 2.105 2.391 2.753 1.039.641 2.238.961 3.598.961 1.945 0 3.504-.507 4.675-1.523zm11.361-4.031l1.934-2.051L190.106 38h3.516l-6.703-9.504 6.34-7.558h-3.586l-4.992 5.976-1.641 2.027v-8.003h-2.965V38h2.965v-5.32zM57.9 9.57c-.35-1.012-.687-1.951-1.01-2.817-.313-.856-.621-1.67-.926-2.444a78.487 78.487 0 00-.912-2.224c-.295-.7-.6-1.395-.913-2.085h-1.258c-.314.69-.623 1.386-.927 2.085-.295.71-.6 1.45-.913 2.224-.304.773-.617 1.588-.94 2.444a93.746 93.746 0 00-.995 2.817h1.48c.497-1.454.986-2.854 1.465-4.198.48-1.344.972-2.605 1.48-3.784a61.6 61.6 0 011.48 3.77c.478 1.354.962 2.758 1.451 4.212H57.9zm73.162-2.817c.322.866.659 1.805 1.009 2.817h-1.438a270.149 270.149 0 00-1.452-4.212 60.741 60.741 0 00-1.479-3.77 62.972 62.972 0 00-1.48 3.784 341.87 341.87 0 00-1.466 4.198h-1.479c.341-1.012.672-1.951.995-2.817.323-.856.636-1.67.94-2.444.314-.774.618-1.515.913-2.224.304-.7.613-1.395.927-2.085h1.258c.314.69.618 1.386.913 2.085.304.71.608 1.45.912 2.224.304.773.613 1.588.927 2.444zM147.504 10c-.627 0-1.171-.096-1.632-.29a3.097 3.097 0 01-1.134-.787 3.382 3.382 0 01-.663-1.202 5.136 5.136 0 01-.208-1.491V.223h1.342v5.855c0 .958.211 1.653.636 2.085.424.433.977.65 1.659.65.341 0 .65-.051.927-.152.285-.11.53-.277.733-.498a2.26 2.26 0 00.47-.842c.11-.35.166-.764.166-1.243V.223h1.341V6.23c0 .534-.074 1.031-.221 1.491a3.15 3.15 0 01-.664 1.202 3.089 3.089 0 01-1.134.787c-.452.194-.991.29-1.618.29zm-71.968-.207v-1.16h-4.425V.223H69.77v9.57h5.766zm17.598-1.16v1.16h-5.766V.223h1.341v8.41h4.425zm13.784 1.228c.231.01.443.014.636.014 1.531 0 2.646-.24 3.347-.718.71-.488 1.064-1.21 1.064-2.168 0-.654-.165-1.16-.497-1.52-.332-.358-.779-.62-1.342-.786a2.26 2.26 0 00.996-.746c.249-.34.373-.773.373-1.298 0-.47-.101-.866-.304-1.188a2.215 2.215 0 00-.843-.773 3.75 3.75 0 00-1.259-.428 9.094 9.094 0 00-1.548-.125 17.648 17.648 0 00-1.3.055c-.222.019-.443.042-.664.07a5.182 5.182 0 00-.608.11v9.28c.184.046.387.083.608.11a15.85 15.85 0 001.341.111zm-.622-1.16v-3.37h1.728c.388 0 .738.028 1.051.084.314.055.581.147.803.276.23.129.405.304.525.525.12.211.18.474.18.787 0 .35-.083.64-.249.87a1.59 1.59 0 01-.636.538 3.31 3.31 0 01-.94.277 8.636 8.636 0 01-1.121.069h-.567l-.414-.028c-.139-.01-.258-.018-.36-.028zm1.41-4.447h-1.41V1.3a7.78 7.78 0 01.525-.041c.194-.01.462-.014.803-.014a5.4 5.4 0 01.967.083c.305.055.568.143.789.262.231.11.41.263.539.456.129.184.194.414.194.69 0 .295-.065.54-.194.732-.12.194-.29.35-.512.47-.212.12-.465.202-.76.248a6.082 6.082 0 01-.941.07z" fill="#005B8B"/></svg>