<svg width="446" height="65" fill="none" xmlns="http://www.w3.org/2000/svg"><path d="M36.83.078c.629 2.017 1.258 4.035 1.887 5.975l19.579 57.972c.039.155.078.29.118.426.039.136.078.272.118.427-1.494.233-1.494.233-1.888-.93C49.49 42.837 42.334 21.73 35.178.542a1.1 1.1 0 01-.078-.27A1.104 1.104 0 0035.02 0c.709.078 1.259.078 1.81.078z" fill="#000"/><path d="M36.83.078c.629 2.017 1.258 4.035 1.887 5.975l19.579 57.972c.039.155.078.29.118.426.039.136.078.272.118.427-1.494.233-1.494.233-1.888-.93C49.49 42.837 42.334 21.73 35.178.542a1.1 1.1 0 01-.078-.27A1.104 1.104 0 0035.02 0c.709.078 1.259.078 1.81.078z" fill="#062633"/><path d="M36.83.078c.629 2.017 1.258 4.035 1.887 5.975l19.579 57.972c.039.155.078.29.118.426.039.136.078.272.118.427-1.494.233-1.494.233-1.888-.93C49.49 42.837 42.334 21.73 35.178.542a1.1 1.1 0 01-.078-.27A1.104 1.104 0 0035.02 0c.709.078 1.259.078 1.81.078z" fill="#226180"/><path d="M36.83.078c.629 2.017 1.258 4.035 1.887 5.975l19.579 57.972c.039.155.078.29.118.426.039.136.078.272.118.427-1.494.233-1.494.233-1.888-.93C49.49 42.837 42.334 21.73 35.178.542a1.1 1.1 0 01-.078-.27A1.104 1.104 0 0035.02 0c.709.078 1.259.078 1.81.078z" fill="#549DA1"/><path d="M36.83.078c.629 2.017 1.258 4.035 1.887 5.975l19.579 57.972c.039.155.078.29.118.426.039.136.078.272.118.427-1.494.233-1.494.233-1.888-.93C49.49 42.837 42.334 21.73 35.178.542a1.1 1.1 0 01-.078-.27A1.104 1.104 0 0035.02 0c.709.078 1.259.078 1.81.078z" fill="#183646"/><path d="M36.83.078c.629 2.017 1.258 4.035 1.887 5.975l19.579 57.972c.039.155.078.29.118.426.039.136.078.272.118.427-1.494.233-1.494.233-1.888-.93C49.49 42.837 42.334 21.73 35.178.542a1.1 1.1 0 01-.078-.27A1.104 1.104 0 0035.02 0c.709.078 1.259.078 1.81.078z" fill="#005B8B"/><path d="M36.83.078c.629 2.017 1.258 4.035 1.887 5.975l19.579 57.972c.039.155.078.29.118.426.039.136.078.272.118.427-1.494.233-1.494.233-1.888-.93C49.49 42.837 42.334 21.73 35.178.542a1.1 1.1 0 01-.078-.27A1.104 1.104 0 0035.02 0c.709.078 1.259.078 1.81.078z" fill="url(#paint0_linear_520_6527)"/><path d="M24.165 21.667h6.014v-.792H25.57l2.459-2.218c1.151-1.038 1.727-1.932 1.727-2.684a1.76 1.76 0 00-.744-1.484c-.496-.373-1.17-.56-2.023-.56-.912 0-1.641.216-2.188.65-.542.433-.813 1.001-.813 1.703h1.166c0-.489.16-.87.48-1.142.323-.277.775-.415 1.355-.415.483 0 .87.128 1.16.383.29.255.435.582.435.98 0 .298-.09.586-.271.866-.177.276-.5.636-.971 1.08l-3.177 2.935v.698z" fill="#000"/><path d="M24.165 21.667h6.014v-.792H25.57l2.459-2.218c1.151-1.038 1.727-1.932 1.727-2.684a1.76 1.76 0 00-.744-1.484c-.496-.373-1.17-.56-2.023-.56-.912 0-1.641.216-2.188.65-.542.433-.813 1.001-.813 1.703h1.166c0-.489.16-.87.48-1.142.323-.277.775-.415 1.355-.415.483 0 .87.128 1.16.383.29.255.435.582.435.98 0 .298-.09.586-.271.866-.177.276-.5.636-.971 1.08l-3.177 2.935v.698z" fill="#062633"/><path d="M24.165 21.667h6.014v-.792H25.57l2.459-2.218c1.151-1.038 1.727-1.932 1.727-2.684a1.76 1.76 0 00-.744-1.484c-.496-.373-1.17-.56-2.023-.56-.912 0-1.641.216-2.188.65-.542.433-.813 1.001-.813 1.703h1.166c0-.489.16-.87.48-1.142.323-.277.775-.415 1.355-.415.483 0 .87.128 1.16.383.29.255.435.582.435.98 0 .298-.09.586-.271.866-.177.276-.5.636-.971 1.08l-3.177 2.935v.698z" fill="#226180"/><path d="M24.165 21.667h6.014v-.792H25.57l2.459-2.218c1.151-1.038 1.727-1.932 1.727-2.684a1.76 1.76 0 00-.744-1.484c-.496-.373-1.17-.56-2.023-.56-.912 0-1.641.216-2.188.65-.542.433-.813 1.001-.813 1.703h1.166c0-.489.16-.87.48-1.142.323-.277.775-.415 1.355-.415.483 0 .87.128 1.16.383.29.255.435.582.435.98 0 .298-.09.586-.271.866-.177.276-.5.636-.971 1.08l-3.177 2.935v.698z" fill="#549DA1"/><path d="M24.165 21.667h6.014v-.792H25.57l2.459-2.218c1.151-1.038 1.727-1.932 1.727-2.684a1.76 1.76 0 00-.744-1.484c-.496-.373-1.17-.56-2.023-.56-.912 0-1.641.216-2.188.65-.542.433-.813 1.001-.813 1.703h1.166c0-.489.16-.87.48-1.142.323-.277.775-.415 1.355-.415.483 0 .87.128 1.16.383.29.255.435.582.435.98 0 .298-.09.586-.271.866-.177.276-.5.636-.971 1.08l-3.177 2.935v.698z" fill="#183646"/><path d="M24.165 21.667h6.014v-.792H25.57l2.459-2.218c1.151-1.038 1.727-1.932 1.727-2.684a1.76 1.76 0 00-.744-1.484c-.496-.373-1.17-.56-2.023-.56-.912 0-1.641.216-2.188.65-.542.433-.813 1.001-.813 1.703h1.166c0-.489.16-.87.48-1.142.323-.277.775-.415 1.355-.415.483 0 .87.128 1.16.383.29.255.435.582.435.98 0 .298-.09.586-.271.866-.177.276-.5.636-.971 1.08l-3.177 2.935v.698z" fill="#005B8B"/><path d="M24.165 21.667h6.014v-.792H25.57l2.459-2.218c1.151-1.038 1.727-1.932 1.727-2.684a1.76 1.76 0 00-.744-1.484c-.496-.373-1.17-.56-2.023-.56-.912 0-1.641.216-2.188.65-.542.433-.813 1.001-.813 1.703h1.166c0-.489.16-.87.48-1.142.323-.277.775-.415 1.355-.415.483 0 .87.128 1.16.383.29.255.435.582.435.98 0 .298-.09.586-.271.866-.177.276-.5.636-.971 1.08l-3.177 2.935v.698z" fill="url(#paint1_linear_520_6527)"/><path d="M0 17.287l1.828 3.186H7.51c3.693 0 6.563 1.136 8.609 3.408 2.063 2.272 3.094 5.507 3.094 9.706v2.099c0 4.083-.973 7.252-2.92 9.508-1.93 2.272-4.674 3.424-8.234 3.457H5.05l1.14 3.194 1.86.017c3.161 0 5.64-.692 8.069-2.075 2.429-1.383 3.755-2.98 5.07-5.532 1.33-2.552 2.057-5.68 2.074-8.989v-1.68c0-3.39-.744-6.14-2.075-8.692-1.314-2.552-2.607-4.166-5.07-5.532-2.445-1.367-4.799-2.042-8.06-2.075H0z" fill="#000"/><path d="M0 17.287l1.828 3.186H7.51c3.693 0 6.563 1.136 8.609 3.408 2.063 2.272 3.094 5.507 3.094 9.706v2.099c0 4.083-.973 7.252-2.92 9.508-1.93 2.272-4.674 3.424-8.234 3.457H5.05l1.14 3.194 1.86.017c3.161 0 5.64-.692 8.069-2.075 2.429-1.383 3.755-2.98 5.07-5.532 1.33-2.552 2.057-5.68 2.074-8.989v-1.68c0-3.39-.744-6.14-2.075-8.692-1.314-2.552-2.607-4.166-5.07-5.532-2.445-1.367-4.799-2.042-8.06-2.075H0z" fill="#062633"/><path d="M0 17.287l1.828 3.186H7.51c3.693 0 6.563 1.136 8.609 3.408 2.063 2.272 3.094 5.507 3.094 9.706v2.099c0 4.083-.973 7.252-2.92 9.508-1.93 2.272-4.674 3.424-8.234 3.457H5.05l1.14 3.194 1.86.017c3.161 0 5.64-.692 8.069-2.075 2.429-1.383 3.755-2.98 5.07-5.532 1.33-2.552 2.057-5.68 2.074-8.989v-1.68c0-3.39-.744-6.14-2.075-8.692-1.314-2.552-2.607-4.166-5.07-5.532-2.445-1.367-4.799-2.042-8.06-2.075H0z" fill="#226180"/><path d="M0 17.287l1.828 3.186H7.51c3.693 0 6.563 1.136 8.609 3.408 2.063 2.272 3.094 5.507 3.094 9.706v2.099c0 4.083-.973 7.252-2.92 9.508-1.93 2.272-4.674 3.424-8.234 3.457H5.05l1.14 3.194 1.86.017c3.161 0 5.64-.692 8.069-2.075 2.429-1.383 3.755-2.98 5.07-5.532 1.33-2.552 2.057-5.68 2.074-8.989v-1.68c0-3.39-.744-6.14-2.075-8.692-1.314-2.552-2.607-4.166-5.07-5.532-2.445-1.367-4.799-2.042-8.06-2.075H0z" fill="#549DA1"/><path d="M0 17.287l1.828 3.186H7.51c3.693 0 6.563 1.136 8.609 3.408 2.063 2.272 3.094 5.507 3.094 9.706v2.099c0 4.083-.973 7.252-2.92 9.508-1.93 2.272-4.674 3.424-8.234 3.457H5.05l1.14 3.194 1.86.017c3.161 0 5.64-.692 8.069-2.075 2.429-1.383 3.755-2.98 5.07-5.532 1.33-2.552 2.057-5.68 2.074-8.989v-1.68c0-3.39-.744-6.14-2.075-8.692-1.314-2.552-2.607-4.166-5.07-5.532-2.445-1.367-4.799-2.042-8.06-2.075H0z" fill="#183646"/><path d="M0 17.287l1.828 3.186H7.51c3.693 0 6.563 1.136 8.609 3.408 2.063 2.272 3.094 5.507 3.094 9.706v2.099c0 4.083-.973 7.252-2.92 9.508-1.93 2.272-4.674 3.424-8.234 3.457H5.05l1.14 3.194 1.86.017c3.161 0 5.64-.692 8.069-2.075 2.429-1.383 3.755-2.98 5.07-5.532 1.33-2.552 2.057-5.68 2.074-8.989v-1.68c0-3.39-.744-6.14-2.075-8.692-1.314-2.552-2.607-4.166-5.07-5.532-2.445-1.367-4.799-2.042-8.06-2.075H0z" fill="#005B8B"/><path d="M0 17.287l1.828 3.186H7.51c3.693 0 6.563 1.136 8.609 3.408 2.063 2.272 3.094 5.507 3.094 9.706v2.099c0 4.083-.973 7.252-2.92 9.508-1.93 2.272-4.674 3.424-8.234 3.457H5.05l1.14 3.194 1.86.017c3.161 0 5.64-.692 8.069-2.075 2.429-1.383 3.755-2.98 5.07-5.532 1.33-2.552 2.057-5.68 2.074-8.989v-1.68c0-3.39-.744-6.14-2.075-8.692-1.314-2.552-2.607-4.166-5.07-5.532-2.445-1.367-4.799-2.042-8.06-2.075H0z" fill="url(#paint2_linear_520_6527)"/><path d="M36.998 44.314c-2.168-.588-3.748-1.308-4.74-2.16-.982-.86-1.474-1.92-1.474-3.178 0-1.423.601-2.599 1.804-3.526 1.211-.935 2.782-1.402 4.713-1.402 1.316 0 2.488.24 3.515.72 1.036.48 1.834 1.142 2.396 1.986.57.844.856 1.767.856 2.768h-2.541c0-1.092-.369-1.949-1.106-2.57-.737-.628-1.777-.943-3.12-.943-1.247 0-2.22.26-2.923.782-.693.513-1.04 1.23-1.04 2.148 0 .736.33 1.361.988 1.874.667.505 1.794.969 3.383 1.39 1.597.423 2.844.89 3.739 1.403.904.505 1.57 1.097 2 1.776.44.678.66 1.477.66 2.396 0 1.464-.606 2.64-1.818 3.525-1.21.877-2.83 1.316-4.858 1.316-1.316 0-2.545-.236-3.686-.708-1.14-.48-2.023-1.133-2.646-1.961a4.607 4.607 0 01-.921-2.818h2.54c0 1.093.426 1.957 1.277 2.595.86.629 2.006.943 3.436.943 1.335 0 2.357-.257 3.068-.77.71-.513 1.066-1.212 1.066-2.098 0-.885-.329-1.568-.987-2.048-.658-.488-1.852-.968-3.58-1.44z" fill="#000"/><path d="M36.998 44.314c-2.168-.588-3.748-1.308-4.74-2.16-.982-.86-1.474-1.92-1.474-3.178 0-1.423.601-2.599 1.804-3.526 1.211-.935 2.782-1.402 4.713-1.402 1.316 0 2.488.24 3.515.72 1.036.48 1.834 1.142 2.396 1.986.57.844.856 1.767.856 2.768h-2.541c0-1.092-.369-1.949-1.106-2.57-.737-.628-1.777-.943-3.12-.943-1.247 0-2.22.26-2.923.782-.693.513-1.04 1.23-1.04 2.148 0 .736.33 1.361.988 1.874.667.505 1.794.969 3.383 1.39 1.597.423 2.844.89 3.739 1.403.904.505 1.57 1.097 2 1.776.44.678.66 1.477.66 2.396 0 1.464-.606 2.64-1.818 3.525-1.21.877-2.83 1.316-4.858 1.316-1.316 0-2.545-.236-3.686-.708-1.14-.48-2.023-1.133-2.646-1.961a4.607 4.607 0 01-.921-2.818h2.54c0 1.093.426 1.957 1.277 2.595.86.629 2.006.943 3.436.943 1.335 0 2.357-.257 3.068-.77.71-.513 1.066-1.212 1.066-2.098 0-.885-.329-1.568-.987-2.048-.658-.488-1.852-.968-3.58-1.44z" fill="#062633"/><path d="M36.998 44.314c-2.168-.588-3.748-1.308-4.74-2.16-.982-.86-1.474-1.92-1.474-3.178 0-1.423.601-2.599 1.804-3.526 1.211-.935 2.782-1.402 4.713-1.402 1.316 0 2.488.24 3.515.72 1.036.48 1.834 1.142 2.396 1.986.57.844.856 1.767.856 2.768h-2.541c0-1.092-.369-1.949-1.106-2.57-.737-.628-1.777-.943-3.12-.943-1.247 0-2.22.26-2.923.782-.693.513-1.04 1.23-1.04 2.148 0 .736.33 1.361.988 1.874.667.505 1.794.969 3.383 1.39 1.597.423 2.844.89 3.739 1.403.904.505 1.57 1.097 2 1.776.44.678.66 1.477.66 2.396 0 1.464-.606 2.64-1.818 3.525-1.21.877-2.83 1.316-4.858 1.316-1.316 0-2.545-.236-3.686-.708-1.14-.48-2.023-1.133-2.646-1.961a4.607 4.607 0 01-.921-2.818h2.54c0 1.093.426 1.957 1.277 2.595.86.629 2.006.943 3.436.943 1.335 0 2.357-.257 3.068-.77.71-.513 1.066-1.212 1.066-2.098 0-.885-.329-1.568-.987-2.048-.658-.488-1.852-.968-3.58-1.44z" fill="#226180"/><path d="M36.998 44.314c-2.168-.588-3.748-1.308-4.74-2.16-.982-.86-1.474-1.92-1.474-3.178 0-1.423.601-2.599 1.804-3.526 1.211-.935 2.782-1.402 4.713-1.402 1.316 0 2.488.24 3.515.72 1.036.48 1.834 1.142 2.396 1.986.57.844.856 1.767.856 2.768h-2.541c0-1.092-.369-1.949-1.106-2.57-.737-.628-1.777-.943-3.12-.943-1.247 0-2.22.26-2.923.782-.693.513-1.04 1.23-1.04 2.148 0 .736.33 1.361.988 1.874.667.505 1.794.969 3.383 1.39 1.597.423 2.844.89 3.739 1.403.904.505 1.57 1.097 2 1.776.44.678.66 1.477.66 2.396 0 1.464-.606 2.64-1.818 3.525-1.21.877-2.83 1.316-4.858 1.316-1.316 0-2.545-.236-3.686-.708-1.14-.48-2.023-1.133-2.646-1.961a4.607 4.607 0 01-.921-2.818h2.54c0 1.093.426 1.957 1.277 2.595.86.629 2.006.943 3.436.943 1.335 0 2.357-.257 3.068-.77.71-.513 1.066-1.212 1.066-2.098 0-.885-.329-1.568-.987-2.048-.658-.488-1.852-.968-3.58-1.44z" fill="#549DA1"/><path d="M36.998 44.314c-2.168-.588-3.748-1.308-4.74-2.16-.982-.86-1.474-1.92-1.474-3.178 0-1.423.601-2.599 1.804-3.526 1.211-.935 2.782-1.402 4.713-1.402 1.316 0 2.488.24 3.515.72 1.036.48 1.834 1.142 2.396 1.986.57.844.856 1.767.856 2.768h-2.541c0-1.092-.369-1.949-1.106-2.57-.737-.628-1.777-.943-3.12-.943-1.247 0-2.22.26-2.923.782-.693.513-1.04 1.23-1.04 2.148 0 .736.33 1.361.988 1.874.667.505 1.794.969 3.383 1.39 1.597.423 2.844.89 3.739 1.403.904.505 1.57 1.097 2 1.776.44.678.66 1.477.66 2.396 0 1.464-.606 2.64-1.818 3.525-1.21.877-2.83 1.316-4.858 1.316-1.316 0-2.545-.236-3.686-.708-1.14-.48-2.023-1.133-2.646-1.961a4.607 4.607 0 01-.921-2.818h2.54c0 1.093.426 1.957 1.277 2.595.86.629 2.006.943 3.436.943 1.335 0 2.357-.257 3.068-.77.71-.513 1.066-1.212 1.066-2.098 0-.885-.329-1.568-.987-2.048-.658-.488-1.852-.968-3.58-1.44z" fill="#183646"/><path d="M36.998 44.314c-2.168-.588-3.748-1.308-4.74-2.16-.982-.86-1.474-1.92-1.474-3.178 0-1.423.601-2.599 1.804-3.526 1.211-.935 2.782-1.402 4.713-1.402 1.316 0 2.488.24 3.515.72 1.036.48 1.834 1.142 2.396 1.986.57.844.856 1.767.856 2.768h-2.541c0-1.092-.369-1.949-1.106-2.57-.737-.628-1.777-.943-3.12-.943-1.247 0-2.22.26-2.923.782-.693.513-1.04 1.23-1.04 2.148 0 .736.33 1.361.988 1.874.667.505 1.794.969 3.383 1.39 1.597.423 2.844.89 3.739 1.403.904.505 1.57 1.097 2 1.776.44.678.66 1.477.66 2.396 0 1.464-.606 2.64-1.818 3.525-1.21.877-2.83 1.316-4.858 1.316-1.316 0-2.545-.236-3.686-.708-1.14-.48-2.023-1.133-2.646-1.961a4.607 4.607 0 01-.921-2.818h2.54c0 1.093.426 1.957 1.277 2.595.86.629 2.006.943 3.436.943 1.335 0 2.357-.257 3.068-.77.71-.513 1.066-1.212 1.066-2.098 0-.885-.329-1.568-.987-2.048-.658-.488-1.852-.968-3.58-1.44z" fill="#005B8B"/><path d="M36.998 44.314c-2.168-.588-3.748-1.308-4.74-2.16-.982-.86-1.474-1.92-1.474-3.178 0-1.423.601-2.599 1.804-3.526 1.211-.935 2.782-1.402 4.713-1.402 1.316 0 2.488.24 3.515.72 1.036.48 1.834 1.142 2.396 1.986.57.844.856 1.767.856 2.768h-2.541c0-1.092-.369-1.949-1.106-2.57-.737-.628-1.777-.943-3.12-.943-1.247 0-2.22.26-2.923.782-.693.513-1.04 1.23-1.04 2.148 0 .736.33 1.361.988 1.874.667.505 1.794.969 3.383 1.39 1.597.423 2.844.89 3.739 1.403.904.505 1.57 1.097 2 1.776.44.678.66 1.477.66 2.396 0 1.464-.606 2.64-1.818 3.525-1.21.877-2.83 1.316-4.858 1.316-1.316 0-2.545-.236-3.686-.708-1.14-.48-2.023-1.133-2.646-1.961a4.607 4.607 0 01-.921-2.818h2.54c0 1.093.426 1.957 1.277 2.595.86.629 2.006.943 3.436.943 1.335 0 2.357-.257 3.068-.77.71-.513 1.066-1.212 1.066-2.098 0-.885-.329-1.568-.987-2.048-.658-.488-1.852-.968-3.58-1.44z" fill="url(#paint3_linear_520_6527)"/><path fill-rule="evenodd" clip-rule="evenodd" d="M76.97 35.498v26.407h7.599c2.382 0 4.492-.514 6.33-1.542 1.85-1.027 3.27-2.49 4.261-4.389 1.004-1.898 1.506-4.098 1.506-6.601v-1.324c0-2.467-.496-4.655-1.487-6.566-.992-1.91-2.394-3.385-4.208-4.425-1.802-1.04-3.87-1.56-6.203-1.56H76.97zm4.588 22.743V39.198h3.21c2.37 0 4.178.756 5.423 2.267 1.245 1.512 1.868 3.7 1.868 6.566V49.5c-.024 2.817-.683 4.981-1.977 6.492-1.281 1.5-3.125 2.25-5.531 2.25h-2.993z" fill="#000"/><path fill-rule="evenodd" clip-rule="evenodd" d="M76.97 35.498v26.407h7.599c2.382 0 4.492-.514 6.33-1.542 1.85-1.027 3.27-2.49 4.261-4.389 1.004-1.898 1.506-4.098 1.506-6.601v-1.324c0-2.467-.496-4.655-1.487-6.566-.992-1.91-2.394-3.385-4.208-4.425-1.802-1.04-3.87-1.56-6.203-1.56H76.97zm4.588 22.743V39.198h3.21c2.37 0 4.178.756 5.423 2.267 1.245 1.512 1.868 3.7 1.868 6.566V49.5c-.024 2.817-.683 4.981-1.977 6.492-1.281 1.5-3.125 2.25-5.531 2.25h-2.993z" fill="#062633"/><path fill-rule="evenodd" clip-rule="evenodd" d="M76.97 35.498v26.407h7.599c2.382 0 4.492-.514 6.33-1.542 1.85-1.027 3.27-2.49 4.261-4.389 1.004-1.898 1.506-4.098 1.506-6.601v-1.324c0-2.467-.496-4.655-1.487-6.566-.992-1.91-2.394-3.385-4.208-4.425-1.802-1.04-3.87-1.56-6.203-1.56H76.97zm4.588 22.743V39.198h3.21c2.37 0 4.178.756 5.423 2.267 1.245 1.512 1.868 3.7 1.868 6.566V49.5c-.024 2.817-.683 4.981-1.977 6.492-1.281 1.5-3.125 2.25-5.531 2.25h-2.993z" fill="#226180"/><path fill-rule="evenodd" clip-rule="evenodd" d="M76.97 35.498v26.407h7.599c2.382 0 4.492-.514 6.33-1.542 1.85-1.027 3.27-2.49 4.261-4.389 1.004-1.898 1.506-4.098 1.506-6.601v-1.324c0-2.467-.496-4.655-1.487-6.566-.992-1.91-2.394-3.385-4.208-4.425-1.802-1.04-3.87-1.56-6.203-1.56H76.97zm4.588 22.743V39.198h3.21c2.37 0 4.178.756 5.423 2.267 1.245 1.512 1.868 3.7 1.868 6.566V49.5c-.024 2.817-.683 4.981-1.977 6.492-1.281 1.5-3.125 2.25-5.531 2.25h-2.993z" fill="#549DA1"/><path fill-rule="evenodd" clip-rule="evenodd" d="M76.97 35.498v26.407h7.599c2.382 0 4.492-.514 6.33-1.542 1.85-1.027 3.27-2.49 4.261-4.389 1.004-1.898 1.506-4.098 1.506-6.601v-1.324c0-2.467-.496-4.655-1.487-6.566-.992-1.91-2.394-3.385-4.208-4.425-1.802-1.04-3.87-1.56-6.203-1.56H76.97zm4.588 22.743V39.198h3.21c2.37 0 4.178.756 5.423 2.267 1.245 1.512 1.868 3.7 1.868 6.566V49.5c-.024 2.817-.683 4.981-1.977 6.492-1.281 1.5-3.125 2.25-5.531 2.25h-2.993z" fill="#183646"/><path fill-rule="evenodd" clip-rule="evenodd" d="M76.97 35.498v26.407h7.599c2.382 0 4.492-.514 6.33-1.542 1.85-1.027 3.27-2.49 4.261-4.389 1.004-1.898 1.506-4.098 1.506-6.601v-1.324c0-2.467-.496-4.655-1.487-6.566-.992-1.91-2.394-3.385-4.208-4.425-1.802-1.04-3.87-1.56-6.203-1.56H76.97zm4.588 22.743V39.198h3.21c2.37 0 4.178.756 5.423 2.267 1.245 1.512 1.868 3.7 1.868 6.566V49.5c-.024 2.817-.683 4.981-1.977 6.492-1.281 1.5-3.125 2.25-5.531 2.25h-2.993z" fill="#005B8B"/><path fill-rule="evenodd" clip-rule="evenodd" d="M76.97 35.498v26.407h7.599c2.382 0 4.492-.514 6.33-1.542 1.85-1.027 3.27-2.49 4.261-4.389 1.004-1.898 1.506-4.098 1.506-6.601v-1.324c0-2.467-.496-4.655-1.487-6.566-.992-1.91-2.394-3.385-4.208-4.425-1.802-1.04-3.87-1.56-6.203-1.56H76.97zm4.588 22.743V39.198h3.21c2.37 0 4.178.756 5.423 2.267 1.245 1.512 1.868 3.7 1.868 6.566V49.5c-.024 2.817-.683 4.981-1.977 6.492-1.281 1.5-3.125 2.25-5.531 2.25h-2.993z" fill="url(#paint4_linear_520_6527)"/><path d="M111.582 50.116h10.845V46.49h-10.845V39.2h12.55v-3.7h-17.139v26.406h17.266V58.24h-12.677v-8.125z" fill="#000"/><path d="M111.582 50.116h10.845V46.49h-10.845V39.2h12.55v-3.7h-17.139v26.406h17.266V58.24h-12.677v-8.125z" fill="#062633"/><path d="M111.582 50.116h10.845V46.49h-10.845V39.2h12.55v-3.7h-17.139v26.406h17.266V58.24h-12.677v-8.125z" fill="#226180"/><path d="M111.582 50.116h10.845V46.49h-10.845V39.2h12.55v-3.7h-17.139v26.406h17.266V58.24h-12.677v-8.125z" fill="#549DA1"/><path d="M111.582 50.116h10.845V46.49h-10.845V39.2h12.55v-3.7h-17.139v26.406h17.266V58.24h-12.677v-8.125z" fill="#183646"/><path d="M111.582 50.116h10.845V46.49h-10.845V39.2h12.55v-3.7h-17.139v26.406h17.266V58.24h-12.677v-8.125z" fill="#005B8B"/><path d="M111.582 50.116h10.845V46.49h-10.845V39.2h12.55v-3.7h-17.139v26.406h17.266V58.24h-12.677v-8.125z" fill="url(#paint5_linear_520_6527)"/><path d="M146.32 52.42c.823.628 1.234 1.523 1.234 2.684 0 1.064-.405 1.922-1.215 2.575-.798.64-1.995.961-3.591.961-1.85 0-3.271-.41-4.262-1.233-.992-.822-1.488-1.983-1.488-3.482h-4.588c0 1.656.441 3.107 1.324 4.353.895 1.245 2.14 2.224 3.736 2.938 1.608.7 3.367 1.051 5.278 1.051 2.889 0 5.174-.646 6.855-1.94 1.693-1.306 2.539-3.06 2.539-5.26 0-1.354-.29-2.533-.87-3.536-.581-1.016-1.494-1.91-2.739-2.684-1.245-.786-2.896-1.481-4.951-2.086-2.056-.617-3.531-1.245-4.425-1.886-.895-.653-1.342-1.463-1.342-2.43 0-1.149.411-2.044 1.233-2.684.834-.641 2.001-.962 3.5-.962 1.608 0 2.841.393 3.7 1.18.87.773 1.306 1.849 1.306 3.227h4.57c0-1.523-.411-2.908-1.233-4.153-.822-1.257-1.953-2.224-3.392-2.902-1.439-.677-3.077-1.015-4.915-1.015-2.768 0-5.023.689-6.764 2.067-1.729 1.379-2.594 3.132-2.594 5.26 0 2.43 1.203 4.4 3.609 5.912 1.258.786 2.95 1.5 5.078 2.14 2.128.641 3.597 1.276 4.407 1.904z" fill="#000"/><path d="M146.32 52.42c.823.628 1.234 1.523 1.234 2.684 0 1.064-.405 1.922-1.215 2.575-.798.64-1.995.961-3.591.961-1.85 0-3.271-.41-4.262-1.233-.992-.822-1.488-1.983-1.488-3.482h-4.588c0 1.656.441 3.107 1.324 4.353.895 1.245 2.14 2.224 3.736 2.938 1.608.7 3.367 1.051 5.278 1.051 2.889 0 5.174-.646 6.855-1.94 1.693-1.306 2.539-3.06 2.539-5.26 0-1.354-.29-2.533-.87-3.536-.581-1.016-1.494-1.91-2.739-2.684-1.245-.786-2.896-1.481-4.951-2.086-2.056-.617-3.531-1.245-4.425-1.886-.895-.653-1.342-1.463-1.342-2.43 0-1.149.411-2.044 1.233-2.684.834-.641 2.001-.962 3.5-.962 1.608 0 2.841.393 3.7 1.18.87.773 1.306 1.849 1.306 3.227h4.57c0-1.523-.411-2.908-1.233-4.153-.822-1.257-1.953-2.224-3.392-2.902-1.439-.677-3.077-1.015-4.915-1.015-2.768 0-5.023.689-6.764 2.067-1.729 1.379-2.594 3.132-2.594 5.26 0 2.43 1.203 4.4 3.609 5.912 1.258.786 2.95 1.5 5.078 2.14 2.128.641 3.597 1.276 4.407 1.904z" fill="#062633"/><path d="M146.32 52.42c.823.628 1.234 1.523 1.234 2.684 0 1.064-.405 1.922-1.215 2.575-.798.64-1.995.961-3.591.961-1.85 0-3.271-.41-4.262-1.233-.992-.822-1.488-1.983-1.488-3.482h-4.588c0 1.656.441 3.107 1.324 4.353.895 1.245 2.14 2.224 3.736 2.938 1.608.7 3.367 1.051 5.278 1.051 2.889 0 5.174-.646 6.855-1.94 1.693-1.306 2.539-3.06 2.539-5.26 0-1.354-.29-2.533-.87-3.536-.581-1.016-1.494-1.91-2.739-2.684-1.245-.786-2.896-1.481-4.951-2.086-2.056-.617-3.531-1.245-4.425-1.886-.895-.653-1.342-1.463-1.342-2.43 0-1.149.411-2.044 1.233-2.684.834-.641 2.001-.962 3.5-.962 1.608 0 2.841.393 3.7 1.18.87.773 1.306 1.849 1.306 3.227h4.57c0-1.523-.411-2.908-1.233-4.153-.822-1.257-1.953-2.224-3.392-2.902-1.439-.677-3.077-1.015-4.915-1.015-2.768 0-5.023.689-6.764 2.067-1.729 1.379-2.594 3.132-2.594 5.26 0 2.43 1.203 4.4 3.609 5.912 1.258.786 2.95 1.5 5.078 2.14 2.128.641 3.597 1.276 4.407 1.904z" fill="#226180"/><path d="M146.32 52.42c.823.628 1.234 1.523 1.234 2.684 0 1.064-.405 1.922-1.215 2.575-.798.64-1.995.961-3.591.961-1.85 0-3.271-.41-4.262-1.233-.992-.822-1.488-1.983-1.488-3.482h-4.588c0 1.656.441 3.107 1.324 4.353.895 1.245 2.14 2.224 3.736 2.938 1.608.7 3.367 1.051 5.278 1.051 2.889 0 5.174-.646 6.855-1.94 1.693-1.306 2.539-3.06 2.539-5.26 0-1.354-.29-2.533-.87-3.536-.581-1.016-1.494-1.91-2.739-2.684-1.245-.786-2.896-1.481-4.951-2.086-2.056-.617-3.531-1.245-4.425-1.886-.895-.653-1.342-1.463-1.342-2.43 0-1.149.411-2.044 1.233-2.684.834-.641 2.001-.962 3.5-.962 1.608 0 2.841.393 3.7 1.18.87.773 1.306 1.849 1.306 3.227h4.57c0-1.523-.411-2.908-1.233-4.153-.822-1.257-1.953-2.224-3.392-2.902-1.439-.677-3.077-1.015-4.915-1.015-2.768 0-5.023.689-6.764 2.067-1.729 1.379-2.594 3.132-2.594 5.26 0 2.43 1.203 4.4 3.609 5.912 1.258.786 2.95 1.5 5.078 2.14 2.128.641 3.597 1.276 4.407 1.904z" fill="#549DA1"/><path d="M146.32 52.42c.823.628 1.234 1.523 1.234 2.684 0 1.064-.405 1.922-1.215 2.575-.798.64-1.995.961-3.591.961-1.85 0-3.271-.41-4.262-1.233-.992-.822-1.488-1.983-1.488-3.482h-4.588c0 1.656.441 3.107 1.324 4.353.895 1.245 2.14 2.224 3.736 2.938 1.608.7 3.367 1.051 5.278 1.051 2.889 0 5.174-.646 6.855-1.94 1.693-1.306 2.539-3.06 2.539-5.26 0-1.354-.29-2.533-.87-3.536-.581-1.016-1.494-1.91-2.739-2.684-1.245-.786-2.896-1.481-4.951-2.086-2.056-.617-3.531-1.245-4.425-1.886-.895-.653-1.342-1.463-1.342-2.43 0-1.149.411-2.044 1.233-2.684.834-.641 2.001-.962 3.5-.962 1.608 0 2.841.393 3.7 1.18.87.773 1.306 1.849 1.306 3.227h4.57c0-1.523-.411-2.908-1.233-4.153-.822-1.257-1.953-2.224-3.392-2.902-1.439-.677-3.077-1.015-4.915-1.015-2.768 0-5.023.689-6.764 2.067-1.729 1.379-2.594 3.132-2.594 5.26 0 2.43 1.203 4.4 3.609 5.912 1.258.786 2.95 1.5 5.078 2.14 2.128.641 3.597 1.276 4.407 1.904z" fill="#183646"/><path d="M146.32 52.42c.823.628 1.234 1.523 1.234 2.684 0 1.064-.405 1.922-1.215 2.575-.798.64-1.995.961-3.591.961-1.85 0-3.271-.41-4.262-1.233-.992-.822-1.488-1.983-1.488-3.482h-4.588c0 1.656.441 3.107 1.324 4.353.895 1.245 2.14 2.224 3.736 2.938 1.608.7 3.367 1.051 5.278 1.051 2.889 0 5.174-.646 6.855-1.94 1.693-1.306 2.539-3.06 2.539-5.26 0-1.354-.29-2.533-.87-3.536-.581-1.016-1.494-1.91-2.739-2.684-1.245-.786-2.896-1.481-4.951-2.086-2.056-.617-3.531-1.245-4.425-1.886-.895-.653-1.342-1.463-1.342-2.43 0-1.149.411-2.044 1.233-2.684.834-.641 2.001-.962 3.5-.962 1.608 0 2.841.393 3.7 1.18.87.773 1.306 1.849 1.306 3.227h4.57c0-1.523-.411-2.908-1.233-4.153-.822-1.257-1.953-2.224-3.392-2.902-1.439-.677-3.077-1.015-4.915-1.015-2.768 0-5.023.689-6.764 2.067-1.729 1.379-2.594 3.132-2.594 5.26 0 2.43 1.203 4.4 3.609 5.912 1.258.786 2.95 1.5 5.078 2.14 2.128.641 3.597 1.276 4.407 1.904z" fill="#005B8B"/><path d="M146.32 52.42c.823.628 1.234 1.523 1.234 2.684 0 1.064-.405 1.922-1.215 2.575-.798.64-1.995.961-3.591.961-1.85 0-3.271-.41-4.262-1.233-.992-.822-1.488-1.983-1.488-3.482h-4.588c0 1.656.441 3.107 1.324 4.353.895 1.245 2.14 2.224 3.736 2.938 1.608.7 3.367 1.051 5.278 1.051 2.889 0 5.174-.646 6.855-1.94 1.693-1.306 2.539-3.06 2.539-5.26 0-1.354-.29-2.533-.87-3.536-.581-1.016-1.494-1.91-2.739-2.684-1.245-.786-2.896-1.481-4.951-2.086-2.056-.617-3.531-1.245-4.425-1.886-.895-.653-1.342-1.463-1.342-2.43 0-1.149.411-2.044 1.233-2.684.834-.641 2.001-.962 3.5-.962 1.608 0 2.841.393 3.7 1.18.87.773 1.306 1.849 1.306 3.227h4.57c0-1.523-.411-2.908-1.233-4.153-.822-1.257-1.953-2.224-3.392-2.902-1.439-.677-3.077-1.015-4.915-1.015-2.768 0-5.023.689-6.764 2.067-1.729 1.379-2.594 3.132-2.594 5.26 0 2.43 1.203 4.4 3.609 5.912 1.258.786 2.95 1.5 5.078 2.14 2.128.641 3.597 1.276 4.407 1.904z" fill="url(#paint6_linear_520_6527)"/><path d="M162.198 61.905h4.57V35.498h-4.57v26.407z" fill="#000"/><path d="M162.198 61.905h4.57V35.498h-4.57v26.407z" fill="#062633"/><path d="M162.198 61.905h4.57V35.498h-4.57v26.407z" fill="#226180"/><path d="M162.198 61.905h4.57V35.498h-4.57v26.407z" fill="#549DA1"/><path d="M162.198 61.905h4.57V35.498h-4.57v26.407z" fill="#183646"/><path d="M162.198 61.905h4.57V35.498h-4.57v26.407z" fill="#005B8B"/><path d="M162.198 61.905h4.57V35.498h-4.57v26.407z" fill="url(#paint7_linear_520_6527)"/><path d="M194.433 61.306c1.693-.64 3.017-1.584 3.972-2.829v-10.12h-10.011v3.482h5.441v5.169c-.992 1.064-2.66 1.596-5.006 1.596-2.14 0-3.814-.786-5.023-2.358-1.197-1.584-1.796-3.802-1.796-6.656v-2.03c.036-2.867.587-5.037 1.651-6.512 1.076-1.487 2.641-2.23 4.697-2.23 3.18 0 5.024 1.59 5.531 4.77h4.498c-.351-2.733-1.39-4.825-3.119-6.276-1.729-1.45-4.063-2.176-7.001-2.176-3.422 0-6.088 1.124-7.998 3.373-1.91 2.237-2.865 5.35-2.865 9.34v2.068c.036 2.49.513 4.673 1.432 6.547.931 1.862 2.249 3.295 3.954 4.298 1.705 1.004 3.664 1.505 5.876 1.505 2.152 0 4.075-.32 5.767-.96z" fill="#000"/><path d="M194.433 61.306c1.693-.64 3.017-1.584 3.972-2.829v-10.12h-10.011v3.482h5.441v5.169c-.992 1.064-2.66 1.596-5.006 1.596-2.14 0-3.814-.786-5.023-2.358-1.197-1.584-1.796-3.802-1.796-6.656v-2.03c.036-2.867.587-5.037 1.651-6.512 1.076-1.487 2.641-2.23 4.697-2.23 3.18 0 5.024 1.59 5.531 4.77h4.498c-.351-2.733-1.39-4.825-3.119-6.276-1.729-1.45-4.063-2.176-7.001-2.176-3.422 0-6.088 1.124-7.998 3.373-1.91 2.237-2.865 5.35-2.865 9.34v2.068c.036 2.49.513 4.673 1.432 6.547.931 1.862 2.249 3.295 3.954 4.298 1.705 1.004 3.664 1.505 5.876 1.505 2.152 0 4.075-.32 5.767-.96z" fill="#062633"/><path d="M194.433 61.306c1.693-.64 3.017-1.584 3.972-2.829v-10.12h-10.011v3.482h5.441v5.169c-.992 1.064-2.66 1.596-5.006 1.596-2.14 0-3.814-.786-5.023-2.358-1.197-1.584-1.796-3.802-1.796-6.656v-2.03c.036-2.867.587-5.037 1.651-6.512 1.076-1.487 2.641-2.23 4.697-2.23 3.18 0 5.024 1.59 5.531 4.77h4.498c-.351-2.733-1.39-4.825-3.119-6.276-1.729-1.45-4.063-2.176-7.001-2.176-3.422 0-6.088 1.124-7.998 3.373-1.91 2.237-2.865 5.35-2.865 9.34v2.068c.036 2.49.513 4.673 1.432 6.547.931 1.862 2.249 3.295 3.954 4.298 1.705 1.004 3.664 1.505 5.876 1.505 2.152 0 4.075-.32 5.767-.96z" fill="#226180"/><path d="M194.433 61.306c1.693-.64 3.017-1.584 3.972-2.829v-10.12h-10.011v3.482h5.441v5.169c-.992 1.064-2.66 1.596-5.006 1.596-2.14 0-3.814-.786-5.023-2.358-1.197-1.584-1.796-3.802-1.796-6.656v-2.03c.036-2.867.587-5.037 1.651-6.512 1.076-1.487 2.641-2.23 4.697-2.23 3.18 0 5.024 1.59 5.531 4.77h4.498c-.351-2.733-1.39-4.825-3.119-6.276-1.729-1.45-4.063-2.176-7.001-2.176-3.422 0-6.088 1.124-7.998 3.373-1.91 2.237-2.865 5.35-2.865 9.34v2.068c.036 2.49.513 4.673 1.432 6.547.931 1.862 2.249 3.295 3.954 4.298 1.705 1.004 3.664 1.505 5.876 1.505 2.152 0 4.075-.32 5.767-.96z" fill="#549DA1"/><path d="M194.433 61.306c1.693-.64 3.017-1.584 3.972-2.829v-10.12h-10.011v3.482h5.441v5.169c-.992 1.064-2.66 1.596-5.006 1.596-2.14 0-3.814-.786-5.023-2.358-1.197-1.584-1.796-3.802-1.796-6.656v-2.03c.036-2.867.587-5.037 1.651-6.512 1.076-1.487 2.641-2.23 4.697-2.23 3.18 0 5.024 1.59 5.531 4.77h4.498c-.351-2.733-1.39-4.825-3.119-6.276-1.729-1.45-4.063-2.176-7.001-2.176-3.422 0-6.088 1.124-7.998 3.373-1.91 2.237-2.865 5.35-2.865 9.34v2.068c.036 2.49.513 4.673 1.432 6.547.931 1.862 2.249 3.295 3.954 4.298 1.705 1.004 3.664 1.505 5.876 1.505 2.152 0 4.075-.32 5.767-.96z" fill="#183646"/><path d="M194.433 61.306c1.693-.64 3.017-1.584 3.972-2.829v-10.12h-10.011v3.482h5.441v5.169c-.992 1.064-2.66 1.596-5.006 1.596-2.14 0-3.814-.786-5.023-2.358-1.197-1.584-1.796-3.802-1.796-6.656v-2.03c.036-2.867.587-5.037 1.651-6.512 1.076-1.487 2.641-2.23 4.697-2.23 3.18 0 5.024 1.59 5.531 4.77h4.498c-.351-2.733-1.39-4.825-3.119-6.276-1.729-1.45-4.063-2.176-7.001-2.176-3.422 0-6.088 1.124-7.998 3.373-1.91 2.237-2.865 5.35-2.865 9.34v2.068c.036 2.49.513 4.673 1.432 6.547.931 1.862 2.249 3.295 3.954 4.298 1.705 1.004 3.664 1.505 5.876 1.505 2.152 0 4.075-.32 5.767-.96z" fill="#005B8B"/><path d="M194.433 61.306c1.693-.64 3.017-1.584 3.972-2.829v-10.12h-10.011v3.482h5.441v5.169c-.992 1.064-2.66 1.596-5.006 1.596-2.14 0-3.814-.786-5.023-2.358-1.197-1.584-1.796-3.802-1.796-6.656v-2.03c.036-2.867.587-5.037 1.651-6.512 1.076-1.487 2.641-2.23 4.697-2.23 3.18 0 5.024 1.59 5.531 4.77h4.498c-.351-2.733-1.39-4.825-3.119-6.276-1.729-1.45-4.063-2.176-7.001-2.176-3.422 0-6.088 1.124-7.998 3.373-1.91 2.237-2.865 5.35-2.865 9.34v2.068c.036 2.49.513 4.673 1.432 6.547.931 1.862 2.249 3.295 3.954 4.298 1.705 1.004 3.664 1.505 5.876 1.505 2.152 0 4.075-.32 5.767-.96z" fill="url(#paint8_linear_520_6527)"/><path d="M225.563 61.905h4.589V35.498h-4.553v18.808l-11.806-18.807h-4.589v26.406h4.589V43.17l11.77 18.735z" fill="#000"/><path d="M225.563 61.905h4.589V35.498h-4.553v18.808l-11.806-18.807h-4.589v26.406h4.589V43.17l11.77 18.735z" fill="#062633"/><path d="M225.563 61.905h4.589V35.498h-4.553v18.808l-11.806-18.807h-4.589v26.406h4.589V43.17l11.77 18.735z" fill="#226180"/><path d="M225.563 61.905h4.589V35.498h-4.553v18.808l-11.806-18.807h-4.589v26.406h4.589V43.17l11.77 18.735z" fill="#549DA1"/><path d="M225.563 61.905h4.589V35.498h-4.553v18.808l-11.806-18.807h-4.589v26.406h4.589V43.17l11.77 18.735z" fill="#183646"/><path d="M225.563 61.905h4.589V35.498h-4.553v18.808l-11.806-18.807h-4.589v26.406h4.589V43.17l11.77 18.735z" fill="#005B8B"/><path d="M225.563 61.905h4.589V35.498h-4.553v18.808l-11.806-18.807h-4.589v26.406h4.589V43.17l11.77 18.735z" fill="url(#paint9_linear_520_6527)"/><path d="M255.631 61.905h17.755v-3.519h-12.26l6.456-6.91c1.693-1.837 2.908-3.476 3.646-4.914.749-1.451 1.124-2.836 1.124-4.154 0-2.273-.743-4.05-2.231-5.332-1.475-1.293-3.494-1.94-6.057-1.94-1.777 0-3.349.356-4.715 1.07-1.355.713-2.4 1.717-3.138 3.01-.725 1.282-1.088 2.727-1.088 4.335h4.407c0-1.511.393-2.702 1.179-3.573.786-.87 1.892-1.306 3.319-1.306 1.197 0 2.146.387 2.847 1.161.713.774 1.07 1.79 1.07 3.047 0 .955-.272 1.91-.816 2.865-.532.944-1.433 2.122-2.702 3.537l-8.796 9.594v3.029z" fill="#000"/><path d="M255.631 61.905h17.755v-3.519h-12.26l6.456-6.91c1.693-1.837 2.908-3.476 3.646-4.914.749-1.451 1.124-2.836 1.124-4.154 0-2.273-.743-4.05-2.231-5.332-1.475-1.293-3.494-1.94-6.057-1.94-1.777 0-3.349.356-4.715 1.07-1.355.713-2.4 1.717-3.138 3.01-.725 1.282-1.088 2.727-1.088 4.335h4.407c0-1.511.393-2.702 1.179-3.573.786-.87 1.892-1.306 3.319-1.306 1.197 0 2.146.387 2.847 1.161.713.774 1.07 1.79 1.07 3.047 0 .955-.272 1.91-.816 2.865-.532.944-1.433 2.122-2.702 3.537l-8.796 9.594v3.029z" fill="#062633"/><path d="M255.631 61.905h17.755v-3.519h-12.26l6.456-6.91c1.693-1.837 2.908-3.476 3.646-4.914.749-1.451 1.124-2.836 1.124-4.154 0-2.273-.743-4.05-2.231-5.332-1.475-1.293-3.494-1.94-6.057-1.94-1.777 0-3.349.356-4.715 1.07-1.355.713-2.4 1.717-3.138 3.01-.725 1.282-1.088 2.727-1.088 4.335h4.407c0-1.511.393-2.702 1.179-3.573.786-.87 1.892-1.306 3.319-1.306 1.197 0 2.146.387 2.847 1.161.713.774 1.07 1.79 1.07 3.047 0 .955-.272 1.91-.816 2.865-.532.944-1.433 2.122-2.702 3.537l-8.796 9.594v3.029z" fill="#226180"/><path d="M255.631 61.905h17.755v-3.519h-12.26l6.456-6.91c1.693-1.837 2.908-3.476 3.646-4.914.749-1.451 1.124-2.836 1.124-4.154 0-2.273-.743-4.05-2.231-5.332-1.475-1.293-3.494-1.94-6.057-1.94-1.777 0-3.349.356-4.715 1.07-1.355.713-2.4 1.717-3.138 3.01-.725 1.282-1.088 2.727-1.088 4.335h4.407c0-1.511.393-2.702 1.179-3.573.786-.87 1.892-1.306 3.319-1.306 1.197 0 2.146.387 2.847 1.161.713.774 1.07 1.79 1.07 3.047 0 .955-.272 1.91-.816 2.865-.532.944-1.433 2.122-2.702 3.537l-8.796 9.594v3.029z" fill="#549DA1"/><path d="M255.631 61.905h17.755v-3.519h-12.26l6.456-6.91c1.693-1.837 2.908-3.476 3.646-4.914.749-1.451 1.124-2.836 1.124-4.154 0-2.273-.743-4.05-2.231-5.332-1.475-1.293-3.494-1.94-6.057-1.94-1.777 0-3.349.356-4.715 1.07-1.355.713-2.4 1.717-3.138 3.01-.725 1.282-1.088 2.727-1.088 4.335h4.407c0-1.511.393-2.702 1.179-3.573.786-.87 1.892-1.306 3.319-1.306 1.197 0 2.146.387 2.847 1.161.713.774 1.07 1.79 1.07 3.047 0 .955-.272 1.91-.816 2.865-.532.944-1.433 2.122-2.702 3.537l-8.796 9.594v3.029z" fill="#183646"/><path d="M255.631 61.905h17.755v-3.519h-12.26l6.456-6.91c1.693-1.837 2.908-3.476 3.646-4.914.749-1.451 1.124-2.836 1.124-4.154 0-2.273-.743-4.05-2.231-5.332-1.475-1.293-3.494-1.94-6.057-1.94-1.777 0-3.349.356-4.715 1.07-1.355.713-2.4 1.717-3.138 3.01-.725 1.282-1.088 2.727-1.088 4.335h4.407c0-1.511.393-2.702 1.179-3.573.786-.87 1.892-1.306 3.319-1.306 1.197 0 2.146.387 2.847 1.161.713.774 1.07 1.79 1.07 3.047 0 .955-.272 1.91-.816 2.865-.532.944-1.433 2.122-2.702 3.537l-8.796 9.594v3.029z" fill="#005B8B"/><path d="M255.631 61.905h17.755v-3.519h-12.26l6.456-6.91c1.693-1.837 2.908-3.476 3.646-4.914.749-1.451 1.124-2.836 1.124-4.154 0-2.273-.743-4.05-2.231-5.332-1.475-1.293-3.494-1.94-6.057-1.94-1.777 0-3.349.356-4.715 1.07-1.355.713-2.4 1.717-3.138 3.01-.725 1.282-1.088 2.727-1.088 4.335h4.407c0-1.511.393-2.702 1.179-3.573.786-.87 1.892-1.306 3.319-1.306 1.197 0 2.146.387 2.847 1.161.713.774 1.07 1.79 1.07 3.047 0 .955-.272 1.91-.816 2.865-.532.944-1.433 2.122-2.702 3.537l-8.796 9.594v3.029z" fill="url(#paint10_linear_520_6527)"/><path d="M310.781 52.42c.822.628 1.233 1.523 1.233 2.684 0 1.064-.405 1.922-1.215 2.575-.798.64-1.995.961-3.591.961-1.85 0-3.271-.41-4.262-1.233-.992-.822-1.487-1.983-1.487-3.482h-4.589c0 1.656.441 3.107 1.324 4.353.895 1.245 2.14 2.224 3.736 2.938 1.608.7 3.367 1.051 5.278 1.051 2.889 0 5.175-.646 6.855-1.94 1.693-1.306 2.539-3.06 2.539-5.26 0-1.354-.29-2.533-.87-3.536-.581-1.016-1.494-1.91-2.739-2.684-1.245-.786-2.896-1.481-4.951-2.086-2.055-.617-3.531-1.245-4.425-1.886-.895-.653-1.342-1.463-1.342-2.43 0-1.149.411-2.044 1.233-2.684.834-.641 2.001-.962 3.5-.962 1.608 0 2.842.393 3.7 1.18.871.773 1.306 1.849 1.306 3.227h4.57c0-1.523-.411-2.908-1.233-4.153-.822-1.257-1.953-2.224-3.392-2.902-1.438-.677-3.077-1.015-4.915-1.015-2.768 0-5.023.689-6.764 2.067-1.729 1.379-2.594 3.132-2.594 5.26 0 2.43 1.203 4.4 3.609 5.912 1.258.786 2.95 1.5 5.078 2.14 2.128.641 3.597 1.276 4.408 1.904z" fill="#000"/><path d="M310.781 52.42c.822.628 1.233 1.523 1.233 2.684 0 1.064-.405 1.922-1.215 2.575-.798.64-1.995.961-3.591.961-1.85 0-3.271-.41-4.262-1.233-.992-.822-1.487-1.983-1.487-3.482h-4.589c0 1.656.441 3.107 1.324 4.353.895 1.245 2.14 2.224 3.736 2.938 1.608.7 3.367 1.051 5.278 1.051 2.889 0 5.175-.646 6.855-1.94 1.693-1.306 2.539-3.06 2.539-5.26 0-1.354-.29-2.533-.87-3.536-.581-1.016-1.494-1.91-2.739-2.684-1.245-.786-2.896-1.481-4.951-2.086-2.055-.617-3.531-1.245-4.425-1.886-.895-.653-1.342-1.463-1.342-2.43 0-1.149.411-2.044 1.233-2.684.834-.641 2.001-.962 3.5-.962 1.608 0 2.842.393 3.7 1.18.871.773 1.306 1.849 1.306 3.227h4.57c0-1.523-.411-2.908-1.233-4.153-.822-1.257-1.953-2.224-3.392-2.902-1.438-.677-3.077-1.015-4.915-1.015-2.768 0-5.023.689-6.764 2.067-1.729 1.379-2.594 3.132-2.594 5.26 0 2.43 1.203 4.4 3.609 5.912 1.258.786 2.95 1.5 5.078 2.14 2.128.641 3.597 1.276 4.408 1.904z" fill="#062633"/><path d="M310.781 52.42c.822.628 1.233 1.523 1.233 2.684 0 1.064-.405 1.922-1.215 2.575-.798.64-1.995.961-3.591.961-1.85 0-3.271-.41-4.262-1.233-.992-.822-1.487-1.983-1.487-3.482h-4.589c0 1.656.441 3.107 1.324 4.353.895 1.245 2.14 2.224 3.736 2.938 1.608.7 3.367 1.051 5.278 1.051 2.889 0 5.175-.646 6.855-1.94 1.693-1.306 2.539-3.06 2.539-5.26 0-1.354-.29-2.533-.87-3.536-.581-1.016-1.494-1.91-2.739-2.684-1.245-.786-2.896-1.481-4.951-2.086-2.055-.617-3.531-1.245-4.425-1.886-.895-.653-1.342-1.463-1.342-2.43 0-1.149.411-2.044 1.233-2.684.834-.641 2.001-.962 3.5-.962 1.608 0 2.842.393 3.7 1.18.871.773 1.306 1.849 1.306 3.227h4.57c0-1.523-.411-2.908-1.233-4.153-.822-1.257-1.953-2.224-3.392-2.902-1.438-.677-3.077-1.015-4.915-1.015-2.768 0-5.023.689-6.764 2.067-1.729 1.379-2.594 3.132-2.594 5.26 0 2.43 1.203 4.4 3.609 5.912 1.258.786 2.95 1.5 5.078 2.14 2.128.641 3.597 1.276 4.408 1.904z" fill="#226180"/><path d="M310.781 52.42c.822.628 1.233 1.523 1.233 2.684 0 1.064-.405 1.922-1.215 2.575-.798.64-1.995.961-3.591.961-1.85 0-3.271-.41-4.262-1.233-.992-.822-1.487-1.983-1.487-3.482h-4.589c0 1.656.441 3.107 1.324 4.353.895 1.245 2.14 2.224 3.736 2.938 1.608.7 3.367 1.051 5.278 1.051 2.889 0 5.175-.646 6.855-1.94 1.693-1.306 2.539-3.06 2.539-5.26 0-1.354-.29-2.533-.87-3.536-.581-1.016-1.494-1.91-2.739-2.684-1.245-.786-2.896-1.481-4.951-2.086-2.055-.617-3.531-1.245-4.425-1.886-.895-.653-1.342-1.463-1.342-2.43 0-1.149.411-2.044 1.233-2.684.834-.641 2.001-.962 3.5-.962 1.608 0 2.842.393 3.7 1.18.871.773 1.306 1.849 1.306 3.227h4.57c0-1.523-.411-2.908-1.233-4.153-.822-1.257-1.953-2.224-3.392-2.902-1.438-.677-3.077-1.015-4.915-1.015-2.768 0-5.023.689-6.764 2.067-1.729 1.379-2.594 3.132-2.594 5.26 0 2.43 1.203 4.4 3.609 5.912 1.258.786 2.95 1.5 5.078 2.14 2.128.641 3.597 1.276 4.408 1.904z" fill="#549DA1"/><path d="M310.781 52.42c.822.628 1.233 1.523 1.233 2.684 0 1.064-.405 1.922-1.215 2.575-.798.64-1.995.961-3.591.961-1.85 0-3.271-.41-4.262-1.233-.992-.822-1.487-1.983-1.487-3.482h-4.589c0 1.656.441 3.107 1.324 4.353.895 1.245 2.14 2.224 3.736 2.938 1.608.7 3.367 1.051 5.278 1.051 2.889 0 5.175-.646 6.855-1.94 1.693-1.306 2.539-3.06 2.539-5.26 0-1.354-.29-2.533-.87-3.536-.581-1.016-1.494-1.91-2.739-2.684-1.245-.786-2.896-1.481-4.951-2.086-2.055-.617-3.531-1.245-4.425-1.886-.895-.653-1.342-1.463-1.342-2.43 0-1.149.411-2.044 1.233-2.684.834-.641 2.001-.962 3.5-.962 1.608 0 2.842.393 3.7 1.18.871.773 1.306 1.849 1.306 3.227h4.57c0-1.523-.411-2.908-1.233-4.153-.822-1.257-1.953-2.224-3.392-2.902-1.438-.677-3.077-1.015-4.915-1.015-2.768 0-5.023.689-6.764 2.067-1.729 1.379-2.594 3.132-2.594 5.26 0 2.43 1.203 4.4 3.609 5.912 1.258.786 2.95 1.5 5.078 2.14 2.128.641 3.597 1.276 4.408 1.904z" fill="#183646"/><path d="M310.781 52.42c.822.628 1.233 1.523 1.233 2.684 0 1.064-.405 1.922-1.215 2.575-.798.64-1.995.961-3.591.961-1.85 0-3.271-.41-4.262-1.233-.992-.822-1.487-1.983-1.487-3.482h-4.589c0 1.656.441 3.107 1.324 4.353.895 1.245 2.14 2.224 3.736 2.938 1.608.7 3.367 1.051 5.278 1.051 2.889 0 5.175-.646 6.855-1.94 1.693-1.306 2.539-3.06 2.539-5.26 0-1.354-.29-2.533-.87-3.536-.581-1.016-1.494-1.91-2.739-2.684-1.245-.786-2.896-1.481-4.951-2.086-2.055-.617-3.531-1.245-4.425-1.886-.895-.653-1.342-1.463-1.342-2.43 0-1.149.411-2.044 1.233-2.684.834-.641 2.001-.962 3.5-.962 1.608 0 2.842.393 3.7 1.18.871.773 1.306 1.849 1.306 3.227h4.57c0-1.523-.411-2.908-1.233-4.153-.822-1.257-1.953-2.224-3.392-2.902-1.438-.677-3.077-1.015-4.915-1.015-2.768 0-5.023.689-6.764 2.067-1.729 1.379-2.594 3.132-2.594 5.26 0 2.43 1.203 4.4 3.609 5.912 1.258.786 2.95 1.5 5.078 2.14 2.128.641 3.597 1.276 4.408 1.904z" fill="#005B8B"/><path d="M310.781 52.42c.822.628 1.233 1.523 1.233 2.684 0 1.064-.405 1.922-1.215 2.575-.798.64-1.995.961-3.591.961-1.85 0-3.271-.41-4.262-1.233-.992-.822-1.487-1.983-1.487-3.482h-4.589c0 1.656.441 3.107 1.324 4.353.895 1.245 2.14 2.224 3.736 2.938 1.608.7 3.367 1.051 5.278 1.051 2.889 0 5.175-.646 6.855-1.94 1.693-1.306 2.539-3.06 2.539-5.26 0-1.354-.29-2.533-.87-3.536-.581-1.016-1.494-1.91-2.739-2.684-1.245-.786-2.896-1.481-4.951-2.086-2.055-.617-3.531-1.245-4.425-1.886-.895-.653-1.342-1.463-1.342-2.43 0-1.149.411-2.044 1.233-2.684.834-.641 2.001-.962 3.5-.962 1.608 0 2.842.393 3.7 1.18.871.773 1.306 1.849 1.306 3.227h4.57c0-1.523-.411-2.908-1.233-4.153-.822-1.257-1.953-2.224-3.392-2.902-1.438-.677-3.077-1.015-4.915-1.015-2.768 0-5.023.689-6.764 2.067-1.729 1.379-2.594 3.132-2.594 5.26 0 2.43 1.203 4.4 3.609 5.912 1.258.786 2.95 1.5 5.078 2.14 2.128.641 3.597 1.276 4.408 1.904z" fill="url(#paint11_linear_520_6527)"/><path d="M337.231 39.198h8.234v-3.7h-20.947v3.7h8.161v22.707h4.552V39.198z" fill="#000"/><path d="M337.231 39.198h8.234v-3.7h-20.947v3.7h8.161v22.707h4.552V39.198z" fill="#062633"/><path d="M337.231 39.198h8.234v-3.7h-20.947v3.7h8.161v22.707h4.552V39.198z" fill="#226180"/><path d="M337.231 39.198h8.234v-3.7h-20.947v3.7h8.161v22.707h4.552V39.198z" fill="#549DA1"/><path d="M337.231 39.198h8.234v-3.7h-20.947v3.7h8.161v22.707h4.552V39.198z" fill="#183646"/><path d="M337.231 39.198h8.234v-3.7h-20.947v3.7h8.161v22.707h4.552V39.198z" fill="#005B8B"/><path d="M337.231 39.198h8.234v-3.7h-20.947v3.7h8.161v22.707h4.552V39.198z" fill="url(#paint12_linear_520_6527)"/><path fill-rule="evenodd" clip-rule="evenodd" d="M354.94 61.905l2.14-6.148h10.229l2.158 6.148h4.788l-9.993-26.407h-4.117l-9.975 26.407h4.77zm7.254-20.802l3.827 10.954h-7.653l3.826-10.954z" fill="#000"/><path fill-rule="evenodd" clip-rule="evenodd" d="M354.94 61.905l2.14-6.148h10.229l2.158 6.148h4.788l-9.993-26.407h-4.117l-9.975 26.407h4.77zm7.254-20.802l3.827 10.954h-7.653l3.826-10.954z" fill="#062633"/><path fill-rule="evenodd" clip-rule="evenodd" d="M354.94 61.905l2.14-6.148h10.229l2.158 6.148h4.788l-9.993-26.407h-4.117l-9.975 26.407h4.77zm7.254-20.802l3.827 10.954h-7.653l3.826-10.954z" fill="#226180"/><path fill-rule="evenodd" clip-rule="evenodd" d="M354.94 61.905l2.14-6.148h10.229l2.158 6.148h4.788l-9.993-26.407h-4.117l-9.975 26.407h4.77zm7.254-20.802l3.827 10.954h-7.653l3.826-10.954z" fill="#549DA1"/><path fill-rule="evenodd" clip-rule="evenodd" d="M354.94 61.905l2.14-6.148h10.229l2.158 6.148h4.788l-9.993-26.407h-4.117l-9.975 26.407h4.77zm7.254-20.802l3.827 10.954h-7.653l3.826-10.954z" fill="#183646"/><path fill-rule="evenodd" clip-rule="evenodd" d="M354.94 61.905l2.14-6.148h10.229l2.158 6.148h4.788l-9.993-26.407h-4.117l-9.975 26.407h4.77zm7.254-20.802l3.827 10.954h-7.653l3.826-10.954z" fill="#005B8B"/><path fill-rule="evenodd" clip-rule="evenodd" d="M354.94 61.905l2.14-6.148h10.229l2.158 6.148h4.788l-9.993-26.407h-4.117l-9.975 26.407h4.77zm7.254-20.802l3.827 10.954h-7.653l3.826-10.954z" fill="url(#paint13_linear_520_6527)"/><path d="M391.692 39.198h8.234v-3.7h-20.948v3.7h8.162v22.707h4.552V39.198z" fill="#000"/><path d="M391.692 39.198h8.234v-3.7h-20.948v3.7h8.162v22.707h4.552V39.198z" fill="#062633"/><path d="M391.692 39.198h8.234v-3.7h-20.948v3.7h8.162v22.707h4.552V39.198z" fill="#226180"/><path d="M391.692 39.198h8.234v-3.7h-20.948v3.7h8.162v22.707h4.552V39.198z" fill="#549DA1"/><path d="M391.692 39.198h8.234v-3.7h-20.948v3.7h8.162v22.707h4.552V39.198z" fill="#183646"/><path d="M391.692 39.198h8.234v-3.7h-20.948v3.7h8.162v22.707h4.552V39.198z" fill="#005B8B"/><path d="M391.692 39.198h8.234v-3.7h-20.948v3.7h8.162v22.707h4.552V39.198z" fill="url(#paint14_linear_520_6527)"/><path d="M409.437 61.905h4.57V35.498h-4.57v26.407z" fill="#000"/><path d="M409.437 61.905h4.57V35.498h-4.57v26.407z" fill="#062633"/><path d="M409.437 61.905h4.57V35.498h-4.57v26.407z" fill="#226180"/><path d="M409.437 61.905h4.57V35.498h-4.57v26.407z" fill="#549DA1"/><path d="M409.437 61.905h4.57V35.498h-4.57v26.407z" fill="#183646"/><path d="M409.437 61.905h4.57V35.498h-4.57v26.407z" fill="#005B8B"/><path d="M409.437 61.905h4.57V35.498h-4.57v26.407z" fill="url(#paint15_linear_520_6527)"/><path d="M442.435 59.91c1.813-1.584 2.853-3.785 3.119-6.602h-4.57c-.242 1.886-.816 3.234-1.723 4.045-.907.81-2.261 1.215-4.063 1.215-1.971 0-3.47-.75-4.498-2.25-1.015-1.498-1.523-3.675-1.523-6.528v-2.34c.024-2.817.568-4.95 1.632-6.402 1.076-1.463 2.612-2.194 4.607-2.194 1.717 0 3.017.423 3.899 1.27.895.834 1.451 2.2 1.669 4.098h4.57c-.29-2.89-1.324-5.127-3.101-6.71-1.778-1.584-4.123-2.376-7.037-2.376-2.164 0-4.075.514-5.731 1.541-1.645 1.028-2.908 2.491-3.791 4.39-.882 1.898-1.324 4.092-1.324 6.583v2.466c.037 2.43.49 4.565 1.361 6.402.87 1.838 2.103 3.259 3.699 4.262 1.609.992 3.464 1.487 5.568 1.487 3.011 0 5.423-.785 7.237-2.357z" fill="#000"/><path d="M442.435 59.91c1.813-1.584 2.853-3.785 3.119-6.602h-4.57c-.242 1.886-.816 3.234-1.723 4.045-.907.81-2.261 1.215-4.063 1.215-1.971 0-3.47-.75-4.498-2.25-1.015-1.498-1.523-3.675-1.523-6.528v-2.34c.024-2.817.568-4.95 1.632-6.402 1.076-1.463 2.612-2.194 4.607-2.194 1.717 0 3.017.423 3.899 1.27.895.834 1.451 2.2 1.669 4.098h4.57c-.29-2.89-1.324-5.127-3.101-6.71-1.778-1.584-4.123-2.376-7.037-2.376-2.164 0-4.075.514-5.731 1.541-1.645 1.028-2.908 2.491-3.791 4.39-.882 1.898-1.324 4.092-1.324 6.583v2.466c.037 2.43.49 4.565 1.361 6.402.87 1.838 2.103 3.259 3.699 4.262 1.609.992 3.464 1.487 5.568 1.487 3.011 0 5.423-.785 7.237-2.357z" fill="#062633"/><path d="M442.435 59.91c1.813-1.584 2.853-3.785 3.119-6.602h-4.57c-.242 1.886-.816 3.234-1.723 4.045-.907.81-2.261 1.215-4.063 1.215-1.971 0-3.47-.75-4.498-2.25-1.015-1.498-1.523-3.675-1.523-6.528v-2.34c.024-2.817.568-4.95 1.632-6.402 1.076-1.463 2.612-2.194 4.607-2.194 1.717 0 3.017.423 3.899 1.27.895.834 1.451 2.2 1.669 4.098h4.57c-.29-2.89-1.324-5.127-3.101-6.71-1.778-1.584-4.123-2.376-7.037-2.376-2.164 0-4.075.514-5.731 1.541-1.645 1.028-2.908 2.491-3.791 4.39-.882 1.898-1.324 4.092-1.324 6.583v2.466c.037 2.43.49 4.565 1.361 6.402.87 1.838 2.103 3.259 3.699 4.262 1.609.992 3.464 1.487 5.568 1.487 3.011 0 5.423-.785 7.237-2.357z" fill="#226180"/><path d="M442.435 59.91c1.813-1.584 2.853-3.785 3.119-6.602h-4.57c-.242 1.886-.816 3.234-1.723 4.045-.907.81-2.261 1.215-4.063 1.215-1.971 0-3.47-.75-4.498-2.25-1.015-1.498-1.523-3.675-1.523-6.528v-2.34c.024-2.817.568-4.95 1.632-6.402 1.076-1.463 2.612-2.194 4.607-2.194 1.717 0 3.017.423 3.899 1.27.895.834 1.451 2.2 1.669 4.098h4.57c-.29-2.89-1.324-5.127-3.101-6.71-1.778-1.584-4.123-2.376-7.037-2.376-2.164 0-4.075.514-5.731 1.541-1.645 1.028-2.908 2.491-3.791 4.39-.882 1.898-1.324 4.092-1.324 6.583v2.466c.037 2.43.49 4.565 1.361 6.402.87 1.838 2.103 3.259 3.699 4.262 1.609.992 3.464 1.487 5.568 1.487 3.011 0 5.423-.785 7.237-2.357z" fill="#549DA1"/><path d="M442.435 59.91c1.813-1.584 2.853-3.785 3.119-6.602h-4.57c-.242 1.886-.816 3.234-1.723 4.045-.907.81-2.261 1.215-4.063 1.215-1.971 0-3.47-.75-4.498-2.25-1.015-1.498-1.523-3.675-1.523-6.528v-2.34c.024-2.817.568-4.95 1.632-6.402 1.076-1.463 2.612-2.194 4.607-2.194 1.717 0 3.017.423 3.899 1.27.895.834 1.451 2.2 1.669 4.098h4.57c-.29-2.89-1.324-5.127-3.101-6.71-1.778-1.584-4.123-2.376-7.037-2.376-2.164 0-4.075.514-5.731 1.541-1.645 1.028-2.908 2.491-3.791 4.39-.882 1.898-1.324 4.092-1.324 6.583v2.466c.037 2.43.49 4.565 1.361 6.402.87 1.838 2.103 3.259 3.699 4.262 1.609.992 3.464 1.487 5.568 1.487 3.011 0 5.423-.785 7.237-2.357z" fill="#183646"/><path d="M442.435 59.91c1.813-1.584 2.853-3.785 3.119-6.602h-4.57c-.242 1.886-.816 3.234-1.723 4.045-.907.81-2.261 1.215-4.063 1.215-1.971 0-3.47-.75-4.498-2.25-1.015-1.498-1.523-3.675-1.523-6.528v-2.34c.024-2.817.568-4.95 1.632-6.402 1.076-1.463 2.612-2.194 4.607-2.194 1.717 0 3.017.423 3.899 1.27.895.834 1.451 2.2 1.669 4.098h4.57c-.29-2.89-1.324-5.127-3.101-6.71-1.778-1.584-4.123-2.376-7.037-2.376-2.164 0-4.075.514-5.731 1.541-1.645 1.028-2.908 2.491-3.791 4.39-.882 1.898-1.324 4.092-1.324 6.583v2.466c.037 2.43.49 4.565 1.361 6.402.87 1.838 2.103 3.259 3.699 4.262 1.609.992 3.464 1.487 5.568 1.487 3.011 0 5.423-.785 7.237-2.357z" fill="#005B8B"/><path d="M442.435 59.91c1.813-1.584 2.853-3.785 3.119-6.602h-4.57c-.242 1.886-.816 3.234-1.723 4.045-.907.81-2.261 1.215-4.063 1.215-1.971 0-3.47-.75-4.498-2.25-1.015-1.498-1.523-3.675-1.523-6.528v-2.34c.024-2.817.568-4.95 1.632-6.402 1.076-1.463 2.612-2.194 4.607-2.194 1.717 0 3.017.423 3.899 1.27.895.834 1.451 2.2 1.669 4.098h4.57c-.29-2.89-1.324-5.127-3.101-6.71-1.778-1.584-4.123-2.376-7.037-2.376-2.164 0-4.075.514-5.731 1.541-1.645 1.028-2.908 2.491-3.791 4.39-.882 1.898-1.324 4.092-1.324 6.583v2.466c.037 2.43.49 4.565 1.361 6.402.87 1.838 2.103 3.259 3.699 4.262 1.609.992 3.464 1.487 5.568 1.487 3.011 0 5.423-.785 7.237-2.357z" fill="url(#paint16_linear_520_6527)"/><path d="M87.897 17.907a195.523 195.523 0 00-1.563-4.36A169.026 169.026 0 0084.9 9.764c-.47-1.197-.941-2.344-1.412-3.441a129.36 129.36 0 00-1.412-3.228h-1.948a219.695 219.695 0 00-1.434 3.228 400.858 400.858 0 00-1.412 3.44 271.558 271.558 0 00-1.455 3.784c-.5 1.339-1.013 2.792-1.541 4.36h2.29c.77-2.252 1.526-4.417 2.268-6.498a98.872 98.872 0 012.29-5.856 94.317 94.317 0 012.29 5.835c.742 2.094 1.49 4.267 2.247 6.519h2.226z" fill="#000"/><path d="M87.897 17.907a195.523 195.523 0 00-1.563-4.36A169.026 169.026 0 0084.9 9.764c-.47-1.197-.941-2.344-1.412-3.441a129.36 129.36 0 00-1.412-3.228h-1.948a219.695 219.695 0 00-1.434 3.228 400.858 400.858 0 00-1.412 3.44 271.558 271.558 0 00-1.455 3.784c-.5 1.339-1.013 2.792-1.541 4.36h2.29c.77-2.252 1.526-4.417 2.268-6.498a98.872 98.872 0 012.29-5.856 94.317 94.317 0 012.29 5.835c.742 2.094 1.49 4.267 2.247 6.519h2.226z" fill="#062633"/><path d="M87.897 17.907a195.523 195.523 0 00-1.563-4.36A169.026 169.026 0 0084.9 9.764c-.47-1.197-.941-2.344-1.412-3.441a129.36 129.36 0 00-1.412-3.228h-1.948a219.695 219.695 0 00-1.434 3.228 400.858 400.858 0 00-1.412 3.44 271.558 271.558 0 00-1.455 3.784c-.5 1.339-1.013 2.792-1.541 4.36h2.29c.77-2.252 1.526-4.417 2.268-6.498a98.872 98.872 0 012.29-5.856 94.317 94.317 0 012.29 5.835c.742 2.094 1.49 4.267 2.247 6.519h2.226z" fill="#226180"/><path d="M87.897 17.907a195.523 195.523 0 00-1.563-4.36A169.026 169.026 0 0084.9 9.764c-.47-1.197-.941-2.344-1.412-3.441a129.36 129.36 0 00-1.412-3.228h-1.948a219.695 219.695 0 00-1.434 3.228 400.858 400.858 0 00-1.412 3.44 271.558 271.558 0 00-1.455 3.784c-.5 1.339-1.013 2.792-1.541 4.36h2.29c.77-2.252 1.526-4.417 2.268-6.498a98.872 98.872 0 012.29-5.856 94.317 94.317 0 012.29 5.835c.742 2.094 1.49 4.267 2.247 6.519h2.226z" fill="#549DA1"/><path d="M87.897 17.907a195.523 195.523 0 00-1.563-4.36A169.026 169.026 0 0084.9 9.764c-.47-1.197-.941-2.344-1.412-3.441a129.36 129.36 0 00-1.412-3.228h-1.948a219.695 219.695 0 00-1.434 3.228 400.858 400.858 0 00-1.412 3.44 271.558 271.558 0 00-1.455 3.784c-.5 1.339-1.013 2.792-1.541 4.36h2.29c.77-2.252 1.526-4.417 2.268-6.498a98.872 98.872 0 012.29-5.856 94.317 94.317 0 012.29 5.835c.742 2.094 1.49 4.267 2.247 6.519h2.226z" fill="#183646"/><path d="M87.897 17.907a195.523 195.523 0 00-1.563-4.36A169.026 169.026 0 0084.9 9.764c-.47-1.197-.941-2.344-1.412-3.441a129.36 129.36 0 00-1.412-3.228h-1.948a219.695 219.695 0 00-1.434 3.228 400.858 400.858 0 00-1.412 3.44 271.558 271.558 0 00-1.455 3.784c-.5 1.339-1.013 2.792-1.541 4.36h2.29c.77-2.252 1.526-4.417 2.268-6.498a98.872 98.872 0 012.29-5.856 94.317 94.317 0 012.29 5.835c.742 2.094 1.49 4.267 2.247 6.519h2.226z" fill="#005B8B"/><path d="M87.897 17.907a195.523 195.523 0 00-1.563-4.36A169.026 169.026 0 0084.9 9.764c-.47-1.197-.941-2.344-1.412-3.441a129.36 129.36 0 00-1.412-3.228h-1.948a219.695 219.695 0 00-1.434 3.228 400.858 400.858 0 00-1.412 3.44 271.558 271.558 0 00-1.455 3.784c-.5 1.339-1.013 2.792-1.541 4.36h2.29c.77-2.252 1.526-4.417 2.268-6.498a98.872 98.872 0 012.29-5.856 94.317 94.317 0 012.29 5.835c.742 2.094 1.49 4.267 2.247 6.519h2.226z" fill="url(#paint17_linear_520_6527)"/><path d="M201.123 13.547c.499 1.339 1.02 2.792 1.562 4.36h-2.226a418.783 418.783 0 00-2.247-6.52 94.838 94.838 0 00-2.289-5.834 98.049 98.049 0 00-2.29 5.856 528.237 528.237 0 00-2.269 6.498h-2.289a142.743 142.743 0 011.54-4.36c.499-1.326.985-2.587 1.455-3.783.485-1.197.956-2.344 1.413-3.441.471-1.083.948-2.16 1.434-3.228h1.947a128.62 128.62 0 011.413 3.228c.47 1.097.941 2.244 1.412 3.44a168.04 168.04 0 011.434 3.784z" fill="#000"/><path d="M201.123 13.547c.499 1.339 1.02 2.792 1.562 4.36h-2.226a418.783 418.783 0 00-2.247-6.52 94.838 94.838 0 00-2.289-5.834 98.049 98.049 0 00-2.29 5.856 528.237 528.237 0 00-2.269 6.498h-2.289a142.743 142.743 0 011.54-4.36c.499-1.326.985-2.587 1.455-3.783.485-1.197.956-2.344 1.413-3.441.471-1.083.948-2.16 1.434-3.228h1.947a128.62 128.62 0 011.413 3.228c.47 1.097.941 2.244 1.412 3.44a168.04 168.04 0 011.434 3.784z" fill="#062633"/><path d="M201.123 13.547c.499 1.339 1.02 2.792 1.562 4.36h-2.226a418.783 418.783 0 00-2.247-6.52 94.838 94.838 0 00-2.289-5.834 98.049 98.049 0 00-2.29 5.856 528.237 528.237 0 00-2.269 6.498h-2.289a142.743 142.743 0 011.54-4.36c.499-1.326.985-2.587 1.455-3.783.485-1.197.956-2.344 1.413-3.441.471-1.083.948-2.16 1.434-3.228h1.947a128.62 128.62 0 011.413 3.228c.47 1.097.941 2.244 1.412 3.44a168.04 168.04 0 011.434 3.784z" fill="#226180"/><path d="M201.123 13.547c.499 1.339 1.02 2.792 1.562 4.36h-2.226a418.783 418.783 0 00-2.247-6.52 94.838 94.838 0 00-2.289-5.834 98.049 98.049 0 00-2.29 5.856 528.237 528.237 0 00-2.269 6.498h-2.289a142.743 142.743 0 011.54-4.36c.499-1.326.985-2.587 1.455-3.783.485-1.197.956-2.344 1.413-3.441.471-1.083.948-2.16 1.434-3.228h1.947a128.62 128.62 0 011.413 3.228c.47 1.097.941 2.244 1.412 3.44a168.04 168.04 0 011.434 3.784z" fill="#549DA1"/><path d="M201.123 13.547c.499 1.339 1.02 2.792 1.562 4.36h-2.226a418.783 418.783 0 00-2.247-6.52 94.838 94.838 0 00-2.289-5.834 98.049 98.049 0 00-2.29 5.856 528.237 528.237 0 00-2.269 6.498h-2.289a142.743 142.743 0 011.54-4.36c.499-1.326.985-2.587 1.455-3.783.485-1.197.956-2.344 1.413-3.441.471-1.083.948-2.16 1.434-3.228h1.947a128.62 128.62 0 011.413 3.228c.47 1.097.941 2.244 1.412 3.44a168.04 168.04 0 011.434 3.784z" fill="#183646"/><path d="M201.123 13.547c.499 1.339 1.02 2.792 1.562 4.36h-2.226a418.783 418.783 0 00-2.247-6.52 94.838 94.838 0 00-2.289-5.834 98.049 98.049 0 00-2.29 5.856 528.237 528.237 0 00-2.269 6.498h-2.289a142.743 142.743 0 011.54-4.36c.499-1.326.985-2.587 1.455-3.783.485-1.197.956-2.344 1.413-3.441.471-1.083.948-2.16 1.434-3.228h1.947a128.62 128.62 0 011.413 3.228c.47 1.097.941 2.244 1.412 3.44a168.04 168.04 0 011.434 3.784z" fill="#005B8B"/><path d="M201.123 13.547c.499 1.339 1.02 2.792 1.562 4.36h-2.226a418.783 418.783 0 00-2.247-6.52 94.838 94.838 0 00-2.289-5.834 98.049 98.049 0 00-2.29 5.856 528.237 528.237 0 00-2.269 6.498h-2.289a142.743 142.743 0 011.54-4.36c.499-1.326.985-2.587 1.455-3.783.485-1.197.956-2.344 1.413-3.441.471-1.083.948-2.16 1.434-3.228h1.947a128.62 128.62 0 011.413 3.228c.47 1.097.941 2.244 1.412 3.44a168.04 168.04 0 011.434 3.784z" fill="url(#paint18_linear_520_6527)"/><path d="M226.569 18.572c-.97 0-1.811-.15-2.525-.45-.713-.299-1.298-.705-1.755-1.218a5.268 5.268 0 01-1.027-1.86 7.987 7.987 0 01-.321-2.307V3.44h2.076v9.062c0 1.481.328 2.557.984 3.227.657.67 1.512 1.005 2.568 1.005a4.15 4.15 0 001.434-.236c.442-.17.821-.427 1.135-.77.313-.34.556-.776.727-1.303.171-.541.257-1.182.257-1.923V3.44h2.076v9.297c0 .826-.114 1.596-.342 2.308a4.854 4.854 0 01-1.028 1.86c-.457.512-1.042.918-1.755 1.218-.699.299-1.534.448-2.504.448z" fill="#000"/><path d="M226.569 18.572c-.97 0-1.811-.15-2.525-.45-.713-.299-1.298-.705-1.755-1.218a5.268 5.268 0 01-1.027-1.86 7.987 7.987 0 01-.321-2.307V3.44h2.076v9.062c0 1.481.328 2.557.984 3.227.657.67 1.512 1.005 2.568 1.005a4.15 4.15 0 001.434-.236c.442-.17.821-.427 1.135-.77.313-.34.556-.776.727-1.303.171-.541.257-1.182.257-1.923V3.44h2.076v9.297c0 .826-.114 1.596-.342 2.308a4.854 4.854 0 01-1.028 1.86c-.457.512-1.042.918-1.755 1.218-.699.299-1.534.448-2.504.448z" fill="#062633"/><path d="M226.569 18.572c-.97 0-1.811-.15-2.525-.45-.713-.299-1.298-.705-1.755-1.218a5.268 5.268 0 01-1.027-1.86 7.987 7.987 0 01-.321-2.307V3.44h2.076v9.062c0 1.481.328 2.557.984 3.227.657.67 1.512 1.005 2.568 1.005a4.15 4.15 0 001.434-.236c.442-.17.821-.427 1.135-.77.313-.34.556-.776.727-1.303.171-.541.257-1.182.257-1.923V3.44h2.076v9.297c0 .826-.114 1.596-.342 2.308a4.854 4.854 0 01-1.028 1.86c-.457.512-1.042.918-1.755 1.218-.699.299-1.534.448-2.504.448z" fill="#226180"/><path d="M226.569 18.572c-.97 0-1.811-.15-2.525-.45-.713-.299-1.298-.705-1.755-1.218a5.268 5.268 0 01-1.027-1.86 7.987 7.987 0 01-.321-2.307V3.44h2.076v9.062c0 1.481.328 2.557.984 3.227.657.67 1.512 1.005 2.568 1.005a4.15 4.15 0 001.434-.236c.442-.17.821-.427 1.135-.77.313-.34.556-.776.727-1.303.171-.541.257-1.182.257-1.923V3.44h2.076v9.297c0 .826-.114 1.596-.342 2.308a4.854 4.854 0 01-1.028 1.86c-.457.512-1.042.918-1.755 1.218-.699.299-1.534.448-2.504.448z" fill="#549DA1"/><path d="M226.569 18.572c-.97 0-1.811-.15-2.525-.45-.713-.299-1.298-.705-1.755-1.218a5.268 5.268 0 01-1.027-1.86 7.987 7.987 0 01-.321-2.307V3.44h2.076v9.062c0 1.481.328 2.557.984 3.227.657.67 1.512 1.005 2.568 1.005a4.15 4.15 0 001.434-.236c.442-.17.821-.427 1.135-.77.313-.34.556-.776.727-1.303.171-.541.257-1.182.257-1.923V3.44h2.076v9.297c0 .826-.114 1.596-.342 2.308a4.854 4.854 0 01-1.028 1.86c-.457.512-1.042.918-1.755 1.218-.699.299-1.534.448-2.504.448z" fill="#183646"/><path d="M226.569 18.572c-.97 0-1.811-.15-2.525-.45-.713-.299-1.298-.705-1.755-1.218a5.268 5.268 0 01-1.027-1.86 7.987 7.987 0 01-.321-2.307V3.44h2.076v9.062c0 1.481.328 2.557.984 3.227.657.67 1.512 1.005 2.568 1.005a4.15 4.15 0 001.434-.236c.442-.17.821-.427 1.135-.77.313-.34.556-.776.727-1.303.171-.541.257-1.182.257-1.923V3.44h2.076v9.297c0 .826-.114 1.596-.342 2.308a4.854 4.854 0 01-1.028 1.86c-.457.512-1.042.918-1.755 1.218-.699.299-1.534.448-2.504.448z" fill="#005B8B"/><path d="M226.569 18.572c-.97 0-1.811-.15-2.525-.45-.713-.299-1.298-.705-1.755-1.218a5.268 5.268 0 01-1.027-1.86 7.987 7.987 0 01-.321-2.307V3.44h2.076v9.062c0 1.481.328 2.557.984 3.227.657.67 1.512 1.005 2.568 1.005a4.15 4.15 0 001.434-.236c.442-.17.821-.427 1.135-.77.313-.34.556-.776.727-1.303.171-.541.257-1.182.257-1.923V3.44h2.076v9.297c0 .826-.114 1.596-.342 2.308a4.854 4.854 0 01-1.028 1.86c-.457.512-1.042.918-1.755 1.218-.699.299-1.534.448-2.504.448z" fill="url(#paint19_linear_520_6527)"/><path d="M115.19 18.251v-1.795h-6.848V3.44h-2.076v14.81h8.924z" fill="#000"/><path d="M115.19 18.251v-1.795h-6.848V3.44h-2.076v14.81h8.924z" fill="#062633"/><path d="M115.19 18.251v-1.795h-6.848V3.44h-2.076v14.81h8.924z" fill="#226180"/><path d="M115.19 18.251v-1.795h-6.848V3.44h-2.076v14.81h8.924z" fill="#549DA1"/><path d="M115.19 18.251v-1.795h-6.848V3.44h-2.076v14.81h8.924z" fill="#183646"/><path d="M115.19 18.251v-1.795h-6.848V3.44h-2.076v14.81h8.924z" fill="#005B8B"/><path d="M115.19 18.251v-1.795h-6.848V3.44h-2.076v14.81h8.924z" fill="url(#paint20_linear_520_6527)"/><path d="M142.425 16.456v1.795h-8.924V3.44h2.076v13.016h6.848z" fill="#000"/><path d="M142.425 16.456v1.795h-8.924V3.44h2.076v13.016h6.848z" fill="#062633"/><path d="M142.425 16.456v1.795h-8.924V3.44h2.076v13.016h6.848z" fill="#226180"/><path d="M142.425 16.456v1.795h-8.924V3.44h2.076v13.016h6.848z" fill="#549DA1"/><path d="M142.425 16.456v1.795h-8.924V3.44h2.076v13.016h6.848z" fill="#183646"/><path d="M142.425 16.456v1.795h-8.924V3.44h2.076v13.016h6.848z" fill="#005B8B"/><path d="M142.425 16.456v1.795h-8.924V3.44h2.076v13.016h6.848z" fill="url(#paint21_linear_520_6527)"/><path fill-rule="evenodd" clip-rule="evenodd" d="M163.758 18.357c.357.014.685.021.984.021 2.369 0 4.095-.37 5.179-1.111 1.099-.755 1.648-1.874 1.648-3.356 0-1.011-.256-1.795-.77-2.35-.514-.556-1.206-.963-2.076-1.219.642-.257 1.156-.641 1.541-1.154.385-.527.578-1.197.578-2.01 0-.726-.157-1.339-.471-1.837a3.42 3.42 0 00-1.306-1.197c-.542-.314-1.191-.535-1.947-.663a14.093 14.093 0 00-2.397-.192 27.33 27.33 0 00-2.012.086c-.342.028-.685.064-1.027.106-.342.043-.656.1-.941.171v14.363c.285.071.599.128.941.17a24.989 24.989 0 002.076.172zm-.963-1.796v-5.214h2.675a9.44 9.44 0 011.626.128 3.75 3.75 0 011.242.427c.357.2.628.47.813.812.185.328.278.734.278 1.219 0 .541-.128.99-.385 1.346a2.45 2.45 0 01-.985.834c-.413.2-.898.342-1.455.427a13.36 13.36 0 01-1.733.107h-.878a34.988 34.988 0 01-.641-.043c-.215-.014-.4-.028-.557-.043zm2.183-6.882h-2.183V5.106c.242-.029.513-.05.813-.064.3-.015.714-.022 1.241-.022.528 0 1.028.043 1.498.128.471.086.878.221 1.22.407.357.17.635.406.835.705.2.285.3.641.3 1.068 0 .456-.1.834-.3 1.133-.185.3-.45.541-.792.727a3.468 3.468 0 01-1.177.385 9.404 9.404 0 01-1.455.106z" fill="#000"/><path fill-rule="evenodd" clip-rule="evenodd" d="M163.758 18.357c.357.014.685.021.984.021 2.369 0 4.095-.37 5.179-1.111 1.099-.755 1.648-1.874 1.648-3.356 0-1.011-.256-1.795-.77-2.35-.514-.556-1.206-.963-2.076-1.219.642-.257 1.156-.641 1.541-1.154.385-.527.578-1.197.578-2.01 0-.726-.157-1.339-.471-1.837a3.42 3.42 0 00-1.306-1.197c-.542-.314-1.191-.535-1.947-.663a14.093 14.093 0 00-2.397-.192 27.33 27.33 0 00-2.012.086c-.342.028-.685.064-1.027.106-.342.043-.656.1-.941.171v14.363c.285.071.599.128.941.17a24.989 24.989 0 002.076.172zm-.963-1.796v-5.214h2.675a9.44 9.44 0 011.626.128 3.75 3.75 0 011.242.427c.357.2.628.47.813.812.185.328.278.734.278 1.219 0 .541-.128.99-.385 1.346a2.45 2.45 0 01-.985.834c-.413.2-.898.342-1.455.427a13.36 13.36 0 01-1.733.107h-.878a34.988 34.988 0 01-.641-.043c-.215-.014-.4-.028-.557-.043zm2.183-6.882h-2.183V5.106c.242-.029.513-.05.813-.064.3-.015.714-.022 1.241-.022.528 0 1.028.043 1.498.128.471.086.878.221 1.22.407.357.17.635.406.835.705.2.285.3.641.3 1.068 0 .456-.1.834-.3 1.133-.185.3-.45.541-.792.727a3.468 3.468 0 01-1.177.385 9.404 9.404 0 01-1.455.106z" fill="#062633"/><path fill-rule="evenodd" clip-rule="evenodd" d="M163.758 18.357c.357.014.685.021.984.021 2.369 0 4.095-.37 5.179-1.111 1.099-.755 1.648-1.874 1.648-3.356 0-1.011-.256-1.795-.77-2.35-.514-.556-1.206-.963-2.076-1.219.642-.257 1.156-.641 1.541-1.154.385-.527.578-1.197.578-2.01 0-.726-.157-1.339-.471-1.837a3.42 3.42 0 00-1.306-1.197c-.542-.314-1.191-.535-1.947-.663a14.093 14.093 0 00-2.397-.192 27.33 27.33 0 00-2.012.086c-.342.028-.685.064-1.027.106-.342.043-.656.1-.941.171v14.363c.285.071.599.128.941.17a24.989 24.989 0 002.076.172zm-.963-1.796v-5.214h2.675a9.44 9.44 0 011.626.128 3.75 3.75 0 011.242.427c.357.2.628.47.813.812.185.328.278.734.278 1.219 0 .541-.128.99-.385 1.346a2.45 2.45 0 01-.985.834c-.413.2-.898.342-1.455.427a13.36 13.36 0 01-1.733.107h-.878a34.988 34.988 0 01-.641-.043c-.215-.014-.4-.028-.557-.043zm2.183-6.882h-2.183V5.106c.242-.029.513-.05.813-.064.3-.015.714-.022 1.241-.022.528 0 1.028.043 1.498.128.471.086.878.221 1.22.407.357.17.635.406.835.705.2.285.3.641.3 1.068 0 .456-.1.834-.3 1.133-.185.3-.45.541-.792.727a3.468 3.468 0 01-1.177.385 9.404 9.404 0 01-1.455.106z" fill="#226180"/><path fill-rule="evenodd" clip-rule="evenodd" d="M163.758 18.357c.357.014.685.021.984.021 2.369 0 4.095-.37 5.179-1.111 1.099-.755 1.648-1.874 1.648-3.356 0-1.011-.256-1.795-.77-2.35-.514-.556-1.206-.963-2.076-1.219.642-.257 1.156-.641 1.541-1.154.385-.527.578-1.197.578-2.01 0-.726-.157-1.339-.471-1.837a3.42 3.42 0 00-1.306-1.197c-.542-.314-1.191-.535-1.947-.663a14.093 14.093 0 00-2.397-.192 27.33 27.33 0 00-2.012.086c-.342.028-.685.064-1.027.106-.342.043-.656.1-.941.171v14.363c.285.071.599.128.941.17a24.989 24.989 0 002.076.172zm-.963-1.796v-5.214h2.675a9.44 9.44 0 011.626.128 3.75 3.75 0 011.242.427c.357.2.628.47.813.812.185.328.278.734.278 1.219 0 .541-.128.99-.385 1.346a2.45 2.45 0 01-.985.834c-.413.2-.898.342-1.455.427a13.36 13.36 0 01-1.733.107h-.878a34.988 34.988 0 01-.641-.043c-.215-.014-.4-.028-.557-.043zm2.183-6.882h-2.183V5.106c.242-.029.513-.05.813-.064.3-.015.714-.022 1.241-.022.528 0 1.028.043 1.498.128.471.086.878.221 1.22.407.357.17.635.406.835.705.2.285.3.641.3 1.068 0 .456-.1.834-.3 1.133-.185.3-.45.541-.792.727a3.468 3.468 0 01-1.177.385 9.404 9.404 0 01-1.455.106z" fill="#549DA1"/><path fill-rule="evenodd" clip-rule="evenodd" d="M163.758 18.357c.357.014.685.021.984.021 2.369 0 4.095-.37 5.179-1.111 1.099-.755 1.648-1.874 1.648-3.356 0-1.011-.256-1.795-.77-2.35-.514-.556-1.206-.963-2.076-1.219.642-.257 1.156-.641 1.541-1.154.385-.527.578-1.197.578-2.01 0-.726-.157-1.339-.471-1.837a3.42 3.42 0 00-1.306-1.197c-.542-.314-1.191-.535-1.947-.663a14.093 14.093 0 00-2.397-.192 27.33 27.33 0 00-2.012.086c-.342.028-.685.064-1.027.106-.342.043-.656.1-.941.171v14.363c.285.071.599.128.941.17a24.989 24.989 0 002.076.172zm-.963-1.796v-5.214h2.675a9.44 9.44 0 011.626.128 3.75 3.75 0 011.242.427c.357.2.628.47.813.812.185.328.278.734.278 1.219 0 .541-.128.99-.385 1.346a2.45 2.45 0 01-.985.834c-.413.2-.898.342-1.455.427a13.36 13.36 0 01-1.733.107h-.878a34.988 34.988 0 01-.641-.043c-.215-.014-.4-.028-.557-.043zm2.183-6.882h-2.183V5.106c.242-.029.513-.05.813-.064.3-.015.714-.022 1.241-.022.528 0 1.028.043 1.498.128.471.086.878.221 1.22.407.357.17.635.406.835.705.2.285.3.641.3 1.068 0 .456-.1.834-.3 1.133-.185.3-.45.541-.792.727a3.468 3.468 0 01-1.177.385 9.404 9.404 0 01-1.455.106z" fill="#183646"/><path fill-rule="evenodd" clip-rule="evenodd" d="M163.758 18.357c.357.014.685.021.984.021 2.369 0 4.095-.37 5.179-1.111 1.099-.755 1.648-1.874 1.648-3.356 0-1.011-.256-1.795-.77-2.35-.514-.556-1.206-.963-2.076-1.219.642-.257 1.156-.641 1.541-1.154.385-.527.578-1.197.578-2.01 0-.726-.157-1.339-.471-1.837a3.42 3.42 0 00-1.306-1.197c-.542-.314-1.191-.535-1.947-.663a14.093 14.093 0 00-2.397-.192 27.33 27.33 0 00-2.012.086c-.342.028-.685.064-1.027.106-.342.043-.656.1-.941.171v14.363c.285.071.599.128.941.17a24.989 24.989 0 002.076.172zm-.963-1.796v-5.214h2.675a9.44 9.44 0 011.626.128 3.75 3.75 0 011.242.427c.357.2.628.47.813.812.185.328.278.734.278 1.219 0 .541-.128.99-.385 1.346a2.45 2.45 0 01-.985.834c-.413.2-.898.342-1.455.427a13.36 13.36 0 01-1.733.107h-.878a34.988 34.988 0 01-.641-.043c-.215-.014-.4-.028-.557-.043zm2.183-6.882h-2.183V5.106c.242-.029.513-.05.813-.064.3-.015.714-.022 1.241-.022.528 0 1.028.043 1.498.128.471.086.878.221 1.22.407.357.17.635.406.835.705.2.285.3.641.3 1.068 0 .456-.1.834-.3 1.133-.185.3-.45.541-.792.727a3.468 3.468 0 01-1.177.385 9.404 9.404 0 01-1.455.106z" fill="#005B8B"/><path fill-rule="evenodd" clip-rule="evenodd" d="M163.758 18.357c.357.014.685.021.984.021 2.369 0 4.095-.37 5.179-1.111 1.099-.755 1.648-1.874 1.648-3.356 0-1.011-.256-1.795-.77-2.35-.514-.556-1.206-.963-2.076-1.219.642-.257 1.156-.641 1.541-1.154.385-.527.578-1.197.578-2.01 0-.726-.157-1.339-.471-1.837a3.42 3.42 0 00-1.306-1.197c-.542-.314-1.191-.535-1.947-.663a14.093 14.093 0 00-2.397-.192 27.33 27.33 0 00-2.012.086c-.342.028-.685.064-1.027.106-.342.043-.656.1-.941.171v14.363c.285.071.599.128.941.17a24.989 24.989 0 002.076.172zm-.963-1.796v-5.214h2.675a9.44 9.44 0 011.626.128 3.75 3.75 0 011.242.427c.357.2.628.47.813.812.185.328.278.734.278 1.219 0 .541-.128.99-.385 1.346a2.45 2.45 0 01-.985.834c-.413.2-.898.342-1.455.427a13.36 13.36 0 01-1.733.107h-.878a34.988 34.988 0 01-.641-.043c-.215-.014-.4-.028-.557-.043zm2.183-6.882h-2.183V5.106c.242-.029.513-.05.813-.064.3-.015.714-.022 1.241-.022.528 0 1.028.043 1.498.128.471.086.878.221 1.22.407.357.17.635.406.835.705.2.285.3.641.3 1.068 0 .456-.1.834-.3 1.133-.185.3-.45.541-.792.727a3.468 3.468 0 01-1.177.385 9.404 9.404 0 01-1.455.106z" fill="url(#paint22_linear_520_6527)"/><defs><linearGradient id="paint0_linear_520_6527" x1="445.554" y1="74.064" x2="-.939" y2="63.096" gradientUnits="userSpaceOnUse"><stop stop-color="#FA3901"/><stop offset="1" stop-color="#FF8902"/></linearGradient><linearGradient id="paint1_linear_520_6527" x1="445.554" y1="74.064" x2="-.939" y2="63.096" gradientUnits="userSpaceOnUse"><stop stop-color="#FA3901"/><stop offset="1" stop-color="#FF8902"/></linearGradient><linearGradient id="paint2_linear_520_6527" x1="445.554" y1="74.064" x2="-.939" y2="63.096" gradientUnits="userSpaceOnUse"><stop stop-color="#FA3901"/><stop offset="1" stop-color="#FF8902"/></linearGradient><linearGradient id="paint3_linear_520_6527" x1="445.554" y1="74.064" x2="-.939" y2="63.096" gradientUnits="userSpaceOnUse"><stop stop-color="#FA3901"/><stop offset="1" stop-color="#FF8902"/></linearGradient><linearGradient id="paint4_linear_520_6527" x1="445.554" y1="74.064" x2="-.939" y2="63.096" gradientUnits="userSpaceOnUse"><stop stop-color="#FA3901"/><stop offset="1" stop-color="#FF8902"/></linearGradient><linearGradient id="paint5_linear_520_6527" x1="445.554" y1="74.064" x2="-.939" y2="63.096" gradientUnits="userSpaceOnUse"><stop stop-color="#FA3901"/><stop offset="1" stop-color="#FF8902"/></linearGradient><linearGradient id="paint6_linear_520_6527" x1="445.554" y1="74.064" x2="-.939" y2="63.096" gradientUnits="userSpaceOnUse"><stop stop-color="#FA3901"/><stop offset="1" stop-color="#FF8902"/></linearGradient><linearGradient id="paint7_linear_520_6527" x1="445.554" y1="74.064" x2="-.939" y2="63.096" gradientUnits="userSpaceOnUse"><stop stop-color="#FA3901"/><stop offset="1" stop-color="#FF8902"/></linearGradient><linearGradient id="paint8_linear_520_6527" x1="445.554" y1="74.064" x2="-.939" y2="63.096" gradientUnits="userSpaceOnUse"><stop stop-color="#FA3901"/><stop offset="1" stop-color="#FF8902"/></linearGradient><linearGradient id="paint9_linear_520_6527" x1="445.554" y1="74.064" x2="-.939" y2="63.096" gradientUnits="userSpaceOnUse"><stop stop-color="#FA3901"/><stop offset="1" stop-color="#FF8902"/></linearGradient><linearGradient id="paint10_linear_520_6527" x1="445.554" y1="74.064" x2="-.939" y2="63.096" gradientUnits="userSpaceOnUse"><stop stop-color="#FA3901"/><stop offset="1" stop-color="#FF8902"/></linearGradient><linearGradient id="paint11_linear_520_6527" x1="445.554" y1="74.064" x2="-.939" y2="63.096" gradientUnits="userSpaceOnUse"><stop stop-color="#FA3901"/><stop offset="1" stop-color="#FF8902"/></linearGradient><linearGradient id="paint12_linear_520_6527" x1="445.554" y1="74.064" x2="-.939" y2="63.096" gradientUnits="userSpaceOnUse"><stop stop-color="#FA3901"/><stop offset="1" stop-color="#FF8902"/></linearGradient><linearGradient id="paint13_linear_520_6527" x1="445.554" y1="74.064" x2="-.939" y2="63.096" gradientUnits="userSpaceOnUse"><stop stop-color="#FA3901"/><stop offset="1" stop-color="#FF8902"/></linearGradient><linearGradient id="paint14_linear_520_6527" x1="445.554" y1="74.064" x2="-.939" y2="63.096" gradientUnits="userSpaceOnUse"><stop stop-color="#FA3901"/><stop offset="1" stop-color="#FF8902"/></linearGradient><linearGradient id="paint15_linear_520_6527" x1="445.554" y1="74.064" x2="-.939" y2="63.096" gradientUnits="userSpaceOnUse"><stop stop-color="#FA3901"/><stop offset="1" stop-color="#FF8902"/></linearGradient><linearGradient id="paint16_linear_520_6527" x1="445.554" y1="74.064" x2="-.939" y2="63.096" gradientUnits="userSpaceOnUse"><stop stop-color="#FA3901"/><stop offset="1" stop-color="#FF8902"/></linearGradient><linearGradient id="paint17_linear_520_6527" x1="445.554" y1="74.064" x2="-.939" y2="63.096" gradientUnits="userSpaceOnUse"><stop stop-color="#FA3901"/><stop offset="1" stop-color="#FF8902"/></linearGradient><linearGradient id="paint18_linear_520_6527" x1="445.554" y1="74.064" x2="-.939" y2="63.096" gradientUnits="userSpaceOnUse"><stop stop-color="#FA3901"/><stop offset="1" stop-color="#FF8902"/></linearGradient><linearGradient id="paint19_linear_520_6527" x1="445.554" y1="74.064" x2="-.939" y2="63.096" gradientUnits="userSpaceOnUse"><stop stop-color="#FA3901"/><stop offset="1" stop-color="#FF8902"/></linearGradient><linearGradient id="paint20_linear_520_6527" x1="445.554" y1="74.064" x2="-.939" y2="63.096" gradientUnits="userSpaceOnUse"><stop stop-color="#FA3901"/><stop offset="1" stop-color="#FF8902"/></linearGradient><linearGradient id="paint21_linear_520_6527" x1="445.554" y1="74.064" x2="-.939" y2="63.096" gradientUnits="userSpaceOnUse"><stop stop-color="#FA3901"/><stop offset="1" stop-color="#FF8902"/></linearGradient><linearGradient id="paint22_linear_520_6527" x1="445.554" y1="74.064" x2="-.939" y2="63.096" gradientUnits="userSpaceOnUse"><stop stop-color="#FA3901"/><stop offset="1" stop-color="#FF8902"/></linearGradient></defs></svg>