<svg width="263" height="42" fill="none" xmlns="http://www.w3.org/2000/svg"><path fill-rule="evenodd" clip-rule="evenodd" d="M23.797.05c.406 1.304.812 2.608 1.219 3.861l7.773 23.017 4.878 14.442c.025.1.05.188.076.276.026.087.051.175.076.275-.965.15-.965.15-1.219-.601C31.977 27.68 27.353 14.04 22.73.35a.662.662 0 01-.051-.175.712.712 0 00-.051-.175c.457.05.813.05 1.169.05zM15.614 14H19.5v-.511h-2.978l1.589-1.433c.744-.671 1.116-1.25 1.116-1.735 0-.4-.16-.72-.48-.959C18.425 9.121 17.99 9 17.438 9c-.59 0-1.06.14-1.413.42-.35.28-.526.647-.526 1.101h.754c0-.316.103-.562.31-.738.208-.179.5-.268.875-.268.312 0 .562.082.75.247a.806.806 0 01.28.634c0 .192-.058.378-.175.559-.114.178-.323.41-.627.697l-2.053 1.898V14zM0 11.17l1.181 2.059h3.672c2.386 0 4.24.734 5.563 2.202 1.333 1.468 2 3.558 2 6.271v1.357c0 2.638-.63 4.686-1.887 6.143-1.247 1.468-3.02 2.213-5.321 2.234H3.264L4 33.5l1.202.01c2.043 0 3.645-.446 5.214-1.34 1.57-.893 2.426-1.925 3.276-3.574.86-1.65 1.33-3.67 1.34-5.809v-1.085c0-2.191-.48-3.968-1.34-5.617-.85-1.649-1.685-2.691-3.276-3.574-1.58-.883-3.101-1.32-5.208-1.34H0zm28 18.964c-.145 1.235-.602 2.19-1.373 2.863-.765.669-1.785 1.003-3.059 1.003-1.38 0-2.489-.495-3.324-1.484-.83-.99-1.244-2.313-1.244-3.97v-1.123c0-1.086.193-2.04.578-2.864.39-.824.942-1.455 1.654-1.893.712-.444 1.536-.666 2.473-.666 1.242 0 2.237.348 2.986 1.043.75.69 1.186 1.647 1.309 2.871h-1.55c-.133-.93-.425-1.604-.875-2.021-.444-.417-1.067-.626-1.87-.626-.985 0-1.758.364-2.32 1.091-.557.728-.836 1.762-.836 3.105v1.13c0 1.268.265 2.276.795 3.025.53.748 1.271 1.123 2.224 1.123.857 0 1.512-.193 1.967-.578.46-.39.766-1.067.916-2.03H28zm21.734-7.197V40h4.91c1.54 0 2.903-.332 4.09-.996a6.744 6.744 0 002.754-2.836c.649-1.227.973-2.648.973-4.266v-.855c0-1.594-.32-3.008-.961-4.242-.64-1.235-1.547-2.188-2.719-2.86-1.164-.672-2.5-1.008-4.008-1.008h-5.039zM52.7 37.633V25.328h2.074c1.532 0 2.7.488 3.504 1.465.805.977 1.207 2.39 1.207 4.242v.95c-.015 1.82-.441 3.218-1.277 4.195-.828.968-2.02 1.453-3.574 1.453H52.7zm19.4-5.25h7.008v-2.344H72.1v-4.71h8.11v-2.392H69.133V40H80.29v-2.367H72.1v-5.25zm22.447 1.488c.53.406.796.984.796 1.734 0 .688-.261 1.243-.785 1.665-.515.414-1.289.62-2.32.62-1.195 0-2.113-.265-2.754-.796-.64-.532-.961-1.282-.961-2.25h-2.965c0 1.07.285 2.008.856 2.812.578.805 1.383 1.438 2.414 1.899 1.039.453 2.175.68 3.41.68 1.867 0 3.344-.419 4.43-1.255 1.093-.843 1.64-1.976 1.64-3.398 0-.875-.187-1.637-.562-2.285-.375-.656-.965-1.234-1.77-1.734-.804-.508-1.87-.957-3.2-1.348-1.327-.399-2.28-.805-2.858-1.219-.579-.422-.868-.945-.868-1.57 0-.742.266-1.32.797-1.735.54-.414 1.293-.62 2.262-.62 1.039 0 1.836.253 2.39.761.563.5.844 1.195.844 2.086h2.954c0-.984-.266-1.879-.797-2.684-.532-.812-1.262-1.437-2.192-1.875-.93-.437-1.988-.656-3.176-.656-1.789 0-3.246.445-4.37 1.336-1.118.89-1.676 2.023-1.676 3.398 0 1.57.777 2.844 2.332 3.82.812.509 1.906.97 3.28 1.384 1.376.414 2.325.824 2.849 1.23zM104.805 40h2.953V22.937h-2.953V40zm20.829-.387c1.094-.414 1.949-1.023 2.566-1.828v-6.539h-6.468v2.25h3.515v3.34c-.64.687-1.719 1.031-3.234 1.031-1.383 0-2.465-.508-3.246-1.523-.774-1.024-1.16-2.457-1.16-4.301V30.73c.023-1.851.378-3.253 1.066-4.207.695-.96 1.707-1.441 3.035-1.441 2.055 0 3.246 1.027 3.574 3.082h2.907c-.227-1.766-.899-3.117-2.016-4.055-1.117-.937-2.625-1.406-4.523-1.406-2.211 0-3.934.727-5.168 2.18-1.235 1.445-1.852 3.457-1.852 6.035v1.336c.023 1.61.332 3.02.926 4.23.601 1.203 1.453 2.13 2.554 2.778 1.102.648 2.368.972 3.797.972 1.391 0 2.633-.207 3.727-.62zm20.114.387h2.965V22.937h-2.941V35.09l-7.629-12.153h-2.965V40h2.965V27.895L145.748 40zm19.429 0h11.472v-2.273h-7.921l4.171-4.465c1.094-1.188 1.879-2.246 2.356-3.176.484-.938.726-1.832.726-2.684 0-1.468-.48-2.617-1.441-3.445-.953-.836-2.258-1.254-3.914-1.254-1.148 0-2.164.23-3.047.692a4.914 4.914 0 00-2.027 1.945c-.469.828-.703 1.762-.703 2.8h2.847c0-.976.254-1.745.762-2.308.508-.563 1.223-.844 2.145-.844.773 0 1.386.25 1.839.75.461.5.692 1.157.692 1.969 0 .617-.176 1.234-.528 1.852-.343.609-.925 1.37-1.746 2.285l-5.683 6.199V40zm38.518-1.29c1.172-1.023 1.844-2.444 2.015-4.265h-2.953c-.156 1.22-.527 2.09-1.113 2.614-.586.523-1.461.785-2.625.785-1.273 0-2.242-.485-2.906-1.453-.656-.97-.985-2.375-.985-4.22v-1.51c.016-1.821.368-3.2 1.055-4.138.695-.945 1.688-1.418 2.977-1.418 1.109 0 1.949.274 2.519.82.578.54.938 1.423 1.078 2.65h2.953c-.187-1.868-.855-3.313-2.003-4.337-1.149-1.023-2.665-1.535-4.547-1.535-1.399 0-2.633.332-3.703.996-1.063.664-1.879 1.61-2.45 2.836-.57 1.227-.855 2.645-.855 4.254v1.594c.023 1.57.316 2.949.879 4.136.562 1.188 1.359 2.106 2.39 2.754 1.039.641 2.239.961 3.598.961 1.945 0 3.504-.507 4.676-1.523zm21.146-2.39c.578-1.265.867-2.734.867-4.406v-.95c-.008-1.663-.305-3.12-.891-4.37-.586-1.258-1.418-2.219-2.496-2.883-1.07-.672-2.301-1.008-3.691-1.008-1.391 0-2.625.34-3.703 1.02-1.071.672-1.903 1.644-2.497 2.918-.585 1.273-.878 2.742-.878 4.406v.96c.007 1.634.304 3.075.89 4.325.594 1.25 1.43 2.215 2.508 2.895 1.086.671 2.32 1.007 3.703 1.007 1.399 0 2.633-.336 3.703-1.007 1.078-.68 1.906-1.649 2.485-2.907zm-3.176-9.644c.719 1.008 1.078 2.457 1.078 4.347v.891c0 1.922-.356 3.383-1.066 4.383-.704 1-1.711 1.5-3.024 1.5-1.297 0-2.312-.512-3.047-1.535-.726-1.024-1.09-2.473-1.09-4.348v-.984c.016-1.836.383-3.254 1.102-4.254.727-1.008 1.73-1.512 3.012-1.512 1.312 0 2.324.504 3.035 1.512zm18.837 7.195c.531.406.797.984.797 1.734 0 .688-.262 1.243-.785 1.665-.516.414-1.289.62-2.321.62-1.195 0-2.113-.265-2.753-.796-.641-.532-.961-1.282-.961-2.25h-2.965c0 1.07.285 2.008.855 2.812.578.805 1.383 1.438 2.414 1.899 1.039.453 2.176.68 3.41.68 1.868 0 3.344-.419 4.43-1.255 1.094-.843 1.641-1.976 1.641-3.398 0-.875-.188-1.637-.563-2.285-.375-.656-.965-1.234-1.769-1.734-.805-.508-1.871-.957-3.2-1.348-1.328-.399-2.281-.805-2.859-1.219-.578-.422-.867-.945-.867-1.57 0-.742.266-1.32.797-1.735.539-.414 1.293-.62 2.262-.62 1.039 0 1.835.253 2.39.761.563.5.844 1.195.844 2.086h2.953c0-.984-.266-1.879-.797-2.684-.531-.812-1.262-1.437-2.191-1.875-.93-.437-1.989-.656-3.176-.656-1.789 0-3.246.445-4.371 1.336-1.117.89-1.676 2.023-1.676 3.398 0 1.57.777 2.844 2.332 3.82.813.509 1.906.97 3.281 1.384 1.375.414 2.325.824 2.848 1.23zm17.091-8.543h5.32v-2.39h-13.535v2.39h5.274V40h2.941V25.328zM56.795 11.57a125.77 125.77 0 00-1.01-2.817 109.34 109.34 0 00-.926-2.444 78.491 78.491 0 00-.913-2.224c-.295-.7-.6-1.395-.913-2.085h-1.258c-.313.69-.622 1.386-.926 2.085-.295.71-.6 1.45-.913 2.224-.304.773-.618 1.588-.94 2.444A93.95 93.95 0 0048 11.57h1.48c.497-1.454.986-2.854 1.465-4.198.48-1.344.973-2.605 1.48-3.784a61.6 61.6 0 011.48 3.77c.479 1.354.963 2.758 1.452 4.212h1.438zm73.161-2.817c.323.866.659 1.805 1.01 2.817h-1.438a280.772 280.772 0 00-1.452-4.212 61.6 61.6 0 00-1.48-3.77 63.84 63.84 0 00-1.479 3.784c-.48 1.344-.969 2.744-1.466 4.198h-1.48c.341-1.012.673-1.951.996-2.817.322-.856.636-1.67.94-2.444.313-.774.618-1.515.913-2.224.304-.7.613-1.395.926-2.085h1.259c.313.69.617 1.386.912 2.085.304.71.609 1.45.913 2.224.304.773.613 1.588.926 2.444zM146.399 12c-.627 0-1.171-.097-1.632-.29a3.089 3.089 0 01-1.134-.787 3.4 3.4 0 01-.664-1.202 5.17 5.17 0 01-.207-1.491V2.223h1.341v5.855c0 .957.212 1.653.636 2.085.424.433.977.65 1.66.65.341 0 .65-.051.926-.153.286-.11.53-.276.733-.497.203-.22.359-.501.47-.842.111-.35.166-.764.166-1.243V2.223h1.341V8.23c0 .534-.073 1.031-.221 1.491-.138.46-.359.861-.664 1.202a3.093 3.093 0 01-1.133.787c-.452.193-.992.29-1.618.29zm-71.969-.207v-1.16h-4.425v-8.41h-1.34v9.57h5.765zm17.599-1.16v1.16h-5.767v-9.57h1.342v8.41h4.425zm13.784 1.228c.23.01.442.014.636.014 1.53 0 2.646-.24 3.346-.718.71-.488 1.065-1.21 1.065-2.168 0-.654-.166-1.16-.498-1.52-.331-.358-.779-.62-1.341-.786.415-.166.747-.415.996-.746.249-.34.373-.774.373-1.298 0-.47-.101-.866-.304-1.188a2.21 2.21 0 00-.844-.773 3.751 3.751 0 00-1.258-.429 9.114 9.114 0 00-1.549-.124 17.729 17.729 0 00-1.3.055 16.8 16.8 0 00-.664.07 5.182 5.182 0 00-.608.11v9.28c.184.046.387.083.608.11a16.242 16.242 0 001.342.111zm-.622-1.16v-3.37h1.728c.387 0 .738.028 1.051.083.314.056.581.148.802.277a1.3 1.3 0 01.525.524c.12.212.18.475.18.788 0 .35-.083.64-.249.87-.156.23-.369.41-.636.538a3.3 3.3 0 01-.94.277c-.35.045-.724.069-1.12.069h-.567l-.415-.028c-.138-.01-.258-.019-.359-.028zm1.41-4.447h-1.41V3.3a7.63 7.63 0 01.525-.041c.194-.01.461-.014.802-.014s.664.027.968.083c.304.055.567.142.788.262.231.11.41.262.54.456.129.184.193.414.193.69 0 .295-.064.539-.193.732a1.34 1.34 0 01-.512.47c-.212.12-.466.202-.761.248a6.069 6.069 0 01-.94.07z" fill="#000"/><path fill-rule="evenodd" clip-rule="evenodd" d="M23.797.05c.406 1.304.812 2.608 1.219 3.861l7.773 23.017 4.878 14.442c.025.1.05.188.076.276.026.087.051.175.076.275-.965.15-.965.15-1.219-.601C31.977 27.68 27.353 14.04 22.73.35a.662.662 0 01-.051-.175.712.712 0 00-.051-.175c.457.05.813.05 1.169.05zM15.614 14H19.5v-.511h-2.978l1.589-1.433c.744-.671 1.116-1.25 1.116-1.735 0-.4-.16-.72-.48-.959C18.425 9.121 17.99 9 17.438 9c-.59 0-1.06.14-1.413.42-.35.28-.526.647-.526 1.101h.754c0-.316.103-.562.31-.738.208-.179.5-.268.875-.268.312 0 .562.082.75.247a.806.806 0 01.28.634c0 .192-.058.378-.175.559-.114.178-.323.41-.627.697l-2.053 1.898V14zM0 11.17l1.181 2.059h3.672c2.386 0 4.24.734 5.563 2.202 1.333 1.468 2 3.558 2 6.271v1.357c0 2.638-.63 4.686-1.887 6.143-1.247 1.468-3.02 2.213-5.321 2.234H3.264L4 33.5l1.202.01c2.043 0 3.645-.446 5.214-1.34 1.57-.893 2.426-1.925 3.276-3.574.86-1.65 1.33-3.67 1.34-5.809v-1.085c0-2.191-.48-3.968-1.34-5.617-.85-1.649-1.685-2.691-3.276-3.574-1.58-.883-3.101-1.32-5.208-1.34H0zm28 18.964c-.145 1.235-.602 2.19-1.373 2.863-.765.669-1.785 1.003-3.059 1.003-1.38 0-2.489-.495-3.324-1.484-.83-.99-1.244-2.313-1.244-3.97v-1.123c0-1.086.193-2.04.578-2.864.39-.824.942-1.455 1.654-1.893.712-.444 1.536-.666 2.473-.666 1.242 0 2.237.348 2.986 1.043.75.69 1.186 1.647 1.309 2.871h-1.55c-.133-.93-.425-1.604-.875-2.021-.444-.417-1.067-.626-1.87-.626-.985 0-1.758.364-2.32 1.091-.557.728-.836 1.762-.836 3.105v1.13c0 1.268.265 2.276.795 3.025.53.748 1.271 1.123 2.224 1.123.857 0 1.512-.193 1.967-.578.46-.39.766-1.067.916-2.03H28zm21.734-7.197V40h4.91c1.54 0 2.903-.332 4.09-.996a6.744 6.744 0 002.754-2.836c.649-1.227.973-2.648.973-4.266v-.855c0-1.594-.32-3.008-.961-4.242-.64-1.235-1.547-2.188-2.719-2.86-1.164-.672-2.5-1.008-4.008-1.008h-5.039zM52.7 37.633V25.328h2.074c1.532 0 2.7.488 3.504 1.465.805.977 1.207 2.39 1.207 4.242v.95c-.015 1.82-.441 3.218-1.277 4.195-.828.968-2.02 1.453-3.574 1.453H52.7zm19.4-5.25h7.008v-2.344H72.1v-4.71h8.11v-2.392H69.133V40H80.29v-2.367H72.1v-5.25zm22.447 1.488c.53.406.796.984.796 1.734 0 .688-.261 1.243-.785 1.665-.515.414-1.289.62-2.32.62-1.195 0-2.113-.265-2.754-.796-.64-.532-.961-1.282-.961-2.25h-2.965c0 1.07.285 2.008.856 2.812.578.805 1.383 1.438 2.414 1.899 1.039.453 2.175.68 3.41.68 1.867 0 3.344-.419 4.43-1.255 1.093-.843 1.64-1.976 1.64-3.398 0-.875-.187-1.637-.562-2.285-.375-.656-.965-1.234-1.77-1.734-.804-.508-1.87-.957-3.2-1.348-1.327-.399-2.28-.805-2.858-1.219-.579-.422-.868-.945-.868-1.57 0-.742.266-1.32.797-1.735.54-.414 1.293-.62 2.262-.62 1.039 0 1.836.253 2.39.761.563.5.844 1.195.844 2.086h2.954c0-.984-.266-1.879-.797-2.684-.532-.812-1.262-1.437-2.192-1.875-.93-.437-1.988-.656-3.176-.656-1.789 0-3.246.445-4.37 1.336-1.118.89-1.676 2.023-1.676 3.398 0 1.57.777 2.844 2.332 3.82.812.509 1.906.97 3.28 1.384 1.376.414 2.325.824 2.849 1.23zM104.805 40h2.953V22.937h-2.953V40zm20.829-.387c1.094-.414 1.949-1.023 2.566-1.828v-6.539h-6.468v2.25h3.515v3.34c-.64.687-1.719 1.031-3.234 1.031-1.383 0-2.465-.508-3.246-1.523-.774-1.024-1.16-2.457-1.16-4.301V30.73c.023-1.851.378-3.253 1.066-4.207.695-.96 1.707-1.441 3.035-1.441 2.055 0 3.246 1.027 3.574 3.082h2.907c-.227-1.766-.899-3.117-2.016-4.055-1.117-.937-2.625-1.406-4.523-1.406-2.211 0-3.934.727-5.168 2.18-1.235 1.445-1.852 3.457-1.852 6.035v1.336c.023 1.61.332 3.02.926 4.23.601 1.203 1.453 2.13 2.554 2.778 1.102.648 2.368.972 3.797.972 1.391 0 2.633-.207 3.727-.62zm20.114.387h2.965V22.937h-2.941V35.09l-7.629-12.153h-2.965V40h2.965V27.895L145.748 40zm19.429 0h11.472v-2.273h-7.921l4.171-4.465c1.094-1.188 1.879-2.246 2.356-3.176.484-.938.726-1.832.726-2.684 0-1.468-.48-2.617-1.441-3.445-.953-.836-2.258-1.254-3.914-1.254-1.148 0-2.164.23-3.047.692a4.914 4.914 0 00-2.027 1.945c-.469.828-.703 1.762-.703 2.8h2.847c0-.976.254-1.745.762-2.308.508-.563 1.223-.844 2.145-.844.773 0 1.386.25 1.839.75.461.5.692 1.157.692 1.969 0 .617-.176 1.234-.528 1.852-.343.609-.925 1.37-1.746 2.285l-5.683 6.199V40zm38.518-1.29c1.172-1.023 1.844-2.444 2.015-4.265h-2.953c-.156 1.22-.527 2.09-1.113 2.614-.586.523-1.461.785-2.625.785-1.273 0-2.242-.485-2.906-1.453-.656-.97-.985-2.375-.985-4.22v-1.51c.016-1.821.368-3.2 1.055-4.138.695-.945 1.688-1.418 2.977-1.418 1.109 0 1.949.274 2.519.82.578.54.938 1.423 1.078 2.65h2.953c-.187-1.868-.855-3.313-2.003-4.337-1.149-1.023-2.665-1.535-4.547-1.535-1.399 0-2.633.332-3.703.996-1.063.664-1.879 1.61-2.45 2.836-.57 1.227-.855 2.645-.855 4.254v1.594c.023 1.57.316 2.949.879 4.136.562 1.188 1.359 2.106 2.39 2.754 1.039.641 2.239.961 3.598.961 1.945 0 3.504-.507 4.676-1.523zm21.146-2.39c.578-1.265.867-2.734.867-4.406v-.95c-.008-1.663-.305-3.12-.891-4.37-.586-1.258-1.418-2.219-2.496-2.883-1.07-.672-2.301-1.008-3.691-1.008-1.391 0-2.625.34-3.703 1.02-1.071.672-1.903 1.644-2.497 2.918-.585 1.273-.878 2.742-.878 4.406v.96c.007 1.634.304 3.075.89 4.325.594 1.25 1.43 2.215 2.508 2.895 1.086.671 2.32 1.007 3.703 1.007 1.399 0 2.633-.336 3.703-1.007 1.078-.68 1.906-1.649 2.485-2.907zm-3.176-9.644c.719 1.008 1.078 2.457 1.078 4.347v.891c0 1.922-.356 3.383-1.066 4.383-.704 1-1.711 1.5-3.024 1.5-1.297 0-2.312-.512-3.047-1.535-.726-1.024-1.09-2.473-1.09-4.348v-.984c.016-1.836.383-3.254 1.102-4.254.727-1.008 1.73-1.512 3.012-1.512 1.312 0 2.324.504 3.035 1.512zm18.837 7.195c.531.406.797.984.797 1.734 0 .688-.262 1.243-.785 1.665-.516.414-1.289.62-2.321.62-1.195 0-2.113-.265-2.753-.796-.641-.532-.961-1.282-.961-2.25h-2.965c0 1.07.285 2.008.855 2.812.578.805 1.383 1.438 2.414 1.899 1.039.453 2.176.68 3.41.68 1.868 0 3.344-.419 4.43-1.255 1.094-.843 1.641-1.976 1.641-3.398 0-.875-.188-1.637-.563-2.285-.375-.656-.965-1.234-1.769-1.734-.805-.508-1.871-.957-3.2-1.348-1.328-.399-2.281-.805-2.859-1.219-.578-.422-.867-.945-.867-1.57 0-.742.266-1.32.797-1.735.539-.414 1.293-.62 2.262-.62 1.039 0 1.835.253 2.39.761.563.5.844 1.195.844 2.086h2.953c0-.984-.266-1.879-.797-2.684-.531-.812-1.262-1.437-2.191-1.875-.93-.437-1.989-.656-3.176-.656-1.789 0-3.246.445-4.371 1.336-1.117.89-1.676 2.023-1.676 3.398 0 1.57.777 2.844 2.332 3.82.813.509 1.906.97 3.281 1.384 1.375.414 2.325.824 2.848 1.23zm17.091-8.543h5.32v-2.39h-13.535v2.39h5.274V40h2.941V25.328zM56.795 11.57a125.77 125.77 0 00-1.01-2.817 109.34 109.34 0 00-.926-2.444 78.491 78.491 0 00-.913-2.224c-.295-.7-.6-1.395-.913-2.085h-1.258c-.313.69-.622 1.386-.926 2.085-.295.71-.6 1.45-.913 2.224-.304.773-.618 1.588-.94 2.444A93.95 93.95 0 0048 11.57h1.48c.497-1.454.986-2.854 1.465-4.198.48-1.344.973-2.605 1.48-3.784a61.6 61.6 0 011.48 3.77c.479 1.354.963 2.758 1.452 4.212h1.438zm73.161-2.817c.323.866.659 1.805 1.01 2.817h-1.438a280.772 280.772 0 00-1.452-4.212 61.6 61.6 0 00-1.48-3.77 63.84 63.84 0 00-1.479 3.784c-.48 1.344-.969 2.744-1.466 4.198h-1.48c.341-1.012.673-1.951.996-2.817.322-.856.636-1.67.94-2.444.313-.774.618-1.515.913-2.224.304-.7.613-1.395.926-2.085h1.259c.313.69.617 1.386.912 2.085.304.71.609 1.45.913 2.224.304.773.613 1.588.926 2.444zM146.399 12c-.627 0-1.171-.097-1.632-.29a3.089 3.089 0 01-1.134-.787 3.4 3.4 0 01-.664-1.202 5.17 5.17 0 01-.207-1.491V2.223h1.341v5.855c0 .957.212 1.653.636 2.085.424.433.977.65 1.66.65.341 0 .65-.051.926-.153.286-.11.53-.276.733-.497.203-.22.359-.501.47-.842.111-.35.166-.764.166-1.243V2.223h1.341V8.23c0 .534-.073 1.031-.221 1.491-.138.46-.359.861-.664 1.202a3.093 3.093 0 01-1.133.787c-.452.193-.992.29-1.618.29zm-71.969-.207v-1.16h-4.425v-8.41h-1.34v9.57h5.765zm17.599-1.16v1.16h-5.767v-9.57h1.342v8.41h4.425zm13.784 1.228c.23.01.442.014.636.014 1.53 0 2.646-.24 3.346-.718.71-.488 1.065-1.21 1.065-2.168 0-.654-.166-1.16-.498-1.52-.331-.358-.779-.62-1.341-.786.415-.166.747-.415.996-.746.249-.34.373-.774.373-1.298 0-.47-.101-.866-.304-1.188a2.21 2.21 0 00-.844-.773 3.751 3.751 0 00-1.258-.429 9.114 9.114 0 00-1.549-.124 17.729 17.729 0 00-1.3.055 16.8 16.8 0 00-.664.07 5.182 5.182 0 00-.608.11v9.28c.184.046.387.083.608.11a16.242 16.242 0 001.342.111zm-.622-1.16v-3.37h1.728c.387 0 .738.028 1.051.083.314.056.581.148.802.277a1.3 1.3 0 01.525.524c.12.212.18.475.18.788 0 .35-.083.64-.249.87-.156.23-.369.41-.636.538a3.3 3.3 0 01-.94.277c-.35.045-.724.069-1.12.069h-.567l-.415-.028c-.138-.01-.258-.019-.359-.028zm1.41-4.447h-1.41V3.3a7.63 7.63 0 01.525-.041c.194-.01.461-.014.802-.014s.664.027.968.083c.304.055.567.142.788.262.231.11.41.262.54.456.129.184.193.414.193.69 0 .295-.064.539-.193.732a1.34 1.34 0 01-.512.47c-.212.12-.466.202-.761.248a6.069 6.069 0 01-.94.07z" fill="#062633"/><path fill-rule="evenodd" clip-rule="evenodd" d="M23.797.05c.406 1.304.812 2.608 1.219 3.861l7.773 23.017 4.878 14.442c.025.1.05.188.076.276.026.087.051.175.076.275-.965.15-.965.15-1.219-.601C31.977 27.68 27.353 14.04 22.73.35a.662.662 0 01-.051-.175.712.712 0 00-.051-.175c.457.05.813.05 1.169.05zM15.614 14H19.5v-.511h-2.978l1.589-1.433c.744-.671 1.116-1.25 1.116-1.735 0-.4-.16-.72-.48-.959C18.425 9.121 17.99 9 17.438 9c-.59 0-1.06.14-1.413.42-.35.28-.526.647-.526 1.101h.754c0-.316.103-.562.31-.738.208-.179.5-.268.875-.268.312 0 .562.082.75.247a.806.806 0 01.28.634c0 .192-.058.378-.175.559-.114.178-.323.41-.627.697l-2.053 1.898V14zM0 11.17l1.181 2.059h3.672c2.386 0 4.24.734 5.563 2.202 1.333 1.468 2 3.558 2 6.271v1.357c0 2.638-.63 4.686-1.887 6.143-1.247 1.468-3.02 2.213-5.321 2.234H3.264L4 33.5l1.202.01c2.043 0 3.645-.446 5.214-1.34 1.57-.893 2.426-1.925 3.276-3.574.86-1.65 1.33-3.67 1.34-5.809v-1.085c0-2.191-.48-3.968-1.34-5.617-.85-1.649-1.685-2.691-3.276-3.574-1.58-.883-3.101-1.32-5.208-1.34H0zm28 18.964c-.145 1.235-.602 2.19-1.373 2.863-.765.669-1.785 1.003-3.059 1.003-1.38 0-2.489-.495-3.324-1.484-.83-.99-1.244-2.313-1.244-3.97v-1.123c0-1.086.193-2.04.578-2.864.39-.824.942-1.455 1.654-1.893.712-.444 1.536-.666 2.473-.666 1.242 0 2.237.348 2.986 1.043.75.69 1.186 1.647 1.309 2.871h-1.55c-.133-.93-.425-1.604-.875-2.021-.444-.417-1.067-.626-1.87-.626-.985 0-1.758.364-2.32 1.091-.557.728-.836 1.762-.836 3.105v1.13c0 1.268.265 2.276.795 3.025.53.748 1.271 1.123 2.224 1.123.857 0 1.512-.193 1.967-.578.46-.39.766-1.067.916-2.03H28zm21.734-7.197V40h4.91c1.54 0 2.903-.332 4.09-.996a6.744 6.744 0 002.754-2.836c.649-1.227.973-2.648.973-4.266v-.855c0-1.594-.32-3.008-.961-4.242-.64-1.235-1.547-2.188-2.719-2.86-1.164-.672-2.5-1.008-4.008-1.008h-5.039zM52.7 37.633V25.328h2.074c1.532 0 2.7.488 3.504 1.465.805.977 1.207 2.39 1.207 4.242v.95c-.015 1.82-.441 3.218-1.277 4.195-.828.968-2.02 1.453-3.574 1.453H52.7zm19.4-5.25h7.008v-2.344H72.1v-4.71h8.11v-2.392H69.133V40H80.29v-2.367H72.1v-5.25zm22.447 1.488c.53.406.796.984.796 1.734 0 .688-.261 1.243-.785 1.665-.515.414-1.289.62-2.32.62-1.195 0-2.113-.265-2.754-.796-.64-.532-.961-1.282-.961-2.25h-2.965c0 1.07.285 2.008.856 2.812.578.805 1.383 1.438 2.414 1.899 1.039.453 2.175.68 3.41.68 1.867 0 3.344-.419 4.43-1.255 1.093-.843 1.64-1.976 1.64-3.398 0-.875-.187-1.637-.562-2.285-.375-.656-.965-1.234-1.77-1.734-.804-.508-1.87-.957-3.2-1.348-1.327-.399-2.28-.805-2.858-1.219-.579-.422-.868-.945-.868-1.57 0-.742.266-1.32.797-1.735.54-.414 1.293-.62 2.262-.62 1.039 0 1.836.253 2.39.761.563.5.844 1.195.844 2.086h2.954c0-.984-.266-1.879-.797-2.684-.532-.812-1.262-1.437-2.192-1.875-.93-.437-1.988-.656-3.176-.656-1.789 0-3.246.445-4.37 1.336-1.118.89-1.676 2.023-1.676 3.398 0 1.57.777 2.844 2.332 3.82.812.509 1.906.97 3.28 1.384 1.376.414 2.325.824 2.849 1.23zM104.805 40h2.953V22.937h-2.953V40zm20.829-.387c1.094-.414 1.949-1.023 2.566-1.828v-6.539h-6.468v2.25h3.515v3.34c-.64.687-1.719 1.031-3.234 1.031-1.383 0-2.465-.508-3.246-1.523-.774-1.024-1.16-2.457-1.16-4.301V30.73c.023-1.851.378-3.253 1.066-4.207.695-.96 1.707-1.441 3.035-1.441 2.055 0 3.246 1.027 3.574 3.082h2.907c-.227-1.766-.899-3.117-2.016-4.055-1.117-.937-2.625-1.406-4.523-1.406-2.211 0-3.934.727-5.168 2.18-1.235 1.445-1.852 3.457-1.852 6.035v1.336c.023 1.61.332 3.02.926 4.23.601 1.203 1.453 2.13 2.554 2.778 1.102.648 2.368.972 3.797.972 1.391 0 2.633-.207 3.727-.62zm20.114.387h2.965V22.937h-2.941V35.09l-7.629-12.153h-2.965V40h2.965V27.895L145.748 40zm19.429 0h11.472v-2.273h-7.921l4.171-4.465c1.094-1.188 1.879-2.246 2.356-3.176.484-.938.726-1.832.726-2.684 0-1.468-.48-2.617-1.441-3.445-.953-.836-2.258-1.254-3.914-1.254-1.148 0-2.164.23-3.047.692a4.914 4.914 0 00-2.027 1.945c-.469.828-.703 1.762-.703 2.8h2.847c0-.976.254-1.745.762-2.308.508-.563 1.223-.844 2.145-.844.773 0 1.386.25 1.839.75.461.5.692 1.157.692 1.969 0 .617-.176 1.234-.528 1.852-.343.609-.925 1.37-1.746 2.285l-5.683 6.199V40zm38.518-1.29c1.172-1.023 1.844-2.444 2.015-4.265h-2.953c-.156 1.22-.527 2.09-1.113 2.614-.586.523-1.461.785-2.625.785-1.273 0-2.242-.485-2.906-1.453-.656-.97-.985-2.375-.985-4.22v-1.51c.016-1.821.368-3.2 1.055-4.138.695-.945 1.688-1.418 2.977-1.418 1.109 0 1.949.274 2.519.82.578.54.938 1.423 1.078 2.65h2.953c-.187-1.868-.855-3.313-2.003-4.337-1.149-1.023-2.665-1.535-4.547-1.535-1.399 0-2.633.332-3.703.996-1.063.664-1.879 1.61-2.45 2.836-.57 1.227-.855 2.645-.855 4.254v1.594c.023 1.57.316 2.949.879 4.136.562 1.188 1.359 2.106 2.39 2.754 1.039.641 2.239.961 3.598.961 1.945 0 3.504-.507 4.676-1.523zm21.146-2.39c.578-1.265.867-2.734.867-4.406v-.95c-.008-1.663-.305-3.12-.891-4.37-.586-1.258-1.418-2.219-2.496-2.883-1.07-.672-2.301-1.008-3.691-1.008-1.391 0-2.625.34-3.703 1.02-1.071.672-1.903 1.644-2.497 2.918-.585 1.273-.878 2.742-.878 4.406v.96c.007 1.634.304 3.075.89 4.325.594 1.25 1.43 2.215 2.508 2.895 1.086.671 2.32 1.007 3.703 1.007 1.399 0 2.633-.336 3.703-1.007 1.078-.68 1.906-1.649 2.485-2.907zm-3.176-9.644c.719 1.008 1.078 2.457 1.078 4.347v.891c0 1.922-.356 3.383-1.066 4.383-.704 1-1.711 1.5-3.024 1.5-1.297 0-2.312-.512-3.047-1.535-.726-1.024-1.09-2.473-1.09-4.348v-.984c.016-1.836.383-3.254 1.102-4.254.727-1.008 1.73-1.512 3.012-1.512 1.312 0 2.324.504 3.035 1.512zm18.837 7.195c.531.406.797.984.797 1.734 0 .688-.262 1.243-.785 1.665-.516.414-1.289.62-2.321.62-1.195 0-2.113-.265-2.753-.796-.641-.532-.961-1.282-.961-2.25h-2.965c0 1.07.285 2.008.855 2.812.578.805 1.383 1.438 2.414 1.899 1.039.453 2.176.68 3.41.68 1.868 0 3.344-.419 4.43-1.255 1.094-.843 1.641-1.976 1.641-3.398 0-.875-.188-1.637-.563-2.285-.375-.656-.965-1.234-1.769-1.734-.805-.508-1.871-.957-3.2-1.348-1.328-.399-2.281-.805-2.859-1.219-.578-.422-.867-.945-.867-1.57 0-.742.266-1.32.797-1.735.539-.414 1.293-.62 2.262-.62 1.039 0 1.835.253 2.39.761.563.5.844 1.195.844 2.086h2.953c0-.984-.266-1.879-.797-2.684-.531-.812-1.262-1.437-2.191-1.875-.93-.437-1.989-.656-3.176-.656-1.789 0-3.246.445-4.371 1.336-1.117.89-1.676 2.023-1.676 3.398 0 1.57.777 2.844 2.332 3.82.813.509 1.906.97 3.281 1.384 1.375.414 2.325.824 2.848 1.23zm17.091-8.543h5.32v-2.39h-13.535v2.39h5.274V40h2.941V25.328zM56.795 11.57a125.77 125.77 0 00-1.01-2.817 109.34 109.34 0 00-.926-2.444 78.491 78.491 0 00-.913-2.224c-.295-.7-.6-1.395-.913-2.085h-1.258c-.313.69-.622 1.386-.926 2.085-.295.71-.6 1.45-.913 2.224-.304.773-.618 1.588-.94 2.444A93.95 93.95 0 0048 11.57h1.48c.497-1.454.986-2.854 1.465-4.198.48-1.344.973-2.605 1.48-3.784a61.6 61.6 0 011.48 3.77c.479 1.354.963 2.758 1.452 4.212h1.438zm73.161-2.817c.323.866.659 1.805 1.01 2.817h-1.438a280.772 280.772 0 00-1.452-4.212 61.6 61.6 0 00-1.48-3.77 63.84 63.84 0 00-1.479 3.784c-.48 1.344-.969 2.744-1.466 4.198h-1.48c.341-1.012.673-1.951.996-2.817.322-.856.636-1.67.94-2.444.313-.774.618-1.515.913-2.224.304-.7.613-1.395.926-2.085h1.259c.313.69.617 1.386.912 2.085.304.71.609 1.45.913 2.224.304.773.613 1.588.926 2.444zM146.399 12c-.627 0-1.171-.097-1.632-.29a3.089 3.089 0 01-1.134-.787 3.4 3.4 0 01-.664-1.202 5.17 5.17 0 01-.207-1.491V2.223h1.341v5.855c0 .957.212 1.653.636 2.085.424.433.977.65 1.66.65.341 0 .65-.051.926-.153.286-.11.53-.276.733-.497.203-.22.359-.501.47-.842.111-.35.166-.764.166-1.243V2.223h1.341V8.23c0 .534-.073 1.031-.221 1.491-.138.46-.359.861-.664 1.202a3.093 3.093 0 01-1.133.787c-.452.193-.992.29-1.618.29zm-71.969-.207v-1.16h-4.425v-8.41h-1.34v9.57h5.765zm17.599-1.16v1.16h-5.767v-9.57h1.342v8.41h4.425zm13.784 1.228c.23.01.442.014.636.014 1.53 0 2.646-.24 3.346-.718.71-.488 1.065-1.21 1.065-2.168 0-.654-.166-1.16-.498-1.52-.331-.358-.779-.62-1.341-.786.415-.166.747-.415.996-.746.249-.34.373-.774.373-1.298 0-.47-.101-.866-.304-1.188a2.21 2.21 0 00-.844-.773 3.751 3.751 0 00-1.258-.429 9.114 9.114 0 00-1.549-.124 17.729 17.729 0 00-1.3.055 16.8 16.8 0 00-.664.07 5.182 5.182 0 00-.608.11v9.28c.184.046.387.083.608.11a16.242 16.242 0 001.342.111zm-.622-1.16v-3.37h1.728c.387 0 .738.028 1.051.083.314.056.581.148.802.277a1.3 1.3 0 01.525.524c.12.212.18.475.18.788 0 .35-.083.64-.249.87-.156.23-.369.41-.636.538a3.3 3.3 0 01-.94.277c-.35.045-.724.069-1.12.069h-.567l-.415-.028c-.138-.01-.258-.019-.359-.028zm1.41-4.447h-1.41V3.3a7.63 7.63 0 01.525-.041c.194-.01.461-.014.802-.014s.664.027.968.083c.304.055.567.142.788.262.231.11.41.262.54.456.129.184.193.414.193.69 0 .295-.064.539-.193.732a1.34 1.34 0 01-.512.47c-.212.12-.466.202-.761.248a6.069 6.069 0 01-.94.07z" fill="#226180"/><path fill-rule="evenodd" clip-rule="evenodd" d="M23.797.05c.406 1.304.812 2.608 1.219 3.861l7.773 23.017 4.878 14.442c.025.1.05.188.076.276.026.087.051.175.076.275-.965.15-.965.15-1.219-.601C31.977 27.68 27.353 14.04 22.73.35a.662.662 0 01-.051-.175.712.712 0 00-.051-.175c.457.05.813.05 1.169.05zM15.614 14H19.5v-.511h-2.978l1.589-1.433c.744-.671 1.116-1.25 1.116-1.735 0-.4-.16-.72-.48-.959C18.425 9.121 17.99 9 17.438 9c-.59 0-1.06.14-1.413.42-.35.28-.526.647-.526 1.101h.754c0-.316.103-.562.31-.738.208-.179.5-.268.875-.268.312 0 .562.082.75.247a.806.806 0 01.28.634c0 .192-.058.378-.175.559-.114.178-.323.41-.627.697l-2.053 1.898V14zM0 11.17l1.181 2.059h3.672c2.386 0 4.24.734 5.563 2.202 1.333 1.468 2 3.558 2 6.271v1.357c0 2.638-.63 4.686-1.887 6.143-1.247 1.468-3.02 2.213-5.321 2.234H3.264L4 33.5l1.202.01c2.043 0 3.645-.446 5.214-1.34 1.57-.893 2.426-1.925 3.276-3.574.86-1.65 1.33-3.67 1.34-5.809v-1.085c0-2.191-.48-3.968-1.34-5.617-.85-1.649-1.685-2.691-3.276-3.574-1.58-.883-3.101-1.32-5.208-1.34H0zm28 18.964c-.145 1.235-.602 2.19-1.373 2.863-.765.669-1.785 1.003-3.059 1.003-1.38 0-2.489-.495-3.324-1.484-.83-.99-1.244-2.313-1.244-3.97v-1.123c0-1.086.193-2.04.578-2.864.39-.824.942-1.455 1.654-1.893.712-.444 1.536-.666 2.473-.666 1.242 0 2.237.348 2.986 1.043.75.69 1.186 1.647 1.309 2.871h-1.55c-.133-.93-.425-1.604-.875-2.021-.444-.417-1.067-.626-1.87-.626-.985 0-1.758.364-2.32 1.091-.557.728-.836 1.762-.836 3.105v1.13c0 1.268.265 2.276.795 3.025.53.748 1.271 1.123 2.224 1.123.857 0 1.512-.193 1.967-.578.46-.39.766-1.067.916-2.03H28zm21.734-7.197V40h4.91c1.54 0 2.903-.332 4.09-.996a6.744 6.744 0 002.754-2.836c.649-1.227.973-2.648.973-4.266v-.855c0-1.594-.32-3.008-.961-4.242-.64-1.235-1.547-2.188-2.719-2.86-1.164-.672-2.5-1.008-4.008-1.008h-5.039zM52.7 37.633V25.328h2.074c1.532 0 2.7.488 3.504 1.465.805.977 1.207 2.39 1.207 4.242v.95c-.015 1.82-.441 3.218-1.277 4.195-.828.968-2.02 1.453-3.574 1.453H52.7zm19.4-5.25h7.008v-2.344H72.1v-4.71h8.11v-2.392H69.133V40H80.29v-2.367H72.1v-5.25zm22.447 1.488c.53.406.796.984.796 1.734 0 .688-.261 1.243-.785 1.665-.515.414-1.289.62-2.32.62-1.195 0-2.113-.265-2.754-.796-.64-.532-.961-1.282-.961-2.25h-2.965c0 1.07.285 2.008.856 2.812.578.805 1.383 1.438 2.414 1.899 1.039.453 2.175.68 3.41.68 1.867 0 3.344-.419 4.43-1.255 1.093-.843 1.64-1.976 1.64-3.398 0-.875-.187-1.637-.562-2.285-.375-.656-.965-1.234-1.77-1.734-.804-.508-1.87-.957-3.2-1.348-1.327-.399-2.28-.805-2.858-1.219-.579-.422-.868-.945-.868-1.57 0-.742.266-1.32.797-1.735.54-.414 1.293-.62 2.262-.62 1.039 0 1.836.253 2.39.761.563.5.844 1.195.844 2.086h2.954c0-.984-.266-1.879-.797-2.684-.532-.812-1.262-1.437-2.192-1.875-.93-.437-1.988-.656-3.176-.656-1.789 0-3.246.445-4.37 1.336-1.118.89-1.676 2.023-1.676 3.398 0 1.57.777 2.844 2.332 3.82.812.509 1.906.97 3.28 1.384 1.376.414 2.325.824 2.849 1.23zM104.805 40h2.953V22.937h-2.953V40zm20.829-.387c1.094-.414 1.949-1.023 2.566-1.828v-6.539h-6.468v2.25h3.515v3.34c-.64.687-1.719 1.031-3.234 1.031-1.383 0-2.465-.508-3.246-1.523-.774-1.024-1.16-2.457-1.16-4.301V30.73c.023-1.851.378-3.253 1.066-4.207.695-.96 1.707-1.441 3.035-1.441 2.055 0 3.246 1.027 3.574 3.082h2.907c-.227-1.766-.899-3.117-2.016-4.055-1.117-.937-2.625-1.406-4.523-1.406-2.211 0-3.934.727-5.168 2.18-1.235 1.445-1.852 3.457-1.852 6.035v1.336c.023 1.61.332 3.02.926 4.23.601 1.203 1.453 2.13 2.554 2.778 1.102.648 2.368.972 3.797.972 1.391 0 2.633-.207 3.727-.62zm20.114.387h2.965V22.937h-2.941V35.09l-7.629-12.153h-2.965V40h2.965V27.895L145.748 40zm19.429 0h11.472v-2.273h-7.921l4.171-4.465c1.094-1.188 1.879-2.246 2.356-3.176.484-.938.726-1.832.726-2.684 0-1.468-.48-2.617-1.441-3.445-.953-.836-2.258-1.254-3.914-1.254-1.148 0-2.164.23-3.047.692a4.914 4.914 0 00-2.027 1.945c-.469.828-.703 1.762-.703 2.8h2.847c0-.976.254-1.745.762-2.308.508-.563 1.223-.844 2.145-.844.773 0 1.386.25 1.839.75.461.5.692 1.157.692 1.969 0 .617-.176 1.234-.528 1.852-.343.609-.925 1.37-1.746 2.285l-5.683 6.199V40zm38.518-1.29c1.172-1.023 1.844-2.444 2.015-4.265h-2.953c-.156 1.22-.527 2.09-1.113 2.614-.586.523-1.461.785-2.625.785-1.273 0-2.242-.485-2.906-1.453-.656-.97-.985-2.375-.985-4.22v-1.51c.016-1.821.368-3.2 1.055-4.138.695-.945 1.688-1.418 2.977-1.418 1.109 0 1.949.274 2.519.82.578.54.938 1.423 1.078 2.65h2.953c-.187-1.868-.855-3.313-2.003-4.337-1.149-1.023-2.665-1.535-4.547-1.535-1.399 0-2.633.332-3.703.996-1.063.664-1.879 1.61-2.45 2.836-.57 1.227-.855 2.645-.855 4.254v1.594c.023 1.57.316 2.949.879 4.136.562 1.188 1.359 2.106 2.39 2.754 1.039.641 2.239.961 3.598.961 1.945 0 3.504-.507 4.676-1.523zm21.146-2.39c.578-1.265.867-2.734.867-4.406v-.95c-.008-1.663-.305-3.12-.891-4.37-.586-1.258-1.418-2.219-2.496-2.883-1.07-.672-2.301-1.008-3.691-1.008-1.391 0-2.625.34-3.703 1.02-1.071.672-1.903 1.644-2.497 2.918-.585 1.273-.878 2.742-.878 4.406v.96c.007 1.634.304 3.075.89 4.325.594 1.25 1.43 2.215 2.508 2.895 1.086.671 2.32 1.007 3.703 1.007 1.399 0 2.633-.336 3.703-1.007 1.078-.68 1.906-1.649 2.485-2.907zm-3.176-9.644c.719 1.008 1.078 2.457 1.078 4.347v.891c0 1.922-.356 3.383-1.066 4.383-.704 1-1.711 1.5-3.024 1.5-1.297 0-2.312-.512-3.047-1.535-.726-1.024-1.09-2.473-1.09-4.348v-.984c.016-1.836.383-3.254 1.102-4.254.727-1.008 1.73-1.512 3.012-1.512 1.312 0 2.324.504 3.035 1.512zm18.837 7.195c.531.406.797.984.797 1.734 0 .688-.262 1.243-.785 1.665-.516.414-1.289.62-2.321.62-1.195 0-2.113-.265-2.753-.796-.641-.532-.961-1.282-.961-2.25h-2.965c0 1.07.285 2.008.855 2.812.578.805 1.383 1.438 2.414 1.899 1.039.453 2.176.68 3.41.68 1.868 0 3.344-.419 4.43-1.255 1.094-.843 1.641-1.976 1.641-3.398 0-.875-.188-1.637-.563-2.285-.375-.656-.965-1.234-1.769-1.734-.805-.508-1.871-.957-3.2-1.348-1.328-.399-2.281-.805-2.859-1.219-.578-.422-.867-.945-.867-1.57 0-.742.266-1.32.797-1.735.539-.414 1.293-.62 2.262-.62 1.039 0 1.835.253 2.39.761.563.5.844 1.195.844 2.086h2.953c0-.984-.266-1.879-.797-2.684-.531-.812-1.262-1.437-2.191-1.875-.93-.437-1.989-.656-3.176-.656-1.789 0-3.246.445-4.371 1.336-1.117.89-1.676 2.023-1.676 3.398 0 1.57.777 2.844 2.332 3.82.813.509 1.906.97 3.281 1.384 1.375.414 2.325.824 2.848 1.23zm17.091-8.543h5.32v-2.39h-13.535v2.39h5.274V40h2.941V25.328zM56.795 11.57a125.77 125.77 0 00-1.01-2.817 109.34 109.34 0 00-.926-2.444 78.491 78.491 0 00-.913-2.224c-.295-.7-.6-1.395-.913-2.085h-1.258c-.313.69-.622 1.386-.926 2.085-.295.71-.6 1.45-.913 2.224-.304.773-.618 1.588-.94 2.444A93.95 93.95 0 0048 11.57h1.48c.497-1.454.986-2.854 1.465-4.198.48-1.344.973-2.605 1.48-3.784a61.6 61.6 0 011.48 3.77c.479 1.354.963 2.758 1.452 4.212h1.438zm73.161-2.817c.323.866.659 1.805 1.01 2.817h-1.438a280.772 280.772 0 00-1.452-4.212 61.6 61.6 0 00-1.48-3.77 63.84 63.84 0 00-1.479 3.784c-.48 1.344-.969 2.744-1.466 4.198h-1.48c.341-1.012.673-1.951.996-2.817.322-.856.636-1.67.94-2.444.313-.774.618-1.515.913-2.224.304-.7.613-1.395.926-2.085h1.259c.313.69.617 1.386.912 2.085.304.71.609 1.45.913 2.224.304.773.613 1.588.926 2.444zM146.399 12c-.627 0-1.171-.097-1.632-.29a3.089 3.089 0 01-1.134-.787 3.4 3.4 0 01-.664-1.202 5.17 5.17 0 01-.207-1.491V2.223h1.341v5.855c0 .957.212 1.653.636 2.085.424.433.977.65 1.66.65.341 0 .65-.051.926-.153.286-.11.53-.276.733-.497.203-.22.359-.501.47-.842.111-.35.166-.764.166-1.243V2.223h1.341V8.23c0 .534-.073 1.031-.221 1.491-.138.46-.359.861-.664 1.202a3.093 3.093 0 01-1.133.787c-.452.193-.992.29-1.618.29zm-71.969-.207v-1.16h-4.425v-8.41h-1.34v9.57h5.765zm17.599-1.16v1.16h-5.767v-9.57h1.342v8.41h4.425zm13.784 1.228c.23.01.442.014.636.014 1.53 0 2.646-.24 3.346-.718.71-.488 1.065-1.21 1.065-2.168 0-.654-.166-1.16-.498-1.52-.331-.358-.779-.62-1.341-.786.415-.166.747-.415.996-.746.249-.34.373-.774.373-1.298 0-.47-.101-.866-.304-1.188a2.21 2.21 0 00-.844-.773 3.751 3.751 0 00-1.258-.429 9.114 9.114 0 00-1.549-.124 17.729 17.729 0 00-1.3.055 16.8 16.8 0 00-.664.07 5.182 5.182 0 00-.608.11v9.28c.184.046.387.083.608.11a16.242 16.242 0 001.342.111zm-.622-1.16v-3.37h1.728c.387 0 .738.028 1.051.083.314.056.581.148.802.277a1.3 1.3 0 01.525.524c.12.212.18.475.18.788 0 .35-.083.64-.249.87-.156.23-.369.41-.636.538a3.3 3.3 0 01-.94.277c-.35.045-.724.069-1.12.069h-.567l-.415-.028c-.138-.01-.258-.019-.359-.028zm1.41-4.447h-1.41V3.3a7.63 7.63 0 01.525-.041c.194-.01.461-.014.802-.014s.664.027.968.083c.304.055.567.142.788.262.231.11.41.262.54.456.129.184.193.414.193.69 0 .295-.064.539-.193.732a1.34 1.34 0 01-.512.47c-.212.12-.466.202-.761.248a6.069 6.069 0 01-.94.07z" fill="red"/><path fill-rule="evenodd" clip-rule="evenodd" d="M23.797.05c.406 1.304.812 2.608 1.219 3.861l7.773 23.017 4.878 14.442c.025.1.05.188.076.276.026.087.051.175.076.275-.965.15-.965.15-1.219-.601C31.977 27.68 27.353 14.04 22.73.35a.662.662 0 01-.051-.175.712.712 0 00-.051-.175c.457.05.813.05 1.169.05zM15.614 14H19.5v-.511h-2.978l1.589-1.433c.744-.671 1.116-1.25 1.116-1.735 0-.4-.16-.72-.48-.959C18.425 9.121 17.99 9 17.438 9c-.59 0-1.06.14-1.413.42-.35.28-.526.647-.526 1.101h.754c0-.316.103-.562.31-.738.208-.179.5-.268.875-.268.312 0 .562.082.75.247a.806.806 0 01.28.634c0 .192-.058.378-.175.559-.114.178-.323.41-.627.697l-2.053 1.898V14zM0 11.17l1.181 2.059h3.672c2.386 0 4.24.734 5.563 2.202 1.333 1.468 2 3.558 2 6.271v1.357c0 2.638-.63 4.686-1.887 6.143-1.247 1.468-3.02 2.213-5.321 2.234H3.264L4 33.5l1.202.01c2.043 0 3.645-.446 5.214-1.34 1.57-.893 2.426-1.925 3.276-3.574.86-1.65 1.33-3.67 1.34-5.809v-1.085c0-2.191-.48-3.968-1.34-5.617-.85-1.649-1.685-2.691-3.276-3.574-1.58-.883-3.101-1.32-5.208-1.34H0zm28 18.964c-.145 1.235-.602 2.19-1.373 2.863-.765.669-1.785 1.003-3.059 1.003-1.38 0-2.489-.495-3.324-1.484-.83-.99-1.244-2.313-1.244-3.97v-1.123c0-1.086.193-2.04.578-2.864.39-.824.942-1.455 1.654-1.893.712-.444 1.536-.666 2.473-.666 1.242 0 2.237.348 2.986 1.043.75.69 1.186 1.647 1.309 2.871h-1.55c-.133-.93-.425-1.604-.875-2.021-.444-.417-1.067-.626-1.87-.626-.985 0-1.758.364-2.32 1.091-.557.728-.836 1.762-.836 3.105v1.13c0 1.268.265 2.276.795 3.025.53.748 1.271 1.123 2.224 1.123.857 0 1.512-.193 1.967-.578.46-.39.766-1.067.916-2.03H28zm21.734-7.197V40h4.91c1.54 0 2.903-.332 4.09-.996a6.744 6.744 0 002.754-2.836c.649-1.227.973-2.648.973-4.266v-.855c0-1.594-.32-3.008-.961-4.242-.64-1.235-1.547-2.188-2.719-2.86-1.164-.672-2.5-1.008-4.008-1.008h-5.039zM52.7 37.633V25.328h2.074c1.532 0 2.7.488 3.504 1.465.805.977 1.207 2.39 1.207 4.242v.95c-.015 1.82-.441 3.218-1.277 4.195-.828.968-2.02 1.453-3.574 1.453H52.7zm19.4-5.25h7.008v-2.344H72.1v-4.71h8.11v-2.392H69.133V40H80.29v-2.367H72.1v-5.25zm22.447 1.488c.53.406.796.984.796 1.734 0 .688-.261 1.243-.785 1.665-.515.414-1.289.62-2.32.62-1.195 0-2.113-.265-2.754-.796-.64-.532-.961-1.282-.961-2.25h-2.965c0 1.07.285 2.008.856 2.812.578.805 1.383 1.438 2.414 1.899 1.039.453 2.175.68 3.41.68 1.867 0 3.344-.419 4.43-1.255 1.093-.843 1.64-1.976 1.64-3.398 0-.875-.187-1.637-.562-2.285-.375-.656-.965-1.234-1.77-1.734-.804-.508-1.87-.957-3.2-1.348-1.327-.399-2.28-.805-2.858-1.219-.579-.422-.868-.945-.868-1.57 0-.742.266-1.32.797-1.735.54-.414 1.293-.62 2.262-.62 1.039 0 1.836.253 2.39.761.563.5.844 1.195.844 2.086h2.954c0-.984-.266-1.879-.797-2.684-.532-.812-1.262-1.437-2.192-1.875-.93-.437-1.988-.656-3.176-.656-1.789 0-3.246.445-4.37 1.336-1.118.89-1.676 2.023-1.676 3.398 0 1.57.777 2.844 2.332 3.82.812.509 1.906.97 3.28 1.384 1.376.414 2.325.824 2.849 1.23zM104.805 40h2.953V22.937h-2.953V40zm20.829-.387c1.094-.414 1.949-1.023 2.566-1.828v-6.539h-6.468v2.25h3.515v3.34c-.64.687-1.719 1.031-3.234 1.031-1.383 0-2.465-.508-3.246-1.523-.774-1.024-1.16-2.457-1.16-4.301V30.73c.023-1.851.378-3.253 1.066-4.207.695-.96 1.707-1.441 3.035-1.441 2.055 0 3.246 1.027 3.574 3.082h2.907c-.227-1.766-.899-3.117-2.016-4.055-1.117-.937-2.625-1.406-4.523-1.406-2.211 0-3.934.727-5.168 2.18-1.235 1.445-1.852 3.457-1.852 6.035v1.336c.023 1.61.332 3.02.926 4.23.601 1.203 1.453 2.13 2.554 2.778 1.102.648 2.368.972 3.797.972 1.391 0 2.633-.207 3.727-.62zm20.114.387h2.965V22.937h-2.941V35.09l-7.629-12.153h-2.965V40h2.965V27.895L145.748 40zm19.429 0h11.472v-2.273h-7.921l4.171-4.465c1.094-1.188 1.879-2.246 2.356-3.176.484-.938.726-1.832.726-2.684 0-1.468-.48-2.617-1.441-3.445-.953-.836-2.258-1.254-3.914-1.254-1.148 0-2.164.23-3.047.692a4.914 4.914 0 00-2.027 1.945c-.469.828-.703 1.762-.703 2.8h2.847c0-.976.254-1.745.762-2.308.508-.563 1.223-.844 2.145-.844.773 0 1.386.25 1.839.75.461.5.692 1.157.692 1.969 0 .617-.176 1.234-.528 1.852-.343.609-.925 1.37-1.746 2.285l-5.683 6.199V40zm38.518-1.29c1.172-1.023 1.844-2.444 2.015-4.265h-2.953c-.156 1.22-.527 2.09-1.113 2.614-.586.523-1.461.785-2.625.785-1.273 0-2.242-.485-2.906-1.453-.656-.97-.985-2.375-.985-4.22v-1.51c.016-1.821.368-3.2 1.055-4.138.695-.945 1.688-1.418 2.977-1.418 1.109 0 1.949.274 2.519.82.578.54.938 1.423 1.078 2.65h2.953c-.187-1.868-.855-3.313-2.003-4.337-1.149-1.023-2.665-1.535-4.547-1.535-1.399 0-2.633.332-3.703.996-1.063.664-1.879 1.61-2.45 2.836-.57 1.227-.855 2.645-.855 4.254v1.594c.023 1.57.316 2.949.879 4.136.562 1.188 1.359 2.106 2.39 2.754 1.039.641 2.239.961 3.598.961 1.945 0 3.504-.507 4.676-1.523zm21.146-2.39c.578-1.265.867-2.734.867-4.406v-.95c-.008-1.663-.305-3.12-.891-4.37-.586-1.258-1.418-2.219-2.496-2.883-1.07-.672-2.301-1.008-3.691-1.008-1.391 0-2.625.34-3.703 1.02-1.071.672-1.903 1.644-2.497 2.918-.585 1.273-.878 2.742-.878 4.406v.96c.007 1.634.304 3.075.89 4.325.594 1.25 1.43 2.215 2.508 2.895 1.086.671 2.32 1.007 3.703 1.007 1.399 0 2.633-.336 3.703-1.007 1.078-.68 1.906-1.649 2.485-2.907zm-3.176-9.644c.719 1.008 1.078 2.457 1.078 4.347v.891c0 1.922-.356 3.383-1.066 4.383-.704 1-1.711 1.5-3.024 1.5-1.297 0-2.312-.512-3.047-1.535-.726-1.024-1.09-2.473-1.09-4.348v-.984c.016-1.836.383-3.254 1.102-4.254.727-1.008 1.73-1.512 3.012-1.512 1.312 0 2.324.504 3.035 1.512zm18.837 7.195c.531.406.797.984.797 1.734 0 .688-.262 1.243-.785 1.665-.516.414-1.289.62-2.321.62-1.195 0-2.113-.265-2.753-.796-.641-.532-.961-1.282-.961-2.25h-2.965c0 1.07.285 2.008.855 2.812.578.805 1.383 1.438 2.414 1.899 1.039.453 2.176.68 3.41.68 1.868 0 3.344-.419 4.43-1.255 1.094-.843 1.641-1.976 1.641-3.398 0-.875-.188-1.637-.563-2.285-.375-.656-.965-1.234-1.769-1.734-.805-.508-1.871-.957-3.2-1.348-1.328-.399-2.281-.805-2.859-1.219-.578-.422-.867-.945-.867-1.57 0-.742.266-1.32.797-1.735.539-.414 1.293-.62 2.262-.62 1.039 0 1.835.253 2.39.761.563.5.844 1.195.844 2.086h2.953c0-.984-.266-1.879-.797-2.684-.531-.812-1.262-1.437-2.191-1.875-.93-.437-1.989-.656-3.176-.656-1.789 0-3.246.445-4.371 1.336-1.117.89-1.676 2.023-1.676 3.398 0 1.57.777 2.844 2.332 3.82.813.509 1.906.97 3.281 1.384 1.375.414 2.325.824 2.848 1.23zm17.091-8.543h5.32v-2.39h-13.535v2.39h5.274V40h2.941V25.328zM56.795 11.57a125.77 125.77 0 00-1.01-2.817 109.34 109.34 0 00-.926-2.444 78.491 78.491 0 00-.913-2.224c-.295-.7-.6-1.395-.913-2.085h-1.258c-.313.69-.622 1.386-.926 2.085-.295.71-.6 1.45-.913 2.224-.304.773-.618 1.588-.94 2.444A93.95 93.95 0 0048 11.57h1.48c.497-1.454.986-2.854 1.465-4.198.48-1.344.973-2.605 1.48-3.784a61.6 61.6 0 011.48 3.77c.479 1.354.963 2.758 1.452 4.212h1.438zm73.161-2.817c.323.866.659 1.805 1.01 2.817h-1.438a280.772 280.772 0 00-1.452-4.212 61.6 61.6 0 00-1.48-3.77 63.84 63.84 0 00-1.479 3.784c-.48 1.344-.969 2.744-1.466 4.198h-1.48c.341-1.012.673-1.951.996-2.817.322-.856.636-1.67.94-2.444.313-.774.618-1.515.913-2.224.304-.7.613-1.395.926-2.085h1.259c.313.69.617 1.386.912 2.085.304.71.609 1.45.913 2.224.304.773.613 1.588.926 2.444zM146.399 12c-.627 0-1.171-.097-1.632-.29a3.089 3.089 0 01-1.134-.787 3.4 3.4 0 01-.664-1.202 5.17 5.17 0 01-.207-1.491V2.223h1.341v5.855c0 .957.212 1.653.636 2.085.424.433.977.65 1.66.65.341 0 .65-.051.926-.153.286-.11.53-.276.733-.497.203-.22.359-.501.47-.842.111-.35.166-.764.166-1.243V2.223h1.341V8.23c0 .534-.073 1.031-.221 1.491-.138.46-.359.861-.664 1.202a3.093 3.093 0 01-1.133.787c-.452.193-.992.29-1.618.29zm-71.969-.207v-1.16h-4.425v-8.41h-1.34v9.57h5.765zm17.599-1.16v1.16h-5.767v-9.57h1.342v8.41h4.425zm13.784 1.228c.23.01.442.014.636.014 1.53 0 2.646-.24 3.346-.718.71-.488 1.065-1.21 1.065-2.168 0-.654-.166-1.16-.498-1.52-.331-.358-.779-.62-1.341-.786.415-.166.747-.415.996-.746.249-.34.373-.774.373-1.298 0-.47-.101-.866-.304-1.188a2.21 2.21 0 00-.844-.773 3.751 3.751 0 00-1.258-.429 9.114 9.114 0 00-1.549-.124 17.729 17.729 0 00-1.3.055 16.8 16.8 0 00-.664.07 5.182 5.182 0 00-.608.11v9.28c.184.046.387.083.608.11a16.242 16.242 0 001.342.111zm-.622-1.16v-3.37h1.728c.387 0 .738.028 1.051.083.314.056.581.148.802.277a1.3 1.3 0 01.525.524c.12.212.18.475.18.788 0 .35-.083.64-.249.87-.156.23-.369.41-.636.538a3.3 3.3 0 01-.94.277c-.35.045-.724.069-1.12.069h-.567l-.415-.028c-.138-.01-.258-.019-.359-.028zm1.41-4.447h-1.41V3.3a7.63 7.63 0 01.525-.041c.194-.01.461-.014.802-.014s.664.027.968.083c.304.055.567.142.788.262.231.11.41.262.54.456.129.184.193.414.193.69 0 .295-.064.539-.193.732a1.34 1.34 0 01-.512.47c-.212.12-.466.202-.761.248a6.069 6.069 0 01-.94.07z" fill="#183646"/><path fill-rule="evenodd" clip-rule="evenodd" d="M23.797.05c.406 1.304.812 2.608 1.219 3.861l7.773 23.017 4.878 14.442c.025.1.05.188.076.276.026.087.051.175.076.275-.965.15-.965.15-1.219-.601C31.977 27.68 27.353 14.04 22.73.35a.662.662 0 01-.051-.175.712.712 0 00-.051-.175c.457.05.813.05 1.169.05zM15.614 14H19.5v-.511h-2.978l1.589-1.433c.744-.671 1.116-1.25 1.116-1.735 0-.4-.16-.72-.48-.959C18.425 9.121 17.99 9 17.438 9c-.59 0-1.06.14-1.413.42-.35.28-.526.647-.526 1.101h.754c0-.316.103-.562.31-.738.208-.179.5-.268.875-.268.312 0 .562.082.75.247a.806.806 0 01.28.634c0 .192-.058.378-.175.559-.114.178-.323.41-.627.697l-2.053 1.898V14zM0 11.17l1.181 2.059h3.672c2.386 0 4.24.734 5.563 2.202 1.333 1.468 2 3.558 2 6.271v1.357c0 2.638-.63 4.686-1.887 6.143-1.247 1.468-3.02 2.213-5.321 2.234H3.264L4 33.5l1.202.01c2.043 0 3.645-.446 5.214-1.34 1.57-.893 2.426-1.925 3.276-3.574.86-1.65 1.33-3.67 1.34-5.809v-1.085c0-2.191-.48-3.968-1.34-5.617-.85-1.649-1.685-2.691-3.276-3.574-1.58-.883-3.101-1.32-5.208-1.34H0zm28 18.964c-.145 1.235-.602 2.19-1.373 2.863-.765.669-1.785 1.003-3.059 1.003-1.38 0-2.489-.495-3.324-1.484-.83-.99-1.244-2.313-1.244-3.97v-1.123c0-1.086.193-2.04.578-2.864.39-.824.942-1.455 1.654-1.893.712-.444 1.536-.666 2.473-.666 1.242 0 2.237.348 2.986 1.043.75.69 1.186 1.647 1.309 2.871h-1.55c-.133-.93-.425-1.604-.875-2.021-.444-.417-1.067-.626-1.87-.626-.985 0-1.758.364-2.32 1.091-.557.728-.836 1.762-.836 3.105v1.13c0 1.268.265 2.276.795 3.025.53.748 1.271 1.123 2.224 1.123.857 0 1.512-.193 1.967-.578.46-.39.766-1.067.916-2.03H28zm21.734-7.197V40h4.91c1.54 0 2.903-.332 4.09-.996a6.744 6.744 0 002.754-2.836c.649-1.227.973-2.648.973-4.266v-.855c0-1.594-.32-3.008-.961-4.242-.64-1.235-1.547-2.188-2.719-2.86-1.164-.672-2.5-1.008-4.008-1.008h-5.039zM52.7 37.633V25.328h2.074c1.532 0 2.7.488 3.504 1.465.805.977 1.207 2.39 1.207 4.242v.95c-.015 1.82-.441 3.218-1.277 4.195-.828.968-2.02 1.453-3.574 1.453H52.7zm19.4-5.25h7.008v-2.344H72.1v-4.71h8.11v-2.392H69.133V40H80.29v-2.367H72.1v-5.25zm22.447 1.488c.53.406.796.984.796 1.734 0 .688-.261 1.243-.785 1.665-.515.414-1.289.62-2.32.62-1.195 0-2.113-.265-2.754-.796-.64-.532-.961-1.282-.961-2.25h-2.965c0 1.07.285 2.008.856 2.812.578.805 1.383 1.438 2.414 1.899 1.039.453 2.175.68 3.41.68 1.867 0 3.344-.419 4.43-1.255 1.093-.843 1.64-1.976 1.64-3.398 0-.875-.187-1.637-.562-2.285-.375-.656-.965-1.234-1.77-1.734-.804-.508-1.87-.957-3.2-1.348-1.327-.399-2.28-.805-2.858-1.219-.579-.422-.868-.945-.868-1.57 0-.742.266-1.32.797-1.735.54-.414 1.293-.62 2.262-.62 1.039 0 1.836.253 2.39.761.563.5.844 1.195.844 2.086h2.954c0-.984-.266-1.879-.797-2.684-.532-.812-1.262-1.437-2.192-1.875-.93-.437-1.988-.656-3.176-.656-1.789 0-3.246.445-4.37 1.336-1.118.89-1.676 2.023-1.676 3.398 0 1.57.777 2.844 2.332 3.82.812.509 1.906.97 3.28 1.384 1.376.414 2.325.824 2.849 1.23zM104.805 40h2.953V22.937h-2.953V40zm20.829-.387c1.094-.414 1.949-1.023 2.566-1.828v-6.539h-6.468v2.25h3.515v3.34c-.64.687-1.719 1.031-3.234 1.031-1.383 0-2.465-.508-3.246-1.523-.774-1.024-1.16-2.457-1.16-4.301V30.73c.023-1.851.378-3.253 1.066-4.207.695-.96 1.707-1.441 3.035-1.441 2.055 0 3.246 1.027 3.574 3.082h2.907c-.227-1.766-.899-3.117-2.016-4.055-1.117-.937-2.625-1.406-4.523-1.406-2.211 0-3.934.727-5.168 2.18-1.235 1.445-1.852 3.457-1.852 6.035v1.336c.023 1.61.332 3.02.926 4.23.601 1.203 1.453 2.13 2.554 2.778 1.102.648 2.368.972 3.797.972 1.391 0 2.633-.207 3.727-.62zm20.114.387h2.965V22.937h-2.941V35.09l-7.629-12.153h-2.965V40h2.965V27.895L145.748 40zm19.429 0h11.472v-2.273h-7.921l4.171-4.465c1.094-1.188 1.879-2.246 2.356-3.176.484-.938.726-1.832.726-2.684 0-1.468-.48-2.617-1.441-3.445-.953-.836-2.258-1.254-3.914-1.254-1.148 0-2.164.23-3.047.692a4.914 4.914 0 00-2.027 1.945c-.469.828-.703 1.762-.703 2.8h2.847c0-.976.254-1.745.762-2.308.508-.563 1.223-.844 2.145-.844.773 0 1.386.25 1.839.75.461.5.692 1.157.692 1.969 0 .617-.176 1.234-.528 1.852-.343.609-.925 1.37-1.746 2.285l-5.683 6.199V40zm38.518-1.29c1.172-1.023 1.844-2.444 2.015-4.265h-2.953c-.156 1.22-.527 2.09-1.113 2.614-.586.523-1.461.785-2.625.785-1.273 0-2.242-.485-2.906-1.453-.656-.97-.985-2.375-.985-4.22v-1.51c.016-1.821.368-3.2 1.055-4.138.695-.945 1.688-1.418 2.977-1.418 1.109 0 1.949.274 2.519.82.578.54.938 1.423 1.078 2.65h2.953c-.187-1.868-.855-3.313-2.003-4.337-1.149-1.023-2.665-1.535-4.547-1.535-1.399 0-2.633.332-3.703.996-1.063.664-1.879 1.61-2.45 2.836-.57 1.227-.855 2.645-.855 4.254v1.594c.023 1.57.316 2.949.879 4.136.562 1.188 1.359 2.106 2.39 2.754 1.039.641 2.239.961 3.598.961 1.945 0 3.504-.507 4.676-1.523zm21.146-2.39c.578-1.265.867-2.734.867-4.406v-.95c-.008-1.663-.305-3.12-.891-4.37-.586-1.258-1.418-2.219-2.496-2.883-1.07-.672-2.301-1.008-3.691-1.008-1.391 0-2.625.34-3.703 1.02-1.071.672-1.903 1.644-2.497 2.918-.585 1.273-.878 2.742-.878 4.406v.96c.007 1.634.304 3.075.89 4.325.594 1.25 1.43 2.215 2.508 2.895 1.086.671 2.32 1.007 3.703 1.007 1.399 0 2.633-.336 3.703-1.007 1.078-.68 1.906-1.649 2.485-2.907zm-3.176-9.644c.719 1.008 1.078 2.457 1.078 4.347v.891c0 1.922-.356 3.383-1.066 4.383-.704 1-1.711 1.5-3.024 1.5-1.297 0-2.312-.512-3.047-1.535-.726-1.024-1.09-2.473-1.09-4.348v-.984c.016-1.836.383-3.254 1.102-4.254.727-1.008 1.73-1.512 3.012-1.512 1.312 0 2.324.504 3.035 1.512zm18.837 7.195c.531.406.797.984.797 1.734 0 .688-.262 1.243-.785 1.665-.516.414-1.289.62-2.321.62-1.195 0-2.113-.265-2.753-.796-.641-.532-.961-1.282-.961-2.25h-2.965c0 1.07.285 2.008.855 2.812.578.805 1.383 1.438 2.414 1.899 1.039.453 2.176.68 3.41.68 1.868 0 3.344-.419 4.43-1.255 1.094-.843 1.641-1.976 1.641-3.398 0-.875-.188-1.637-.563-2.285-.375-.656-.965-1.234-1.769-1.734-.805-.508-1.871-.957-3.2-1.348-1.328-.399-2.281-.805-2.859-1.219-.578-.422-.867-.945-.867-1.57 0-.742.266-1.32.797-1.735.539-.414 1.293-.62 2.262-.62 1.039 0 1.835.253 2.39.761.563.5.844 1.195.844 2.086h2.953c0-.984-.266-1.879-.797-2.684-.531-.812-1.262-1.437-2.191-1.875-.93-.437-1.989-.656-3.176-.656-1.789 0-3.246.445-4.371 1.336-1.117.89-1.676 2.023-1.676 3.398 0 1.57.777 2.844 2.332 3.82.813.509 1.906.97 3.281 1.384 1.375.414 2.325.824 2.848 1.23zm17.091-8.543h5.32v-2.39h-13.535v2.39h5.274V40h2.941V25.328zM56.795 11.57a125.77 125.77 0 00-1.01-2.817 109.34 109.34 0 00-.926-2.444 78.491 78.491 0 00-.913-2.224c-.295-.7-.6-1.395-.913-2.085h-1.258c-.313.69-.622 1.386-.926 2.085-.295.71-.6 1.45-.913 2.224-.304.773-.618 1.588-.94 2.444A93.95 93.95 0 0048 11.57h1.48c.497-1.454.986-2.854 1.465-4.198.48-1.344.973-2.605 1.48-3.784a61.6 61.6 0 011.48 3.77c.479 1.354.963 2.758 1.452 4.212h1.438zm73.161-2.817c.323.866.659 1.805 1.01 2.817h-1.438a280.772 280.772 0 00-1.452-4.212 61.6 61.6 0 00-1.48-3.77 63.84 63.84 0 00-1.479 3.784c-.48 1.344-.969 2.744-1.466 4.198h-1.48c.341-1.012.673-1.951.996-2.817.322-.856.636-1.67.94-2.444.313-.774.618-1.515.913-2.224.304-.7.613-1.395.926-2.085h1.259c.313.69.617 1.386.912 2.085.304.71.609 1.45.913 2.224.304.773.613 1.588.926 2.444zM146.399 12c-.627 0-1.171-.097-1.632-.29a3.089 3.089 0 01-1.134-.787 3.4 3.4 0 01-.664-1.202 5.17 5.17 0 01-.207-1.491V2.223h1.341v5.855c0 .957.212 1.653.636 2.085.424.433.977.65 1.66.65.341 0 .65-.051.926-.153.286-.11.53-.276.733-.497.203-.22.359-.501.47-.842.111-.35.166-.764.166-1.243V2.223h1.341V8.23c0 .534-.073 1.031-.221 1.491-.138.46-.359.861-.664 1.202a3.093 3.093 0 01-1.133.787c-.452.193-.992.29-1.618.29zm-71.969-.207v-1.16h-4.425v-8.41h-1.34v9.57h5.765zm17.599-1.16v1.16h-5.767v-9.57h1.342v8.41h4.425zm13.784 1.228c.23.01.442.014.636.014 1.53 0 2.646-.24 3.346-.718.71-.488 1.065-1.21 1.065-2.168 0-.654-.166-1.16-.498-1.52-.331-.358-.779-.62-1.341-.786.415-.166.747-.415.996-.746.249-.34.373-.774.373-1.298 0-.47-.101-.866-.304-1.188a2.21 2.21 0 00-.844-.773 3.751 3.751 0 00-1.258-.429 9.114 9.114 0 00-1.549-.124 17.729 17.729 0 00-1.3.055 16.8 16.8 0 00-.664.07 5.182 5.182 0 00-.608.11v9.28c.184.046.387.083.608.11a16.242 16.242 0 001.342.111zm-.622-1.16v-3.37h1.728c.387 0 .738.028 1.051.083.314.056.581.148.802.277a1.3 1.3 0 01.525.524c.12.212.18.475.18.788 0 .35-.083.64-.249.87-.156.23-.369.41-.636.538a3.3 3.3 0 01-.94.277c-.35.045-.724.069-1.12.069h-.567l-.415-.028c-.138-.01-.258-.019-.359-.028zm1.41-4.447h-1.41V3.3a7.63 7.63 0 01.525-.041c.194-.01.461-.014.802-.014s.664.027.968.083c.304.055.567.142.788.262.231.11.41.262.54.456.129.184.193.414.193.69 0 .295-.064.539-.193.732a1.34 1.34 0 01-.512.47c-.212.12-.466.202-.761.248a6.069 6.069 0 01-.94.07z" fill="#005B8B"/></svg>