<svg width="250" height="40" fill="none" xmlns="http://www.w3.org/2000/svg"><path fill-rule="evenodd" clip-rule="evenodd" d="M53.733 9.57c-.35-1.012-.687-1.951-1.01-2.817-.313-.856-.622-1.67-.926-2.444a78.491 78.491 0 00-.913-2.224c-.295-.7-.599-1.395-.913-2.085h-1.258c-.313.69-.622 1.386-.926 2.085-.295.71-.6 1.45-.913 2.224-.304.773-.618 1.588-.94 2.444a93.735 93.735 0 00-.996 2.817h1.48c.498-1.454.986-2.854 1.465-4.198a63.86 63.86 0 011.48-3.784 61.6 61.6 0 011.48 3.77c.48 1.354.963 2.758 1.452 4.212h1.438zm-4.034 22.09V38h-2.965V20.937h6.528c1.906 0 3.418.497 4.535 1.489 1.125.992 1.687 2.305 1.687 3.937 0 1.672-.55 2.973-1.652 3.903-1.094.93-2.629 1.394-4.605 1.394h-3.528zm0-2.379h3.563c1.054 0 1.86-.246 2.414-.738.554-.5.832-1.219.832-2.156 0-.922-.281-1.657-.844-2.203-.562-.555-1.336-.84-2.32-.856h-3.645v5.953zm21.673-.258l3.926-8.085h3.281l-5.718 10.78V38h-2.977v-6.281l-5.73-10.782h3.293l3.925 8.086zm25.318-5.695h-5.32V38h-2.942V23.328h-5.273v-2.39H96.69v2.39zM116.207 38h-2.953v-7.582h-7.629V38h-2.965V20.937h2.965v7.102h7.629v-7.102h2.953V38zm20.853-8.086c0 1.672-.289 3.14-.867 4.406-.579 1.258-1.407 2.227-2.485 2.907-1.07.671-2.305 1.007-3.703 1.007-1.383 0-2.617-.336-3.703-1.007-1.078-.68-1.914-1.645-2.508-2.895-.586-1.25-.883-2.691-.891-4.324v-.961c0-1.664.293-3.133.879-4.406.594-1.274 1.426-2.246 2.496-2.918 1.079-.68 2.313-1.02 3.704-1.02 1.39 0 2.621.336 3.691 1.008 1.078.664 1.91 1.625 2.496 2.883.586 1.25.883 2.707.891 4.37v.95zm-2.965-.89c0-1.891-.36-3.34-1.078-4.348-.711-1.008-1.723-1.512-3.035-1.512-1.282 0-2.286.504-3.012 1.512-.719 1-1.086 2.418-1.102 4.254v.984c0 1.875.364 3.324 1.09 4.348.734 1.023 1.75 1.535 3.047 1.535 1.313 0 2.32-.5 3.023-1.5.711-1 1.067-2.461 1.067-4.383v-.89zM157.268 38h-2.965l-7.605-12.105V38h-2.965V20.937h2.965l7.629 12.153V20.937h2.941V38zm10.189-6.34V38h-2.965V20.937h6.527c1.906 0 3.418.497 4.535 1.489 1.125.992 1.688 2.305 1.688 3.937 0 1.672-.551 2.973-1.652 3.903-1.094.93-2.629 1.394-4.606 1.394h-3.527zm0-2.379h3.562c1.055 0 1.86-.246 2.414-.738.555-.5.832-1.219.832-2.156 0-.922-.281-1.657-.843-2.203-.563-.555-1.336-.84-2.321-.856h-3.644v5.953zm16.962 4.746L183.036 38h-3.082l6.445-17.063h2.661L195.517 38h-3.094l-1.395-3.973h-6.609zm5.777-2.39l-2.472-7.078-2.473 7.078h4.945zm17.255-.211h-3.304V38h-2.965V20.937h6c1.969 0 3.488.442 4.558 1.325 1.071.883 1.606 2.16 1.606 3.832 0 1.14-.277 2.097-.832 2.87-.547.767-1.313 1.356-2.297 1.77l3.832 7.114V38h-3.176l-3.422-6.574zm-3.304-2.38h3.047c1 0 1.781-.25 2.343-.75.563-.507.844-1.198.844-2.073 0-.914-.262-1.621-.785-2.121-.516-.5-1.289-.758-2.32-.774h-3.129v5.719zm27.474-5.718H226.3V38h-2.941V23.328h-5.274v-2.39h13.536v2.39zm14.7 10.277c0-.75-.266-1.328-.797-1.734-.523-.406-1.472-.816-2.847-1.23-1.375-.414-2.469-.875-3.282-1.383-1.554-.977-2.332-2.25-2.332-3.82 0-1.375.559-2.508 1.676-3.399 1.125-.89 2.582-1.336 4.371-1.336 1.188 0 2.246.219 3.176.656.93.438 1.66 1.063 2.191 1.875.532.805.797 1.7.797 2.684h-2.953c0-.89-.281-1.586-.844-2.086-.554-.508-1.351-.762-2.39-.762-.969 0-1.723.207-2.262.621-.531.415-.797.993-.797 1.735 0 .625.289 1.148.867 1.57.578.414 1.532.82 2.86 1.219 1.328.39 2.394.84 3.199 1.348.805.5 1.394 1.078 1.769 1.734.375.648.563 1.41.563 2.285 0 1.422-.547 2.555-1.641 3.398-1.086.836-2.562 1.254-4.429 1.254-1.235 0-2.371-.226-3.411-.68-1.031-.46-1.835-1.093-2.414-1.898-.57-.804-.855-1.742-.855-2.812h2.965c0 .968.32 1.718.961 2.25.64.531 1.558.797 2.754.797 1.031 0 1.804-.207 2.32-.621.523-.422.785-.977.785-1.665zM126.894 6.753c.323.866.659 1.805 1.01 2.817h-1.438a280.997 280.997 0 00-1.452-4.212 61.6 61.6 0 00-1.48-3.77 63.84 63.84 0 00-1.479 3.784 341.87 341.87 0 00-1.466 4.198h-1.48a92.6 92.6 0 01.996-2.817c.322-.856.636-1.67.94-2.444.313-.774.618-1.515.913-2.224.304-.7.613-1.395.926-2.085h1.259c.313.69.617 1.386.912 2.085.304.71.609 1.45.913 2.224.304.773.613 1.588.926 2.444zM143.337 10c-.627 0-1.171-.096-1.632-.29a3.089 3.089 0 01-1.134-.787 3.4 3.4 0 01-.664-1.202 5.17 5.17 0 01-.207-1.491V.223h1.341v5.855c0 .958.212 1.653.636 2.085.424.433.977.65 1.66.65.341 0 .65-.051.926-.152.286-.11.53-.277.733-.498.203-.22.359-.501.47-.842.111-.35.166-.764.166-1.243V.223h1.341V6.23c0 .534-.073 1.031-.221 1.491-.138.46-.359.861-.664 1.202a3.093 3.093 0 01-1.133.787c-.452.194-.992.29-1.618.29zm-71.968-.207v-1.16h-4.425V.223h-1.342v9.57h5.766zm17.598-1.16v1.16H83.2V.223h1.342v8.41h4.425zM102.75 9.86c.23.01.442.014.636.014 1.53 0 2.646-.24 3.346-.718.71-.488 1.065-1.21 1.065-2.168 0-.654-.166-1.16-.498-1.52-.331-.358-.779-.62-1.341-.786.415-.166.747-.415.996-.746.249-.34.373-.773.373-1.298 0-.47-.101-.866-.304-1.188a2.21 2.21 0 00-.844-.773 3.751 3.751 0 00-1.258-.428 9.114 9.114 0 00-1.549-.125 17.698 17.698 0 00-1.3.055 16.8 16.8 0 00-.664.07 5.182 5.182 0 00-.608.11v9.28c.184.046.387.083.608.11a16.208 16.208 0 001.342.111zm-.622-1.16V5.33h1.728c.387 0 .738.028 1.051.084.314.055.581.147.802.276a1.3 1.3 0 01.525.525c.12.211.18.474.18.787 0 .35-.083.64-.249.87-.156.23-.369.41-.636.538a3.3 3.3 0 01-.94.277 8.62 8.62 0 01-1.12.069h-.567l-.415-.028c-.138-.01-.258-.018-.359-.028zm1.41-4.447h-1.41V1.3c.156-.018.331-.032.525-.041.194-.01.461-.014.802-.014s.664.028.968.083c.304.055.567.143.788.262.231.11.41.263.54.456.129.184.193.414.193.69 0 .295-.064.54-.193.732-.12.194-.291.35-.512.47-.212.12-.466.202-.761.248a6.069 6.069 0 01-.94.07zM12.188 29.92h1.968L6.088 11.705h6.84s1.131 0 2.36 1.301c.64.677.845 1.111 1.083 1.952.208.735.27 1.198.148 1.952-.105.64-.254.999-.59 1.551-.344.565-.614.847-1.132 1.251-.532.415-.884.605-1.526.8-.465.143-1.23.201-1.23.201l.886 1.752s.545-.028.886-.1c.64-.136 1.24-.424 1.918-.901.862-.606 1.283-1.089 1.82-2.002.485-.822.68-1.357.837-2.302.141-.848.151-1.356 0-2.202-.251-1.41-.689-2.226-1.673-3.253-1.918-2.002-3.935-2.002-3.935-2.002l-9.66.041 9.07 20.177zM1.138 9.744H.375l9.097 20.177h.722L1.138 9.744zm21.157-6.019A335.878 335.878 0 0121.091.048c-.35 0-.702 0-1.154-.048a.657.657 0 01.05.167c.013.06.026.12.05.167 4.566 13.038 9.131 26.028 13.697 39.018.25.716.25.716 1.203.573a7.309 7.309 0 00-.075-.262 8.258 8.258 0 01-.075-.263l-4.816-13.754-7.676-21.92z" fill="#000"/><path fill-rule="evenodd" clip-rule="evenodd" d="M53.733 9.57c-.35-1.012-.687-1.951-1.01-2.817-.313-.856-.622-1.67-.926-2.444a78.491 78.491 0 00-.913-2.224c-.295-.7-.599-1.395-.913-2.085h-1.258c-.313.69-.622 1.386-.926 2.085-.295.71-.6 1.45-.913 2.224-.304.773-.618 1.588-.94 2.444a93.735 93.735 0 00-.996 2.817h1.48c.498-1.454.986-2.854 1.465-4.198a63.86 63.86 0 011.48-3.784 61.6 61.6 0 011.48 3.77c.48 1.354.963 2.758 1.452 4.212h1.438zm-4.034 22.09V38h-2.965V20.937h6.528c1.906 0 3.418.497 4.535 1.489 1.125.992 1.687 2.305 1.687 3.937 0 1.672-.55 2.973-1.652 3.903-1.094.93-2.629 1.394-4.605 1.394h-3.528zm0-2.379h3.563c1.054 0 1.86-.246 2.414-.738.554-.5.832-1.219.832-2.156 0-.922-.281-1.657-.844-2.203-.562-.555-1.336-.84-2.32-.856h-3.645v5.953zm21.673-.258l3.926-8.085h3.281l-5.718 10.78V38h-2.977v-6.281l-5.73-10.782h3.293l3.925 8.086zm25.318-5.695h-5.32V38h-2.942V23.328h-5.273v-2.39H96.69v2.39zM116.207 38h-2.953v-7.582h-7.629V38h-2.965V20.937h2.965v7.102h7.629v-7.102h2.953V38zm20.853-8.086c0 1.672-.289 3.14-.867 4.406-.579 1.258-1.407 2.227-2.485 2.907-1.07.671-2.305 1.007-3.703 1.007-1.383 0-2.617-.336-3.703-1.007-1.078-.68-1.914-1.645-2.508-2.895-.586-1.25-.883-2.691-.891-4.324v-.961c0-1.664.293-3.133.879-4.406.594-1.274 1.426-2.246 2.496-2.918 1.079-.68 2.313-1.02 3.704-1.02 1.39 0 2.621.336 3.691 1.008 1.078.664 1.91 1.625 2.496 2.883.586 1.25.883 2.707.891 4.37v.95zm-2.965-.89c0-1.891-.36-3.34-1.078-4.348-.711-1.008-1.723-1.512-3.035-1.512-1.282 0-2.286.504-3.012 1.512-.719 1-1.086 2.418-1.102 4.254v.984c0 1.875.364 3.324 1.09 4.348.734 1.023 1.75 1.535 3.047 1.535 1.313 0 2.32-.5 3.023-1.5.711-1 1.067-2.461 1.067-4.383v-.89zM157.268 38h-2.965l-7.605-12.105V38h-2.965V20.937h2.965l7.629 12.153V20.937h2.941V38zm10.189-6.34V38h-2.965V20.937h6.527c1.906 0 3.418.497 4.535 1.489 1.125.992 1.688 2.305 1.688 3.937 0 1.672-.551 2.973-1.652 3.903-1.094.93-2.629 1.394-4.606 1.394h-3.527zm0-2.379h3.562c1.055 0 1.86-.246 2.414-.738.555-.5.832-1.219.832-2.156 0-.922-.281-1.657-.843-2.203-.563-.555-1.336-.84-2.321-.856h-3.644v5.953zm16.962 4.746L183.036 38h-3.082l6.445-17.063h2.661L195.517 38h-3.094l-1.395-3.973h-6.609zm5.777-2.39l-2.472-7.078-2.473 7.078h4.945zm17.255-.211h-3.304V38h-2.965V20.937h6c1.969 0 3.488.442 4.558 1.325 1.071.883 1.606 2.16 1.606 3.832 0 1.14-.277 2.097-.832 2.87-.547.767-1.313 1.356-2.297 1.77l3.832 7.114V38h-3.176l-3.422-6.574zm-3.304-2.38h3.047c1 0 1.781-.25 2.343-.75.563-.507.844-1.198.844-2.073 0-.914-.262-1.621-.785-2.121-.516-.5-1.289-.758-2.32-.774h-3.129v5.719zm27.474-5.718H226.3V38h-2.941V23.328h-5.274v-2.39h13.536v2.39zm14.7 10.277c0-.75-.266-1.328-.797-1.734-.523-.406-1.472-.816-2.847-1.23-1.375-.414-2.469-.875-3.282-1.383-1.554-.977-2.332-2.25-2.332-3.82 0-1.375.559-2.508 1.676-3.399 1.125-.89 2.582-1.336 4.371-1.336 1.188 0 2.246.219 3.176.656.93.438 1.66 1.063 2.191 1.875.532.805.797 1.7.797 2.684h-2.953c0-.89-.281-1.586-.844-2.086-.554-.508-1.351-.762-2.39-.762-.969 0-1.723.207-2.262.621-.531.415-.797.993-.797 1.735 0 .625.289 1.148.867 1.57.578.414 1.532.82 2.86 1.219 1.328.39 2.394.84 3.199 1.348.805.5 1.394 1.078 1.769 1.734.375.648.563 1.41.563 2.285 0 1.422-.547 2.555-1.641 3.398-1.086.836-2.562 1.254-4.429 1.254-1.235 0-2.371-.226-3.411-.68-1.031-.46-1.835-1.093-2.414-1.898-.57-.804-.855-1.742-.855-2.812h2.965c0 .968.32 1.718.961 2.25.64.531 1.558.797 2.754.797 1.031 0 1.804-.207 2.32-.621.523-.422.785-.977.785-1.665zM126.894 6.753c.323.866.659 1.805 1.01 2.817h-1.438a280.997 280.997 0 00-1.452-4.212 61.6 61.6 0 00-1.48-3.77 63.84 63.84 0 00-1.479 3.784 341.87 341.87 0 00-1.466 4.198h-1.48a92.6 92.6 0 01.996-2.817c.322-.856.636-1.67.94-2.444.313-.774.618-1.515.913-2.224.304-.7.613-1.395.926-2.085h1.259c.313.69.617 1.386.912 2.085.304.71.609 1.45.913 2.224.304.773.613 1.588.926 2.444zM143.337 10c-.627 0-1.171-.096-1.632-.29a3.089 3.089 0 01-1.134-.787 3.4 3.4 0 01-.664-1.202 5.17 5.17 0 01-.207-1.491V.223h1.341v5.855c0 .958.212 1.653.636 2.085.424.433.977.65 1.66.65.341 0 .65-.051.926-.152.286-.11.53-.277.733-.498.203-.22.359-.501.47-.842.111-.35.166-.764.166-1.243V.223h1.341V6.23c0 .534-.073 1.031-.221 1.491-.138.46-.359.861-.664 1.202a3.093 3.093 0 01-1.133.787c-.452.194-.992.29-1.618.29zm-71.968-.207v-1.16h-4.425V.223h-1.342v9.57h5.766zm17.598-1.16v1.16H83.2V.223h1.342v8.41h4.425zM102.75 9.86c.23.01.442.014.636.014 1.53 0 2.646-.24 3.346-.718.71-.488 1.065-1.21 1.065-2.168 0-.654-.166-1.16-.498-1.52-.331-.358-.779-.62-1.341-.786.415-.166.747-.415.996-.746.249-.34.373-.773.373-1.298 0-.47-.101-.866-.304-1.188a2.21 2.21 0 00-.844-.773 3.751 3.751 0 00-1.258-.428 9.114 9.114 0 00-1.549-.125 17.698 17.698 0 00-1.3.055 16.8 16.8 0 00-.664.07 5.182 5.182 0 00-.608.11v9.28c.184.046.387.083.608.11a16.208 16.208 0 001.342.111zm-.622-1.16V5.33h1.728c.387 0 .738.028 1.051.084.314.055.581.147.802.276a1.3 1.3 0 01.525.525c.12.211.18.474.18.787 0 .35-.083.64-.249.87-.156.23-.369.41-.636.538a3.3 3.3 0 01-.94.277 8.62 8.62 0 01-1.12.069h-.567l-.415-.028c-.138-.01-.258-.018-.359-.028zm1.41-4.447h-1.41V1.3c.156-.018.331-.032.525-.041.194-.01.461-.014.802-.014s.664.028.968.083c.304.055.567.143.788.262.231.11.41.263.54.456.129.184.193.414.193.69 0 .295-.064.54-.193.732-.12.194-.291.35-.512.47-.212.12-.466.202-.761.248a6.069 6.069 0 01-.94.07zM12.188 29.92h1.968L6.088 11.705h6.84s1.131 0 2.36 1.301c.64.677.845 1.111 1.083 1.952.208.735.27 1.198.148 1.952-.105.64-.254.999-.59 1.551-.344.565-.614.847-1.132 1.251-.532.415-.884.605-1.526.8-.465.143-1.23.201-1.23.201l.886 1.752s.545-.028.886-.1c.64-.136 1.24-.424 1.918-.901.862-.606 1.283-1.089 1.82-2.002.485-.822.68-1.357.837-2.302.141-.848.151-1.356 0-2.202-.251-1.41-.689-2.226-1.673-3.253-1.918-2.002-3.935-2.002-3.935-2.002l-9.66.041 9.07 20.177zM1.138 9.744H.375l9.097 20.177h.722L1.138 9.744zm21.157-6.019A335.878 335.878 0 0121.091.048c-.35 0-.702 0-1.154-.048a.657.657 0 01.05.167c.013.06.026.12.05.167 4.566 13.038 9.131 26.028 13.697 39.018.25.716.25.716 1.203.573a7.309 7.309 0 00-.075-.262 8.258 8.258 0 01-.075-.263l-4.816-13.754-7.676-21.92z" fill="url(#paint0_linear_391_1112)"/><path fill-rule="evenodd" clip-rule="evenodd" d="M53.733 9.57c-.35-1.012-.687-1.951-1.01-2.817-.313-.856-.622-1.67-.926-2.444a78.491 78.491 0 00-.913-2.224c-.295-.7-.599-1.395-.913-2.085h-1.258c-.313.69-.622 1.386-.926 2.085-.295.71-.6 1.45-.913 2.224-.304.773-.618 1.588-.94 2.444a93.735 93.735 0 00-.996 2.817h1.48c.498-1.454.986-2.854 1.465-4.198a63.86 63.86 0 011.48-3.784 61.6 61.6 0 011.48 3.77c.48 1.354.963 2.758 1.452 4.212h1.438zm-4.034 22.09V38h-2.965V20.937h6.528c1.906 0 3.418.497 4.535 1.489 1.125.992 1.687 2.305 1.687 3.937 0 1.672-.55 2.973-1.652 3.903-1.094.93-2.629 1.394-4.605 1.394h-3.528zm0-2.379h3.563c1.054 0 1.86-.246 2.414-.738.554-.5.832-1.219.832-2.156 0-.922-.281-1.657-.844-2.203-.562-.555-1.336-.84-2.32-.856h-3.645v5.953zm21.673-.258l3.926-8.085h3.281l-5.718 10.78V38h-2.977v-6.281l-5.73-10.782h3.293l3.925 8.086zm25.318-5.695h-5.32V38h-2.942V23.328h-5.273v-2.39H96.69v2.39zM116.207 38h-2.953v-7.582h-7.629V38h-2.965V20.937h2.965v7.102h7.629v-7.102h2.953V38zm20.853-8.086c0 1.672-.289 3.14-.867 4.406-.579 1.258-1.407 2.227-2.485 2.907-1.07.671-2.305 1.007-3.703 1.007-1.383 0-2.617-.336-3.703-1.007-1.078-.68-1.914-1.645-2.508-2.895-.586-1.25-.883-2.691-.891-4.324v-.961c0-1.664.293-3.133.879-4.406.594-1.274 1.426-2.246 2.496-2.918 1.079-.68 2.313-1.02 3.704-1.02 1.39 0 2.621.336 3.691 1.008 1.078.664 1.91 1.625 2.496 2.883.586 1.25.883 2.707.891 4.37v.95zm-2.965-.89c0-1.891-.36-3.34-1.078-4.348-.711-1.008-1.723-1.512-3.035-1.512-1.282 0-2.286.504-3.012 1.512-.719 1-1.086 2.418-1.102 4.254v.984c0 1.875.364 3.324 1.09 4.348.734 1.023 1.75 1.535 3.047 1.535 1.313 0 2.32-.5 3.023-1.5.711-1 1.067-2.461 1.067-4.383v-.89zM157.268 38h-2.965l-7.605-12.105V38h-2.965V20.937h2.965l7.629 12.153V20.937h2.941V38zm10.189-6.34V38h-2.965V20.937h6.527c1.906 0 3.418.497 4.535 1.489 1.125.992 1.688 2.305 1.688 3.937 0 1.672-.551 2.973-1.652 3.903-1.094.93-2.629 1.394-4.606 1.394h-3.527zm0-2.379h3.562c1.055 0 1.86-.246 2.414-.738.555-.5.832-1.219.832-2.156 0-.922-.281-1.657-.843-2.203-.563-.555-1.336-.84-2.321-.856h-3.644v5.953zm16.962 4.746L183.036 38h-3.082l6.445-17.063h2.661L195.517 38h-3.094l-1.395-3.973h-6.609zm5.777-2.39l-2.472-7.078-2.473 7.078h4.945zm17.255-.211h-3.304V38h-2.965V20.937h6c1.969 0 3.488.442 4.558 1.325 1.071.883 1.606 2.16 1.606 3.832 0 1.14-.277 2.097-.832 2.87-.547.767-1.313 1.356-2.297 1.77l3.832 7.114V38h-3.176l-3.422-6.574zm-3.304-2.38h3.047c1 0 1.781-.25 2.343-.75.563-.507.844-1.198.844-2.073 0-.914-.262-1.621-.785-2.121-.516-.5-1.289-.758-2.32-.774h-3.129v5.719zm27.474-5.718H226.3V38h-2.941V23.328h-5.274v-2.39h13.536v2.39zm14.7 10.277c0-.75-.266-1.328-.797-1.734-.523-.406-1.472-.816-2.847-1.23-1.375-.414-2.469-.875-3.282-1.383-1.554-.977-2.332-2.25-2.332-3.82 0-1.375.559-2.508 1.676-3.399 1.125-.89 2.582-1.336 4.371-1.336 1.188 0 2.246.219 3.176.656.93.438 1.66 1.063 2.191 1.875.532.805.797 1.7.797 2.684h-2.953c0-.89-.281-1.586-.844-2.086-.554-.508-1.351-.762-2.39-.762-.969 0-1.723.207-2.262.621-.531.415-.797.993-.797 1.735 0 .625.289 1.148.867 1.57.578.414 1.532.82 2.86 1.219 1.328.39 2.394.84 3.199 1.348.805.5 1.394 1.078 1.769 1.734.375.648.563 1.41.563 2.285 0 1.422-.547 2.555-1.641 3.398-1.086.836-2.562 1.254-4.429 1.254-1.235 0-2.371-.226-3.411-.68-1.031-.46-1.835-1.093-2.414-1.898-.57-.804-.855-1.742-.855-2.812h2.965c0 .968.32 1.718.961 2.25.64.531 1.558.797 2.754.797 1.031 0 1.804-.207 2.32-.621.523-.422.785-.977.785-1.665zM126.894 6.753c.323.866.659 1.805 1.01 2.817h-1.438a280.997 280.997 0 00-1.452-4.212 61.6 61.6 0 00-1.48-3.77 63.84 63.84 0 00-1.479 3.784 341.87 341.87 0 00-1.466 4.198h-1.48a92.6 92.6 0 01.996-2.817c.322-.856.636-1.67.94-2.444.313-.774.618-1.515.913-2.224.304-.7.613-1.395.926-2.085h1.259c.313.69.617 1.386.912 2.085.304.71.609 1.45.913 2.224.304.773.613 1.588.926 2.444zM143.337 10c-.627 0-1.171-.096-1.632-.29a3.089 3.089 0 01-1.134-.787 3.4 3.4 0 01-.664-1.202 5.17 5.17 0 01-.207-1.491V.223h1.341v5.855c0 .958.212 1.653.636 2.085.424.433.977.65 1.66.65.341 0 .65-.051.926-.152.286-.11.53-.277.733-.498.203-.22.359-.501.47-.842.111-.35.166-.764.166-1.243V.223h1.341V6.23c0 .534-.073 1.031-.221 1.491-.138.46-.359.861-.664 1.202a3.093 3.093 0 01-1.133.787c-.452.194-.992.29-1.618.29zm-71.968-.207v-1.16h-4.425V.223h-1.342v9.57h5.766zm17.598-1.16v1.16H83.2V.223h1.342v8.41h4.425zM102.75 9.86c.23.01.442.014.636.014 1.53 0 2.646-.24 3.346-.718.71-.488 1.065-1.21 1.065-2.168 0-.654-.166-1.16-.498-1.52-.331-.358-.779-.62-1.341-.786.415-.166.747-.415.996-.746.249-.34.373-.773.373-1.298 0-.47-.101-.866-.304-1.188a2.21 2.21 0 00-.844-.773 3.751 3.751 0 00-1.258-.428 9.114 9.114 0 00-1.549-.125 17.698 17.698 0 00-1.3.055 16.8 16.8 0 00-.664.07 5.182 5.182 0 00-.608.11v9.28c.184.046.387.083.608.11a16.208 16.208 0 001.342.111zm-.622-1.16V5.33h1.728c.387 0 .738.028 1.051.084.314.055.581.147.802.276a1.3 1.3 0 01.525.525c.12.211.18.474.18.787 0 .35-.083.64-.249.87-.156.23-.369.41-.636.538a3.3 3.3 0 01-.94.277 8.62 8.62 0 01-1.12.069h-.567l-.415-.028c-.138-.01-.258-.018-.359-.028zm1.41-4.447h-1.41V1.3c.156-.018.331-.032.525-.041.194-.01.461-.014.802-.014s.664.028.968.083c.304.055.567.143.788.262.231.11.41.263.54.456.129.184.193.414.193.69 0 .295-.064.54-.193.732-.12.194-.291.35-.512.47-.212.12-.466.202-.761.248a6.069 6.069 0 01-.94.07zM12.188 29.92h1.968L6.088 11.705h6.84s1.131 0 2.36 1.301c.64.677.845 1.111 1.083 1.952.208.735.27 1.198.148 1.952-.105.64-.254.999-.59 1.551-.344.565-.614.847-1.132 1.251-.532.415-.884.605-1.526.8-.465.143-1.23.201-1.23.201l.886 1.752s.545-.028.886-.1c.64-.136 1.24-.424 1.918-.901.862-.606 1.283-1.089 1.82-2.002.485-.822.68-1.357.837-2.302.141-.848.151-1.356 0-2.202-.251-1.41-.689-2.226-1.673-3.253-1.918-2.002-3.935-2.002-3.935-2.002l-9.66.041 9.07 20.177zM1.138 9.744H.375l9.097 20.177h.722L1.138 9.744zm21.157-6.019A335.878 335.878 0 0121.091.048c-.35 0-.702 0-1.154-.048a.657.657 0 01.05.167c.013.06.026.12.05.167 4.566 13.038 9.131 26.028 13.697 39.018.25.716.25.716 1.203.573a7.309 7.309 0 00-.075-.262 8.258 8.258 0 01-.075-.263l-4.816-13.754-7.676-21.92z" fill="#062633"/><path fill-rule="evenodd" clip-rule="evenodd" d="M53.733 9.57c-.35-1.012-.687-1.951-1.01-2.817-.313-.856-.622-1.67-.926-2.444a78.491 78.491 0 00-.913-2.224c-.295-.7-.599-1.395-.913-2.085h-1.258c-.313.69-.622 1.386-.926 2.085-.295.71-.6 1.45-.913 2.224-.304.773-.618 1.588-.94 2.444a93.735 93.735 0 00-.996 2.817h1.48c.498-1.454.986-2.854 1.465-4.198a63.86 63.86 0 011.48-3.784 61.6 61.6 0 011.48 3.77c.48 1.354.963 2.758 1.452 4.212h1.438zm-4.034 22.09V38h-2.965V20.937h6.528c1.906 0 3.418.497 4.535 1.489 1.125.992 1.687 2.305 1.687 3.937 0 1.672-.55 2.973-1.652 3.903-1.094.93-2.629 1.394-4.605 1.394h-3.528zm0-2.379h3.563c1.054 0 1.86-.246 2.414-.738.554-.5.832-1.219.832-2.156 0-.922-.281-1.657-.844-2.203-.562-.555-1.336-.84-2.32-.856h-3.645v5.953zm21.673-.258l3.926-8.085h3.281l-5.718 10.78V38h-2.977v-6.281l-5.73-10.782h3.293l3.925 8.086zm25.318-5.695h-5.32V38h-2.942V23.328h-5.273v-2.39H96.69v2.39zM116.207 38h-2.953v-7.582h-7.629V38h-2.965V20.937h2.965v7.102h7.629v-7.102h2.953V38zm20.853-8.086c0 1.672-.289 3.14-.867 4.406-.579 1.258-1.407 2.227-2.485 2.907-1.07.671-2.305 1.007-3.703 1.007-1.383 0-2.617-.336-3.703-1.007-1.078-.68-1.914-1.645-2.508-2.895-.586-1.25-.883-2.691-.891-4.324v-.961c0-1.664.293-3.133.879-4.406.594-1.274 1.426-2.246 2.496-2.918 1.079-.68 2.313-1.02 3.704-1.02 1.39 0 2.621.336 3.691 1.008 1.078.664 1.91 1.625 2.496 2.883.586 1.25.883 2.707.891 4.37v.95zm-2.965-.89c0-1.891-.36-3.34-1.078-4.348-.711-1.008-1.723-1.512-3.035-1.512-1.282 0-2.286.504-3.012 1.512-.719 1-1.086 2.418-1.102 4.254v.984c0 1.875.364 3.324 1.09 4.348.734 1.023 1.75 1.535 3.047 1.535 1.313 0 2.32-.5 3.023-1.5.711-1 1.067-2.461 1.067-4.383v-.89zM157.268 38h-2.965l-7.605-12.105V38h-2.965V20.937h2.965l7.629 12.153V20.937h2.941V38zm10.189-6.34V38h-2.965V20.937h6.527c1.906 0 3.418.497 4.535 1.489 1.125.992 1.688 2.305 1.688 3.937 0 1.672-.551 2.973-1.652 3.903-1.094.93-2.629 1.394-4.606 1.394h-3.527zm0-2.379h3.562c1.055 0 1.86-.246 2.414-.738.555-.5.832-1.219.832-2.156 0-.922-.281-1.657-.843-2.203-.563-.555-1.336-.84-2.321-.856h-3.644v5.953zm16.962 4.746L183.036 38h-3.082l6.445-17.063h2.661L195.517 38h-3.094l-1.395-3.973h-6.609zm5.777-2.39l-2.472-7.078-2.473 7.078h4.945zm17.255-.211h-3.304V38h-2.965V20.937h6c1.969 0 3.488.442 4.558 1.325 1.071.883 1.606 2.16 1.606 3.832 0 1.14-.277 2.097-.832 2.87-.547.767-1.313 1.356-2.297 1.77l3.832 7.114V38h-3.176l-3.422-6.574zm-3.304-2.38h3.047c1 0 1.781-.25 2.343-.75.563-.507.844-1.198.844-2.073 0-.914-.262-1.621-.785-2.121-.516-.5-1.289-.758-2.32-.774h-3.129v5.719zm27.474-5.718H226.3V38h-2.941V23.328h-5.274v-2.39h13.536v2.39zm14.7 10.277c0-.75-.266-1.328-.797-1.734-.523-.406-1.472-.816-2.847-1.23-1.375-.414-2.469-.875-3.282-1.383-1.554-.977-2.332-2.25-2.332-3.82 0-1.375.559-2.508 1.676-3.399 1.125-.89 2.582-1.336 4.371-1.336 1.188 0 2.246.219 3.176.656.93.438 1.66 1.063 2.191 1.875.532.805.797 1.7.797 2.684h-2.953c0-.89-.281-1.586-.844-2.086-.554-.508-1.351-.762-2.39-.762-.969 0-1.723.207-2.262.621-.531.415-.797.993-.797 1.735 0 .625.289 1.148.867 1.57.578.414 1.532.82 2.86 1.219 1.328.39 2.394.84 3.199 1.348.805.5 1.394 1.078 1.769 1.734.375.648.563 1.41.563 2.285 0 1.422-.547 2.555-1.641 3.398-1.086.836-2.562 1.254-4.429 1.254-1.235 0-2.371-.226-3.411-.68-1.031-.46-1.835-1.093-2.414-1.898-.57-.804-.855-1.742-.855-2.812h2.965c0 .968.32 1.718.961 2.25.64.531 1.558.797 2.754.797 1.031 0 1.804-.207 2.32-.621.523-.422.785-.977.785-1.665zM126.894 6.753c.323.866.659 1.805 1.01 2.817h-1.438a280.997 280.997 0 00-1.452-4.212 61.6 61.6 0 00-1.48-3.77 63.84 63.84 0 00-1.479 3.784 341.87 341.87 0 00-1.466 4.198h-1.48a92.6 92.6 0 01.996-2.817c.322-.856.636-1.67.94-2.444.313-.774.618-1.515.913-2.224.304-.7.613-1.395.926-2.085h1.259c.313.69.617 1.386.912 2.085.304.71.609 1.45.913 2.224.304.773.613 1.588.926 2.444zM143.337 10c-.627 0-1.171-.096-1.632-.29a3.089 3.089 0 01-1.134-.787 3.4 3.4 0 01-.664-1.202 5.17 5.17 0 01-.207-1.491V.223h1.341v5.855c0 .958.212 1.653.636 2.085.424.433.977.65 1.66.65.341 0 .65-.051.926-.152.286-.11.53-.277.733-.498.203-.22.359-.501.47-.842.111-.35.166-.764.166-1.243V.223h1.341V6.23c0 .534-.073 1.031-.221 1.491-.138.46-.359.861-.664 1.202a3.093 3.093 0 01-1.133.787c-.452.194-.992.29-1.618.29zm-71.968-.207v-1.16h-4.425V.223h-1.342v9.57h5.766zm17.598-1.16v1.16H83.2V.223h1.342v8.41h4.425zM102.75 9.86c.23.01.442.014.636.014 1.53 0 2.646-.24 3.346-.718.71-.488 1.065-1.21 1.065-2.168 0-.654-.166-1.16-.498-1.52-.331-.358-.779-.62-1.341-.786.415-.166.747-.415.996-.746.249-.34.373-.773.373-1.298 0-.47-.101-.866-.304-1.188a2.21 2.21 0 00-.844-.773 3.751 3.751 0 00-1.258-.428 9.114 9.114 0 00-1.549-.125 17.698 17.698 0 00-1.3.055 16.8 16.8 0 00-.664.07 5.182 5.182 0 00-.608.11v9.28c.184.046.387.083.608.11a16.208 16.208 0 001.342.111zm-.622-1.16V5.33h1.728c.387 0 .738.028 1.051.084.314.055.581.147.802.276a1.3 1.3 0 01.525.525c.12.211.18.474.18.787 0 .35-.083.64-.249.87-.156.23-.369.41-.636.538a3.3 3.3 0 01-.94.277 8.62 8.62 0 01-1.12.069h-.567l-.415-.028c-.138-.01-.258-.018-.359-.028zm1.41-4.447h-1.41V1.3c.156-.018.331-.032.525-.041.194-.01.461-.014.802-.014s.664.028.968.083c.304.055.567.143.788.262.231.11.41.263.54.456.129.184.193.414.193.69 0 .295-.064.54-.193.732-.12.194-.291.35-.512.47-.212.12-.466.202-.761.248a6.069 6.069 0 01-.94.07zM12.188 29.92h1.968L6.088 11.705h6.84s1.131 0 2.36 1.301c.64.677.845 1.111 1.083 1.952.208.735.27 1.198.148 1.952-.105.64-.254.999-.59 1.551-.344.565-.614.847-1.132 1.251-.532.415-.884.605-1.526.8-.465.143-1.23.201-1.23.201l.886 1.752s.545-.028.886-.1c.64-.136 1.24-.424 1.918-.901.862-.606 1.283-1.089 1.82-2.002.485-.822.68-1.357.837-2.302.141-.848.151-1.356 0-2.202-.251-1.41-.689-2.226-1.673-3.253-1.918-2.002-3.935-2.002-3.935-2.002l-9.66.041 9.07 20.177zM1.138 9.744H.375l9.097 20.177h.722L1.138 9.744zm21.157-6.019A335.878 335.878 0 0121.091.048c-.35 0-.702 0-1.154-.048a.657.657 0 01.05.167c.013.06.026.12.05.167 4.566 13.038 9.131 26.028 13.697 39.018.25.716.25.716 1.203.573a7.309 7.309 0 00-.075-.262 8.258 8.258 0 01-.075-.263l-4.816-13.754-7.676-21.92z" fill="#005B8B"/><defs><linearGradient id="paint0_linear_391_1112" x1="36.114" y1="45.577" x2="21.156" y2="45.557" gradientUnits="userSpaceOnUse"><stop stop-color="#FA3901"/><stop offset="1" stop-color="#FF8902"/></linearGradient></defs></svg>