<?xml version="1.0" encoding="utf-8"?><svg viewBox="0 0 73 67" xmlns="http://www.w3.org/2000/svg" xmlns:xlink="http://www.w3.org/1999/xlink"><style>:root>svg{display:none}:root>svg:target{display:block}</style><svg fill="none" viewBox="0 0 16 30" id="icon-arrow-next" xmlns="http://www.w3.org/2000/svg"><path fill-rule="evenodd" clip-rule="evenodd" d="M15.641 15.704a1.028 1.028 0 000-1.43L1.975.295a.973.973 0 00-1.398 0 1.028 1.028 0 000 1.43L13.544 14.99.577 28.253a1.028 1.028 0 000 1.43.973.973 0 001.398 0L15.64 15.704z" fill="currentColor"/></svg><svg fill="none" viewBox="0 0 12 21" id="icon-arrow-next-gradient" xmlns="http://www.w3.org/2000/svg"><path fill-rule="evenodd" clip-rule="evenodd" d="M10.802 11.068L1.686 20.41a.97.97 0 01-1.397 0 1.03 1.03 0 010-1.431l8.418-8.625L.289 1.728a1.03 1.03 0 010-1.432.971.971 0 011.397 0l9.116 9.34v.001a1.03 1.03 0 010 1.431z" fill="#fff"/><path fill-rule="evenodd" clip-rule="evenodd" d="M10.802 11.068L1.686 20.41a.97.97 0 01-1.397 0 1.03 1.03 0 010-1.431l8.418-8.625L.289 1.728a1.03 1.03 0 010-1.432.971.971 0 011.397 0l9.116 9.34v.001a1.03 1.03 0 010 1.431z" fill="url(#abpaint0_linear_459_377)"/><defs><linearGradient id="abpaint0_linear_459_377" x1="0" y1="0" x2="11.461" y2=".207" gradientUnits="userSpaceOnUse"><stop stop-color="#FA3901"/><stop offset="1" stop-color="#FF8902"/></linearGradient></defs></svg><svg fill="none" viewBox="0 0 16 30" id="icon-arrow-prev" xmlns="http://www.w3.org/2000/svg"><path fill-rule="evenodd" clip-rule="evenodd" d="M.29 15.726a1.028 1.028 0 010-1.43L13.957.317a.973.973 0 011.398 0 1.028 1.028 0 010 1.43L2.388 15.011l12.967 13.264a1.028 1.028 0 010 1.43.973.973 0 01-1.398 0L.29 15.726z" fill="currentColor"/></svg><svg fill="none" viewBox="0 0 30 30" id="icon-bim" xmlns="http://www.w3.org/2000/svg"><g clip-path="url(#adclip0_515_509)" fill="currentColor" stroke="currentColor"><path d="M15.097 8.123a.64.64 0 01.531.637v8.344l-.531-8.981zm0 0a.626.626 0 00-.719.619m.719-.62l-.719.62m0 0v8.362-8.362zm8.18 12.383a.122.122 0 01.054.168.121.121 0 01-.163.06l-.003-.002-7.22-3.613-.223-.112-.224.112-7.222 3.611a.131.131 0 01-.098.005.115.115 0 01-.07-.057h0a.132.132 0 01.059-.172l7.153-3.573.277-.139V8.742c0-.076.067-.136.147-.124h.001a.106.106 0 01.065.04.163.163 0 01.037.102v8.654l.277.137 7.153 3.574zM2.902 26.97V29.382c0 .03.011.061.03.085.019.022.038.03.05.032h.001a.1.1 0 00.118-.1V26.97l.152-.148 2.217-2.145s0 0 0 0a.105.105 0 00-.002-.149h0a.099.099 0 00-.14.002h0l-1.979 1.92-.348.337-.348-.338-1.978-1.918-.001-.001a.099.099 0 00-.144.003l2.372 2.437zm0 0l-.153-.148m.153.148l-.153-.148m0 0L.532 24.677a.1.1 0 01-.002-.144l2.22 2.29zM13.624 4.67l-.726.83h4.096c.077 0 .14.062.13.151a.107.107 0 01-.04.062.163.163 0 01-.102.037h-4.35a.128.128 0 01-.08-.03h0l-.007-.006a.124.124 0 01-.01-.175l3.467-3.96.726-.829h-4.102a.126.126 0 01-.124-.147V.602a.105.105 0 01.04-.065.163.163 0 01.102-.037h4.363c.024 0 .05.009.074.03h0l.002.002a.13.13 0 01.008.179l-3.467 3.96zM29.439 29.265l.011.012.012.012.01.01.002.003c.04.056.03.13-.024.174a.127.127 0 01-.177-.027l-.009-.012-.01-.011-1.712-1.963-.376-.43-.377.43-1.71 1.953a.803.803 0 00-.04.044h0l-.006.007a.122.122 0 01-.17-.003.122.122 0 010-.175l.011-.012.012-.012 1.825-2.088.287-.329-.288-.329-1.825-2.087-.01-.013-.012-.012-.01-.01-.003-.002a.126.126 0 01.024-.174.126.126 0 01.177.027l.009.011.01.012 1.712 1.962.376.431.377-.43 1.711-1.954a.994.994 0 00.039-.043v-.001l.006-.007a.123.123 0 01.17.004l.345-.344-.344.344a.123.123 0 010 .174l-.012.012-.011.013-1.825 2.087-.288.33.288.328 1.825 2.088zm.033.033h0z"/></g><defs><clipPath id="adclip0_515_509"><path fill="#fff" d="M0 0h30v30H0z"/></clipPath></defs></svg><svg fill="none" viewBox="0 0 10 8" id="icon-caret" xmlns="http://www.w3.org/2000/svg"><path d="M4.134 7.5a1 1 0 001.732 0l3.464-6A1 1 0 008.464 0H1.536A1 1 0 00.67 1.5l3.464 6z" fill="#444"/><path d="M4.134 7.5a1 1 0 001.732 0l3.464-6A1 1 0 008.464 0H1.536A1 1 0 00.67 1.5l3.464 6z" fill="url(#aepaint0_linear_515_497)"/><path d="M4.134 7.5a1 1 0 001.732 0l3.464-6A1 1 0 008.464 0H1.536A1 1 0 00.67 1.5l3.464 6z" fill="url(#aepaint1_linear_515_497)"/><defs><linearGradient id="aepaint0_linear_515_497" x1="9.5" y1="3" x2="6.981" y2="7.505" gradientUnits="userSpaceOnUse"><stop stop-color="#A459D0"/><stop offset="1" stop-color="#FF5761"/></linearGradient><linearGradient id="aepaint1_linear_515_497" x1="11" y1="-4.673" x2="-1.032" y2="-4.63" gradientUnits="userSpaceOnUse"><stop stop-color="#FA3901"/><stop offset="1" stop-color="#FF8902"/></linearGradient></defs></svg><svg fill="none" viewBox="0 0 17 10" id="icon-caret-grey" xmlns="http://www.w3.org/2000/svg"><rect width="1.93" height="11.917" rx=".965" transform="matrix(.7015 -.71268 .7015 .71268 0 1.376)" fill="#606060"/><rect width="1.93" height="11.534" rx=".965" transform="scale(-.99206 1.00788) rotate(-45 -6.314 20.84)" fill="#606060"/></svg><svg fill="none" viewBox="0 0 8 5" id="icon-caret-white" xmlns="http://www.w3.org/2000/svg"><path d="M3.969.467l-2.89 2.87c-.118.118-.118.229 0 .333l.37.39c.117.104.228.104.332 0l2.344-2.324L6.469 4.06c.104.104.215.104.332 0l.37-.39c.118-.104.118-.215 0-.332L4.282.467c-.104-.105-.208-.105-.312 0z" fill="#AAB5BD"/><path d="M3.969.467l-2.89 2.87c-.118.118-.118.229 0 .333l.37.39c.117.104.228.104.332 0l2.344-2.324L6.469 4.06c.104.104.215.104.332 0l.37-.39c.118-.104.118-.215 0-.332L4.282.467c-.104-.105-.208-.105-.312 0z" fill="#fff"/></svg><svg fill="none" viewBox="0 0 16 16" id="icon-close" xmlns="http://www.w3.org/2000/svg"><rect width="21.55" height="1.078" rx=".539" transform="scale(1 -1) rotate(45 19.695 -7.08)" fill="#000"/><rect width="21.55" height="1.078" rx=".539" transform="scale(1 -1) rotate(45 19.695 -7.08)" fill="#212121"/><rect width="21.55" height="1.078" rx=".539" transform="scale(1 -1) rotate(45 19.695 -7.08)" fill="url(#ahpaint0_linear_532_375)"/><rect x=".762" width="21.55" height="1.078" rx=".539" transform="rotate(45 .762 0)" fill="#000"/><rect x=".762" width="21.55" height="1.078" rx=".539" transform="rotate(45 .762 0)" fill="#212121"/><rect x=".762" width="21.55" height="1.078" rx=".539" transform="rotate(45 .762 0)" fill="url(#ahpaint1_linear_532_375)"/><defs><linearGradient id="ahpaint0_linear_532_375" x1="21.55" y1="1.228" x2=".052" y2="-.313" gradientUnits="userSpaceOnUse"><stop stop-color="#FA3901"/><stop offset="1" stop-color="#FF8902"/></linearGradient><linearGradient id="ahpaint1_linear_532_375" x1="22.312" y1="1.228" x2=".814" y2="-.313" gradientUnits="userSpaceOnUse"><stop stop-color="#FA3901"/><stop offset="1" stop-color="#FF8902"/></linearGradient></defs></svg><svg fill="none" viewBox="0 0 11 14" id="icon-current-item" xmlns="http://www.w3.org/2000/svg"><path d="M10.5 6.134a1 1 0 010 1.732l-9 5.196a1 1 0 01-1.5-.866V1.804A1 1 0 011.5.938l9 5.196z" fill="#C4C4C4"/><path d="M10.5 6.134a1 1 0 010 1.732l-9 5.196a1 1 0 01-1.5-.866V1.804A1 1 0 011.5.938l9 5.196z" fill="url(#aipaint0_linear_459_10041)"/><defs><linearGradient id="aipaint0_linear_459_10041" x1="-6.231" y1="15" x2="-6.174" y2="-1.043" gradientUnits="userSpaceOnUse"><stop stop-color="#FA3901"/><stop offset="1" stop-color="#FF8902"/></linearGradient></defs></svg><svg fill="none" viewBox="0 0 55 43" id="icon-email" xmlns="http://www.w3.org/2000/svg"><g opacity=".78"><path d="M50.166.553H4.834A4.842 4.842 0 000 5.387v32.226a4.842 4.842 0 004.834 4.834h45.332A4.842 4.842 0 0055 37.613V5.387A4.842 4.842 0 0050.166.553zm-.667 3.222L27.602 25.671 5.517 3.776h43.981zM3.222 36.946V6.039l15.52 15.387-15.52 15.52zM5.5 39.225l15.53-15.53 5.442 5.395c.63.624 1.646.622 2.274-.005l5.306-5.306 15.446 15.446H5.5zm46.276-2.28L36.331 21.5 51.777 6.054v30.892z" fill="#000"/><path d="M50.166.553H4.834A4.842 4.842 0 000 5.387v32.226a4.842 4.842 0 004.834 4.834h45.332A4.842 4.842 0 0055 37.613V5.387A4.842 4.842 0 0050.166.553zm-.667 3.222L27.602 25.671 5.517 3.776h43.981zM3.222 36.946V6.039l15.52 15.387-15.52 15.52zM5.5 39.225l15.53-15.53 5.442 5.395c.63.624 1.646.622 2.274-.005l5.306-5.306 15.446 15.446H5.5zm46.276-2.28L36.331 21.5 51.777 6.054v30.892z" fill="url(#ajpaint0_linear_459_344)"/><path d="M50.166.553H4.834A4.842 4.842 0 000 5.387v32.226a4.842 4.842 0 004.834 4.834h45.332A4.842 4.842 0 0055 37.613V5.387A4.842 4.842 0 0050.166.553zm-.667 3.222L27.602 25.671 5.517 3.776h43.981zM3.222 36.946V6.039l15.52 15.387-15.52 15.52zM5.5 39.225l15.53-15.53 5.442 5.395c.63.624 1.646.622 2.274-.005l5.306-5.306 15.446 15.446H5.5zm46.276-2.28L36.331 21.5 51.777 6.054v30.892z" fill="#fff"/></g><defs><linearGradient id="ajpaint0_linear_459_344" x1="0" y1=".553" x2="56.74" y2="3.059" gradientUnits="userSpaceOnUse"><stop stop-color="#FA3901"/><stop offset="1" stop-color="#FF8902"/></linearGradient></defs></svg><svg fill="none" viewBox="0 0 13 26" id="icon-facebook" xmlns="http://www.w3.org/2000/svg"><path d="M10.627 4.317H13V.183C12.59.127 11.182 0 9.542 0 6.12 0 3.776 2.153 3.776 6.109V9.75H0v4.621h3.776V26h4.63V14.373h3.623l.576-4.622h-4.2V6.567c.001-1.336.36-2.25 2.222-2.25z" fill="currentColor"/><path d="M10.627 4.317H13V.183C12.59.127 11.182 0 9.542 0 6.12 0 3.776 2.153 3.776 6.109V9.75H0v4.621h3.776V26h4.63V14.373h3.623l.576-4.622h-4.2V6.567c.001-1.336.36-2.25 2.222-2.25z" fill="currentColor"/><path d="M10.627 4.317H13V.183C12.59.127 11.182 0 9.542 0 6.12 0 3.776 2.153 3.776 6.109V9.75H0v4.621h3.776V26h4.63V14.373h3.623l.576-4.622h-4.2V6.567c.001-1.336.36-2.25 2.222-2.25z" fill="currentColor"/></svg><svg fill="none" viewBox="0 0 26 27" id="icon-instagram" xmlns="http://www.w3.org/2000/svg"><path fill-rule="evenodd" clip-rule="evenodd" d="M25.974 7.924c-.061-1.381-.285-2.331-.605-3.154a6.345 6.345 0 00-1.503-2.306 6.4 6.4 0 00-2.3-1.498C20.736.646 19.792.422 18.41.36 17.02.295 16.577.28 13.047.28S9.076.295 7.69.356C6.308.417 5.358.641 4.535.961a6.344 6.344 0 00-2.306 1.503 6.401 6.401 0 00-1.498 2.3C.41 5.594.187 6.538.126 7.92.06 9.31.045 9.753.045 13.283S.06 17.254.12 18.64c.061 1.382.285 2.331.605 3.154.33.874.843 1.656 1.503 2.306a6.399 6.399 0 002.3 1.498c.829.32 1.773.544 3.155.605 1.386.06 1.828.076 5.359.076 3.53 0 3.971-.015 5.358-.076 1.381-.061 2.331-.285 3.154-.605a6.65 6.65 0 003.804-3.804c.32-.828.544-1.773.605-3.154.06-1.387.076-1.828.076-5.358 0-3.53-.005-3.972-.066-5.359zM23.632 18.54c-.056 1.27-.269 1.955-.447 2.412a4.313 4.313 0 01-2.468 2.469c-.457.177-1.148.39-2.413.446-1.371.061-1.782.077-5.251.077-3.47 0-3.886-.015-5.252-.077-1.27-.055-1.956-.269-2.413-.446a4.002 4.002 0 01-1.493-.97 4.042 4.042 0 01-.97-1.494c-.178-.457-.391-1.148-.447-2.412-.061-1.372-.076-1.783-.076-5.252 0-3.47.015-3.886.076-5.252.056-1.27.269-1.956.447-2.413A3.952 3.952 0 013.9 4.135c.421-.432.93-.762 1.493-.97.457-.178 1.148-.391 2.413-.447 1.371-.06 1.783-.076 5.252-.076 3.474 0 3.885.015 5.252.076 1.27.056 1.955.27 2.412.447a3.998 3.998 0 011.493.97c.432.422.762.93.97 1.493.178.457.392 1.148.447 2.413.061 1.371.077 1.783.077 5.252s-.016 3.875-.077 5.247zM13.047 6.603a6.68 6.68 0 00-6.679 6.68 6.68 6.68 0 006.68 6.679 6.68 6.68 0 006.679-6.68 6.68 6.68 0 00-6.68-6.679zm0 11.012a4.333 4.333 0 11.002-8.666 4.333 4.333 0 01-.002 8.666zM19.991 7.9a1.56 1.56 0 100-3.119 1.56 1.56 0 000 3.119z" fill="currentColor"/><path fill-rule="evenodd" clip-rule="evenodd" d="M25.974 7.924c-.061-1.381-.285-2.331-.605-3.154a6.345 6.345 0 00-1.503-2.306 6.4 6.4 0 00-2.3-1.498C20.736.646 19.792.422 18.41.36 17.02.295 16.577.28 13.047.28S9.076.295 7.69.356C6.308.417 5.358.641 4.535.961a6.344 6.344 0 00-2.306 1.503 6.401 6.401 0 00-1.498 2.3C.41 5.594.187 6.538.126 7.92.06 9.31.045 9.753.045 13.283S.06 17.254.12 18.64c.061 1.382.285 2.331.605 3.154.33.874.843 1.656 1.503 2.306a6.399 6.399 0 002.3 1.498c.829.32 1.773.544 3.155.605 1.386.06 1.828.076 5.359.076 3.53 0 3.971-.015 5.358-.076 1.381-.061 2.331-.285 3.154-.605a6.65 6.65 0 003.804-3.804c.32-.828.544-1.773.605-3.154.06-1.387.076-1.828.076-5.358 0-3.53-.005-3.972-.066-5.359zM23.632 18.54c-.056 1.27-.269 1.955-.447 2.412a4.313 4.313 0 01-2.468 2.469c-.457.177-1.148.39-2.413.446-1.371.061-1.782.077-5.251.077-3.47 0-3.886-.015-5.252-.077-1.27-.055-1.956-.269-2.413-.446a4.002 4.002 0 01-1.493-.97 4.042 4.042 0 01-.97-1.494c-.178-.457-.391-1.148-.447-2.412-.061-1.372-.076-1.783-.076-5.252 0-3.47.015-3.886.076-5.252.056-1.27.269-1.956.447-2.413A3.952 3.952 0 013.9 4.135c.421-.432.93-.762 1.493-.97.457-.178 1.148-.391 2.413-.447 1.371-.06 1.783-.076 5.252-.076 3.474 0 3.885.015 5.252.076 1.27.056 1.955.27 2.412.447a3.998 3.998 0 011.493.97c.432.422.762.93.97 1.493.178.457.392 1.148.447 2.413.061 1.371.077 1.783.077 5.252s-.016 3.875-.077 5.247zM13.047 6.603a6.68 6.68 0 00-6.679 6.68 6.68 6.68 0 006.68 6.679 6.68 6.68 0 006.679-6.68 6.68 6.68 0 00-6.68-6.679zm0 11.012a4.333 4.333 0 11.002-8.666 4.333 4.333 0 01-.002 8.666zM19.991 7.9a1.56 1.56 0 100-3.119 1.56 1.56 0 000 3.119z" fill="currentColor"/><path fill-rule="evenodd" clip-rule="evenodd" d="M25.974 7.924c-.061-1.381-.285-2.331-.605-3.154a6.345 6.345 0 00-1.503-2.306 6.4 6.4 0 00-2.3-1.498C20.736.646 19.792.422 18.41.36 17.02.295 16.577.28 13.047.28S9.076.295 7.69.356C6.308.417 5.358.641 4.535.961a6.344 6.344 0 00-2.306 1.503 6.401 6.401 0 00-1.498 2.3C.41 5.594.187 6.538.126 7.92.06 9.31.045 9.753.045 13.283S.06 17.254.12 18.64c.061 1.382.285 2.331.605 3.154.33.874.843 1.656 1.503 2.306a6.399 6.399 0 002.3 1.498c.829.32 1.773.544 3.155.605 1.386.06 1.828.076 5.359.076 3.53 0 3.971-.015 5.358-.076 1.381-.061 2.331-.285 3.154-.605a6.65 6.65 0 003.804-3.804c.32-.828.544-1.773.605-3.154.06-1.387.076-1.828.076-5.358 0-3.53-.005-3.972-.066-5.359zM23.632 18.54c-.056 1.27-.269 1.955-.447 2.412a4.313 4.313 0 01-2.468 2.469c-.457.177-1.148.39-2.413.446-1.371.061-1.782.077-5.251.077-3.47 0-3.886-.015-5.252-.077-1.27-.055-1.956-.269-2.413-.446a4.002 4.002 0 01-1.493-.97 4.042 4.042 0 01-.97-1.494c-.178-.457-.391-1.148-.447-2.412-.061-1.372-.076-1.783-.076-5.252 0-3.47.015-3.886.076-5.252.056-1.27.269-1.956.447-2.413A3.952 3.952 0 013.9 4.135c.421-.432.93-.762 1.493-.97.457-.178 1.148-.391 2.413-.447 1.371-.06 1.783-.076 5.252-.076 3.474 0 3.885.015 5.252.076 1.27.056 1.955.27 2.412.447a3.998 3.998 0 011.493.97c.432.422.762.93.97 1.493.178.457.392 1.148.447 2.413.061 1.371.077 1.783.077 5.252s-.016 3.875-.077 5.247zM13.047 6.603a6.68 6.68 0 00-6.679 6.68 6.68 6.68 0 006.68 6.679 6.68 6.68 0 006.679-6.68 6.68 6.68 0 00-6.68-6.679zm0 11.012a4.333 4.333 0 11.002-8.666 4.333 4.333 0 01-.002 8.666zM19.991 7.9a1.56 1.56 0 100-3.119 1.56 1.56 0 000 3.119z" fill="currentColor"/></svg><svg fill="none" viewBox="0 0 26 26" id="icon-linkedin" xmlns="http://www.w3.org/2000/svg"><path fill-rule="evenodd" clip-rule="evenodd" d="M0 3.122a3.123 3.123 0 016.244 0c0 1.724-1.398 3.152-3.122 3.152C1.4 6.274 0 4.846 0 3.122zM25.993 26v-.001H26v-9.536c0-4.665-1.004-8.258-6.458-8.258-2.622 0-4.38 1.439-5.1 2.803h-.075V8.64h-5.17v17.358h5.384v-8.595c0-2.263.428-4.452 3.231-4.452 2.761 0 2.803 2.583 2.803 4.597v8.45h5.378zM.43 8.642h5.39V26H.43V8.642z" fill="currentColor"/><path fill-rule="evenodd" clip-rule="evenodd" d="M0 3.122a3.123 3.123 0 016.244 0c0 1.724-1.398 3.152-3.122 3.152C1.4 6.274 0 4.846 0 3.122zM25.993 26v-.001H26v-9.536c0-4.665-1.004-8.258-6.458-8.258-2.622 0-4.38 1.439-5.1 2.803h-.075V8.64h-5.17v17.358h5.384v-8.595c0-2.263.428-4.452 3.231-4.452 2.761 0 2.803 2.583 2.803 4.597v8.45h5.378zM.43 8.642h5.39V26H.43V8.642z" fill="currentColor"/></svg><svg fill="none" viewBox="0 0 30 30" id="icon-location" xmlns="http://www.w3.org/2000/svg"><path d="M15 0C9.486 0 5 4.486 5 10c0 1.655.414 3.296 1.2 4.752l8.253 14.926a.624.624 0 001.094 0l8.255-14.93A10.018 10.018 0 0025 10c0-5.514-4.486-10-10-10zm7.706 14.147L15 28.084 7.297 14.153A8.761 8.761 0 016.25 10c0-4.825 3.925-8.75 8.75-8.75s8.75 3.925 8.75 8.75a8.756 8.756 0 01-1.044 4.147z" fill="#000"/><path d="M15 0C9.486 0 5 4.486 5 10c0 1.655.414 3.296 1.2 4.752l8.253 14.926a.624.624 0 001.094 0l8.255-14.93A10.018 10.018 0 0025 10c0-5.514-4.486-10-10-10zm7.706 14.147L15 28.084 7.297 14.153A8.761 8.761 0 016.25 10c0-4.825 3.925-8.75 8.75-8.75s8.75 3.925 8.75 8.75a8.756 8.756 0 01-1.044 4.147z" fill="url(#anpaint0_linear_459_11210)"/><path d="M15 5c-2.757 0-5 2.243-5 5s2.243 5 5 5 5-2.243 5-5-2.243-5-5-5zm0 8.75A3.754 3.754 0 0111.25 10 3.754 3.754 0 0115 6.25 3.754 3.754 0 0118.75 10 3.754 3.754 0 0115 13.75z" fill="#000"/><path d="M15 5c-2.757 0-5 2.243-5 5s2.243 5 5 5 5-2.243 5-5-2.243-5-5-5zm0 8.75A3.754 3.754 0 0111.25 10 3.754 3.754 0 0115 6.25 3.754 3.754 0 0118.75 10 3.754 3.754 0 0115 13.75z" fill="url(#anpaint1_linear_459_11210)"/><defs><linearGradient id="anpaint0_linear_459_11210" x1="5" y1="0" x2="25.663" y2=".464" gradientUnits="userSpaceOnUse"><stop stop-color="#FA3901"/><stop offset="1" stop-color="#FF8902"/></linearGradient><linearGradient id="anpaint1_linear_459_11210" x1="10" y1="5" x2="20.325" y2="5.347" gradientUnits="userSpaceOnUse"><stop stop-color="#FA3901"/><stop offset="1" stop-color="#FF8902"/></linearGradient></defs></svg><svg fill="none" viewBox="0 0 30 30" id="icon-phone" xmlns="http://www.w3.org/2000/svg"><g clip-path="url(#aoclip0_459_11218)"><path d="M29.213 23.143l-6.072-4.05a1.772 1.772 0 00-2.373.386l-1.77 2.274a.756.756 0 01-.969.204l-.336-.185c-1.115-.608-2.503-1.365-5.3-4.162-2.795-2.797-3.554-4.186-4.162-5.3l-.184-.336a.757.757 0 01.2-.973l2.273-1.768c.727-.57.895-1.602.385-2.373L6.856.788A1.763 1.763 0 004.479.253L1.94 1.778a3.582 3.582 0 00-1.633 2.12C-.607 7.229.081 12.979 8.55 21.45c6.738 6.737 11.754 8.549 15.201 8.549.793.003 1.584-.1 2.35-.307a3.578 3.578 0 002.12-1.634l1.526-2.537a1.763 1.763 0 00-.534-2.378zm-.327 1.865l-1.523 2.539c-.337.576-.883 1-1.525 1.182-3.076.844-8.449.145-16.58-7.987C1.126 12.612.428 7.238 1.27 4.162a2.588 2.588 0 011.184-1.526l2.539-1.524a.765.765 0 011.031.232l2.2 3.303 1.846 2.769a.77.77 0 01-.167 1.03l-2.273 1.768a1.75 1.75 0 00-.463 2.246l.18.328c.64 1.171 1.433 2.63 4.333 5.529 2.9 2.9 4.358 3.694 5.53 4.333l.328.18a1.75 1.75 0 002.245-.463l1.768-2.273a.77.77 0 011.03-.167l6.072 4.05c.34.226.443.68.232 1.03z" fill="#000"/><path d="M29.213 23.143l-6.072-4.05a1.772 1.772 0 00-2.373.386l-1.77 2.274a.756.756 0 01-.969.204l-.336-.185c-1.115-.608-2.503-1.365-5.3-4.162-2.795-2.797-3.554-4.186-4.162-5.3l-.184-.336a.757.757 0 01.2-.973l2.273-1.768c.727-.57.895-1.602.385-2.373L6.856.788A1.763 1.763 0 004.479.253L1.94 1.778a3.582 3.582 0 00-1.633 2.12C-.607 7.229.081 12.979 8.55 21.45c6.738 6.737 11.754 8.549 15.201 8.549.793.003 1.584-.1 2.35-.307a3.578 3.578 0 002.12-1.634l1.526-2.537a1.763 1.763 0 00-.534-2.378zm-.327 1.865l-1.523 2.539c-.337.576-.883 1-1.525 1.182-3.076.844-8.449.145-16.58-7.987C1.126 12.612.428 7.238 1.27 4.162a2.588 2.588 0 011.184-1.526l2.539-1.524a.765.765 0 011.031.232l2.2 3.303 1.846 2.769a.77.77 0 01-.167 1.03l-2.273 1.768a1.75 1.75 0 00-.463 2.246l.18.328c.64 1.171 1.433 2.63 4.333 5.529 2.9 2.9 4.358 3.694 5.53 4.333l.328.18a1.75 1.75 0 002.245-.463l1.768-2.273a.77.77 0 011.03-.167l6.072 4.05c.34.226.443.68.232 1.03z" fill="url(#aopaint0_linear_459_11218)"/><path d="M17 5.003a8.508 8.508 0 018.499 8.499.5.5 0 101 0 9.51 9.51 0 00-9.5-9.499.5.5 0 100 1z" fill="#000"/><path d="M17 5.003a8.508 8.508 0 018.499 8.499.5.5 0 101 0 9.51 9.51 0 00-9.5-9.499.5.5 0 100 1z" fill="url(#aopaint1_linear_459_11218)"/><path d="M17 8.003a5.506 5.506 0 015.5 5.499.5.5 0 10.999 0 6.506 6.506 0 00-6.5-6.5.5.5 0 100 1z" fill="#000"/><path d="M17 8.003a5.506 5.506 0 015.5 5.499.5.5 0 10.999 0 6.506 6.506 0 00-6.5-6.5.5.5 0 100 1z" fill="url(#aopaint2_linear_459_11218)"/><path d="M17 11.002a2.503 2.503 0 012.5 2.5.5.5 0 101 0 3.504 3.504 0 00-3.5-3.5.5.5 0 100 1z" fill="#000"/><path d="M17 11.002a2.503 2.503 0 012.5 2.5.5.5 0 101 0 3.504 3.504 0 00-3.5-3.5.5.5 0 100 1z" fill="url(#aopaint3_linear_459_11218)"/></g><defs><linearGradient id="aopaint0_linear_459_11218" x1="0" y1=".001" x2="30.974" y2="1.043" gradientUnits="userSpaceOnUse"><stop stop-color="#FA3901"/><stop offset="1" stop-color="#FF8902"/></linearGradient><linearGradient id="aopaint1_linear_459_11218" x1="16.5" y1="4.003" x2="26.823" y2="4.351" gradientUnits="userSpaceOnUse"><stop stop-color="#FA3901"/><stop offset="1" stop-color="#FF8902"/></linearGradient><linearGradient id="aopaint2_linear_459_11218" x1="16.5" y1="7.003" x2="23.726" y2="7.246" gradientUnits="userSpaceOnUse"><stop stop-color="#FA3901"/><stop offset="1" stop-color="#FF8902"/></linearGradient><linearGradient id="aopaint3_linear_459_11218" x1="16.5" y1="10.002" x2="20.629" y2="10.141" gradientUnits="userSpaceOnUse"><stop stop-color="#FA3901"/><stop offset="1" stop-color="#FF8902"/></linearGradient><clipPath id="aoclip0_459_11218"><path fill="#fff" d="M0 0h30v30H0z"/></clipPath></defs></svg><svg fill="none" viewBox="0 0 16 16" id="icon-search" xmlns="http://www.w3.org/2000/svg"><path d="M15.805 14.862l-4.55-4.55a6.303 6.303 0 001.412-3.979A6.34 6.34 0 006.333 0 6.34 6.34 0 000 6.333a6.34 6.34 0 006.333 6.334c1.507 0 2.89-.53 3.98-1.412l4.55 4.55a.665.665 0 00.942 0 .666.666 0 000-.943zm-9.472-3.528c-2.757 0-5-2.243-5-5 0-2.758 2.243-5 5-5 2.758 0 5 2.242 5 5 0 2.757-2.242 5-5 5z" fill="#fff"/></svg><svg fill="none" viewBox="0 0 30 30" id="icon-solutions" xmlns="http://www.w3.org/2000/svg"><mask id="aqa" fill="transparent"><path fill-rule="evenodd" clip-rule="evenodd" d="M7.406 16.945h16.067c.485 0 .879.394.879.88V29.12a.879.879 0 01-1.758 0V18.703H6.527a.879.879 0 01-.879-.879V3.641h-.533a.879.879 0 01-.703-1.407L5.824.352a.879.879 0 011.406 0l1.388 1.85a.879.879 0 01-.678 1.439h-.534v13.304zm10.418 5.649H6.527a.879.879 0 000 1.758h10.418v3.89H1.757V6.527a.879.879 0 00-1.757 0v22.594c0 .486.394.879.879.879h16.945a.879.879 0 00.88-.879v-5.648a.879.879 0 00-.88-.88zM29.121 5.648H12.176a.879.879 0 00-.88.88v5.648c0 .485.394.879.88.879h11.297a.879.879 0 000-1.758H13.055v-3.89H28.243V29.12a.879.879 0 001.757 0V6.527a.879.879 0 00-.879-.879z"/></mask><path fill-rule="evenodd" clip-rule="evenodd" d="M7.406 16.945h16.067c.485 0 .879.394.879.88V29.12a.879.879 0 01-1.758 0V18.703H6.527a.879.879 0 01-.879-.879V3.641h-.533a.879.879 0 01-.703-1.407L5.824.352a.879.879 0 011.406 0l1.388 1.85a.879.879 0 01-.678 1.439h-.534v13.304zm10.418 5.649H6.527a.879.879 0 000 1.758h10.418v3.89H1.757V6.527a.879.879 0 00-1.757 0v22.594c0 .486.394.879.879.879h16.945a.879.879 0 00.88-.879v-5.648a.879.879 0 00-.88-.88zM29.121 5.648H12.176a.879.879 0 00-.88.88v5.648c0 .485.394.879.88.879h11.297a.879.879 0 000-1.758H13.055v-3.89H28.243V29.12a.879.879 0 001.757 0V6.527a.879.879 0 00-.879-.879z" fill="currentColor"/><path d="M7.406 16.945h-.5v.5h.5v-.5zm16.946.88h-.5.5zm-1.758.878h.5v-.5h-.5v.5zM5.648 3.641h.5v-.5h-.5v.5zM4.33 3.155l.447-.224-.447.224zm.083-.92l.4.3-.4-.3zM5.824.351l-.4-.3.4.3zm1.406 0l.4-.3-.4.3zm1.388 1.85l-.4.3.007.01.008.009.385-.319zM7.406 3.641v-.5h-.5v.5h.5zm9.54 20.71h.5v-.5h-.5v.5zm0 3.891v.5h.5v-.5h-.5zm-15.188 0h-.5v.5h.5v-.5zm11.297-16.945h-.5v.5h.5v-.5zm0-3.89v-.5h-.5v.5h.5zm15.187 0h.5v-.5h-.5v.5zm-4.77 9.038H7.407v1h16.067v-1zm1.38 1.38c0-.762-.618-1.38-1.38-1.38v1c.21 0 .38.17.38.38h1zm0 11.296V17.824h-1v11.297h1zm-1.38 1.379c.762 0 1.38-.617 1.38-1.379h-1c0 .21-.17.379-.38.379v1zm-1.378-1.379c0 .762.617 1.379 1.379 1.379v-1a.379.379 0 01-.38-.379h-1zm0-10.418v10.418h1V18.703h-1zm-15.567.5h16.067v-1H6.527v1zm-1.379-1.379c0 .762.618 1.38 1.38 1.38v-1a.379.379 0 01-.38-.38h-1zm0-14.183v14.183h1V3.641h-1zm-.033.5h.533v-1h-.533v1zm-1.233-.763c.233.468.71.763 1.233.763v-1a.379.379 0 01-.339-.21l-.894.447zm.13-1.444a1.379 1.379 0 00-.13 1.444l.894-.447a.379.379 0 01.036-.397l-.8-.6zM5.424.052L4.012 1.934l.8.6L6.224.652l-.8-.6zM6.527-.5c-.434 0-.842.204-1.103.552l.8.6A.379.379 0 016.527.5v-1zM7.63.052A1.379 1.379 0 006.527-.5v1c.12 0 .232.056.303.152l.8-.6zm1.388 1.85L7.63.052l-.8.6 1.388 1.85.8-.6zm.302.86c0-.333-.12-.64-.316-.878l-.771.637a.375.375 0 01.087.24h1zM7.94 4.14c.762 0 1.38-.618 1.38-1.38h-1c0 .21-.17.38-.38.38v1zm0 0v-1 1zm-.534 0h.533v-1h-.533v1zm.5 12.804V3.641h-1v13.304h1zm-1.379 6.149h11.297v-1H6.527v1zm-.379.379c0-.21.17-.38.38-.38v-1c-.762 0-1.38.618-1.38 1.38h1zm.38.379a.379.379 0 01-.38-.38h-1c0 .762.618 1.38 1.38 1.38v-1zm10.417 0H6.527v1h10.418v-1zm.5 4.39v-3.89h-1v3.89h1zm-10.918.5h10.418v-1H6.527v1zm-4.77 0h4.77v-1h-4.77v1zm-.5-22.215v21.715h1V6.527h-1zM.88 6.148c.21 0 .379.17.379.38h1c0-.762-.618-1.38-1.38-1.38v1zm-.379.38c0-.21.17-.38.379-.38v-1c-.762 0-1.379.618-1.379 1.38h1zm0 22.593V6.527h-1v22.594h1zm.379.379a.379.379 0 01-.379-.379h-1c0 .762.617 1.379 1.379 1.379v-1zm5.648 0H.88v1h5.648v-1zm11.297 0H6.527v1h11.297v-1zm.38-.379c0 .21-.17.379-.38.379v1c.762 0 1.38-.617 1.38-1.379h-1zm0-5.648v5.648h1v-5.648h-1zm-.38-.38c.21 0 .38.17.38.38h1c0-.762-.618-1.38-1.38-1.38v1zm5.649-16.945h5.648v-1h-5.648v1zm-11.297 0h11.297v-1H12.176v1zm-.38.38c0-.21.17-.38.38-.38v-1c-.762 0-1.38.618-1.38 1.38h1zm0 5.648V6.527h-1v5.649h1zm.38.379a.379.379 0 01-.38-.38h-1c0 .762.618 1.38 1.38 1.38v-1zm11.297 0H12.176v1h11.297v-1zm.379-.38c0 .21-.17.38-.38.38v1c.762 0 1.38-.618 1.38-1.38h-1zm-.38-.378c.21 0 .38.17.38.379h1c0-.762-.618-1.38-1.38-1.38v1zm-10.417 0h10.418v-1H13.055v1zm-.5-4.39v3.89h1v-3.89h-1zm10.918-.5H13.055v1h10.418v-1zm4.77 0h-4.77v1h4.77v-1zm.5 22.214V7.406h-1v21.715h1zm.378.379a.379.379 0 01-.379-.379h-1c0 .762.618 1.379 1.38 1.379v-1zm.379-.379c0 .21-.17.379-.379.379v1c.762 0 1.379-.617 1.379-1.379h-1zm0-22.594v22.594h1V6.527h-1zm-.379-.379c.21 0 .379.17.379.38h1c0-.762-.617-1.38-1.379-1.38v1z" fill="transparent" mask="url(#aqa)"/></svg><svg fill="none" viewBox="0 0 33 33" id="icon-sp-mobile" xmlns="http://www.w3.org/2000/svg"><circle opacity=".08" cx="16.5" cy="16.5" r="16.5" fill="#fff"/><circle opacity=".45" cx="16.5" cy="16.5" r="9.5" fill="#fff"/><circle opacity=".45" cx="16.5" cy="16.5" r="6.5" fill="#fff"/><rect x="4.5" y="4.5" width="10" height="10" rx="2.5" stroke="#fff"/><rect x="18.5" y="4.5" width="10" height="10" rx="2.5" stroke="#fff"/><rect x="18.5" y="18.5" width="10" height="10" rx="2.5" stroke="#fff"/><rect x="4.5" y="18.5" width="10" height="10" rx="2.5" stroke="#fff"/></svg><svg fill="none" viewBox="0 0 19 15" id="icon-twitter" xmlns="http://www.w3.org/2000/svg"><path d="M18.667 1.725a7.328 7.328 0 01-2.11.58A3.697 3.697 0 0018.171.27a7.401 7.401 0 01-2.336.894A3.661 3.661 0 0013.154 0a3.68 3.68 0 00-3.58 4.521A10.428 10.428 0 011.997.673a3.66 3.66 0 00-.497 1.851c0 1.278.65 2.406 1.635 3.065a3.67 3.67 0 01-1.665-.462v.046a3.685 3.685 0 002.948 3.611 3.716 3.716 0 01-.969.13c-.237 0-.466-.024-.691-.07a3.678 3.678 0 003.432 2.559 7.365 7.365 0 01-4.564 1.574c-.297 0-.59-.018-.877-.05a10.374 10.374 0 005.634 1.656c6.76 0 10.457-5.611 10.457-10.478l-.013-.477a7.348 7.348 0 001.839-1.903z" fill="currentColor"/><path d="M18.667 1.725a7.328 7.328 0 01-2.11.58A3.697 3.697 0 0018.171.27a7.401 7.401 0 01-2.336.894A3.661 3.661 0 0013.154 0a3.68 3.68 0 00-3.58 4.521A10.428 10.428 0 011.997.673a3.66 3.66 0 00-.497 1.851c0 1.278.65 2.406 1.635 3.065a3.67 3.67 0 01-1.665-.462v.046a3.685 3.685 0 002.948 3.611 3.716 3.716 0 01-.969.13c-.237 0-.466-.024-.691-.07a3.678 3.678 0 003.432 2.559 7.365 7.365 0 01-4.564 1.574c-.297 0-.59-.018-.877-.05a10.374 10.374 0 005.634 1.656c6.76 0 10.457-5.611 10.457-10.478l-.013-.477a7.348 7.348 0 001.839-1.903z" fill="currentColor"/><path d="M18.667 1.725a7.328 7.328 0 01-2.11.58A3.697 3.697 0 0018.171.27a7.401 7.401 0 01-2.336.894A3.661 3.661 0 0013.154 0a3.68 3.68 0 00-3.58 4.521A10.428 10.428 0 011.997.673a3.66 3.66 0 00-.497 1.851c0 1.278.65 2.406 1.635 3.065a3.67 3.67 0 01-1.665-.462v.046a3.685 3.685 0 002.948 3.611 3.716 3.716 0 01-.969.13c-.237 0-.466-.024-.691-.07a3.678 3.678 0 003.432 2.559 7.365 7.365 0 01-4.564 1.574c-.297 0-.59-.018-.877-.05a10.374 10.374 0 005.634 1.656c6.76 0 10.457-5.611 10.457-10.478l-.013-.477a7.348 7.348 0 001.839-1.903z" fill="currentColor"/></svg><svg fill="none" viewBox="0 0 30 30" id="icon-user" xmlns="http://www.w3.org/2000/svg"><g clip-path="url(#atclip0_459_11228)"><path d="M1.915 29c0-7.058 5.742-12.8 12.8-12.8 7.057 0 12.8 5.742 12.8 12.8a.8.8 0 01-1.6 0c0-6.177-5.024-11.2-11.2-11.2-6.177 0-11.2 5.023-11.2 11.2a.8.8 0 01-1.6 0z" fill="#000"/><path d="M1.915 29c0-7.058 5.742-12.8 12.8-12.8 7.057 0 12.8 5.742 12.8 12.8a.8.8 0 01-1.6 0c0-6.177-5.024-11.2-11.2-11.2-6.177 0-11.2 5.023-11.2 11.2a.8.8 0 01-1.6 0z" fill="url(#atpaint0_linear_459_11228)"/><path d="M1.915 29c0-7.058 5.742-12.8 12.8-12.8 7.057 0 12.8 5.742 12.8 12.8a.8.8 0 01-1.6 0c0-6.177-5.024-11.2-11.2-11.2-6.177 0-11.2 5.023-11.2 11.2a.8.8 0 01-1.6 0z" stroke="#FEFEFE" stroke-width=".4"/><path d="M7.915 7c0-3.75 3.05-6.8 6.8-6.8s6.8 3.05 6.8 6.8-3.05 6.8-6.8 6.8-6.8-3.05-6.8-6.8zm1.6 0c0 2.866 2.333 5.2 5.2 5.2 2.866 0 5.2-2.334 5.2-5.2s-2.334-5.2-5.2-5.2a5.207 5.207 0 00-5.2 5.2z" fill="#000"/><path d="M7.915 7c0-3.75 3.05-6.8 6.8-6.8s6.8 3.05 6.8 6.8-3.05 6.8-6.8 6.8-6.8-3.05-6.8-6.8zm1.6 0c0 2.866 2.333 5.2 5.2 5.2 2.866 0 5.2-2.334 5.2-5.2s-2.334-5.2-5.2-5.2a5.207 5.207 0 00-5.2 5.2z" fill="url(#atpaint1_linear_459_11228)"/><path d="M7.915 7c0-3.75 3.05-6.8 6.8-6.8s6.8 3.05 6.8 6.8-3.05 6.8-6.8 6.8-6.8-3.05-6.8-6.8zm1.6 0c0 2.866 2.333 5.2 5.2 5.2 2.866 0 5.2-2.334 5.2-5.2s-2.334-5.2-5.2-5.2a5.207 5.207 0 00-5.2 5.2z" stroke="#FEFEFE" stroke-width=".4"/></g><defs><linearGradient id="atpaint0_linear_459_11228" x1="1.715" y1="16" x2="28.485" y2="17.673" gradientUnits="userSpaceOnUse"><stop stop-color="#FA3901"/><stop offset="1" stop-color="#FF8902"/></linearGradient><linearGradient id="atpaint1_linear_459_11228" x1="7.715" y1="0" x2="22.17" y2=".486" gradientUnits="userSpaceOnUse"><stop stop-color="#FA3901"/><stop offset="1" stop-color="#FF8902"/></linearGradient><clipPath id="atclip0_459_11228"><path fill="#fff" d="M0 0h30v30H0z"/></clipPath></defs></svg><svg fill="none" viewBox="0 0 25 16" id="icon-vk" xmlns="http://www.w3.org/2000/svg"><path d="M24.954 13.724c-.03-.066-.06-.12-.086-.164-.438-.79-1.276-1.76-2.513-2.91l-.027-.026-.013-.012-.013-.014h-.013c-.562-.535-.917-.895-1.066-1.08-.273-.35-.334-.705-.185-1.065.105-.272.5-.847 1.185-1.724.36-.466.645-.838.855-1.12 1.518-2.017 2.177-3.307 1.975-3.869l-.079-.131c-.052-.079-.189-.151-.408-.217-.22-.066-.5-.077-.842-.033l-3.79.026a.492.492 0 00-.264.007l-.171.04-.066.032-.053.04a.586.586 0 00-.145.138.903.903 0 00-.13.23 21.493 21.493 0 01-1.41 2.962 28.057 28.057 0 01-.895 1.415c-.271.399-.5.693-.684.881a4.77 4.77 0 01-.5.454c-.15.115-.263.163-.342.145a9.621 9.621 0 01-.224-.052.875.875 0 01-.296-.323 1.445 1.445 0 01-.151-.513 5.646 5.646 0 01-.046-.533 11.14 11.14 0 01.006-.632c.01-.272.013-.456.013-.553 0-.333.007-.695.02-1.086l.033-.928c.009-.228.013-.47.013-.724s-.015-.454-.046-.598a2.05 2.05 0 00-.138-.422.709.709 0 00-.27-.316 1.52 1.52 0 00-.44-.177C13.281.766 12.69.709 11.97.7c-1.632-.018-2.68.087-3.145.316a1.773 1.773 0 00-.5.394c-.158.193-.18.299-.066.316.526.079.899.268 1.118.566l.08.158c.06.114.122.316.184.606.061.29.1.61.118.96.044.64.044 1.19 0 1.645-.044.457-.085.812-.125 1.067-.04.254-.099.46-.178.618a2.61 2.61 0 01-.158.29.227.227 0 01-.065.066.986.986 0 01-.356.065c-.123 0-.272-.061-.447-.184a3.158 3.158 0 01-.546-.507 6.774 6.774 0 01-.639-.901 15.734 15.734 0 01-.737-1.37l-.21-.38a32.845 32.845 0 01-.54-1.073c-.228-.47-.43-.924-.606-1.363a.868.868 0 00-.315-.421l-.066-.04a.9.9 0 00-.21-.111 1.397 1.397 0 00-.303-.086L.65 1.358c-.368 0-.618.084-.75.25l-.053.08a.426.426 0 00-.04.21c0 .097.027.215.08.355a43.436 43.436 0 001.717 3.58c.619 1.15 1.156 2.076 1.612 2.777.457.702.922 1.365 1.396 1.988.473.623.787 1.022.94 1.198.154.175.275.307.363.394l.329.316c.21.21.52.463.928.757.408.294.86.584 1.355.869a7.35 7.35 0 001.731.697 5.98 5.98 0 001.922.218h1.514c.306-.027.54-.123.697-.29l.053-.066a.874.874 0 00.098-.243c.031-.11.046-.23.046-.362a4.34 4.34 0 01.086-1.02c.065-.303.14-.53.224-.684a1.681 1.681 0 01.507-.58.857.857 0 01.105-.045c.21-.07.458-.003.744.204.285.206.552.46.802.763s.551.643.902 1.02.658.658.921.842l.263.159c.176.105.404.201.685.29.28.087.526.109.737.065l3.37-.053c.333 0 .592-.055.776-.164.184-.11.294-.23.329-.362.035-.132.037-.281.007-.448a1.643 1.643 0 00-.093-.349z" fill="currentColor"/><path d="M24.954 13.724c-.03-.066-.06-.12-.086-.164-.438-.79-1.276-1.76-2.513-2.91l-.027-.026-.013-.012-.013-.014h-.013c-.562-.535-.917-.895-1.066-1.08-.273-.35-.334-.705-.185-1.065.105-.272.5-.847 1.185-1.724.36-.466.645-.838.855-1.12 1.518-2.017 2.177-3.307 1.975-3.869l-.079-.131c-.052-.079-.189-.151-.408-.217-.22-.066-.5-.077-.842-.033l-3.79.026a.492.492 0 00-.264.007l-.171.04-.066.032-.053.04a.586.586 0 00-.145.138.903.903 0 00-.13.23 21.493 21.493 0 01-1.41 2.962 28.057 28.057 0 01-.895 1.415c-.271.399-.5.693-.684.881a4.77 4.77 0 01-.5.454c-.15.115-.263.163-.342.145a9.621 9.621 0 01-.224-.052.875.875 0 01-.296-.323 1.445 1.445 0 01-.151-.513 5.646 5.646 0 01-.046-.533 11.14 11.14 0 01.006-.632c.01-.272.013-.456.013-.553 0-.333.007-.695.02-1.086l.033-.928c.009-.228.013-.47.013-.724s-.015-.454-.046-.598a2.05 2.05 0 00-.138-.422.709.709 0 00-.27-.316 1.52 1.52 0 00-.44-.177C13.281.766 12.69.709 11.97.7c-1.632-.018-2.68.087-3.145.316a1.773 1.773 0 00-.5.394c-.158.193-.18.299-.066.316.526.079.899.268 1.118.566l.08.158c.06.114.122.316.184.606.061.29.1.61.118.96.044.64.044 1.19 0 1.645-.044.457-.085.812-.125 1.067-.04.254-.099.46-.178.618a2.61 2.61 0 01-.158.29.227.227 0 01-.065.066.986.986 0 01-.356.065c-.123 0-.272-.061-.447-.184a3.158 3.158 0 01-.546-.507 6.774 6.774 0 01-.639-.901 15.734 15.734 0 01-.737-1.37l-.21-.38a32.845 32.845 0 01-.54-1.073c-.228-.47-.43-.924-.606-1.363a.868.868 0 00-.315-.421l-.066-.04a.9.9 0 00-.21-.111 1.397 1.397 0 00-.303-.086L.65 1.358c-.368 0-.618.084-.75.25l-.053.08a.426.426 0 00-.04.21c0 .097.027.215.08.355a43.436 43.436 0 001.717 3.58c.619 1.15 1.156 2.076 1.612 2.777.457.702.922 1.365 1.396 1.988.473.623.787 1.022.94 1.198.154.175.275.307.363.394l.329.316c.21.21.52.463.928.757.408.294.86.584 1.355.869a7.35 7.35 0 001.731.697 5.98 5.98 0 001.922.218h1.514c.306-.027.54-.123.697-.29l.053-.066a.874.874 0 00.098-.243c.031-.11.046-.23.046-.362a4.34 4.34 0 01.086-1.02c.065-.303.14-.53.224-.684a1.681 1.681 0 01.507-.58.857.857 0 01.105-.045c.21-.07.458-.003.744.204.285.206.552.46.802.763s.551.643.902 1.02.658.658.921.842l.263.159c.176.105.404.201.685.29.28.087.526.109.737.065l3.37-.053c.333 0 .592-.055.776-.164.184-.11.294-.23.329-.362.035-.132.037-.281.007-.448a1.643 1.643 0 00-.093-.349z" fill="currentColor"/><path d="M24.954 13.724c-.03-.066-.06-.12-.086-.164-.438-.79-1.276-1.76-2.513-2.91l-.027-.026-.013-.012-.013-.014h-.013c-.562-.535-.917-.895-1.066-1.08-.273-.35-.334-.705-.185-1.065.105-.272.5-.847 1.185-1.724.36-.466.645-.838.855-1.12 1.518-2.017 2.177-3.307 1.975-3.869l-.079-.131c-.052-.079-.189-.151-.408-.217-.22-.066-.5-.077-.842-.033l-3.79.026a.492.492 0 00-.264.007l-.171.04-.066.032-.053.04a.586.586 0 00-.145.138.903.903 0 00-.13.23 21.493 21.493 0 01-1.41 2.962 28.057 28.057 0 01-.895 1.415c-.271.399-.5.693-.684.881a4.77 4.77 0 01-.5.454c-.15.115-.263.163-.342.145a9.621 9.621 0 01-.224-.052.875.875 0 01-.296-.323 1.445 1.445 0 01-.151-.513 5.646 5.646 0 01-.046-.533 11.14 11.14 0 01.006-.632c.01-.272.013-.456.013-.553 0-.333.007-.695.02-1.086l.033-.928c.009-.228.013-.47.013-.724s-.015-.454-.046-.598a2.05 2.05 0 00-.138-.422.709.709 0 00-.27-.316 1.52 1.52 0 00-.44-.177C13.281.766 12.69.709 11.97.7c-1.632-.018-2.68.087-3.145.316a1.773 1.773 0 00-.5.394c-.158.193-.18.299-.066.316.526.079.899.268 1.118.566l.08.158c.06.114.122.316.184.606.061.29.1.61.118.96.044.64.044 1.19 0 1.645-.044.457-.085.812-.125 1.067-.04.254-.099.46-.178.618a2.61 2.61 0 01-.158.29.227.227 0 01-.065.066.986.986 0 01-.356.065c-.123 0-.272-.061-.447-.184a3.158 3.158 0 01-.546-.507 6.774 6.774 0 01-.639-.901 15.734 15.734 0 01-.737-1.37l-.21-.38a32.845 32.845 0 01-.54-1.073c-.228-.47-.43-.924-.606-1.363a.868.868 0 00-.315-.421l-.066-.04a.9.9 0 00-.21-.111 1.397 1.397 0 00-.303-.086L.65 1.358c-.368 0-.618.084-.75.25l-.053.08a.426.426 0 00-.04.21c0 .097.027.215.08.355a43.436 43.436 0 001.717 3.58c.619 1.15 1.156 2.076 1.612 2.777.457.702.922 1.365 1.396 1.988.473.623.787 1.022.94 1.198.154.175.275.307.363.394l.329.316c.21.21.52.463.928.757.408.294.86.584 1.355.869a7.35 7.35 0 001.731.697 5.98 5.98 0 001.922.218h1.514c.306-.027.54-.123.697-.29l.053-.066a.874.874 0 00.098-.243c.031-.11.046-.23.046-.362a4.34 4.34 0 01.086-1.02c.065-.303.14-.53.224-.684a1.681 1.681 0 01.507-.58.857.857 0 01.105-.045c.21-.07.458-.003.744.204.285.206.552.46.802.763s.551.643.902 1.02.658.658.921.842l.263.159c.176.105.404.201.685.29.28.087.526.109.737.065l3.37-.053c.333 0 .592-.055.776-.164.184-.11.294-.23.329-.362.035-.132.037-.281.007-.448a1.643 1.643 0 00-.093-.349z" fill="currentColor"/></svg><svg fill="none" viewBox="0 0 15 16" id="icon-xing" xmlns="http://www.w3.org/2000/svg"><path fill-rule="evenodd" clip-rule="evenodd" d="M5.833 9.703l5.23-9.12h3.52l-5.23 9.12 3.37 5.88h-3.52l-3.37-5.88zM.644 3.5h3.552L6.25 6.68l-2.699 3.903H0L2.699 6.68.644 3.5z" fill="currentColor"/><path fill-rule="evenodd" clip-rule="evenodd" d="M5.833 9.703l5.23-9.12h3.52l-5.23 9.12 3.37 5.88h-3.52l-3.37-5.88zM.644 3.5h3.552L6.25 6.68l-2.699 3.903H0L2.699 6.68.644 3.5z" fill="currentColor"/><path fill-rule="evenodd" clip-rule="evenodd" d="M5.833 9.703l5.23-9.12h3.52l-5.23 9.12 3.37 5.88h-3.52l-3.37-5.88zM.644 3.5h3.552L6.25 6.68l-2.699 3.903H0L2.699 6.68.644 3.5z" fill="currentColor"/></svg><svg fill="none" viewBox="0 0 29 20" id="icon-youtube" xmlns="http://www.w3.org/2000/svg"><path d="M28.402 3.13A3.606 3.606 0 0025.848.612C23.577 0 14.5 0 14.5 0S5.422 0 3.153.588A3.679 3.679 0 00.597 3.13C0 5.365 0 10 0 10s0 4.659.597 6.87a3.607 3.607 0 002.556 2.518C5.446 20 14.5 20 14.5 20s9.077 0 11.347-.588a3.606 3.606 0 002.556-2.518c.597-2.235.597-6.87.597-6.87s.024-4.66-.598-6.894zM11.61 14.282V5.718L19.158 10l-7.548 4.282z" fill="currentColor"/><path d="M28.402 3.13A3.606 3.606 0 0025.848.612C23.577 0 14.5 0 14.5 0S5.422 0 3.153.588A3.679 3.679 0 00.597 3.13C0 5.365 0 10 0 10s0 4.659.597 6.87a3.607 3.607 0 002.556 2.518C5.446 20 14.5 20 14.5 20s9.077 0 11.347-.588a3.606 3.606 0 002.556-2.518c.597-2.235.597-6.87.597-6.87s.024-4.66-.598-6.894zM11.61 14.282V5.718L19.158 10l-7.548 4.282z" fill="currentColor"/><path d="M28.402 3.13A3.606 3.606 0 0025.848.612C23.577 0 14.5 0 14.5 0S5.422 0 3.153.588A3.679 3.679 0 00.597 3.13C0 5.365 0 10 0 10s0 4.659.597 6.87a3.607 3.607 0 002.556 2.518C5.446 20 14.5 20 14.5 20s9.077 0 11.347-.588a3.606 3.606 0 002.556-2.518c.597-2.235.597-6.87.597-6.87s.024-4.66-.598-6.894zM11.61 14.282V5.718L19.158 10l-7.548 4.282z" fill="currentColor"/></svg><svg fill="none" viewBox="0 0 67 67" id="solutions-01" xmlns="http://www.w3.org/2000/svg"><g clip-path="url(#axclip0_459_6383)"><path d="M62.778 13.825H37.254c-.587 0-1.064.477-1.064 1.064v46.793c0 .587.477 1.064 1.064 1.064h25.524c.587 0 1.063-.477 1.063-1.064V14.89c0-.587-.476-1.064-1.063-1.064zM61.714 60.62H38.317V15.952h23.397V60.62z" fill="#fff"/><path d="M42.572 22.334h-2.127v39.349h2.127v-39.35zM46.825 22.334h-2.127v39.349h2.127v-39.35zM51.08 22.334h-2.128v39.349h2.127v-39.35zM55.334 22.334h-2.127v39.349h2.127v-39.35zM59.588 22.334h-2.127v39.349h2.127v-39.35zM42.572 18.08h-2.127v2.126h2.127V18.08zM46.825 18.08h-2.127v2.126h2.127V18.08zM51.08 18.08h-2.128v2.126h2.127V18.08zM55.334 18.08h-2.127v2.126h2.127V18.08zM59.588 18.08h-2.127v2.126h2.127V18.08z" fill="#fff"/><path d="M65.968 60.62H34.063c-.587 0-1.063.476-1.063 1.063v4.253c0 .587.476 1.064 1.063 1.064h31.905c.587 0 1.064-.477 1.064-1.064v-4.254c0-.587-.477-1.063-1.064-1.063zm-1.063 4.253H35.127v-2.127h29.777v2.127zM58.525 6.38H41.509c-.587 0-1.064.477-1.064 1.064v7.445c0 .587.477 1.063 1.064 1.063h17.016c.587 0 1.063-.476 1.063-1.063V7.444c0-.587-.476-1.063-1.063-1.063zm-1.064 7.445H42.572V8.508h14.89v5.317z" fill="#fff"/><path d="M51.08 0h-2.128v7.444h2.127V0zM45.763 4.254h-2.127v3.19h2.127v-3.19zM56.398 4.254H54.27v3.19h2.128v-3.19z" fill="#fff"/><path d="M28 25.5a3.005 3.005 0 00-2.958 2.5H8.5v-2.25A1.752 1.752 0 006.75 24h-.5a1.752 1.752 0 00-1.75 1.75V28h-4a.5.5 0 00-.5.5V51a.5.5 0 00.5.5H28a3.003 3.003 0 003-3v-20a3.003 3.003 0 00-3-3zm-22.5.25a.75.75 0 01.75-.75h.5a.75.75 0 01.75.75V27h-2v-1.25zm0 2.25H6v7.5a.5.5 0 001 0V28h.5v10.5h-2V28zm0 11.5h2v.41l-.034.09H5.534l-.034-.09v-.41zM7.091 41L6.5 42.576 5.909 41H7.09zm-2.56-.824l1.5 4a.5.5 0 00.937 0l1.5-4A.496.496 0 008.5 40v-9h2v3a.5.5 0 00.5.5h5V39h-4.5a.5.5 0 00-.5.5V48H3V31h1.5v9c0 .06.01.12.032.176zM17 39v-5a.5.5 0 00-.5-.5h-5V31H20v8h-3zm3 1v8h-8v-8h8zm8 10.5H1V29h3.5v1h-2a.5.5 0 00-.5.5v18a.5.5 0 00.5.5h18a.5.5 0 00.5-.5v-18a.5.5 0 00-.5-.5h-12v-1H25v19.5a.5.5 0 001 0 2 2 0 112 2zm2-4.234a2.994 2.994 0 00-4 0V28.5a2 2 0 014 0v17.766z" fill="#000"/><path d="M28 25.5a3.005 3.005 0 00-2.958 2.5H8.5v-2.25A1.752 1.752 0 006.75 24h-.5a1.752 1.752 0 00-1.75 1.75V28h-4a.5.5 0 00-.5.5V51a.5.5 0 00.5.5H28a3.003 3.003 0 003-3v-20a3.003 3.003 0 00-3-3zm-22.5.25a.75.75 0 01.75-.75h.5a.75.75 0 01.75.75V27h-2v-1.25zm0 2.25H6v7.5a.5.5 0 001 0V28h.5v10.5h-2V28zm0 11.5h2v.41l-.034.09H5.534l-.034-.09v-.41zM7.091 41L6.5 42.576 5.909 41H7.09zm-2.56-.824l1.5 4a.5.5 0 00.937 0l1.5-4A.496.496 0 008.5 40v-9h2v3a.5.5 0 00.5.5h5V39h-4.5a.5.5 0 00-.5.5V48H3V31h1.5v9c0 .06.01.12.032.176zM17 39v-5a.5.5 0 00-.5-.5h-5V31H20v8h-3zm3 1v8h-8v-8h8zm8 10.5H1V29h3.5v1h-2a.5.5 0 00-.5.5v18a.5.5 0 00.5.5h18a.5.5 0 00.5-.5v-18a.5.5 0 00-.5-.5h-12v-1H25v19.5a.5.5 0 001 0 2 2 0 112 2zm2-4.234a2.994 2.994 0 00-4 0V28.5a2 2 0 014 0v17.766z" fill="#fff"/><path d="M6 37.5a.5.5 0 001 0V37a.5.5 0 00-1 0v.5z" fill="#000"/><path d="M6 37.5a.5.5 0 001 0V37a.5.5 0 00-1 0v.5z" fill="#fff"/></g><defs><clipPath id="axclip0_459_6383"><path fill="#fff" d="M0 0h67v67H0z"/></clipPath></defs></svg><svg fill="none" viewBox="0 0 67 52" id="solutions-03" xmlns="http://www.w3.org/2000/svg"><path d="M71.275 21.292h-.017a16.893 16.893 0 01-10.904-3.726 16.82 16.82 0 01-5.983-9.798v-3.18a.709.709 0 00-.21-.504.72.72 0 00-.508-.209h-.956V.712a.709.709 0 00-.21-.504.72.72 0 00-1.226.504v3.163h-.957a.72.72 0 00-.507.209.709.709 0 00-.21.503v3.18c-1.531 7.675-8.319 13.36-16.164 13.525a17.044 17.044 0 01-10.911-3.73 16.796 16.796 0 01-5.977-9.794v-3.18a.71.71 0 00-.21-.504.72.72 0 00-.507-.209h-.952V.712a.709.709 0 00-.21-.504.72.72 0 00-1.226.504v3.163h-.96a.72.72 0 00-.507.209.709.709 0 00-.21.503V7.82a16.654 16.654 0 01-6.041 9.77 17.171 17.171 0 01-10.97 3.703h-.017a.72.72 0 00-.51.203.71.71 0 00.495 1.22 18.227 18.227 0 001.742-.05v2.409h-1.01v2.517h17.746v18.862h-1.051a.937.937 0 00-.66.27.921.921 0 00-.273.654v2.38H-4.557V52h75.114v-2.243H54.78v-2.38a.921.921 0 00-.274-.654.937.937 0 00-.659-.27h-.91V27.59h17.62v-2.517h-1.06V22.66a18.044 18.044 0 001.793.054.72.72 0 00.505-.214.71.71 0 00-.52-1.21zM1.95 25.074h-4.064V22.5a18.607 18.607 0 004.064-1.109v3.682zm5.005 0h-3.57v-4.327a18.71 18.71 0 003.22-2.044c.12-.095.234-.193.351-.29l-.001 6.66zm4.797 0H8.391v-7.981a18.173 18.173 0 003.362-4.806v12.787zm33.761-7.277a18.343 18.343 0 004.074-5.529v12.806h-4.074v-7.277zm-7.868 4.33A18.39 18.39 0 0044.08 19v6.073h-6.432v-2.947zm-7.868.285a18.106 18.106 0 003.677.303c.925-.02 1.846-.113 2.757-.275v2.634h-6.434v-2.662zm-7.868-3.514a18.439 18.439 0 006.433 3.189v2.987H21.91v-6.176zm-5.373-6.636a18.32 18.32 0 003.938 5.413v7.399h-3.938V12.262zm-3.35-4.374V5.299h1.915v19.775h-1.914V7.888zm37.837 38.565h-.885a.937.937 0 00-.659.27.922.922 0 00-.274.654v2.38H16.778v-2.38c0-.245-.1-.48-.274-.654a.937.937 0 00-.66-.27h-.742V27.591h35.921v18.862zm1.913-38.617v17.238h-1.913V5.299h1.913v2.537zm1.436 17.238V12.262a18.303 18.303 0 003.164 4.635l.02 8.178h-3.184zm8.19 0H58.99l-.016-6.8c.158.135.315.27.478.4a18.471 18.471 0 003.109 2.013v4.387zm5.5 0h-4.066V21.35a18.32 18.32 0 004.064 1.141l.001 2.584z" fill="#212121"/></svg><svg fill="none" viewBox="0 0 67 60" id="solutions-04" xmlns="http://www.w3.org/2000/svg"><path d="M44.34 48.886a.981.981 0 000 1.963c5.626 0 5.786-2.617 10.84-2.617 3.787 0 4.641 1.368 7.288 2.152a.981.981 0 10.558-1.882c-2.315-.686-3.592-2.233-7.847-2.233-5.626 0-5.786 2.617-10.84 2.617z" fill="#000"/><path d="M44.34 48.886a.981.981 0 000 1.963c5.626 0 5.786-2.617 10.84-2.617 3.787 0 4.641 1.368 7.288 2.152a.981.981 0 10.558-1.882c-2.315-.686-3.592-2.233-7.847-2.233-5.626 0-5.786 2.617-10.84 2.617z" fill="#fff"/><path d="M44.34 48.886a.981.981 0 000 1.963c5.626 0 5.786-2.617 10.84-2.617 3.787 0 4.641 1.368 7.288 2.152a.981.981 0 10.558-1.882c-2.315-.686-3.592-2.233-7.847-2.233-5.626 0-5.786 2.617-10.84 2.617z" stroke="#FD6E02"/><path d="M31.66 47c-5.626 0-5.785 2.617-10.839 2.617-5.075 0-5.186-2.617-10.84-2.617a.981.981 0 100 1.963c5.076 0 5.187 2.617 10.84 2.617 5.627 0 5.786-2.617 10.84-2.617a.981.981 0 100-1.963z" fill="#000"/><path d="M31.66 47c-5.626 0-5.785 2.617-10.839 2.617-5.075 0-5.186-2.617-10.84-2.617a.981.981 0 100 1.963c5.076 0 5.187 2.617 10.84 2.617 5.627 0 5.786-2.617 10.84-2.617a.981.981 0 100-1.963z" fill="#fff"/><path d="M31.66 47c-5.626 0-5.785 2.617-10.839 2.617-5.075 0-5.186-2.617-10.84-2.617a.981.981 0 100 1.963c5.076 0 5.187 2.617 10.84 2.617 5.627 0 5.786-2.617 10.84-2.617a.981.981 0 100-1.963z" stroke="#FD6E02"/><path d="M52.66 53c-5.626 0-5.785 2.617-10.839 2.617-5.075 0-5.186-2.617-10.84-2.617a.981.981 0 000 1.963c5.076 0 5.187 2.617 10.84 2.617 5.627 0 5.786-2.617 10.84-2.617a.981.981 0 100-1.963z" fill="#000"/><path d="M52.66 53c-5.626 0-5.785 2.617-10.839 2.617-5.075 0-5.186-2.617-10.84-2.617a.981.981 0 000 1.963c5.076 0 5.187 2.617 10.84 2.617 5.627 0 5.786-2.617 10.84-2.617a.981.981 0 100-1.963z" fill="#fff"/><path d="M52.66 53c-5.626 0-5.785 2.617-10.839 2.617-5.075 0-5.186-2.617-10.84-2.617a.981.981 0 000 1.963c5.076 0 5.187 2.617 10.84 2.617 5.627 0 5.786-2.617 10.84-2.617a.981.981 0 100-1.963z" stroke="#FD6E02"/><path d="M19.17 55c-4.76 0-4.895 2.286-9.17 2.286C5.707 57.286 5.613 55 .83 55a.844.844 0 00-.83.857c0 .474.372.857.83.857C5.124 56.714 5.218 59 10 59c4.76 0 4.895-2.286 9.17-2.286.458 0 .83-.383.83-.857a.844.844 0 00-.83-.857z" fill="#000"/><path d="M19.17 55c-4.76 0-4.895 2.286-9.17 2.286C5.707 57.286 5.613 55 .83 55a.844.844 0 00-.83.857c0 .474.372.857.83.857C5.124 56.714 5.218 59 10 59c4.76 0 4.895-2.286 9.17-2.286.458 0 .83-.383.83-.857a.844.844 0 00-.83-.857z" fill="#fff"/><path d="M19.17 55c-4.76 0-4.895 2.286-9.17 2.286C5.707 57.286 5.613 55 .83 55a.844.844 0 00-.83.857c0 .474.372.857.83.857C5.124 56.714 5.218 59 10 59c4.76 0 4.895-2.286 9.17-2.286.458 0 .83-.383.83-.857a.844.844 0 00-.83-.857z" stroke="#FD6E02"/><mask id="aza" fill="#fff"><path d="M66.019 2.559h-8.675v-.733a.981.981 0 00-.981-.981h-4.554a.981.981 0 00-.981.981v.733H22.452v1.963h28.376v1.397H16.174V4.522h6.278V2.559h-6.278v-.733a.981.981 0 00-.981-.981h-4.554a.981.981 0 00-.982.981v.733H.983a.981.981 0 00-.981.981C.002 43.04 0 45 0 45l65.037.513c-.542 0-.542.03 0 .03s1.963.542 1.963 0V3.54a.981.981 0 00-.981-.981zm-4.694 39.955l-1.364-3.82-1.848.66.756 2.119c-.958-.298-2.127-.51-3.69-.51-5.626 0-5.786 2.617-10.839 2.617-3.773 0-4.624-1.353-7.257-2.14l-.31-21.759 14.33.045 7.01 19.629 1.848-.66-6.76-18.927h2.47l8.455 23.675c-1.169-.187-1.991-.543-2.8-.93zM9.657 18.617l-7.692 21.54V11.775h7.692v6.842zm1.674 1.151H13.8L5.677 42.513c-.81.386-1.632.742-2.801.93l8.455-23.675zm18.912-2.11c-.574-.205-1.064-.643-2.088-.823v-2.77a.981.981 0 00-1.963 0v2.786c-.965.189-1.451.61-2.002.807v-3.593a.981.981 0 00-1.963 0v3.593c-.556-.2-1.036-.618-2.002-.807v-2.786a.982.982 0 00-1.963 0v2.77c-1.024.18-1.517.619-2.088.823v-5.883h14.069v5.883zm-14.344 2.068c1.601 0 14.33-.045 14.33-.045l-.31 21.759c-2.634.787-3.486 2.14-7.257 2.14-5.076 0-5.187-2.617-10.84-2.617-1.562 0-2.731.212-3.689.51L15.9 19.725zm16.293.042h2.618l.304 21.28a15.498 15.498 0 00-3.226 0l.304-21.28zm25.152-7.993h7.693v28.382l-7.693-21.54v-6.842zm7.693-7.253v5.29h-7.693v-5.29h7.693zM52.791 2.808h2.59v14.997h-2.59V2.808zm-1.963 7.004H43.1v1.963h7.728v5.883c-.57-.204-1.064-.643-2.088-.823v-2.77a.981.981 0 10-1.963 0v2.786c-.965.189-1.451.61-2.002.807v-3.593a.981.981 0 10-1.963 0v3.593c-.556-.2-1.036-.618-2.002-.807v-2.786a.981.981 0 10-1.963 0v2.77c-1.024.18-1.517.619-2.088.823v-5.883h6.34V9.812h-6.34v-1.93h14.069v1.93zm-16.032-1.93v9.923h-2.59V7.882h2.59zm-4.553 0v1.93H16.174v-1.93h14.069zM11.62 2.808h2.591v14.997h-2.59V2.808zM1.965 4.522h7.692v5.29H1.965v-5.29zm63.072 40.991L0 45s4 1 6.828-.863c1.29-.623 2.508-1.21 4.994-1.21 5.075 0 5.186 2.616 10.84 2.616 5.626 0 5.785-2.617 10.839-2.617 5.075 0 5.186 2.617 10.839 2.617 5.627 0 5.786-2.617 10.84-2.617 4.816 0 4.32 1.574 9.857 2.587z"/></mask><path d="M66.019 2.559h-8.675v-.733a.981.981 0 00-.981-.981h-4.554a.981.981 0 00-.981.981v.733H22.452v1.963h28.376v1.397H16.174V4.522h6.278V2.559h-6.278v-.733a.981.981 0 00-.981-.981h-4.554a.981.981 0 00-.982.981v.733H.983a.981.981 0 00-.981.981C.002 43.04 0 45 0 45l65.037.513c-.542 0-.542.03 0 .03s1.963.542 1.963 0V3.54a.981.981 0 00-.981-.981zm-4.694 39.955l-1.364-3.82-1.848.66.756 2.119c-.958-.298-2.127-.51-3.69-.51-5.626 0-5.786 2.617-10.839 2.617-3.773 0-4.624-1.353-7.257-2.14l-.31-21.759 14.33.045 7.01 19.629 1.848-.66-6.76-18.927h2.47l8.455 23.675c-1.169-.187-1.991-.543-2.8-.93zM9.657 18.617l-7.692 21.54V11.775h7.692v6.842zm1.674 1.151H13.8L5.677 42.513c-.81.386-1.632.742-2.801.93l8.455-23.675zm18.912-2.11c-.574-.205-1.064-.643-2.088-.823v-2.77a.981.981 0 00-1.963 0v2.786c-.965.189-1.451.61-2.002.807v-3.593a.981.981 0 00-1.963 0v3.593c-.556-.2-1.036-.618-2.002-.807v-2.786a.982.982 0 00-1.963 0v2.77c-1.024.18-1.517.619-2.088.823v-5.883h14.069v5.883zm-14.344 2.068c1.601 0 14.33-.045 14.33-.045l-.31 21.759c-2.634.787-3.486 2.14-7.257 2.14-5.076 0-5.187-2.617-10.84-2.617-1.562 0-2.731.212-3.689.51L15.9 19.725zm16.293.042h2.618l.304 21.28a15.498 15.498 0 00-3.226 0l.304-21.28zm25.152-7.993h7.693v28.382l-7.693-21.54v-6.842zm7.693-7.253v5.29h-7.693v-5.29h7.693zM52.791 2.808h2.59v14.997h-2.59V2.808zm-1.963 7.004H43.1v1.963h7.728v5.883c-.57-.204-1.064-.643-2.088-.823v-2.77a.981.981 0 10-1.963 0v2.786c-.965.189-1.451.61-2.002.807v-3.593a.981.981 0 10-1.963 0v3.593c-.556-.2-1.036-.618-2.002-.807v-2.786a.981.981 0 10-1.963 0v2.77c-1.024.18-1.517.619-2.088.823v-5.883h6.34V9.812h-6.34v-1.93h14.069v1.93zm-16.032-1.93v9.923h-2.59V7.882h2.59zm-4.553 0v1.93H16.174v-1.93h14.069zM11.62 2.808h2.591v14.997h-2.59V2.808zM1.965 4.522h7.692v5.29H1.965v-5.29zm63.072 40.991L0 45s4 1 6.828-.863c1.29-.623 2.508-1.21 4.994-1.21 5.075 0 5.186 2.616 10.84 2.616 5.626 0 5.785-2.617 10.839-2.617 5.075 0 5.186 2.617 10.839 2.617 5.627 0 5.786-2.617 10.84-2.617 4.816 0 4.32 1.574 9.857 2.587z" fill="#fff"/><path d="M22.302 2.559v1.963h.3V2.559h-.3zM59.91 38.553l-1.849.66.101.283 1.849-.66-.101-.283zM42.95 9.812v1.963h.3V9.812h-.3zm22.088 35.551l-42.043-.331-16.403-.13-4.838-.038-1.301-.01-.337-.003H.008l-.003-.001H.003.002L0 45v.15h.113c.076.002.189.002.337.004l1.302.01a86260.36 86260.36 0 0021.24.167l42.044.332.002-.3zM57.344 2.56h-.3v.3h.3v-.3zm-6.516 0v.3h.3v-.3h-.3zm0 1.963h.3v-.3h-.3v.3zm0 1.397v.3h.3v-.3h-.3zm-34.654 0h-.3v.3h.3v-.3zm0-1.397v-.3h-.3v.3h.3zm0-1.963h-.3v.3h.3v-.3zm-6.517 0v.3h.3v-.3h-.3zM0 45h-.3v.234l.227.057L0 45zm61.325-2.486l-.283.1.042.117.112.053.13-.27zm-1.364-3.82l.283-.1-.283.1zm-1.848.66l.282-.1-.282.1zm.756 2.119l-.089.286.573.178-.202-.565-.282.1zm-21.786-.033l-.3.004.003.22.211.063.086-.287zm-.31-21.759v-.3h-.305l.004.305.3-.005zm14.33.045l.282-.1-.07-.2h-.212v.3zm2.099.042v-.3h-.426l.143.401.283-.1zm2.47 0l.282-.1-.071-.2h-.212v.3zm8.454 23.675l-.047.296.5.08-.17-.477-.283.1zM9.657 18.617l.283.1.017-.048v-.052h-.3zm-7.692 21.54h-.3l.582.1-.282-.1zm0-28.382v-.3h-.3v.3h.3zm7.692 0h.3v-.3h-.3v.3zm1.674 7.993v-.3h-.212l-.071.2.283.1zm2.469 0l.282.101.144-.4H13.8v.3zM5.677 42.513l.13.27.111-.053.042-.116-.283-.101zm-2.801.93l-.283-.101-.17.477.5-.08-.047-.296zm27.367-25.785l-.101.282.4.144v-.426h-.3zm-2.088-.823h-.3v.252l.248.044.052-.296zm-1.963.016l.058.295.242-.048v-.247h-.3zm-2.002.807h-.3v.426l.4-.143-.1-.283zm-1.963 0l-.101.282.4.144v-.426h-.3zm-2.002-.807h-.3v.247l.242.048.058-.295zm-1.963-.016l.052.296.248-.044v-.252h-.3zm-2.088.823h-.3v.426l.401-.144-.1-.282zm0-5.883v-.3h-.3v.3h.3zm14.069 0h.3v-.3h-.3v.3zm-14.344 7.951v-.3h-.211l-.071.2.282.1zm14.33-.045l.3.005.005-.306-.305.001v.3zm-.31 21.759l.086.288.21-.064.004-.22-.3-.004zm-21.786.032l-.282-.1-.202.565.573-.178-.089-.287zm24.059-21.704v-.3h-.296l-.004.296.3.004zm2.618 0l.3-.004-.004-.296h-.296v.3zm.304 21.28l-.032.297.337.038-.005-.34-.3.004zm-3.226 0l-.3-.005-.005.34.338-.038-.033-.298zm25.456-29.273v-.3h-.3v.3h.3zm7.693 0h.3v-.3h-.3v.3zm0 28.382l-.282.1.582-.1h-.3zm-7.693-21.54h-.3v.052l.018.049.282-.101zm7.693-14.095h.3v-.3h-.3v.3zm0 5.29v.3h.3v-.3h-.3zm-7.693 0h-.3v.3h.3v-.3zm0-5.29v-.3h-.3v.3h.3zm-4.553-1.714v-.3h-.3v.3h.3zm2.59 0h.3v-.3h-.3v.3zm0 14.997v.3h.3v-.3h-.3zm-2.59 0h-.3v.3h.3v-.3zm-1.963-7.993v.3h.3v-.3h-.3zm0 1.963h.3v-.3h-.3v.3zm0 5.883l-.101.282.4.144v-.426h-.3zm-2.088-.823h-.3v.252l.248.044.052-.296zm-1.963.016l.058.295.242-.048v-.247h-.3zm-2.002.807h-.3v.426l.4-.143-.1-.283zm-1.963 0l-.101.282.401.144v-.426h-.3zm-2.002-.807h-.3v.247l.242.048.058-.295zm-1.963-.016l.052.296.248-.044v-.252h-.3zm-2.088.823h-.3v.426l.401-.144-.1-.282zm0-5.883v-.3h-.3v.3h.3zm0-1.963h-.3v.3h.3v-.3zm0-1.93v-.3h-.3v.3h.3zm14.069 0h.3v-.3h-.3v.3zm-16.032 0h.3v-.3h-.3v.3zm0 9.923v.3h.3v-.3h-.3zm-2.59 0h-.3v.3h.3v-.3zm0-9.923v-.3h-.3v.3h.3zm-1.963 0h.3v-.3h-.3v.3zm0 1.93v.3h.3v-.3h-.3zm-14.069 0h-.3v.3h.3v-.3zm0-1.93v-.3h-.3v.3h.3zM11.62 2.808v-.3h-.3v.3h.3zm2.591 0h.3v-.3h-.3v.3zm0 14.997v.3h.3v-.3h-.3zm-2.59 0h-.3v.3h.3v-.3zM1.964 4.522v-.3h-.3v.3h.3zm7.692 0h.3v-.3h-.3v.3zm0 5.29v.3h.3v-.3h-.3zm-7.692 0h-.3v.3h.3v-.3zm63.072 35.701v.3l.054-.595-.054.295zM6.828 44.137l-.13-.27-.018.009-.017.01.165.251zm59.19-41.878h-8.674v.6h8.675v-.6zm-8.374.3v-.733h-.6v.733h.6zm0-.733c0-.707-.573-1.281-1.281-1.281v.6c.376 0 .681.305.681.681h.6zM56.363.545h-4.554v.6h4.554v-.6zm-4.554 0c-.708 0-1.281.574-1.281 1.281h.6c0-.376.305-.681.681-.681v-.6zm-1.281 1.281v.733h.6v-.733h-.6zm.3.433H22.452v.6h28.376v-.6zM22.452 4.822h28.376v-.6H22.452v.6zm28.076-.3v1.397h.6V4.522h-.6zm.3 1.097H16.174v.6h34.654v-.6zm-34.354.3V4.522h-.6v1.397h.6zm-.3-1.097h6.278v-.6h-6.278v.6zm6.278-2.563h-6.278v.6h6.278v-.6zm-5.978.3v-.733h-.6v.733h.6zm0-.733c0-.707-.574-1.281-1.281-1.281v.6c.376 0 .681.305.681.681h.6zM15.193.545h-4.554v.6h4.554v-.6zm-4.554 0c-.708 0-1.282.574-1.282 1.281h.6c0-.376.306-.681.682-.681v-.6zM9.357 1.826v.733h.6v-.733h-.6zm.3.433H.983v.6h8.674v-.6zm-8.674 0c-.707 0-1.281.574-1.281 1.281h.6c0-.376.305-.681.681-.681v-.6zM-.298 3.54A449828.383 449828.383 0 01-.3 44.993v.006L0 45h.3v-.001-.006a126.24 126.24 0 000-.154 4685.396 4685.396 0 000-5.756C.302 33.655.303 23.29.303 3.54h-.6zm65.335 42.303c.1 0 .261.027.476.07.201.041.442.095.661.13.213.034.452.06.648.024a.625.625 0 00.32-.148.501.501 0 00.158-.376h-.6c0 .001 0-.009.006-.024a.115.115 0 01.028-.04c.019-.017.024-.01-.017-.002-.088.015-.238.007-.448-.027-.203-.032-.42-.08-.637-.125a3.312 3.312 0 00-.595-.082v.6zm2.263-.3V3.54h-.6v42.003h.6zm0-42.003c0-.707-.573-1.281-1.281-1.281v.6c.376 0 .681.305.681.681h.6zm-5.692 38.873l-1.364-3.82-.565.202 1.363 3.82.566-.202zm-3.778-2.957l.756 2.117.566-.201-.757-2.118-.565.202zm1.128 1.73c-.988-.307-2.187-.523-3.779-.523v.6c1.534 0 2.673.208 3.601.496l.178-.573zm-3.779-.523c-2.875 0-4.368.674-5.763 1.338-1.365.65-2.618 1.28-5.076 1.28v.6c2.596 0 3.949-.68 5.334-1.338 1.354-.645 2.755-1.28 5.505-1.28v-.6zM44.34 43.28c-1.843 0-2.959-.328-3.938-.75-.967-.417-1.897-.978-3.233-1.377l-.172.574c1.297.388 2.108.897 3.168 1.354 1.048.451 2.245.8 4.175.8v-.6zm-6.957-1.844l-.31-21.759-.6.009.31 21.758.6-.008zM36.77 19.98l14.33.045.002-.6-14.33-.045-.002.6zm14.049-.154l7.01 19.629.565-.202-7.01-19.629-.565.202zm9.424 18.767l-6.76-18.927-.565.202 6.76 18.926.565-.201zm-7.042-18.526h2.47v-.6h-2.47v.6zm2.187-.199l8.455 23.675.565-.202-8.455-23.675-.565.202zm8.785 23.278c-1.127-.18-1.92-.522-2.72-.904l-.258.541c.82.392 1.672.761 2.883.955l.095-.592zm-54.8-24.631l-7.692 21.54.565.202 7.693-21.54-.565-.202zm-7.11 21.64V11.776h-.6v28.382h.6zm-.3-28.081h7.693v-.6H1.965v.6zm7.393-.3v6.842h.6v-6.842h-.6zm1.974 8.293H13.8v-.6h-2.47v.6zm2.186-.4L5.395 42.411l.565.202 8.122-22.745-.565-.202zm-7.97 22.574c-.8.382-1.592.724-2.719.904l.095.593c1.21-.194 2.064-.564 2.883-.956l-.258-.541zm-2.389 1.302l8.455-23.675-.565-.202-8.455 23.675.565.202zm27.186-26.169c-.267-.095-.49-.234-.844-.407a4.678 4.678 0 00-1.293-.428l-.104.59c.476.084.828.227 1.133.377.29.141.599.324.905.433l.203-.565zm-1.89-.54v-2.77h-.6v2.77h.6zm0-2.77c0-.708-.573-1.281-1.28-1.281v.6c.376 0 .68.305.68.68h.6zm-1.28-1.281c-.708 0-1.282.573-1.282 1.28h.6c0-.375.305-.68.681-.68v-.6zm-1.282 1.28v2.787h.6v-2.786h-.6zm.242 2.493a4.744 4.744 0 00-1.231.425c-.34.168-.56.303-.814.394l.202.564c.297-.106.596-.28.878-.42a4.142 4.142 0 011.08-.374l-.115-.59zm-1.644 1.101v-3.593h-.6v3.593h.6zm0-3.593c0-.708-.574-1.281-1.282-1.281v.6c.377 0 .682.305.682.68h.6zm-1.282-1.281c-.707 0-1.281.573-1.281 1.28h.6c0-.375.305-.68.681-.68v-.6zm-1.281 1.28v3.594h.6v-3.593h-.6zm.401 3.311c-.257-.091-.476-.226-.815-.393a4.722 4.722 0 00-1.23-.425l-.116.589c.45.087.785.228 1.08.374.281.139.58.313.879.42l.202-.565zm-1.803-.524v-2.786h-.6v2.786h.6zm0-2.786c0-.708-.574-1.281-1.282-1.281v.6c.377 0 .682.305.682.68h.6zm-1.282-1.281c-.707 0-1.281.573-1.281 1.28h.6c0-.375.305-.68.681-.68v-.6zm-1.281 1.28v2.771h.6v-2.77h-.6zm.248 2.476a4.683 4.683 0 00-1.294.428c-.356.174-.578.313-.843.407l.202.565c.305-.109.615-.291.905-.433.305-.15.657-.293 1.134-.376l-.104-.591zm-1.736 1.118v-5.883h-.6v5.883h.6zm-.3-5.583h14.069v-.6H16.174v.6zm13.769-.3v5.883h.6v-5.883h-.6zm-14.044 8.251c.801 0 4.385-.011 7.767-.022l4.55-.016 1.465-.005.407-.001H30.23v-.3l-.001-.3H30.084l-.406.001-1.464.005a34320.906 34320.906 0 01-12.316.038v.6zm14.03-.349l-.31 21.759.6.008.31-21.759-.6-.008zm-.096 21.476c-1.336.399-2.267.96-3.235 1.377-.979.422-2.094.75-3.936.75v.6c1.93 0 3.125-.347 4.174-.799 1.06-.457 1.871-.966 3.169-1.354l-.172-.574zm-7.171 2.128c-2.469 0-3.716-.63-5.074-1.28-1.39-.664-2.877-1.338-5.766-1.338v.6c2.764 0 4.16.635 5.507 1.28 1.38.659 2.726 1.337 5.333 1.337v-.6zm-10.84-2.618c-1.591 0-2.79.216-3.778.523l.178.573c.928-.288 2.066-.496 3.6-.496v-.6zm-3.406.91l7.766-21.746-.565-.202L7.85 41.371l.565.202zm23.776-21.505h2.618v-.6h-2.618v.6zm2.318-.295l.304 21.279.6-.009-.304-21.279-.6.009zm.637 20.976a15.798 15.798 0 00-3.292 0l.066.596a15.198 15.198 0 013.16 0l.066-.596zm-2.96.303l.305-21.28-.6-.008-.304 21.279.6.009zm25.157-28.977h7.693v-.6h-7.693v.6zm7.393-.3v28.382h.6V11.775h-.6zm.583 28.28l-7.693-21.54-.565.203 7.693 21.54.565-.202zm-7.676-21.438v-6.842h-.6v6.842h.6zm7.093-14.095v5.29h.6v-5.29h-.6zm.3 4.99h-7.693v.6h7.693v-.6zm-7.393.3v-5.29h-.6v5.29h.6zm-.3-4.99h7.693v-.6h-7.693v.6zm-4.553-1.714h2.59v-.6h-2.59v.6zm2.29-.3v14.997h.6V2.808h-.6zm.3 14.697h-2.59v.6h2.59v-.6zm-2.29.3V2.808h-.6v14.997h.6zm-2.263-8.293H43.1v.6h7.728v-.6zM43.1 12.075h7.728v-.6H43.1v.6zm7.428-.3v5.883h.6v-5.883h-.6zm.4 5.6c-.264-.094-.486-.233-.842-.407a4.69 4.69 0 00-1.294-.428l-.104.59c.476.084.829.228 1.135.377.29.142.599.324.904.433l.202-.565zm-1.888-.54v-2.77h-.6v2.77h.6zm0-2.77c0-.708-.574-1.281-1.282-1.281v.6c.377 0 .682.304.682.68h.6zm-1.282-1.281c-.707 0-1.281.573-1.281 1.28h.6c0-.376.305-.68.681-.68v-.6zm-1.281 1.28v2.787h.6v-2.786h-.6zm.242 2.493c-.516.1-.905.265-1.23.426-.341.167-.56.302-.815.393l.202.565c.297-.107.596-.281.878-.42a4.142 4.142 0 011.08-.375l-.115-.59zm-1.644 1.101v-3.593h-.6v3.593h.6zm0-3.593c0-.708-.574-1.281-1.282-1.281v.6c.377 0 .682.304.682.68h.6zm-1.282-1.281c-.707 0-1.281.573-1.281 1.28h.6c0-.376.305-.68.681-.68v-.6zm-1.281 1.28v3.594h.6v-3.593h-.6zm.401 3.311c-.256-.091-.476-.226-.815-.393a4.724 4.724 0 00-1.23-.425l-.116.589c.45.087.785.228 1.08.374.281.139.58.313.879.42l.202-.565zm-1.803-.524v-2.786h-.6v2.786h.6zm0-2.786c0-.708-.574-1.281-1.282-1.281v.6c.377 0 .682.304.682.68h.6zm-1.282-1.281c-.708 0-1.281.573-1.281 1.28h.6c0-.376.305-.68.681-.68v-.6zm-1.281 1.28v2.771h.6v-2.77h-.6zm.248 2.476a4.683 4.683 0 00-1.294.428c-.355.174-.578.313-.843.407l.202.565c.306-.109.615-.291.905-.433.306-.15.657-.293 1.134-.376l-.104-.591zm-1.736 1.118v-5.883h-.6v5.883h.6zm-.3-5.583h6.34v-.6h-6.34v.6zm6.34-2.563h-6.34v.6h6.34v-.6zm-6.04.3v-1.93h-.6v1.93h.6zm-.3-1.63h14.069v-.6H36.759v.6zm13.769-.3v1.93h.6v-1.93h-.6zm-16.032 0v9.923h.6V7.882h-.6zm.3 9.623h-2.59v.6h2.59v-.6zm-2.29.3V7.882h-.6v9.923h.6zm-.3-9.623h2.59v-.6h-2.59v.6zm-2.263-.3v1.93h.6v-1.93h-.6zm.3 1.63H16.174v.6h14.069v-.6zm-13.769.3v-1.93h-.6v1.93h.6zm-.3-1.63h14.069v-.6H16.174v.6zM11.62 3.108h2.591v-.6h-2.59v.6zm2.291-.3v14.997h.6V2.808h-.6zm.3 14.697h-2.59v.6h2.59v-.6zm-2.29.3V2.808h-.6v14.997h.6zM1.964 4.822h7.692v-.6H1.965v.6zm7.392-.3v5.29h.6v-5.29h-.6zm.3 4.99H1.965v.6h7.692v-.6zm-7.392.3v-5.29h-.6v5.29h.6zM0 45a37.64 37.64 0 00-.072.291l.004.001a.67.67 0 00.047.011 10.11 10.11 0 00.645.12c.43.067 1.032.135 1.726.144 1.38.018 3.157-.2 4.643-1.18l-.33-.5c-1.342.884-2.98 1.097-4.306 1.08a11.884 11.884 0 01-2.119-.221 5.418 5.418 0 01-.164-.037H.073L0 45zm6.959-.593c1.272-.614 2.443-1.18 4.863-1.18v-.6c-2.552 0-3.818.609-5.124 1.24l.26.54zm4.863-1.18c2.468 0 3.715.629 5.073 1.278 1.39.665 2.877 1.338 5.767 1.338v-.6c-2.765 0-4.16-.635-5.508-1.279-1.38-.66-2.726-1.338-5.332-1.338v.6zm10.84 2.616c2.875 0 4.368-.673 5.763-1.337 1.365-.65 2.618-1.28 5.076-1.28v-.6c-2.596 0-3.949.679-5.334 1.338-1.354.644-2.755 1.28-5.506 1.28v.6zM33.5 43.226c2.468 0 3.715.63 5.073 1.28 1.39.664 2.877 1.337 5.766 1.337v-.6c-2.764 0-4.16-.635-5.507-1.279-1.379-.66-2.725-1.338-5.332-1.338v.6zm10.839 2.617c2.876 0 4.368-.673 5.763-1.337 1.365-.65 2.619-1.28 5.076-1.28v-.6c-2.595 0-3.949.679-5.333 1.338-1.355.644-2.755 1.28-5.506 1.28v.6zm10.84-2.617c2.36 0 3.399.382 4.536.888 1.172.52 2.46 1.18 5.267 1.695l.108-.59c-2.73-.5-3.963-1.134-5.131-1.653-1.203-.535-2.324-.94-4.78-.94v.6zm9.857 1.987a8.228 8.228 0 00-.412.011.488.488 0 00-.113.028.3.3 0 00.062.572 1.55 1.55 0 00.146.014c.073.003.18.005.317.005v-.6a7.718 7.718 0 01-.35-.008c-.006 0 .001 0 .013.003a.293.293 0 01.129.066.299.299 0 01-.076.498c-.027.011-.049.016-.053.017l-.013.002.058-.003c.062-.003.159-.005.292-.005v-.6z" fill="#FD7002" mask="url(#aza)"/></svg><svg fill="none" viewBox="0 0 73 59" id="solutions-05" xmlns="http://www.w3.org/2000/svg"><g clip-path="url(#baclip0_459_6533)"><path d="M22.364 52.854h0-1.012l-3 .005h-.06l-.056-.017c-.864-.263-1.498-.576-1.962-.93l6.09.942zm0 0l2.308-.002h.892l-.593-.666-3.414-3.825-.12-.134H15.95m6.415 4.627l-6.416-4.627m.19.4l-.31-.252h0l-.002.002-.003.004-.01.012-.03.041a3.099 3.099 0 00-.355.646c-.166.418-.295 1.019-.063 1.66h0c.076.208.19.408.335.602h.001c.147.195.334.387.573.57l-.135-3.285zm0 0l-.31-.253m.31.253l-.31-.253m.12-.147l-.12.148m.12-.148l-.12.148m41.45-10.87l.02.022.022.019c.846.705 1.559 1.726 2.06 2.825.502 1.1.778 2.247.777 3.19v6.02c0 1.35-.544 2.579-1.431 3.498l-.113.116v2.496c0 1.125-.97 2.078-2.209 2.078H53.25c-1.24 0-2.21-.951-2.21-2.078v-.997H21.963v.997c0 1.127-.971 2.078-2.21 2.078h-3.156c-1.238 0-2.21-.953-2.21-2.078v-2.496l-.112-.116a5.023 5.023 0 01-1.432-3.498v-6.02c0-.943.277-2.09.779-3.19s1.215-2.12 2.06-2.825l.02-.017.018-.02c.013-.013.023-.026.032-.036l.022-.025a.278.278 0 01.022-.023h0l.002-.002 1.686-1.589.55-.518-.738-.164a4.331 4.331 0 01-1.803-.903c-.512-.437-.788-.916-.788-1.333 0-.446.303-.804.934-1.07.626-.264 1.468-.382 2.27-.382.766 0 1.11.249 1.289.509.2.291.255.685.267 1.081l.024.892.65-.611 4.349-4.095h0l.003-.003c.395-.382.987-.739 1.64-1 .652-.262 1.333-.414 1.895-.414h16.949c.562 0 1.243.152 1.896.414.653.261 1.244.618 1.639 1h0l.004.003 4.35 4.095.651.613.023-.894c.01-.397.065-.79.265-1.081.178-.26.523-.51 1.291-.51.8 0 1.642.119 2.268.383.63.266.934.624.934 1.07 0 .418-.276.896-.787 1.333a4.328 4.328 0 01-1.803.903l-.738.164.55.518 1.686 1.588.002.003a.27.27 0 01.027.028l.045.052zm-31.72-7.047l-.01.01-.012.01-5.703 5.398-.73.69H53.9l-.73-.69-5.704-5.398-.01-.01-.013-.01c-.349-.284-.81-.521-1.246-.688-.429-.163-.883-.277-1.22-.277H28.026c-.338 0-.792.114-1.22.277-.436.167-.898.404-1.247.688zm.8 18.884h-.4v.4c0 1.728 1.435 3.114 3.181 3.114h14.724c1.746 0 3.181-1.384 3.181-3.114v-.4H26.358zm-.89-6.34h-.4v.4c0 1.308.357 2.51.955 3.397.596.884 1.462 1.49 2.47 1.49h16.016c1.008 0 1.874-.606 2.47-1.49.598-.886.955-2.088.955-3.397v-.4H25.468zm32.17 7.741v-.002c.232-.642.103-1.243-.065-1.66a3.082 3.082 0 00-.386-.687l-.011-.013-.006-.007-.005-.006-.01-.012a.778.778 0 00-.025-.024c-.017-.013-.132-.025-.267.008v-.11h-5.298l-.12.134-3.415 3.825-.595.666H51.65l3 .005h.059l.057-.017c.864-.26 1.5-.576 1.962-.93.24-.182.427-.375.574-.57.146-.194.26-.393.336-.6zM17.056 39.565c-1.693 0-3.056 1.387-3.056 3.086 0 1.7 1.364 3.081 3.056 3.081.182 0 .426.006.712.013.812.02 1.961.047 2.995-.028.7-.05 1.391-.149 1.918-.346.503-.188 1.032-.537 1.032-1.178 0-.289-.115-.568-.268-.817a4.176 4.176 0 00-.622-.753c-.5-.493-1.17-.993-1.875-1.438a15.767 15.767 0 00-2.139-1.135c-.659-.282-1.298-.485-1.753-.485zm32.234 4.628c0 .64.53.99 1.032 1.177.527.197 1.218.296 1.918.347 1.035.074 2.185.047 2.997.028.285-.007.528-.013.71-.013 1.691 0 3.055-1.383 3.055-3.081 0-1.7-1.363-3.086-3.056-3.086-.454 0-1.094.203-1.753.485-.676.29-1.431.69-2.138 1.136-.704.445-1.375.944-1.874 1.437-.25.247-.466.5-.622.753-.154.25-.269.528-.269.817z" stroke="#fff" stroke-width=".8"/><path d="M36.073 42.372c.378-.014.756.022 1.131-.017.204-.022.4-.07.564-.214a.728.728 0 00.245-.725c-.053-.267-.2-.442-.444-.51-.053-.013-.116-.016-.11-.113.002-.092.063-.086.11-.103.124-.044.247-.089.35-.183.368-.342.303-.96-.13-1.24-.19-.122-.399-.167-.613-.189-.315-.036-.63-.017-.942-.014-.398.006-.796.008-1.197-.003-.221-.005-.189-.033-.191.198-.003.11.005.222-.003.333-.005.086.028.109.103.109.217-.003.217 0 .217.247 0 .556-.002 1.112.003 1.668 0 .105-.028.144-.121.127-.028-.005-.058 0-.088-.002-.089-.014-.121.022-.114.122.008.114.01.233 0 .347-.012.131.023.175.149.17.358-.017.718-.008 1.08-.008zm.15-2.282c0-.114.003-.23 0-.345 0-.055.011-.086.069-.083.139.005.277-.009.413.025.182.044.303.22.297.422-.007.203-.128.353-.315.386-.123.023-.249.017-.375.023-.065.002-.09-.023-.088-.095.002-.114 0-.222 0-.333zm.235 1.681c-.032.003-.068-.005-.1.003-.116.025-.142-.028-.137-.15.01-.19.005-.378 0-.567-.002-.072.018-.1.086-.095.1.006.202 0 .3.006.209.011.35.17.355.4.005.236-.12.384-.343.403-.052.003-.108 0-.16 0z" fill="#000"/><path d="M36.073 42.372c.378-.014.756.022 1.131-.017.204-.022.4-.07.564-.214a.728.728 0 00.245-.725c-.053-.267-.2-.442-.444-.51-.053-.013-.116-.016-.11-.113.002-.092.063-.086.11-.103.124-.044.247-.089.35-.183.368-.342.303-.96-.13-1.24-.19-.122-.399-.167-.613-.189-.315-.036-.63-.017-.942-.014-.398.006-.796.008-1.197-.003-.221-.005-.189-.033-.191.198-.003.11.005.222-.003.333-.005.086.028.109.103.109.217-.003.217 0 .217.247 0 .556-.002 1.112.003 1.668 0 .105-.028.144-.121.127-.028-.005-.058 0-.088-.002-.089-.014-.121.022-.114.122.008.114.01.233 0 .347-.012.131.023.175.149.17.358-.017.718-.008 1.08-.008zm.15-2.282c0-.114.003-.23 0-.345 0-.055.011-.086.069-.083.139.005.277-.009.413.025.182.044.303.22.297.422-.007.203-.128.353-.315.386-.123.023-.249.017-.375.023-.065.002-.09-.023-.088-.095.002-.114 0-.222 0-.333zm.235 1.681c-.032.003-.068-.005-.1.003-.116.025-.142-.028-.137-.15.01-.19.005-.378 0-.567-.002-.072.018-.1.086-.095.1.006.202 0 .3.006.209.011.35.17.355.4.005.236-.12.384-.343.403-.052.003-.108 0-.16 0z" fill="#fff"/><path d="M36.073 42.372c.378-.014.756.022 1.131-.017.204-.022.4-.07.564-.214a.728.728 0 00.245-.725c-.053-.267-.2-.442-.444-.51-.053-.013-.116-.016-.11-.113.002-.092.063-.086.11-.103.124-.044.247-.089.35-.183.368-.342.303-.96-.13-1.24-.19-.122-.399-.167-.613-.189-.315-.036-.63-.017-.942-.014-.398.006-.796.008-1.197-.003-.221-.005-.189-.033-.191.198-.003.11.005.222-.003.333-.005.086.028.109.103.109.217-.003.217 0 .217.247 0 .556-.002 1.112.003 1.668 0 .105-.028.144-.121.127-.028-.005-.058 0-.088-.002-.089-.014-.121.022-.114.122.008.114.01.233 0 .347-.012.131.023.175.149.17.358-.017.718-.008 1.08-.008zm.15-2.282c0-.114.003-.23 0-.345 0-.055.011-.086.069-.083.139.005.277-.009.413.025.182.044.303.22.297.422-.007.203-.128.353-.315.386-.123.023-.249.017-.375.023-.065.002-.09-.023-.088-.095.002-.114 0-.222 0-.333zm.235 1.681c-.032.003-.068-.005-.1.003-.116.025-.142-.028-.137-.15.01-.19.005-.378 0-.567-.002-.072.018-.1.086-.095.1.006.202 0 .3.006.209.011.35.17.355.4.005.236-.12.384-.343.403-.052.003-.108 0-.16 0z" fill="#000"/><path d="M36.073 42.372c.378-.014.756.022 1.131-.017.204-.022.4-.07.564-.214a.728.728 0 00.245-.725c-.053-.267-.2-.442-.444-.51-.053-.013-.116-.016-.11-.113.002-.092.063-.086.11-.103.124-.044.247-.089.35-.183.368-.342.303-.96-.13-1.24-.19-.122-.399-.167-.613-.189-.315-.036-.63-.017-.942-.014-.398.006-.796.008-1.197-.003-.221-.005-.189-.033-.191.198-.003.11.005.222-.003.333-.005.086.028.109.103.109.217-.003.217 0 .217.247 0 .556-.002 1.112.003 1.668 0 .105-.028.144-.121.127-.028-.005-.058 0-.088-.002-.089-.014-.121.022-.114.122.008.114.01.233 0 .347-.012.131.023.175.149.17.358-.017.718-.008 1.08-.008zm.15-2.282c0-.114.003-.23 0-.345 0-.055.011-.086.069-.083.139.005.277-.009.413.025.182.044.303.22.297.422-.007.203-.128.353-.315.386-.123.023-.249.017-.375.023-.065.002-.09-.023-.088-.095.002-.114 0-.222 0-.333zm.235 1.681c-.032.003-.068-.005-.1.003-.116.025-.142-.028-.137-.15.01-.19.005-.378 0-.567-.002-.072.018-.1.086-.095.1.006.202 0 .3.006.209.011.35.17.355.4.005.236-.12.384-.343.403-.052.003-.108 0-.16 0z" fill="#fff"/><path d="M36.477 21.606c-5.974-.028-10.788-4.876-10.761-10.849C25.743 4.784 30.612-.037 36.578 0c5.938.037 10.733 4.885 10.706 10.858a10.767 10.767 0 01-10.807 10.748zm4.22-11.517c.759-.32 1.243-.878 1.462-1.646.402-1.427-.484-3.092-1.936-3.66a5.557 5.557 0 00-1.964-.383c-2.768-.019-5.536-.01-8.304-.028-.265 0-.338.083-.338.339.009.805.009 1.619 0 2.424-.01.265.064.402.356.357.119-.019.247.009.365-.01.357-.064.43.101.42.43-.018 1.464-.008 2.927-.008 4.391 0 .832 0 .841-.805.85-.264 0-.337.092-.328.339.009.75 0 1.491.009 2.241 0 .357.155.558.548.549 2.676-.01 5.353.01 8.039-.027a6.883 6.883 0 002.667-.54c1.416-.622 2.129-2.086 1.718-3.522a3.342 3.342 0 00-.85-1.436c1.645-.915 2.074-3.12.758-4.061.585 1.107.53 2.131-.21 3.11-.502.658-.84.722-1.598.283zm2.294 1.903c.1.247.2.448.264.658.439 1.482-.429 3.01-2.046 3.577-1.005.348-2.055.412-3.106.403-2.1-.01-4.202-.064-6.303 0-.119 0-.32-.064-.32.146 0 .22.201.137.32.137 2.558 0 5.116.01 7.674-.018a6.66 6.66 0 002.064-.357c.996-.338 1.718-.97 2.065-1.976.31-.942.073-1.976-.612-2.57z" fill="#000"/><path d="M36.477 21.606c-5.974-.028-10.788-4.876-10.761-10.849C25.743 4.784 30.612-.037 36.578 0c5.938.037 10.733 4.885 10.706 10.858a10.767 10.767 0 01-10.807 10.748zm4.22-11.517c.759-.32 1.243-.878 1.462-1.646.402-1.427-.484-3.092-1.936-3.66a5.557 5.557 0 00-1.964-.383c-2.768-.019-5.536-.01-8.304-.028-.265 0-.338.083-.338.339.009.805.009 1.619 0 2.424-.01.265.064.402.356.357.119-.019.247.009.365-.01.357-.064.43.101.42.43-.018 1.464-.008 2.927-.008 4.391 0 .832 0 .841-.805.85-.264 0-.337.092-.328.339.009.75 0 1.491.009 2.241 0 .357.155.558.548.549 2.676-.01 5.353.01 8.039-.027a6.883 6.883 0 002.667-.54c1.416-.622 2.129-2.086 1.718-3.522a3.342 3.342 0 00-.85-1.436c1.645-.915 2.074-3.12.758-4.061.585 1.107.53 2.131-.21 3.11-.502.658-.84.722-1.598.283zm2.294 1.903c.1.247.2.448.264.658.439 1.482-.429 3.01-2.046 3.577-1.005.348-2.055.412-3.106.403-2.1-.01-4.202-.064-6.303 0-.119 0-.32-.064-.32.146 0 .22.201.137.32.137 2.558 0 5.116.01 7.674-.018a6.66 6.66 0 002.064-.357c.996-.338 1.718-.97 2.065-1.976.31-.942.073-1.976-.612-2.57z" fill="#fff"/><path d="M34.577 4.875c1.37.046 2.74-.073 4.102.055.74.073 1.452.229 2.046.704.767.613 1.096 1.418.886 2.388-.192.878-.721 1.454-1.608 1.674-.191.045-.42.055-.402.375.01.302.229.283.402.338.448.146.896.293 1.27.604 1.334 1.125 1.096 3.156-.475 4.08-.685.402-1.443.548-2.22.621-1.142.12-2.284.055-3.416.046a114.377 114.377 0 00-4.34.01c-.803.018-.685.11-.694-.65-.009-.366.018-.732-.009-1.098-.018-.283.1-.356.375-.356.785.009.785 0 .785-.815 0-1.829-.009-3.658.01-5.488 0-.347-.101-.475-.44-.42-.1.018-.21 0-.319.009-.32.045-.438-.074-.41-.403a6.842 6.842 0 000-1.143c-.047-.43.081-.577.538-.558 1.297.055 2.603.027 3.919.027zm.548 7.51c0 .375.01.76 0 1.134 0 .183.037.284.247.275.502-.019 1.005.027 1.498-.083a1.369 1.369 0 001.078-1.39c-.028-.668-.466-1.162-1.142-1.271-.448-.074-.904-.055-1.361-.074-.238-.009-.329.073-.32.311.01.375 0 .732 0 1.098zm.85-5.534c-.12-.01-.247.018-.366-.01-.42-.082-.511.092-.493.495.037.622.018 1.244 0 1.866-.01.238.064.329.31.31.366-.018.731 0 1.088-.018.758-.036 1.27-.558 1.288-1.317.018-.777-.439-1.262-1.243-1.326-.191-.01-.392 0-.584 0zM36.073 42.372c.378-.014.756.022 1.131-.017.204-.022.4-.07.564-.214a.728.728 0 00.245-.725c-.053-.267-.2-.442-.444-.51-.053-.013-.116-.016-.11-.113.002-.092.063-.086.11-.103.124-.044.247-.089.35-.183.368-.342.303-.96-.13-1.24-.19-.122-.399-.167-.613-.189-.315-.036-.63-.017-.942-.014-.398.006-.796.008-1.197-.003-.221-.005-.189-.033-.191.198-.003.11.005.222-.003.333-.005.086.028.109.103.109.217-.003.217 0 .217.247 0 .556-.002 1.112.003 1.668 0 .105-.028.144-.121.127-.028-.005-.058 0-.088-.002-.089-.014-.121.022-.114.122.008.114.01.233 0 .347-.012.131.023.175.149.17.358-.017.718-.008 1.08-.008zm.15-2.282c0-.114.003-.23 0-.345 0-.055.011-.086.069-.083.139.005.277-.009.413.025.182.044.303.22.297.422-.007.203-.128.353-.315.386-.123.023-.249.017-.375.023-.065.002-.09-.023-.088-.095.002-.114 0-.222 0-.333zm.235 1.681c-.032.003-.068-.005-.1.003-.116.025-.142-.028-.137-.15.01-.19.005-.378 0-.567-.002-.072.018-.1.086-.095.1.006.202 0 .3.006.209.011.35.17.355.4.005.236-.12.384-.343.403-.052.003-.108 0-.16 0z" fill="#fff"/><path d="M.83 2.493v-.831H0v.83h.83zm71.34 0H73v-.831h-.83v.83zm0 55.676v.83H73v-.83h-.83zm-3.318 0h-.83v.83h.83v-.83zm0-39.056h.83v-.831h-.83v.83zm-64.704 0v-.831h-.83v.83h.83zm0 39.056v.83h.83v-.83h-.83zm-3.318 0H0v.83h.83v-.83zM4.148 1.662H.83v1.662h3.318V1.662zm0 1.662h64.704V1.662H4.148v1.662zM72.17 1.662h-3.319v1.662h3.319V1.662zM73 58.169V2.493h-1.66v55.676H73zm-4.148.83h3.319v-1.661h-3.319V59zm-.83-39.886v39.056h1.66V19.113h-1.66zm.83-.831H4.148v1.662h64.704v-1.662zM4.977 58.169V19.113H3.318v39.056h1.66zm-4.147.83h3.318v-1.661H.83V59zM0 2.494v55.676h1.66V2.493H0z" fill="#000"/><path d="M.83 2.493v-.831H0v.83h.83zm71.34 0H73v-.831h-.83v.83zm0 55.676v.83H73v-.83h-.83zm-3.318 0h-.83v.83h.83v-.83zm0-39.056h.83v-.831h-.83v.83zm-64.704 0v-.831h-.83v.83h.83zm0 39.056v.83h.83v-.83h-.83zm-3.318 0H0v.83h.83v-.83zM4.148 1.662H.83v1.662h3.318V1.662zm0 1.662h64.704V1.662H4.148v1.662zM72.17 1.662h-3.319v1.662h3.319V1.662zM73 58.169V2.493h-1.66v55.676H73zm-4.148.83h3.319v-1.661h-3.319V59zm-.83-39.886v39.056h1.66V19.113h-1.66zm.83-.831H4.148v1.662h64.704v-1.662zM4.977 58.169V19.113H3.318v39.056h1.66zm-4.147.83h3.318v-1.661H.83V59zM0 2.494v55.676h1.66V2.493H0z" fill="#fff"/></g><defs><clipPath id="baclip0_459_6533"><path fill="#fff" d="M0 0h73v59H0z"/></clipPath></defs></svg></svg>